<svg width="100" height="100" viewBox="0 0 150 151" fill="none" xmlns="http://www.w3.org/2000/svg">
<path d="M149.58 75.4131C149.58 116.718 116.095 150.203 74.7898 150.203C33.4845 150.203 0 116.718 0 75.4131C0 34.1077 33.4845 0.623047 74.7898 0.623047C116.095 0.623047 149.58 34.1077 149.58 75.4131ZM22.4369 75.4131C22.4369 104.327 45.8761 127.766 74.7898 127.766C103.703 127.766 127.143 104.327 127.143 75.4131C127.143 46.4993 103.703 23.0601 74.7898 23.0601C45.8761 23.0601 22.4369 46.4993 22.4369 75.4131Z" fill="white"/>
<path d="M42.4664 132.645L43.5856 133.167C43.5017 133.52 43.4857 133.857 43.5375 134.178C43.5863 134.497 43.6895 134.795 43.847 135.069C44.0001 135.346 44.1985 135.592 44.442 135.808C44.6856 136.025 44.9608 136.204 45.2677 136.347C45.8273 136.608 46.4002 136.703 46.9865 136.632C47.5697 136.56 48.1235 136.311 48.6481 135.885C49.1696 135.458 49.617 134.844 49.9902 134.044C50.3634 133.244 50.546 132.506 50.538 131.832C50.5269 131.157 50.3617 130.572 50.0423 130.079C49.7198 129.584 49.2788 129.207 48.7191 128.946C48.4122 128.802 48.0977 128.707 47.7756 128.659C47.4535 128.612 47.138 128.617 46.8292 128.674C46.5159 128.733 46.2212 128.847 45.9451 129.015C45.6646 129.184 45.4168 129.413 45.2019 129.701L44.0827 129.179C44.3872 128.746 44.7377 128.395 45.1344 128.126C45.531 127.856 45.9558 127.668 46.4089 127.561C46.8605 127.456 47.324 127.432 47.7993 127.489C48.2717 127.545 48.741 127.681 49.2074 127.899C49.9957 128.266 50.607 128.786 51.0412 129.457C51.4754 130.128 51.7029 130.901 51.7239 131.775C51.7448 132.65 51.5279 133.574 51.0734 134.549C50.6188 135.524 50.0499 136.284 49.3668 136.83C48.6836 137.376 47.9454 137.698 47.152 137.797C46.3586 137.896 45.5677 137.762 44.7794 137.394C44.3131 137.177 43.9068 136.905 43.5608 136.579C43.2117 136.251 42.9327 135.879 42.7238 135.463C42.5135 135.05 42.384 134.605 42.3353 134.128C42.2852 133.654 42.3289 133.16 42.4664 132.645Z" fill="black"/>
<path d="M32.913 129.855L39.0507 121.71L39.9892 122.418L33.8516 130.562L32.913 129.855Z" fill="black"/>
<path d="M30.2256 112.999C30.6786 113.52 30.9521 114.085 31.046 114.694C31.1377 115.301 31.0564 115.908 30.8021 116.516C30.5456 117.122 30.1192 117.684 29.5229 118.202C28.9215 118.725 28.3019 119.072 27.6639 119.244C27.0237 119.413 26.4098 119.411 25.8219 119.235C25.2319 119.058 24.7104 118.708 24.2574 118.187C23.8044 117.666 23.532 117.102 23.4403 116.495C23.3464 115.886 23.4289 115.278 23.6879 114.67C23.9447 114.06 24.3738 113.493 24.9751 112.971C25.5715 112.452 26.1884 112.109 26.8261 111.942C27.4616 111.773 28.0743 111.777 28.6643 111.954C29.2521 112.13 29.7725 112.478 30.2256 112.999ZM29.4288 113.691C29.0847 113.296 28.7001 113.058 28.275 112.979C27.8498 112.9 27.4186 112.943 26.9811 113.107C26.5437 113.272 26.132 113.522 25.7462 113.858C25.3603 114.193 25.0541 114.567 24.8276 114.979C24.6011 115.392 24.4962 115.815 24.5129 116.249C24.5296 116.683 24.71 117.098 25.0542 117.494C25.3983 117.89 25.7841 118.127 26.2118 118.204C26.6394 118.281 27.0732 118.236 27.5131 118.069C27.9531 117.902 28.366 117.651 28.7518 117.315C29.1377 116.98 29.4426 116.607 29.6666 116.197C29.8906 115.786 29.993 115.365 29.9738 114.933C29.9546 114.501 29.7729 114.087 29.4288 113.691Z" fill="black"/>
<path d="M17.0484 104L17.8216 104.779C17.6999 104.922 17.5978 105.091 17.5154 105.285C17.4285 105.477 17.3902 105.696 17.4006 105.94C17.411 106.185 17.4991 106.457 17.6649 106.756C17.8918 107.165 18.1753 107.454 18.5153 107.623C18.8509 107.79 19.1623 107.794 19.4498 107.634C19.7053 107.493 19.8556 107.288 19.9007 107.02C19.9458 106.752 19.9082 106.393 19.7881 105.944L19.4815 104.815C19.2951 104.137 19.2702 103.568 19.4067 103.109C19.5403 102.651 19.8409 102.293 20.3084 102.034C20.6916 101.821 21.0954 101.742 21.5197 101.795C21.9424 101.846 22.3495 102.018 22.741 102.314C23.1325 102.609 23.4723 103.017 23.7604 103.537C24.1386 104.219 24.3036 104.866 24.2553 105.477C24.207 106.088 23.9313 106.611 23.4282 107.046L22.6435 106.206C22.952 105.913 23.1247 105.588 23.1614 105.229C23.1966 104.868 23.0975 104.477 22.8641 104.056C22.5986 103.577 22.2861 103.253 21.9267 103.084C21.5628 102.914 21.2372 102.908 20.9497 103.068C20.7174 103.196 20.5679 103.386 20.5013 103.635C20.4317 103.886 20.4511 104.202 20.5594 104.582L20.9161 105.842C21.1105 106.535 21.135 107.11 20.9894 107.566C20.8394 108.022 20.5335 108.377 20.0718 108.633C19.6944 108.842 19.3017 108.921 18.8938 108.87C18.4844 108.816 18.0947 108.651 17.7248 108.374C17.3533 108.094 17.0371 107.719 16.7764 107.249C16.4094 106.587 16.2665 105.986 16.3476 105.448C16.4271 104.907 16.6607 104.424 17.0484 104Z" fill="black"/>
<path d="M19.0043 92.1766C19.2198 92.8814 19.2501 93.537 19.0952 94.1432C18.9362 94.7473 18.618 95.2733 18.1405 95.7214C17.6588 96.1672 17.0434 96.5046 16.2941 96.7337C15.5449 96.9627 14.8428 97.0281 14.1878 96.9298C13.5288 96.8293 12.9637 96.582 12.4926 96.1879C12.0173 95.7917 11.6788 95.2634 11.4769 94.603C11.3604 94.222 11.3089 93.8264 11.3223 93.4161C11.3357 93.0058 11.4387 92.6046 11.6313 92.2125C11.8206 91.8213 12.121 91.4639 12.5324 91.1403C12.9437 90.8166 13.4907 90.5504 14.1733 90.3418L14.6495 90.1962L16.3734 95.8346L15.4019 96.1316L14.0275 91.6361C13.6147 91.7623 13.2717 91.9574 12.9983 92.2215C12.724 92.4824 12.5393 92.7923 12.4442 93.1512C12.3481 93.5069 12.3622 93.888 12.4864 94.2943C12.6233 94.742 12.8528 95.0953 13.1751 95.3544C13.4931 95.6112 13.855 95.7731 14.2608 95.84C14.6666 95.9069 15.0711 95.8787 15.4743 95.7554L16.122 95.5574C16.6744 95.3885 17.1136 95.1501 17.4395 94.8421C17.7612 94.532 17.9697 94.1749 18.0649 93.7709C18.1569 93.3678 18.1335 92.9393 17.9947 92.4853C17.9044 92.19 17.7816 91.936 17.6263 91.7231C17.4668 91.508 17.2762 91.3389 17.0546 91.2157C16.8298 91.0935 16.5758 91.0236 16.2927 91.006L16.2655 89.8271C16.6687 89.8288 17.0513 89.9219 17.4132 90.1063C17.7719 90.2917 18.0897 90.5591 18.3666 90.9083C18.6403 91.2586 18.8529 91.6814 19.0043 92.1766Z" fill="black"/>
<path d="M6.36873 69.7657L15.2589 67.8068L15.2735 67.6882L7.12126 63.6368L7.27905 62.3517L16.9453 67.3115L16.7899 68.5768L6.21094 71.0508L6.36873 69.7657Z" fill="black"/>
<path d="M19.4323 56.7645L12.2001 54.2742L12.5827 53.163L19.8149 55.6533L19.4323 56.7645ZM11.1892 53.2942C11.1147 53.5108 10.9766 53.6721 10.775 53.7783C10.5745 53.8813 10.3707 53.8971 10.1635 53.8258C9.95634 53.7545 9.80547 53.6165 9.7109 53.4119C9.61741 53.2041 9.60795 52.992 9.68253 52.7754C9.75711 52.5588 9.89464 52.399 10.0951 52.296C10.2967 52.1898 10.5011 52.1724 10.7083 52.2438C10.9154 52.3151 11.0658 52.4546 11.1593 52.6624C11.2538 52.867 11.2638 53.0776 11.1892 53.2942Z" fill="black"/>
<path d="M24.9257 45.2587C24.5975 45.8051 24.1696 46.2045 23.6422 46.457C23.112 46.7077 22.5227 46.799 21.8742 46.7308C21.2229 46.661 20.5501 46.4174 19.8558 46.0002C19.1671 45.5864 18.6405 45.1093 18.2759 44.5687C17.9113 44.0282 17.7175 43.4644 17.6945 42.8774C17.6715 42.2904 17.8259 41.7208 18.1576 41.1688C18.4141 40.7419 18.6878 40.4474 18.9789 40.2854C19.2688 40.1187 19.5427 40.0238 19.8006 40.0006C20.0574 39.9729 20.265 39.9562 20.4233 39.9506L20.4746 39.8653L17.2476 37.9263L17.8528 36.9189L26.5948 42.1716L26.01 43.1448L25.0026 42.5395L24.9308 42.6591C25.0059 42.8049 25.0934 43.0008 25.1935 43.2468C25.2907 43.4911 25.3343 43.7826 25.3244 44.1214C25.3117 44.4585 25.1788 44.8376 24.9257 45.2587ZM24.1029 44.5784C24.3457 44.1743 24.4456 43.7696 24.4026 43.3642C24.3567 42.957 24.1896 42.5681 23.9011 42.1972C23.6099 41.8247 23.2167 41.4897 22.7215 41.1921C22.2321 40.898 21.761 40.7119 21.3084 40.6336C20.853 40.5536 20.4391 40.5915 20.0666 40.7472C19.6913 40.9013 19.3806 41.1832 19.1343 41.593C18.8779 42.0198 18.7737 42.4414 18.8218 42.8576C18.8688 43.2693 19.036 43.6582 19.3233 44.0245C19.6094 44.3862 19.983 44.7056 20.444 44.9826C20.9107 45.263 21.3774 45.4466 21.8442 45.5335C22.3099 45.6158 22.7398 45.5836 23.1339 45.4369C23.5268 45.2857 23.8498 44.9996 24.1029 44.5784Z" fill="black"/>
<path d="M32.4808 35.3031C31.9781 35.8421 31.4256 36.1961 30.8231 36.3652C30.2205 36.5295 29.6058 36.5169 28.9791 36.3274C28.3522 36.1332 27.7522 35.7689 27.1792 35.2346C26.6062 34.7002 26.1985 34.1249 25.9562 33.5085C25.7137 32.8875 25.6453 32.2744 25.7511 31.6694C25.8566 31.0597 26.1449 30.5023 26.6158 29.9973C26.8875 29.706 27.2044 29.4635 27.5664 29.27C27.9284 29.0765 28.3274 28.9651 28.7632 28.9358C29.1967 28.9042 29.6564 28.9856 30.1424 29.1801C30.6283 29.3745 31.1323 29.7151 31.6543 30.2019L32.0185 30.5415L27.9974 34.8536L27.2545 34.1608L30.4605 30.7228C30.1448 30.4284 29.8043 30.2289 29.4389 30.1242C29.0758 30.0171 28.7151 30.0121 28.3567 30.1092C28.0007 30.2038 27.6777 30.4065 27.3879 30.7173C27.0687 31.0597 26.8774 31.4351 26.8142 31.8437C26.7508 32.2476 26.7915 32.6419 26.9365 33.0268C27.0815 33.4117 27.3082 33.7479 27.6165 34.0354L28.1118 34.4973C28.5343 34.8913 28.9604 35.1524 29.39 35.2807C29.8195 35.4043 30.2329 35.4063 30.6304 35.2867C31.0255 35.1648 31.3849 34.9303 31.7087 34.5831C31.9193 34.3573 32.0779 34.1239 32.1846 33.8829C32.2911 33.6373 32.3423 33.3877 32.3381 33.1341C32.3315 32.8783 32.2651 32.6235 32.1388 32.3695L33.1462 31.7565C33.3463 32.1065 33.457 32.4844 33.4782 32.89C33.497 33.2933 33.4244 33.7022 33.2603 34.1167C33.0938 34.5289 32.834 34.9243 32.4808 35.3031Z" fill="black"/>
<path d="M41.5859 27.4547C41.0202 27.8507 40.4296 28.0636 39.8142 28.0934C39.2014 28.1212 38.6059 27.9769 38.0277 27.6604C37.4521 27.342 36.9377 26.8591 36.4845 26.2119C36.0275 25.5592 35.7469 24.9067 35.6426 24.2542C35.5411 23.5999 35.6082 22.9895 35.8439 22.4233C36.0824 21.8551 36.4844 21.3729 37.0501 20.9769C37.6157 20.5808 38.2049 20.3688 38.8177 20.341C39.4331 20.3113 40.0296 20.457 40.607 20.7781C41.1872 21.0973 41.7058 21.5833 42.1628 22.2359C42.616 22.8832 42.8924 23.5326 42.992 24.1842C43.0944 24.834 43.0264 25.4429 42.7879 26.0111C42.5522 26.5774 42.1515 27.0586 41.5859 27.4547ZM40.9803 26.5899C41.41 26.289 41.6864 25.9313 41.8096 25.5168C41.9327 25.1023 41.9352 24.6689 41.8171 24.2166C41.699 23.7644 41.4934 23.3288 41.2001 22.91C40.9069 22.4912 40.567 22.1476 40.1805 21.8792C39.794 21.6109 39.3839 21.4623 38.9504 21.4335C38.5169 21.4047 38.0853 21.5408 37.6556 21.8417C37.2259 22.1425 36.9505 22.5016 36.8292 22.9188C36.708 23.336 36.7074 23.7721 36.8274 24.2271C36.9474 24.6821 37.154 25.119 37.4472 25.5378C37.7405 25.9566 38.0794 26.2988 38.464 26.5645C38.8486 26.8302 39.2567 26.976 39.6884 27.0021C40.12 27.0281 40.5506 26.8907 40.9803 26.5899Z" fill="black"/>
<path d="M107.53 18.1789L106.41 17.6569C106.494 17.3041 106.51 16.9673 106.459 16.6464C106.41 16.3269 106.307 16.0297 106.149 15.7548C105.996 15.4783 105.798 15.2319 105.554 15.0158C105.311 14.7997 105.035 14.62 104.728 14.4769C104.169 14.216 103.596 14.121 103.01 14.1919C102.426 14.2643 101.873 14.5134 101.348 14.9391C100.826 15.3663 100.379 15.98 100.006 16.7804C99.6327 17.5807 99.4501 18.3179 99.4581 18.992C99.4692 19.6675 99.6344 20.2519 99.9538 20.7452C100.276 21.2398 100.717 21.6177 101.277 21.8786C101.584 22.0217 101.898 22.1171 102.22 22.1648C102.543 22.2124 102.858 22.2075 103.167 22.15C103.48 22.091 103.775 21.9775 104.051 21.8095C104.332 21.64 104.579 21.4112 104.794 21.1231L105.913 21.645C105.609 22.0781 105.258 22.4293 104.862 22.6986C104.465 22.9678 104.04 23.1562 103.587 23.2636C103.136 23.3681 102.672 23.3919 102.197 23.335C101.724 23.2796 101.255 23.1432 100.789 22.9257C100 22.5581 99.3891 22.0386 98.9549 21.3673C98.5207 20.6959 98.2932 19.9231 98.2722 19.0489C98.2513 18.1747 98.4682 17.2501 98.9227 16.2753C99.3773 15.3004 99.9462 14.54 100.629 13.9941C101.312 13.4482 102.051 13.1257 102.844 13.0268C103.638 12.9279 104.428 13.0623 105.217 13.4299C105.683 13.6473 106.089 13.9192 106.435 14.2454C106.784 14.573 107.063 14.9449 107.272 15.361C107.483 15.7741 107.612 16.2191 107.661 16.696C107.711 17.1699 107.667 17.6642 107.53 18.1789Z" fill="black"/>
<path d="M117.083 20.9709L110.945 29.1159L110.007 28.4087L116.145 20.2637L117.083 20.9709Z" fill="black"/>
<path d="M119.771 37.8253C119.317 37.3042 119.044 36.7391 118.95 36.1301C118.858 35.5236 118.94 34.9163 119.194 34.3081C119.451 33.7024 119.877 33.1404 120.473 32.6221C121.075 32.0993 121.694 31.752 122.332 31.5801C122.972 31.4108 123.586 31.4137 124.174 31.5889C124.764 31.7667 125.286 32.1161 125.739 32.6373C126.192 33.1584 126.464 33.7222 126.556 34.3287C126.65 34.9377 126.567 35.5461 126.308 36.154C126.051 36.7643 125.622 37.3309 125.021 37.8536C124.425 38.372 123.808 38.7148 123.17 38.882C122.535 39.0517 121.922 39.0477 121.332 38.8699C120.744 38.6947 120.224 38.3465 119.771 37.8253ZM120.567 37.1327C120.911 37.5286 121.296 37.7661 121.721 37.8452C122.146 37.9244 122.578 37.8816 123.015 37.7169C123.452 37.5521 123.864 37.3021 124.25 36.9667C124.636 36.6312 124.942 36.2573 125.168 35.8449C125.395 35.4324 125.5 35.0091 125.483 34.5749C125.466 34.1408 125.286 33.7258 124.942 33.3299C124.598 32.934 124.212 32.6976 123.784 32.6206C123.357 32.5437 122.923 32.5886 122.483 32.7555C122.043 32.9224 121.63 33.1736 121.244 33.509C120.858 33.8444 120.553 34.2173 120.329 34.6275C120.105 35.0378 120.003 35.4589 120.022 35.8909C120.041 36.3229 120.223 36.7368 120.567 37.1327Z" fill="black"/>
<path d="M132.948 46.8238L132.175 46.0453C132.296 45.902 132.398 45.7334 132.481 45.5397C132.568 45.3473 132.606 45.1287 132.595 44.8839C132.585 44.6392 132.497 44.3673 132.331 44.0682C132.104 43.6588 131.821 43.3699 131.481 43.2016C131.145 43.0346 130.834 43.0307 130.546 43.1901C130.291 43.3317 130.14 43.5365 130.095 43.8044C130.05 44.0723 130.088 44.4311 130.208 44.8807L130.515 46.0089C130.701 46.6875 130.726 47.2564 130.589 47.7154C130.456 48.1729 130.155 48.5311 129.688 48.7903C129.304 49.0027 128.901 49.0823 128.476 49.029C128.054 48.9786 127.647 48.8057 127.255 48.5103C126.864 48.2149 126.524 47.8073 126.236 47.2876C125.857 46.6052 125.692 45.9584 125.741 45.3471C125.789 44.7357 126.065 44.2128 126.568 43.7783L127.353 44.6187C127.044 44.9112 126.871 45.2366 126.835 45.5948C126.799 45.9559 126.899 46.347 127.132 46.768C127.398 47.2471 127.71 47.5711 128.069 47.7401C128.433 47.9104 128.759 47.9159 129.046 47.7565C129.279 47.6278 129.428 47.4386 129.495 47.1891C129.564 46.938 129.545 46.6223 129.437 46.242L129.08 44.9822C128.886 44.289 128.861 43.7142 129.007 43.2578C129.157 42.8026 129.463 42.4471 129.924 42.1911C130.302 41.9819 130.694 41.9028 131.102 41.9538C131.512 42.0077 131.901 42.1732 132.271 42.4502C132.643 42.7301 132.959 43.1053 133.22 43.5757C133.587 44.2377 133.73 44.8379 133.648 45.3764C133.569 45.9177 133.335 46.4002 132.948 46.8238Z" fill="black"/>
<path d="M130.992 58.6476C130.776 57.9428 130.746 57.2872 130.901 56.681C131.06 56.0769 131.378 55.5509 131.856 55.1029C132.337 54.6571 132.953 54.3196 133.702 54.0905C134.451 53.8615 135.153 53.7961 135.808 53.8944C136.467 53.9949 137.032 54.2422 137.504 54.6363C137.979 55.0326 138.317 55.5609 138.519 56.2212C138.636 56.6022 138.687 56.9978 138.674 57.4081C138.66 57.8184 138.557 58.2196 138.365 58.6117C138.175 59.0029 137.875 59.3603 137.464 59.684C137.052 60.0076 136.505 60.2738 135.823 60.4825L135.347 60.6281L133.623 54.9896L134.594 54.6926L135.969 59.1881C136.381 59.0619 136.724 58.8668 136.998 58.6027C137.272 58.3418 137.457 58.0319 137.552 57.673C137.648 57.3173 137.634 56.9363 137.51 56.5299C137.373 56.0822 137.143 55.7289 136.821 55.4698C136.503 55.213 136.141 55.0511 135.735 54.9842C135.329 54.9174 134.925 54.9456 134.522 55.0688L133.874 55.2668C133.322 55.4357 132.883 55.6741 132.557 55.9821C132.235 56.2922 132.026 56.6493 131.931 57.0533C131.839 57.4564 131.863 57.8849 132.001 58.3389C132.092 58.6342 132.214 58.8882 132.37 59.1011C132.529 59.3162 132.72 59.4853 132.942 59.6085C133.166 59.7307 133.42 59.8006 133.703 59.8182L133.731 60.9971C133.327 60.9954 132.945 60.9024 132.583 60.7179C132.224 60.5325 131.906 60.2652 131.63 59.9159C131.356 59.5656 131.143 59.1428 130.992 58.6476Z" fill="black"/>
<path d="M143.627 81.0585L134.737 83.0174L134.723 83.136L142.875 87.1875L142.717 88.4726L133.051 83.5128L133.206 82.2474L143.785 79.7734L143.627 81.0585Z" fill="black"/>
<path d="M130.564 94.0597L137.796 96.55L137.413 97.6612L130.181 95.1709L130.564 94.0597ZM138.807 97.53C138.881 97.3134 139.02 97.1521 139.221 97.0459C139.422 96.9429 139.625 96.9271 139.833 96.9984C140.04 97.0697 140.191 97.2077 140.285 97.4123C140.379 97.6201 140.388 97.8322 140.314 98.0488C140.239 98.2654 140.101 98.4252 139.901 98.5282C139.699 98.6344 139.495 98.6518 139.288 98.5805C139.081 98.5091 138.93 98.3696 138.837 98.1618C138.742 97.9572 138.732 97.7466 138.807 97.53Z" fill="black"/>
<path d="M125.07 105.565C125.399 105.019 125.826 104.62 126.354 104.367C126.884 104.117 127.473 104.025 128.122 104.093C128.773 104.163 129.446 104.407 130.14 104.824C130.829 105.238 131.356 105.715 131.72 106.255C132.085 106.796 132.279 107.36 132.302 107.947C132.325 108.534 132.17 109.103 131.838 109.655C131.582 110.082 131.308 110.377 131.017 110.539C130.727 110.705 130.453 110.8 130.195 110.824C129.939 110.851 129.731 110.868 129.573 110.874L129.522 110.959L132.749 112.898L132.143 113.905L123.401 108.653L123.986 107.679L124.993 108.285L125.065 108.165C124.99 108.019 124.903 107.823 124.803 107.577C124.705 107.333 124.662 107.042 124.672 106.703C124.684 106.366 124.817 105.987 125.07 105.565ZM125.893 106.246C125.65 106.65 125.551 107.055 125.594 107.46C125.639 107.867 125.807 108.256 126.095 108.627C126.386 109 126.779 109.335 127.275 109.632C127.764 109.926 128.235 110.112 128.688 110.191C129.143 110.271 129.557 110.233 129.929 110.077C130.305 109.923 130.616 109.641 130.862 109.231C131.118 108.804 131.222 108.383 131.174 107.967C131.127 107.555 130.96 107.166 130.673 106.8C130.387 106.438 130.013 106.119 129.552 105.842C129.085 105.561 128.619 105.378 128.152 105.291C127.686 105.208 127.256 105.241 126.862 105.387C126.469 105.538 126.146 105.825 125.893 106.246Z" fill="black"/>
<path d="M117.515 115.523C118.018 114.984 118.571 114.63 119.173 114.461C119.776 114.297 120.39 114.309 121.017 114.499C121.644 114.693 122.244 115.057 122.817 115.592C123.39 116.126 123.798 116.701 124.04 117.318C124.282 117.939 124.351 118.552 124.245 119.157C124.139 119.766 123.851 120.324 123.38 120.829C123.109 121.12 122.792 121.363 122.43 121.556C122.068 121.75 121.669 121.861 121.233 121.89C120.799 121.922 120.34 121.841 119.854 121.646C119.368 121.452 118.864 121.111 118.342 120.624L117.978 120.285L121.999 115.973L122.742 116.665L119.536 120.103C119.851 120.398 120.192 120.597 120.557 120.702C120.92 120.809 121.281 120.814 121.639 120.717C121.995 120.622 122.318 120.42 122.608 120.109C122.927 119.767 123.119 119.391 123.182 118.982C123.245 118.579 123.205 118.184 123.06 117.799C122.915 117.415 122.688 117.078 122.38 116.791L121.884 116.329C121.462 115.935 121.036 115.674 120.606 115.546C120.177 115.422 119.763 115.42 119.366 115.539C118.971 115.661 118.611 115.896 118.287 116.243C118.077 116.469 117.918 116.702 117.812 116.943C117.705 117.189 117.654 117.438 117.658 117.692C117.665 117.948 117.731 118.203 117.857 118.457L116.85 119.07C116.65 118.72 116.539 118.342 116.518 117.936C116.499 117.533 116.572 117.124 116.736 116.709C116.902 116.297 117.162 115.902 117.515 115.523Z" fill="black"/>
<path d="M108.41 123.37C108.976 122.973 109.566 122.761 110.182 122.731C110.795 122.703 111.39 122.847 111.968 123.164C112.544 123.482 113.058 123.965 113.512 124.612C113.969 125.265 114.249 125.918 114.353 126.57C114.455 127.224 114.388 127.835 114.152 128.401C113.914 128.969 113.512 129.451 112.946 129.847C112.38 130.243 111.791 130.455 111.178 130.483C110.563 130.513 109.966 130.367 109.389 130.046C108.809 129.727 108.29 129.241 107.833 128.588C107.38 127.941 107.104 127.292 107.004 126.64C106.902 125.99 106.97 125.381 107.208 124.813C107.444 124.247 107.845 123.766 108.41 123.37ZM109.016 124.234C108.586 124.535 108.31 124.893 108.187 125.307C108.063 125.722 108.061 126.155 108.179 126.608C108.297 127.06 108.503 127.495 108.796 127.914C109.089 128.333 109.429 128.677 109.816 128.945C110.202 129.213 110.612 129.362 111.046 129.391C111.479 129.419 111.911 129.283 112.34 128.983C112.77 128.682 113.046 128.323 113.167 127.905C113.288 127.488 113.289 127.052 113.169 126.597C113.049 126.142 112.842 125.705 112.549 125.286C112.256 124.868 111.917 124.525 111.532 124.26C111.147 123.994 110.739 123.848 110.308 123.822C109.876 123.796 109.445 123.933 109.016 124.234Z" fill="black"/>
<path d="M71.6602 13.4121C71.6602 14.5167 70.7647 15.4121 69.6602 15.4121C68.5556 15.4121 67.6602 14.5167 67.6602 13.4121C67.6602 12.3075 68.5556 11.4121 69.6602 11.4121C70.7647 11.4121 71.6602 12.3075 71.6602 13.4121Z" fill="black"/>
<path d="M84.6602 138.412C84.6602 139.517 83.7647 140.412 82.6602 140.412C81.5556 140.412 80.6602 139.517 80.6602 138.412C80.6602 137.308 81.5556 136.412 82.6602 136.412C83.7647 136.412 84.6602 137.308 84.6602 138.412Z" fill="black"/>
</svg>
