<svg width="100" height="100" viewBox="0 0 100 100" fill="none" xmlns="http://www.w3.org/2000/svg">
<g clip-path="url(#clip0_1870_219333)">
<g filter="url(#filter0_bd_1870_219333)">
<path d="M73.0896 52.1167C68.7083 59.311 65.9252 67.5302 65.1802 76.2802C65.1065 77.1454 64.3885 77.8125 63.5202 77.8125H36.4792C35.6123 77.8125 34.8937 77.1479 34.8202 76.2842C34.1081 67.9231 31.4979 59.6498 26.9104 52.1167C26.55 51.525 26.5937 50.7708 27.0208 50.2229C36.8823 37.6119 42.296 30.6075 45.3581 26.7185C46.3369 25.4756 48.3333 26.1687 48.3333 27.7508V50.4548C48.3333 51.1333 47.9194 51.7379 47.2925 51.9981C44.7265 53.0633 42.9167 55.5946 42.9167 58.5417C42.9167 62.6152 46.3731 65.8967 50.5073 65.6073C53.9558 65.3658 56.7656 62.6 57.0573 59.1554C57.3287 55.95 55.4502 53.1371 52.7077 51.9983C52.0808 51.7381 51.6665 51.1335 51.6665 50.4548V27.8167C51.6665 26.2342 53.665 25.5417 54.6429 26.786C60.8638 34.7008 72.9308 50.1613 72.979 50.2229C73.4062 50.7708 73.45 51.525 73.0896 52.1167ZM65.2083 81.0417H34.7917C31.1146 81.0417 28.125 84.0333 28.125 87.7083V93.3333C28.125 97.0083 31.1146 100 34.7917 100H65.2083C68.8854 100 71.875 97.0083 71.875 93.3333V87.7083C71.875 84.0333 68.8854 81.0417 65.2083 81.0417ZM95 50.2083H94.3417C93.6881 32.7663 82.8925 17.436 66.8896 10.8333H84.6625C85.3479 12.7729 87.2021 14.1667 89.375 14.1667C92.1312 14.1667 94.375 11.9229 94.375 9.16667C94.375 6.41042 92.1312 4.16667 89.375 4.16667C87.2021 4.16667 85.3479 5.56042 84.6625 7.5H59.1667V5C59.1667 2.24375 56.9229 0 54.1667 0H45.8333C43.0771 0 40.8333 2.24375 40.8333 5V7.5H15.3375C14.6521 5.56042 12.7979 4.16667 10.625 4.16667C7.86875 4.16667 5.625 6.41042 5.625 9.16667C5.625 11.9229 7.86875 14.1667 10.625 14.1667C12.7979 14.1667 14.6521 12.7729 15.3375 10.8333H33.1104C17.1069 17.4362 6.31187 32.7669 5.65833 50.2083H5C2.24375 50.2083 0 52.4521 0 55.2083V59.7917C0 62.5479 2.24375 64.7917 5 64.7917H9.58333C12.3396 64.7917 14.5833 62.5479 14.5833 59.7917V55.2083C14.5833 52.4521 12.3396 50.2083 9.58333 50.2083H8.99167C9.73125 31.6562 22.7854 15.9604 40.8333 11.8604V13.3333C40.8333 16.0896 43.0771 18.3333 45.8333 18.3333H54.1667C56.9229 18.3333 59.1667 16.0896 59.1667 13.3333V11.8604C77.2146 15.9604 90.2687 31.6562 91.0083 50.2083H90.4167C87.6604 50.2083 85.4167 52.4521 85.4167 55.2083V59.7917C85.4167 62.5479 87.6604 64.7917 90.4167 64.7917H95C97.7562 64.7917 100 62.5479 100 59.7917V55.2083C100 52.4521 97.7562 50.2083 95 50.2083Z" fill="url(#paint0_linear_1870_219333)" fill-opacity="0.8" shape-rendering="crispEdges"/>
<path d="M73.0896 52.1167C68.7083 59.311 65.9252 67.5302 65.1802 76.2802C65.1065 77.1454 64.3885 77.8125 63.5202 77.8125H36.4792C35.6123 77.8125 34.8937 77.1479 34.8202 76.2842C34.1081 67.9231 31.4979 59.6498 26.9104 52.1167C26.55 51.525 26.5937 50.7708 27.0208 50.2229C36.8823 37.6119 42.296 30.6075 45.3581 26.7185C46.3369 25.4756 48.3333 26.1687 48.3333 27.7508V50.4548C48.3333 51.1333 47.9194 51.7379 47.2925 51.9981C44.7265 53.0633 42.9167 55.5946 42.9167 58.5417C42.9167 62.6152 46.3731 65.8967 50.5073 65.6073C53.9558 65.3658 56.7656 62.6 57.0573 59.1554C57.3287 55.95 55.4502 53.1371 52.7077 51.9983C52.0808 51.7381 51.6665 51.1335 51.6665 50.4548V27.8167C51.6665 26.2342 53.665 25.5417 54.6429 26.786C60.8638 34.7008 72.9308 50.1613 72.979 50.2229C73.4062 50.7708 73.45 51.525 73.0896 52.1167ZM65.2083 81.0417H34.7917C31.1146 81.0417 28.125 84.0333 28.125 87.7083V93.3333C28.125 97.0083 31.1146 100 34.7917 100H65.2083C68.8854 100 71.875 97.0083 71.875 93.3333V87.7083C71.875 84.0333 68.8854 81.0417 65.2083 81.0417ZM95 50.2083H94.3417C93.6881 32.7663 82.8925 17.436 66.8896 10.8333H84.6625C85.3479 12.7729 87.2021 14.1667 89.375 14.1667C92.1312 14.1667 94.375 11.9229 94.375 9.16667C94.375 6.41042 92.1312 4.16667 89.375 4.16667C87.2021 4.16667 85.3479 5.56042 84.6625 7.5H59.1667V5C59.1667 2.24375 56.9229 0 54.1667 0H45.8333C43.0771 0 40.8333 2.24375 40.8333 5V7.5H15.3375C14.6521 5.56042 12.7979 4.16667 10.625 4.16667C7.86875 4.16667 5.625 6.41042 5.625 9.16667C5.625 11.9229 7.86875 14.1667 10.625 14.1667C12.7979 14.1667 14.6521 12.7729 15.3375 10.8333H33.1104C17.1069 17.4362 6.31187 32.7669 5.65833 50.2083H5C2.24375 50.2083 0 52.4521 0 55.2083V59.7917C0 62.5479 2.24375 64.7917 5 64.7917H9.58333C12.3396 64.7917 14.5833 62.5479 14.5833 59.7917V55.2083C14.5833 52.4521 12.3396 50.2083 9.58333 50.2083H8.99167C9.73125 31.6562 22.7854 15.9604 40.8333 11.8604V13.3333C40.8333 16.0896 43.0771 18.3333 45.8333 18.3333H54.1667C56.9229 18.3333 59.1667 16.0896 59.1667 13.3333V11.8604C77.2146 15.9604 90.2687 31.6562 91.0083 50.2083H90.4167C87.6604 50.2083 85.4167 52.4521 85.4167 55.2083V59.7917C85.4167 62.5479 87.6604 64.7917 90.4167 64.7917H95C97.7562 64.7917 100 62.5479 100 59.7917V55.2083C100 52.4521 97.7562 50.2083 95 50.2083Z" fill="#344254" fill-opacity="0.15" shape-rendering="crispEdges"/>
<path d="M27.4798 51.7699L27.4798 51.7698C27.264 51.4157 27.2895 50.963 27.5463 50.6332C32.7757 43.9457 36.7528 38.8369 39.7919 34.933C42.486 31.4722 44.4431 28.9584 45.8819 27.131C46.4683 26.3863 47.6667 26.8001 47.6667 27.7508V50.4548C47.6667 50.8568 47.4215 51.2227 47.0369 51.3824L47.2925 51.9981L47.0369 51.3824C44.2316 52.5469 42.25 55.3149 42.25 58.5417C42.25 62.9988 46.0312 66.5889 50.5538 66.2723C54.3298 66.0079 57.4022 62.9841 57.7216 59.2117C58.0186 55.7042 55.9615 52.6275 52.9634 51.3826L52.9633 51.3826C52.5785 51.2229 52.3331 50.8568 52.3331 50.4548V27.8167C52.3331 26.8662 53.5327 26.4522 54.1187 27.198L54.1188 27.198C60.3104 35.0756 72.2951 50.4302 72.452 50.6313L72.4533 50.6329C72.7104 50.9627 72.736 51.4156 72.5202 51.7698L72.5202 51.7699C68.0867 59.0501 65.2699 67.3682 64.5159 76.2236C64.4712 76.7481 64.038 77.1458 63.5202 77.1458H36.4792C35.9611 77.1458 35.5289 76.7489 35.4845 76.2276L34.8202 76.2842L35.4845 76.2276C34.7638 67.766 32.1221 59.393 27.4798 51.7699ZM93.6755 50.2333L93.6995 50.875H94.3417H95C97.3881 50.875 99.3333 52.8203 99.3333 55.2083V59.7917C99.3333 62.1797 97.3881 64.125 95 64.125H90.4167C88.0286 64.125 86.0833 62.1797 86.0833 59.7917V55.2083C86.0833 52.8203 88.0286 50.875 90.4167 50.875H91.0083H91.7021L91.6745 50.1818C90.9229 31.329 77.6566 15.3772 59.3144 11.2103L58.5 11.0253V11.8604V13.3333C58.5 15.7214 56.5547 17.6667 54.1667 17.6667H45.8333C43.4453 17.6667 41.5 15.7214 41.5 13.3333V11.8604V11.0253L40.6856 11.2103C22.3434 15.3772 9.0771 31.329 8.32553 50.1818L8.29789 50.875H8.99167H9.58333C11.9714 50.875 13.9167 52.8203 13.9167 55.2083V59.7917C13.9167 62.1797 11.9714 64.125 9.58333 64.125H5C2.61194 64.125 0.666667 62.1797 0.666667 59.7917V55.2083C0.666667 52.8203 2.61194 50.875 5 50.875H5.65833H6.30049L6.32453 50.2333C6.96824 33.0543 17.6007 17.9537 33.3647 11.4496L33.1104 10.1667H15.3375H14.866L14.7089 10.6112C14.1146 12.293 12.5063 13.5 10.625 13.5C8.23694 13.5 6.29167 11.5547 6.29167 9.16667C6.29167 6.77861 8.23694 4.83333 10.625 4.83333C12.5063 4.83333 14.1146 6.04031 14.7089 7.72213L14.866 8.16667H15.3375H40.8333H41.5V7.5V5C41.5 2.61194 43.4453 0.666667 45.8333 0.666667H54.1667C56.5547 0.666667 58.5 2.61194 58.5 5V7.5V8.16667H59.1667H84.6625H85.134L85.2911 7.72213C85.8854 6.04031 87.4937 4.83333 89.375 4.83333C91.7631 4.83333 93.7083 6.77861 93.7083 9.16667C93.7083 11.5547 91.7631 13.5 89.375 13.5C87.4937 13.5 85.8854 12.293 85.2911 10.6112L85.134 10.1667H84.6625H66.8896L66.6353 11.4496C82.3987 17.9535 93.0318 33.0537 93.6755 50.2333ZM34.7917 81.7083H65.2083C68.5171 81.7083 71.2083 84.4014 71.2083 87.7083V93.3333C71.2083 96.6403 68.5171 99.3333 65.2083 99.3333H34.7917C31.4829 99.3333 28.7917 96.6403 28.7917 93.3333V87.7083C28.7917 84.4014 31.4829 81.7083 34.7917 81.7083Z" stroke="url(#paint1_radial_1870_219333)" stroke-opacity="0.6" stroke-width="1.33333" shape-rendering="crispEdges"/>
<path d="M27.4798 51.7699L27.4798 51.7698C27.264 51.4157 27.2895 50.963 27.5463 50.6332C32.7757 43.9457 36.7528 38.8369 39.7919 34.933C42.486 31.4722 44.4431 28.9584 45.8819 27.131C46.4683 26.3863 47.6667 26.8001 47.6667 27.7508V50.4548C47.6667 50.8568 47.4215 51.2227 47.0369 51.3824L47.2925 51.9981L47.0369 51.3824C44.2316 52.5469 42.25 55.3149 42.25 58.5417C42.25 62.9988 46.0312 66.5889 50.5538 66.2723C54.3298 66.0079 57.4022 62.9841 57.7216 59.2117C58.0186 55.7042 55.9615 52.6275 52.9634 51.3826L52.9633 51.3826C52.5785 51.2229 52.3331 50.8568 52.3331 50.4548V27.8167C52.3331 26.8662 53.5327 26.4522 54.1187 27.198L54.1188 27.198C60.3104 35.0756 72.2951 50.4302 72.452 50.6313L72.4533 50.6329C72.7104 50.9627 72.736 51.4156 72.5202 51.7698L72.5202 51.7699C68.0867 59.0501 65.2699 67.3682 64.5159 76.2236C64.4712 76.7481 64.038 77.1458 63.5202 77.1458H36.4792C35.9611 77.1458 35.5289 76.7489 35.4845 76.2276L34.8202 76.2842L35.4845 76.2276C34.7638 67.766 32.1221 59.393 27.4798 51.7699ZM93.6755 50.2333L93.6995 50.875H94.3417H95C97.3881 50.875 99.3333 52.8203 99.3333 55.2083V59.7917C99.3333 62.1797 97.3881 64.125 95 64.125H90.4167C88.0286 64.125 86.0833 62.1797 86.0833 59.7917V55.2083C86.0833 52.8203 88.0286 50.875 90.4167 50.875H91.0083H91.7021L91.6745 50.1818C90.9229 31.329 77.6566 15.3772 59.3144 11.2103L58.5 11.0253V11.8604V13.3333C58.5 15.7214 56.5547 17.6667 54.1667 17.6667H45.8333C43.4453 17.6667 41.5 15.7214 41.5 13.3333V11.8604V11.0253L40.6856 11.2103C22.3434 15.3772 9.0771 31.329 8.32553 50.1818L8.29789 50.875H8.99167H9.58333C11.9714 50.875 13.9167 52.8203 13.9167 55.2083V59.7917C13.9167 62.1797 11.9714 64.125 9.58333 64.125H5C2.61194 64.125 0.666667 62.1797 0.666667 59.7917V55.2083C0.666667 52.8203 2.61194 50.875 5 50.875H5.65833H6.30049L6.32453 50.2333C6.96824 33.0543 17.6007 17.9537 33.3647 11.4496L33.1104 10.1667H15.3375H14.866L14.7089 10.6112C14.1146 12.293 12.5063 13.5 10.625 13.5C8.23694 13.5 6.29167 11.5547 6.29167 9.16667C6.29167 6.77861 8.23694 4.83333 10.625 4.83333C12.5063 4.83333 14.1146 6.04031 14.7089 7.72213L14.866 8.16667H15.3375H40.8333H41.5V7.5V5C41.5 2.61194 43.4453 0.666667 45.8333 0.666667H54.1667C56.5547 0.666667 58.5 2.61194 58.5 5V7.5V8.16667H59.1667H84.6625H85.134L85.2911 7.72213C85.8854 6.04031 87.4937 4.83333 89.375 4.83333C91.7631 4.83333 93.7083 6.77861 93.7083 9.16667C93.7083 11.5547 91.7631 13.5 89.375 13.5C87.4937 13.5 85.8854 12.293 85.2911 10.6112L85.134 10.1667H84.6625H66.8896L66.6353 11.4496C82.3987 17.9535 93.0318 33.0537 93.6755 50.2333ZM34.7917 81.7083H65.2083C68.5171 81.7083 71.2083 84.4014 71.2083 87.7083V93.3333C71.2083 96.6403 68.5171 99.3333 65.2083 99.3333H34.7917C31.4829 99.3333 28.7917 96.6403 28.7917 93.3333V87.7083C28.7917 84.4014 31.4829 81.7083 34.7917 81.7083Z" stroke="url(#paint2_radial_1870_219333)" stroke-opacity="0.3" stroke-width="1.33333" shape-rendering="crispEdges"/>
</g>
</g>
<defs>
<filter id="filter0_bd_1870_219333" x="-666.667" y="-666.667" width="1433.33" height="1433.33" filterUnits="userSpaceOnUse" color-interpolation-filters="sRGB">
<feFlood flood-opacity="0" result="BackgroundImageFix"/>
<feGaussianBlur in="BackgroundImageFix" stdDeviation="333.333"/>
<feComposite in2="SourceAlpha" operator="in" result="effect1_backgroundBlur_1870_219333"/>
<feColorMatrix in="SourceAlpha" type="matrix" values="0 0 0 0 0 0 0 0 0 0 0 0 0 0 0 0 0 0 127 0" result="hardAlpha"/>
<feOffset dy="2.66667"/>
<feGaussianBlur stdDeviation="1.33333"/>
<feComposite in2="hardAlpha" operator="out"/>
<feColorMatrix type="matrix" values="0 0 0 0 0 0 0 0 0 0 0 0 0 0 0 0 0 0 0.25 0"/>
<feBlend mode="normal" in2="effect1_backgroundBlur_1870_219333" result="effect2_dropShadow_1870_219333"/>
<feBlend mode="normal" in="SourceGraphic" in2="effect2_dropShadow_1870_219333" result="shape"/>
</filter>
<linearGradient id="paint0_linear_1870_219333" x1="4.12621" y1="2.57576" x2="51.2457" y2="123.567" gradientUnits="userSpaceOnUse">
<stop stop-color="white" stop-opacity="0.6"/>
<stop offset="1" stop-color="white" stop-opacity="0"/>
</linearGradient>
<radialGradient id="paint1_radial_1870_219333" cx="0" cy="0" r="1" gradientUnits="userSpaceOnUse" gradientTransform="translate(50 0.909092) rotate(90) scale(86.8182)">
<stop stop-color="white"/>
<stop offset="1" stop-color="white" stop-opacity="0"/>
</radialGradient>
<radialGradient id="paint2_radial_1870_219333" cx="0" cy="0" r="1" gradientUnits="userSpaceOnUse" gradientTransform="translate(50 100) rotate(-90) scale(50)">
<stop stop-color="white"/>
<stop offset="1" stop-color="white" stop-opacity="0"/>
</radialGradient>
<clipPath id="clip0_1870_219333">
<rect width="100" height="100" fill="white"/>
</clipPath>
</defs>
</svg>
