<svg width="100" height="100" viewBox="0 0 100 100" fill="none" xmlns="http://www.w3.org/2000/svg">
<g clip-path="url(#clip0_1870_219407)">
<g filter="url(#filter0_bd_1870_219407)">
<mask id="path-1-inside-1_1870_219407" fill="white">
<path fill-rule="evenodd" clip-rule="evenodd" d="M67.9877 17.258C68.2453 17.4247 68.518 17.5005 68.8059 17.5005C69.3059 17.5005 69.7907 17.258 70.0786 16.8035L77.6847 4.87924C78.1392 4.16712 77.9271 3.24288 77.2301 2.78833C76.518 2.33379 75.5938 2.54591 75.1392 3.25803L67.5332 15.1823C67.0786 15.8792 67.2907 16.8035 67.9877 17.258ZM76.9549 26.6368C77.2428 27.1216 77.7428 27.3943 78.2731 27.3943C78.5306 27.3943 78.7882 27.3337 79.0306 27.1974L91.2731 20.1216C92.0003 19.6974 92.2428 18.7731 91.8337 18.0459C91.4094 17.3186 90.4852 17.0762 89.7579 17.4853L77.5155 24.561C76.7882 24.9853 76.5306 25.9095 76.9549 26.6368ZM32.3815 67.0005L19.0936 43.9854L8.89663 49.8641C2.54815 53.546 0.36633 61.6672 4.04815 68.0308C7.71482 74.3793 15.836 76.5611 22.1997 72.8944L32.3815 67.0005ZM82.0454 37.5155L96.1666 36.8943C97.0151 36.8792 97.7121 37.5004 97.7424 38.3489C97.7727 39.1822 97.1212 39.8943 96.2878 39.9246L82.1666 40.5458H82.106C81.303 40.5458 80.6212 39.9095 80.5909 39.0913C80.5606 38.2579 81.2121 37.5458 82.0454 37.5155ZM23.6977 75.5156L31.8492 70.8035C33.1371 76.7883 35.9704 82.3186 40.031 86.8489C42.7128 89.8186 41.925 94.5156 38.4553 96.5156C38.425 96.5307 38.3984 96.5459 38.3719 96.561L38.343 96.5775C38.3258 96.5872 38.3079 96.5968 38.2886 96.6065C35.9098 97.9853 32.9098 97.6823 30.8795 95.8186C25.4401 90.8186 21.728 84.2126 20.2734 76.9701C21.4553 76.6065 22.6068 76.1368 23.6977 75.5156ZM52.1237 40.258C47.1843 31.6974 43.1843 23.2429 40.8661 16.4398C39.5479 12.5459 38.8358 9.45497 38.7449 7.06104C36.448 10.0862 34.9797 14.553 33.5128 19.0155L33.5128 19.0155C32.996 20.5876 32.4793 22.1592 31.9267 23.6671C29.4267 31.5004 25.9873 37.7126 21.457 42.0004L35.2904 65.9701C41.2752 64.1823 48.3813 64.3186 56.4116 66.061C58.0236 66.337 59.6758 66.6806 61.3284 67.0243L61.3289 67.0244L61.329 67.0245C65.9362 67.9826 70.5476 68.9416 74.3055 68.4398C65.4116 62.9398 53.6389 42.8641 52.1237 40.258ZM49.7745 29.5157C43.0775 16.1369 40.0018 5.34907 42.8048 3.72785C46.2442 1.743 57.1381 14.1975 67.1684 31.5612C77.1988 48.9248 82.5321 64.6066 79.1078 66.5915C76.2897 68.2279 68.3957 60.046 60.0927 47.4248C64.4866 44.3794 65.8957 38.4248 63.1684 33.7127C60.4563 29.0006 54.6078 27.243 49.7745 29.5157Z"/>
</mask>
<path fill-rule="evenodd" clip-rule="evenodd" d="M67.9877 17.258C68.2453 17.4247 68.518 17.5005 68.8059 17.5005C69.3059 17.5005 69.7907 17.258 70.0786 16.8035L77.6847 4.87924C78.1392 4.16712 77.9271 3.24288 77.2301 2.78833C76.518 2.33379 75.5938 2.54591 75.1392 3.25803L67.5332 15.1823C67.0786 15.8792 67.2907 16.8035 67.9877 17.258ZM76.9549 26.6368C77.2428 27.1216 77.7428 27.3943 78.2731 27.3943C78.5306 27.3943 78.7882 27.3337 79.0306 27.1974L91.2731 20.1216C92.0003 19.6974 92.2428 18.7731 91.8337 18.0459C91.4094 17.3186 90.4852 17.0762 89.7579 17.4853L77.5155 24.561C76.7882 24.9853 76.5306 25.9095 76.9549 26.6368ZM32.3815 67.0005L19.0936 43.9854L8.89663 49.8641C2.54815 53.546 0.36633 61.6672 4.04815 68.0308C7.71482 74.3793 15.836 76.5611 22.1997 72.8944L32.3815 67.0005ZM82.0454 37.5155L96.1666 36.8943C97.0151 36.8792 97.7121 37.5004 97.7424 38.3489C97.7727 39.1822 97.1212 39.8943 96.2878 39.9246L82.1666 40.5458H82.106C81.303 40.5458 80.6212 39.9095 80.5909 39.0913C80.5606 38.2579 81.2121 37.5458 82.0454 37.5155ZM23.6977 75.5156L31.8492 70.8035C33.1371 76.7883 35.9704 82.3186 40.031 86.8489C42.7128 89.8186 41.925 94.5156 38.4553 96.5156C38.425 96.5307 38.3984 96.5459 38.3719 96.561L38.343 96.5775C38.3258 96.5872 38.3079 96.5968 38.2886 96.6065C35.9098 97.9853 32.9098 97.6823 30.8795 95.8186C25.4401 90.8186 21.728 84.2126 20.2734 76.9701C21.4553 76.6065 22.6068 76.1368 23.6977 75.5156ZM52.1237 40.258C47.1843 31.6974 43.1843 23.2429 40.8661 16.4398C39.5479 12.5459 38.8358 9.45497 38.7449 7.06104C36.448 10.0862 34.9797 14.553 33.5128 19.0155L33.5128 19.0155C32.996 20.5876 32.4793 22.1592 31.9267 23.6671C29.4267 31.5004 25.9873 37.7126 21.457 42.0004L35.2904 65.9701C41.2752 64.1823 48.3813 64.3186 56.4116 66.061C58.0236 66.337 59.6758 66.6806 61.3284 67.0243L61.3289 67.0244L61.329 67.0245C65.9362 67.9826 70.5476 68.9416 74.3055 68.4398C65.4116 62.9398 53.6389 42.8641 52.1237 40.258ZM49.7745 29.5157C43.0775 16.1369 40.0018 5.34907 42.8048 3.72785C46.2442 1.743 57.1381 14.1975 67.1684 31.5612C77.1988 48.9248 82.5321 64.6066 79.1078 66.5915C76.2897 68.2279 68.3957 60.046 60.0927 47.4248C64.4866 44.3794 65.8957 38.4248 63.1684 33.7127C60.4563 29.0006 54.6078 27.243 49.7745 29.5157Z" fill="url(#paint0_linear_1870_219407)" fill-opacity="0.8" shape-rendering="crispEdges"/>
<path fill-rule="evenodd" clip-rule="evenodd" d="M67.9877 17.258C68.2453 17.4247 68.518 17.5005 68.8059 17.5005C69.3059 17.5005 69.7907 17.258 70.0786 16.8035L77.6847 4.87924C78.1392 4.16712 77.9271 3.24288 77.2301 2.78833C76.518 2.33379 75.5938 2.54591 75.1392 3.25803L67.5332 15.1823C67.0786 15.8792 67.2907 16.8035 67.9877 17.258ZM76.9549 26.6368C77.2428 27.1216 77.7428 27.3943 78.2731 27.3943C78.5306 27.3943 78.7882 27.3337 79.0306 27.1974L91.2731 20.1216C92.0003 19.6974 92.2428 18.7731 91.8337 18.0459C91.4094 17.3186 90.4852 17.0762 89.7579 17.4853L77.5155 24.561C76.7882 24.9853 76.5306 25.9095 76.9549 26.6368ZM32.3815 67.0005L19.0936 43.9854L8.89663 49.8641C2.54815 53.546 0.36633 61.6672 4.04815 68.0308C7.71482 74.3793 15.836 76.5611 22.1997 72.8944L32.3815 67.0005ZM82.0454 37.5155L96.1666 36.8943C97.0151 36.8792 97.7121 37.5004 97.7424 38.3489C97.7727 39.1822 97.1212 39.8943 96.2878 39.9246L82.1666 40.5458H82.106C81.303 40.5458 80.6212 39.9095 80.5909 39.0913C80.5606 38.2579 81.2121 37.5458 82.0454 37.5155ZM23.6977 75.5156L31.8492 70.8035C33.1371 76.7883 35.9704 82.3186 40.031 86.8489C42.7128 89.8186 41.925 94.5156 38.4553 96.5156C38.425 96.5307 38.3984 96.5459 38.3719 96.561L38.343 96.5775C38.3258 96.5872 38.3079 96.5968 38.2886 96.6065C35.9098 97.9853 32.9098 97.6823 30.8795 95.8186C25.4401 90.8186 21.728 84.2126 20.2734 76.9701C21.4553 76.6065 22.6068 76.1368 23.6977 75.5156ZM52.1237 40.258C47.1843 31.6974 43.1843 23.2429 40.8661 16.4398C39.5479 12.5459 38.8358 9.45497 38.7449 7.06104C36.448 10.0862 34.9797 14.553 33.5128 19.0155L33.5128 19.0155C32.996 20.5876 32.4793 22.1592 31.9267 23.6671C29.4267 31.5004 25.9873 37.7126 21.457 42.0004L35.2904 65.9701C41.2752 64.1823 48.3813 64.3186 56.4116 66.061C58.0236 66.337 59.6758 66.6806 61.3284 67.0243L61.3289 67.0244L61.329 67.0245C65.9362 67.9826 70.5476 68.9416 74.3055 68.4398C65.4116 62.9398 53.6389 42.8641 52.1237 40.258ZM49.7745 29.5157C43.0775 16.1369 40.0018 5.34907 42.8048 3.72785C46.2442 1.743 57.1381 14.1975 67.1684 31.5612C77.1988 48.9248 82.5321 64.6066 79.1078 66.5915C76.2897 68.2279 68.3957 60.046 60.0927 47.4248C64.4866 44.3794 65.8957 38.4248 63.1684 33.7127C60.4563 29.0006 54.6078 27.243 49.7745 29.5157Z" fill="#344254" fill-opacity="0.15" shape-rendering="crispEdges"/>
<path d="M67.9877 17.258L67.2593 18.3749L67.2634 18.3775L67.9877 17.258ZM70.0786 16.8035L68.9545 16.0864L68.9522 16.0901L70.0786 16.8035ZM77.6847 4.87924L76.5608 4.16186L76.5606 4.16221L77.6847 4.87924ZM77.2301 2.78833L77.9585 1.67146L77.9475 1.66443L77.2301 2.78833ZM75.1392 3.25803L74.0153 2.54065L74.0151 2.54099L75.1392 3.25803ZM67.5332 15.1823L68.65 15.9107L68.6573 15.8993L67.5332 15.1823ZM76.9549 26.6368L75.8031 27.3086L75.8084 27.3175L76.9549 26.6368ZM79.0306 27.1974L79.6843 28.3595L79.6911 28.3557L79.6978 28.3518L79.0306 27.1974ZM91.2731 20.1216L91.9403 21.276L91.9449 21.2733L91.2731 20.1216ZM91.8337 18.0459L92.9958 17.3922L92.9906 17.3831L92.9854 17.374L91.8337 18.0459ZM89.7579 17.4853L89.1042 16.3232L89.0974 16.327L89.0907 16.3309L89.7579 17.4853ZM77.5155 24.561L76.8483 23.4066L76.8437 23.4093L77.5155 24.561ZM19.0936 43.9854L20.2483 43.3187L19.5821 42.1647L18.4277 42.8302L19.0936 43.9854ZM32.3815 67.0005L33.0495 68.1544L34.2021 67.4872L33.5362 66.3338L32.3815 67.0005ZM8.89663 49.8641L8.23068 48.709L8.22772 48.7107L8.89663 49.8641ZM4.04815 68.0308L5.20274 67.364L5.20224 67.3631L4.04815 68.0308ZM22.1997 72.8944L22.8653 74.0497L22.8676 74.0484L22.1997 72.8944ZM96.1666 36.8943L96.1428 35.5612L96.1254 35.5615L96.108 35.5623L96.1666 36.8943ZM82.0454 37.5155L82.0939 38.848L82.104 38.8476L82.0454 37.5155ZM97.7424 38.3489L96.4099 38.3964L96.4099 38.3973L97.7424 38.3489ZM96.2878 39.9246L96.2394 38.5921L96.2292 38.5926L96.2878 39.9246ZM82.1666 40.5458V41.8792H82.1959L82.2252 41.8779L82.1666 40.5458ZM80.5909 39.0913L79.2584 39.1397L79.2584 39.1406L80.5909 39.0913ZM31.8492 70.8035L33.1527 70.523L32.7674 68.7326L31.1819 69.6491L31.8492 70.8035ZM23.6977 75.5156L24.3575 76.6743L24.365 76.6699L23.6977 75.5156ZM40.031 86.8489L39.0381 87.7389L39.0415 87.7425L40.031 86.8489ZM38.4553 96.5156L39.0517 97.7081L39.0869 97.6905L39.1211 97.6708L38.4553 96.5156ZM38.3719 96.561L39.0305 97.7204L39.0335 97.7187L38.3719 96.561ZM38.343 96.5775L38.9952 97.7404L39.0016 97.7368L38.343 96.5775ZM38.2886 96.6065L37.6924 95.4139L37.6556 95.4323L37.62 95.4529L38.2886 96.6065ZM30.8795 95.8186L29.9772 96.8002L29.9779 96.8009L30.8795 95.8186ZM20.2734 76.9701L19.8813 75.6958L18.7288 76.0504L18.9662 77.2327L20.2734 76.9701ZM40.8661 16.4398L39.6032 16.8674L39.604 16.8699L40.8661 16.4398ZM52.1237 40.258L50.9688 40.9244L50.971 40.9282L52.1237 40.258ZM38.7449 7.06104L40.0773 7.01044L39.9359 3.28749L37.683 6.25476L38.7449 7.06104ZM33.5128 19.0155L34.7777 19.4371L34.7794 19.4319L33.5128 19.0155ZM33.5128 19.0155L32.2478 18.5939L32.2461 18.5991L33.5128 19.0155ZM31.9267 23.6671L30.6748 23.2083L30.6651 23.2348L30.6565 23.2617L31.9267 23.6671ZM21.457 42.0004L20.5405 41.0321L19.7762 41.7555L20.3022 42.6669L21.457 42.0004ZM35.2904 65.9701L34.1355 66.6366L34.6623 67.5493L35.672 67.2477L35.2904 65.9701ZM56.4116 66.061L56.1288 67.3641L56.1576 67.3703L56.1866 67.3753L56.4116 66.061ZM61.3284 67.0243L61.6102 65.7211L61.5999 65.7189L61.3284 67.0243ZM61.3289 67.0244L61.6181 65.7228L61.6106 65.7212L61.3289 67.0244ZM61.329 67.0245L61.0397 68.326L61.0486 68.328L61.0575 68.3299L61.329 67.0245ZM74.3055 68.4398L74.482 69.7614L78.1793 69.2677L75.0068 67.3058L74.3055 68.4398ZM42.8048 3.72785L42.1384 2.57302L42.1373 2.57367L42.8048 3.72785ZM49.7745 29.5157L48.5822 30.1126L49.1646 31.2759L50.3419 30.7223L49.7745 29.5157ZM67.1684 31.5612L66.0139 32.2281L67.1684 31.5612ZM79.1078 66.5915L78.4392 65.4379L78.4383 65.4384L79.1078 66.5915ZM60.0927 47.4248L59.3332 46.329L58.2635 47.0703L58.9788 48.1576L60.0927 47.4248ZM63.1684 33.7127L62.0128 34.3778L62.0145 34.3806L63.1684 33.7127ZM68.8059 16.1671C68.7805 16.1671 68.7666 16.164 68.7588 16.1617C68.7512 16.1595 68.7363 16.1543 68.712 16.1386L67.2634 18.3775C67.7419 18.6871 68.2673 18.8338 68.8059 18.8338V16.1671ZM68.9522 16.0901C68.9339 16.1189 68.9139 16.1355 68.8933 16.1465C68.8707 16.1586 68.8409 16.1671 68.8059 16.1671V18.8338C69.7376 18.8338 70.6595 18.3782 71.205 17.5169L68.9522 16.0901ZM76.5606 4.16221L68.9545 16.0864L71.2027 17.5205L78.8088 5.59628L76.5606 4.16221ZM76.5018 3.90514C76.5972 3.96735 76.6149 4.07711 76.5608 4.16186L78.8086 5.59662C79.6636 4.25713 79.257 2.5184 77.9585 1.67152L76.5018 3.90514ZM76.2631 3.97541C76.2984 3.92012 76.3424 3.89516 76.3822 3.88618C76.4208 3.87744 76.4644 3.88137 76.5128 3.91223L77.9475 1.66443C76.6039 0.806818 74.8592 1.21864 74.0153 2.54065L76.2631 3.97541ZM68.6573 15.8993L76.2633 3.97506L74.0151 2.54099L66.409 14.4652L68.6573 15.8993ZM68.7161 16.1412C68.6122 16.0735 68.613 15.9674 68.65 15.9106L66.4164 14.4539C65.5443 15.7911 65.9692 17.5335 67.2594 18.3748L68.7161 16.1412ZM78.2731 26.061C78.2375 26.061 78.2065 26.0521 78.1804 26.0373C78.1553 26.0231 78.1269 25.9991 78.1013 25.9561L75.8084 27.3175C76.3385 28.2104 77.2762 28.7277 78.2731 28.7277V26.061ZM78.377 26.0353C78.359 26.0454 78.3437 26.0511 78.3296 26.0546C78.3152 26.0583 78.2968 26.061 78.2731 26.061V28.7277C78.7452 28.7277 79.2302 28.615 79.6843 28.3595L78.377 26.0353ZM90.6059 18.9672L78.3634 26.043L79.6978 28.3518L91.9403 21.276L90.6059 18.9672ZM90.6716 18.6995C90.7281 18.8 90.6917 18.9172 90.6012 18.9699L91.9449 21.2733C93.309 20.4776 93.7574 18.7463 92.9958 17.3922L90.6716 18.6995ZM90.4116 18.6474C90.512 18.5909 90.6292 18.6272 90.682 18.7177L92.9854 17.374C92.1897 16.01 90.4583 15.5615 89.1042 16.3232L90.4116 18.6474ZM78.1827 25.7154L90.4251 18.6396L89.0907 16.3309L76.8483 23.4066L78.1827 25.7154ZM78.1066 25.9649C78.0646 25.893 78.0766 25.7773 78.1873 25.7127L76.8437 23.4093C75.4998 24.1932 74.9966 25.926 75.8032 27.3086L78.1066 25.9649ZM17.9389 44.652L31.2268 67.6672L33.5362 66.3338L20.2483 43.3187L17.9389 44.652ZM9.56258 51.0193L19.7596 45.1405L18.4277 42.8302L8.23068 48.709L9.56258 51.0193ZM5.20224 67.3631C1.89012 61.6384 3.85153 54.3314 9.56555 51.0175L8.22772 48.7107C1.24476 52.7605 -1.15746 61.6959 2.89406 68.6985L5.20224 67.3631ZM21.534 71.7392C15.8076 75.0387 8.50119 73.0749 5.20274 67.364L2.89356 68.6977C6.92844 75.6837 15.8644 78.0836 22.8653 74.0497L21.534 71.7392ZM31.7135 65.8466L21.5317 71.7405L22.8676 74.0484L33.0495 68.1544L31.7135 65.8466ZM96.108 35.5623L81.9868 36.1835L82.104 38.8476L96.2252 38.2264L96.108 35.5623ZM99.0749 38.3013C99.017 36.6805 97.6718 35.5339 96.1428 35.5612L96.1904 38.2274C96.2788 38.2259 96.3335 38.2561 96.3621 38.2822C96.3875 38.3054 96.4078 38.3376 96.4099 38.3964L99.0749 38.3013ZM96.3363 41.2571C97.9181 41.1996 99.1314 39.857 99.0748 38.3004L96.4099 38.3973C96.4117 38.4474 96.394 38.4957 96.358 38.5349C96.3226 38.5733 96.2813 38.5906 96.2394 38.5922L96.3363 41.2571ZM82.2252 41.8779L96.3464 41.2567L96.2292 38.5926L82.108 39.2138L82.2252 41.8779ZM82.106 41.8792H82.1666V39.2125H82.106V41.8792ZM79.2584 39.1406C79.3159 40.6908 80.6012 41.8792 82.106 41.8792V39.2125C82.061 39.2125 82.0151 39.195 81.9779 39.1595C81.9423 39.1257 81.9249 39.0858 81.9233 39.0419L79.2584 39.1406ZM81.997 36.1831C80.4152 36.2406 79.2018 37.5831 79.2584 39.1397L81.9233 39.0428C81.9215 38.9928 81.9392 38.9445 81.9753 38.9053C82.0107 38.8668 82.052 38.8495 82.0939 38.848L81.997 36.1831ZM31.1819 69.6491L23.0304 74.3612L24.365 76.6699L32.5165 71.9578L31.1819 69.6491ZM41.0239 85.959C37.1172 81.6004 34.3915 76.2799 33.1527 70.523L30.5457 71.084C31.8826 77.2967 34.8236 83.0368 39.0381 87.7389L41.0239 85.959ZM39.1211 97.6708C43.3108 95.2558 44.2836 89.5686 41.0206 85.9553L39.0415 87.7425C41.1421 90.0686 40.5391 93.7754 37.7894 95.3604L39.1211 97.6708ZM39.0335 97.7187C39.0405 97.7147 39.0449 97.7122 39.049 97.7099C39.0528 97.7077 39.055 97.7065 39.0562 97.7058C39.0585 97.7045 39.0564 97.7057 39.0517 97.7081L37.8588 95.3231C37.791 95.357 37.7343 95.3898 37.7103 95.4034L39.0335 97.7187ZM39.0016 97.7368L39.0305 97.7204L37.7134 95.4017L37.6844 95.4181L39.0016 97.7368ZM38.8848 97.7991C38.9295 97.7767 38.9672 97.7561 38.9952 97.7404L37.6908 95.4145C37.6843 95.4182 37.6863 95.4169 37.6924 95.4139L38.8848 97.7991ZM29.9779 96.8009C32.4447 99.0652 36.082 99.4266 38.9572 97.7601L37.62 95.4529C35.7376 96.544 33.3749 96.2993 31.7811 94.8364L29.9779 96.8009ZM18.9662 77.2327C20.4761 84.7508 24.3296 91.6088 29.9772 96.8002L31.7818 94.837C26.5507 90.0284 22.9798 83.6743 21.5807 76.7076L18.9662 77.2327ZM23.0379 74.3569C22.0465 74.9215 20.9878 75.3553 19.8813 75.6958L20.6655 78.2445C21.9227 77.8577 23.167 77.3521 24.3575 76.6742L23.0379 74.3569ZM39.604 16.8699C41.9585 23.7795 46.0013 32.315 50.9688 40.9244L53.2786 39.5917C48.3673 31.0798 44.4101 22.7062 42.1282 16.0098L39.604 16.8699ZM37.4125 7.11163C37.5107 9.6974 38.2709 12.9319 39.6032 16.8674L42.1291 16.0123C40.8249 12.1599 40.1609 9.21254 40.0773 7.01044L37.4125 7.11163ZM34.7794 19.4319C36.2697 14.8983 37.6739 10.6766 39.8068 7.86731L37.683 6.25476C35.2222 9.4958 33.6897 14.2076 32.2461 18.5991L34.7794 19.4319ZM34.7777 19.4371L34.7777 19.4371L32.2479 18.5938L32.2479 18.5939L34.7777 19.4371ZM33.1786 24.1259C33.7403 22.5933 34.2639 21 34.7794 19.4319L32.2461 18.5991C31.728 20.1753 31.2184 21.7252 30.6748 23.2083L33.1786 24.1259ZM22.3736 42.9688C27.1225 38.474 30.656 32.034 33.1969 24.0725L30.6565 23.2617C28.1974 30.9668 24.8521 36.9511 20.5405 41.0321L22.3736 42.9688ZM36.4452 65.3037L22.6118 41.334L20.3022 42.6669L34.1355 66.6366L36.4452 65.3037ZM56.6943 64.758C48.5346 62.9875 41.1835 62.8181 34.9087 64.6926L35.672 67.2477C41.3669 65.5464 48.228 65.6497 56.1288 67.3641L56.6943 64.758ZM61.5999 65.7189C59.9516 65.3761 58.276 65.0275 56.6366 64.7468L56.1866 67.3753C57.7712 67.6466 59.3999 67.9851 61.057 68.3297L61.5999 65.7189ZM61.6106 65.7212L61.6102 65.7211L61.0467 68.3276L61.0471 68.3277L61.6106 65.7212ZM61.6182 65.7229L61.6181 65.7228L61.0396 68.326L61.0397 68.326L61.6182 65.7229ZM74.129 67.1182C70.6449 67.5835 66.2829 66.6928 61.6005 65.7191L61.0575 68.3299C65.5895 69.2724 70.4503 70.2998 74.482 69.7614L74.129 67.1182ZM50.971 40.9282C51.7353 42.2428 55.0798 47.9519 59.3571 54.0309C61.4954 57.07 63.879 60.219 66.3006 62.9645C68.7082 65.6942 71.2142 68.0958 73.6042 69.5738L75.0068 67.3058C72.9499 66.0338 70.6491 63.8634 68.3005 61.2006C65.9659 58.5537 63.644 55.4895 61.538 52.4964C57.3266 46.5111 54.0272 40.8793 53.2764 39.5878L50.971 40.9282ZM42.1373 2.57367C40.7581 3.37135 40.4374 5.0563 40.4362 6.55868C40.4349 8.18134 40.8007 10.2327 41.4414 12.5658C42.7287 17.2529 45.2124 23.3805 48.5822 30.1126L50.9668 28.9189C47.6397 22.2722 45.2369 16.3164 44.0129 11.8596C43.398 9.62071 43.1018 7.83497 43.1029 6.56086C43.104 5.16645 43.45 4.89496 43.4724 4.88204L42.1373 2.57367ZM68.323 30.8942C63.2781 22.161 57.9983 14.6298 53.5184 9.51075C51.2858 6.95966 49.2058 4.9541 47.4152 3.70434C46.5232 3.0817 45.6386 2.60071 44.7936 2.35961C43.9463 2.11784 42.992 2.08038 42.1384 2.57302L43.4713 4.88268C43.4774 4.87911 43.616 4.79668 44.0619 4.92393C44.5102 5.05185 45.1194 5.35388 45.889 5.89105C47.4218 6.96089 49.337 8.78203 51.5117 11.2669C55.8462 16.2198 61.0285 23.5978 66.0139 32.2281L68.323 30.8942ZM79.7765 67.745C80.629 67.2509 81.071 66.4041 81.2833 65.5503C81.4952 64.6982 81.5198 63.6916 81.4258 62.6072C81.2371 60.4306 80.5395 57.6247 79.4457 54.4135C77.2511 47.97 73.3681 39.628 68.323 30.8942L66.0139 32.2281C70.9991 40.858 74.798 49.0387 76.9215 55.2733C77.9868 58.4011 78.6074 60.973 78.7691 62.8376C78.8502 63.7738 78.8081 64.4536 78.6954 64.9069C78.5831 65.3585 78.4427 65.4359 78.4392 65.4379L79.7765 67.745ZM58.9788 48.1576C63.1566 54.5081 67.2597 59.7866 70.7067 63.2899C72.4225 65.0337 74.0301 66.394 75.4466 67.2153C76.756 67.9746 78.3889 68.5507 79.7774 67.7445L78.4383 65.4384C78.4177 65.4504 78.007 65.6175 76.7842 64.9084C75.6685 64.2615 74.2553 63.0943 72.6075 61.4196C69.3272 58.0858 65.3319 52.9627 61.2066 46.692L58.9788 48.1576ZM62.0145 34.3806C64.3889 38.483 63.1648 43.6733 59.3332 46.329L60.8522 48.5207C65.8085 45.0855 67.4026 38.3666 64.3224 33.0448L62.0145 34.3806ZM50.3419 30.7223C54.5571 28.7402 59.652 30.2761 62.0129 34.3778L64.324 33.0476C61.2606 27.7251 54.6586 25.7458 49.2071 28.3091L50.3419 30.7223Z" fill="url(#paint1_radial_1870_219407)" fill-opacity="0.6" mask="url(#path-1-inside-1_1870_219407)"/>
<path d="M67.9877 17.258L67.2593 18.3749L67.2634 18.3775L67.9877 17.258ZM70.0786 16.8035L68.9545 16.0864L68.9522 16.0901L70.0786 16.8035ZM77.6847 4.87924L76.5608 4.16186L76.5606 4.16221L77.6847 4.87924ZM77.2301 2.78833L77.9585 1.67146L77.9475 1.66443L77.2301 2.78833ZM75.1392 3.25803L74.0153 2.54065L74.0151 2.54099L75.1392 3.25803ZM67.5332 15.1823L68.65 15.9107L68.6573 15.8993L67.5332 15.1823ZM76.9549 26.6368L75.8031 27.3086L75.8084 27.3175L76.9549 26.6368ZM79.0306 27.1974L79.6843 28.3595L79.6911 28.3557L79.6978 28.3518L79.0306 27.1974ZM91.2731 20.1216L91.9403 21.276L91.9449 21.2733L91.2731 20.1216ZM91.8337 18.0459L92.9958 17.3922L92.9906 17.3831L92.9854 17.374L91.8337 18.0459ZM89.7579 17.4853L89.1042 16.3232L89.0974 16.327L89.0907 16.3309L89.7579 17.4853ZM77.5155 24.561L76.8483 23.4066L76.8437 23.4093L77.5155 24.561ZM19.0936 43.9854L20.2483 43.3187L19.5821 42.1647L18.4277 42.8302L19.0936 43.9854ZM32.3815 67.0005L33.0495 68.1544L34.2021 67.4872L33.5362 66.3338L32.3815 67.0005ZM8.89663 49.8641L8.23068 48.709L8.22772 48.7107L8.89663 49.8641ZM4.04815 68.0308L5.20274 67.364L5.20224 67.3631L4.04815 68.0308ZM22.1997 72.8944L22.8653 74.0497L22.8676 74.0484L22.1997 72.8944ZM96.1666 36.8943L96.1428 35.5612L96.1254 35.5615L96.108 35.5623L96.1666 36.8943ZM82.0454 37.5155L82.0939 38.848L82.104 38.8476L82.0454 37.5155ZM97.7424 38.3489L96.4099 38.3964L96.4099 38.3973L97.7424 38.3489ZM96.2878 39.9246L96.2394 38.5921L96.2292 38.5926L96.2878 39.9246ZM82.1666 40.5458V41.8792H82.1959L82.2252 41.8779L82.1666 40.5458ZM80.5909 39.0913L79.2584 39.1397L79.2584 39.1406L80.5909 39.0913ZM31.8492 70.8035L33.1527 70.523L32.7674 68.7326L31.1819 69.6491L31.8492 70.8035ZM23.6977 75.5156L24.3575 76.6743L24.365 76.6699L23.6977 75.5156ZM40.031 86.8489L39.0381 87.7389L39.0415 87.7425L40.031 86.8489ZM38.4553 96.5156L39.0517 97.7081L39.0869 97.6905L39.1211 97.6708L38.4553 96.5156ZM38.3719 96.561L39.0305 97.7204L39.0335 97.7187L38.3719 96.561ZM38.343 96.5775L38.9952 97.7404L39.0016 97.7368L38.343 96.5775ZM38.2886 96.6065L37.6924 95.4139L37.6556 95.4323L37.62 95.4529L38.2886 96.6065ZM30.8795 95.8186L29.9772 96.8002L29.9779 96.8009L30.8795 95.8186ZM20.2734 76.9701L19.8813 75.6958L18.7288 76.0504L18.9662 77.2327L20.2734 76.9701ZM40.8661 16.4398L39.6032 16.8674L39.604 16.8699L40.8661 16.4398ZM52.1237 40.258L50.9688 40.9244L50.971 40.9282L52.1237 40.258ZM38.7449 7.06104L40.0773 7.01044L39.9359 3.28749L37.683 6.25476L38.7449 7.06104ZM33.5128 19.0155L34.7777 19.4371L34.7794 19.4319L33.5128 19.0155ZM33.5128 19.0155L32.2478 18.5939L32.2461 18.5991L33.5128 19.0155ZM31.9267 23.6671L30.6748 23.2083L30.6651 23.2348L30.6565 23.2617L31.9267 23.6671ZM21.457 42.0004L20.5405 41.0321L19.7762 41.7555L20.3022 42.6669L21.457 42.0004ZM35.2904 65.9701L34.1355 66.6366L34.6623 67.5493L35.672 67.2477L35.2904 65.9701ZM56.4116 66.061L56.1288 67.3641L56.1576 67.3703L56.1866 67.3753L56.4116 66.061ZM61.3284 67.0243L61.6102 65.7211L61.5999 65.7189L61.3284 67.0243ZM61.3289 67.0244L61.6181 65.7228L61.6106 65.7212L61.3289 67.0244ZM61.329 67.0245L61.0397 68.326L61.0486 68.328L61.0575 68.3299L61.329 67.0245ZM74.3055 68.4398L74.482 69.7614L78.1793 69.2677L75.0068 67.3058L74.3055 68.4398ZM42.8048 3.72785L42.1384 2.57302L42.1373 2.57367L42.8048 3.72785ZM49.7745 29.5157L48.5822 30.1126L49.1646 31.2759L50.3419 30.7223L49.7745 29.5157ZM67.1684 31.5612L66.0139 32.2281L67.1684 31.5612ZM79.1078 66.5915L78.4392 65.4379L78.4383 65.4384L79.1078 66.5915ZM60.0927 47.4248L59.3332 46.329L58.2635 47.0703L58.9788 48.1576L60.0927 47.4248ZM63.1684 33.7127L62.0128 34.3778L62.0145 34.3806L63.1684 33.7127ZM68.8059 16.1671C68.7805 16.1671 68.7666 16.164 68.7588 16.1617C68.7512 16.1595 68.7363 16.1543 68.712 16.1386L67.2634 18.3775C67.7419 18.6871 68.2673 18.8338 68.8059 18.8338V16.1671ZM68.9522 16.0901C68.9339 16.1189 68.9139 16.1355 68.8933 16.1465C68.8707 16.1586 68.8409 16.1671 68.8059 16.1671V18.8338C69.7376 18.8338 70.6595 18.3782 71.205 17.5169L68.9522 16.0901ZM76.5606 4.16221L68.9545 16.0864L71.2027 17.5205L78.8088 5.59628L76.5606 4.16221ZM76.5018 3.90514C76.5972 3.96735 76.6149 4.07711 76.5608 4.16186L78.8086 5.59662C79.6636 4.25713 79.257 2.5184 77.9585 1.67152L76.5018 3.90514ZM76.2631 3.97541C76.2984 3.92012 76.3424 3.89516 76.3822 3.88618C76.4208 3.87744 76.4644 3.88137 76.5128 3.91223L77.9475 1.66443C76.6039 0.806818 74.8592 1.21864 74.0153 2.54065L76.2631 3.97541ZM68.6573 15.8993L76.2633 3.97506L74.0151 2.54099L66.409 14.4652L68.6573 15.8993ZM68.7161 16.1412C68.6122 16.0735 68.613 15.9674 68.65 15.9106L66.4164 14.4539C65.5443 15.7911 65.9692 17.5335 67.2594 18.3748L68.7161 16.1412ZM78.2731 26.061C78.2375 26.061 78.2065 26.0521 78.1804 26.0373C78.1553 26.0231 78.1269 25.9991 78.1013 25.9561L75.8084 27.3175C76.3385 28.2104 77.2762 28.7277 78.2731 28.7277V26.061ZM78.377 26.0353C78.359 26.0454 78.3437 26.0511 78.3296 26.0546C78.3152 26.0583 78.2968 26.061 78.2731 26.061V28.7277C78.7452 28.7277 79.2302 28.615 79.6843 28.3595L78.377 26.0353ZM90.6059 18.9672L78.3634 26.043L79.6978 28.3518L91.9403 21.276L90.6059 18.9672ZM90.6716 18.6995C90.7281 18.8 90.6917 18.9172 90.6012 18.9699L91.9449 21.2733C93.309 20.4776 93.7574 18.7463 92.9958 17.3922L90.6716 18.6995ZM90.4116 18.6474C90.512 18.5909 90.6292 18.6272 90.682 18.7177L92.9854 17.374C92.1897 16.01 90.4583 15.5615 89.1042 16.3232L90.4116 18.6474ZM78.1827 25.7154L90.4251 18.6396L89.0907 16.3309L76.8483 23.4066L78.1827 25.7154ZM78.1066 25.9649C78.0646 25.893 78.0766 25.7773 78.1873 25.7127L76.8437 23.4093C75.4998 24.1932 74.9966 25.926 75.8032 27.3086L78.1066 25.9649ZM17.9389 44.652L31.2268 67.6672L33.5362 66.3338L20.2483 43.3187L17.9389 44.652ZM9.56258 51.0193L19.7596 45.1405L18.4277 42.8302L8.23068 48.709L9.56258 51.0193ZM5.20224 67.3631C1.89012 61.6384 3.85153 54.3314 9.56555 51.0175L8.22772 48.7107C1.24476 52.7605 -1.15746 61.6959 2.89406 68.6985L5.20224 67.3631ZM21.534 71.7392C15.8076 75.0387 8.50119 73.0749 5.20274 67.364L2.89356 68.6977C6.92844 75.6837 15.8644 78.0836 22.8653 74.0497L21.534 71.7392ZM31.7135 65.8466L21.5317 71.7405L22.8676 74.0484L33.0495 68.1544L31.7135 65.8466ZM96.108 35.5623L81.9868 36.1835L82.104 38.8476L96.2252 38.2264L96.108 35.5623ZM99.0749 38.3013C99.017 36.6805 97.6718 35.5339 96.1428 35.5612L96.1904 38.2274C96.2788 38.2259 96.3335 38.2561 96.3621 38.2822C96.3875 38.3054 96.4078 38.3376 96.4099 38.3964L99.0749 38.3013ZM96.3363 41.2571C97.9181 41.1996 99.1314 39.857 99.0748 38.3004L96.4099 38.3973C96.4117 38.4474 96.394 38.4957 96.358 38.5349C96.3226 38.5733 96.2813 38.5906 96.2394 38.5922L96.3363 41.2571ZM82.2252 41.8779L96.3464 41.2567L96.2292 38.5926L82.108 39.2138L82.2252 41.8779ZM82.106 41.8792H82.1666V39.2125H82.106V41.8792ZM79.2584 39.1406C79.3159 40.6908 80.6012 41.8792 82.106 41.8792V39.2125C82.061 39.2125 82.0151 39.195 81.9779 39.1595C81.9423 39.1257 81.9249 39.0858 81.9233 39.0419L79.2584 39.1406ZM81.997 36.1831C80.4152 36.2406 79.2018 37.5831 79.2584 39.1397L81.9233 39.0428C81.9215 38.9928 81.9392 38.9445 81.9753 38.9053C82.0107 38.8668 82.052 38.8495 82.0939 38.848L81.997 36.1831ZM31.1819 69.6491L23.0304 74.3612L24.365 76.6699L32.5165 71.9578L31.1819 69.6491ZM41.0239 85.959C37.1172 81.6004 34.3915 76.2799 33.1527 70.523L30.5457 71.084C31.8826 77.2967 34.8236 83.0368 39.0381 87.7389L41.0239 85.959ZM39.1211 97.6708C43.3108 95.2558 44.2836 89.5686 41.0206 85.9553L39.0415 87.7425C41.1421 90.0686 40.5391 93.7754 37.7894 95.3604L39.1211 97.6708ZM39.0335 97.7187C39.0405 97.7147 39.0449 97.7122 39.049 97.7099C39.0528 97.7077 39.055 97.7065 39.0562 97.7058C39.0585 97.7045 39.0564 97.7057 39.0517 97.7081L37.8588 95.3231C37.791 95.357 37.7343 95.3898 37.7103 95.4034L39.0335 97.7187ZM39.0016 97.7368L39.0305 97.7204L37.7134 95.4017L37.6844 95.4181L39.0016 97.7368ZM38.8848 97.7991C38.9295 97.7767 38.9672 97.7561 38.9952 97.7404L37.6908 95.4145C37.6843 95.4182 37.6863 95.4169 37.6924 95.4139L38.8848 97.7991ZM29.9779 96.8009C32.4447 99.0652 36.082 99.4266 38.9572 97.7601L37.62 95.4529C35.7376 96.544 33.3749 96.2993 31.7811 94.8364L29.9779 96.8009ZM18.9662 77.2327C20.4761 84.7508 24.3296 91.6088 29.9772 96.8002L31.7818 94.837C26.5507 90.0284 22.9798 83.6743 21.5807 76.7076L18.9662 77.2327ZM23.0379 74.3569C22.0465 74.9215 20.9878 75.3553 19.8813 75.6958L20.6655 78.2445C21.9227 77.8577 23.167 77.3521 24.3575 76.6742L23.0379 74.3569ZM39.604 16.8699C41.9585 23.7795 46.0013 32.315 50.9688 40.9244L53.2786 39.5917C48.3673 31.0798 44.4101 22.7062 42.1282 16.0098L39.604 16.8699ZM37.4125 7.11163C37.5107 9.6974 38.2709 12.9319 39.6032 16.8674L42.1291 16.0123C40.8249 12.1599 40.1609 9.21254 40.0773 7.01044L37.4125 7.11163ZM34.7794 19.4319C36.2697 14.8983 37.6739 10.6766 39.8068 7.86731L37.683 6.25476C35.2222 9.4958 33.6897 14.2076 32.2461 18.5991L34.7794 19.4319ZM34.7777 19.4371L34.7777 19.4371L32.2479 18.5938L32.2479 18.5939L34.7777 19.4371ZM33.1786 24.1259C33.7403 22.5933 34.2639 21 34.7794 19.4319L32.2461 18.5991C31.728 20.1753 31.2184 21.7252 30.6748 23.2083L33.1786 24.1259ZM22.3736 42.9688C27.1225 38.474 30.656 32.034 33.1969 24.0725L30.6565 23.2617C28.1974 30.9668 24.8521 36.9511 20.5405 41.0321L22.3736 42.9688ZM36.4452 65.3037L22.6118 41.334L20.3022 42.6669L34.1355 66.6366L36.4452 65.3037ZM56.6943 64.758C48.5346 62.9875 41.1835 62.8181 34.9087 64.6926L35.672 67.2477C41.3669 65.5464 48.228 65.6497 56.1288 67.3641L56.6943 64.758ZM61.5999 65.7189C59.9516 65.3761 58.276 65.0275 56.6366 64.7468L56.1866 67.3753C57.7712 67.6466 59.3999 67.9851 61.057 68.3297L61.5999 65.7189ZM61.6106 65.7212L61.6102 65.7211L61.0467 68.3276L61.0471 68.3277L61.6106 65.7212ZM61.6182 65.7229L61.6181 65.7228L61.0396 68.326L61.0397 68.326L61.6182 65.7229ZM74.129 67.1182C70.6449 67.5835 66.2829 66.6928 61.6005 65.7191L61.0575 68.3299C65.5895 69.2724 70.4503 70.2998 74.482 69.7614L74.129 67.1182ZM50.971 40.9282C51.7353 42.2428 55.0798 47.9519 59.3571 54.0309C61.4954 57.07 63.879 60.219 66.3006 62.9645C68.7082 65.6942 71.2142 68.0958 73.6042 69.5738L75.0068 67.3058C72.9499 66.0338 70.6491 63.8634 68.3005 61.2006C65.9659 58.5537 63.644 55.4895 61.538 52.4964C57.3266 46.5111 54.0272 40.8793 53.2764 39.5878L50.971 40.9282ZM42.1373 2.57367C40.7581 3.37135 40.4374 5.0563 40.4362 6.55868C40.4349 8.18134 40.8007 10.2327 41.4414 12.5658C42.7287 17.2529 45.2124 23.3805 48.5822 30.1126L50.9668 28.9189C47.6397 22.2722 45.2369 16.3164 44.0129 11.8596C43.398 9.62071 43.1018 7.83497 43.1029 6.56086C43.104 5.16645 43.45 4.89496 43.4724 4.88204L42.1373 2.57367ZM68.323 30.8942C63.2781 22.161 57.9983 14.6298 53.5184 9.51075C51.2858 6.95966 49.2058 4.9541 47.4152 3.70434C46.5232 3.0817 45.6386 2.60071 44.7936 2.35961C43.9463 2.11784 42.992 2.08038 42.1384 2.57302L43.4713 4.88268C43.4774 4.87911 43.616 4.79668 44.0619 4.92393C44.5102 5.05185 45.1194 5.35388 45.889 5.89105C47.4218 6.96089 49.337 8.78203 51.5117 11.2669C55.8462 16.2198 61.0285 23.5978 66.0139 32.2281L68.323 30.8942ZM79.7765 67.745C80.629 67.2509 81.071 66.4041 81.2833 65.5503C81.4952 64.6982 81.5198 63.6916 81.4258 62.6072C81.2371 60.4306 80.5395 57.6247 79.4457 54.4135C77.2511 47.97 73.3681 39.628 68.323 30.8942L66.0139 32.2281C70.9991 40.858 74.798 49.0387 76.9215 55.2733C77.9868 58.4011 78.6074 60.973 78.7691 62.8376C78.8502 63.7738 78.8081 64.4536 78.6954 64.9069C78.5831 65.3585 78.4427 65.4359 78.4392 65.4379L79.7765 67.745ZM58.9788 48.1576C63.1566 54.5081 67.2597 59.7866 70.7067 63.2899C72.4225 65.0337 74.0301 66.394 75.4466 67.2153C76.756 67.9746 78.3889 68.5507 79.7774 67.7445L78.4383 65.4384C78.4177 65.4504 78.007 65.6175 76.7842 64.9084C75.6685 64.2615 74.2553 63.0943 72.6075 61.4196C69.3272 58.0858 65.3319 52.9627 61.2066 46.692L58.9788 48.1576ZM62.0145 34.3806C64.3889 38.483 63.1648 43.6733 59.3332 46.329L60.8522 48.5207C65.8085 45.0855 67.4026 38.3666 64.3224 33.0448L62.0145 34.3806ZM50.3419 30.7223C54.5571 28.7402 59.652 30.2761 62.0129 34.3778L64.324 33.0476C61.2606 27.7251 54.6586 25.7458 49.2071 28.3091L50.3419 30.7223Z" fill="url(#paint2_radial_1870_219407)" fill-opacity="0.3" mask="url(#path-1-inside-1_1870_219407)"/>
</g>
</g>
<defs>
<filter id="filter0_bd_1870_219407" x="-664.409" y="-664.118" width="1428.82" height="1428.25" filterUnits="userSpaceOnUse" color-interpolation-filters="sRGB">
<feFlood flood-opacity="0" result="BackgroundImageFix"/>
<feGaussianBlur in="BackgroundImageFix" stdDeviation="333.333"/>
<feComposite in2="SourceAlpha" operator="in" result="effect1_backgroundBlur_1870_219407"/>
<feColorMatrix in="SourceAlpha" type="matrix" values="0 0 0 0 0 0 0 0 0 0 0 0 0 0 0 0 0 0 127 0" result="hardAlpha"/>
<feOffset dy="2.66667"/>
<feGaussianBlur stdDeviation="1.33333"/>
<feComposite in2="hardAlpha" operator="out"/>
<feColorMatrix type="matrix" values="0 0 0 0 0 0 0 0 0 0 0 0 0 0 0 0 0 0 0.25 0"/>
<feBlend mode="normal" in2="effect1_backgroundBlur_1870_219407" result="effect2_dropShadow_1870_219407"/>
<feBlend mode="normal" in="SourceGraphic" in2="effect2_dropShadow_1870_219407" result="shape"/>
</filter>
<linearGradient id="paint0_linear_1870_219407" x1="6.19775" y1="4.99358" x2="50.723" y2="120.012" gradientUnits="userSpaceOnUse">
<stop stop-color="white" stop-opacity="0.6"/>
<stop offset="1" stop-color="white" stop-opacity="0"/>
</linearGradient>
<radialGradient id="paint1_radial_1870_219407" cx="0" cy="0" r="1" gradientUnits="userSpaceOnUse" gradientTransform="translate(50.0006 3.41168) rotate(90) scale(82.4026 82.8988)">
<stop stop-color="white"/>
<stop offset="1" stop-color="white" stop-opacity="0"/>
</radialGradient>
<radialGradient id="paint2_radial_1870_219407" cx="0" cy="0" r="1" gradientUnits="userSpaceOnUse" gradientTransform="translate(50.0006 97.4628) rotate(-90) scale(47.457 47.7428)">
<stop stop-color="white"/>
<stop offset="1" stop-color="white" stop-opacity="0"/>
</radialGradient>
<clipPath id="clip0_1870_219407">
<rect width="100" height="100" fill="white"/>
</clipPath>
</defs>
</svg>
