<svg width="100" height="100" viewBox="0 0 100 100" fill="none" xmlns="http://www.w3.org/2000/svg">
<g filter="url(#filter0_bd_1870_219355)">
<mask id="path-1-inside-1_1870_219355" fill="white">
<path fill-rule="evenodd" clip-rule="evenodd" d="M92.5978 6.7575C92.9299 6.85516 93.2033 7.12859 93.2814 7.48016C96.0353 19.4919 86.133 45.3317 71.7775 59.6091C69.2385 62.1481 66.4846 64.4919 63.5353 66.5622C63.9064 70.9567 63.5744 75.3512 61.9338 79.1208C57.2854 89.7458 45.0588 92.8317 39.8244 93.6716C39.6682 93.7106 39.4924 93.7106 39.3166 93.6911C38.2814 93.5934 37.5197 92.6559 37.6369 91.6208L39.5119 74.5895C38.2228 74.57 36.9533 74.4919 35.6838 74.3552C34.8049 74.277 33.965 73.8669 33.34 73.2419L26.7385 66.6598C26.1135 66.0348 25.7033 65.195 25.6252 64.3161C25.4885 63.0466 25.4103 61.7575 25.3908 60.4684L8.34004 62.3434C8.16426 62.363 7.98847 62.3434 7.81269 62.3239C6.77754 62.1481 6.09394 61.1716 6.26972 60.1559C7.14863 54.9216 10.2346 42.7145 20.8596 38.0466C24.6291 36.4059 29.0432 36.0739 33.4572 36.4645C35.5275 33.5348 37.8518 30.7809 40.4103 28.2419C54.7268 13.9255 81.1525 3.96453 92.5978 6.7575ZM57.4416 42.5583C61.0939 46.2302 67.0314 46.2106 70.6838 42.5583C74.3557 38.9059 74.3557 32.9684 70.7033 29.2966C67.0314 25.6247 61.0939 25.6247 57.4416 29.2966C53.7697 32.9684 53.7697 38.9059 57.4416 42.5583ZM28.0273 79.863C30.0977 79.4919 31.8164 79.0817 32.8906 78.0075C33.457 77.4216 34.4531 77.9099 34.375 78.7106C34.0625 81.3278 32.8906 83.7302 31.0352 85.5856C26.4453 90.195 9.375 90.6247 9.375 90.6247C9.375 90.6247 9.80469 73.5739 14.4141 68.9645C16.25 67.1286 18.6719 65.9372 21.2695 65.6247C21.543 65.5856 21.7969 65.6833 21.9922 65.8786C22.3242 66.2106 22.3047 66.7575 21.9727 67.0895C21.3867 67.6755 20.4297 70.1755 20.1172 71.9528C19.2773 76.6403 23.3789 80.6442 28.0273 79.863Z"/>
</mask>
<path fill-rule="evenodd" clip-rule="evenodd" d="M92.5978 6.7575C92.9299 6.85516 93.2033 7.12859 93.2814 7.48016C96.0353 19.4919 86.133 45.3317 71.7775 59.6091C69.2385 62.1481 66.4846 64.4919 63.5353 66.5622C63.9064 70.9567 63.5744 75.3512 61.9338 79.1208C57.2854 89.7458 45.0588 92.8317 39.8244 93.6716C39.6682 93.7106 39.4924 93.7106 39.3166 93.6911C38.2814 93.5934 37.5197 92.6559 37.6369 91.6208L39.5119 74.5895C38.2228 74.57 36.9533 74.4919 35.6838 74.3552C34.8049 74.277 33.965 73.8669 33.34 73.2419L26.7385 66.6598C26.1135 66.0348 25.7033 65.195 25.6252 64.3161C25.4885 63.0466 25.4103 61.7575 25.3908 60.4684L8.34004 62.3434C8.16426 62.363 7.98847 62.3434 7.81269 62.3239C6.77754 62.1481 6.09394 61.1716 6.26972 60.1559C7.14863 54.9216 10.2346 42.7145 20.8596 38.0466C24.6291 36.4059 29.0432 36.0739 33.4572 36.4645C35.5275 33.5348 37.8518 30.7809 40.4103 28.2419C54.7268 13.9255 81.1525 3.96453 92.5978 6.7575ZM57.4416 42.5583C61.0939 46.2302 67.0314 46.2106 70.6838 42.5583C74.3557 38.9059 74.3557 32.9684 70.7033 29.2966C67.0314 25.6247 61.0939 25.6247 57.4416 29.2966C53.7697 32.9684 53.7697 38.9059 57.4416 42.5583ZM28.0273 79.863C30.0977 79.4919 31.8164 79.0817 32.8906 78.0075C33.457 77.4216 34.4531 77.9099 34.375 78.7106C34.0625 81.3278 32.8906 83.7302 31.0352 85.5856C26.4453 90.195 9.375 90.6247 9.375 90.6247C9.375 90.6247 9.80469 73.5739 14.4141 68.9645C16.25 67.1286 18.6719 65.9372 21.2695 65.6247C21.543 65.5856 21.7969 65.6833 21.9922 65.8786C22.3242 66.2106 22.3047 66.7575 21.9727 67.0895C21.3867 67.6755 20.4297 70.1755 20.1172 71.9528C19.2773 76.6403 23.3789 80.6442 28.0273 79.863Z" fill="url(#paint0_linear_1870_219355)" fill-opacity="0.8" shape-rendering="crispEdges"/>
<path fill-rule="evenodd" clip-rule="evenodd" d="M92.5978 6.7575C92.9299 6.85516 93.2033 7.12859 93.2814 7.48016C96.0353 19.4919 86.133 45.3317 71.7775 59.6091C69.2385 62.1481 66.4846 64.4919 63.5353 66.5622C63.9064 70.9567 63.5744 75.3512 61.9338 79.1208C57.2854 89.7458 45.0588 92.8317 39.8244 93.6716C39.6682 93.7106 39.4924 93.7106 39.3166 93.6911C38.2814 93.5934 37.5197 92.6559 37.6369 91.6208L39.5119 74.5895C38.2228 74.57 36.9533 74.4919 35.6838 74.3552C34.8049 74.277 33.965 73.8669 33.34 73.2419L26.7385 66.6598C26.1135 66.0348 25.7033 65.195 25.6252 64.3161C25.4885 63.0466 25.4103 61.7575 25.3908 60.4684L8.34004 62.3434C8.16426 62.363 7.98847 62.3434 7.81269 62.3239C6.77754 62.1481 6.09394 61.1716 6.26972 60.1559C7.14863 54.9216 10.2346 42.7145 20.8596 38.0466C24.6291 36.4059 29.0432 36.0739 33.4572 36.4645C35.5275 33.5348 37.8518 30.7809 40.4103 28.2419C54.7268 13.9255 81.1525 3.96453 92.5978 6.7575ZM57.4416 42.5583C61.0939 46.2302 67.0314 46.2106 70.6838 42.5583C74.3557 38.9059 74.3557 32.9684 70.7033 29.2966C67.0314 25.6247 61.0939 25.6247 57.4416 29.2966C53.7697 32.9684 53.7697 38.9059 57.4416 42.5583ZM28.0273 79.863C30.0977 79.4919 31.8164 79.0817 32.8906 78.0075C33.457 77.4216 34.4531 77.9099 34.375 78.7106C34.0625 81.3278 32.8906 83.7302 31.0352 85.5856C26.4453 90.195 9.375 90.6247 9.375 90.6247C9.375 90.6247 9.80469 73.5739 14.4141 68.9645C16.25 67.1286 18.6719 65.9372 21.2695 65.6247C21.543 65.5856 21.7969 65.6833 21.9922 65.8786C22.3242 66.2106 22.3047 66.7575 21.9727 67.0895C21.3867 67.6755 20.4297 70.1755 20.1172 71.9528C19.2773 76.6403 23.3789 80.6442 28.0273 79.863Z" fill="#344254" fill-opacity="0.15" shape-rendering="crispEdges"/>
<path d="M93.2814 7.48016L91.9798 7.7694L91.9818 7.77812L93.2814 7.48016ZM92.5978 6.7575L92.9741 5.47835L92.9442 5.46956L92.9139 5.46218L92.5978 6.7575ZM71.7775 59.6091L70.8373 58.6637L70.8347 58.6663L71.7775 59.6091ZM63.5353 66.5622L62.7693 65.4709L62.1423 65.911L62.2067 66.6744L63.5353 66.5622ZM61.9338 79.1208L63.1553 79.6552L63.1563 79.6529L61.9338 79.1208ZM39.8244 93.6716L39.6132 92.3551L39.5566 92.3641L39.501 92.378L39.8244 93.6716ZM39.3166 93.6911L39.4638 92.3659L39.4528 92.3647L39.4418 92.3637L39.3166 93.6911ZM37.6369 91.6208L38.9618 91.7708L38.9622 91.7667L37.6369 91.6208ZM39.5119 74.5895L40.8372 74.7354L40.9976 73.2786L39.5321 73.2563L39.5119 74.5895ZM35.6838 74.3552L35.8266 73.0295L35.8142 73.0282L35.8018 73.0271L35.6838 74.3552ZM33.34 73.2419L34.2828 72.2991L34.2814 72.2977L33.34 73.2419ZM26.7385 66.6598L25.7957 67.6027L25.7971 67.604L26.7385 66.6598ZM25.6252 64.3161L26.9533 64.198L26.9522 64.1857L26.9509 64.1733L25.6252 64.3161ZM25.3908 60.4684L26.724 60.4482L26.7018 58.9829L25.2451 59.1431L25.3908 60.4684ZM8.34004 62.3434L8.19429 61.0181L8.19279 61.0183L8.34004 62.3434ZM7.81269 62.3239L7.58947 63.6384L7.62731 63.6449L7.66545 63.6491L7.81269 62.3239ZM6.26972 60.1559L7.58354 60.3833L7.58465 60.3767L6.26972 60.1559ZM20.8596 38.0466L20.3275 36.824L20.3233 36.8258L20.8596 38.0466ZM33.4572 36.4645L33.3397 37.7927L34.1036 37.8603L34.5461 37.234L33.4572 36.4645ZM40.4103 28.2419L41.3495 29.1883L41.3532 29.1847L40.4103 28.2419ZM70.6838 42.5583L69.7435 41.613L69.741 41.6155L70.6838 42.5583ZM57.4416 42.5583L58.3869 41.618L58.3819 41.613L57.4416 42.5583ZM70.7033 29.2966L71.6486 28.3563L71.6461 28.3538L70.7033 29.2966ZM57.4416 29.2966L58.3844 30.2394L58.3869 30.2369L57.4416 29.2966ZM32.8906 78.0075L33.8334 78.9503L33.8414 78.9423L33.8493 78.9342L32.8906 78.0075ZM28.0273 79.863L28.2483 81.1779L28.2555 81.1767L28.2626 81.1754L28.0273 79.863ZM34.375 78.7106L35.6989 78.8687L35.7006 78.8544L35.702 78.8401L34.375 78.7106ZM31.0352 85.5856L30.0923 84.6428L30.0903 84.6448L31.0352 85.5856ZM9.375 90.6247L8.04209 90.5911L8.00676 91.9929L9.40855 91.9576L9.375 90.6247ZM14.4141 68.9645L13.4713 68.0217H13.4713L14.4141 68.9645ZM21.2695 65.6247L21.4288 66.9485L21.4435 66.9467L21.4581 66.9446L21.2695 65.6247ZM20.1172 71.9528L21.4296 72.188L21.4304 72.1837L20.1172 71.9528ZM94.583 7.19092C94.3935 6.33828 93.7443 5.70489 92.9741 5.47835L92.2216 8.03665C92.1154 8.00543 92.0131 7.91891 91.9799 7.7694L94.583 7.19092ZM72.7178 60.5544C80.0529 53.2593 86.2063 43.0639 90.1823 33.1932C92.173 28.2511 93.6307 23.3591 94.415 18.9168C95.196 14.4935 95.3253 10.4284 94.5811 7.1822L91.9818 7.77812C92.6145 10.5378 92.5387 14.207 91.789 18.4532C91.0426 22.6803 89.6438 27.3928 87.7087 32.1968C83.8331 41.8183 77.8577 51.6815 70.8373 58.6637L72.7178 60.5544ZM64.3014 67.6535C67.3182 65.5357 70.1308 63.1414 72.7203 60.5519L70.8347 58.6663C68.3462 61.1548 65.6509 63.448 62.7693 65.4709L64.3014 67.6535ZM63.1563 79.6529C64.9179 75.6056 65.2452 70.9653 64.864 66.45L62.2067 66.6744C62.5676 70.9481 62.231 75.0969 60.7112 78.5887L63.1563 79.6529ZM40.0356 94.9881C42.73 94.5557 47.2457 93.5437 51.708 91.2516C56.1752 88.9571 60.6702 85.3354 63.1553 79.6552L60.7122 78.5864C58.5489 83.5311 54.6064 86.765 50.4896 88.8796C46.368 90.9967 42.1532 91.9475 39.6132 92.3551L40.0356 94.9881ZM39.1694 95.0163C39.426 95.0448 39.7775 95.0577 40.1478 94.9651L39.501 92.378C39.5188 92.3736 39.5313 92.3717 39.5373 92.371C39.5432 92.3702 39.5443 92.3704 39.5397 92.3705C39.5352 92.3706 39.5265 92.3707 39.5133 92.37C39.5001 92.3694 39.4837 92.3681 39.4638 92.3659L39.1694 95.0163ZM36.312 91.4708C36.111 93.2469 37.4129 94.8508 39.1914 95.0185L39.4418 92.3637C39.1499 92.3361 38.9285 92.065 38.9618 91.7708L36.312 91.4708ZM38.1866 74.4436L36.3116 91.4749L38.9622 91.7667L40.8372 74.7354L38.1866 74.4436ZM35.541 75.6808C36.8513 75.8219 38.1617 75.9026 39.4917 75.9227L39.5321 73.2563C38.284 73.2374 37.0554 73.1618 35.8266 73.0295L35.541 75.6808ZM32.3972 74.1847C33.2308 75.0183 34.3579 75.5759 35.5657 75.6833L35.8018 73.0271C35.2518 72.9782 34.6992 72.7155 34.2828 72.2991L32.3972 74.1847ZM25.7971 67.604L32.3986 74.1861L34.2814 72.2977L27.6799 65.7156L25.7971 67.604ZM24.2971 64.4341C24.4045 65.6419 24.962 66.769 25.7957 67.6027L27.6813 65.717C27.2649 65.3007 27.0022 64.7481 26.9533 64.198L24.2971 64.4341ZM24.0576 60.4886C24.0778 61.8178 24.1583 63.1478 24.2995 64.4589L26.9509 64.1733C26.8186 62.9453 26.7429 61.6972 26.724 60.4482L24.0576 60.4886ZM8.48578 63.6688L25.5366 61.7938L25.2451 59.1431L8.19429 61.0181L8.48578 63.6688ZM7.66545 63.6491C7.81584 63.6658 8.13966 63.7072 8.48728 63.6686L8.19279 61.0183C8.20062 61.0174 8.19083 61.0193 8.15032 61.017C8.10532 61.0145 8.05406 61.0092 7.95993 60.9987L7.66545 63.6491ZM4.95592 59.9286C4.65405 61.6727 5.82799 63.3393 7.58947 63.6384L8.03591 61.0094C7.72708 60.957 7.53383 60.6704 7.58352 60.3833L4.95592 59.9286ZM20.3233 36.8258C14.6447 39.3207 11.0238 43.8145 8.72453 48.2783C6.42775 52.7373 5.40623 57.2466 4.9548 59.9352L7.58465 60.3767C8.01212 57.8309 8.97302 53.6195 11.0952 49.4994C13.2149 45.3841 16.4495 41.4404 21.3959 39.2673L20.3233 36.8258ZM33.5748 35.1364C29.037 34.7348 24.3759 35.062 20.3275 36.824L21.3917 39.2691C24.8823 37.7499 29.0493 37.413 33.3397 37.7927L33.5748 35.1364ZM39.4712 27.2955C36.857 29.8897 34.4828 32.7029 32.3683 35.695L34.5461 37.234C36.5723 34.3668 38.8465 31.6722 41.3495 29.1883L39.4712 27.2955ZM92.9139 5.46218C89.7954 4.70116 85.7887 4.83063 81.3954 5.61007C76.9783 6.39374 72.0661 7.85348 67.0856 9.8457C57.1391 13.8243 46.7854 19.9812 39.4675 27.2991L41.3532 29.1847C48.3517 22.1862 58.3691 16.2044 68.0759 12.3216C72.9221 10.3832 77.6571 8.98161 81.8612 8.23574C86.0891 7.48564 89.6777 7.41735 92.2818 8.05282L92.9139 5.46218ZM69.741 41.6155C66.6061 44.7503 61.5148 44.7626 58.3869 41.618L56.4963 43.4986C60.6731 47.6977 67.4568 47.6709 71.6266 43.5011L69.741 41.6155ZM69.758 30.2369C72.894 33.3896 72.8903 38.4828 69.7435 41.613L71.6241 43.5036C75.821 39.329 75.8174 32.5473 71.6486 28.3563L69.758 30.2369ZM58.3869 30.2369C61.5166 27.0904 66.6079 27.0868 69.7605 30.2394L71.6461 28.3538C67.4549 24.1626 60.6713 24.1589 56.4963 28.3563L58.3869 30.2369ZM58.3819 41.613C55.2355 38.4833 55.2318 33.3919 58.3844 30.2394L56.4988 28.3538C52.3076 32.5449 52.304 39.3286 56.5013 43.5036L58.3819 41.613ZM31.9478 77.0647C31.2158 77.7967 29.9337 78.1667 27.7921 78.5506L28.2626 81.1754C30.2616 80.8171 32.417 80.3668 33.8334 78.9503L31.9478 77.0647ZM35.702 78.8401C35.8949 76.8629 33.4319 75.5292 31.932 77.0808L33.8493 78.9342C33.7814 79.0045 33.6764 79.0613 33.5578 79.078C33.4501 79.0931 33.3611 79.0716 33.2972 79.0409C33.1747 78.9821 33.0253 78.8135 33.048 78.5812L35.702 78.8401ZM31.978 86.5285C34.0442 84.4622 35.3509 81.7838 35.6989 78.8687L33.0511 78.5526C32.7741 80.8719 31.7371 82.9981 30.0923 84.6428L31.978 86.5285ZM9.375 90.6247C9.40855 91.9576 9.40879 91.9576 9.40909 91.9576C9.40928 91.9576 9.40964 91.9576 9.41002 91.9576C9.41077 91.9576 9.41178 91.9575 9.41304 91.9575C9.41557 91.9574 9.41914 91.9573 9.42372 91.9572C9.43288 91.957 9.44611 91.9566 9.46329 91.9561C9.49766 91.9551 9.54785 91.9535 9.61296 91.9513C9.74318 91.9469 9.93312 91.9399 10.1756 91.9293C10.6603 91.9081 11.3556 91.8728 12.2033 91.8159C13.8969 91.7021 16.2081 91.5016 18.6703 91.1539C21.1264 90.8071 23.7664 90.3093 26.1052 89.5923C28.4002 88.8888 30.5922 87.9202 31.98 86.5264L30.0903 84.6448C29.1832 85.5558 27.5202 86.3694 25.3236 87.0428C23.1709 87.7028 20.6827 88.1767 18.2975 88.5134C15.9183 88.8494 13.6752 89.0443 12.0246 89.1552C11.2003 89.2106 10.526 89.2448 10.0593 89.2652C9.82606 89.2753 9.64477 89.282 9.5227 89.2862C9.46166 89.2882 9.41544 89.2897 9.38493 89.2906C9.36967 89.291 9.35835 89.2913 9.35106 89.2915C9.34742 89.2916 9.34479 89.2917 9.34318 89.2917C9.34238 89.2918 9.34183 89.2918 9.34154 89.2918C9.3414 89.2918 9.34137 89.2918 9.3413 89.2918C9.34134 89.2918 9.34145 89.2918 9.375 90.6247ZM13.4713 68.0217C12.0793 69.4137 11.111 71.6066 10.4073 73.9029C9.69037 76.2424 9.1926 78.8818 8.84579 81.3366C8.49813 83.7976 8.29758 86.107 8.18383 87.7991C8.12689 88.646 8.09155 89.3406 8.0704 89.8249C8.05983 90.0671 8.05279 90.2568 8.04838 90.3869C8.04618 90.4519 8.04463 90.5021 8.04362 90.5364C8.04311 90.5536 8.04274 90.5668 8.04249 90.576C8.04237 90.5805 8.04227 90.5841 8.04221 90.5866C8.04217 90.5879 8.04215 90.5889 8.04213 90.5896C8.04212 90.59 8.04211 90.5904 8.0421 90.5906C8.0421 90.5909 8.04209 90.5911 9.375 90.6247C10.7079 90.6583 10.7079 90.6584 10.7079 90.6584C10.7079 90.6584 10.7079 90.6583 10.7079 90.6582C10.7079 90.6579 10.7079 90.6574 10.708 90.6566C10.708 90.655 10.7081 90.6523 10.7082 90.6487C10.7084 90.6414 10.7087 90.6301 10.7091 90.6149C10.71 90.5844 10.7115 90.5382 10.7135 90.4773C10.7177 90.3553 10.7244 90.1742 10.7345 89.9412C10.7549 89.475 10.7891 88.8015 10.8445 87.9779C10.9553 86.3289 11.1503 84.0876 11.4862 81.7096C11.823 79.3257 12.2969 76.838 12.957 74.6842C13.6302 72.487 14.4442 70.82 15.3569 69.9074L13.4713 68.0217ZM21.1103 64.3009C18.2128 64.6495 15.516 65.977 13.4713 68.0217L15.3569 69.9074C16.984 68.2802 19.1309 67.2249 21.4288 66.9485L21.1103 64.3009ZM22.935 64.9358C22.4772 64.478 21.8156 64.1998 21.081 64.3048L21.4581 66.9446C21.3782 66.9561 21.2903 66.9477 21.2085 66.9183C21.1296 66.8899 21.0777 66.8497 21.0494 66.8214L22.935 64.9358ZM22.9155 68.0324C23.7283 67.2196 23.8268 65.8276 22.935 64.9358L21.0494 66.8214C20.8217 66.5937 20.8811 66.2955 21.0298 66.1467L22.9155 68.0324ZM21.4304 72.1837C21.5684 71.3988 21.8583 70.4131 22.1879 69.5502C22.3515 69.1218 22.5166 68.7458 22.6655 68.456C22.8326 68.1307 22.9247 68.0231 22.9155 68.0324L21.0298 66.1467C20.7277 66.4489 20.4804 66.8735 20.2935 67.2374C20.0884 67.6367 19.8848 68.1066 19.6968 68.5986C19.3233 69.5765 18.9785 70.7295 18.804 71.7219L21.4304 72.1837ZM27.8064 78.5481C24.0387 79.1813 20.7576 75.9388 21.4296 72.188L18.8048 71.7177C17.7971 77.3419 22.7191 82.1071 28.2483 81.1779L27.8064 78.5481Z" fill="url(#paint1_radial_1870_219355)" fill-opacity="0.6" mask="url(#path-1-inside-1_1870_219355)"/>
<path d="M93.2814 7.48016L91.9798 7.7694L91.9818 7.77812L93.2814 7.48016ZM92.5978 6.7575L92.9741 5.47835L92.9442 5.46956L92.9139 5.46218L92.5978 6.7575ZM71.7775 59.6091L70.8373 58.6637L70.8347 58.6663L71.7775 59.6091ZM63.5353 66.5622L62.7693 65.4709L62.1423 65.911L62.2067 66.6744L63.5353 66.5622ZM61.9338 79.1208L63.1553 79.6552L63.1563 79.6529L61.9338 79.1208ZM39.8244 93.6716L39.6132 92.3551L39.5566 92.3641L39.501 92.378L39.8244 93.6716ZM39.3166 93.6911L39.4638 92.3659L39.4528 92.3647L39.4418 92.3637L39.3166 93.6911ZM37.6369 91.6208L38.9618 91.7708L38.9622 91.7667L37.6369 91.6208ZM39.5119 74.5895L40.8372 74.7354L40.9976 73.2786L39.5321 73.2563L39.5119 74.5895ZM35.6838 74.3552L35.8266 73.0295L35.8142 73.0282L35.8018 73.0271L35.6838 74.3552ZM33.34 73.2419L34.2828 72.2991L34.2814 72.2977L33.34 73.2419ZM26.7385 66.6598L25.7957 67.6027L25.7971 67.604L26.7385 66.6598ZM25.6252 64.3161L26.9533 64.198L26.9522 64.1857L26.9509 64.1733L25.6252 64.3161ZM25.3908 60.4684L26.724 60.4482L26.7018 58.9829L25.2451 59.1431L25.3908 60.4684ZM8.34004 62.3434L8.19429 61.0181L8.19279 61.0183L8.34004 62.3434ZM7.81269 62.3239L7.58947 63.6384L7.62731 63.6449L7.66545 63.6491L7.81269 62.3239ZM6.26972 60.1559L7.58354 60.3833L7.58465 60.3767L6.26972 60.1559ZM20.8596 38.0466L20.3275 36.824L20.3233 36.8258L20.8596 38.0466ZM33.4572 36.4645L33.3397 37.7927L34.1036 37.8603L34.5461 37.234L33.4572 36.4645ZM40.4103 28.2419L41.3495 29.1883L41.3532 29.1847L40.4103 28.2419ZM70.6838 42.5583L69.7435 41.613L69.741 41.6155L70.6838 42.5583ZM57.4416 42.5583L58.3869 41.618L58.3819 41.613L57.4416 42.5583ZM70.7033 29.2966L71.6486 28.3563L71.6461 28.3538L70.7033 29.2966ZM57.4416 29.2966L58.3844 30.2394L58.3869 30.2369L57.4416 29.2966ZM32.8906 78.0075L33.8334 78.9503L33.8414 78.9423L33.8493 78.9342L32.8906 78.0075ZM28.0273 79.863L28.2483 81.1779L28.2555 81.1767L28.2626 81.1754L28.0273 79.863ZM34.375 78.7106L35.6989 78.8687L35.7006 78.8544L35.702 78.8401L34.375 78.7106ZM31.0352 85.5856L30.0923 84.6428L30.0903 84.6448L31.0352 85.5856ZM9.375 90.6247L8.04209 90.5911L8.00676 91.9929L9.40855 91.9576L9.375 90.6247ZM14.4141 68.9645L13.4713 68.0217H13.4713L14.4141 68.9645ZM21.2695 65.6247L21.4288 66.9485L21.4435 66.9467L21.4581 66.9446L21.2695 65.6247ZM20.1172 71.9528L21.4296 72.188L21.4304 72.1837L20.1172 71.9528ZM94.583 7.19092C94.3935 6.33828 93.7443 5.70489 92.9741 5.47835L92.2216 8.03665C92.1154 8.00543 92.0131 7.91891 91.9799 7.7694L94.583 7.19092ZM72.7178 60.5544C80.0529 53.2593 86.2063 43.0639 90.1823 33.1932C92.173 28.2511 93.6307 23.3591 94.415 18.9168C95.196 14.4935 95.3253 10.4284 94.5811 7.1822L91.9818 7.77812C92.6145 10.5378 92.5387 14.207 91.789 18.4532C91.0426 22.6803 89.6438 27.3928 87.7087 32.1968C83.8331 41.8183 77.8577 51.6815 70.8373 58.6637L72.7178 60.5544ZM64.3014 67.6535C67.3182 65.5357 70.1308 63.1414 72.7203 60.5519L70.8347 58.6663C68.3462 61.1548 65.6509 63.448 62.7693 65.4709L64.3014 67.6535ZM63.1563 79.6529C64.9179 75.6056 65.2452 70.9653 64.864 66.45L62.2067 66.6744C62.5676 70.9481 62.231 75.0969 60.7112 78.5887L63.1563 79.6529ZM40.0356 94.9881C42.73 94.5557 47.2457 93.5437 51.708 91.2516C56.1752 88.9571 60.6702 85.3354 63.1553 79.6552L60.7122 78.5864C58.5489 83.5311 54.6064 86.765 50.4896 88.8796C46.368 90.9967 42.1532 91.9475 39.6132 92.3551L40.0356 94.9881ZM39.1694 95.0163C39.426 95.0448 39.7775 95.0577 40.1478 94.9651L39.501 92.378C39.5188 92.3736 39.5313 92.3717 39.5373 92.371C39.5432 92.3702 39.5443 92.3704 39.5397 92.3705C39.5352 92.3706 39.5265 92.3707 39.5133 92.37C39.5001 92.3694 39.4837 92.3681 39.4638 92.3659L39.1694 95.0163ZM36.312 91.4708C36.111 93.2469 37.4129 94.8508 39.1914 95.0185L39.4418 92.3637C39.1499 92.3361 38.9285 92.065 38.9618 91.7708L36.312 91.4708ZM38.1866 74.4436L36.3116 91.4749L38.9622 91.7667L40.8372 74.7354L38.1866 74.4436ZM35.541 75.6808C36.8513 75.8219 38.1617 75.9026 39.4917 75.9227L39.5321 73.2563C38.284 73.2374 37.0554 73.1618 35.8266 73.0295L35.541 75.6808ZM32.3972 74.1847C33.2308 75.0183 34.3579 75.5759 35.5657 75.6833L35.8018 73.0271C35.2518 72.9782 34.6992 72.7155 34.2828 72.2991L32.3972 74.1847ZM25.7971 67.604L32.3986 74.1861L34.2814 72.2977L27.6799 65.7156L25.7971 67.604ZM24.2971 64.4341C24.4045 65.6419 24.962 66.769 25.7957 67.6027L27.6813 65.717C27.2649 65.3007 27.0022 64.7481 26.9533 64.198L24.2971 64.4341ZM24.0576 60.4886C24.0778 61.8178 24.1583 63.1478 24.2995 64.4589L26.9509 64.1733C26.8186 62.9453 26.7429 61.6972 26.724 60.4482L24.0576 60.4886ZM8.48578 63.6688L25.5366 61.7938L25.2451 59.1431L8.19429 61.0181L8.48578 63.6688ZM7.66545 63.6491C7.81584 63.6658 8.13966 63.7072 8.48728 63.6686L8.19279 61.0183C8.20062 61.0174 8.19083 61.0193 8.15032 61.017C8.10532 61.0145 8.05406 61.0092 7.95993 60.9987L7.66545 63.6491ZM4.95592 59.9286C4.65405 61.6727 5.82799 63.3393 7.58947 63.6384L8.03591 61.0094C7.72708 60.957 7.53383 60.6704 7.58352 60.3833L4.95592 59.9286ZM20.3233 36.8258C14.6447 39.3207 11.0238 43.8145 8.72453 48.2783C6.42775 52.7373 5.40623 57.2466 4.9548 59.9352L7.58465 60.3767C8.01212 57.8309 8.97302 53.6195 11.0952 49.4994C13.2149 45.3841 16.4495 41.4404 21.3959 39.2673L20.3233 36.8258ZM33.5748 35.1364C29.037 34.7348 24.3759 35.062 20.3275 36.824L21.3917 39.2691C24.8823 37.7499 29.0493 37.413 33.3397 37.7927L33.5748 35.1364ZM39.4712 27.2955C36.857 29.8897 34.4828 32.7029 32.3683 35.695L34.5461 37.234C36.5723 34.3668 38.8465 31.6722 41.3495 29.1883L39.4712 27.2955ZM92.9139 5.46218C89.7954 4.70116 85.7887 4.83063 81.3954 5.61007C76.9783 6.39374 72.0661 7.85348 67.0856 9.8457C57.1391 13.8243 46.7854 19.9812 39.4675 27.2991L41.3532 29.1847C48.3517 22.1862 58.3691 16.2044 68.0759 12.3216C72.9221 10.3832 77.6571 8.98161 81.8612 8.23574C86.0891 7.48564 89.6777 7.41735 92.2818 8.05282L92.9139 5.46218ZM69.741 41.6155C66.6061 44.7503 61.5148 44.7626 58.3869 41.618L56.4963 43.4986C60.6731 47.6977 67.4568 47.6709 71.6266 43.5011L69.741 41.6155ZM69.758 30.2369C72.894 33.3896 72.8903 38.4828 69.7435 41.613L71.6241 43.5036C75.821 39.329 75.8174 32.5473 71.6486 28.3563L69.758 30.2369ZM58.3869 30.2369C61.5166 27.0904 66.6079 27.0868 69.7605 30.2394L71.6461 28.3538C67.4549 24.1626 60.6713 24.1589 56.4963 28.3563L58.3869 30.2369ZM58.3819 41.613C55.2355 38.4833 55.2318 33.3919 58.3844 30.2394L56.4988 28.3538C52.3076 32.5449 52.304 39.3286 56.5013 43.5036L58.3819 41.613ZM31.9478 77.0647C31.2158 77.7967 29.9337 78.1667 27.7921 78.5506L28.2626 81.1754C30.2616 80.8171 32.417 80.3668 33.8334 78.9503L31.9478 77.0647ZM35.702 78.8401C35.8949 76.8629 33.4319 75.5292 31.932 77.0808L33.8493 78.9342C33.7814 79.0045 33.6764 79.0613 33.5578 79.078C33.4501 79.0931 33.3611 79.0716 33.2972 79.0409C33.1747 78.9821 33.0253 78.8135 33.048 78.5812L35.702 78.8401ZM31.978 86.5285C34.0442 84.4622 35.3509 81.7838 35.6989 78.8687L33.0511 78.5526C32.7741 80.8719 31.7371 82.9981 30.0923 84.6428L31.978 86.5285ZM9.375 90.6247C9.40855 91.9576 9.40879 91.9576 9.40909 91.9576C9.40928 91.9576 9.40964 91.9576 9.41002 91.9576C9.41077 91.9576 9.41178 91.9575 9.41304 91.9575C9.41557 91.9574 9.41914 91.9573 9.42372 91.9572C9.43288 91.957 9.44611 91.9566 9.46329 91.9561C9.49766 91.9551 9.54785 91.9535 9.61296 91.9513C9.74318 91.9469 9.93312 91.9399 10.1756 91.9293C10.6603 91.9081 11.3556 91.8728 12.2033 91.8159C13.8969 91.7021 16.2081 91.5016 18.6703 91.1539C21.1264 90.8071 23.7664 90.3093 26.1052 89.5923C28.4002 88.8888 30.5922 87.9202 31.98 86.5264L30.0903 84.6448C29.1832 85.5558 27.5202 86.3694 25.3236 87.0428C23.1709 87.7028 20.6827 88.1767 18.2975 88.5134C15.9183 88.8494 13.6752 89.0443 12.0246 89.1552C11.2003 89.2106 10.526 89.2448 10.0593 89.2652C9.82606 89.2753 9.64477 89.282 9.5227 89.2862C9.46166 89.2882 9.41544 89.2897 9.38493 89.2906C9.36967 89.291 9.35835 89.2913 9.35106 89.2915C9.34742 89.2916 9.34479 89.2917 9.34318 89.2917C9.34238 89.2918 9.34183 89.2918 9.34154 89.2918C9.3414 89.2918 9.34137 89.2918 9.3413 89.2918C9.34134 89.2918 9.34145 89.2918 9.375 90.6247ZM13.4713 68.0217C12.0793 69.4137 11.111 71.6066 10.4073 73.9029C9.69037 76.2424 9.1926 78.8818 8.84579 81.3366C8.49813 83.7976 8.29758 86.107 8.18383 87.7991C8.12689 88.646 8.09155 89.3406 8.0704 89.8249C8.05983 90.0671 8.05279 90.2568 8.04838 90.3869C8.04618 90.4519 8.04463 90.5021 8.04362 90.5364C8.04311 90.5536 8.04274 90.5668 8.04249 90.576C8.04237 90.5805 8.04227 90.5841 8.04221 90.5866C8.04217 90.5879 8.04215 90.5889 8.04213 90.5896C8.04212 90.59 8.04211 90.5904 8.0421 90.5906C8.0421 90.5909 8.04209 90.5911 9.375 90.6247C10.7079 90.6583 10.7079 90.6584 10.7079 90.6584C10.7079 90.6584 10.7079 90.6583 10.7079 90.6582C10.7079 90.6579 10.7079 90.6574 10.708 90.6566C10.708 90.655 10.7081 90.6523 10.7082 90.6487C10.7084 90.6414 10.7087 90.6301 10.7091 90.6149C10.71 90.5844 10.7115 90.5382 10.7135 90.4773C10.7177 90.3553 10.7244 90.1742 10.7345 89.9412C10.7549 89.475 10.7891 88.8015 10.8445 87.9779C10.9553 86.3289 11.1503 84.0876 11.4862 81.7096C11.823 79.3257 12.2969 76.838 12.957 74.6842C13.6302 72.487 14.4442 70.82 15.3569 69.9074L13.4713 68.0217ZM21.1103 64.3009C18.2128 64.6495 15.516 65.977 13.4713 68.0217L15.3569 69.9074C16.984 68.2802 19.1309 67.2249 21.4288 66.9485L21.1103 64.3009ZM22.935 64.9358C22.4772 64.478 21.8156 64.1998 21.081 64.3048L21.4581 66.9446C21.3782 66.9561 21.2903 66.9477 21.2085 66.9183C21.1296 66.8899 21.0777 66.8497 21.0494 66.8214L22.935 64.9358ZM22.9155 68.0324C23.7283 67.2196 23.8268 65.8276 22.935 64.9358L21.0494 66.8214C20.8217 66.5937 20.8811 66.2955 21.0298 66.1467L22.9155 68.0324ZM21.4304 72.1837C21.5684 71.3988 21.8583 70.4131 22.1879 69.5502C22.3515 69.1218 22.5166 68.7458 22.6655 68.456C22.8326 68.1307 22.9247 68.0231 22.9155 68.0324L21.0298 66.1467C20.7277 66.4489 20.4804 66.8735 20.2935 67.2374C20.0884 67.6367 19.8848 68.1066 19.6968 68.5986C19.3233 69.5765 18.9785 70.7295 18.804 71.7219L21.4304 72.1837ZM27.8064 78.5481C24.0387 79.1813 20.7576 75.9388 21.4296 72.188L18.8048 71.7177C17.7971 77.3419 22.7191 82.1071 28.2483 81.1779L27.8064 78.5481Z" fill="url(#paint2_radial_1870_219355)" fill-opacity="0.3" mask="url(#path-1-inside-1_1870_219355)"/>
</g>
<defs>
<filter id="filter0_bd_1870_219355" x="-660.424" y="-660.38" width="1420.83" height="1420.75" filterUnits="userSpaceOnUse" color-interpolation-filters="sRGB">
<feFlood flood-opacity="0" result="BackgroundImageFix"/>
<feGaussianBlur in="BackgroundImageFix" stdDeviation="333.333"/>
<feComposite in2="SourceAlpha" operator="in" result="effect1_backgroundBlur_1870_219355"/>
<feColorMatrix in="SourceAlpha" type="matrix" values="0 0 0 0 0 0 0 0 0 0 0 0 0 0 0 0 0 0 127 0" result="hardAlpha"/>
<feOffset dy="2.66667"/>
<feGaussianBlur stdDeviation="1.33333"/>
<feComposite in2="hardAlpha" operator="out"/>
<feColorMatrix type="matrix" values="0 0 0 0 0 0 0 0 0 0 0 0 0 0 0 0 0 0 0.25 0"/>
<feBlend mode="normal" in2="effect1_backgroundBlur_1870_219355" result="effect2_dropShadow_1870_219355"/>
<feBlend mode="normal" in="SourceGraphic" in2="effect2_dropShadow_1870_219355" result="shape"/>
</filter>
<linearGradient id="paint0_linear_1870_219355" x1="9.85262" y1="8.53876" x2="51.0142" y2="114.332" gradientUnits="userSpaceOnUse">
<stop stop-color="white" stop-opacity="0.6"/>
<stop offset="1" stop-color="white" stop-opacity="0"/>
</linearGradient>
<radialGradient id="paint1_radial_1870_219355" cx="0" cy="0" r="1" gradientUnits="userSpaceOnUse" gradientTransform="translate(49.9921 7.08181) rotate(90) scale(75.8937 75.9658)">
<stop stop-color="white"/>
<stop offset="1" stop-color="white" stop-opacity="0"/>
</radialGradient>
<radialGradient id="paint2_radial_1870_219355" cx="0" cy="0" r="1" gradientUnits="userSpaceOnUse" gradientTransform="translate(49.9921 93.7039) rotate(-90) scale(43.7084 43.7499)">
<stop stop-color="white"/>
<stop offset="1" stop-color="white" stop-opacity="0"/>
</radialGradient>
</defs>
</svg>
