<svg width="100" height="101" viewBox="0 0 150 151" fill="none" xmlns="http://www.w3.org/2000/svg">
<path d="M149.58 75.4131C149.58 116.718 116.095 150.203 74.7898 150.203C33.4845 150.203 0 116.718 0 75.4131C0 34.1077 33.4845 0.623047 74.7898 0.623047C116.095 0.623047 149.58 34.1077 149.58 75.4131ZM22.4369 75.4131C22.4369 104.327 45.8761 127.766 74.7898 127.766C103.703 127.766 127.143 104.327 127.143 75.4131C127.143 46.4993 103.703 23.0601 74.7898 23.0601C45.8761 23.0601 22.4369 46.4993 22.4369 75.4131Z" fill="white"/>
<path d="M53.0522 129.846L51.2695 140.268L50.1322 139.737L51.7109 131.308L51.6207 131.266L46.1425 137.877L44.8788 137.288L46.4214 128.842L46.3312 128.8L40.8891 135.427L39.7518 134.897L46.5893 126.832L47.7447 127.371L46.35 135.688L46.4223 135.721L51.8969 129.307L53.0522 129.846Z" fill="black"/>
<path d="M40.1285 122.295C40.5156 122.587 40.812 122.925 41.0176 123.308C41.2212 123.695 41.311 124.097 41.2868 124.515C41.2606 124.936 41.0976 125.345 40.7979 125.743C40.5342 126.093 40.2515 126.325 39.9498 126.438C39.6461 126.554 39.332 126.588 39.0074 126.539C38.6828 126.489 38.3584 126.39 38.034 126.242C37.705 126.093 37.3847 125.931 37.073 125.754C36.6659 125.522 36.338 125.331 36.0893 125.182C35.836 125.032 35.6334 124.948 35.4814 124.929C35.3267 124.908 35.1924 124.973 35.0786 125.124L35.0546 125.156C34.7589 125.549 34.6365 125.934 34.6874 126.314C34.7357 126.691 34.9759 127.042 35.4081 127.368C35.8562 127.706 36.2814 127.872 36.6838 127.868C37.0862 127.864 37.423 127.789 37.6942 127.644L38.3453 128.634C37.9065 128.885 37.4766 129.014 37.0557 129.021C36.63 129.029 36.2285 128.955 35.851 128.799C35.4689 128.644 35.1241 128.451 34.8166 128.219C34.6204 128.071 34.413 127.878 34.1944 127.638C33.9712 127.399 33.7942 127.118 33.6635 126.795C33.5301 126.47 33.4928 126.104 33.5514 125.695C33.6101 125.286 33.8223 124.839 34.1879 124.354L37.2208 120.329L38.1594 121.036L37.536 121.863L37.5837 121.899C37.7473 121.815 37.9602 121.753 38.2226 121.713C38.4849 121.674 38.7794 121.694 39.1059 121.774C39.4324 121.854 39.7732 122.028 40.1285 122.295ZM39.35 123.031C38.9788 122.751 38.611 122.588 38.2466 122.542C37.8795 122.494 37.5441 122.537 37.2404 122.669C36.934 122.8 36.6849 122.993 36.4931 123.247L35.8458 124.106C35.9215 124.089 36.042 124.111 36.2071 124.173C36.3677 124.236 36.5464 124.318 36.7434 124.421C36.9357 124.524 37.1221 124.627 37.3024 124.73C37.4782 124.833 37.6214 124.916 37.7321 124.979C38 125.131 38.267 125.251 38.5331 125.339C38.7945 125.428 39.0431 125.451 39.2789 125.409C39.51 125.367 39.7155 125.227 39.8953 124.988C40.1411 124.662 40.2062 124.324 40.0908 123.976C39.9708 123.627 39.7238 123.312 39.35 123.031Z" fill="black"/>
<path d="M23.4466 117.099L24.1982 116.446L26.7988 119.437L26.0471 120.091L23.4466 117.099ZM23.9061 120.421L23.1351 119.534L28.6372 114.751C28.8878 114.533 29.0441 114.334 29.1062 114.152C29.1637 113.97 29.1636 113.803 29.106 113.651C29.0437 113.498 28.9559 113.357 28.8427 113.226C28.7577 113.129 28.683 113.053 28.6186 112.999C28.5516 112.947 28.498 112.906 28.4578 112.875L29.0978 112.002C29.1726 112.042 29.2681 112.107 29.3843 112.195C29.503 112.281 29.6342 112.406 29.778 112.572C29.9958 112.822 30.1554 113.115 30.2567 113.449C30.3559 113.781 30.3638 114.121 30.2806 114.471C30.1951 114.818 29.9845 115.137 29.6488 115.429L23.9061 120.421Z" fill="black"/>
<path d="M23.6267 103.289C23.9744 103.916 24.1257 104.538 24.0806 105.156C24.0355 105.773 23.8207 106.347 23.4361 106.879C23.0516 107.411 22.5254 107.862 21.8575 108.233C21.1781 108.609 20.5093 108.817 19.8511 108.855C19.1885 108.892 18.5857 108.767 18.043 108.479C17.4958 108.191 17.0547 107.744 16.72 107.14C16.4592 106.67 16.3113 106.198 16.2763 105.724C16.2413 105.25 16.3138 104.805 16.4938 104.39C16.6738 103.976 16.9568 103.623 17.3427 103.333L17.9125 104.361C17.651 104.609 17.4776 104.933 17.3921 105.333C17.302 105.732 17.3826 106.158 17.6337 106.611C17.8558 107.012 18.155 107.305 18.5315 107.491C18.9034 107.676 19.3248 107.748 19.7956 107.707C20.2619 107.665 20.7477 107.504 21.2529 107.224C21.7698 106.937 22.1748 106.607 22.4679 106.232C22.7595 105.854 22.9283 105.456 22.9745 105.04C23.0191 104.62 22.9287 104.207 22.7034 103.801C22.5553 103.534 22.3744 103.317 22.1608 103.151C21.9472 102.985 21.7114 102.874 21.4535 102.82C21.1956 102.765 20.927 102.774 20.6477 102.845L20.0779 101.817C20.505 101.656 20.9404 101.603 21.384 101.657C21.8231 101.71 22.2394 101.872 22.6329 102.143C23.0218 102.414 23.3531 102.795 23.6267 103.289Z" fill="black"/>
<path d="M15.0677 95.5717L19.468 94.2264L19.8116 95.3502L10.0586 98.332L9.71499 97.2082L13.2962 96.1133L13.267 96.018C12.8368 95.9621 12.4582 95.7967 12.1311 95.5217C11.7999 95.2446 11.5465 94.8187 11.3708 94.2441C11.2184 93.7456 11.1849 93.2785 11.2704 92.8427C11.3527 92.4079 11.5671 92.0247 11.9136 91.6932C12.2559 91.3594 12.7413 91.0964 13.3699 90.9042L18.0179 89.4832L18.3615 90.6071L13.7897 92.0048C13.2088 92.1824 12.8056 92.4706 12.5804 92.8692C12.3509 93.2657 12.3173 93.729 12.4794 94.2592C12.592 94.6275 12.7707 94.9339 13.0156 95.1784C13.2595 95.4198 13.5563 95.579 13.9062 95.656C14.2551 95.7298 14.6423 95.7017 15.0677 95.5717Z" fill="black"/>
<path d="M6.37263 69.7676L15.2628 67.8088L15.2774 67.6901L7.12517 63.6387L7.28296 62.3536L16.9492 67.3134L16.7938 68.5787L6.21484 71.0527L6.37263 69.7676Z" fill="black"/>
<path d="M19.4362 56.7665L12.204 54.2762L12.5866 53.165L19.8188 55.6553L19.4362 56.7665ZM11.1932 53.2961C11.1186 53.5127 10.9805 53.6741 10.7789 53.7802C10.5784 53.8833 10.3746 53.8991 10.1674 53.8278C9.96025 53.7564 9.80937 53.6185 9.7148 53.4138C9.62131 53.2061 9.61186 52.9939 9.68643 52.7773C9.76101 52.5607 9.89855 52.4009 10.099 52.2979C10.3006 52.1918 10.505 52.1744 10.7122 52.2457C10.9193 52.317 11.0697 52.4566 11.1632 52.6643C11.2577 52.8689 11.2677 53.0795 11.1932 53.2961Z" fill="black"/>
<path d="M24.9297 45.2607C24.6014 45.807 24.1735 46.2065 23.6461 46.4589C23.1159 46.7097 22.5266 46.801 21.8781 46.7328C21.2268 46.6629 20.554 46.4194 19.8597 46.0022C19.171 45.5884 18.6444 45.1112 18.2798 44.5707C17.9152 44.0301 17.7214 43.4663 17.6984 42.8793C17.6754 42.2923 17.8298 41.7228 18.1615 41.1707C18.418 40.7439 18.6917 40.4494 18.9828 40.2873C19.2727 40.1207 19.5466 40.0258 19.8045 40.0026C20.0613 39.9748 20.2689 39.9582 20.4272 39.9526L20.4785 39.8672L17.2515 37.9282L17.8567 36.9209L26.5987 42.1736L26.0139 43.1468L25.0065 42.5415L24.9347 42.661C25.0098 42.8068 25.0973 43.0027 25.1974 43.2487C25.2946 43.4931 25.3382 43.7846 25.3284 44.1234C25.3156 44.4604 25.1827 44.8395 24.9297 45.2607ZM24.1068 44.5803C24.3496 44.1763 24.4495 43.7715 24.4065 43.3661C24.3606 42.959 24.1935 42.57 23.905 42.1992C23.6138 41.8266 23.2206 41.4916 22.7254 41.1941C22.236 40.9 21.7649 40.7138 21.3124 40.6355C20.8569 40.5555 20.443 40.5934 20.0705 40.7492C19.6952 40.9032 19.3845 41.1851 19.1383 41.5949C18.8818 42.0218 18.7776 42.4433 18.8257 42.8595C18.8727 43.2712 19.0399 43.6602 19.3272 44.0265C19.6133 44.3882 19.9869 44.7075 20.4479 44.9845C20.9146 45.265 21.3813 45.4486 21.8482 45.5354C22.3138 45.6177 22.7437 45.5855 23.1378 45.4389C23.5307 45.2877 23.8537 45.0015 24.1068 44.5803Z" fill="black"/>
<path d="M32.4847 35.3031C31.9821 35.8421 31.4295 36.1961 30.827 36.3652C30.2244 36.5295 29.6097 36.5169 28.983 36.3274C28.3561 36.1332 27.7561 35.7689 27.1831 35.2346C26.6101 34.7002 26.2025 34.1249 25.9601 33.5085C25.7176 32.8875 25.6493 32.2744 25.755 31.6694C25.8605 31.0597 26.1488 30.5023 26.6197 29.9973C26.8914 29.706 27.2083 29.4635 27.5703 29.27C27.9323 29.0765 28.3313 28.9651 28.7671 28.9358C29.2006 28.9042 29.6603 28.9856 30.1463 29.1801C30.6322 29.3745 31.1362 29.7151 31.6583 30.2019L32.0225 30.5415L28.0013 34.8536L27.2584 34.1608L30.4644 30.7228C30.1488 30.4284 29.8082 30.2289 29.4429 30.1242C29.0797 30.0171 28.719 30.0121 28.3606 30.1092C28.0046 30.2038 27.6816 30.4065 27.3918 30.7173C27.0726 31.0597 26.8813 31.4351 26.8181 31.8437C26.7547 32.2476 26.7954 32.6419 26.9404 33.0268C27.0854 33.4117 27.3121 33.7479 27.6204 34.0354L28.1157 34.4973C28.5382 34.8913 28.9643 35.1524 29.3939 35.2807C29.8234 35.4043 30.2368 35.4063 30.6343 35.2867C31.0294 35.1648 31.3888 34.9303 31.7126 34.5831C31.9232 34.3573 32.0818 34.1239 32.1885 33.8829C32.295 33.6373 32.3462 33.3877 32.342 33.1341C32.3354 32.8783 32.269 32.6235 32.1427 32.3695L33.1501 31.7565C33.3502 32.1065 33.4609 32.4844 33.4821 32.89C33.5009 33.2933 33.4283 33.7022 33.2642 34.1167C33.0977 34.5289 32.8379 34.9243 32.4847 35.3031Z" fill="black"/>
<path d="M41.5898 27.4566C41.0241 27.8527 40.4335 28.0656 39.8181 28.0953C39.2053 28.1231 38.6098 27.9788 38.0316 27.6623C37.456 27.3439 36.9416 26.8611 36.4884 26.2139C36.0314 25.5612 35.7508 24.9086 35.6466 24.2562C35.545 23.6018 35.6121 22.9915 35.8478 22.4252C36.0863 21.857 36.4883 21.3749 37.054 20.9788C37.6196 20.5827 38.2088 20.3708 38.8216 20.343C39.437 20.3132 40.0335 20.4589 40.611 20.78C41.1911 21.0993 41.7097 21.5852 42.1667 22.2379C42.6199 22.8851 42.8963 23.5346 42.996 24.1862C43.0983 24.8359 43.0303 25.4449 42.7918 26.0131C42.5561 26.5794 42.1554 27.0605 41.5898 27.4566ZM40.9842 26.5918C41.4139 26.2909 41.6903 25.9333 41.8135 25.5188C41.9366 25.1043 41.9391 24.6709 41.821 24.2186C41.7029 23.7663 41.4973 23.3308 41.204 22.912C40.9108 22.4932 40.5709 22.1496 40.1844 21.8812C39.7979 21.6128 39.3878 21.4642 38.9543 21.4355C38.5208 21.4067 38.0892 21.5427 37.6595 21.8436C37.2298 22.1445 36.9544 22.5035 36.8331 22.9207C36.7119 23.338 36.7113 23.7741 36.8313 24.2291C36.9513 24.6841 37.1579 25.121 37.4511 25.5398C37.7444 25.9586 38.0833 26.3008 38.4679 26.5665C38.8525 26.8321 39.2606 26.978 39.6923 27.004C40.1239 27.0301 40.5545 26.8927 40.9842 26.5918Z" fill="black"/>
<path d="M96.9517 20.9802L98.7344 10.5586L99.8717 11.0889L98.293 19.5178L98.3832 19.5599L103.861 12.9494L105.125 13.5386L103.582 21.9843L103.673 22.0264L109.115 15.3991L110.252 15.9294L103.415 23.994L102.259 23.4552L103.654 15.1384L103.582 15.1047L98.1071 21.519L96.9517 20.9802Z" fill="black"/>
<path d="M109.875 28.5308C109.488 28.2391 109.192 27.9014 108.986 27.5178C108.783 27.1316 108.693 26.7294 108.717 26.3111C108.743 25.8902 108.906 25.4809 109.206 25.0832C109.47 24.7332 109.752 24.5015 110.054 24.388C110.358 24.2718 110.672 24.2383 110.997 24.2875C111.321 24.3367 111.646 24.4357 111.97 24.5845C112.299 24.7327 112.619 24.8951 112.931 25.0717C113.338 25.3037 113.666 25.4947 113.915 25.6447C114.168 25.794 114.371 25.8781 114.523 25.897C114.677 25.918 114.811 25.8529 114.925 25.7017L114.949 25.6699C115.245 25.2775 115.367 24.8917 115.316 24.5124C115.268 24.1352 115.028 23.7837 114.596 23.4581C114.148 23.1204 113.722 22.9538 113.32 22.9582C112.918 22.9626 112.581 23.0372 112.31 23.182L111.659 22.1925C112.097 21.9412 112.527 21.812 112.948 21.805C113.374 21.7974 113.775 21.8713 114.153 22.0269C114.535 22.1818 114.88 22.3751 115.187 22.6069C115.384 22.7547 115.591 22.9484 115.809 23.1879C116.033 23.4268 116.21 23.7077 116.34 24.0307C116.474 24.3557 116.511 24.7227 116.452 25.1315C116.394 25.5404 116.182 25.9874 115.816 26.4726L112.783 30.4974L111.845 29.7901L112.468 28.9629L112.42 28.9269C112.257 29.0116 112.044 29.0735 111.781 29.1127C111.519 29.152 111.225 29.1317 110.898 29.052C110.572 28.9722 110.231 28.7985 109.875 28.5308ZM110.654 27.7955C111.025 28.0752 111.393 28.2381 111.757 28.284C112.124 28.332 112.46 28.2896 112.764 28.1569C113.07 28.0261 113.319 27.8334 113.511 27.5789L114.158 26.7199C114.082 26.7376 113.962 26.7154 113.797 26.6533C113.636 26.5905 113.457 26.5078 113.261 26.4051C113.068 26.3017 112.882 26.1987 112.701 26.0961C112.526 25.9927 112.383 25.9098 112.272 25.8471C112.004 25.6951 111.737 25.575 111.471 25.4867C111.209 25.3978 110.961 25.3747 110.725 25.4173C110.494 25.4593 110.288 25.5996 110.109 25.8382C109.863 26.1643 109.798 26.5018 109.913 26.8506C110.033 27.1988 110.28 27.5138 110.654 27.7955Z" fill="black"/>
<path d="M126.557 33.7271L125.806 34.3805L123.205 31.3889L123.957 30.7355L126.557 33.7271ZM126.098 30.4051L126.869 31.2921L121.367 36.075C121.116 36.2928 120.96 36.4925 120.898 36.6741C120.84 36.856 120.84 37.0231 120.898 37.1753C120.96 37.328 121.048 37.4694 121.161 37.5997C121.246 37.6974 121.321 37.7732 121.385 37.8272C121.452 37.8789 121.506 37.9203 121.546 37.9514L120.906 38.8244C120.831 38.7838 120.736 38.7195 120.62 38.6314C120.501 38.5454 120.37 38.4197 120.226 38.2544C120.008 38.0038 119.849 37.7115 119.747 37.3773C119.648 37.0456 119.64 36.705 119.723 36.3555C119.809 36.0085 120.019 35.689 120.355 35.3972L126.098 30.4051Z" fill="black"/>
<path d="M126.377 47.5371C126.03 46.9099 125.878 46.2878 125.923 45.6706C125.968 45.0535 126.183 44.4789 126.568 43.9469C126.952 43.4149 127.479 42.9638 128.146 42.5936C128.826 42.217 129.495 42.0095 130.153 41.9711C130.815 41.934 131.418 42.0592 131.961 42.3467C132.508 42.6355 132.949 43.0819 133.284 43.6858C133.545 44.1562 133.693 44.6284 133.728 45.1025C133.763 45.5765 133.69 46.021 133.51 46.4358C133.33 46.8506 133.047 47.2029 132.661 47.4928L132.091 46.4649C132.353 46.2175 132.526 45.8936 132.612 45.4932C132.702 45.0941 132.621 44.668 132.37 44.2151C132.148 43.8144 131.849 43.521 131.472 43.3349C131.1 43.1501 130.679 43.0781 130.208 43.1189C129.742 43.1611 129.256 43.3221 128.751 43.6022C128.234 43.8887 127.829 44.2195 127.536 44.5945C127.244 44.9725 127.076 45.3697 127.029 45.7863C126.985 46.2058 127.075 46.6188 127.301 47.0253C127.449 47.2924 127.629 47.5091 127.843 47.6754C128.057 47.8416 128.292 47.952 128.55 48.0064C128.808 48.0608 129.077 48.0524 129.356 47.9811L129.926 49.0089C129.499 49.1698 129.064 49.2232 128.62 49.1692C128.181 49.1166 127.764 48.9545 127.371 48.6829C126.982 48.4127 126.651 48.0307 126.377 47.5371Z" fill="black"/>
<path d="M134.936 55.2545L130.536 56.5998L130.192 55.4759L139.945 52.4941L140.289 53.618L136.708 54.7129L136.737 54.8081C137.167 54.8641 137.546 55.0295 137.873 55.3044C138.204 55.5816 138.457 56.0075 138.633 56.5821C138.786 57.0806 138.819 57.5477 138.733 57.9834C138.651 58.4182 138.437 58.8014 138.09 59.133C137.748 59.4668 137.263 59.7298 136.634 59.922L131.986 61.343L131.642 60.2191L136.214 58.8214C136.795 58.6438 137.198 58.3556 137.424 57.9569C137.653 57.5605 137.687 57.0971 137.525 56.5669C137.412 56.1987 137.233 55.8923 136.988 55.6477C136.744 55.4064 136.448 55.2472 136.098 55.1702C135.749 55.0963 135.362 55.1245 134.936 55.2545Z" fill="black"/>
<path d="M143.631 81.0605L134.741 83.0194L134.727 83.138L142.879 87.1894L142.721 88.4745L133.055 83.5147L133.21 82.2494L143.789 79.7754L143.631 81.0605Z" fill="black"/>
<path d="M130.568 94.0617L137.8 96.5519L137.417 97.6631L130.185 95.1729L130.568 94.0617ZM138.811 97.532C138.885 97.3154 139.023 97.154 139.225 97.0479C139.425 96.9449 139.629 96.929 139.836 97.0004C140.044 97.0717 140.195 97.2097 140.289 97.4143C140.383 97.622 140.392 97.8342 140.317 98.0508C140.243 98.2674 140.105 98.4272 139.905 98.5302C139.703 98.6363 139.499 98.6538 139.292 98.5824C139.085 98.5111 138.934 98.3715 138.841 98.1638C138.746 97.9592 138.736 97.7486 138.811 97.532Z" fill="black"/>
<path d="M125.07 105.567C125.399 105.021 125.826 104.622 126.354 104.369C126.884 104.118 127.473 104.027 128.122 104.095C128.773 104.165 129.446 104.409 130.14 104.826C130.829 105.24 131.356 105.717 131.72 106.257C132.085 106.798 132.279 107.362 132.302 107.949C132.325 108.536 132.17 109.105 131.838 109.657C131.582 110.084 131.308 110.379 131.017 110.541C130.727 110.707 130.453 110.802 130.195 110.826C129.939 110.853 129.731 110.87 129.573 110.876L129.522 110.961L132.749 112.9L132.143 113.907L123.401 108.655L123.986 107.681L124.993 108.287L125.065 108.167C124.99 108.021 124.903 107.825 124.803 107.579C124.705 107.335 124.662 107.044 124.672 106.705C124.684 106.368 124.817 105.989 125.07 105.567ZM125.893 106.248C125.65 106.652 125.551 107.057 125.594 107.462C125.639 107.869 125.807 108.258 126.095 108.629C126.386 109.001 126.779 109.337 127.275 109.634C127.764 109.928 128.235 110.114 128.688 110.193C129.143 110.273 129.557 110.235 129.929 110.079C130.305 109.925 130.616 109.643 130.862 109.233C131.118 108.806 131.222 108.385 131.174 107.969C131.127 107.557 130.96 107.168 130.673 106.802C130.387 106.44 130.013 106.121 129.552 105.844C129.085 105.563 128.619 105.38 128.152 105.293C127.686 105.21 127.256 105.243 126.862 105.389C126.469 105.54 126.146 105.827 125.893 106.248Z" fill="black"/>
<path d="M117.519 115.525C118.022 114.986 118.574 114.632 119.177 114.463C119.78 114.299 120.394 114.311 121.021 114.501C121.648 114.695 122.248 115.059 122.821 115.594C123.394 116.128 123.801 116.703 124.044 117.32C124.286 117.941 124.355 118.554 124.249 119.159C124.143 119.768 123.855 120.326 123.384 120.831C123.113 121.122 122.796 121.365 122.434 121.558C122.072 121.752 121.673 121.863 121.237 121.892C120.803 121.924 120.344 121.843 119.858 121.648C119.372 121.454 118.868 121.113 118.346 120.626L117.981 120.287L122.003 115.974L122.746 116.667L119.54 120.105C119.855 120.4 120.196 120.599 120.561 120.704C120.924 120.811 121.285 120.816 121.643 120.719C121.999 120.624 122.322 120.422 122.612 120.111C122.931 119.768 123.123 119.393 123.186 118.984C123.249 118.581 123.208 118.186 123.063 117.801C122.919 117.416 122.692 117.08 122.383 116.793L121.888 116.331C121.466 115.937 121.04 115.676 120.61 115.547C120.181 115.424 119.767 115.422 119.37 115.541C118.975 115.663 118.615 115.898 118.291 116.245C118.081 116.471 117.922 116.704 117.815 116.945C117.709 117.191 117.658 117.44 117.662 117.694C117.668 117.95 117.735 118.205 117.861 118.459L116.854 119.072C116.654 118.722 116.543 118.344 116.522 117.938C116.503 117.535 116.576 117.126 116.74 116.711C116.906 116.299 117.166 115.904 117.519 115.525Z" fill="black"/>
<path d="M108.414 123.372C108.98 122.975 109.57 122.763 110.186 122.733C110.799 122.705 111.394 122.849 111.972 123.166C112.548 123.484 113.062 123.967 113.515 124.614C113.972 125.267 114.253 125.92 114.357 126.572C114.459 127.226 114.392 127.837 114.156 128.403C113.918 128.971 113.516 129.453 112.95 129.849C112.384 130.245 111.795 130.457 111.182 130.485C110.567 130.515 109.97 130.369 109.393 130.048C108.813 129.729 108.294 129.243 107.837 128.59C107.384 127.943 107.108 127.294 107.008 126.642C106.906 125.992 106.974 125.383 107.212 124.815C107.448 124.249 107.848 123.768 108.414 123.372ZM109.02 124.236C108.59 124.537 108.314 124.895 108.19 125.309C108.067 125.724 108.065 126.157 108.183 126.61C108.301 127.062 108.507 127.497 108.8 127.916C109.093 128.335 109.433 128.679 109.82 128.947C110.206 129.215 110.616 129.364 111.05 129.393C111.483 129.421 111.915 129.285 112.344 128.985C112.774 128.684 113.05 128.325 113.171 127.907C113.292 127.49 113.293 127.054 113.173 126.599C113.053 126.144 112.846 125.707 112.553 125.288C112.26 124.87 111.921 124.527 111.536 124.262C111.151 123.996 110.743 123.85 110.312 123.824C109.88 123.798 109.449 123.935 109.02 124.236Z" fill="black"/>
<path d="M71.6641 13.4141C71.6641 14.5186 70.7686 15.4141 69.6641 15.4141C68.5595 15.4141 67.6641 14.5186 67.6641 13.4141C67.6641 12.3095 68.5595 11.4141 69.6641 11.4141C70.7686 11.4141 71.6641 12.3095 71.6641 13.4141Z" fill="black"/>
<path d="M84.6641 138.414C84.6641 139.519 83.7686 140.414 82.6641 140.414C81.5595 140.414 80.6641 139.519 80.6641 138.414C80.6641 137.309 81.5595 136.414 82.6641 136.414C83.7686 136.414 84.6641 137.309 84.6641 138.414Z" fill="black"/>
</svg>
