<svg width="61" height="77" viewBox="0 0 61 77" fill="none" xmlns="http://www.w3.org/2000/svg">
<path d="M0 10C0 4.47715 4.47715 0 10 0H50C55.5228 0 60 4.47715 60 10V50C60 55.5228 55.5228 60 50 60H10C4.47715 60 0 55.5228 0 50V10Z" fill="url(#paint0_linear_3056_165157)"/>
<g filter="url(#filter0_d_3056_165157)">
<g filter="url(#filter1_bd_3056_165157)">
<mask id="path-2-inside-1_3056_165157" fill="white">
<path fillRule="evenodd" clipRule="evenodd" d="M28.6586 17.2013C28.2517 16.1015 26.6962 16.1015 26.2893 17.2013L25.4474 19.4765C24.4239 22.2425 22.243 24.4234 19.477 25.4469L17.2017 26.2888C16.102 26.6957 16.102 28.2512 17.2017 28.6581L19.477 29.5C22.243 30.5236 24.4239 32.7044 25.4474 35.4704L26.2893 37.7457C26.6962 38.8454 28.2517 38.8454 28.6586 37.7457L29.5005 35.4704C30.524 32.7044 32.7049 30.5236 35.4709 29.5L37.7462 28.6581C38.8459 28.2512 38.8459 26.6957 37.7462 26.2888L35.4709 25.4469C32.7049 24.4234 30.524 22.2425 29.5005 19.4765L28.6586 17.2013ZM39.8555 34.1269C39.652 33.577 38.8743 33.577 38.6708 34.1269L38.2499 35.2645C37.7381 36.6475 36.6477 37.7379 35.2647 38.2497L34.1271 38.6707C33.5772 38.8741 33.5772 39.6518 34.1271 39.8553L35.2647 40.2763C36.6477 40.788 37.7381 41.8785 38.2499 43.2615L38.6708 44.3991C38.8743 44.949 39.652 44.949 39.8555 44.3991L40.2764 43.2615C40.7882 41.8784 41.8786 40.788 43.2616 40.2763L44.3993 39.8553C44.9491 39.6518 44.9491 38.8741 44.3993 38.6707L43.2616 38.2497C41.8786 37.7379 40.7882 36.6475 40.2764 35.2645L39.8555 34.1269Z"/>
</mask>
<path fillRule="evenodd" clipRule="evenodd" d="M28.6586 17.2013C28.2517 16.1015 26.6962 16.1015 26.2893 17.2013L25.4474 19.4765C24.4239 22.2425 22.243 24.4234 19.477 25.4469L17.2017 26.2888C16.102 26.6957 16.102 28.2512 17.2017 28.6581L19.477 29.5C22.243 30.5236 24.4239 32.7044 25.4474 35.4704L26.2893 37.7457C26.6962 38.8454 28.2517 38.8454 28.6586 37.7457L29.5005 35.4704C30.524 32.7044 32.7049 30.5236 35.4709 29.5L37.7462 28.6581C38.8459 28.2512 38.8459 26.6957 37.7462 26.2888L35.4709 25.4469C32.7049 24.4234 30.524 22.2425 29.5005 19.4765L28.6586 17.2013ZM39.8555 34.1269C39.652 33.577 38.8743 33.577 38.6708 34.1269L38.2499 35.2645C37.7381 36.6475 36.6477 37.7379 35.2647 38.2497L34.1271 38.6707C33.5772 38.8741 33.5772 39.6518 34.1271 39.8553L35.2647 40.2763C36.6477 40.788 37.7381 41.8785 38.2499 43.2615L38.6708 44.3991C38.8743 44.949 39.652 44.949 39.8555 44.3991L40.2764 43.2615C40.7882 41.8784 41.8786 40.788 43.2616 40.2763L44.3993 39.8553C44.9491 39.6518 44.9491 38.8741 44.3993 38.6707L43.2616 38.2497C41.8786 37.7379 40.7882 36.6475 40.2764 35.2645L39.8555 34.1269Z" fill="white"/>
<path fillRule="evenodd" clipRule="evenodd" d="M28.6586 17.2013C28.2517 16.1015 26.6962 16.1015 26.2893 17.2013L25.4474 19.4765C24.4239 22.2425 22.243 24.4234 19.477 25.4469L17.2017 26.2888C16.102 26.6957 16.102 28.2512 17.2017 28.6581L19.477 29.5C22.243 30.5236 24.4239 32.7044 25.4474 35.4704L26.2893 37.7457C26.6962 38.8454 28.2517 38.8454 28.6586 37.7457L29.5005 35.4704C30.524 32.7044 32.7049 30.5236 35.4709 29.5L37.7462 28.6581C38.8459 28.2512 38.8459 26.6957 37.7462 26.2888L35.4709 25.4469C32.7049 24.4234 30.524 22.2425 29.5005 19.4765L28.6586 17.2013ZM39.8555 34.1269C39.652 33.577 38.8743 33.577 38.6708 34.1269L38.2499 35.2645C37.7381 36.6475 36.6477 37.7379 35.2647 38.2497L34.1271 38.6707C33.5772 38.8741 33.5772 39.6518 34.1271 39.8553L35.2647 40.2763C36.6477 40.788 37.7381 41.8785 38.2499 43.2615L38.6708 44.3991C38.8743 44.949 39.652 44.949 39.8555 44.3991L40.2764 43.2615C40.7882 41.8784 41.8786 40.788 43.2616 40.2763L44.3993 39.8553C44.9491 39.6518 44.9491 38.8741 44.3993 38.6707L43.2616 38.2497C41.8786 37.7379 40.7882 36.6475 40.2764 35.2645L39.8555 34.1269Z" fill="url(#paint1_linear_3056_165157)"/>
<path fillRule="evenodd" clipRule="evenodd" d="M28.6586 17.2013C28.2517 16.1015 26.6962 16.1015 26.2893 17.2013L25.4474 19.4765C24.4239 22.2425 22.243 24.4234 19.477 25.4469L17.2017 26.2888C16.102 26.6957 16.102 28.2512 17.2017 28.6581L19.477 29.5C22.243 30.5236 24.4239 32.7044 25.4474 35.4704L26.2893 37.7457C26.6962 38.8454 28.2517 38.8454 28.6586 37.7457L29.5005 35.4704C30.524 32.7044 32.7049 30.5236 35.4709 29.5L37.7462 28.6581C38.8459 28.2512 38.8459 26.6957 37.7462 26.2888L35.4709 25.4469C32.7049 24.4234 30.524 22.2425 29.5005 19.4765L28.6586 17.2013ZM39.8555 34.1269C39.652 33.577 38.8743 33.577 38.6708 34.1269L38.2499 35.2645C37.7381 36.6475 36.6477 37.7379 35.2647 38.2497L34.1271 38.6707C33.5772 38.8741 33.5772 39.6518 34.1271 39.8553L35.2647 40.2763C36.6477 40.788 37.7381 41.8785 38.2499 43.2615L38.6708 44.3991C38.8743 44.949 39.652 44.949 39.8555 44.3991L40.2764 43.2615C40.7882 41.8784 41.8786 40.788 43.2616 40.2763L44.3993 39.8553C44.9491 39.6518 44.9491 38.8741 44.3993 38.6707L43.2616 38.2497C41.8786 37.7379 40.7882 36.6475 40.2764 35.2645L39.8555 34.1269Z" fill="#344254" fill-opacity="0.15"/>
<path d="M26.2893 17.2013L27.2271 17.5483V17.5483L26.2893 17.2013ZM28.6586 17.2013L27.7208 17.5483V17.5483L28.6586 17.2013ZM25.4474 19.4765L24.5095 19.1295V19.1295L25.4474 19.4765ZM19.477 25.4469L19.8241 26.3847L19.477 25.4469ZM17.2017 26.2888L16.8547 25.351H16.8547L17.2017 26.2888ZM17.2017 28.6581L17.5488 27.7203H17.5488L17.2017 28.6581ZM19.477 29.5L19.13 30.4379H19.13L19.477 29.5ZM25.4474 35.4704L24.5095 35.8174L25.4474 35.4704ZM26.2893 37.7457L25.3514 38.0927H25.3514L26.2893 37.7457ZM28.6586 37.7457L29.5965 38.0927L28.6586 37.7457ZM29.5005 35.4704L28.5627 35.1234L29.5005 35.4704ZM35.4709 29.5L35.8179 30.4379L35.4709 29.5ZM37.7462 28.6581L37.3991 27.7203L37.7462 28.6581ZM37.7462 26.2888L38.0932 25.351L37.7462 26.2888ZM35.4709 25.4469L35.1238 26.3847L35.4709 25.4469ZM29.5005 19.4765L30.4384 19.1295V19.1295L29.5005 19.4765ZM38.6708 34.1269L37.733 33.7799L38.6708 34.1269ZM39.8555 34.1269L40.7933 33.7799H40.7933L39.8555 34.1269ZM38.2499 35.2645L39.1877 35.6116H39.1877L38.2499 35.2645ZM35.2647 38.2497L35.6117 39.1875L35.2647 38.2497ZM34.1271 38.6707L33.78 37.7328V37.7328L34.1271 38.6707ZM34.1271 39.8553L33.78 40.7932L34.1271 39.8553ZM35.2647 40.2763L35.6117 39.3384V39.3384L35.2647 40.2763ZM38.2499 43.2615L39.1877 42.9144H39.1877L38.2499 43.2615ZM38.6708 44.3991L37.733 44.7461L38.6708 44.3991ZM39.8555 44.3991L40.7933 44.7461H40.7933L39.8555 44.3991ZM40.2764 43.2615L39.3386 42.9144L40.2764 43.2615ZM43.2616 40.2763L42.9146 39.3384V39.3384L43.2616 40.2763ZM44.3993 39.8553L44.7463 40.7932L44.3993 39.8553ZM44.3993 38.6707L44.7463 37.7328V37.7328L44.3993 38.6707ZM43.2616 38.2497L42.9146 39.1875L43.2616 38.2497ZM40.2764 35.2645L39.3386 35.6116L40.2764 35.2645ZM27.2271 17.5483C27.3119 17.3192 27.636 17.3192 27.7208 17.5483L29.5965 16.8542C28.8674 14.8839 26.0805 14.8839 25.3514 16.8542L27.2271 17.5483ZM26.3852 19.8236L27.2271 17.5483L25.3514 16.8542L24.5095 19.1295L26.3852 19.8236ZM19.8241 26.3847C22.8638 25.2599 25.2604 22.8633 26.3852 19.8236L24.5095 19.1295C23.5873 21.6218 21.6223 23.5868 19.13 24.509L19.8241 26.3847ZM17.5488 27.2267L19.8241 26.3847L19.13 24.509L16.8547 25.351L17.5488 27.2267ZM17.5488 27.7203C17.3197 27.6355 17.3197 27.3114 17.5488 27.2267L16.8547 25.351C14.8844 26.0801 14.8844 28.8669 16.8547 29.596L17.5488 27.7203ZM19.8241 28.5622L17.5488 27.7203L16.8547 29.596L19.13 30.4379L19.8241 28.5622ZM26.3852 35.1234C25.2604 32.0836 22.8638 29.687 19.8241 28.5622L19.13 30.4379C21.6223 31.3601 23.5873 33.3251 24.5095 35.8174L26.3852 35.1234ZM27.2271 37.3986L26.3852 35.1234L24.5095 35.8174L25.3514 38.0927L27.2271 37.3986ZM27.7208 37.3986C27.636 37.6277 27.3119 37.6277 27.2271 37.3986L25.3514 38.0927C26.0805 40.063 28.8674 40.063 29.5965 38.0927L27.7208 37.3986ZM28.5627 35.1234L27.7208 37.3986L29.5965 38.0927L30.4384 35.8174L28.5627 35.1234ZM35.1238 28.5622C32.0841 29.687 29.6875 32.0836 28.5627 35.1234L30.4384 35.8174C31.3606 33.3251 33.3256 31.3601 35.8179 30.4379L35.1238 28.5622ZM37.3991 27.7203L35.1238 28.5622L35.8179 30.4379L38.0932 29.596L37.3991 27.7203ZM37.3991 27.2267C37.6282 27.3114 37.6282 27.6355 37.3991 27.7203L38.0932 29.596C40.0635 28.8669 40.0635 26.0801 38.0932 25.351L37.3991 27.2267ZM35.1238 26.3847L37.3991 27.2267L38.0932 25.351L35.8179 24.509L35.1238 26.3847ZM28.5627 19.8236C29.6875 22.8633 32.0841 25.2599 35.1238 26.3847L35.8179 24.509C33.3256 23.5868 31.3606 21.6218 30.4384 19.1295L28.5627 19.8236ZM27.7208 17.5483L28.5627 19.8236L30.4384 19.1295L29.5965 16.8542L27.7208 17.5483ZM39.6087 34.4739C39.49 34.7947 39.0363 34.7947 38.9176 34.4739L40.7933 33.7799C40.2677 32.3594 38.2586 32.3594 37.733 33.7799L39.6087 34.4739ZM39.1877 35.6116L39.6087 34.4739L37.733 33.7799L37.312 34.9175L39.1877 35.6116ZM35.6117 39.1875C37.2684 38.5745 38.5747 37.2683 39.1877 35.6116L37.312 34.9175C36.9015 36.0268 36.0269 36.9014 34.9177 37.3118L35.6117 39.1875ZM34.4741 39.6085L35.6117 39.1875L34.9177 37.3118L33.78 37.7328L34.4741 39.6085ZM34.4741 38.9175C34.7948 39.0362 34.7948 39.4898 34.4741 39.6085L33.78 37.7328C32.3595 38.2584 32.3595 40.2675 33.78 40.7932L34.4741 38.9175ZM35.6117 39.3384L34.4741 38.9175L33.78 40.7932L34.9177 41.2141L35.6117 39.3384ZM39.1877 42.9144C38.5747 41.2577 37.2684 39.9515 35.6117 39.3384L34.9177 41.2141C36.0269 41.6246 36.9015 42.4992 37.312 43.6085L39.1877 42.9144ZM39.6087 44.0521L39.1877 42.9144L37.312 43.6085L37.733 44.7461L39.6087 44.0521ZM38.9176 44.0521C39.0363 43.7313 39.49 43.7313 39.6087 44.0521L37.733 44.7461C38.2586 46.1666 40.2677 46.1666 40.7933 44.7461L38.9176 44.0521ZM39.3386 42.9144L38.9176 44.0521L40.7933 44.7461L41.2143 43.6085L39.3386 42.9144ZM42.9146 39.3384C41.2579 39.9515 39.9516 41.2577 39.3386 42.9144L41.2143 43.6085C41.6248 42.4992 42.4994 41.6246 43.6087 41.2141L42.9146 39.3384ZM44.0522 38.9175L42.9146 39.3384L43.6087 41.2141L44.7463 40.7932L44.0522 38.9175ZM44.0522 39.6085C43.7315 39.4898 43.7315 39.0362 44.0522 38.9175L44.7463 40.7932C46.1668 40.2675 46.1668 38.2584 44.7463 37.7328L44.0522 39.6085ZM42.9146 39.1875L44.0522 39.6085L44.7463 37.7328L43.6087 37.3118L42.9146 39.1875ZM39.3386 35.6116C39.9516 37.2683 41.2579 38.5745 42.9146 39.1875L43.6087 37.3118C42.4994 36.9014 41.6248 36.0268 41.2143 34.9175L39.3386 35.6116ZM38.9176 34.4739L39.3386 35.6116L41.2143 34.9175L40.7933 33.7799L38.9176 34.4739Z" fill="url(#paint2_radial_3056_165157)" fill-opacity="0.6" mask="url(#path-2-inside-1_3056_165157)"/>
<path d="M26.2893 17.2013L27.2271 17.5483V17.5483L26.2893 17.2013ZM28.6586 17.2013L27.7208 17.5483V17.5483L28.6586 17.2013ZM25.4474 19.4765L24.5095 19.1295V19.1295L25.4474 19.4765ZM19.477 25.4469L19.8241 26.3847L19.477 25.4469ZM17.2017 26.2888L16.8547 25.351H16.8547L17.2017 26.2888ZM17.2017 28.6581L17.5488 27.7203H17.5488L17.2017 28.6581ZM19.477 29.5L19.13 30.4379H19.13L19.477 29.5ZM25.4474 35.4704L24.5095 35.8174L25.4474 35.4704ZM26.2893 37.7457L25.3514 38.0927H25.3514L26.2893 37.7457ZM28.6586 37.7457L29.5965 38.0927L28.6586 37.7457ZM29.5005 35.4704L28.5627 35.1234L29.5005 35.4704ZM35.4709 29.5L35.8179 30.4379L35.4709 29.5ZM37.7462 28.6581L37.3991 27.7203L37.7462 28.6581ZM37.7462 26.2888L38.0932 25.351L37.7462 26.2888ZM35.4709 25.4469L35.1238 26.3847L35.4709 25.4469ZM29.5005 19.4765L30.4384 19.1295V19.1295L29.5005 19.4765ZM38.6708 34.1269L37.733 33.7799L38.6708 34.1269ZM39.8555 34.1269L40.7933 33.7799H40.7933L39.8555 34.1269ZM38.2499 35.2645L39.1877 35.6116H39.1877L38.2499 35.2645ZM35.2647 38.2497L35.6117 39.1875L35.2647 38.2497ZM34.1271 38.6707L33.78 37.7328V37.7328L34.1271 38.6707ZM34.1271 39.8553L33.78 40.7932L34.1271 39.8553ZM35.2647 40.2763L35.6117 39.3384V39.3384L35.2647 40.2763ZM38.2499 43.2615L39.1877 42.9144H39.1877L38.2499 43.2615ZM38.6708 44.3991L37.733 44.7461L38.6708 44.3991ZM39.8555 44.3991L40.7933 44.7461H40.7933L39.8555 44.3991ZM40.2764 43.2615L39.3386 42.9144L40.2764 43.2615ZM43.2616 40.2763L42.9146 39.3384V39.3384L43.2616 40.2763ZM44.3993 39.8553L44.7463 40.7932L44.3993 39.8553ZM44.3993 38.6707L44.7463 37.7328V37.7328L44.3993 38.6707ZM43.2616 38.2497L42.9146 39.1875L43.2616 38.2497ZM40.2764 35.2645L39.3386 35.6116L40.2764 35.2645ZM27.2271 17.5483C27.3119 17.3192 27.636 17.3192 27.7208 17.5483L29.5965 16.8542C28.8674 14.8839 26.0805 14.8839 25.3514 16.8542L27.2271 17.5483ZM26.3852 19.8236L27.2271 17.5483L25.3514 16.8542L24.5095 19.1295L26.3852 19.8236ZM19.8241 26.3847C22.8638 25.2599 25.2604 22.8633 26.3852 19.8236L24.5095 19.1295C23.5873 21.6218 21.6223 23.5868 19.13 24.509L19.8241 26.3847ZM17.5488 27.2267L19.8241 26.3847L19.13 24.509L16.8547 25.351L17.5488 27.2267ZM17.5488 27.7203C17.3197 27.6355 17.3197 27.3114 17.5488 27.2267L16.8547 25.351C14.8844 26.0801 14.8844 28.8669 16.8547 29.596L17.5488 27.7203ZM19.8241 28.5622L17.5488 27.7203L16.8547 29.596L19.13 30.4379L19.8241 28.5622ZM26.3852 35.1234C25.2604 32.0836 22.8638 29.687 19.8241 28.5622L19.13 30.4379C21.6223 31.3601 23.5873 33.3251 24.5095 35.8174L26.3852 35.1234ZM27.2271 37.3986L26.3852 35.1234L24.5095 35.8174L25.3514 38.0927L27.2271 37.3986ZM27.7208 37.3986C27.636 37.6277 27.3119 37.6277 27.2271 37.3986L25.3514 38.0927C26.0805 40.063 28.8674 40.063 29.5965 38.0927L27.7208 37.3986ZM28.5627 35.1234L27.7208 37.3986L29.5965 38.0927L30.4384 35.8174L28.5627 35.1234ZM35.1238 28.5622C32.0841 29.687 29.6875 32.0836 28.5627 35.1234L30.4384 35.8174C31.3606 33.3251 33.3256 31.3601 35.8179 30.4379L35.1238 28.5622ZM37.3991 27.7203L35.1238 28.5622L35.8179 30.4379L38.0932 29.596L37.3991 27.7203ZM37.3991 27.2267C37.6282 27.3114 37.6282 27.6355 37.3991 27.7203L38.0932 29.596C40.0635 28.8669 40.0635 26.0801 38.0932 25.351L37.3991 27.2267ZM35.1238 26.3847L37.3991 27.2267L38.0932 25.351L35.8179 24.509L35.1238 26.3847ZM28.5627 19.8236C29.6875 22.8633 32.0841 25.2599 35.1238 26.3847L35.8179 24.509C33.3256 23.5868 31.3606 21.6218 30.4384 19.1295L28.5627 19.8236ZM27.7208 17.5483L28.5627 19.8236L30.4384 19.1295L29.5965 16.8542L27.7208 17.5483ZM39.6087 34.4739C39.49 34.7947 39.0363 34.7947 38.9176 34.4739L40.7933 33.7799C40.2677 32.3594 38.2586 32.3594 37.733 33.7799L39.6087 34.4739ZM39.1877 35.6116L39.6087 34.4739L37.733 33.7799L37.312 34.9175L39.1877 35.6116ZM35.6117 39.1875C37.2684 38.5745 38.5747 37.2683 39.1877 35.6116L37.312 34.9175C36.9015 36.0268 36.0269 36.9014 34.9177 37.3118L35.6117 39.1875ZM34.4741 39.6085L35.6117 39.1875L34.9177 37.3118L33.78 37.7328L34.4741 39.6085ZM34.4741 38.9175C34.7948 39.0362 34.7948 39.4898 34.4741 39.6085L33.78 37.7328C32.3595 38.2584 32.3595 40.2675 33.78 40.7932L34.4741 38.9175ZM35.6117 39.3384L34.4741 38.9175L33.78 40.7932L34.9177 41.2141L35.6117 39.3384ZM39.1877 42.9144C38.5747 41.2577 37.2684 39.9515 35.6117 39.3384L34.9177 41.2141C36.0269 41.6246 36.9015 42.4992 37.312 43.6085L39.1877 42.9144ZM39.6087 44.0521L39.1877 42.9144L37.312 43.6085L37.733 44.7461L39.6087 44.0521ZM38.9176 44.0521C39.0363 43.7313 39.49 43.7313 39.6087 44.0521L37.733 44.7461C38.2586 46.1666 40.2677 46.1666 40.7933 44.7461L38.9176 44.0521ZM39.3386 42.9144L38.9176 44.0521L40.7933 44.7461L41.2143 43.6085L39.3386 42.9144ZM42.9146 39.3384C41.2579 39.9515 39.9516 41.2577 39.3386 42.9144L41.2143 43.6085C41.6248 42.4992 42.4994 41.6246 43.6087 41.2141L42.9146 39.3384ZM44.0522 38.9175L42.9146 39.3384L43.6087 41.2141L44.7463 40.7932L44.0522 38.9175ZM44.0522 39.6085C43.7315 39.4898 43.7315 39.0362 44.0522 38.9175L44.7463 40.7932C46.1668 40.2675 46.1668 38.2584 44.7463 37.7328L44.0522 39.6085ZM42.9146 39.1875L44.0522 39.6085L44.7463 37.7328L43.6087 37.3118L42.9146 39.1875ZM39.3386 35.6116C39.9516 37.2683 41.2579 38.5745 42.9146 39.1875L43.6087 37.3118C42.4994 36.9014 41.6248 36.0268 41.2143 34.9175L39.3386 35.6116ZM38.9176 34.4739L39.3386 35.6116L41.2143 34.9175L40.7933 33.7799L38.9176 34.4739Z" fill="url(#paint3_radial_3056_165157)" fill-opacity="0.3" mask="url(#path-2-inside-1_3056_165157)"/>
</g>
</g>
<defs>
<filter id="filter0_d_3056_165157" x="11" y="12.5" width="38" height="38" filterUnits="userSpaceOnUse" color-interpolation-filters="sRGB">
<feFlood flood-opacity="0" result="BackgroundImageFix"/>
<feColorMatrix in="SourceAlpha" type="matrix" values="0 0 0 0 0 0 0 0 0 0 0 0 0 0 0 0 0 0 127 0" result="hardAlpha"/>
<feOffset dy="1.5"/>
<feGaussianBlur stdDeviation="1.5"/>
<feComposite in2="hardAlpha" operator="out"/>
<feColorMatrix type="matrix" values="0 0 0 0 1 0 0 0 0 1 0 0 0 0 1 0 0 0 0.5 0"/>
<feBlend mode="normal" in2="BackgroundImageFix" result="effect1_dropShadow_3056_165157"/>
<feBlend mode="normal" in="SourceGraphic" in2="effect1_dropShadow_3056_165157" result="shape"/>
</filter>
<filter id="filter1_bd_3056_165157" x="-3983.62" y="-3983.62" width="8028.43" height="8028.44" filterUnits="userSpaceOnUse" color-interpolation-filters="sRGB">
<feFlood flood-opacity="0" result="BackgroundImageFix"/>
<feGaussianBlur in="BackgroundImageFix" stdDeviation="2000"/>
<feComposite in2="SourceAlpha" operator="in" result="effect1_backgroundBlur_3056_165157"/>
<feColorMatrix in="SourceAlpha" type="matrix" values="0 0 0 0 0 0 0 0 0 0 0 0 0 0 0 0 0 0 127 0" result="hardAlpha"/>
<feOffset dy="16"/>
<feGaussianBlur stdDeviation="8"/>
<feComposite in2="hardAlpha" operator="out"/>
<feColorMatrix type="matrix" values="0 0 0 0 0 0 0 0 0 0 0 0 0 0 0 0 0 0 0.25 0"/>
<feBlend mode="normal" in2="effect1_backgroundBlur_3056_165157" result="effect2_dropShadow_3056_165157"/>
<feBlend mode="normal" in="SourceGraphic" in2="effect2_dropShadow_3056_165157" result="shape"/>
</filter>
<linearGradient id="paint0_linear_3056_165157" x1="9.3617" y1="-8.96104" x2="73.5198" y2="19.6173" gradientUnits="userSpaceOnUse">
<stop stop-color="#00E5D1"/>
<stop offset="0.350079" stop-color="#25ADF9"/>
<stop offset="1" stop-color="#0077FF"/>
</linearGradient>
<linearGradient id="paint1_linear_3056_165157" x1="17.5502" y1="17.1089" x2="30.9487" y2="51.5127" gradientUnits="userSpaceOnUse">
<stop stop-color="white" stop-opacity="0.6"/>
<stop offset="1" stop-color="white" stop-opacity="0.1"/>
</linearGradient>
<radialGradient id="paint2_radial_3056_165157" cx="0" cy="0" r="1" gradientUnits="userSpaceOnUse" gradientTransform="translate(30.5943 16.635) rotate(90) scale(24.6867 24.6865)">
<stop stop-color="white"/>
<stop offset="1" stop-color="white" stop-opacity="0"/>
</radialGradient>
<radialGradient id="paint3_radial_3056_165157" cx="0" cy="0" r="1" gradientUnits="userSpaceOnUse" gradientTransform="translate(30.5943 44.8114) rotate(-90) scale(14.2175 14.2173)">
<stop stop-color="white"/>
<stop offset="1" stop-color="white" stop-opacity="0"/>
</radialGradient>
</defs>
</svg>
