<svg width="60" height="60" viewBox="0 0 60 60" fill="none" xmlns="http://www.w3.org/2000/svg">
<rect width="60" height="60" rx="10" fill="#141414"/>
<g clip-path="url(#clip0_3567_190106)">
<g filter="url(#filter0_bd_3567_190106)">
<mask id="path-2-inside-1_3567_190106" fill="white">
<path fillRule="evenodd" clipRule="evenodd" d="M29.2423 20.1927C29.0011 21.3748 29.5556 22.7054 30.9058 23.205L32.0435 23.626C32.879 23.9352 33.5378 24.5939 33.847 25.4295L34.268 26.5671C34.9986 28.5418 37.5067 28.8145 38.7284 27.3854C39.5435 29.085 40 30.9892 40 33C40 40.1797 34.1797 46 27 46C19.8203 46 14 40.1797 14 33C14 25.8203 19.8203 20 27 20C27.7647 20 28.5139 20.066 29.2423 20.1927ZM21.1485 40.0881L23.0918 36.7223C23.3034 36.2597 23.2872 35.6989 23.0467 35.2824C22.7773 34.8158 22.3533 34.547 21.8516 34.5234H17.9358C18.1118 35.5773 18.4751 36.6174 19.04 37.5957C19.6048 38.574 20.3239 39.4088 21.1485 40.0881ZM21.8224 31.4766C22.3287 31.4285 22.8063 31.134 23.0468 30.7176C23.3161 30.251 23.3369 29.7494 23.1065 29.3031L21.1486 25.9119C20.3239 26.5912 19.6049 27.4259 19.04 28.4043C18.4752 29.3826 18.1118 30.4228 17.9359 31.4766H21.8224ZM23.7872 41.6115C24.7878 41.986 25.8703 42.1914 27 42.1914C28.1297 42.1914 29.2122 41.986 30.2128 41.6115L28.2695 38.2457C27.9747 37.8312 27.4809 37.5648 27 37.5648C26.4613 37.5648 26.0164 37.7977 25.7452 38.2203L23.7872 41.6115ZM27 30.7148C25.74 30.7148 24.7148 31.74 24.7148 33C24.7148 34.26 25.74 35.2852 27 35.2852C28.26 35.2852 29.2852 34.26 29.2852 33C29.2852 31.74 28.26 30.7148 27 30.7148ZM27 28.4352C27.5387 28.4352 27.9836 28.2023 28.2548 27.7797L30.2128 24.3885C29.2122 24.014 28.1297 23.8086 27 23.8086C25.8703 23.8086 24.7878 24.014 23.7872 24.3885L25.7305 27.7543C26.0253 28.1688 26.5191 28.4352 27 28.4352ZM32.8515 40.0881C33.6761 39.4088 34.3952 38.574 34.96 37.5957C35.5249 36.6174 35.8882 35.5773 36.0641 34.5234H32.1776C31.6713 34.5715 31.1937 34.866 30.9532 35.2824C30.6838 35.749 30.6631 36.2507 30.8935 36.6969L32.8515 40.0881ZM30.9533 30.7176C31.2227 31.1842 31.6467 31.453 32.1484 31.4766H36.0642C35.8882 30.4227 35.5249 29.3826 34.96 28.4043C34.3952 27.426 33.6761 26.5912 32.8515 25.9119L30.9082 29.2777C30.6966 29.7402 30.7128 30.3011 30.9533 30.7176Z"/>
</mask>
<path fillRule="evenodd" clipRule="evenodd" d="M29.2423 20.1927C29.0011 21.3748 29.5556 22.7054 30.9058 23.205L32.0435 23.626C32.879 23.9352 33.5378 24.5939 33.847 25.4295L34.268 26.5671C34.9986 28.5418 37.5067 28.8145 38.7284 27.3854C39.5435 29.085 40 30.9892 40 33C40 40.1797 34.1797 46 27 46C19.8203 46 14 40.1797 14 33C14 25.8203 19.8203 20 27 20C27.7647 20 28.5139 20.066 29.2423 20.1927ZM21.1485 40.0881L23.0918 36.7223C23.3034 36.2597 23.2872 35.6989 23.0467 35.2824C22.7773 34.8158 22.3533 34.547 21.8516 34.5234H17.9358C18.1118 35.5773 18.4751 36.6174 19.04 37.5957C19.6048 38.574 20.3239 39.4088 21.1485 40.0881ZM21.8224 31.4766C22.3287 31.4285 22.8063 31.134 23.0468 30.7176C23.3161 30.251 23.3369 29.7494 23.1065 29.3031L21.1486 25.9119C20.3239 26.5912 19.6049 27.4259 19.04 28.4043C18.4752 29.3826 18.1118 30.4228 17.9359 31.4766H21.8224ZM23.7872 41.6115C24.7878 41.986 25.8703 42.1914 27 42.1914C28.1297 42.1914 29.2122 41.986 30.2128 41.6115L28.2695 38.2457C27.9747 37.8312 27.4809 37.5648 27 37.5648C26.4613 37.5648 26.0164 37.7977 25.7452 38.2203L23.7872 41.6115ZM27 30.7148C25.74 30.7148 24.7148 31.74 24.7148 33C24.7148 34.26 25.74 35.2852 27 35.2852C28.26 35.2852 29.2852 34.26 29.2852 33C29.2852 31.74 28.26 30.7148 27 30.7148ZM27 28.4352C27.5387 28.4352 27.9836 28.2023 28.2548 27.7797L30.2128 24.3885C29.2122 24.014 28.1297 23.8086 27 23.8086C25.8703 23.8086 24.7878 24.014 23.7872 24.3885L25.7305 27.7543C26.0253 28.1688 26.5191 28.4352 27 28.4352ZM32.8515 40.0881C33.6761 39.4088 34.3952 38.574 34.96 37.5957C35.5249 36.6174 35.8882 35.5773 36.0641 34.5234H32.1776C31.6713 34.5715 31.1937 34.866 30.9532 35.2824C30.6838 35.749 30.6631 36.2507 30.8935 36.6969L32.8515 40.0881ZM30.9533 30.7176C31.2227 31.1842 31.6467 31.453 32.1484 31.4766H36.0642C35.8882 30.4227 35.5249 29.3826 34.96 28.4043C34.3952 27.426 33.6761 26.5912 32.8515 25.9119L30.9082 29.2777C30.6966 29.7402 30.7128 30.3011 30.9533 30.7176Z" fill="url(#paint0_linear_3567_190106)" shape-rendering="crispEdges"/>
<path fillRule="evenodd" clipRule="evenodd" d="M29.2423 20.1927C29.0011 21.3748 29.5556 22.7054 30.9058 23.205L32.0435 23.626C32.879 23.9352 33.5378 24.5939 33.847 25.4295L34.268 26.5671C34.9986 28.5418 37.5067 28.8145 38.7284 27.3854C39.5435 29.085 40 30.9892 40 33C40 40.1797 34.1797 46 27 46C19.8203 46 14 40.1797 14 33C14 25.8203 19.8203 20 27 20C27.7647 20 28.5139 20.066 29.2423 20.1927ZM21.1485 40.0881L23.0918 36.7223C23.3034 36.2597 23.2872 35.6989 23.0467 35.2824C22.7773 34.8158 22.3533 34.547 21.8516 34.5234H17.9358C18.1118 35.5773 18.4751 36.6174 19.04 37.5957C19.6048 38.574 20.3239 39.4088 21.1485 40.0881ZM21.8224 31.4766C22.3287 31.4285 22.8063 31.134 23.0468 30.7176C23.3161 30.251 23.3369 29.7494 23.1065 29.3031L21.1486 25.9119C20.3239 26.5912 19.6049 27.4259 19.04 28.4043C18.4752 29.3826 18.1118 30.4228 17.9359 31.4766H21.8224ZM23.7872 41.6115C24.7878 41.986 25.8703 42.1914 27 42.1914C28.1297 42.1914 29.2122 41.986 30.2128 41.6115L28.2695 38.2457C27.9747 37.8312 27.4809 37.5648 27 37.5648C26.4613 37.5648 26.0164 37.7977 25.7452 38.2203L23.7872 41.6115ZM27 30.7148C25.74 30.7148 24.7148 31.74 24.7148 33C24.7148 34.26 25.74 35.2852 27 35.2852C28.26 35.2852 29.2852 34.26 29.2852 33C29.2852 31.74 28.26 30.7148 27 30.7148ZM27 28.4352C27.5387 28.4352 27.9836 28.2023 28.2548 27.7797L30.2128 24.3885C29.2122 24.014 28.1297 23.8086 27 23.8086C25.8703 23.8086 24.7878 24.014 23.7872 24.3885L25.7305 27.7543C26.0253 28.1688 26.5191 28.4352 27 28.4352ZM32.8515 40.0881C33.6761 39.4088 34.3952 38.574 34.96 37.5957C35.5249 36.6174 35.8882 35.5773 36.0641 34.5234H32.1776C31.6713 34.5715 31.1937 34.866 30.9532 35.2824C30.6838 35.749 30.6631 36.2507 30.8935 36.6969L32.8515 40.0881ZM30.9533 30.7176C31.2227 31.1842 31.6467 31.453 32.1484 31.4766H36.0642C35.8882 30.4227 35.5249 29.3826 34.96 28.4043C34.3952 27.426 33.6761 26.5912 32.8515 25.9119L30.9082 29.2777C30.6966 29.7402 30.7128 30.3011 30.9533 30.7176Z" fill="#344254" fill-opacity="0.15" shape-rendering="crispEdges"/>
<path d="M29.2423 20.1927L30.2221 20.3926L30.428 19.3838L29.4136 19.2074L29.2423 20.1927ZM30.9058 23.205L30.5588 24.1429V24.1429L30.9058 23.205ZM32.0435 23.626L32.3905 22.6881L32.0435 23.626ZM33.847 25.4295L34.7849 25.0825V25.0825L33.847 25.4295ZM34.268 26.5671L33.3301 26.9142V26.9142L34.268 26.5671ZM38.7284 27.3854L39.63 26.953L38.966 25.5684L37.9683 26.7356L38.7284 27.3854ZM23.0918 36.7223L23.9578 37.2223L23.9815 37.1813L24.0012 37.1383L23.0918 36.7223ZM21.1485 40.0881L20.5127 40.86L21.4242 41.6107L22.0145 40.5881L21.1485 40.0881ZM23.0467 35.2824L23.9127 34.7824L23.9127 34.7824L23.0467 35.2824ZM21.8516 34.5234L21.8986 33.5245L21.8751 33.5234H21.8516V34.5234ZM17.9358 34.5234V33.5234H16.755L16.9495 34.6881L17.9358 34.5234ZM23.0468 30.7176L23.9128 31.2176L23.9128 31.2175L23.0468 30.7176ZM21.8224 31.4766V32.4766H21.8697L21.9169 32.4721L21.8224 31.4766ZM23.1065 29.3031L23.9951 28.8444L23.9843 28.8235L23.9725 28.8031L23.1065 29.3031ZM21.1486 25.9119L22.0146 25.4119L21.4242 24.3893L20.5128 25.14L21.1486 25.9119ZM17.9359 31.4766L16.9495 31.3119L16.755 32.4766H17.9359V31.4766ZM23.7872 41.6115L22.9212 41.1115L22.3308 42.1342L23.4367 42.5481L23.7872 41.6115ZM30.2128 41.6115L30.5633 42.5481L31.6692 42.1342L31.0788 41.1115L30.2128 41.6115ZM28.2695 38.2457L29.1355 37.7457L29.1119 37.7047L29.0844 37.6662L28.2695 38.2457ZM25.7452 38.2203L24.9036 37.6802L24.8909 37.7L24.8792 37.7203L25.7452 38.2203ZM28.2548 27.7797L29.0964 28.3198L29.1091 28.3L29.1208 28.2797L28.2548 27.7797ZM30.2128 24.3885L31.0788 24.8885L31.6692 23.8658L30.5633 23.4519L30.2128 24.3885ZM23.7872 24.3885L23.4367 23.4519L22.3308 23.8658L22.9212 24.8885L23.7872 24.3885ZM25.7305 27.7543L24.8645 28.2543L24.8881 28.2953L24.9156 28.3338L25.7305 27.7543ZM32.8515 40.0881L31.9855 40.5881L32.5759 41.6107L33.4873 40.86L32.8515 40.0881ZM36.0641 34.5234L37.0505 34.6881L37.2449 33.5234H36.0641V34.5234ZM32.1776 34.5234V33.5234H32.1303L32.0831 33.5279L32.1776 34.5234ZM30.9532 35.2824L31.8192 35.7824L31.8192 35.7824L30.9532 35.2824ZM30.8935 36.6969L30.005 37.1557L30.0158 37.1766L30.0275 37.1969L30.8935 36.6969ZM32.1484 31.4766L32.1014 32.4755L32.1249 32.4766H32.1484V31.4766ZM30.9533 30.7176L30.0873 31.2176L30.0873 31.2176L30.9533 30.7176ZM36.0642 31.4766V32.4766H37.245L37.0505 31.3119L36.0642 31.4766ZM34.96 28.4043L35.826 27.9043L34.96 28.4043ZM32.8515 25.9119L33.4873 25.14L32.5758 24.3893L31.9855 25.4119L32.8515 25.9119ZM30.9082 29.2777L30.0422 28.7777L30.0185 28.8187L29.9988 28.8618L30.9082 29.2777ZM28.2625 19.9928C27.9354 21.5962 28.6888 23.4509 30.5588 24.1429L31.2529 22.2672C30.4225 21.9599 30.0669 21.1534 30.2221 20.3926L28.2625 19.9928ZM30.5588 24.1429L31.6964 24.5638L32.3905 22.6881L31.2529 22.2672L30.5588 24.1429ZM31.6964 24.5638C32.2583 24.7717 32.7013 25.2147 32.9092 25.7765L34.7849 25.0825C34.3744 23.9732 33.4998 23.0986 32.3905 22.6881L31.6964 24.5638ZM32.9092 25.7765L33.3301 26.9142L35.2058 26.2201L34.7849 25.0825L32.9092 25.7765ZM33.3301 26.9142C34.3449 29.6566 37.8072 30.002 39.4885 28.0352L37.9683 26.7356C37.2062 27.6271 35.6524 27.4269 35.2058 26.2201L33.3301 26.9142ZM41 33C41 30.8363 40.5085 28.7846 39.63 26.953L37.8267 27.8178C38.5784 29.3853 39 31.142 39 33H41ZM27 47C34.732 47 41 40.732 41 33H39C39 39.6274 33.6274 45 27 45V47ZM13 33C13 40.732 19.268 47 27 47V45C20.3726 45 15 39.6274 15 33H13ZM27 19C19.268 19 13 25.268 13 33H15C15 26.3726 20.3726 21 27 21V19ZM29.4136 19.2074C28.6289 19.071 27.8223 19 27 19V21C27.707 21 28.3989 21.061 29.071 21.1779L29.4136 19.2074ZM22.2258 36.2223L20.2825 39.5881L22.0145 40.5881L23.9578 37.2223L22.2258 36.2223ZM22.1807 35.7824C22.247 35.8973 22.2699 36.115 22.1825 36.3062L24.0012 37.1383C24.3369 36.4045 24.3273 35.5004 23.9127 34.7824L22.1807 35.7824ZM21.8047 35.5223C21.9385 35.5286 22.0673 35.5859 22.1807 35.7824L23.9127 34.7824C23.4874 34.0457 22.7681 33.5654 21.8986 33.5245L21.8047 35.5223ZM17.9358 35.5234H21.8516V33.5234H17.9358V35.5234ZM19.906 37.0957C19.4022 36.2231 19.0788 35.2968 18.9221 34.3587L16.9495 34.6881C17.1447 35.8577 17.5481 37.0117 18.174 38.0957L19.906 37.0957ZM21.7843 39.3162C21.0503 38.7116 20.4098 37.9683 19.906 37.0957L18.174 38.0957C18.7998 39.1797 19.5975 40.1061 20.5127 40.86L21.7843 39.3162ZM22.1808 30.2176C22.1144 30.3324 21.9373 30.4612 21.7279 30.481L21.9169 32.4721C22.7201 32.3959 23.4982 31.9357 23.9128 31.2176L22.1808 30.2176ZM22.2179 29.7619C22.2794 29.881 22.2941 30.0212 22.1807 30.2176L23.9128 31.2175C24.3381 30.4808 24.3943 29.6178 23.9951 28.8444L22.2179 29.7619ZM20.2826 26.4119L22.2405 29.8031L23.9725 28.8031L22.0146 25.4119L20.2826 26.4119ZM19.9061 28.9043C20.4099 28.0316 21.0503 27.2884 21.7844 26.6838L20.5128 25.14C19.5976 25.8939 18.7999 26.8203 18.174 27.9043L19.9061 28.9043ZM18.9222 31.6413C19.0788 30.7032 19.4023 29.7769 19.9061 28.9043L18.174 27.9043C17.5481 28.9884 17.1448 30.1424 16.9495 31.3119L18.9222 31.6413ZM21.8224 30.4766H17.9359V32.4766H21.8224V30.4766ZM27 41.1914C25.9924 41.1914 25.0285 41.0084 24.1378 40.675L23.4367 42.5481C24.5472 42.9637 25.7483 43.1914 27 43.1914V41.1914ZM29.8622 40.675C28.9715 41.0084 28.0076 41.1914 27 41.1914V43.1914C28.2517 43.1914 29.4528 42.9637 30.5633 42.5481L29.8622 40.675ZM27.4035 38.7457L29.3468 42.1115L31.0788 41.1115L29.1355 37.7457L27.4035 38.7457ZM27 38.5648C27.1326 38.5648 27.3327 38.6539 27.4545 38.8252L29.0844 37.6662C28.6168 37.0086 27.8292 36.5648 27 36.5648V38.5648ZM26.5868 38.7604C26.6592 38.6476 26.7732 38.5648 27 38.5648V36.5648C26.1493 36.5648 25.3737 36.9477 24.9036 37.6802L26.5868 38.7604ZM24.6532 42.1115L26.6112 38.7203L24.8792 37.7203L22.9212 41.1115L24.6532 42.1115ZM25.7148 33C25.7148 32.2922 26.2922 31.7148 27 31.7148V29.7148C25.1877 29.7148 23.7148 31.1877 23.7148 33H25.7148ZM27 34.2852C26.2922 34.2852 25.7148 33.7078 25.7148 33H23.7148C23.7148 34.8123 25.1877 36.2852 27 36.2852V34.2852ZM28.2852 33C28.2852 33.7078 27.7078 34.2852 27 34.2852V36.2852C28.8123 36.2852 30.2852 34.8123 30.2852 33H28.2852ZM27 31.7148C27.7078 31.7148 28.2852 32.2922 28.2852 33H30.2852C30.2852 31.1877 28.8123 29.7148 27 29.7148V31.7148ZM27.4132 27.2396C27.3408 27.3524 27.2268 27.4352 27 27.4352V29.4352C27.8507 29.4352 28.6263 29.0523 29.0964 28.3198L27.4132 27.2396ZM29.3468 23.8885L27.3888 27.2797L29.1208 28.2797L31.0788 24.8885L29.3468 23.8885ZM27 24.8086C28.0076 24.8086 28.9715 24.9916 29.8622 25.325L30.5633 23.4519C29.4528 23.0363 28.2517 22.8086 27 22.8086V24.8086ZM24.1378 25.325C25.0285 24.9916 25.9924 24.8086 27 24.8086V22.8086C25.7483 22.8086 24.5472 23.0363 23.4367 23.4519L24.1378 25.325ZM26.5965 27.2543L24.6532 23.8885L22.9212 24.8885L24.8645 28.2543L26.5965 27.2543ZM27 27.4352C26.8674 27.4352 26.6673 27.3461 26.5455 27.1748L24.9156 28.3338C25.3832 28.9914 26.1708 29.4352 27 29.4352V27.4352ZM34.094 37.0957C33.5902 37.9683 32.9497 38.7116 32.2157 39.3162L33.4873 40.86C34.4025 40.1061 35.2002 39.1797 35.826 38.0957L34.094 37.0957ZM35.0778 34.3588C34.9212 35.2969 34.5978 36.2231 34.094 37.0957L35.826 38.0957C36.4519 37.0117 36.8553 35.8576 37.0505 34.6881L35.0778 34.3588ZM32.1776 35.5234H36.0641V33.5234H32.1776V35.5234ZM31.8192 35.7824C31.8855 35.6676 32.0627 35.5388 32.2721 35.519L32.0831 33.5279C31.2799 33.6041 30.5018 34.0643 30.0872 34.7824L31.8192 35.7824ZM31.782 36.238C31.7205 36.119 31.7058 35.9789 31.8192 35.7824L30.0872 34.7824C29.6618 35.5191 29.6056 36.3823 30.005 37.1557L31.782 36.238ZM33.7175 39.5881L31.7595 36.1969L30.0275 37.1969L31.9855 40.5881L33.7175 39.5881ZM32.1953 30.4777C32.0615 30.4714 31.9327 30.4141 31.8193 30.2176L30.0873 31.2176C30.5126 31.9543 31.2319 32.4346 32.1014 32.4755L32.1953 30.4777ZM36.0642 30.4766H32.1484V32.4766H36.0642V30.4766ZM34.094 28.9043C34.5978 29.7769 34.9212 30.7032 35.0779 31.6413L37.0505 31.3119C36.8553 30.1423 36.4519 28.9883 35.826 27.9043L34.094 28.9043ZM32.2157 26.6838C32.9497 27.2884 33.5902 28.0317 34.094 28.9043L35.826 27.9043C35.2002 26.8203 34.4025 25.8939 33.4873 25.14L32.2157 26.6838ZM31.7742 29.7777L33.7175 26.4119L31.9855 25.4119L30.0422 28.7777L31.7742 29.7777ZM31.8193 30.2176C31.753 30.1028 31.7301 29.885 31.8176 29.6937L29.9988 28.8618C29.6632 29.5955 29.6726 30.4995 30.0873 31.2176L31.8193 30.2176Z" fill="url(#paint1_radial_3567_190106)" fill-opacity="0.6" mask="url(#path-2-inside-1_3567_190106)"/>
<path d="M29.2423 20.1927L30.2221 20.3926L30.428 19.3838L29.4136 19.2074L29.2423 20.1927ZM30.9058 23.205L30.5588 24.1429V24.1429L30.9058 23.205ZM32.0435 23.626L32.3905 22.6881L32.0435 23.626ZM33.847 25.4295L34.7849 25.0825V25.0825L33.847 25.4295ZM34.268 26.5671L33.3301 26.9142V26.9142L34.268 26.5671ZM38.7284 27.3854L39.63 26.953L38.966 25.5684L37.9683 26.7356L38.7284 27.3854ZM23.0918 36.7223L23.9578 37.2223L23.9815 37.1813L24.0012 37.1383L23.0918 36.7223ZM21.1485 40.0881L20.5127 40.86L21.4242 41.6107L22.0145 40.5881L21.1485 40.0881ZM23.0467 35.2824L23.9127 34.7824L23.9127 34.7824L23.0467 35.2824ZM21.8516 34.5234L21.8986 33.5245L21.8751 33.5234H21.8516V34.5234ZM17.9358 34.5234V33.5234H16.755L16.9495 34.6881L17.9358 34.5234ZM23.0468 30.7176L23.9128 31.2176L23.9128 31.2175L23.0468 30.7176ZM21.8224 31.4766V32.4766H21.8697L21.9169 32.4721L21.8224 31.4766ZM23.1065 29.3031L23.9951 28.8444L23.9843 28.8235L23.9725 28.8031L23.1065 29.3031ZM21.1486 25.9119L22.0146 25.4119L21.4242 24.3893L20.5128 25.14L21.1486 25.9119ZM17.9359 31.4766L16.9495 31.3119L16.755 32.4766H17.9359V31.4766ZM23.7872 41.6115L22.9212 41.1115L22.3308 42.1342L23.4367 42.5481L23.7872 41.6115ZM30.2128 41.6115L30.5633 42.5481L31.6692 42.1342L31.0788 41.1115L30.2128 41.6115ZM28.2695 38.2457L29.1355 37.7457L29.1119 37.7047L29.0844 37.6662L28.2695 38.2457ZM25.7452 38.2203L24.9036 37.6802L24.8909 37.7L24.8792 37.7203L25.7452 38.2203ZM28.2548 27.7797L29.0964 28.3198L29.1091 28.3L29.1208 28.2797L28.2548 27.7797ZM30.2128 24.3885L31.0788 24.8885L31.6692 23.8658L30.5633 23.4519L30.2128 24.3885ZM23.7872 24.3885L23.4367 23.4519L22.3308 23.8658L22.9212 24.8885L23.7872 24.3885ZM25.7305 27.7543L24.8645 28.2543L24.8881 28.2953L24.9156 28.3338L25.7305 27.7543ZM32.8515 40.0881L31.9855 40.5881L32.5759 41.6107L33.4873 40.86L32.8515 40.0881ZM36.0641 34.5234L37.0505 34.6881L37.2449 33.5234H36.0641V34.5234ZM32.1776 34.5234V33.5234H32.1303L32.0831 33.5279L32.1776 34.5234ZM30.9532 35.2824L31.8192 35.7824L31.8192 35.7824L30.9532 35.2824ZM30.8935 36.6969L30.005 37.1557L30.0158 37.1766L30.0275 37.1969L30.8935 36.6969ZM32.1484 31.4766L32.1014 32.4755L32.1249 32.4766H32.1484V31.4766ZM30.9533 30.7176L30.0873 31.2176L30.0873 31.2176L30.9533 30.7176ZM36.0642 31.4766V32.4766H37.245L37.0505 31.3119L36.0642 31.4766ZM34.96 28.4043L35.826 27.9043L34.96 28.4043ZM32.8515 25.9119L33.4873 25.14L32.5758 24.3893L31.9855 25.4119L32.8515 25.9119ZM30.9082 29.2777L30.0422 28.7777L30.0185 28.8187L29.9988 28.8618L30.9082 29.2777ZM28.2625 19.9928C27.9354 21.5962 28.6888 23.4509 30.5588 24.1429L31.2529 22.2672C30.4225 21.9599 30.0669 21.1534 30.2221 20.3926L28.2625 19.9928ZM30.5588 24.1429L31.6964 24.5638L32.3905 22.6881L31.2529 22.2672L30.5588 24.1429ZM31.6964 24.5638C32.2583 24.7717 32.7013 25.2147 32.9092 25.7765L34.7849 25.0825C34.3744 23.9732 33.4998 23.0986 32.3905 22.6881L31.6964 24.5638ZM32.9092 25.7765L33.3301 26.9142L35.2058 26.2201L34.7849 25.0825L32.9092 25.7765ZM33.3301 26.9142C34.3449 29.6566 37.8072 30.002 39.4885 28.0352L37.9683 26.7356C37.2062 27.6271 35.6524 27.4269 35.2058 26.2201L33.3301 26.9142ZM41 33C41 30.8363 40.5085 28.7846 39.63 26.953L37.8267 27.8178C38.5784 29.3853 39 31.142 39 33H41ZM27 47C34.732 47 41 40.732 41 33H39C39 39.6274 33.6274 45 27 45V47ZM13 33C13 40.732 19.268 47 27 47V45C20.3726 45 15 39.6274 15 33H13ZM27 19C19.268 19 13 25.268 13 33H15C15 26.3726 20.3726 21 27 21V19ZM29.4136 19.2074C28.6289 19.071 27.8223 19 27 19V21C27.707 21 28.3989 21.061 29.071 21.1779L29.4136 19.2074ZM22.2258 36.2223L20.2825 39.5881L22.0145 40.5881L23.9578 37.2223L22.2258 36.2223ZM22.1807 35.7824C22.247 35.8973 22.2699 36.115 22.1825 36.3062L24.0012 37.1383C24.3369 36.4045 24.3273 35.5004 23.9127 34.7824L22.1807 35.7824ZM21.8047 35.5223C21.9385 35.5286 22.0673 35.5859 22.1807 35.7824L23.9127 34.7824C23.4874 34.0457 22.7681 33.5654 21.8986 33.5245L21.8047 35.5223ZM17.9358 35.5234H21.8516V33.5234H17.9358V35.5234ZM19.906 37.0957C19.4022 36.2231 19.0788 35.2968 18.9221 34.3587L16.9495 34.6881C17.1447 35.8577 17.5481 37.0117 18.174 38.0957L19.906 37.0957ZM21.7843 39.3162C21.0503 38.7116 20.4098 37.9683 19.906 37.0957L18.174 38.0957C18.7998 39.1797 19.5975 40.1061 20.5127 40.86L21.7843 39.3162ZM22.1808 30.2176C22.1144 30.3324 21.9373 30.4612 21.7279 30.481L21.9169 32.4721C22.7201 32.3959 23.4982 31.9357 23.9128 31.2176L22.1808 30.2176ZM22.2179 29.7619C22.2794 29.881 22.2941 30.0212 22.1807 30.2176L23.9128 31.2175C24.3381 30.4808 24.3943 29.6178 23.9951 28.8444L22.2179 29.7619ZM20.2826 26.4119L22.2405 29.8031L23.9725 28.8031L22.0146 25.4119L20.2826 26.4119ZM19.9061 28.9043C20.4099 28.0316 21.0503 27.2884 21.7844 26.6838L20.5128 25.14C19.5976 25.8939 18.7999 26.8203 18.174 27.9043L19.9061 28.9043ZM18.9222 31.6413C19.0788 30.7032 19.4023 29.7769 19.9061 28.9043L18.174 27.9043C17.5481 28.9884 17.1448 30.1424 16.9495 31.3119L18.9222 31.6413ZM21.8224 30.4766H17.9359V32.4766H21.8224V30.4766ZM27 41.1914C25.9924 41.1914 25.0285 41.0084 24.1378 40.675L23.4367 42.5481C24.5472 42.9637 25.7483 43.1914 27 43.1914V41.1914ZM29.8622 40.675C28.9715 41.0084 28.0076 41.1914 27 41.1914V43.1914C28.2517 43.1914 29.4528 42.9637 30.5633 42.5481L29.8622 40.675ZM27.4035 38.7457L29.3468 42.1115L31.0788 41.1115L29.1355 37.7457L27.4035 38.7457ZM27 38.5648C27.1326 38.5648 27.3327 38.6539 27.4545 38.8252L29.0844 37.6662C28.6168 37.0086 27.8292 36.5648 27 36.5648V38.5648ZM26.5868 38.7604C26.6592 38.6476 26.7732 38.5648 27 38.5648V36.5648C26.1493 36.5648 25.3737 36.9477 24.9036 37.6802L26.5868 38.7604ZM24.6532 42.1115L26.6112 38.7203L24.8792 37.7203L22.9212 41.1115L24.6532 42.1115ZM25.7148 33C25.7148 32.2922 26.2922 31.7148 27 31.7148V29.7148C25.1877 29.7148 23.7148 31.1877 23.7148 33H25.7148ZM27 34.2852C26.2922 34.2852 25.7148 33.7078 25.7148 33H23.7148C23.7148 34.8123 25.1877 36.2852 27 36.2852V34.2852ZM28.2852 33C28.2852 33.7078 27.7078 34.2852 27 34.2852V36.2852C28.8123 36.2852 30.2852 34.8123 30.2852 33H28.2852ZM27 31.7148C27.7078 31.7148 28.2852 32.2922 28.2852 33H30.2852C30.2852 31.1877 28.8123 29.7148 27 29.7148V31.7148ZM27.4132 27.2396C27.3408 27.3524 27.2268 27.4352 27 27.4352V29.4352C27.8507 29.4352 28.6263 29.0523 29.0964 28.3198L27.4132 27.2396ZM29.3468 23.8885L27.3888 27.2797L29.1208 28.2797L31.0788 24.8885L29.3468 23.8885ZM27 24.8086C28.0076 24.8086 28.9715 24.9916 29.8622 25.325L30.5633 23.4519C29.4528 23.0363 28.2517 22.8086 27 22.8086V24.8086ZM24.1378 25.325C25.0285 24.9916 25.9924 24.8086 27 24.8086V22.8086C25.7483 22.8086 24.5472 23.0363 23.4367 23.4519L24.1378 25.325ZM26.5965 27.2543L24.6532 23.8885L22.9212 24.8885L24.8645 28.2543L26.5965 27.2543ZM27 27.4352C26.8674 27.4352 26.6673 27.3461 26.5455 27.1748L24.9156 28.3338C25.3832 28.9914 26.1708 29.4352 27 29.4352V27.4352ZM34.094 37.0957C33.5902 37.9683 32.9497 38.7116 32.2157 39.3162L33.4873 40.86C34.4025 40.1061 35.2002 39.1797 35.826 38.0957L34.094 37.0957ZM35.0778 34.3588C34.9212 35.2969 34.5978 36.2231 34.094 37.0957L35.826 38.0957C36.4519 37.0117 36.8553 35.8576 37.0505 34.6881L35.0778 34.3588ZM32.1776 35.5234H36.0641V33.5234H32.1776V35.5234ZM31.8192 35.7824C31.8855 35.6676 32.0627 35.5388 32.2721 35.519L32.0831 33.5279C31.2799 33.6041 30.5018 34.0643 30.0872 34.7824L31.8192 35.7824ZM31.782 36.238C31.7205 36.119 31.7058 35.9789 31.8192 35.7824L30.0872 34.7824C29.6618 35.5191 29.6056 36.3823 30.005 37.1557L31.782 36.238ZM33.7175 39.5881L31.7595 36.1969L30.0275 37.1969L31.9855 40.5881L33.7175 39.5881ZM32.1953 30.4777C32.0615 30.4714 31.9327 30.4141 31.8193 30.2176L30.0873 31.2176C30.5126 31.9543 31.2319 32.4346 32.1014 32.4755L32.1953 30.4777ZM36.0642 30.4766H32.1484V32.4766H36.0642V30.4766ZM34.094 28.9043C34.5978 29.7769 34.9212 30.7032 35.0779 31.6413L37.0505 31.3119C36.8553 30.1423 36.4519 28.9883 35.826 27.9043L34.094 28.9043ZM32.2157 26.6838C32.9497 27.2884 33.5902 28.0317 34.094 28.9043L35.826 27.9043C35.2002 26.8203 34.4025 25.8939 33.4873 25.14L32.2157 26.6838ZM31.7742 29.7777L33.7175 26.4119L31.9855 25.4119L30.0422 28.7777L31.7742 29.7777ZM31.8193 30.2176C31.753 30.1028 31.7301 29.885 31.8176 29.6937L29.9988 28.8618C29.6632 29.5955 29.6726 30.4995 30.0873 31.2176L31.8193 30.2176Z" fill="url(#paint2_radial_3567_190106)" fill-opacity="0.3" mask="url(#path-2-inside-1_3567_190106)"/>
</g>
<g filter="url(#filter1_bd_3567_190106)">
<mask id="path-4-inside-2_3567_190106" fill="white">
<path fillRule="evenodd" clipRule="evenodd" d="M37.3292 15.6009C37.1257 15.051 36.348 15.051 36.1445 15.6009L35.7236 16.7385C35.2118 18.1215 34.1214 19.2119 32.7384 19.7237L31.6008 20.1446C31.0509 20.3481 31.0509 21.1258 31.6008 21.3293L32.7384 21.7503C34.1214 22.262 35.2118 23.3524 35.7236 24.7354L36.1445 25.8731C36.348 26.4229 37.1257 26.4229 37.3292 25.8731L37.7501 24.7354C38.2619 23.3524 39.3523 22.262 40.7353 21.7503L41.873 21.3293C42.4228 21.1258 42.4228 20.3481 41.873 20.1446L40.7353 19.7237C39.3523 19.2119 38.2619 18.1215 37.7501 16.7385L37.3292 15.6009ZM42.9263 24.0637C42.8246 23.7888 42.4357 23.7888 42.334 24.0637L42.1235 24.6325C41.8676 25.324 41.3224 25.8692 40.6309 26.1251L40.0621 26.3356C39.7872 26.4373 39.7872 26.8262 40.0621 26.9279L40.6309 27.1384C41.3224 27.3943 41.8676 27.9395 42.1235 28.631L42.334 29.1998C42.4357 29.4747 42.8246 29.4747 42.9263 29.1998L43.1368 28.631C43.3927 27.9395 43.9379 27.3943 44.6294 27.1384L45.1982 26.9279C45.4731 26.8262 45.4731 26.4373 45.1982 26.3356L44.6294 26.1251C43.9379 25.8692 43.3927 25.324 43.1368 24.6325L42.9263 24.0637Z"/>
</mask>
<path fillRule="evenodd" clipRule="evenodd" d="M37.3292 15.6009C37.1257 15.051 36.348 15.051 36.1445 15.6009L35.7236 16.7385C35.2118 18.1215 34.1214 19.2119 32.7384 19.7237L31.6008 20.1446C31.0509 20.3481 31.0509 21.1258 31.6008 21.3293L32.7384 21.7503C34.1214 22.262 35.2118 23.3524 35.7236 24.7354L36.1445 25.8731C36.348 26.4229 37.1257 26.4229 37.3292 25.8731L37.7501 24.7354C38.2619 23.3524 39.3523 22.262 40.7353 21.7503L41.873 21.3293C42.4228 21.1258 42.4228 20.3481 41.873 20.1446L40.7353 19.7237C39.3523 19.2119 38.2619 18.1215 37.7501 16.7385L37.3292 15.6009ZM42.9263 24.0637C42.8246 23.7888 42.4357 23.7888 42.334 24.0637L42.1235 24.6325C41.8676 25.324 41.3224 25.8692 40.6309 26.1251L40.0621 26.3356C39.7872 26.4373 39.7872 26.8262 40.0621 26.9279L40.6309 27.1384C41.3224 27.3943 41.8676 27.9395 42.1235 28.631L42.334 29.1998C42.4357 29.4747 42.8246 29.4747 42.9263 29.1998L43.1368 28.631C43.3927 27.9395 43.9379 27.3943 44.6294 27.1384L45.1982 26.9279C45.4731 26.8262 45.4731 26.4373 45.1982 26.3356L44.6294 26.1251C43.9379 25.8692 43.3927 25.324 43.1368 24.6325L42.9263 24.0637Z" fill="url(#paint3_linear_3567_190106)" shape-rendering="crispEdges"/>
<path fillRule="evenodd" clipRule="evenodd" d="M37.3292 15.6009C37.1257 15.051 36.348 15.051 36.1445 15.6009L35.7236 16.7385C35.2118 18.1215 34.1214 19.2119 32.7384 19.7237L31.6008 20.1446C31.0509 20.3481 31.0509 21.1258 31.6008 21.3293L32.7384 21.7503C34.1214 22.262 35.2118 23.3524 35.7236 24.7354L36.1445 25.8731C36.348 26.4229 37.1257 26.4229 37.3292 25.8731L37.7501 24.7354C38.2619 23.3524 39.3523 22.262 40.7353 21.7503L41.873 21.3293C42.4228 21.1258 42.4228 20.3481 41.873 20.1446L40.7353 19.7237C39.3523 19.2119 38.2619 18.1215 37.7501 16.7385L37.3292 15.6009ZM42.9263 24.0637C42.8246 23.7888 42.4357 23.7888 42.334 24.0637L42.1235 24.6325C41.8676 25.324 41.3224 25.8692 40.6309 26.1251L40.0621 26.3356C39.7872 26.4373 39.7872 26.8262 40.0621 26.9279L40.6309 27.1384C41.3224 27.3943 41.8676 27.9395 42.1235 28.631L42.334 29.1998C42.4357 29.4747 42.8246 29.4747 42.9263 29.1998L43.1368 28.631C43.3927 27.9395 43.9379 27.3943 44.6294 27.1384L45.1982 26.9279C45.4731 26.8262 45.4731 26.4373 45.1982 26.3356L44.6294 26.1251C43.9379 25.8692 43.3927 25.324 43.1368 24.6325L42.9263 24.0637Z" fill="#344254" fill-opacity="0.15" shape-rendering="crispEdges"/>
<path d="M36.1445 15.6009L35.2067 15.2538L35.2067 15.2538L36.1445 15.6009ZM37.3292 15.6009L38.267 15.2538L38.267 15.2538L37.3292 15.6009ZM35.7236 16.7385L36.6614 17.0855L35.7236 16.7385ZM32.7384 19.7237L32.3914 18.7858L32.7384 19.7237ZM31.6008 20.1446L31.2537 19.2068H31.2537L31.6008 20.1446ZM31.6008 21.3293L31.9478 20.3915L31.9478 20.3915L31.6008 21.3293ZM32.7384 21.7503L32.3914 22.6881L32.3914 22.6881L32.7384 21.7503ZM35.7236 24.7354L34.7857 25.0825L35.7236 24.7354ZM36.1445 25.8731L37.0824 25.526H37.0824L36.1445 25.8731ZM37.3292 25.8731L38.267 26.2201L38.267 26.2201L37.3292 25.8731ZM37.7501 24.7354L36.8123 24.3884L37.7501 24.7354ZM40.7353 21.7503L40.3883 20.8124L40.7353 21.7503ZM41.873 21.3293L41.5259 20.3915L41.5259 20.3915L41.873 21.3293ZM41.873 20.1446L41.5259 21.0825V21.0825L41.873 20.1446ZM40.7353 19.7237L41.0824 18.7858L40.7353 19.7237ZM37.7501 16.7385L36.8123 17.0855V17.0855L37.7501 16.7385ZM42.334 24.0637L41.3961 23.7167V23.7167L42.334 24.0637ZM42.9263 24.0637L43.8642 23.7167V23.7167L42.9263 24.0637ZM42.1235 24.6325L43.0614 24.9795L43.0614 24.9795L42.1235 24.6325ZM40.6309 26.1251L40.978 27.0629H40.978L40.6309 26.1251ZM40.0621 26.3356L39.7151 25.3977H39.7151L40.0621 26.3356ZM40.0621 26.9279L39.7151 27.8658H39.7151L40.0621 26.9279ZM40.6309 27.1384L40.978 26.2005H40.978L40.6309 27.1384ZM42.1235 28.631L43.0614 28.2839V28.2839L42.1235 28.631ZM42.334 29.1998L41.3961 29.5468V29.5468L42.334 29.1998ZM42.9263 29.1998L43.8642 29.5468V29.5468L42.9263 29.1998ZM43.1368 28.631L42.1989 28.2839V28.2839L43.1368 28.631ZM44.6294 27.1384L44.2823 26.2005H44.2823L44.6294 27.1384ZM45.1982 26.9279L45.5452 27.8658H45.5452L45.1982 26.9279ZM45.1982 26.3356L45.5452 25.3977H45.5452L45.1982 26.3356ZM44.6294 26.1251L44.2823 27.0629H44.2823L44.6294 26.1251ZM43.1368 24.6325L42.1989 24.9795V24.9795L43.1368 24.6325ZM37.0824 15.9479C36.9637 16.2687 36.51 16.2687 36.3913 15.9479L38.267 15.2538C37.7414 13.8334 35.7323 13.8334 35.2067 15.2538L37.0824 15.9479ZM36.6614 17.0855L37.0824 15.9479L35.2067 15.2538L34.7857 16.3915L36.6614 17.0855ZM33.0854 20.6615C34.7421 20.0485 36.0484 18.7423 36.6614 17.0855L34.7857 16.3915C34.3752 17.5008 33.5006 18.3754 32.3914 18.7858L33.0854 20.6615ZM31.9478 21.0825L33.0854 20.6615L32.3914 18.7858L31.2537 19.2068L31.9478 21.0825ZM31.9478 20.3915C32.2685 20.5101 32.2685 20.9638 31.9478 21.0825L31.2537 19.2068C29.8332 19.7324 29.8332 21.7415 31.2537 22.2672L31.9478 20.3915ZM33.0854 20.8124L31.9478 20.3915L31.2537 22.2672L32.3914 22.6881L33.0854 20.8124ZM36.6614 24.3884C36.0484 22.7317 34.7421 21.4255 33.0854 20.8124L32.3914 22.6881C33.5006 23.0986 34.3752 23.9732 34.7857 25.0825L36.6614 24.3884ZM37.0824 25.526L36.6614 24.3884L34.7857 25.0825L35.2067 26.2201L37.0824 25.526ZM36.3913 25.526C36.51 25.2053 36.9637 25.2053 37.0824 25.526L35.2067 26.2201C35.7323 27.6406 37.7414 27.6406 38.267 26.2201L36.3913 25.526ZM36.8123 24.3884L36.3913 25.526L38.267 26.2201L38.688 25.0825L36.8123 24.3884ZM40.3883 20.8124C38.7316 21.4255 37.4253 22.7317 36.8123 24.3884L38.688 25.0825C39.0985 23.9732 39.9731 23.0986 41.0824 22.6881L40.3883 20.8124ZM41.5259 20.3915L40.3883 20.8124L41.0824 22.6881L42.22 22.2672L41.5259 20.3915ZM41.5259 21.0825C41.2052 20.9638 41.2052 20.5101 41.5259 20.3915L42.22 22.2672C43.6405 21.7415 43.6405 19.7324 42.22 19.2068L41.5259 21.0825ZM40.3883 20.6615L41.5259 21.0825L42.22 19.2068L41.0824 18.7858L40.3883 20.6615ZM36.8123 17.0855C37.4253 18.7423 38.7316 20.0485 40.3883 20.6615L41.0824 18.7858C39.9731 18.3754 39.0985 17.5008 38.688 16.3915L36.8123 17.0855ZM36.3913 15.9479L36.8123 17.0855L38.688 16.3915L38.267 15.2538L36.3913 15.9479ZM43.2718 24.4107C43.0514 25.0064 42.2089 25.0064 41.9885 24.4107L43.8642 23.7167C43.4403 22.5711 41.82 22.5711 41.3961 23.7167L43.2718 24.4107ZM43.0614 24.9795L43.2718 24.4107L41.3961 23.7167L41.1857 24.2855L43.0614 24.9795ZM40.978 27.0629C41.9432 26.7058 42.7042 25.9448 43.0614 24.9795L41.1857 24.2855C41.0311 24.7033 40.7017 25.0326 40.2839 25.1872L40.978 27.0629ZM40.4091 27.2734L40.978 27.0629L40.2839 25.1872L39.7151 25.3977L40.4091 27.2734ZM40.4091 25.99C41.0048 26.2105 41.0048 27.053 40.4091 27.2734L39.7151 25.3977C38.5695 25.8216 38.5695 27.4419 39.7151 27.8658L40.4091 25.99ZM40.978 26.2005L40.4091 25.99L39.7151 27.8658L40.2839 28.0762L40.978 26.2005ZM43.0614 28.2839C42.7042 27.3187 41.9432 26.5577 40.978 26.2005L40.2839 28.0762C40.7017 28.2308 41.0311 28.5602 41.1857 28.978L43.0614 28.2839ZM43.2718 28.8528L43.0614 28.2839L41.1857 28.978L41.3961 29.5468L43.2718 28.8528ZM41.9885 28.8528C42.2089 28.2571 43.0514 28.2571 43.2718 28.8528L41.3961 29.5468C41.82 30.6924 43.4403 30.6924 43.8642 29.5468L41.9885 28.8528ZM42.1989 28.2839L41.9885 28.8528L43.8642 29.5468L44.0746 28.978L42.1989 28.2839ZM44.2823 26.2005C43.3171 26.5577 42.5561 27.3187 42.1989 28.2839L44.0746 28.978C44.2292 28.5602 44.5586 28.2308 44.9764 28.0762L44.2823 26.2005ZM44.8512 25.99L44.2823 26.2005L44.9764 28.0762L45.5452 27.8658L44.8512 25.99ZM44.8512 27.2734C44.2555 27.053 44.2555 26.2105 44.8512 25.99L45.5452 27.8658C46.6908 27.4419 46.6908 25.8216 45.5452 25.3977L44.8512 27.2734ZM44.2823 27.0629L44.8512 27.2734L45.5452 25.3977L44.9764 25.1872L44.2823 27.0629ZM42.1989 24.9795C42.5561 25.9448 43.3171 26.7058 44.2823 27.0629L44.9764 25.1872C44.5586 25.0326 44.2292 24.7033 44.0746 24.2855L42.1989 24.9795ZM41.9885 24.4107L42.1989 24.9795L44.0746 24.2855L43.8642 23.7167L41.9885 24.4107Z" fill="url(#paint4_radial_3567_190106)" fill-opacity="0.6" mask="url(#path-4-inside-2_3567_190106)"/>
<path d="M36.1445 15.6009L35.2067 15.2538L35.2067 15.2538L36.1445 15.6009ZM37.3292 15.6009L38.267 15.2538L38.267 15.2538L37.3292 15.6009ZM35.7236 16.7385L36.6614 17.0855L35.7236 16.7385ZM32.7384 19.7237L32.3914 18.7858L32.7384 19.7237ZM31.6008 20.1446L31.2537 19.2068H31.2537L31.6008 20.1446ZM31.6008 21.3293L31.9478 20.3915L31.9478 20.3915L31.6008 21.3293ZM32.7384 21.7503L32.3914 22.6881L32.3914 22.6881L32.7384 21.7503ZM35.7236 24.7354L34.7857 25.0825L35.7236 24.7354ZM36.1445 25.8731L37.0824 25.526H37.0824L36.1445 25.8731ZM37.3292 25.8731L38.267 26.2201L38.267 26.2201L37.3292 25.8731ZM37.7501 24.7354L36.8123 24.3884L37.7501 24.7354ZM40.7353 21.7503L40.3883 20.8124L40.7353 21.7503ZM41.873 21.3293L41.5259 20.3915L41.5259 20.3915L41.873 21.3293ZM41.873 20.1446L41.5259 21.0825V21.0825L41.873 20.1446ZM40.7353 19.7237L41.0824 18.7858L40.7353 19.7237ZM37.7501 16.7385L36.8123 17.0855V17.0855L37.7501 16.7385ZM42.334 24.0637L41.3961 23.7167V23.7167L42.334 24.0637ZM42.9263 24.0637L43.8642 23.7167V23.7167L42.9263 24.0637ZM42.1235 24.6325L43.0614 24.9795L43.0614 24.9795L42.1235 24.6325ZM40.6309 26.1251L40.978 27.0629H40.978L40.6309 26.1251ZM40.0621 26.3356L39.7151 25.3977H39.7151L40.0621 26.3356ZM40.0621 26.9279L39.7151 27.8658H39.7151L40.0621 26.9279ZM40.6309 27.1384L40.978 26.2005H40.978L40.6309 27.1384ZM42.1235 28.631L43.0614 28.2839V28.2839L42.1235 28.631ZM42.334 29.1998L41.3961 29.5468V29.5468L42.334 29.1998ZM42.9263 29.1998L43.8642 29.5468V29.5468L42.9263 29.1998ZM43.1368 28.631L42.1989 28.2839V28.2839L43.1368 28.631ZM44.6294 27.1384L44.2823 26.2005H44.2823L44.6294 27.1384ZM45.1982 26.9279L45.5452 27.8658H45.5452L45.1982 26.9279ZM45.1982 26.3356L45.5452 25.3977H45.5452L45.1982 26.3356ZM44.6294 26.1251L44.2823 27.0629H44.2823L44.6294 26.1251ZM43.1368 24.6325L42.1989 24.9795V24.9795L43.1368 24.6325ZM37.0824 15.9479C36.9637 16.2687 36.51 16.2687 36.3913 15.9479L38.267 15.2538C37.7414 13.8334 35.7323 13.8334 35.2067 15.2538L37.0824 15.9479ZM36.6614 17.0855L37.0824 15.9479L35.2067 15.2538L34.7857 16.3915L36.6614 17.0855ZM33.0854 20.6615C34.7421 20.0485 36.0484 18.7423 36.6614 17.0855L34.7857 16.3915C34.3752 17.5008 33.5006 18.3754 32.3914 18.7858L33.0854 20.6615ZM31.9478 21.0825L33.0854 20.6615L32.3914 18.7858L31.2537 19.2068L31.9478 21.0825ZM31.9478 20.3915C32.2685 20.5101 32.2685 20.9638 31.9478 21.0825L31.2537 19.2068C29.8332 19.7324 29.8332 21.7415 31.2537 22.2672L31.9478 20.3915ZM33.0854 20.8124L31.9478 20.3915L31.2537 22.2672L32.3914 22.6881L33.0854 20.8124ZM36.6614 24.3884C36.0484 22.7317 34.7421 21.4255 33.0854 20.8124L32.3914 22.6881C33.5006 23.0986 34.3752 23.9732 34.7857 25.0825L36.6614 24.3884ZM37.0824 25.526L36.6614 24.3884L34.7857 25.0825L35.2067 26.2201L37.0824 25.526ZM36.3913 25.526C36.51 25.2053 36.9637 25.2053 37.0824 25.526L35.2067 26.2201C35.7323 27.6406 37.7414 27.6406 38.267 26.2201L36.3913 25.526ZM36.8123 24.3884L36.3913 25.526L38.267 26.2201L38.688 25.0825L36.8123 24.3884ZM40.3883 20.8124C38.7316 21.4255 37.4253 22.7317 36.8123 24.3884L38.688 25.0825C39.0985 23.9732 39.9731 23.0986 41.0824 22.6881L40.3883 20.8124ZM41.5259 20.3915L40.3883 20.8124L41.0824 22.6881L42.22 22.2672L41.5259 20.3915ZM41.5259 21.0825C41.2052 20.9638 41.2052 20.5101 41.5259 20.3915L42.22 22.2672C43.6405 21.7415 43.6405 19.7324 42.22 19.2068L41.5259 21.0825ZM40.3883 20.6615L41.5259 21.0825L42.22 19.2068L41.0824 18.7858L40.3883 20.6615ZM36.8123 17.0855C37.4253 18.7423 38.7316 20.0485 40.3883 20.6615L41.0824 18.7858C39.9731 18.3754 39.0985 17.5008 38.688 16.3915L36.8123 17.0855ZM36.3913 15.9479L36.8123 17.0855L38.688 16.3915L38.267 15.2538L36.3913 15.9479ZM43.2718 24.4107C43.0514 25.0064 42.2089 25.0064 41.9885 24.4107L43.8642 23.7167C43.4403 22.5711 41.82 22.5711 41.3961 23.7167L43.2718 24.4107ZM43.0614 24.9795L43.2718 24.4107L41.3961 23.7167L41.1857 24.2855L43.0614 24.9795ZM40.978 27.0629C41.9432 26.7058 42.7042 25.9448 43.0614 24.9795L41.1857 24.2855C41.0311 24.7033 40.7017 25.0326 40.2839 25.1872L40.978 27.0629ZM40.4091 27.2734L40.978 27.0629L40.2839 25.1872L39.7151 25.3977L40.4091 27.2734ZM40.4091 25.99C41.0048 26.2105 41.0048 27.053 40.4091 27.2734L39.7151 25.3977C38.5695 25.8216 38.5695 27.4419 39.7151 27.8658L40.4091 25.99ZM40.978 26.2005L40.4091 25.99L39.7151 27.8658L40.2839 28.0762L40.978 26.2005ZM43.0614 28.2839C42.7042 27.3187 41.9432 26.5577 40.978 26.2005L40.2839 28.0762C40.7017 28.2308 41.0311 28.5602 41.1857 28.978L43.0614 28.2839ZM43.2718 28.8528L43.0614 28.2839L41.1857 28.978L41.3961 29.5468L43.2718 28.8528ZM41.9885 28.8528C42.2089 28.2571 43.0514 28.2571 43.2718 28.8528L41.3961 29.5468C41.82 30.6924 43.4403 30.6924 43.8642 29.5468L41.9885 28.8528ZM42.1989 28.2839L41.9885 28.8528L43.8642 29.5468L44.0746 28.978L42.1989 28.2839ZM44.2823 26.2005C43.3171 26.5577 42.5561 27.3187 42.1989 28.2839L44.0746 28.978C44.2292 28.5602 44.5586 28.2308 44.9764 28.0762L44.2823 26.2005ZM44.8512 25.99L44.2823 26.2005L44.9764 28.0762L45.5452 27.8658L44.8512 25.99ZM44.8512 27.2734C44.2555 27.053 44.2555 26.2105 44.8512 25.99L45.5452 27.8658C46.6908 27.4419 46.6908 25.8216 45.5452 25.3977L44.8512 27.2734ZM44.2823 27.0629L44.8512 27.2734L45.5452 25.3977L44.9764 25.1872L44.2823 27.0629ZM42.1989 24.9795C42.5561 25.9448 43.3171 26.7058 44.2823 27.0629L44.9764 25.1872C44.5586 25.0326 44.2292 24.7033 44.0746 24.2855L42.1989 24.9795ZM41.9885 24.4107L42.1989 24.9795L44.0746 24.2855L43.8642 23.7167L41.9885 24.4107Z" fill="url(#paint5_radial_3567_190106)" fill-opacity="0.3" mask="url(#path-4-inside-2_3567_190106)"/>
</g>
</g>
<defs>
<filter id="filter0_bd_3567_190106" x="-3986" y="-3980" width="8026" height="8026" filterUnits="userSpaceOnUse" color-interpolation-filters="sRGB">
<feFlood flood-opacity="0" result="BackgroundImageFix"/>
<feGaussianBlur in="BackgroundImageFix" stdDeviation="2000"/>
<feComposite in2="SourceAlpha" operator="in" result="effect1_backgroundBlur_3567_190106"/>
<feColorMatrix in="SourceAlpha" type="matrix" values="0 0 0 0 0 0 0 0 0 0 0 0 0 0 0 0 0 0 127 0" result="hardAlpha"/>
<feOffset dy="16"/>
<feGaussianBlur stdDeviation="8"/>
<feComposite in2="hardAlpha" operator="out"/>
<feColorMatrix type="matrix" values="0 0 0 0 0 0 0 0 0 0 0 0 0 0 0 0 0 0 0.25 0"/>
<feBlend mode="normal" in2="effect1_backgroundBlur_3567_190106" result="effect2_dropShadow_3567_190106"/>
<feBlend mode="normal" in="SourceGraphic" in2="effect2_dropShadow_3567_190106" result="shape"/>
</filter>
<filter id="filter1_bd_3567_190106" x="-3968.81" y="-3984.81" width="8014.22" height="8014.22" filterUnits="userSpaceOnUse" color-interpolation-filters="sRGB">
<feFlood flood-opacity="0" result="BackgroundImageFix"/>
<feGaussianBlur in="BackgroundImageFix" stdDeviation="2000"/>
<feComposite in2="SourceAlpha" operator="in" result="effect1_backgroundBlur_3567_190106"/>
<feColorMatrix in="SourceAlpha" type="matrix" values="0 0 0 0 0 0 0 0 0 0 0 0 0 0 0 0 0 0 127 0" result="hardAlpha"/>
<feOffset dy="16"/>
<feGaussianBlur stdDeviation="8"/>
<feComposite in2="hardAlpha" operator="out"/>
<feColorMatrix type="matrix" values="0 0 0 0 0 0 0 0 0 0 0 0 0 0 0 0 0 0 0.25 0"/>
<feBlend mode="normal" in2="effect1_backgroundBlur_3567_190106" result="effect2_dropShadow_3567_190106"/>
<feBlend mode="normal" in="SourceGraphic" in2="effect2_dropShadow_3567_190106" result="shape"/>
</filter>
<linearGradient id="paint0_linear_3567_190106" x1="15.0728" y1="20.6697" x2="27.3239" y2="52.1275" gradientUnits="userSpaceOnUse">
<stop stop-color="white" stop-opacity="0.6"/>
<stop offset="1" stop-color="white" stop-opacity="0.1"/>
</linearGradient>
<radialGradient id="paint1_radial_3567_190106" cx="0" cy="0" r="1" gradientUnits="userSpaceOnUse" gradientTransform="translate(27 20.2364) rotate(90) scale(22.5727)">
<stop stop-color="white"/>
<stop offset="1" stop-color="white" stop-opacity="0"/>
</radialGradient>
<radialGradient id="paint2_radial_3567_190106" cx="0" cy="0" r="1" gradientUnits="userSpaceOnUse" gradientTransform="translate(27 46) rotate(-90) scale(13)">
<stop stop-color="white"/>
<stop offset="1" stop-color="white" stop-opacity="0"/>
</radialGradient>
<linearGradient id="paint3_linear_3567_190106" x1="31.7749" y1="15.5547" x2="38.4747" y2="32.7562" gradientUnits="userSpaceOnUse">
<stop stop-color="white" stop-opacity="0.6"/>
<stop offset="1" stop-color="white" stop-opacity="0.1"/>
</linearGradient>
<radialGradient id="paint4_radial_3567_190106" cx="0" cy="0" r="1" gradientUnits="userSpaceOnUse" gradientTransform="translate(38.2964 15.3177) rotate(90) scale(12.3434 12.3421)">
<stop stop-color="white"/>
<stop offset="1" stop-color="white" stop-opacity="0"/>
</radialGradient>
<radialGradient id="paint5_radial_3567_190106" cx="0" cy="0" r="1" gradientUnits="userSpaceOnUse" gradientTransform="translate(38.2964 29.406) rotate(-90) scale(7.10876 7.10802)">
<stop stop-color="white"/>
<stop offset="1" stop-color="white" stop-opacity="0"/>
</radialGradient>
<clipPath id="clip0_3567_190106">
<rect width="32" height="32" fill="white" transform="translate(14 14)"/>
</clipPath>
</defs>
</svg>
