<svg width="272" height="257" viewBox="0 0 272 257" fill="none" xmlns="http://www.w3.org/2000/svg">
<g opacity="0.1">
<circle cx="1.13333" cy="1.13333" r="1.13333" fill="#D9D9D9"/>
<circle cx="17.0005" cy="1.13333" r="1.13333" fill="#D9D9D9"/>
<circle cx="32.8658" cy="1.13333" r="1.13333" fill="#D9D9D9"/>
<circle cx="48.7329" cy="1.13333" r="1.13333" fill="#D9D9D9"/>
<circle cx="64.6001" cy="1.13333" r="1.13333" fill="#D9D9D9"/>
<circle cx="80.4673" cy="1.13333" r="1.13333" fill="#D9D9D9"/>
<circle cx="96.3326" cy="1.13333" r="1.13333" fill="#D9D9D9"/>
<circle cx="112.2" cy="1.13333" r="1.13333" fill="#D9D9D9"/>
<circle cx="128.067" cy="1.13333" r="1.13333" fill="#D9D9D9"/>
<circle cx="143.934" cy="1.13333" r="1.13333" fill="#D9D9D9"/>
<circle cx="159.799" cy="1.13333" r="1.13333" fill="#D9D9D9"/>
<circle cx="175.667" cy="1.13333" r="1.13333" fill="#D9D9D9"/>
<circle cx="191.534" cy="1.13333" r="1.13333" fill="#D9D9D9"/>
<circle cx="207.401" cy="1.13333" r="1.13333" fill="#D9D9D9"/>
<circle cx="223.266" cy="1.13333" r="1.13333" fill="#D9D9D9"/>
<circle cx="239.133" cy="1.13333" r="1.13333" fill="#D9D9D9"/>
<circle cx="255.001" cy="1.13333" r="1.13333" fill="#D9D9D9"/>
<circle cx="270.866" cy="1.13333" r="1.13333" fill="#D9D9D9"/>
<circle cx="1.13333" cy="17.0005" r="1.13333" fill="#D9D9D9"/>
<circle cx="17.0005" cy="17.0005" r="1.13333" fill="#D9D9D9"/>
<circle cx="32.8658" cy="17.0005" r="1.13333" fill="#D9D9D9"/>
<circle cx="48.7329" cy="17.0005" r="1.13333" fill="#D9D9D9"/>
<circle cx="64.6001" cy="17.0005" r="1.13333" fill="#D9D9D9"/>
<circle cx="80.4673" cy="17.0005" r="1.13333" fill="#D9D9D9"/>
<circle cx="96.3326" cy="17.0005" r="1.13333" fill="#D9D9D9"/>
<circle cx="112.2" cy="17.0005" r="1.13333" fill="#D9D9D9"/>
<circle cx="128.067" cy="17.0005" r="1.13333" fill="#D9D9D9"/>
<circle cx="143.934" cy="17.0005" r="1.13333" fill="#D9D9D9"/>
<circle cx="159.799" cy="17.0005" r="1.13333" fill="#D9D9D9"/>
<circle cx="175.667" cy="17.0005" r="1.13333" fill="#D9D9D9"/>
<circle cx="191.534" cy="17.0005" r="1.13333" fill="#D9D9D9"/>
<circle cx="207.401" cy="17.0005" r="1.13333" fill="#D9D9D9"/>
<circle cx="223.266" cy="17.0005" r="1.13333" fill="#D9D9D9"/>
<circle cx="239.133" cy="17.0005" r="1.13333" fill="#D9D9D9"/>
<circle cx="255.001" cy="17.0005" r="1.13333" fill="#D9D9D9"/>
<circle cx="270.866" cy="17.0005" r="1.13333" fill="#D9D9D9"/>
<circle cx="1.13333" cy="32.8658" r="1.13333" fill="#D9D9D9"/>
<circle cx="17.0005" cy="32.8658" r="1.13333" fill="#D9D9D9"/>
<circle cx="32.8658" cy="32.8658" r="1.13333" fill="#D9D9D9"/>
<circle cx="48.7329" cy="32.8658" r="1.13333" fill="#D9D9D9"/>
<circle cx="64.6001" cy="32.8658" r="1.13333" fill="#D9D9D9"/>
<circle cx="80.4673" cy="32.8658" r="1.13333" fill="#D9D9D9"/>
<circle cx="96.3326" cy="32.8658" r="1.13333" fill="#D9D9D9"/>
<circle cx="112.2" cy="32.8658" r="1.13333" fill="#D9D9D9"/>
<circle cx="128.067" cy="32.8658" r="1.13333" fill="#D9D9D9"/>
<circle cx="143.934" cy="32.8658" r="1.13333" fill="#D9D9D9"/>
<circle cx="159.799" cy="32.8658" r="1.13333" fill="#D9D9D9"/>
<circle cx="175.667" cy="32.8658" r="1.13333" fill="#D9D9D9"/>
<circle cx="191.534" cy="32.8658" r="1.13333" fill="#D9D9D9"/>
<circle cx="207.401" cy="32.8658" r="1.13333" fill="#D9D9D9"/>
<circle cx="223.266" cy="32.8658" r="1.13333" fill="#D9D9D9"/>
<circle cx="239.133" cy="32.8658" r="1.13333" fill="#D9D9D9"/>
<circle cx="255.001" cy="32.8658" r="1.13333" fill="#D9D9D9"/>
<circle cx="270.866" cy="32.8658" r="1.13333" fill="#D9D9D9"/>
<circle cx="1.13333" cy="48.7329" r="1.13333" fill="#D9D9D9"/>
<circle cx="17.0005" cy="48.7329" r="1.13333" fill="#D9D9D9"/>
<circle cx="32.8658" cy="48.7329" r="1.13333" fill="#D9D9D9"/>
<circle cx="48.7329" cy="48.7329" r="1.13333" fill="#D9D9D9"/>
<circle cx="64.6001" cy="48.7329" r="1.13333" fill="#D9D9D9"/>
<circle cx="80.4673" cy="48.7329" r="1.13333" fill="#D9D9D9"/>
<circle cx="96.3326" cy="48.7329" r="1.13333" fill="#D9D9D9"/>
<circle cx="112.2" cy="48.7329" r="1.13333" fill="#D9D9D9"/>
<circle cx="128.067" cy="48.7329" r="1.13333" fill="#D9D9D9"/>
<circle cx="143.934" cy="48.7329" r="1.13333" fill="#D9D9D9"/>
<circle cx="159.799" cy="48.7329" r="1.13333" fill="#D9D9D9"/>
<circle cx="175.667" cy="48.7329" r="1.13333" fill="#D9D9D9"/>
<circle cx="191.534" cy="48.7329" r="1.13333" fill="#D9D9D9"/>
<circle cx="207.401" cy="48.7329" r="1.13333" fill="#D9D9D9"/>
<circle cx="223.266" cy="48.7329" r="1.13333" fill="#D9D9D9"/>
<circle cx="239.133" cy="48.7329" r="1.13333" fill="#D9D9D9"/>
<circle cx="255.001" cy="48.7329" r="1.13333" fill="#D9D9D9"/>
<circle cx="270.866" cy="48.7329" r="1.13333" fill="#D9D9D9"/>
<circle cx="1.13333" cy="64.6001" r="1.13333" fill="#D9D9D9"/>
<circle cx="17.0005" cy="64.6001" r="1.13333" fill="#D9D9D9"/>
<circle cx="32.8658" cy="64.6001" r="1.13333" fill="#D9D9D9"/>
<circle cx="48.7329" cy="64.6001" r="1.13333" fill="#D9D9D9"/>
<circle cx="64.6001" cy="64.6001" r="1.13333" fill="#D9D9D9"/>
<circle cx="80.4673" cy="64.6001" r="1.13333" fill="#D9D9D9"/>
<circle cx="96.3326" cy="64.6001" r="1.13333" fill="#D9D9D9"/>
<circle cx="112.2" cy="64.6001" r="1.13333" fill="#D9D9D9"/>
<circle cx="128.067" cy="64.6001" r="1.13333" fill="#D9D9D9"/>
<circle cx="143.934" cy="64.6001" r="1.13333" fill="#D9D9D9"/>
<circle cx="159.799" cy="64.6001" r="1.13333" fill="#D9D9D9"/>
<circle cx="175.667" cy="64.6001" r="1.13333" fill="#D9D9D9"/>
<circle cx="191.534" cy="64.6001" r="1.13333" fill="#D9D9D9"/>
<circle cx="207.401" cy="64.6001" r="1.13333" fill="#D9D9D9"/>
<circle cx="223.266" cy="64.6001" r="1.13333" fill="#D9D9D9"/>
<circle cx="239.133" cy="64.6001" r="1.13333" fill="#D9D9D9"/>
<circle cx="255.001" cy="64.6001" r="1.13333" fill="#D9D9D9"/>
<circle cx="270.866" cy="64.6001" r="1.13333" fill="#D9D9D9"/>
<circle cx="1.13333" cy="80.4673" r="1.13333" fill="#D9D9D9"/>
<circle cx="17.0005" cy="80.4673" r="1.13333" fill="#D9D9D9"/>
<circle cx="32.8658" cy="80.4673" r="1.13333" fill="#D9D9D9"/>
<circle cx="48.7329" cy="80.4673" r="1.13333" fill="#D9D9D9"/>
<circle cx="64.6001" cy="80.4673" r="1.13333" fill="#D9D9D9"/>
<circle cx="80.4673" cy="80.4673" r="1.13333" fill="#D9D9D9"/>
<circle cx="96.3326" cy="80.4673" r="1.13333" fill="#D9D9D9"/>
<circle cx="112.2" cy="80.4673" r="1.13333" fill="#D9D9D9"/>
<circle cx="128.067" cy="80.4673" r="1.13333" fill="#D9D9D9"/>
<circle cx="143.934" cy="80.4673" r="1.13333" fill="#D9D9D9"/>
<circle cx="159.799" cy="80.4673" r="1.13333" fill="#D9D9D9"/>
<circle cx="175.667" cy="80.4673" r="1.13333" fill="#D9D9D9"/>
<circle cx="191.534" cy="80.4673" r="1.13333" fill="#D9D9D9"/>
<circle cx="207.401" cy="80.4673" r="1.13333" fill="#D9D9D9"/>
<circle cx="223.266" cy="80.4673" r="1.13333" fill="#D9D9D9"/>
<circle cx="239.133" cy="80.4673" r="1.13333" fill="#D9D9D9"/>
<circle cx="255.001" cy="80.4673" r="1.13333" fill="#D9D9D9"/>
<circle cx="270.866" cy="80.4673" r="1.13333" fill="#D9D9D9"/>
<circle cx="1.13333" cy="96.3326" r="1.13333" fill="#D9D9D9"/>
<circle cx="17.0005" cy="96.3326" r="1.13333" fill="#D9D9D9"/>
<circle cx="32.8658" cy="96.3326" r="1.13333" fill="#D9D9D9"/>
<circle cx="48.7329" cy="96.3326" r="1.13333" fill="#D9D9D9"/>
<circle cx="64.6001" cy="96.3326" r="1.13333" fill="#D9D9D9"/>
<circle cx="80.4673" cy="96.3326" r="1.13333" fill="#D9D9D9"/>
<circle cx="96.3326" cy="96.3326" r="1.13333" fill="#D9D9D9"/>
<circle cx="112.2" cy="96.3326" r="1.13333" fill="#D9D9D9"/>
<circle cx="128.067" cy="96.3326" r="1.13333" fill="#D9D9D9"/>
<circle cx="143.934" cy="96.3326" r="1.13333" fill="#D9D9D9"/>
<circle cx="159.799" cy="96.3326" r="1.13333" fill="#D9D9D9"/>
<circle cx="175.667" cy="96.3326" r="1.13333" fill="#D9D9D9"/>
<circle cx="191.534" cy="96.3326" r="1.13333" fill="#D9D9D9"/>
<circle cx="207.401" cy="96.3326" r="1.13333" fill="#D9D9D9"/>
<circle cx="223.266" cy="96.3326" r="1.13333" fill="#D9D9D9"/>
<circle cx="239.133" cy="96.3326" r="1.13333" fill="#D9D9D9"/>
<circle cx="255.001" cy="96.3326" r="1.13333" fill="#D9D9D9"/>
<circle cx="270.866" cy="96.3326" r="1.13333" fill="#D9D9D9"/>
<circle cx="1.13333" cy="112.2" r="1.13333" fill="#D9D9D9"/>
<circle cx="17.0005" cy="112.2" r="1.13333" fill="#D9D9D9"/>
<circle cx="32.8658" cy="112.2" r="1.13333" fill="#D9D9D9"/>
<circle cx="48.7329" cy="112.2" r="1.13333" fill="#D9D9D9"/>
<circle cx="64.6001" cy="112.2" r="1.13333" fill="#D9D9D9"/>
<circle cx="80.4673" cy="112.2" r="1.13333" fill="#D9D9D9"/>
<circle cx="96.3326" cy="112.2" r="1.13333" fill="#D9D9D9"/>
<circle cx="112.2" cy="112.2" r="1.13333" fill="#D9D9D9"/>
<circle cx="128.067" cy="112.2" r="1.13333" fill="#D9D9D9"/>
<circle cx="143.934" cy="112.2" r="1.13333" fill="#D9D9D9"/>
<circle cx="159.799" cy="112.2" r="1.13333" fill="#D9D9D9"/>
<circle cx="175.667" cy="112.2" r="1.13333" fill="#D9D9D9"/>
<circle cx="191.534" cy="112.2" r="1.13333" fill="#D9D9D9"/>
<circle cx="207.401" cy="112.2" r="1.13333" fill="#D9D9D9"/>
<circle cx="223.266" cy="112.2" r="1.13333" fill="#D9D9D9"/>
<circle cx="239.133" cy="112.2" r="1.13333" fill="#D9D9D9"/>
<circle cx="255.001" cy="112.2" r="1.13333" fill="#D9D9D9"/>
<circle cx="270.866" cy="112.2" r="1.13333" fill="#D9D9D9"/>
<circle cx="1.13333" cy="128.067" r="1.13333" fill="#D9D9D9"/>
<circle cx="17.0005" cy="128.067" r="1.13333" fill="#D9D9D9"/>
<circle cx="32.8658" cy="128.067" r="1.13333" fill="#D9D9D9"/>
<circle cx="48.7329" cy="128.067" r="1.13333" fill="#D9D9D9"/>
<circle cx="64.6001" cy="128.067" r="1.13333" fill="#D9D9D9"/>
<circle cx="80.4673" cy="128.067" r="1.13333" fill="#D9D9D9"/>
<circle cx="96.3326" cy="128.067" r="1.13333" fill="#D9D9D9"/>
<circle cx="112.2" cy="128.067" r="1.13333" fill="#D9D9D9"/>
<circle cx="128.067" cy="128.067" r="1.13333" fill="#D9D9D9"/>
<circle cx="143.934" cy="128.067" r="1.13333" fill="#D9D9D9"/>
<circle cx="159.799" cy="128.067" r="1.13333" fill="#D9D9D9"/>
<circle cx="175.667" cy="128.067" r="1.13333" fill="#D9D9D9"/>
<circle cx="191.534" cy="128.067" r="1.13333" fill="#D9D9D9"/>
<circle cx="207.401" cy="128.067" r="1.13333" fill="#D9D9D9"/>
<circle cx="223.266" cy="128.067" r="1.13333" fill="#D9D9D9"/>
<circle cx="239.133" cy="128.067" r="1.13333" fill="#D9D9D9"/>
<circle cx="255.001" cy="128.067" r="1.13333" fill="#D9D9D9"/>
<circle cx="270.866" cy="128.067" r="1.13333" fill="#D9D9D9"/>
<circle cx="1.13333" cy="143.934" r="1.13333" fill="#D9D9D9"/>
<circle cx="17.0005" cy="143.934" r="1.13333" fill="#D9D9D9"/>
<circle cx="32.8658" cy="143.934" r="1.13333" fill="#D9D9D9"/>
<circle cx="48.7329" cy="143.934" r="1.13333" fill="#D9D9D9"/>
<circle cx="64.6001" cy="143.934" r="1.13333" fill="#D9D9D9"/>
<circle cx="80.4673" cy="143.934" r="1.13333" fill="#D9D9D9"/>
<circle cx="96.3326" cy="143.934" r="1.13333" fill="#D9D9D9"/>
<circle cx="112.2" cy="143.934" r="1.13333" fill="#D9D9D9"/>
<circle cx="128.067" cy="143.934" r="1.13333" fill="#D9D9D9"/>
<circle cx="143.934" cy="143.934" r="1.13333" fill="#D9D9D9"/>
<circle cx="159.799" cy="143.934" r="1.13333" fill="#D9D9D9"/>
<circle cx="175.667" cy="143.934" r="1.13333" fill="#D9D9D9"/>
<circle cx="191.534" cy="143.934" r="1.13333" fill="#D9D9D9"/>
<circle cx="207.401" cy="143.934" r="1.13333" fill="#D9D9D9"/>
<circle cx="223.266" cy="143.934" r="1.13333" fill="#D9D9D9"/>
<circle cx="239.133" cy="143.934" r="1.13333" fill="#D9D9D9"/>
<circle cx="255.001" cy="143.934" r="1.13333" fill="#D9D9D9"/>
<circle cx="270.866" cy="143.934" r="1.13333" fill="#D9D9D9"/>
<circle cx="1.13333" cy="159.799" r="1.13333" fill="#D9D9D9"/>
<circle cx="17.0005" cy="159.799" r="1.13333" fill="#D9D9D9"/>
<circle cx="32.8658" cy="159.799" r="1.13333" fill="#D9D9D9"/>
<circle cx="48.7329" cy="159.799" r="1.13333" fill="#D9D9D9"/>
<circle cx="64.6001" cy="159.799" r="1.13333" fill="#D9D9D9"/>
<circle cx="80.4673" cy="159.799" r="1.13333" fill="#D9D9D9"/>
<circle cx="96.3326" cy="159.799" r="1.13333" fill="#D9D9D9"/>
<circle cx="112.2" cy="159.799" r="1.13333" fill="#D9D9D9"/>
<circle cx="128.067" cy="159.799" r="1.13333" fill="#D9D9D9"/>
<circle cx="143.934" cy="159.799" r="1.13333" fill="#D9D9D9"/>
<circle cx="159.799" cy="159.799" r="1.13333" fill="#D9D9D9"/>
<circle cx="175.667" cy="159.799" r="1.13333" fill="#D9D9D9"/>
<circle cx="191.534" cy="159.799" r="1.13333" fill="#D9D9D9"/>
<circle cx="207.401" cy="159.799" r="1.13333" fill="#D9D9D9"/>
<circle cx="223.266" cy="159.799" r="1.13333" fill="#D9D9D9"/>
<circle cx="239.133" cy="159.799" r="1.13333" fill="#D9D9D9"/>
<circle cx="255.001" cy="159.799" r="1.13333" fill="#D9D9D9"/>
<circle cx="270.866" cy="159.799" r="1.13333" fill="#D9D9D9"/>
<circle cx="1.13333" cy="175.667" r="1.13333" fill="#D9D9D9"/>
<circle cx="17.0005" cy="175.667" r="1.13333" fill="#D9D9D9"/>
<circle cx="32.8658" cy="175.667" r="1.13333" fill="#D9D9D9"/>
<circle cx="48.7329" cy="175.667" r="1.13333" fill="#D9D9D9"/>
<circle cx="64.6001" cy="175.667" r="1.13333" fill="#D9D9D9"/>
<circle cx="80.4673" cy="175.667" r="1.13333" fill="#D9D9D9"/>
<circle cx="96.3326" cy="175.667" r="1.13333" fill="#D9D9D9"/>
<circle cx="112.2" cy="175.667" r="1.13333" fill="#D9D9D9"/>
<circle cx="128.067" cy="175.667" r="1.13333" fill="#D9D9D9"/>
<circle cx="143.934" cy="175.667" r="1.13333" fill="#D9D9D9"/>
<circle cx="159.799" cy="175.667" r="1.13333" fill="#D9D9D9"/>
<circle cx="175.667" cy="175.667" r="1.13333" fill="#D9D9D9"/>
<circle cx="191.534" cy="175.667" r="1.13333" fill="#D9D9D9"/>
<circle cx="207.401" cy="175.667" r="1.13333" fill="#D9D9D9"/>
<circle cx="223.266" cy="175.667" r="1.13333" fill="#D9D9D9"/>
<circle cx="239.133" cy="175.667" r="1.13333" fill="#D9D9D9"/>
<circle cx="255.001" cy="175.667" r="1.13333" fill="#D9D9D9"/>
<circle cx="270.866" cy="175.667" r="1.13333" fill="#D9D9D9"/>
<circle cx="1.13333" cy="191.534" r="1.13333" fill="#D9D9D9"/>
<circle cx="17.0005" cy="191.534" r="1.13333" fill="#D9D9D9"/>
<circle cx="32.8658" cy="191.534" r="1.13333" fill="#D9D9D9"/>
<circle cx="48.7329" cy="191.534" r="1.13333" fill="#D9D9D9"/>
<circle cx="64.6001" cy="191.534" r="1.13333" fill="#D9D9D9"/>
<circle cx="80.4673" cy="191.534" r="1.13333" fill="#D9D9D9"/>
<circle cx="96.3326" cy="191.534" r="1.13333" fill="#D9D9D9"/>
<circle cx="112.2" cy="191.534" r="1.13333" fill="#D9D9D9"/>
<circle cx="128.067" cy="191.534" r="1.13333" fill="#D9D9D9"/>
<circle cx="143.934" cy="191.534" r="1.13333" fill="#D9D9D9"/>
<circle cx="159.799" cy="191.534" r="1.13333" fill="#D9D9D9"/>
<circle cx="175.667" cy="191.534" r="1.13333" fill="#D9D9D9"/>
<circle cx="191.534" cy="191.534" r="1.13333" fill="#D9D9D9"/>
<circle cx="207.401" cy="191.534" r="1.13333" fill="#D9D9D9"/>
<circle cx="223.266" cy="191.534" r="1.13333" fill="#D9D9D9"/>
<circle cx="239.133" cy="191.534" r="1.13333" fill="#D9D9D9"/>
<circle cx="255.001" cy="191.534" r="1.13333" fill="#D9D9D9"/>
<circle cx="270.866" cy="191.534" r="1.13333" fill="#D9D9D9"/>
<circle cx="1.13333" cy="207.401" r="1.13333" fill="#D9D9D9"/>
<circle cx="17.0005" cy="207.401" r="1.13333" fill="#D9D9D9"/>
<circle cx="32.8658" cy="207.401" r="1.13333" fill="#D9D9D9"/>
<circle cx="48.7329" cy="207.401" r="1.13333" fill="#D9D9D9"/>
<circle cx="64.6001" cy="207.401" r="1.13333" fill="#D9D9D9"/>
<circle cx="80.4673" cy="207.401" r="1.13333" fill="#D9D9D9"/>
<circle cx="96.3326" cy="207.401" r="1.13333" fill="#D9D9D9"/>
<circle cx="112.2" cy="207.401" r="1.13333" fill="#D9D9D9"/>
<circle cx="128.067" cy="207.401" r="1.13333" fill="#D9D9D9"/>
<circle cx="143.934" cy="207.401" r="1.13333" fill="#D9D9D9"/>
<circle cx="159.799" cy="207.401" r="1.13333" fill="#D9D9D9"/>
<circle cx="175.667" cy="207.401" r="1.13333" fill="#D9D9D9"/>
<circle cx="191.534" cy="207.401" r="1.13333" fill="#D9D9D9"/>
<circle cx="207.401" cy="207.401" r="1.13333" fill="#D9D9D9"/>
<circle cx="223.266" cy="207.401" r="1.13333" fill="#D9D9D9"/>
<circle cx="239.133" cy="207.401" r="1.13333" fill="#D9D9D9"/>
<circle cx="255.001" cy="207.401" r="1.13333" fill="#D9D9D9"/>
<circle cx="270.866" cy="207.401" r="1.13333" fill="#D9D9D9"/>
<circle cx="1.13333" cy="223.266" r="1.13333" fill="#D9D9D9"/>
<circle cx="17.0005" cy="223.266" r="1.13333" fill="#D9D9D9"/>
<circle cx="32.8658" cy="223.266" r="1.13333" fill="#D9D9D9"/>
<circle cx="48.7329" cy="223.266" r="1.13333" fill="#D9D9D9"/>
<circle cx="64.6001" cy="223.266" r="1.13333" fill="#D9D9D9"/>
<circle cx="80.4673" cy="223.266" r="1.13333" fill="#D9D9D9"/>
<circle cx="96.3326" cy="223.266" r="1.13333" fill="#D9D9D9"/>
<circle cx="112.2" cy="223.266" r="1.13333" fill="#D9D9D9"/>
<circle cx="128.067" cy="223.266" r="1.13333" fill="#D9D9D9"/>
<circle cx="143.934" cy="223.266" r="1.13333" fill="#D9D9D9"/>
<circle cx="159.799" cy="223.266" r="1.13333" fill="#D9D9D9"/>
<circle cx="175.667" cy="223.266" r="1.13333" fill="#D9D9D9"/>
<circle cx="191.534" cy="223.266" r="1.13333" fill="#D9D9D9"/>
<circle cx="207.401" cy="223.266" r="1.13333" fill="#D9D9D9"/>
<circle cx="223.266" cy="223.266" r="1.13333" fill="#D9D9D9"/>
<circle cx="239.133" cy="223.266" r="1.13333" fill="#D9D9D9"/>
<circle cx="255.001" cy="223.266" r="1.13333" fill="#D9D9D9"/>
<circle cx="270.866" cy="223.266" r="1.13333" fill="#D9D9D9"/>
<circle cx="1.13333" cy="239.133" r="1.13333" fill="#D9D9D9"/>
<circle cx="17.0005" cy="239.133" r="1.13333" fill="#D9D9D9"/>
<circle cx="32.8658" cy="239.133" r="1.13333" fill="#D9D9D9"/>
<circle cx="48.7329" cy="239.133" r="1.13333" fill="#D9D9D9"/>
<circle cx="64.6001" cy="239.133" r="1.13333" fill="#D9D9D9"/>
<circle cx="80.4673" cy="239.133" r="1.13333" fill="#D9D9D9"/>
<circle cx="96.3326" cy="239.133" r="1.13333" fill="#D9D9D9"/>
<circle cx="112.2" cy="239.133" r="1.13333" fill="#D9D9D9"/>
<circle cx="128.067" cy="239.133" r="1.13333" fill="#D9D9D9"/>
<circle cx="143.934" cy="239.133" r="1.13333" fill="#D9D9D9"/>
<circle cx="159.799" cy="239.133" r="1.13333" fill="#D9D9D9"/>
<circle cx="175.667" cy="239.133" r="1.13333" fill="#D9D9D9"/>
<circle cx="191.534" cy="239.133" r="1.13333" fill="#D9D9D9"/>
<circle cx="207.401" cy="239.133" r="1.13333" fill="#D9D9D9"/>
<circle cx="223.266" cy="239.133" r="1.13333" fill="#D9D9D9"/>
<circle cx="239.133" cy="239.133" r="1.13333" fill="#D9D9D9"/>
<circle cx="255.001" cy="239.133" r="1.13333" fill="#D9D9D9"/>
<circle cx="270.866" cy="239.133" r="1.13333" fill="#D9D9D9"/>
<circle cx="1.13333" cy="255.001" r="1.13333" fill="#D9D9D9"/>
<circle cx="17.0005" cy="255.001" r="1.13333" fill="#D9D9D9"/>
<circle cx="32.8658" cy="255.001" r="1.13333" fill="#D9D9D9"/>
<circle cx="48.7329" cy="255.001" r="1.13333" fill="#D9D9D9"/>
<circle cx="64.6001" cy="255.001" r="1.13333" fill="#D9D9D9"/>
<circle cx="80.4673" cy="255.001" r="1.13333" fill="#D9D9D9"/>
<circle cx="96.3326" cy="255.001" r="1.13333" fill="#D9D9D9"/>
<circle cx="112.2" cy="255.001" r="1.13333" fill="#D9D9D9"/>
<circle cx="128.067" cy="255.001" r="1.13333" fill="#D9D9D9"/>
<circle cx="143.934" cy="255.001" r="1.13333" fill="#D9D9D9"/>
<circle cx="159.799" cy="255.001" r="1.13333" fill="#D9D9D9"/>
<circle cx="175.667" cy="255.001" r="1.13333" fill="#D9D9D9"/>
<circle cx="191.534" cy="255.001" r="1.13333" fill="#D9D9D9"/>
<circle cx="207.401" cy="255.001" r="1.13333" fill="#D9D9D9"/>
<circle cx="223.266" cy="255.001" r="1.13333" fill="#D9D9D9"/>
<circle cx="239.133" cy="255.001" r="1.13333" fill="#D9D9D9"/>
<circle cx="255.001" cy="255.001" r="1.13333" fill="#D9D9D9"/>
<circle cx="270.866" cy="255.001" r="1.13333" fill="#D9D9D9"/>
</g>
</svg>
