<svg width="60" height="60" viewBox="0 0 60 60" fill="none" xmlns="http://www.w3.org/2000/svg">
<rect width="60" height="60" rx="10" fill="#141414"/>
<g clip-path="url(#clip0_3030_3001)">
<g filter="url(#filter0_bd_3030_3001)">
<mask id="path-2-inside-1_3030_3001" fill="white">
<path fillRule="evenodd" clipRule="evenodd" d="M21.916 26.9695L30.0009 31.6372L38.0817 26.9719L31.328 23.1212V19.9832C31.8455 20.4476 32.6318 20.4349 33.1335 19.9517C33.6613 19.4431 33.677 18.603 33.1685 18.0752L32.5416 17.4245C31.8787 16.7363 31.0016 15.8258 30.9476 15.7709C30.4189 15.2323 29.5592 15.2458 29.0451 15.7793L26.8332 18.0752C26.3247 18.603 26.3404 19.4431 26.8683 19.9517C27.3726 20.4374 28.1609 20.4436 28.6738 19.9833V23.068L21.916 26.9695ZM14.9429 42.3994L17.9928 43.3278C18.6898 43.5401 19.4341 43.1502 19.6488 42.4448C19.8528 41.775 19.5004 41.0697 18.8574 40.8218L21.873 39.2853L28.6752 43.2125V33.9353L20.5904 29.2676V36.9599L17.6523 38.4568C17.8296 37.7909 17.4662 37.0912 16.8045 36.8625C16.1118 36.6232 15.3562 36.9905 15.1167 37.6832L14.0751 40.6962C13.8295 41.4068 14.2233 42.1803 14.9429 42.3994ZM31.3301 43.2124V33.9353L39.4149 29.2676V36.9599L42.353 38.4568C42.1757 37.7909 42.5391 37.0912 43.2008 36.8625C43.8936 36.6231 44.6492 36.9904 44.8886 37.6832L45.9302 40.6962C46.1759 41.4072 45.7816 42.1804 45.0624 42.3993L42.0125 43.3277C41.3099 43.5417 40.5694 43.1443 40.3565 42.4447C40.1526 41.775 40.5049 41.0697 41.148 40.8217L38.1323 39.2852L31.3301 43.2124Z"/>
</mask>
<path fillRule="evenodd" clipRule="evenodd" d="M21.916 26.9695L30.0009 31.6372L38.0817 26.9719L31.328 23.1212V19.9832C31.8455 20.4476 32.6318 20.4349 33.1335 19.9517C33.6613 19.4431 33.677 18.603 33.1685 18.0752L32.5416 17.4245C31.8787 16.7363 31.0016 15.8258 30.9476 15.7709C30.4189 15.2323 29.5592 15.2458 29.0451 15.7793L26.8332 18.0752C26.3247 18.603 26.3404 19.4431 26.8683 19.9517C27.3726 20.4374 28.1609 20.4436 28.6738 19.9833V23.068L21.916 26.9695ZM14.9429 42.3994L17.9928 43.3278C18.6898 43.5401 19.4341 43.1502 19.6488 42.4448C19.8528 41.775 19.5004 41.0697 18.8574 40.8218L21.873 39.2853L28.6752 43.2125V33.9353L20.5904 29.2676V36.9599L17.6523 38.4568C17.8296 37.7909 17.4662 37.0912 16.8045 36.8625C16.1118 36.6232 15.3562 36.9905 15.1167 37.6832L14.0751 40.6962C13.8295 41.4068 14.2233 42.1803 14.9429 42.3994ZM31.3301 43.2124V33.9353L39.4149 29.2676V36.9599L42.353 38.4568C42.1757 37.7909 42.5391 37.0912 43.2008 36.8625C43.8936 36.6231 44.6492 36.9904 44.8886 37.6832L45.9302 40.6962C46.1759 41.4072 45.7816 42.1804 45.0624 42.3993L42.0125 43.3277C41.3099 43.5417 40.5694 43.1443 40.3565 42.4447C40.1526 41.775 40.5049 41.0697 41.148 40.8217L38.1323 39.2852L31.3301 43.2124Z" fill="url(#paint0_linear_3030_3001)" shape-rendering="crispEdges"/>
<path fillRule="evenodd" clipRule="evenodd" d="M21.916 26.9695L30.0009 31.6372L38.0817 26.9719L31.328 23.1212V19.9832C31.8455 20.4476 32.6318 20.4349 33.1335 19.9517C33.6613 19.4431 33.677 18.603 33.1685 18.0752L32.5416 17.4245C31.8787 16.7363 31.0016 15.8258 30.9476 15.7709C30.4189 15.2323 29.5592 15.2458 29.0451 15.7793L26.8332 18.0752C26.3247 18.603 26.3404 19.4431 26.8683 19.9517C27.3726 20.4374 28.1609 20.4436 28.6738 19.9833V23.068L21.916 26.9695ZM14.9429 42.3994L17.9928 43.3278C18.6898 43.5401 19.4341 43.1502 19.6488 42.4448C19.8528 41.775 19.5004 41.0697 18.8574 40.8218L21.873 39.2853L28.6752 43.2125V33.9353L20.5904 29.2676V36.9599L17.6523 38.4568C17.8296 37.7909 17.4662 37.0912 16.8045 36.8625C16.1118 36.6232 15.3562 36.9905 15.1167 37.6832L14.0751 40.6962C13.8295 41.4068 14.2233 42.1803 14.9429 42.3994ZM31.3301 43.2124V33.9353L39.4149 29.2676V36.9599L42.353 38.4568C42.1757 37.7909 42.5391 37.0912 43.2008 36.8625C43.8936 36.6231 44.6492 36.9904 44.8886 37.6832L45.9302 40.6962C46.1759 41.4072 45.7816 42.1804 45.0624 42.3993L42.0125 43.3277C41.3099 43.5417 40.5694 43.1443 40.3565 42.4447C40.1526 41.775 40.5049 41.0697 41.148 40.8217L38.1323 39.2852L31.3301 43.2124Z" fill="#344254" fill-opacity="0.15" shape-rendering="crispEdges"/>
<path d="M30.0009 31.6372L29.5009 32.5033L30.0009 32.7919L30.5009 32.5033L30.0009 31.6372ZM21.916 26.9695L21.416 26.1035L19.916 26.9695L21.416 27.8356L21.916 26.9695ZM38.0817 26.9719L38.5816 27.838L40.0911 26.9665L38.577 26.1032L38.0817 26.9719ZM31.328 23.1212H30.328V23.7021L30.8327 23.9899L31.328 23.1212ZM31.328 19.9832L31.9959 19.239L30.328 17.7419V19.9832H31.328ZM33.1335 19.9517L33.8272 20.6719L33.8273 20.6718L33.1335 19.9517ZM33.1685 18.0752L33.8887 17.3814L33.8887 17.3814L33.1685 18.0752ZM32.5416 17.4245L31.8214 18.1182L31.8214 18.1183L32.5416 17.4245ZM30.9476 15.7709L30.234 16.4714L30.2348 16.4723L30.9476 15.7709ZM29.0451 15.7793L28.325 15.0854L28.3249 15.0855L29.0451 15.7793ZM26.8332 18.0752L27.5534 18.769L27.5534 18.769L26.8332 18.0752ZM26.8683 19.9517L26.1744 20.6718L26.1746 20.6719L26.8683 19.9517ZM28.6738 19.9833H29.6738V17.7424L28.0059 19.2391L28.6738 19.9833ZM28.6738 23.068L29.1738 23.934L29.6738 23.6454V23.068H28.6738ZM17.9928 43.3278L18.2841 42.3712L18.284 42.3712L17.9928 43.3278ZM14.9429 42.3994L15.2341 41.4427L15.2341 41.4427L14.9429 42.3994ZM19.6488 42.4448L18.6922 42.1535L18.6922 42.1536L19.6488 42.4448ZM18.8574 40.8218L18.4034 39.9307L16.4063 40.9483L18.4975 41.7548L18.8574 40.8218ZM21.873 39.2853L22.373 38.4192L21.9028 38.1478L21.419 38.3943L21.873 39.2853ZM28.6752 43.2125L28.1752 44.0785L29.6752 44.9445V43.2125H28.6752ZM28.6752 33.9353H29.6752V33.3579L29.1752 33.0692L28.6752 33.9353ZM20.5904 29.2676L21.0904 28.4015L19.5904 27.5355V29.2676H20.5904ZM20.5904 36.9599L21.0444 37.8509L21.5904 37.5727V36.9599H20.5904ZM17.6523 38.4568L16.686 38.1995L16.1094 40.3653L18.1063 39.3478L17.6523 38.4568ZM16.8045 36.8625L17.1311 35.9174L17.131 35.9174L16.8045 36.8625ZM15.1167 37.6832L14.1716 37.3565L14.1715 37.3565L15.1167 37.6832ZM14.0751 40.6962L15.0203 41.023L15.0203 41.0229L14.0751 40.6962ZM31.3301 33.9353L30.8301 33.0692L30.3301 33.3579V33.9353H31.3301ZM31.3301 43.2124H30.3301V44.9444L31.8301 44.0784L31.3301 43.2124ZM39.4149 29.2676H40.4149V27.5355L38.9149 28.4015L39.4149 29.2676ZM39.4149 36.9599H38.4149V37.5727L38.961 37.8509L39.4149 36.9599ZM42.353 38.4568L41.899 39.3478L43.8959 40.3653L43.3193 38.1995L42.353 38.4568ZM43.2008 36.8625L42.8742 35.9174L42.8742 35.9174L43.2008 36.8625ZM44.8886 37.6832L45.8338 37.3565L45.8338 37.3565L44.8886 37.6832ZM45.9302 40.6962L44.985 41.0229L44.9851 41.023L45.9302 40.6962ZM45.0624 42.3993L44.7713 41.4426L44.7712 41.4427L45.0624 42.3993ZM42.0125 43.3277L41.7213 42.3711L41.7212 42.3711L42.0125 43.3277ZM40.3565 42.4447L39.3998 42.7359L39.3998 42.7359L40.3565 42.4447ZM41.148 40.8217L41.5078 41.7547L43.599 40.9482L41.6019 39.9307L41.148 40.8217ZM38.1323 39.2852L38.5863 38.3942L38.1025 38.1477L37.6323 38.4191L38.1323 39.2852ZM30.5009 30.7712L22.416 26.1035L21.416 27.8356L29.5009 32.5033L30.5009 30.7712ZM37.5817 26.1059L29.5009 30.7712L30.5009 32.5033L38.5816 27.838L37.5817 26.1059ZM30.8327 23.9899L37.5863 27.8406L38.577 26.1032L31.8233 22.2525L30.8327 23.9899ZM30.328 19.9832V23.1212H32.328V19.9832H30.328ZM32.4397 19.2315C32.3163 19.3504 32.1241 19.354 31.9959 19.239L30.66 20.7274C31.5668 21.5413 32.9474 21.5194 33.8272 20.6719L32.4397 19.2315ZM32.4483 18.769C32.5736 18.899 32.5698 19.1061 32.4397 19.2315L33.8273 20.6718C34.7528 19.7801 34.7803 18.307 33.8887 17.3814L32.4483 18.769ZM31.8214 18.1183L32.4484 18.769L33.8887 17.3814L33.2618 16.7307L31.8214 18.1183ZM30.2348 16.4723C30.2345 16.472 30.2354 16.4729 30.2384 16.476C30.2411 16.4787 30.2447 16.4824 30.2492 16.4871C30.2583 16.4964 30.2704 16.5089 30.2855 16.5245C30.3156 16.5557 30.3566 16.5982 30.4066 16.65C30.5065 16.7536 30.6418 16.8939 30.7962 17.0541C31.105 17.3745 31.4899 17.7741 31.8214 18.1182L33.2618 16.7307C32.6034 16.0472 31.7193 15.1294 31.6605 15.0696L30.2348 16.4723ZM29.7651 16.4732C29.8929 16.3407 30.1042 16.3393 30.234 16.4714L31.6613 15.0704C30.7336 14.1254 29.2255 14.151 28.325 15.0854L29.7651 16.4732ZM27.5534 18.769L29.7652 16.4731L28.3249 15.0855L26.1131 17.3814L27.5534 18.769ZM27.5621 19.2315C27.4319 19.1061 27.4281 18.899 27.5534 18.769L26.1131 17.3813C25.2212 18.307 25.249 19.7802 26.1744 20.6718L27.5621 19.2315ZM28.0059 19.2391C27.8789 19.353 27.6848 19.3498 27.562 19.2314L26.1746 20.6719C27.0603 21.525 28.4428 21.5341 29.3416 20.7276L28.0059 19.2391ZM29.6738 23.068V19.9833H27.6738V23.068H29.6738ZM22.416 27.8356L29.1738 23.934L28.1738 22.202L21.416 26.1035L22.416 27.8356ZM18.284 42.3712L15.2341 41.4427L14.6517 43.356L17.7016 44.2845L18.284 42.3712ZM18.6922 42.1536C18.6395 42.3265 18.4568 42.4238 18.2841 42.3712L17.7015 44.2845C18.9228 44.6563 20.2287 43.9738 20.6055 42.736L18.6922 42.1536ZM18.4975 41.7548C18.6567 41.8162 18.7418 41.9906 18.6922 42.1535L20.6055 42.7361C20.9637 41.5595 20.344 40.3233 19.2172 39.8887L18.4975 41.7548ZM21.419 38.3943L18.4034 39.9307L19.3113 41.7128L22.327 40.1763L21.419 38.3943ZM29.1752 42.3464L22.373 38.4192L21.373 40.1513L28.1752 44.0785L29.1752 42.3464ZM27.6752 33.9353V43.2125H29.6752V33.9353H27.6752ZM20.0904 30.1336L28.1752 34.8013L29.1752 33.0692L21.0904 28.4015L20.0904 30.1336ZM21.5904 36.9599V29.2676H19.5904V36.9599H21.5904ZM18.1063 39.3478L21.0444 37.8509L20.1364 36.0689L17.1984 37.5658L18.1063 39.3478ZM16.4778 37.8077C16.6388 37.8633 16.7299 38.0347 16.686 38.1995L18.6187 38.7141C18.9294 37.5471 18.2935 36.3192 17.1311 35.9174L16.4778 37.8077ZM16.0618 38.01C16.1208 37.8393 16.307 37.7487 16.4779 37.8077L17.131 35.9174C15.9167 35.4978 14.5916 36.1416 14.1716 37.3565L16.0618 38.01ZM15.0203 41.0229L16.0618 38.0099L14.1715 37.3565L13.13 40.3695L15.0203 41.0229ZM15.2341 41.4427C15.057 41.3888 14.9598 41.198 15.0203 41.023L13.13 40.3695C12.6991 41.6157 13.3895 42.9718 14.6517 43.3561L15.2341 41.4427ZM30.3301 33.9353V43.2124H32.3301V33.9353H30.3301ZM38.9149 28.4015L30.8301 33.0692L31.8301 34.8013L39.9149 30.1336L38.9149 28.4015ZM40.4149 36.9599V29.2676H38.4149V36.9599H40.4149ZM42.807 37.5658L39.8689 36.0689L38.961 37.8509L41.899 39.3478L42.807 37.5658ZM42.8742 35.9174C41.7118 36.3192 41.0759 37.5471 41.3866 38.7141L43.3193 38.1995C43.2754 38.0347 43.3665 37.8633 43.5275 37.8077L42.8742 35.9174ZM45.8338 37.3565C45.4138 36.1416 44.0887 35.4977 42.8742 35.9174L43.5275 37.8077C43.6984 37.7486 43.8845 37.8392 43.9435 38.0099L45.8338 37.3565ZM46.8753 40.3695L45.8338 37.3565L43.9435 38.0099L44.985 41.0229L46.8753 40.3695ZM45.3536 43.356C46.615 42.9721 47.3064 41.6164 46.8753 40.3695L44.9851 41.023C45.0455 41.1979 44.9482 41.3888 44.7713 41.4426L45.3536 43.356ZM42.3038 44.2844L45.3536 43.356L44.7712 41.4427L41.7213 42.3711L42.3038 44.2844ZM39.3998 42.7359C39.7731 43.9624 41.0713 44.6598 42.3039 44.2843L41.7212 42.3711C41.5485 42.4237 41.3657 42.3263 41.3131 42.1535L39.3998 42.7359ZM40.7881 39.8887C39.6612 40.3233 39.0418 41.5595 39.3998 42.7359L41.3131 42.1535C41.2635 41.9904 41.3487 41.816 41.5078 41.7547L40.7881 39.8887ZM37.6783 40.1762L40.694 41.7127L41.6019 39.9307L38.5863 38.3942L37.6783 40.1762ZM31.8301 44.0784L38.6323 40.1512L37.6323 38.4191L30.8301 42.3463L31.8301 44.0784Z" fill="url(#paint1_radial_3030_3001)" fill-opacity="0.6" mask="url(#path-2-inside-1_3030_3001)"/>
<path d="M30.0009 31.6372L29.5009 32.5033L30.0009 32.7919L30.5009 32.5033L30.0009 31.6372ZM21.916 26.9695L21.416 26.1035L19.916 26.9695L21.416 27.8356L21.916 26.9695ZM38.0817 26.9719L38.5816 27.838L40.0911 26.9665L38.577 26.1032L38.0817 26.9719ZM31.328 23.1212H30.328V23.7021L30.8327 23.9899L31.328 23.1212ZM31.328 19.9832L31.9959 19.239L30.328 17.7419V19.9832H31.328ZM33.1335 19.9517L33.8272 20.6719L33.8273 20.6718L33.1335 19.9517ZM33.1685 18.0752L33.8887 17.3814L33.8887 17.3814L33.1685 18.0752ZM32.5416 17.4245L31.8214 18.1182L31.8214 18.1183L32.5416 17.4245ZM30.9476 15.7709L30.234 16.4714L30.2348 16.4723L30.9476 15.7709ZM29.0451 15.7793L28.325 15.0854L28.3249 15.0855L29.0451 15.7793ZM26.8332 18.0752L27.5534 18.769L27.5534 18.769L26.8332 18.0752ZM26.8683 19.9517L26.1744 20.6718L26.1746 20.6719L26.8683 19.9517ZM28.6738 19.9833H29.6738V17.7424L28.0059 19.2391L28.6738 19.9833ZM28.6738 23.068L29.1738 23.934L29.6738 23.6454V23.068H28.6738ZM17.9928 43.3278L18.2841 42.3712L18.284 42.3712L17.9928 43.3278ZM14.9429 42.3994L15.2341 41.4427L15.2341 41.4427L14.9429 42.3994ZM19.6488 42.4448L18.6922 42.1535L18.6922 42.1536L19.6488 42.4448ZM18.8574 40.8218L18.4034 39.9307L16.4063 40.9483L18.4975 41.7548L18.8574 40.8218ZM21.873 39.2853L22.373 38.4192L21.9028 38.1478L21.419 38.3943L21.873 39.2853ZM28.6752 43.2125L28.1752 44.0785L29.6752 44.9445V43.2125H28.6752ZM28.6752 33.9353H29.6752V33.3579L29.1752 33.0692L28.6752 33.9353ZM20.5904 29.2676L21.0904 28.4015L19.5904 27.5355V29.2676H20.5904ZM20.5904 36.9599L21.0444 37.8509L21.5904 37.5727V36.9599H20.5904ZM17.6523 38.4568L16.686 38.1995L16.1094 40.3653L18.1063 39.3478L17.6523 38.4568ZM16.8045 36.8625L17.1311 35.9174L17.131 35.9174L16.8045 36.8625ZM15.1167 37.6832L14.1716 37.3565L14.1715 37.3565L15.1167 37.6832ZM14.0751 40.6962L15.0203 41.023L15.0203 41.0229L14.0751 40.6962ZM31.3301 33.9353L30.8301 33.0692L30.3301 33.3579V33.9353H31.3301ZM31.3301 43.2124H30.3301V44.9444L31.8301 44.0784L31.3301 43.2124ZM39.4149 29.2676H40.4149V27.5355L38.9149 28.4015L39.4149 29.2676ZM39.4149 36.9599H38.4149V37.5727L38.961 37.8509L39.4149 36.9599ZM42.353 38.4568L41.899 39.3478L43.8959 40.3653L43.3193 38.1995L42.353 38.4568ZM43.2008 36.8625L42.8742 35.9174L42.8742 35.9174L43.2008 36.8625ZM44.8886 37.6832L45.8338 37.3565L45.8338 37.3565L44.8886 37.6832ZM45.9302 40.6962L44.985 41.0229L44.9851 41.023L45.9302 40.6962ZM45.0624 42.3993L44.7713 41.4426L44.7712 41.4427L45.0624 42.3993ZM42.0125 43.3277L41.7213 42.3711L41.7212 42.3711L42.0125 43.3277ZM40.3565 42.4447L39.3998 42.7359L39.3998 42.7359L40.3565 42.4447ZM41.148 40.8217L41.5078 41.7547L43.599 40.9482L41.6019 39.9307L41.148 40.8217ZM38.1323 39.2852L38.5863 38.3942L38.1025 38.1477L37.6323 38.4191L38.1323 39.2852ZM30.5009 30.7712L22.416 26.1035L21.416 27.8356L29.5009 32.5033L30.5009 30.7712ZM37.5817 26.1059L29.5009 30.7712L30.5009 32.5033L38.5816 27.838L37.5817 26.1059ZM30.8327 23.9899L37.5863 27.8406L38.577 26.1032L31.8233 22.2525L30.8327 23.9899ZM30.328 19.9832V23.1212H32.328V19.9832H30.328ZM32.4397 19.2315C32.3163 19.3504 32.1241 19.354 31.9959 19.239L30.66 20.7274C31.5668 21.5413 32.9474 21.5194 33.8272 20.6719L32.4397 19.2315ZM32.4483 18.769C32.5736 18.899 32.5698 19.1061 32.4397 19.2315L33.8273 20.6718C34.7528 19.7801 34.7803 18.307 33.8887 17.3814L32.4483 18.769ZM31.8214 18.1183L32.4484 18.769L33.8887 17.3814L33.2618 16.7307L31.8214 18.1183ZM30.2348 16.4723C30.2345 16.472 30.2354 16.4729 30.2384 16.476C30.2411 16.4787 30.2447 16.4824 30.2492 16.4871C30.2583 16.4964 30.2704 16.5089 30.2855 16.5245C30.3156 16.5557 30.3566 16.5982 30.4066 16.65C30.5065 16.7536 30.6418 16.8939 30.7962 17.0541C31.105 17.3745 31.4899 17.7741 31.8214 18.1182L33.2618 16.7307C32.6034 16.0472 31.7193 15.1294 31.6605 15.0696L30.2348 16.4723ZM29.7651 16.4732C29.8929 16.3407 30.1042 16.3393 30.234 16.4714L31.6613 15.0704C30.7336 14.1254 29.2255 14.151 28.325 15.0854L29.7651 16.4732ZM27.5534 18.769L29.7652 16.4731L28.3249 15.0855L26.1131 17.3814L27.5534 18.769ZM27.5621 19.2315C27.4319 19.1061 27.4281 18.899 27.5534 18.769L26.1131 17.3813C25.2212 18.307 25.249 19.7802 26.1744 20.6718L27.5621 19.2315ZM28.0059 19.2391C27.8789 19.353 27.6848 19.3498 27.562 19.2314L26.1746 20.6719C27.0603 21.525 28.4428 21.5341 29.3416 20.7276L28.0059 19.2391ZM29.6738 23.068V19.9833H27.6738V23.068H29.6738ZM22.416 27.8356L29.1738 23.934L28.1738 22.202L21.416 26.1035L22.416 27.8356ZM18.284 42.3712L15.2341 41.4427L14.6517 43.356L17.7016 44.2845L18.284 42.3712ZM18.6922 42.1536C18.6395 42.3265 18.4568 42.4238 18.2841 42.3712L17.7015 44.2845C18.9228 44.6563 20.2287 43.9738 20.6055 42.736L18.6922 42.1536ZM18.4975 41.7548C18.6567 41.8162 18.7418 41.9906 18.6922 42.1535L20.6055 42.7361C20.9637 41.5595 20.344 40.3233 19.2172 39.8887L18.4975 41.7548ZM21.419 38.3943L18.4034 39.9307L19.3113 41.7128L22.327 40.1763L21.419 38.3943ZM29.1752 42.3464L22.373 38.4192L21.373 40.1513L28.1752 44.0785L29.1752 42.3464ZM27.6752 33.9353V43.2125H29.6752V33.9353H27.6752ZM20.0904 30.1336L28.1752 34.8013L29.1752 33.0692L21.0904 28.4015L20.0904 30.1336ZM21.5904 36.9599V29.2676H19.5904V36.9599H21.5904ZM18.1063 39.3478L21.0444 37.8509L20.1364 36.0689L17.1984 37.5658L18.1063 39.3478ZM16.4778 37.8077C16.6388 37.8633 16.7299 38.0347 16.686 38.1995L18.6187 38.7141C18.9294 37.5471 18.2935 36.3192 17.1311 35.9174L16.4778 37.8077ZM16.0618 38.01C16.1208 37.8393 16.307 37.7487 16.4779 37.8077L17.131 35.9174C15.9167 35.4978 14.5916 36.1416 14.1716 37.3565L16.0618 38.01ZM15.0203 41.0229L16.0618 38.0099L14.1715 37.3565L13.13 40.3695L15.0203 41.0229ZM15.2341 41.4427C15.057 41.3888 14.9598 41.198 15.0203 41.023L13.13 40.3695C12.6991 41.6157 13.3895 42.9718 14.6517 43.3561L15.2341 41.4427ZM30.3301 33.9353V43.2124H32.3301V33.9353H30.3301ZM38.9149 28.4015L30.8301 33.0692L31.8301 34.8013L39.9149 30.1336L38.9149 28.4015ZM40.4149 36.9599V29.2676H38.4149V36.9599H40.4149ZM42.807 37.5658L39.8689 36.0689L38.961 37.8509L41.899 39.3478L42.807 37.5658ZM42.8742 35.9174C41.7118 36.3192 41.0759 37.5471 41.3866 38.7141L43.3193 38.1995C43.2754 38.0347 43.3665 37.8633 43.5275 37.8077L42.8742 35.9174ZM45.8338 37.3565C45.4138 36.1416 44.0887 35.4977 42.8742 35.9174L43.5275 37.8077C43.6984 37.7486 43.8845 37.8392 43.9435 38.0099L45.8338 37.3565ZM46.8753 40.3695L45.8338 37.3565L43.9435 38.0099L44.985 41.0229L46.8753 40.3695ZM45.3536 43.356C46.615 42.9721 47.3064 41.6164 46.8753 40.3695L44.9851 41.023C45.0455 41.1979 44.9482 41.3888 44.7713 41.4426L45.3536 43.356ZM42.3038 44.2844L45.3536 43.356L44.7712 41.4427L41.7213 42.3711L42.3038 44.2844ZM39.3998 42.7359C39.7731 43.9624 41.0713 44.6598 42.3039 44.2843L41.7212 42.3711C41.5485 42.4237 41.3657 42.3263 41.3131 42.1535L39.3998 42.7359ZM40.7881 39.8887C39.6612 40.3233 39.0418 41.5595 39.3998 42.7359L41.3131 42.1535C41.2635 41.9904 41.3487 41.816 41.5078 41.7547L40.7881 39.8887ZM37.6783 40.1762L40.694 41.7127L41.6019 39.9307L38.5863 38.3942L37.6783 40.1762ZM31.8301 44.0784L38.6323 40.1512L37.6323 38.4191L30.8301 42.3463L31.8301 44.0784Z" fill="url(#paint2_radial_3030_3001)" fill-opacity="0.3" mask="url(#path-2-inside-1_3030_3001)"/>
</g>
</g>
<defs>
<filter id="filter0_bd_3030_3001" x="-3986" y="-3984.63" width="8032" height="8028.01" filterUnits="userSpaceOnUse" color-interpolation-filters="sRGB">
<feFlood flood-opacity="0" result="BackgroundImageFix"/>
<feGaussianBlur in="BackgroundImageFix" stdDeviation="2000"/>
<feComposite in2="SourceAlpha" operator="in" result="effect1_backgroundBlur_3030_3001"/>
<feColorMatrix in="SourceAlpha" type="matrix" values="0 0 0 0 0 0 0 0 0 0 0 0 0 0 0 0 0 0 127 0" result="hardAlpha"/>
<feOffset dy="16"/>
<feGaussianBlur stdDeviation="8"/>
<feComposite in2="hardAlpha" operator="out"/>
<feColorMatrix type="matrix" values="0 0 0 0 0 0 0 0 0 0 0 0 0 0 0 0 0 0 0.25 0"/>
<feBlend mode="normal" in2="effect1_backgroundBlur_3030_3001" result="effect2_dropShadow_3030_3001"/>
<feBlend mode="normal" in="SourceGraphic" in2="effect2_dropShadow_3030_3001" result="shape"/>
</filter>
<linearGradient id="paint0_linear_3030_3001" x1="15.3224" y1="16.0946" x2="27.2436" y2="51.064" gradientUnits="userSpaceOnUse">
<stop stop-color="white" stop-opacity="0.6"/>
<stop offset="1" stop-color="white" stop-opacity="0.1"/>
</linearGradient>
<radialGradient id="paint1_radial_3030_3001" cx="0" cy="0" r="1" gradientUnits="userSpaceOnUse" gradientTransform="translate(30.0027 15.6277) rotate(90) scale(24.3201 27.783)">
<stop stop-color="white"/>
<stop offset="1" stop-color="white" stop-opacity="0"/>
</radialGradient>
<radialGradient id="paint2_radial_3030_3001" cx="0" cy="0" r="1" gradientUnits="userSpaceOnUse" gradientTransform="translate(30.0027 43.3857) rotate(-90) scale(14.0063 16.0007)">
<stop stop-color="white"/>
<stop offset="1" stop-color="white" stop-opacity="0"/>
</radialGradient>
<clipPath id="clip0_3030_3001">
<rect width="32" height="32" fill="white" transform="translate(14 14)"/>
</clipPath>
</defs>
</svg>
