<svg width="60" height="60" viewBox="0 0 60 60" fill="none" xmlns="http://www.w3.org/2000/svg">
<rect width="60" height="60" rx="10" fill="#141414"/>
<g clip-path="url(#clip0_3030_3028)">
<g filter="url(#filter0_bd_3030_3028)">
<path d="M41.5837 19.6072V26.3552L38.0634 24.4351C37.7616 24.2705 37.4233 24.1882 37.0758 24.1882C36.7375 24.1882 36.3901 24.2705 36.0884 24.4351L29.1575 28.2114L27.4568 24.8374V19.589C28.7735 20.869 31.3794 21.7011 34.534 21.7011C37.661 21.7011 40.267 20.8782 41.5837 19.6072ZM34.5297 14.498C30.6222 14.498 27.4547 15.9049 27.4547 17.6404C27.4547 19.3758 30.6222 20.7827 34.5297 20.7827C38.4371 20.7827 41.6047 19.3758 41.6047 17.6404C41.6047 15.9049 38.4371 14.498 34.5297 14.498ZM24.0737 20.165C23.6348 19.2872 22.3821 19.2872 21.9432 20.165L14.162 35.6177C13.7963 36.3309 14.0706 37.1995 14.7747 37.5836C17.344 38.9916 20.1785 39.6957 23.0131 39.6957C24.4303 39.6957 25.8567 39.522 27.2374 39.1654V30.479C27.2374 29.72 27.658 29.0252 28.3163 28.6686L28.3437 28.6502L24.0737 20.165ZM28.1517 30.479V40.2169C28.1517 40.6375 28.3803 41.0216 28.7552 41.2227L36.5273 45.4562C36.5547 45.4745 36.5821 45.4836 36.6187 45.5019V34.9227L28.1608 30.3235C28.1517 30.3784 28.1517 30.4241 28.1517 30.479ZM45.3965 29.4732L37.6245 25.2397C37.2862 25.0568 36.8747 25.0568 36.5273 25.2397L28.7552 29.4732C28.7186 29.4914 28.682 29.5189 28.6455 29.5372L37.0758 34.1364L45.5154 29.5463C45.4788 29.5189 45.4331 29.4914 45.3965 29.4732ZM45.9908 30.3235L37.533 34.9227V45.5019C37.5605 45.4927 37.597 45.4745 37.6245 45.4562L45.3965 41.2227C45.7714 41.0215 46 40.6375 46 40.2169V30.479C46 30.4241 46 30.3784 45.9908 30.3235Z" fill="url(#paint0_linear_3030_3028)" shape-rendering="crispEdges"/>
<path d="M41.5837 19.6072V26.3552L38.0634 24.4351C37.7616 24.2705 37.4233 24.1882 37.0758 24.1882C36.7375 24.1882 36.3901 24.2705 36.0884 24.4351L29.1575 28.2114L27.4568 24.8374V19.589C28.7735 20.869 31.3794 21.7011 34.534 21.7011C37.661 21.7011 40.267 20.8782 41.5837 19.6072ZM34.5297 14.498C30.6222 14.498 27.4547 15.9049 27.4547 17.6404C27.4547 19.3758 30.6222 20.7827 34.5297 20.7827C38.4371 20.7827 41.6047 19.3758 41.6047 17.6404C41.6047 15.9049 38.4371 14.498 34.5297 14.498ZM24.0737 20.165C23.6348 19.2872 22.3821 19.2872 21.9432 20.165L14.162 35.6177C13.7963 36.3309 14.0706 37.1995 14.7747 37.5836C17.344 38.9916 20.1785 39.6957 23.0131 39.6957C24.4303 39.6957 25.8567 39.522 27.2374 39.1654V30.479C27.2374 29.72 27.658 29.0252 28.3163 28.6686L28.3437 28.6502L24.0737 20.165ZM28.1517 30.479V40.2169C28.1517 40.6375 28.3803 41.0216 28.7552 41.2227L36.5273 45.4562C36.5547 45.4745 36.5821 45.4836 36.6187 45.5019V34.9227L28.1608 30.3235C28.1517 30.3784 28.1517 30.4241 28.1517 30.479ZM45.3965 29.4732L37.6245 25.2397C37.2862 25.0568 36.8747 25.0568 36.5273 25.2397L28.7552 29.4732C28.7186 29.4914 28.682 29.5189 28.6455 29.5372L37.0758 34.1364L45.5154 29.5463C45.4788 29.5189 45.4331 29.4914 45.3965 29.4732ZM45.9908 30.3235L37.533 34.9227V45.5019C37.5605 45.4927 37.597 45.4745 37.6245 45.4562L45.3965 41.2227C45.7714 41.0215 46 40.6375 46 40.2169V30.479C46 30.4241 46 30.3784 45.9908 30.3235Z" fill="#344254" fill-opacity="0.15" shape-rendering="crispEdges"/>
<path d="M37.0762 33.567L29.6862 29.5354L36.7629 25.6807C36.9657 25.5751 37.1991 25.5784 37.3862 25.6793C37.3864 25.6794 37.3865 25.6795 37.3867 25.6796L44.4772 29.5418L37.0762 33.567ZM45.1574 40.7836L38.033 44.6643V35.22L45.5 31.1596V40.2169C45.5 40.4531 45.3729 40.668 45.1601 40.7821L45.1574 40.7836ZM36.1187 44.6642L28.9944 40.7836L28.9916 40.7821C28.7789 40.668 28.6517 40.4531 28.6517 40.2169V31.1596L36.1187 35.22V44.6642ZM23.6265 20.3886L23.6271 20.3898L27.6987 28.4807C27.1019 28.9587 26.7374 29.6905 26.7374 30.479V38.7732C25.5164 39.0569 24.2616 39.1957 23.0131 39.1957C20.2614 39.1957 17.5097 38.5123 15.015 37.1451L15.0141 37.1446C14.5444 36.8884 14.3668 36.3141 14.6069 35.8458L14.6086 35.8425L22.3898 20.3899L22.3904 20.3886C22.6451 19.8793 23.3719 19.8794 23.6265 20.3886ZM38.3028 23.9961L38.0634 24.4351L38.3028 23.9961C37.9238 23.7894 37.5026 23.6882 37.0758 23.6882C36.6594 23.6882 36.2288 23.7889 35.8489 23.9961L29.3716 27.5253L27.9568 24.7185V20.6158C29.5107 21.6204 31.867 22.2011 34.534 22.2011C37.1782 22.2011 39.5307 21.6266 41.0837 20.6296V25.5129L38.3028 23.9961ZM27.9547 17.6404C27.9547 17.3693 28.0763 17.0734 28.3727 16.762C28.6716 16.4482 29.1278 16.1427 29.7298 15.8754C30.9326 15.3412 32.6291 14.998 34.5297 14.998C36.4302 14.998 38.1268 15.3412 39.3295 15.8754C39.9315 16.1427 40.3877 16.4482 40.6866 16.762C40.9831 17.0734 41.1047 17.3693 41.1047 17.6404C41.1047 17.9114 40.9831 18.2074 40.6866 18.5187C40.3877 18.8326 39.9315 19.138 39.3295 19.4054C38.1268 19.9395 36.4302 20.2827 34.5297 20.2827C32.6291 20.2827 30.9326 19.9395 29.7298 19.4054C29.1278 19.138 28.6716 18.8326 28.3727 18.5187C28.0763 18.2074 27.9547 17.9114 27.9547 17.6404Z" stroke="url(#paint1_radial_3030_3028)" stroke-opacity="0.6" shape-rendering="crispEdges"/>
<path d="M37.0762 33.567L29.6862 29.5354L36.7629 25.6807C36.9657 25.5751 37.1991 25.5784 37.3862 25.6793C37.3864 25.6794 37.3865 25.6795 37.3867 25.6796L44.4772 29.5418L37.0762 33.567ZM45.1574 40.7836L38.033 44.6643V35.22L45.5 31.1596V40.2169C45.5 40.4531 45.3729 40.668 45.1601 40.7821L45.1574 40.7836ZM36.1187 44.6642L28.9944 40.7836L28.9916 40.7821C28.7789 40.668 28.6517 40.4531 28.6517 40.2169V31.1596L36.1187 35.22V44.6642ZM23.6265 20.3886L23.6271 20.3898L27.6987 28.4807C27.1019 28.9587 26.7374 29.6905 26.7374 30.479V38.7732C25.5164 39.0569 24.2616 39.1957 23.0131 39.1957C20.2614 39.1957 17.5097 38.5123 15.015 37.1451L15.0141 37.1446C14.5444 36.8884 14.3668 36.3141 14.6069 35.8458L14.6086 35.8425L22.3898 20.3899L22.3904 20.3886C22.6451 19.8793 23.3719 19.8794 23.6265 20.3886ZM38.3028 23.9961L38.0634 24.4351L38.3028 23.9961C37.9238 23.7894 37.5026 23.6882 37.0758 23.6882C36.6594 23.6882 36.2288 23.7889 35.8489 23.9961L29.3716 27.5253L27.9568 24.7185V20.6158C29.5107 21.6204 31.867 22.2011 34.534 22.2011C37.1782 22.2011 39.5307 21.6266 41.0837 20.6296V25.5129L38.3028 23.9961ZM27.9547 17.6404C27.9547 17.3693 28.0763 17.0734 28.3727 16.762C28.6716 16.4482 29.1278 16.1427 29.7298 15.8754C30.9326 15.3412 32.6291 14.998 34.5297 14.998C36.4302 14.998 38.1268 15.3412 39.3295 15.8754C39.9315 16.1427 40.3877 16.4482 40.6866 16.762C40.9831 17.0734 41.1047 17.3693 41.1047 17.6404C41.1047 17.9114 40.9831 18.2074 40.6866 18.5187C40.3877 18.8326 39.9315 19.138 39.3295 19.4054C38.1268 19.9395 36.4302 20.2827 34.5297 20.2827C32.6291 20.2827 30.9326 19.9395 29.7298 19.4054C29.1278 19.138 28.6716 18.8326 28.3727 18.5187C28.0763 18.2074 27.9547 17.9114 27.9547 17.6404Z" stroke="url(#paint2_radial_3030_3028)" stroke-opacity="0.3" shape-rendering="crispEdges"/>
</g>
</g>
<defs>
<filter id="filter0_bd_3030_3028" x="-3986" y="-3985.5" width="8032" height="8031" filterUnits="userSpaceOnUse" color-interpolation-filters="sRGB">
<feFlood flood-opacity="0" result="BackgroundImageFix"/>
<feGaussianBlur in="BackgroundImageFix" stdDeviation="2000"/>
<feComposite in2="SourceAlpha" operator="in" result="effect1_backgroundBlur_3030_3028"/>
<feColorMatrix in="SourceAlpha" type="matrix" values="0 0 0 0 0 0 0 0 0 0 0 0 0 0 0 0 0 0 127 0" result="hardAlpha"/>
<feOffset dy="16"/>
<feGaussianBlur stdDeviation="8"/>
<feComposite in2="hardAlpha" operator="out"/>
<feColorMatrix type="matrix" values="0 0 0 0 0 0 0 0 0 0 0 0 0 0 0 0 0 0 0.25 0"/>
<feBlend mode="normal" in2="effect1_backgroundBlur_3030_3028" result="effect2_dropShadow_3030_3028"/>
<feBlend mode="normal" in="SourceGraphic" in2="effect2_dropShadow_3030_3028" result="shape"/>
</filter>
<linearGradient id="paint0_linear_3030_3028" x1="15.3204" y1="15.2966" x2="29.5896" y2="53.1139" gradientUnits="userSpaceOnUse">
<stop stop-color="white" stop-opacity="0.6"/>
<stop offset="1" stop-color="white" stop-opacity="0.1"/>
</linearGradient>
<radialGradient id="paint1_radial_3030_3028" cx="0" cy="0" r="1" gradientUnits="userSpaceOnUse" gradientTransform="translate(30 14.7799) rotate(90) scale(26.917 27.7818)">
<stop stop-color="white"/>
<stop offset="1" stop-color="white" stop-opacity="0"/>
</radialGradient>
<radialGradient id="paint2_radial_3030_3028" cx="0" cy="0" r="1" gradientUnits="userSpaceOnUse" gradientTransform="translate(30 45.5019) rotate(-90) scale(15.5019 16)">
<stop stop-color="white"/>
<stop offset="1" stop-color="white" stop-opacity="0"/>
</radialGradient>
<clipPath id="clip0_3030_3028">
<rect width="32" height="32" fill="white" transform="translate(14 14)"/>
</clipPath>
</defs>
</svg>
