<svg width="60" height="60" viewBox="0 0 60 60" fill="none" xmlns="http://www.w3.org/2000/svg">
<rect width="60" height="60" rx="10" fill="#141414"/>
<g clip-path="url(#clip0_3567_190103)">
<g filter="url(#filter0_bd_3567_190103)">
<mask id="path-2-inside-1_3567_190103" fill="white">
<path fillRule="evenodd" clipRule="evenodd" d="M29.2326 20.2427C29.0169 21.4122 29.5747 22.7124 30.9058 23.205L32.0435 23.626C32.879 23.9352 33.5378 24.5939 33.847 25.4295L34.268 26.5671C34.7606 27.8984 36.061 28.4561 37.2305 28.2403L39.7972 30.807L39.799 30.8087C40.7305 31.7422 40.7301 33.2597 39.7978 34.1926C39.3453 34.6449 38.7443 34.8939 38.1052 34.8939H37.7132V42.6989C37.7132 44.2434 36.4566 45.5 34.9117 45.5H30.7623C30.3416 45.5 30.0006 45.159 30.0006 44.7383V38.6191C30.0006 37.9144 29.4273 37.3411 28.7225 37.3411H26.2751C25.5703 37.3411 24.9971 37.9144 24.9971 38.6191V44.7383C24.9971 45.159 24.6559 45.5 24.2353 45.5H20.086C18.5411 45.5 17.2845 44.2434 17.2845 42.6989V34.8939H16.8618C16.837 34.8939 16.8124 34.8927 16.788 34.8903C16.1871 34.8645 15.6251 34.6179 15.1997 34.1922C14.2683 33.2609 14.2668 31.746 15.1951 30.8123L15.2058 30.8014L25.8062 20.2012C26.2585 19.7489 26.8595 19.5 27.4988 19.5C28.1382 19.5 28.7392 19.7491 29.1913 20.2014L29.2326 20.2427Z"/>
</mask>
<path fillRule="evenodd" clipRule="evenodd" d="M29.2326 20.2427C29.0169 21.4122 29.5747 22.7124 30.9058 23.205L32.0435 23.626C32.879 23.9352 33.5378 24.5939 33.847 25.4295L34.268 26.5671C34.7606 27.8984 36.061 28.4561 37.2305 28.2403L39.7972 30.807L39.799 30.8087C40.7305 31.7422 40.7301 33.2597 39.7978 34.1926C39.3453 34.6449 38.7443 34.8939 38.1052 34.8939H37.7132V42.6989C37.7132 44.2434 36.4566 45.5 34.9117 45.5H30.7623C30.3416 45.5 30.0006 45.159 30.0006 44.7383V38.6191C30.0006 37.9144 29.4273 37.3411 28.7225 37.3411H26.2751C25.5703 37.3411 24.9971 37.9144 24.9971 38.6191V44.7383C24.9971 45.159 24.6559 45.5 24.2353 45.5H20.086C18.5411 45.5 17.2845 44.2434 17.2845 42.6989V34.8939H16.8618C16.837 34.8939 16.8124 34.8927 16.788 34.8903C16.1871 34.8645 15.6251 34.6179 15.1997 34.1922C14.2683 33.2609 14.2668 31.746 15.1951 30.8123L15.2058 30.8014L25.8062 20.2012C26.2585 19.7489 26.8595 19.5 27.4988 19.5C28.1382 19.5 28.7392 19.7491 29.1913 20.2014L29.2326 20.2427Z" fill="url(#paint0_linear_3567_190103)" shape-rendering="crispEdges"/>
<path fillRule="evenodd" clipRule="evenodd" d="M29.2326 20.2427C29.0169 21.4122 29.5747 22.7124 30.9058 23.205L32.0435 23.626C32.879 23.9352 33.5378 24.5939 33.847 25.4295L34.268 26.5671C34.7606 27.8984 36.061 28.4561 37.2305 28.2403L39.7972 30.807L39.799 30.8087C40.7305 31.7422 40.7301 33.2597 39.7978 34.1926C39.3453 34.6449 38.7443 34.8939 38.1052 34.8939H37.7132V42.6989C37.7132 44.2434 36.4566 45.5 34.9117 45.5H30.7623C30.3416 45.5 30.0006 45.159 30.0006 44.7383V38.6191C30.0006 37.9144 29.4273 37.3411 28.7225 37.3411H26.2751C25.5703 37.3411 24.9971 37.9144 24.9971 38.6191V44.7383C24.9971 45.159 24.6559 45.5 24.2353 45.5H20.086C18.5411 45.5 17.2845 44.2434 17.2845 42.6989V34.8939H16.8618C16.837 34.8939 16.8124 34.8927 16.788 34.8903C16.1871 34.8645 15.6251 34.6179 15.1997 34.1922C14.2683 33.2609 14.2668 31.746 15.1951 30.8123L15.2058 30.8014L25.8062 20.2012C26.2585 19.7489 26.8595 19.5 27.4988 19.5C28.1382 19.5 28.7392 19.7491 29.1913 20.2014L29.2326 20.2427Z" fill="#344254" fill-opacity="0.15" shape-rendering="crispEdges"/>
<path d="M29.2326 20.2427L30.216 20.4241L30.3113 19.9073L29.9397 19.5356L29.2326 20.2427ZM30.9058 23.205L30.5588 24.1429V24.1429L30.9058 23.205ZM32.0435 23.626L32.3905 22.6881L32.0435 23.626ZM33.847 25.4295L34.7849 25.0825V25.0825L33.847 25.4295ZM34.268 26.5671L33.3301 26.9142V26.9142L34.268 26.5671ZM37.2305 28.2403L37.9376 27.5332L37.5659 27.1615L37.049 27.2569L37.2305 28.2403ZM39.7972 30.807L40.5043 30.0999L40.5043 30.0998L39.7972 30.807ZM39.799 30.8087L40.5069 30.1024L40.5061 30.1016L39.799 30.8087ZM39.7978 34.1926L40.5048 34.8999L40.5051 34.8995L39.7978 34.1926ZM37.7132 34.8939V33.8939H36.7132V34.8939H37.7132ZM17.2845 34.8939H18.2845V33.8939H17.2845V34.8939ZM16.788 34.8903L16.8851 33.895L16.858 33.8924L16.8308 33.8912L16.788 34.8903ZM15.1997 34.1922L15.9069 33.4853L15.9068 33.4851L15.1997 34.1922ZM15.1951 30.8123L15.9042 31.5174L15.9087 31.5129L15.1951 30.8123ZM15.2058 30.8014L14.4987 30.0943L14.4922 30.1008L15.2058 30.8014ZM25.8062 20.2012L26.5133 20.9083L26.5133 20.9083L25.8062 20.2012ZM29.1913 20.2014L28.484 20.9084L28.4842 20.9085L29.1913 20.2014ZM28.2492 20.0614C27.9566 21.6481 28.7159 23.4609 30.5588 24.1429L31.2529 22.2672C30.4334 21.9639 30.0773 21.1762 30.216 20.4241L28.2492 20.0614ZM30.5588 24.1429L31.6964 24.5638L32.3905 22.6881L31.2529 22.2672L30.5588 24.1429ZM31.6964 24.5638C32.2583 24.7717 32.7013 25.2147 32.9092 25.7765L34.7849 25.0825C34.3744 23.9732 33.4998 23.0986 32.3905 22.6881L31.6964 24.5638ZM32.9092 25.7765L33.3301 26.9142L35.2058 26.2201L34.7849 25.0825L32.9092 25.7765ZM33.3301 26.9142C34.0121 28.7572 35.8252 29.5165 37.4119 29.2237L37.049 27.2569C36.2968 27.3957 35.5091 27.0396 35.2058 26.2201L33.3301 26.9142ZM40.5043 30.0998L37.9376 27.5332L36.5234 28.9474L39.0901 31.5141L40.5043 30.0998ZM40.5061 30.1016L40.5043 30.0999L39.0901 31.5141L39.0919 31.5159L40.5061 30.1016ZM40.5051 34.8995C41.8275 33.5763 41.828 31.4264 40.5069 30.1024L39.0911 31.5151C39.633 32.0581 39.6327 32.9432 39.0905 33.4858L40.5051 34.8995ZM38.1052 35.8939C39.0096 35.8939 39.8649 35.5395 40.5048 34.8999L39.0909 33.4854C38.8258 33.7504 38.479 33.8939 38.1052 33.8939V35.8939ZM37.7132 35.8939H38.1052V33.8939H37.7132V35.8939ZM38.7132 42.6989V34.8939H36.7132V42.6989H38.7132ZM34.9117 46.5C37.0088 46.5 38.7132 44.7957 38.7132 42.6989H36.7132C36.7132 43.691 35.9044 44.5 34.9117 44.5V46.5ZM30.7623 46.5H34.9117V44.5H30.7623V46.5ZM29.0006 44.7383C29.0006 45.7113 29.7893 46.5 30.7623 46.5V44.5C30.8939 44.5 31.0006 44.6067 31.0006 44.7383H29.0006ZM29.0006 38.6191V44.7383H31.0006V38.6191H29.0006ZM28.7225 38.3411C28.875 38.3411 29.0006 38.4666 29.0006 38.6191H31.0006C31.0006 37.3621 29.9796 36.3411 28.7225 36.3411V38.3411ZM26.2751 38.3411H28.7225V36.3411H26.2751V38.3411ZM25.9971 38.6191C25.9971 38.4666 26.1226 38.3411 26.2751 38.3411V36.3411C25.0181 36.3411 23.9971 37.3621 23.9971 38.6191H25.9971ZM25.9971 44.7383V38.6191H23.9971V44.7383H25.9971ZM24.2353 46.5C25.208 46.5 25.9971 45.7115 25.9971 44.7383H23.9971C23.9971 44.6066 24.1038 44.5 24.2353 44.5V46.5ZM20.086 46.5H24.2353V44.5H20.086V46.5ZM16.2845 42.6989C16.2845 44.7957 17.9889 46.5 20.086 46.5V44.5C19.0933 44.5 18.2845 43.691 18.2845 42.6989H16.2845ZM16.2845 34.8939V42.6989H18.2845V34.8939H16.2845ZM16.8618 35.8939H17.2845V33.8939H16.8618V35.8939ZM16.6909 35.8856C16.7479 35.8911 16.8049 35.8939 16.8618 35.8939V33.8939C16.869 33.8939 16.8768 33.8942 16.8851 33.895L16.6909 35.8856ZM14.4924 34.8992C15.0953 35.5024 15.8945 35.8529 16.7451 35.8894L16.8308 33.8912C16.4797 33.8761 16.155 33.7335 15.9069 33.4853L14.4924 34.8992ZM14.486 30.1072C13.1692 31.4316 13.1713 33.5781 14.4926 34.8994L15.9068 33.4851C15.3654 32.9438 15.3643 32.0605 15.9042 31.5174L14.486 30.1072ZM14.4922 30.1008L14.4815 30.1117L15.9087 31.5129L15.9194 31.502L14.4922 30.1008ZM25.0991 19.4941L14.4987 30.0943L15.9129 31.5085L26.5133 20.9083L25.0991 19.4941ZM27.4988 18.5C26.5942 18.5 25.7389 18.8543 25.0991 19.4941L26.5133 20.9083C26.7781 20.6436 27.1248 20.5 27.4988 20.5V18.5ZM29.8985 19.4945C29.259 18.8547 28.4036 18.5 27.4988 18.5V20.5C27.8727 20.5 28.2194 20.6436 28.484 20.9084L29.8985 19.4945ZM29.9397 19.5356L29.8984 19.4943L28.4842 20.9085L28.5255 20.9499L29.9397 19.5356Z" fill="url(#paint1_radial_3567_190103)" fill-opacity="0.6" mask="url(#path-2-inside-1_3567_190103)"/>
<path d="M29.2326 20.2427L30.216 20.4241L30.3113 19.9073L29.9397 19.5356L29.2326 20.2427ZM30.9058 23.205L30.5588 24.1429V24.1429L30.9058 23.205ZM32.0435 23.626L32.3905 22.6881L32.0435 23.626ZM33.847 25.4295L34.7849 25.0825V25.0825L33.847 25.4295ZM34.268 26.5671L33.3301 26.9142V26.9142L34.268 26.5671ZM37.2305 28.2403L37.9376 27.5332L37.5659 27.1615L37.049 27.2569L37.2305 28.2403ZM39.7972 30.807L40.5043 30.0999L40.5043 30.0998L39.7972 30.807ZM39.799 30.8087L40.5069 30.1024L40.5061 30.1016L39.799 30.8087ZM39.7978 34.1926L40.5048 34.8999L40.5051 34.8995L39.7978 34.1926ZM37.7132 34.8939V33.8939H36.7132V34.8939H37.7132ZM17.2845 34.8939H18.2845V33.8939H17.2845V34.8939ZM16.788 34.8903L16.8851 33.895L16.858 33.8924L16.8308 33.8912L16.788 34.8903ZM15.1997 34.1922L15.9069 33.4853L15.9068 33.4851L15.1997 34.1922ZM15.1951 30.8123L15.9042 31.5174L15.9087 31.5129L15.1951 30.8123ZM15.2058 30.8014L14.4987 30.0943L14.4922 30.1008L15.2058 30.8014ZM25.8062 20.2012L26.5133 20.9083L26.5133 20.9083L25.8062 20.2012ZM29.1913 20.2014L28.484 20.9084L28.4842 20.9085L29.1913 20.2014ZM28.2492 20.0614C27.9566 21.6481 28.7159 23.4609 30.5588 24.1429L31.2529 22.2672C30.4334 21.9639 30.0773 21.1762 30.216 20.4241L28.2492 20.0614ZM30.5588 24.1429L31.6964 24.5638L32.3905 22.6881L31.2529 22.2672L30.5588 24.1429ZM31.6964 24.5638C32.2583 24.7717 32.7013 25.2147 32.9092 25.7765L34.7849 25.0825C34.3744 23.9732 33.4998 23.0986 32.3905 22.6881L31.6964 24.5638ZM32.9092 25.7765L33.3301 26.9142L35.2058 26.2201L34.7849 25.0825L32.9092 25.7765ZM33.3301 26.9142C34.0121 28.7572 35.8252 29.5165 37.4119 29.2237L37.049 27.2569C36.2968 27.3957 35.5091 27.0396 35.2058 26.2201L33.3301 26.9142ZM40.5043 30.0998L37.9376 27.5332L36.5234 28.9474L39.0901 31.5141L40.5043 30.0998ZM40.5061 30.1016L40.5043 30.0999L39.0901 31.5141L39.0919 31.5159L40.5061 30.1016ZM40.5051 34.8995C41.8275 33.5763 41.828 31.4264 40.5069 30.1024L39.0911 31.5151C39.633 32.0581 39.6327 32.9432 39.0905 33.4858L40.5051 34.8995ZM38.1052 35.8939C39.0096 35.8939 39.8649 35.5395 40.5048 34.8999L39.0909 33.4854C38.8258 33.7504 38.479 33.8939 38.1052 33.8939V35.8939ZM37.7132 35.8939H38.1052V33.8939H37.7132V35.8939ZM38.7132 42.6989V34.8939H36.7132V42.6989H38.7132ZM34.9117 46.5C37.0088 46.5 38.7132 44.7957 38.7132 42.6989H36.7132C36.7132 43.691 35.9044 44.5 34.9117 44.5V46.5ZM30.7623 46.5H34.9117V44.5H30.7623V46.5ZM29.0006 44.7383C29.0006 45.7113 29.7893 46.5 30.7623 46.5V44.5C30.8939 44.5 31.0006 44.6067 31.0006 44.7383H29.0006ZM29.0006 38.6191V44.7383H31.0006V38.6191H29.0006ZM28.7225 38.3411C28.875 38.3411 29.0006 38.4666 29.0006 38.6191H31.0006C31.0006 37.3621 29.9796 36.3411 28.7225 36.3411V38.3411ZM26.2751 38.3411H28.7225V36.3411H26.2751V38.3411ZM25.9971 38.6191C25.9971 38.4666 26.1226 38.3411 26.2751 38.3411V36.3411C25.0181 36.3411 23.9971 37.3621 23.9971 38.6191H25.9971ZM25.9971 44.7383V38.6191H23.9971V44.7383H25.9971ZM24.2353 46.5C25.208 46.5 25.9971 45.7115 25.9971 44.7383H23.9971C23.9971 44.6066 24.1038 44.5 24.2353 44.5V46.5ZM20.086 46.5H24.2353V44.5H20.086V46.5ZM16.2845 42.6989C16.2845 44.7957 17.9889 46.5 20.086 46.5V44.5C19.0933 44.5 18.2845 43.691 18.2845 42.6989H16.2845ZM16.2845 34.8939V42.6989H18.2845V34.8939H16.2845ZM16.8618 35.8939H17.2845V33.8939H16.8618V35.8939ZM16.6909 35.8856C16.7479 35.8911 16.8049 35.8939 16.8618 35.8939V33.8939C16.869 33.8939 16.8768 33.8942 16.8851 33.895L16.6909 35.8856ZM14.4924 34.8992C15.0953 35.5024 15.8945 35.8529 16.7451 35.8894L16.8308 33.8912C16.4797 33.8761 16.155 33.7335 15.9069 33.4853L14.4924 34.8992ZM14.486 30.1072C13.1692 31.4316 13.1713 33.5781 14.4926 34.8994L15.9068 33.4851C15.3654 32.9438 15.3643 32.0605 15.9042 31.5174L14.486 30.1072ZM14.4922 30.1008L14.4815 30.1117L15.9087 31.5129L15.9194 31.502L14.4922 30.1008ZM25.0991 19.4941L14.4987 30.0943L15.9129 31.5085L26.5133 20.9083L25.0991 19.4941ZM27.4988 18.5C26.5942 18.5 25.7389 18.8543 25.0991 19.4941L26.5133 20.9083C26.7781 20.6436 27.1248 20.5 27.4988 20.5V18.5ZM29.8985 19.4945C29.259 18.8547 28.4036 18.5 27.4988 18.5V20.5C27.8727 20.5 28.2194 20.6436 28.484 20.9084L29.8985 19.4945ZM29.9397 19.5356L29.8984 19.4943L28.4842 20.9085L28.5255 20.9499L29.9397 19.5356Z" fill="url(#paint2_radial_3567_190103)" fill-opacity="0.3" mask="url(#path-2-inside-1_3567_190103)"/>
</g>
<g filter="url(#filter1_bd_3567_190103)">
<mask id="path-4-inside-2_3567_190103" fill="white">
<path fillRule="evenodd" clipRule="evenodd" d="M37.3292 15.6009C37.1257 15.051 36.348 15.051 36.1445 15.6009L35.7236 16.7385C35.2118 18.1215 34.1214 19.2119 32.7384 19.7237L31.6008 20.1446C31.0509 20.3481 31.0509 21.1258 31.6008 21.3293L32.7384 21.7503C34.1214 22.262 35.2118 23.3524 35.7236 24.7354L36.1445 25.8731C36.348 26.4229 37.1257 26.4229 37.3292 25.8731L37.7501 24.7354C38.2619 23.3524 39.3523 22.262 40.7353 21.7503L41.873 21.3293C42.4228 21.1258 42.4228 20.3481 41.873 20.1446L40.7353 19.7237C39.3523 19.2119 38.2619 18.1215 37.7501 16.7385L37.3292 15.6009ZM42.9263 24.0637C42.8246 23.7888 42.4357 23.7888 42.334 24.0637L42.1235 24.6325C41.8676 25.324 41.3224 25.8692 40.6309 26.1251L40.0621 26.3356C39.7872 26.4373 39.7872 26.8262 40.0621 26.9279L40.6309 27.1384C41.3224 27.3943 41.8676 27.9395 42.1235 28.631L42.334 29.1998C42.4357 29.4747 42.8246 29.4747 42.9263 29.1998L43.1368 28.631C43.3927 27.9395 43.9379 27.3943 44.6294 27.1384L45.1982 26.9279C45.4731 26.8262 45.4731 26.4373 45.1982 26.3356L44.6294 26.1251C43.9379 25.8692 43.3927 25.324 43.1368 24.6325L42.9263 24.0637Z"/>
</mask>
<path fillRule="evenodd" clipRule="evenodd" d="M37.3292 15.6009C37.1257 15.051 36.348 15.051 36.1445 15.6009L35.7236 16.7385C35.2118 18.1215 34.1214 19.2119 32.7384 19.7237L31.6008 20.1446C31.0509 20.3481 31.0509 21.1258 31.6008 21.3293L32.7384 21.7503C34.1214 22.262 35.2118 23.3524 35.7236 24.7354L36.1445 25.8731C36.348 26.4229 37.1257 26.4229 37.3292 25.8731L37.7501 24.7354C38.2619 23.3524 39.3523 22.262 40.7353 21.7503L41.873 21.3293C42.4228 21.1258 42.4228 20.3481 41.873 20.1446L40.7353 19.7237C39.3523 19.2119 38.2619 18.1215 37.7501 16.7385L37.3292 15.6009ZM42.9263 24.0637C42.8246 23.7888 42.4357 23.7888 42.334 24.0637L42.1235 24.6325C41.8676 25.324 41.3224 25.8692 40.6309 26.1251L40.0621 26.3356C39.7872 26.4373 39.7872 26.8262 40.0621 26.9279L40.6309 27.1384C41.3224 27.3943 41.8676 27.9395 42.1235 28.631L42.334 29.1998C42.4357 29.4747 42.8246 29.4747 42.9263 29.1998L43.1368 28.631C43.3927 27.9395 43.9379 27.3943 44.6294 27.1384L45.1982 26.9279C45.4731 26.8262 45.4731 26.4373 45.1982 26.3356L44.6294 26.1251C43.9379 25.8692 43.3927 25.324 43.1368 24.6325L42.9263 24.0637Z" fill="url(#paint3_linear_3567_190103)" shape-rendering="crispEdges"/>
<path fillRule="evenodd" clipRule="evenodd" d="M37.3292 15.6009C37.1257 15.051 36.348 15.051 36.1445 15.6009L35.7236 16.7385C35.2118 18.1215 34.1214 19.2119 32.7384 19.7237L31.6008 20.1446C31.0509 20.3481 31.0509 21.1258 31.6008 21.3293L32.7384 21.7503C34.1214 22.262 35.2118 23.3524 35.7236 24.7354L36.1445 25.8731C36.348 26.4229 37.1257 26.4229 37.3292 25.8731L37.7501 24.7354C38.2619 23.3524 39.3523 22.262 40.7353 21.7503L41.873 21.3293C42.4228 21.1258 42.4228 20.3481 41.873 20.1446L40.7353 19.7237C39.3523 19.2119 38.2619 18.1215 37.7501 16.7385L37.3292 15.6009ZM42.9263 24.0637C42.8246 23.7888 42.4357 23.7888 42.334 24.0637L42.1235 24.6325C41.8676 25.324 41.3224 25.8692 40.6309 26.1251L40.0621 26.3356C39.7872 26.4373 39.7872 26.8262 40.0621 26.9279L40.6309 27.1384C41.3224 27.3943 41.8676 27.9395 42.1235 28.631L42.334 29.1998C42.4357 29.4747 42.8246 29.4747 42.9263 29.1998L43.1368 28.631C43.3927 27.9395 43.9379 27.3943 44.6294 27.1384L45.1982 26.9279C45.4731 26.8262 45.4731 26.4373 45.1982 26.3356L44.6294 26.1251C43.9379 25.8692 43.3927 25.324 43.1368 24.6325L42.9263 24.0637Z" fill="#344254" fill-opacity="0.15" shape-rendering="crispEdges"/>
<path d="M36.1445 15.6009L35.2067 15.2538L35.2067 15.2538L36.1445 15.6009ZM37.3292 15.6009L38.267 15.2538L38.267 15.2538L37.3292 15.6009ZM35.7236 16.7385L36.6614 17.0855L35.7236 16.7385ZM32.7384 19.7237L32.3914 18.7858L32.7384 19.7237ZM31.6008 20.1446L31.2537 19.2068H31.2537L31.6008 20.1446ZM31.6008 21.3293L31.9478 20.3915L31.9478 20.3915L31.6008 21.3293ZM32.7384 21.7503L32.3914 22.6881L32.3914 22.6881L32.7384 21.7503ZM35.7236 24.7354L34.7857 25.0825L35.7236 24.7354ZM36.1445 25.8731L37.0824 25.526H37.0824L36.1445 25.8731ZM37.3292 25.8731L38.267 26.2201L38.267 26.2201L37.3292 25.8731ZM37.7501 24.7354L36.8123 24.3884L37.7501 24.7354ZM40.7353 21.7503L40.3883 20.8124L40.7353 21.7503ZM41.873 21.3293L41.5259 20.3915L41.5259 20.3915L41.873 21.3293ZM41.873 20.1446L41.5259 21.0825V21.0825L41.873 20.1446ZM40.7353 19.7237L41.0824 18.7858L40.7353 19.7237ZM37.7501 16.7385L36.8123 17.0855V17.0855L37.7501 16.7385ZM42.334 24.0637L41.3961 23.7167V23.7167L42.334 24.0637ZM42.9263 24.0637L43.8642 23.7167V23.7167L42.9263 24.0637ZM42.1235 24.6325L43.0614 24.9795L43.0614 24.9795L42.1235 24.6325ZM40.6309 26.1251L40.978 27.0629H40.978L40.6309 26.1251ZM40.0621 26.3356L39.7151 25.3977H39.7151L40.0621 26.3356ZM40.0621 26.9279L39.7151 27.8658H39.7151L40.0621 26.9279ZM40.6309 27.1384L40.978 26.2005H40.978L40.6309 27.1384ZM42.1235 28.631L43.0614 28.2839V28.2839L42.1235 28.631ZM42.334 29.1998L41.3961 29.5468V29.5468L42.334 29.1998ZM42.9263 29.1998L43.8642 29.5468V29.5468L42.9263 29.1998ZM43.1368 28.631L42.1989 28.2839V28.2839L43.1368 28.631ZM44.6294 27.1384L44.2823 26.2005H44.2823L44.6294 27.1384ZM45.1982 26.9279L45.5452 27.8658H45.5452L45.1982 26.9279ZM45.1982 26.3356L45.5452 25.3977H45.5452L45.1982 26.3356ZM44.6294 26.1251L44.2823 27.0629H44.2823L44.6294 26.1251ZM43.1368 24.6325L42.1989 24.9795V24.9795L43.1368 24.6325ZM37.0824 15.9479C36.9637 16.2687 36.51 16.2687 36.3913 15.9479L38.267 15.2538C37.7414 13.8334 35.7323 13.8334 35.2067 15.2538L37.0824 15.9479ZM36.6614 17.0855L37.0824 15.9479L35.2067 15.2538L34.7857 16.3915L36.6614 17.0855ZM33.0854 20.6615C34.7421 20.0485 36.0484 18.7423 36.6614 17.0855L34.7857 16.3915C34.3752 17.5008 33.5006 18.3754 32.3914 18.7858L33.0854 20.6615ZM31.9478 21.0825L33.0854 20.6615L32.3914 18.7858L31.2537 19.2068L31.9478 21.0825ZM31.9478 20.3915C32.2685 20.5101 32.2685 20.9638 31.9478 21.0825L31.2537 19.2068C29.8332 19.7324 29.8332 21.7415 31.2537 22.2672L31.9478 20.3915ZM33.0854 20.8124L31.9478 20.3915L31.2537 22.2672L32.3914 22.6881L33.0854 20.8124ZM36.6614 24.3884C36.0484 22.7317 34.7421 21.4255 33.0854 20.8124L32.3914 22.6881C33.5006 23.0986 34.3752 23.9732 34.7857 25.0825L36.6614 24.3884ZM37.0824 25.526L36.6614 24.3884L34.7857 25.0825L35.2067 26.2201L37.0824 25.526ZM36.3913 25.526C36.51 25.2053 36.9637 25.2053 37.0824 25.526L35.2067 26.2201C35.7323 27.6406 37.7414 27.6406 38.267 26.2201L36.3913 25.526ZM36.8123 24.3884L36.3913 25.526L38.267 26.2201L38.688 25.0825L36.8123 24.3884ZM40.3883 20.8124C38.7316 21.4255 37.4253 22.7317 36.8123 24.3884L38.688 25.0825C39.0985 23.9732 39.9731 23.0986 41.0824 22.6881L40.3883 20.8124ZM41.5259 20.3915L40.3883 20.8124L41.0824 22.6881L42.22 22.2672L41.5259 20.3915ZM41.5259 21.0825C41.2052 20.9638 41.2052 20.5101 41.5259 20.3915L42.22 22.2672C43.6405 21.7415 43.6405 19.7324 42.22 19.2068L41.5259 21.0825ZM40.3883 20.6615L41.5259 21.0825L42.22 19.2068L41.0824 18.7858L40.3883 20.6615ZM36.8123 17.0855C37.4253 18.7423 38.7316 20.0485 40.3883 20.6615L41.0824 18.7858C39.9731 18.3754 39.0985 17.5008 38.688 16.3915L36.8123 17.0855ZM36.3913 15.9479L36.8123 17.0855L38.688 16.3915L38.267 15.2538L36.3913 15.9479ZM43.2718 24.4107C43.0514 25.0064 42.2089 25.0064 41.9885 24.4107L43.8642 23.7167C43.4403 22.5711 41.82 22.5711 41.3961 23.7167L43.2718 24.4107ZM43.0614 24.9795L43.2718 24.4107L41.3961 23.7167L41.1857 24.2855L43.0614 24.9795ZM40.978 27.0629C41.9432 26.7058 42.7042 25.9448 43.0614 24.9795L41.1857 24.2855C41.0311 24.7033 40.7017 25.0326 40.2839 25.1872L40.978 27.0629ZM40.4091 27.2734L40.978 27.0629L40.2839 25.1872L39.7151 25.3977L40.4091 27.2734ZM40.4091 25.99C41.0048 26.2105 41.0048 27.053 40.4091 27.2734L39.7151 25.3977C38.5695 25.8216 38.5695 27.4419 39.7151 27.8658L40.4091 25.99ZM40.978 26.2005L40.4091 25.99L39.7151 27.8658L40.2839 28.0762L40.978 26.2005ZM43.0614 28.2839C42.7042 27.3187 41.9432 26.5577 40.978 26.2005L40.2839 28.0762C40.7017 28.2308 41.0311 28.5602 41.1857 28.978L43.0614 28.2839ZM43.2718 28.8528L43.0614 28.2839L41.1857 28.978L41.3961 29.5468L43.2718 28.8528ZM41.9885 28.8528C42.2089 28.2571 43.0514 28.2571 43.2718 28.8528L41.3961 29.5468C41.82 30.6924 43.4403 30.6924 43.8642 29.5468L41.9885 28.8528ZM42.1989 28.2839L41.9885 28.8528L43.8642 29.5468L44.0746 28.978L42.1989 28.2839ZM44.2823 26.2005C43.3171 26.5577 42.5561 27.3187 42.1989 28.2839L44.0746 28.978C44.2292 28.5602 44.5586 28.2308 44.9764 28.0762L44.2823 26.2005ZM44.8512 25.99L44.2823 26.2005L44.9764 28.0762L45.5452 27.8658L44.8512 25.99ZM44.8512 27.2734C44.2555 27.053 44.2555 26.2105 44.8512 25.99L45.5452 27.8658C46.6908 27.4419 46.6908 25.8216 45.5452 25.3977L44.8512 27.2734ZM44.2823 27.0629L44.8512 27.2734L45.5452 25.3977L44.9764 25.1872L44.2823 27.0629ZM42.1989 24.9795C42.5561 25.9448 43.3171 26.7058 44.2823 27.0629L44.9764 25.1872C44.5586 25.0326 44.2292 24.7033 44.0746 24.2855L42.1989 24.9795ZM41.9885 24.4107L42.1989 24.9795L44.0746 24.2855L43.8642 23.7167L41.9885 24.4107Z" fill="url(#paint4_radial_3567_190103)" fill-opacity="0.6" mask="url(#path-4-inside-2_3567_190103)"/>
<path d="M36.1445 15.6009L35.2067 15.2538L35.2067 15.2538L36.1445 15.6009ZM37.3292 15.6009L38.267 15.2538L38.267 15.2538L37.3292 15.6009ZM35.7236 16.7385L36.6614 17.0855L35.7236 16.7385ZM32.7384 19.7237L32.3914 18.7858L32.7384 19.7237ZM31.6008 20.1446L31.2537 19.2068H31.2537L31.6008 20.1446ZM31.6008 21.3293L31.9478 20.3915L31.9478 20.3915L31.6008 21.3293ZM32.7384 21.7503L32.3914 22.6881L32.3914 22.6881L32.7384 21.7503ZM35.7236 24.7354L34.7857 25.0825L35.7236 24.7354ZM36.1445 25.8731L37.0824 25.526H37.0824L36.1445 25.8731ZM37.3292 25.8731L38.267 26.2201L38.267 26.2201L37.3292 25.8731ZM37.7501 24.7354L36.8123 24.3884L37.7501 24.7354ZM40.7353 21.7503L40.3883 20.8124L40.7353 21.7503ZM41.873 21.3293L41.5259 20.3915L41.5259 20.3915L41.873 21.3293ZM41.873 20.1446L41.5259 21.0825V21.0825L41.873 20.1446ZM40.7353 19.7237L41.0824 18.7858L40.7353 19.7237ZM37.7501 16.7385L36.8123 17.0855V17.0855L37.7501 16.7385ZM42.334 24.0637L41.3961 23.7167V23.7167L42.334 24.0637ZM42.9263 24.0637L43.8642 23.7167V23.7167L42.9263 24.0637ZM42.1235 24.6325L43.0614 24.9795L43.0614 24.9795L42.1235 24.6325ZM40.6309 26.1251L40.978 27.0629H40.978L40.6309 26.1251ZM40.0621 26.3356L39.7151 25.3977H39.7151L40.0621 26.3356ZM40.0621 26.9279L39.7151 27.8658H39.7151L40.0621 26.9279ZM40.6309 27.1384L40.978 26.2005H40.978L40.6309 27.1384ZM42.1235 28.631L43.0614 28.2839V28.2839L42.1235 28.631ZM42.334 29.1998L41.3961 29.5468V29.5468L42.334 29.1998ZM42.9263 29.1998L43.8642 29.5468V29.5468L42.9263 29.1998ZM43.1368 28.631L42.1989 28.2839V28.2839L43.1368 28.631ZM44.6294 27.1384L44.2823 26.2005H44.2823L44.6294 27.1384ZM45.1982 26.9279L45.5452 27.8658H45.5452L45.1982 26.9279ZM45.1982 26.3356L45.5452 25.3977H45.5452L45.1982 26.3356ZM44.6294 26.1251L44.2823 27.0629H44.2823L44.6294 26.1251ZM43.1368 24.6325L42.1989 24.9795V24.9795L43.1368 24.6325ZM37.0824 15.9479C36.9637 16.2687 36.51 16.2687 36.3913 15.9479L38.267 15.2538C37.7414 13.8334 35.7323 13.8334 35.2067 15.2538L37.0824 15.9479ZM36.6614 17.0855L37.0824 15.9479L35.2067 15.2538L34.7857 16.3915L36.6614 17.0855ZM33.0854 20.6615C34.7421 20.0485 36.0484 18.7423 36.6614 17.0855L34.7857 16.3915C34.3752 17.5008 33.5006 18.3754 32.3914 18.7858L33.0854 20.6615ZM31.9478 21.0825L33.0854 20.6615L32.3914 18.7858L31.2537 19.2068L31.9478 21.0825ZM31.9478 20.3915C32.2685 20.5101 32.2685 20.9638 31.9478 21.0825L31.2537 19.2068C29.8332 19.7324 29.8332 21.7415 31.2537 22.2672L31.9478 20.3915ZM33.0854 20.8124L31.9478 20.3915L31.2537 22.2672L32.3914 22.6881L33.0854 20.8124ZM36.6614 24.3884C36.0484 22.7317 34.7421 21.4255 33.0854 20.8124L32.3914 22.6881C33.5006 23.0986 34.3752 23.9732 34.7857 25.0825L36.6614 24.3884ZM37.0824 25.526L36.6614 24.3884L34.7857 25.0825L35.2067 26.2201L37.0824 25.526ZM36.3913 25.526C36.51 25.2053 36.9637 25.2053 37.0824 25.526L35.2067 26.2201C35.7323 27.6406 37.7414 27.6406 38.267 26.2201L36.3913 25.526ZM36.8123 24.3884L36.3913 25.526L38.267 26.2201L38.688 25.0825L36.8123 24.3884ZM40.3883 20.8124C38.7316 21.4255 37.4253 22.7317 36.8123 24.3884L38.688 25.0825C39.0985 23.9732 39.9731 23.0986 41.0824 22.6881L40.3883 20.8124ZM41.5259 20.3915L40.3883 20.8124L41.0824 22.6881L42.22 22.2672L41.5259 20.3915ZM41.5259 21.0825C41.2052 20.9638 41.2052 20.5101 41.5259 20.3915L42.22 22.2672C43.6405 21.7415 43.6405 19.7324 42.22 19.2068L41.5259 21.0825ZM40.3883 20.6615L41.5259 21.0825L42.22 19.2068L41.0824 18.7858L40.3883 20.6615ZM36.8123 17.0855C37.4253 18.7423 38.7316 20.0485 40.3883 20.6615L41.0824 18.7858C39.9731 18.3754 39.0985 17.5008 38.688 16.3915L36.8123 17.0855ZM36.3913 15.9479L36.8123 17.0855L38.688 16.3915L38.267 15.2538L36.3913 15.9479ZM43.2718 24.4107C43.0514 25.0064 42.2089 25.0064 41.9885 24.4107L43.8642 23.7167C43.4403 22.5711 41.82 22.5711 41.3961 23.7167L43.2718 24.4107ZM43.0614 24.9795L43.2718 24.4107L41.3961 23.7167L41.1857 24.2855L43.0614 24.9795ZM40.978 27.0629C41.9432 26.7058 42.7042 25.9448 43.0614 24.9795L41.1857 24.2855C41.0311 24.7033 40.7017 25.0326 40.2839 25.1872L40.978 27.0629ZM40.4091 27.2734L40.978 27.0629L40.2839 25.1872L39.7151 25.3977L40.4091 27.2734ZM40.4091 25.99C41.0048 26.2105 41.0048 27.053 40.4091 27.2734L39.7151 25.3977C38.5695 25.8216 38.5695 27.4419 39.7151 27.8658L40.4091 25.99ZM40.978 26.2005L40.4091 25.99L39.7151 27.8658L40.2839 28.0762L40.978 26.2005ZM43.0614 28.2839C42.7042 27.3187 41.9432 26.5577 40.978 26.2005L40.2839 28.0762C40.7017 28.2308 41.0311 28.5602 41.1857 28.978L43.0614 28.2839ZM43.2718 28.8528L43.0614 28.2839L41.1857 28.978L41.3961 29.5468L43.2718 28.8528ZM41.9885 28.8528C42.2089 28.2571 43.0514 28.2571 43.2718 28.8528L41.3961 29.5468C41.82 30.6924 43.4403 30.6924 43.8642 29.5468L41.9885 28.8528ZM42.1989 28.2839L41.9885 28.8528L43.8642 29.5468L44.0746 28.978L42.1989 28.2839ZM44.2823 26.2005C43.3171 26.5577 42.5561 27.3187 42.1989 28.2839L44.0746 28.978C44.2292 28.5602 44.5586 28.2308 44.9764 28.0762L44.2823 26.2005ZM44.8512 25.99L44.2823 26.2005L44.9764 28.0762L45.5452 27.8658L44.8512 25.99ZM44.8512 27.2734C44.2555 27.053 44.2555 26.2105 44.8512 25.99L45.5452 27.8658C46.6908 27.4419 46.6908 25.8216 45.5452 25.3977L44.8512 27.2734ZM44.2823 27.0629L44.8512 27.2734L45.5452 25.3977L44.9764 25.1872L44.2823 27.0629ZM42.1989 24.9795C42.5561 25.9448 43.3171 26.7058 44.2823 27.0629L44.9764 25.1872C44.5586 25.0326 44.2292 24.7033 44.0746 24.2855L42.1989 24.9795ZM41.9885 24.4107L42.1989 24.9795L44.0746 24.2855L43.8642 23.7167L41.9885 24.4107Z" fill="url(#paint5_radial_3567_190103)" fill-opacity="0.3" mask="url(#path-4-inside-2_3567_190103)"/>
</g>
</g>
<defs>
<filter id="filter0_bd_3567_190103" x="-3985.5" y="-3980.5" width="8026" height="8026" filterUnits="userSpaceOnUse" color-interpolation-filters="sRGB">
<feFlood flood-opacity="0" result="BackgroundImageFix"/>
<feGaussianBlur in="BackgroundImageFix" stdDeviation="2000"/>
<feComposite in2="SourceAlpha" operator="in" result="effect1_backgroundBlur_3567_190103"/>
<feColorMatrix in="SourceAlpha" type="matrix" values="0 0 0 0 0 0 0 0 0 0 0 0 0 0 0 0 0 0 127 0" result="hardAlpha"/>
<feOffset dy="16"/>
<feGaussianBlur stdDeviation="8"/>
<feComposite in2="hardAlpha" operator="out"/>
<feColorMatrix type="matrix" values="0 0 0 0 0 0 0 0 0 0 0 0 0 0 0 0 0 0 0.25 0"/>
<feBlend mode="normal" in2="effect1_backgroundBlur_3567_190103" result="effect2_dropShadow_3567_190103"/>
<feBlend mode="normal" in="SourceGraphic" in2="effect2_dropShadow_3567_190103" result="shape"/>
</filter>
<filter id="filter1_bd_3567_190103" x="-3968.81" y="-3984.81" width="8014.22" height="8014.22" filterUnits="userSpaceOnUse" color-interpolation-filters="sRGB">
<feFlood flood-opacity="0" result="BackgroundImageFix"/>
<feGaussianBlur in="BackgroundImageFix" stdDeviation="2000"/>
<feComposite in2="SourceAlpha" operator="in" result="effect1_backgroundBlur_3567_190103"/>
<feColorMatrix in="SourceAlpha" type="matrix" values="0 0 0 0 0 0 0 0 0 0 0 0 0 0 0 0 0 0 127 0" result="hardAlpha"/>
<feOffset dy="16"/>
<feGaussianBlur stdDeviation="8"/>
<feComposite in2="hardAlpha" operator="out"/>
<feColorMatrix type="matrix" values="0 0 0 0 0 0 0 0 0 0 0 0 0 0 0 0 0 0 0.25 0"/>
<feBlend mode="normal" in2="effect1_backgroundBlur_3567_190103" result="effect2_dropShadow_3567_190103"/>
<feBlend mode="normal" in="SourceGraphic" in2="effect2_dropShadow_3567_190103" result="shape"/>
</filter>
<linearGradient id="paint0_linear_3567_190103" x1="15.5727" y1="20.1697" x2="27.8247" y2="51.6267" gradientUnits="userSpaceOnUse">
<stop stop-color="white" stop-opacity="0.6"/>
<stop offset="1" stop-color="white" stop-opacity="0.1"/>
</linearGradient>
<radialGradient id="paint1_radial_3567_190103" cx="0" cy="0" r="1" gradientUnits="userSpaceOnUse" gradientTransform="translate(27.4987 19.7364) rotate(90) scale(22.5727 22.5704)">
<stop stop-color="white"/>
<stop offset="1" stop-color="white" stop-opacity="0"/>
</radialGradient>
<radialGradient id="paint2_radial_3567_190103" cx="0" cy="0" r="1" gradientUnits="userSpaceOnUse" gradientTransform="translate(27.4987 45.5) rotate(-90) scale(13 12.9987)">
<stop stop-color="white"/>
<stop offset="1" stop-color="white" stop-opacity="0"/>
</radialGradient>
<linearGradient id="paint3_linear_3567_190103" x1="31.7749" y1="15.5547" x2="38.4747" y2="32.7562" gradientUnits="userSpaceOnUse">
<stop stop-color="white" stop-opacity="0.6"/>
<stop offset="1" stop-color="white" stop-opacity="0.1"/>
</linearGradient>
<radialGradient id="paint4_radial_3567_190103" cx="0" cy="0" r="1" gradientUnits="userSpaceOnUse" gradientTransform="translate(38.2964 15.3177) rotate(90) scale(12.3434 12.3421)">
<stop stop-color="white"/>
<stop offset="1" stop-color="white" stop-opacity="0"/>
</radialGradient>
<radialGradient id="paint5_radial_3567_190103" cx="0" cy="0" r="1" gradientUnits="userSpaceOnUse" gradientTransform="translate(38.2964 29.406) rotate(-90) scale(7.10876 7.10802)">
<stop stop-color="white"/>
<stop offset="1" stop-color="white" stop-opacity="0"/>
</radialGradient>
<clipPath id="clip0_3567_190103">
<rect width="32" height="32" fill="white" transform="translate(14 14)"/>
</clipPath>
</defs>
</svg>
