<svg width="20" height="21" viewBox="0 0 20 21" fill="none" xmlns="http://www.w3.org/2000/svg">
<g id="icon/store-2-line">
<path id="Vector" d="M17.2216 11.119L16.9997 11.2675V11.5345V17.166V17.666H17.4997H17.833V18.3327H2.16634V17.666H2.49967H2.99967V17.166V11.5345V11.2675L2.77779 11.119C1.90556 10.5352 1.33301 9.54236 1.33301 8.41602C1.33301 7.8169 1.49563 7.24232 1.78901 6.75519L1.78908 6.75524L1.7937 6.74723L4.05377 2.83268L4.05377 2.83268C4.11331 2.72955 4.22336 2.66602 4.34244 2.66602H15.6569C15.776 2.66602 15.8861 2.72957 15.9456 2.83265L15.9456 2.83267L18.1979 6.7341L18.1978 6.73414L18.2026 6.742C18.5043 7.24317 18.6663 7.81794 18.6663 8.41602C18.6663 9.54236 18.0938 10.5352 17.2216 11.119ZM16.333 12.1431V11.5846L15.7779 11.6461C15.6594 11.6593 15.5388 11.666 15.4163 11.666C14.507 11.666 13.668 11.2893 13.069 10.6644L12.708 10.2878L12.347 10.6644C11.7481 11.2893 10.909 11.666 9.99967 11.666C9.09033 11.666 8.25129 11.2893 7.65231 10.6644L7.29134 10.2878L6.93037 10.6644C6.33139 11.2893 5.49236 11.666 4.58301 11.666C4.46053 11.666 4.3399 11.6593 4.22143 11.6461L3.66634 11.5846V12.1431V17.166V17.666H4.16634H15.833H16.333V17.166V12.1431ZM4.82355 3.33268H4.53488L4.39054 3.58267L2.36547 7.08995C2.12702 7.48774 1.99967 7.94242 1.99967 8.41602C1.99967 9.84274 3.15627 10.9993 4.58301 10.9993C5.6484 10.9993 6.59237 10.3485 6.98193 9.37663L6.98194 9.37663C7.09381 9.09753 7.48887 9.09753 7.60074 9.37663C7.99029 10.3485 8.93426 10.9993 9.99967 10.9993C11.0651 10.9993 12.0091 10.3485 12.3986 9.37663C12.5105 9.09753 12.9055 9.09753 13.0174 9.37663C13.4069 10.3485 14.3509 10.9993 15.4163 10.9993C16.8431 10.9993 17.9997 9.84274 17.9997 8.41602C17.9997 7.94046 17.8713 7.48598 17.6261 7.0768L15.6088 3.58268L15.4644 3.33268H15.1758H4.82355Z" fill="white" stroke="#BFBFBF"/>
</g>
</svg>
