<svg width="60" height="60" viewBox="0 0 60 60" fill="none" xmlns="http://www.w3.org/2000/svg">
<rect width="60" height="60" rx="10" fill="#141414"/>
<g clip-path="url(#clip0_3567_190100)">
<g filter="url(#filter0_bd_3567_190100)">
<mask id="path-2-inside-1_3567_190100" fill="white">
<path fillRule="evenodd" clipRule="evenodd" d="M30.501 22C30.7813 22.523 31.2496 22.9622 31.9058 23.205L33.0435 23.626C33.879 23.9352 34.5378 24.5939 34.847 25.4295L35.268 26.5671C36.0388 28.6504 38.788 28.8394 39.9178 27.1341C39.9718 27.3166 39.9998 27.507 40 27.7V29.36C40.0159 29.9983 39.7964 30.6202 39.3833 31.1071C38.9702 31.594 38.3924 31.9118 37.76 32C37.4105 32.0365 37.0573 31.999 36.7233 31.8899C36.3893 31.7807 36.0821 31.6023 35.8216 31.3664C35.5612 31.1306 35.3534 30.8424 35.2119 30.5208C35.1381 30.3533 35.0832 30.1786 35.0477 30H32.9495C32.8522 30.4767 32.617 30.9186 32.2678 31.2678C31.7989 31.7366 31.163 32 30.5 32C29.837 32 29.2011 31.7366 28.7322 31.2678C28.383 30.9186 28.1478 30.4767 28.0505 30H25.9495C25.8522 30.4767 25.617 30.9186 25.2678 31.2678C24.7989 31.7366 24.163 32 23.5 32C22.837 32 22.2011 31.7366 21.7322 31.2678C21.383 30.9186 21.1478 30.4767 21.0505 30H18.9531C18.9176 30.1786 18.8627 30.3533 18.789 30.5208C18.6474 30.8424 18.4396 31.1306 18.1792 31.3664C17.9188 31.6023 17.6115 31.7807 17.2775 31.8899C16.9435 31.999 16.5903 32.0365 16.2408 32C15.6084 31.9118 15.0306 31.594 14.6175 31.1071C14.2044 30.6202 13.9849 29.9983 14.0008 29.36V27.7C14.0012 27.2454 14.1564 26.8046 14.4408 26.45L17.4408 22.75C17.6281 22.5161 17.8655 22.3273 18.1355 22.1975C18.4055 22.0677 18.7012 22.0002 19.0008 22H20H21.0008H23H26H28H30.501ZM34 32.29C33.5848 32.822 33.0537 33.2523 32.4473 33.5483C31.8408 33.8443 31.1748 33.9981 30.5 33.9981C29.8252 33.9981 29.1592 33.8443 28.5527 33.5483C27.9463 33.2523 27.4152 32.822 27 32.29C26.5848 32.822 26.0537 33.2523 25.4473 33.5483C24.8408 33.8443 24.1748 33.9981 23.5 33.9981C22.8252 33.9981 22.1592 33.8443 21.5527 33.5483C20.9463 33.2523 20.4152 32.822 20 32.29C19.584 32.8213 19.0528 33.2512 18.4466 33.5473C17.8403 33.8435 17.1747 33.9983 16.5 34C16.3335 34.0099 16.1665 34.0099 16 34V45C16 45.2653 16.1054 45.5196 16.2929 45.7071C16.4804 45.8947 16.7348 46 17 46H20V38C20 37.7348 20.1054 37.4805 20.2929 37.2929C20.4804 37.1054 20.7348 37 21 37H25C25.2652 37 25.5196 37.1054 25.7071 37.2929C25.8946 37.4805 26 37.7348 26 38V46H37C37.2652 46 37.5196 45.8947 37.7071 45.7071C37.8946 45.5196 38 45.2653 38 45V34C37.8345 34.0266 37.6675 34.0433 37.5 34.05C36.8211 34.0424 36.153 33.8799 35.5464 33.5749C34.9399 33.2699 34.411 32.8304 34 32.29ZM34 41C34 41.2653 33.8946 41.5196 33.7071 41.7071C33.5196 41.8947 33.2652 42 33 42H30C29.7348 42 29.4804 41.8947 29.2929 41.7071C29.1054 41.5196 29 41.2653 29 41V38C29 37.7348 29.1054 37.4805 29.2929 37.2929C29.4804 37.1054 29.7348 37 30 37H33C33.2652 37 33.5196 37.1054 33.7071 37.2929C33.8946 37.4805 34 37.7348 34 38V41Z"/>
</mask>
<path fillRule="evenodd" clipRule="evenodd" d="M30.501 22C30.7813 22.523 31.2496 22.9622 31.9058 23.205L33.0435 23.626C33.879 23.9352 34.5378 24.5939 34.847 25.4295L35.268 26.5671C36.0388 28.6504 38.788 28.8394 39.9178 27.1341C39.9718 27.3166 39.9998 27.507 40 27.7V29.36C40.0159 29.9983 39.7964 30.6202 39.3833 31.1071C38.9702 31.594 38.3924 31.9118 37.76 32C37.4105 32.0365 37.0573 31.999 36.7233 31.8899C36.3893 31.7807 36.0821 31.6023 35.8216 31.3664C35.5612 31.1306 35.3534 30.8424 35.2119 30.5208C35.1381 30.3533 35.0832 30.1786 35.0477 30H32.9495C32.8522 30.4767 32.617 30.9186 32.2678 31.2678C31.7989 31.7366 31.163 32 30.5 32C29.837 32 29.2011 31.7366 28.7322 31.2678C28.383 30.9186 28.1478 30.4767 28.0505 30H25.9495C25.8522 30.4767 25.617 30.9186 25.2678 31.2678C24.7989 31.7366 24.163 32 23.5 32C22.837 32 22.2011 31.7366 21.7322 31.2678C21.383 30.9186 21.1478 30.4767 21.0505 30H18.9531C18.9176 30.1786 18.8627 30.3533 18.789 30.5208C18.6474 30.8424 18.4396 31.1306 18.1792 31.3664C17.9188 31.6023 17.6115 31.7807 17.2775 31.8899C16.9435 31.999 16.5903 32.0365 16.2408 32C15.6084 31.9118 15.0306 31.594 14.6175 31.1071C14.2044 30.6202 13.9849 29.9983 14.0008 29.36V27.7C14.0012 27.2454 14.1564 26.8046 14.4408 26.45L17.4408 22.75C17.6281 22.5161 17.8655 22.3273 18.1355 22.1975C18.4055 22.0677 18.7012 22.0002 19.0008 22H20H21.0008H23H26H28H30.501ZM34 32.29C33.5848 32.822 33.0537 33.2523 32.4473 33.5483C31.8408 33.8443 31.1748 33.9981 30.5 33.9981C29.8252 33.9981 29.1592 33.8443 28.5527 33.5483C27.9463 33.2523 27.4152 32.822 27 32.29C26.5848 32.822 26.0537 33.2523 25.4473 33.5483C24.8408 33.8443 24.1748 33.9981 23.5 33.9981C22.8252 33.9981 22.1592 33.8443 21.5527 33.5483C20.9463 33.2523 20.4152 32.822 20 32.29C19.584 32.8213 19.0528 33.2512 18.4466 33.5473C17.8403 33.8435 17.1747 33.9983 16.5 34C16.3335 34.0099 16.1665 34.0099 16 34V45C16 45.2653 16.1054 45.5196 16.2929 45.7071C16.4804 45.8947 16.7348 46 17 46H20V38C20 37.7348 20.1054 37.4805 20.2929 37.2929C20.4804 37.1054 20.7348 37 21 37H25C25.2652 37 25.5196 37.1054 25.7071 37.2929C25.8946 37.4805 26 37.7348 26 38V46H37C37.2652 46 37.5196 45.8947 37.7071 45.7071C37.8946 45.5196 38 45.2653 38 45V34C37.8345 34.0266 37.6675 34.0433 37.5 34.05C36.8211 34.0424 36.153 33.8799 35.5464 33.5749C34.9399 33.2699 34.411 32.8304 34 32.29ZM34 41C34 41.2653 33.8946 41.5196 33.7071 41.7071C33.5196 41.8947 33.2652 42 33 42H30C29.7348 42 29.4804 41.8947 29.2929 41.7071C29.1054 41.5196 29 41.2653 29 41V38C29 37.7348 29.1054 37.4805 29.2929 37.2929C29.4804 37.1054 29.7348 37 30 37H33C33.2652 37 33.5196 37.1054 33.7071 37.2929C33.8946 37.4805 34 37.7348 34 38V41Z" fill="url(#paint0_linear_3567_190100)" shape-rendering="crispEdges"/>
<path fillRule="evenodd" clipRule="evenodd" d="M30.501 22C30.7813 22.523 31.2496 22.9622 31.9058 23.205L33.0435 23.626C33.879 23.9352 34.5378 24.5939 34.847 25.4295L35.268 26.5671C36.0388 28.6504 38.788 28.8394 39.9178 27.1341C39.9718 27.3166 39.9998 27.507 40 27.7V29.36C40.0159 29.9983 39.7964 30.6202 39.3833 31.1071C38.9702 31.594 38.3924 31.9118 37.76 32C37.4105 32.0365 37.0573 31.999 36.7233 31.8899C36.3893 31.7807 36.0821 31.6023 35.8216 31.3664C35.5612 31.1306 35.3534 30.8424 35.2119 30.5208C35.1381 30.3533 35.0832 30.1786 35.0477 30H32.9495C32.8522 30.4767 32.617 30.9186 32.2678 31.2678C31.7989 31.7366 31.163 32 30.5 32C29.837 32 29.2011 31.7366 28.7322 31.2678C28.383 30.9186 28.1478 30.4767 28.0505 30H25.9495C25.8522 30.4767 25.617 30.9186 25.2678 31.2678C24.7989 31.7366 24.163 32 23.5 32C22.837 32 22.2011 31.7366 21.7322 31.2678C21.383 30.9186 21.1478 30.4767 21.0505 30H18.9531C18.9176 30.1786 18.8627 30.3533 18.789 30.5208C18.6474 30.8424 18.4396 31.1306 18.1792 31.3664C17.9188 31.6023 17.6115 31.7807 17.2775 31.8899C16.9435 31.999 16.5903 32.0365 16.2408 32C15.6084 31.9118 15.0306 31.594 14.6175 31.1071C14.2044 30.6202 13.9849 29.9983 14.0008 29.36V27.7C14.0012 27.2454 14.1564 26.8046 14.4408 26.45L17.4408 22.75C17.6281 22.5161 17.8655 22.3273 18.1355 22.1975C18.4055 22.0677 18.7012 22.0002 19.0008 22H20H21.0008H23H26H28H30.501ZM34 32.29C33.5848 32.822 33.0537 33.2523 32.4473 33.5483C31.8408 33.8443 31.1748 33.9981 30.5 33.9981C29.8252 33.9981 29.1592 33.8443 28.5527 33.5483C27.9463 33.2523 27.4152 32.822 27 32.29C26.5848 32.822 26.0537 33.2523 25.4473 33.5483C24.8408 33.8443 24.1748 33.9981 23.5 33.9981C22.8252 33.9981 22.1592 33.8443 21.5527 33.5483C20.9463 33.2523 20.4152 32.822 20 32.29C19.584 32.8213 19.0528 33.2512 18.4466 33.5473C17.8403 33.8435 17.1747 33.9983 16.5 34C16.3335 34.0099 16.1665 34.0099 16 34V45C16 45.2653 16.1054 45.5196 16.2929 45.7071C16.4804 45.8947 16.7348 46 17 46H20V38C20 37.7348 20.1054 37.4805 20.2929 37.2929C20.4804 37.1054 20.7348 37 21 37H25C25.2652 37 25.5196 37.1054 25.7071 37.2929C25.8946 37.4805 26 37.7348 26 38V46H37C37.2652 46 37.5196 45.8947 37.7071 45.7071C37.8946 45.5196 38 45.2653 38 45V34C37.8345 34.0266 37.6675 34.0433 37.5 34.05C36.8211 34.0424 36.153 33.8799 35.5464 33.5749C34.9399 33.2699 34.411 32.8304 34 32.29ZM34 41C34 41.2653 33.8946 41.5196 33.7071 41.7071C33.5196 41.8947 33.2652 42 33 42H30C29.7348 42 29.4804 41.8947 29.2929 41.7071C29.1054 41.5196 29 41.2653 29 41V38C29 37.7348 29.1054 37.4805 29.2929 37.2929C29.4804 37.1054 29.7348 37 30 37H33C33.2652 37 33.5196 37.1054 33.7071 37.2929C33.8946 37.4805 34 37.7348 34 38V41Z" fill="#344254" fill-opacity="0.15" shape-rendering="crispEdges"/>
<path d="M30.501 22L31.3824 21.5276L31.0996 21H30.501V22ZM31.9058 23.205L31.5588 24.1429V24.1429L31.9058 23.205ZM33.0435 23.626L33.3905 22.6881L33.0435 23.626ZM34.847 25.4295L35.7849 25.0825V25.0825L34.847 25.4295ZM35.268 26.5671L34.3301 26.9142V26.9142L35.268 26.5671ZM39.9178 27.1341L40.8767 26.8504L40.2684 24.7944L39.0842 26.5818L39.9178 27.1341ZM40 27.7H41V27.6992L40 27.7ZM40 29.36H39V29.3725L39.0003 29.385L40 29.36ZM37.76 32L37.864 32.9946L37.8811 32.9928L37.8981 32.9904L37.76 32ZM35.2119 30.5208L34.2966 30.9237V30.9237L35.2119 30.5208ZM35.0477 30L36.0286 29.8054L35.8689 29H35.0477V30ZM32.9495 30V29H32.133L31.9697 29.8L32.9495 30ZM32.2678 31.2678L31.5607 30.5607L32.2678 31.2678ZM28.0505 30L29.0303 29.8L28.867 29H28.0505V30ZM25.9495 30V29H25.133L24.9697 29.8L25.9495 30ZM21.7322 31.2678L22.4393 30.5607V30.5607L21.7322 31.2678ZM21.0505 30L22.0303 29.8L21.867 29H21.0505V30ZM18.9531 30V29H18.1319L17.9722 29.8054L18.9531 30ZM18.789 30.5208L19.7042 30.9237L19.7042 30.9237L18.789 30.5208ZM16.2408 32L16.1027 32.9904L16.1197 32.9928L16.1368 32.9946L16.2408 32ZM14.0008 29.36L15.0005 29.385L15.0008 29.3725V29.36H14.0008ZM14.0008 27.7L13.0008 27.6992V27.7H14.0008ZM14.4408 26.45L13.664 25.8202L13.6608 25.8242L14.4408 26.45ZM17.4408 22.75L18.2176 23.3798L18.2214 23.375L17.4408 22.75ZM19.0008 22V21L19.0002 21L19.0008 22ZM34 32.29L34.796 31.6847L34.0103 30.6516L33.2117 31.6747L34 32.29ZM27 32.29L27.7883 31.6747L27 30.6648L26.2117 31.6747L27 32.29ZM21.5527 33.5483L21.1142 34.447H21.1142L21.5527 33.5483ZM20 32.29L20.7883 31.6747L20.0013 30.6665L19.2127 31.6735L20 32.29ZM16.5 34L16.4975 33L16.4692 33.0001L16.4409 33.0018L16.5 34ZM16 34L16.0591 33.0018L15 32.9391V34H16ZM16.2929 45.7071L17 45L17 45L16.2929 45.7071ZM20 46V47H21V46H20ZM26 46H25V47H26V46ZM37.7071 45.7071L37 45L37 45L37.7071 45.7071ZM38 34H39V32.8268L37.8416 33.0127L38 34ZM37.5 34.05L37.4888 35.05L37.5145 35.0503L37.5402 35.0492L37.5 34.05ZM33.7071 41.7071L33 41L33 41L33.7071 41.7071ZM29.2929 41.7071L30 41L30 41L29.2929 41.7071ZM29.6196 22.4724C30.0126 23.2058 30.6685 23.8134 31.5588 24.1429L32.2529 22.2672C31.8306 22.1109 31.5499 21.8402 31.3824 21.5276L29.6196 22.4724ZM31.5588 24.1429L32.6964 24.5638L33.3905 22.6881L32.2529 22.2672L31.5588 24.1429ZM32.6964 24.5638C33.2583 24.7717 33.7013 25.2147 33.9092 25.7765L35.7849 25.0825C35.3744 23.9732 34.4998 23.0986 33.3905 22.6881L32.6964 24.5638ZM33.9092 25.7765L34.3301 26.9142L36.2058 26.2201L35.7849 25.0825L33.9092 25.7765ZM34.3301 26.9142C35.3988 29.8023 39.1917 30.0406 40.7514 27.6864L39.0842 26.5818C38.3843 27.6382 36.6789 27.4985 36.2058 26.2201L34.3301 26.9142ZM38.9589 27.4178C38.9859 27.5091 38.9999 27.6043 39 27.7008L41 27.6992C40.9998 27.4098 40.9577 27.124 40.8767 26.8504L38.9589 27.4178ZM39 27.7V29.36H41V27.7H39ZM39.0003 29.385C39.0101 29.7778 38.875 30.1605 38.6208 30.4601L40.1458 31.754C40.7178 31.0799 41.0218 30.2189 40.9997 29.335L39.0003 29.385ZM38.6208 30.4601C38.3666 30.7597 38.011 30.9553 37.6219 31.0096L37.8981 32.9904C38.7738 32.8683 39.5738 32.4282 40.1458 31.754L38.6208 30.4601ZM37.656 31.0054C37.4463 31.0274 37.2343 31.0048 37.034 30.9393L36.4126 32.8404C36.8802 32.9932 37.3748 33.0457 37.864 32.9946L37.656 31.0054ZM37.034 30.9393C36.8336 30.8738 36.6492 30.7668 36.493 30.6253L35.1503 32.1076C35.5149 32.4379 35.945 32.6875 36.4126 32.8404L37.034 30.9393ZM36.493 30.6253C36.3367 30.4838 36.212 30.3109 36.1271 30.1179L34.2966 30.9237C34.4948 31.3739 34.7857 31.7773 35.1503 32.1076L36.493 30.6253ZM36.1271 30.1179C36.0828 30.0174 36.0499 29.9126 36.0286 29.8054L34.0669 30.1946C34.1165 30.4446 34.1933 30.6891 34.2966 30.9237L36.1271 30.1179ZM35.0477 29H32.9495V31H35.0477V29ZM31.9697 29.8C31.9113 30.0861 31.7701 30.3512 31.5607 30.5607L32.9749 31.9749C33.4638 31.486 33.7931 30.8674 33.9293 30.2L31.9697 29.8ZM31.5607 30.5607C31.2794 30.842 30.8978 31 30.5 31V33C31.4283 33 32.3185 32.6313 32.9749 31.9749L31.5607 30.5607ZM30.5 31C30.1022 31 29.7206 30.842 29.4393 30.5607L28.0251 31.9749C28.6815 32.6313 29.5717 33 30.5 33V31ZM29.4393 30.5607C29.2299 30.3512 29.0887 30.0861 29.0303 29.8L27.0707 30.2C27.2069 30.8674 27.5362 31.486 28.0251 31.9749L29.4393 30.5607ZM28.0505 29H25.9495V31H28.0505V29ZM24.9697 29.8C24.9113 30.0861 24.7701 30.3512 24.5607 30.5607L25.9749 31.9749C26.4638 31.486 26.7931 30.8674 26.9293 30.2L24.9697 29.8ZM24.5607 30.5607C24.2794 30.842 23.8978 31 23.5 31V33C24.4283 33 25.3185 32.6313 25.9749 31.9749L24.5607 30.5607ZM23.5 31C23.1022 31 22.7206 30.842 22.4393 30.5607L21.0251 31.9749C21.6815 32.6313 22.5717 33 23.5 33V31ZM22.4393 30.5607C22.2299 30.3512 22.0887 30.0861 22.0303 29.8L20.0707 30.2C20.2069 30.8674 20.5362 31.486 21.0251 31.9749L22.4393 30.5607ZM21.0505 29H18.9531V31H21.0505V29ZM17.9722 29.8054C17.9509 29.9126 17.918 30.0174 17.8737 30.1179L19.7042 30.9237C19.8075 30.6891 19.8844 30.4446 19.934 30.1946L17.9722 29.8054ZM17.8737 30.1179C17.7888 30.3109 17.6641 30.4838 17.5079 30.6253L18.8505 32.1076C19.2151 31.7773 19.506 31.3739 19.7042 30.9237L17.8737 30.1179ZM17.5079 30.6253C17.3516 30.7668 17.1673 30.8738 16.9669 30.9393L17.5882 32.8404C18.0558 32.6875 18.4859 32.4379 18.8505 32.1076L17.5079 30.6253ZM16.9669 30.9393C16.7665 31.0048 16.5545 31.0274 16.3448 31.0054L16.1368 32.9946C16.6261 33.0457 17.1206 32.9932 17.5882 32.8404L16.9669 30.9393ZM16.379 31.0096C15.9898 30.9553 15.6342 30.7597 15.38 30.4601L13.855 31.754C14.427 32.4282 15.227 32.8683 16.1027 32.9904L16.379 31.0096ZM15.38 30.4601C15.1258 30.1605 14.9907 29.7778 15.0005 29.385L13.0011 29.335C12.979 30.2189 13.283 31.0799 13.855 31.754L15.38 30.4601ZM15.0008 29.36V27.7H13.0008V29.36H15.0008ZM15.0008 27.7008C15.001 27.4735 15.0786 27.2531 15.2208 27.0758L13.6608 25.8242C13.2341 26.3561 13.0013 27.0174 13.0008 27.6992L15.0008 27.7008ZM15.2176 27.0798L18.2176 23.3798L16.6641 22.1202L13.6641 25.8202L15.2176 27.0798ZM18.2214 23.375C18.3151 23.2581 18.4338 23.1637 18.5688 23.0987L17.7022 21.2962C17.2972 21.491 16.9411 21.7742 16.6602 22.125L18.2214 23.375ZM18.5688 23.0987C18.7038 23.0338 18.8516 23.0001 19.0014 23L19.0002 21C18.5508 21.0003 18.1072 21.1015 17.7022 21.2962L18.5688 23.0987ZM19.0008 23H20V21H19.0008V23ZM20 23H21.0008V21H20V23ZM21.0008 23H23V21H21.0008V23ZM23 23H26V21H23V23ZM26 23H28V21H26V23ZM28 23H30.501V21H28V23ZM32.8858 34.447C33.6289 34.0844 34.2795 33.5571 34.7883 32.9053L33.2117 31.6747C32.89 32.0869 32.4786 32.4203 32.0087 32.6496L32.8858 34.447ZM30.5 34.9981C31.3268 34.9981 32.1428 34.8096 32.8858 34.447L32.0087 32.6496C31.5388 32.8789 31.0228 32.9981 30.5 32.9981V34.9981ZM28.1142 34.447C28.8572 34.8096 29.6732 34.9981 30.5 34.9981V32.9981C29.9772 32.9981 29.4612 32.8789 28.9913 32.6496L28.1142 34.447ZM26.2117 32.9053C26.7205 33.5571 27.3711 34.0844 28.1142 34.447L28.9913 32.6496C28.5214 32.4203 28.11 32.0869 27.7883 31.6747L26.2117 32.9053ZM25.8858 34.447C26.6289 34.0844 27.2795 33.5571 27.7883 32.9053L26.2117 31.6747C25.89 32.0869 25.4786 32.4203 25.0087 32.6496L25.8858 34.447ZM23.5 34.9981C24.3268 34.9981 25.1428 34.8096 25.8858 34.447L25.0087 32.6496C24.5388 32.8789 24.0228 32.9981 23.5 32.9981V34.9981ZM21.1142 34.447C21.8572 34.8096 22.6732 34.9981 23.5 34.9981V32.9981C22.9772 32.9981 22.4612 32.8789 21.9913 32.6496L21.1142 34.447ZM19.2117 32.9053C19.7205 33.5571 20.3711 34.0844 21.1142 34.447L21.9913 32.6496C21.5214 32.4203 21.11 32.0869 20.7883 31.6747L19.2117 32.9053ZM18.8855 34.4458C19.6277 34.0832 20.278 33.557 20.7873 32.9066L19.2127 31.6735C18.89 32.0856 18.4779 32.4191 18.0076 32.6489L18.8855 34.4458ZM16.5025 35C17.3286 34.9979 18.1434 34.8085 18.8855 34.4458L18.0076 32.6489C17.5373 32.8786 17.0209 32.9987 16.4975 33L16.5025 35ZM15.9409 34.9983C16.1468 35.0105 16.3532 35.0105 16.5591 34.9983L16.4409 33.0018C16.3137 33.0093 16.1863 33.0093 16.0591 33.0018L15.9409 34.9983ZM17 45V34H15V45H17ZM17 45H17H15C15 45.5305 15.2107 46.0392 15.5858 46.4143L17 45ZM17 45L17 45L15.5858 46.4142C15.9609 46.7893 16.4696 47 17 47V45ZM20 45H17V47H20V45ZM19 38V46H21V38H19ZM19.5858 36.5858C19.2107 36.9609 19 37.4696 19 38H21L19.5858 36.5858ZM21 36C20.4696 36 19.9609 36.2108 19.5858 36.5858L21 38V36ZM25 36H21V38H25V36ZM26.4142 36.5858C26.0391 36.2108 25.5304 36 25 36V38L26.4142 36.5858ZM27 38C27 37.4696 26.7893 36.9609 26.4142 36.5858L25 38H27ZM27 46V38H25V46H27ZM37 45H26V47H37V45ZM37 45L37 45V47C37.5304 47 38.0391 46.7893 38.4142 46.4142L37 45ZM37 45L38.4142 46.4143C38.7893 46.0392 39 45.5305 39 45H37ZM37 34V45H39V34H37ZM37.5402 35.0492C37.7473 35.0409 37.9538 35.0202 38.1584 34.9874L37.8416 33.0127C37.7152 33.0329 37.5877 33.0457 37.4598 33.0508L37.5402 35.0492ZM35.0972 34.4683C35.8397 34.8417 36.6577 35.0406 37.4888 35.05L37.5112 33.0501C36.9846 33.0442 36.4662 32.9181 35.9957 32.6815L35.0972 34.4683ZM33.204 32.8954C33.7071 33.5569 34.3546 34.0949 35.0972 34.4683L35.9957 32.6815C35.5251 32.4449 35.1148 32.104 34.796 31.6847L33.204 32.8954ZM34.4142 42.4143C34.7893 42.0392 35 41.5305 35 41H33L34.4142 42.4143ZM33 43C33.5304 43 34.0391 42.7893 34.4142 42.4142L33 41L33 41V43ZM30 43H33V41H30V43ZM28.5858 42.4142C28.9609 42.7893 29.4696 43 30 43V41L30 41L28.5858 42.4142ZM28 41C28 41.5305 28.2107 42.0392 28.5858 42.4143L30 41H30H28ZM28 38V41H30V38H28ZM28.5858 36.5858C28.2107 36.9609 28 37.4696 28 38H30H30L28.5858 36.5858ZM30 36C29.4696 36 28.9609 36.2108 28.5858 36.5858L30 38H30V36ZM33 36H30V38H33V36ZM34.4142 36.5858C34.0391 36.2108 33.5304 36 33 36V38L34.4142 36.5858ZM35 38C35 37.4696 34.7893 36.9609 34.4142 36.5858L33 38H35ZM35 41V38H33V41H35Z" fill="url(#paint1_radial_3567_190100)" fill-opacity="0.6" mask="url(#path-2-inside-1_3567_190100)"/>
<path d="M30.501 22L31.3824 21.5276L31.0996 21H30.501V22ZM31.9058 23.205L31.5588 24.1429V24.1429L31.9058 23.205ZM33.0435 23.626L33.3905 22.6881L33.0435 23.626ZM34.847 25.4295L35.7849 25.0825V25.0825L34.847 25.4295ZM35.268 26.5671L34.3301 26.9142V26.9142L35.268 26.5671ZM39.9178 27.1341L40.8767 26.8504L40.2684 24.7944L39.0842 26.5818L39.9178 27.1341ZM40 27.7H41V27.6992L40 27.7ZM40 29.36H39V29.3725L39.0003 29.385L40 29.36ZM37.76 32L37.864 32.9946L37.8811 32.9928L37.8981 32.9904L37.76 32ZM35.2119 30.5208L34.2966 30.9237V30.9237L35.2119 30.5208ZM35.0477 30L36.0286 29.8054L35.8689 29H35.0477V30ZM32.9495 30V29H32.133L31.9697 29.8L32.9495 30ZM32.2678 31.2678L31.5607 30.5607L32.2678 31.2678ZM28.0505 30L29.0303 29.8L28.867 29H28.0505V30ZM25.9495 30V29H25.133L24.9697 29.8L25.9495 30ZM21.7322 31.2678L22.4393 30.5607V30.5607L21.7322 31.2678ZM21.0505 30L22.0303 29.8L21.867 29H21.0505V30ZM18.9531 30V29H18.1319L17.9722 29.8054L18.9531 30ZM18.789 30.5208L19.7042 30.9237L19.7042 30.9237L18.789 30.5208ZM16.2408 32L16.1027 32.9904L16.1197 32.9928L16.1368 32.9946L16.2408 32ZM14.0008 29.36L15.0005 29.385L15.0008 29.3725V29.36H14.0008ZM14.0008 27.7L13.0008 27.6992V27.7H14.0008ZM14.4408 26.45L13.664 25.8202L13.6608 25.8242L14.4408 26.45ZM17.4408 22.75L18.2176 23.3798L18.2214 23.375L17.4408 22.75ZM19.0008 22V21L19.0002 21L19.0008 22ZM34 32.29L34.796 31.6847L34.0103 30.6516L33.2117 31.6747L34 32.29ZM27 32.29L27.7883 31.6747L27 30.6648L26.2117 31.6747L27 32.29ZM21.5527 33.5483L21.1142 34.447H21.1142L21.5527 33.5483ZM20 32.29L20.7883 31.6747L20.0013 30.6665L19.2127 31.6735L20 32.29ZM16.5 34L16.4975 33L16.4692 33.0001L16.4409 33.0018L16.5 34ZM16 34L16.0591 33.0018L15 32.9391V34H16ZM16.2929 45.7071L17 45L17 45L16.2929 45.7071ZM20 46V47H21V46H20ZM26 46H25V47H26V46ZM37.7071 45.7071L37 45L37 45L37.7071 45.7071ZM38 34H39V32.8268L37.8416 33.0127L38 34ZM37.5 34.05L37.4888 35.05L37.5145 35.0503L37.5402 35.0492L37.5 34.05ZM33.7071 41.7071L33 41L33 41L33.7071 41.7071ZM29.2929 41.7071L30 41L30 41L29.2929 41.7071ZM29.6196 22.4724C30.0126 23.2058 30.6685 23.8134 31.5588 24.1429L32.2529 22.2672C31.8306 22.1109 31.5499 21.8402 31.3824 21.5276L29.6196 22.4724ZM31.5588 24.1429L32.6964 24.5638L33.3905 22.6881L32.2529 22.2672L31.5588 24.1429ZM32.6964 24.5638C33.2583 24.7717 33.7013 25.2147 33.9092 25.7765L35.7849 25.0825C35.3744 23.9732 34.4998 23.0986 33.3905 22.6881L32.6964 24.5638ZM33.9092 25.7765L34.3301 26.9142L36.2058 26.2201L35.7849 25.0825L33.9092 25.7765ZM34.3301 26.9142C35.3988 29.8023 39.1917 30.0406 40.7514 27.6864L39.0842 26.5818C38.3843 27.6382 36.6789 27.4985 36.2058 26.2201L34.3301 26.9142ZM38.9589 27.4178C38.9859 27.5091 38.9999 27.6043 39 27.7008L41 27.6992C40.9998 27.4098 40.9577 27.124 40.8767 26.8504L38.9589 27.4178ZM39 27.7V29.36H41V27.7H39ZM39.0003 29.385C39.0101 29.7778 38.875 30.1605 38.6208 30.4601L40.1458 31.754C40.7178 31.0799 41.0218 30.2189 40.9997 29.335L39.0003 29.385ZM38.6208 30.4601C38.3666 30.7597 38.011 30.9553 37.6219 31.0096L37.8981 32.9904C38.7738 32.8683 39.5738 32.4282 40.1458 31.754L38.6208 30.4601ZM37.656 31.0054C37.4463 31.0274 37.2343 31.0048 37.034 30.9393L36.4126 32.8404C36.8802 32.9932 37.3748 33.0457 37.864 32.9946L37.656 31.0054ZM37.034 30.9393C36.8336 30.8738 36.6492 30.7668 36.493 30.6253L35.1503 32.1076C35.5149 32.4379 35.945 32.6875 36.4126 32.8404L37.034 30.9393ZM36.493 30.6253C36.3367 30.4838 36.212 30.3109 36.1271 30.1179L34.2966 30.9237C34.4948 31.3739 34.7857 31.7773 35.1503 32.1076L36.493 30.6253ZM36.1271 30.1179C36.0828 30.0174 36.0499 29.9126 36.0286 29.8054L34.0669 30.1946C34.1165 30.4446 34.1933 30.6891 34.2966 30.9237L36.1271 30.1179ZM35.0477 29H32.9495V31H35.0477V29ZM31.9697 29.8C31.9113 30.0861 31.7701 30.3512 31.5607 30.5607L32.9749 31.9749C33.4638 31.486 33.7931 30.8674 33.9293 30.2L31.9697 29.8ZM31.5607 30.5607C31.2794 30.842 30.8978 31 30.5 31V33C31.4283 33 32.3185 32.6313 32.9749 31.9749L31.5607 30.5607ZM30.5 31C30.1022 31 29.7206 30.842 29.4393 30.5607L28.0251 31.9749C28.6815 32.6313 29.5717 33 30.5 33V31ZM29.4393 30.5607C29.2299 30.3512 29.0887 30.0861 29.0303 29.8L27.0707 30.2C27.2069 30.8674 27.5362 31.486 28.0251 31.9749L29.4393 30.5607ZM28.0505 29H25.9495V31H28.0505V29ZM24.9697 29.8C24.9113 30.0861 24.7701 30.3512 24.5607 30.5607L25.9749 31.9749C26.4638 31.486 26.7931 30.8674 26.9293 30.2L24.9697 29.8ZM24.5607 30.5607C24.2794 30.842 23.8978 31 23.5 31V33C24.4283 33 25.3185 32.6313 25.9749 31.9749L24.5607 30.5607ZM23.5 31C23.1022 31 22.7206 30.842 22.4393 30.5607L21.0251 31.9749C21.6815 32.6313 22.5717 33 23.5 33V31ZM22.4393 30.5607C22.2299 30.3512 22.0887 30.0861 22.0303 29.8L20.0707 30.2C20.2069 30.8674 20.5362 31.486 21.0251 31.9749L22.4393 30.5607ZM21.0505 29H18.9531V31H21.0505V29ZM17.9722 29.8054C17.9509 29.9126 17.918 30.0174 17.8737 30.1179L19.7042 30.9237C19.8075 30.6891 19.8844 30.4446 19.934 30.1946L17.9722 29.8054ZM17.8737 30.1179C17.7888 30.3109 17.6641 30.4838 17.5079 30.6253L18.8505 32.1076C19.2151 31.7773 19.506 31.3739 19.7042 30.9237L17.8737 30.1179ZM17.5079 30.6253C17.3516 30.7668 17.1673 30.8738 16.9669 30.9393L17.5882 32.8404C18.0558 32.6875 18.4859 32.4379 18.8505 32.1076L17.5079 30.6253ZM16.9669 30.9393C16.7665 31.0048 16.5545 31.0274 16.3448 31.0054L16.1368 32.9946C16.6261 33.0457 17.1206 32.9932 17.5882 32.8404L16.9669 30.9393ZM16.379 31.0096C15.9898 30.9553 15.6342 30.7597 15.38 30.4601L13.855 31.754C14.427 32.4282 15.227 32.8683 16.1027 32.9904L16.379 31.0096ZM15.38 30.4601C15.1258 30.1605 14.9907 29.7778 15.0005 29.385L13.0011 29.335C12.979 30.2189 13.283 31.0799 13.855 31.754L15.38 30.4601ZM15.0008 29.36V27.7H13.0008V29.36H15.0008ZM15.0008 27.7008C15.001 27.4735 15.0786 27.2531 15.2208 27.0758L13.6608 25.8242C13.2341 26.3561 13.0013 27.0174 13.0008 27.6992L15.0008 27.7008ZM15.2176 27.0798L18.2176 23.3798L16.6641 22.1202L13.6641 25.8202L15.2176 27.0798ZM18.2214 23.375C18.3151 23.2581 18.4338 23.1637 18.5688 23.0987L17.7022 21.2962C17.2972 21.491 16.9411 21.7742 16.6602 22.125L18.2214 23.375ZM18.5688 23.0987C18.7038 23.0338 18.8516 23.0001 19.0014 23L19.0002 21C18.5508 21.0003 18.1072 21.1015 17.7022 21.2962L18.5688 23.0987ZM19.0008 23H20V21H19.0008V23ZM20 23H21.0008V21H20V23ZM21.0008 23H23V21H21.0008V23ZM23 23H26V21H23V23ZM26 23H28V21H26V23ZM28 23H30.501V21H28V23ZM32.8858 34.447C33.6289 34.0844 34.2795 33.5571 34.7883 32.9053L33.2117 31.6747C32.89 32.0869 32.4786 32.4203 32.0087 32.6496L32.8858 34.447ZM30.5 34.9981C31.3268 34.9981 32.1428 34.8096 32.8858 34.447L32.0087 32.6496C31.5388 32.8789 31.0228 32.9981 30.5 32.9981V34.9981ZM28.1142 34.447C28.8572 34.8096 29.6732 34.9981 30.5 34.9981V32.9981C29.9772 32.9981 29.4612 32.8789 28.9913 32.6496L28.1142 34.447ZM26.2117 32.9053C26.7205 33.5571 27.3711 34.0844 28.1142 34.447L28.9913 32.6496C28.5214 32.4203 28.11 32.0869 27.7883 31.6747L26.2117 32.9053ZM25.8858 34.447C26.6289 34.0844 27.2795 33.5571 27.7883 32.9053L26.2117 31.6747C25.89 32.0869 25.4786 32.4203 25.0087 32.6496L25.8858 34.447ZM23.5 34.9981C24.3268 34.9981 25.1428 34.8096 25.8858 34.447L25.0087 32.6496C24.5388 32.8789 24.0228 32.9981 23.5 32.9981V34.9981ZM21.1142 34.447C21.8572 34.8096 22.6732 34.9981 23.5 34.9981V32.9981C22.9772 32.9981 22.4612 32.8789 21.9913 32.6496L21.1142 34.447ZM19.2117 32.9053C19.7205 33.5571 20.3711 34.0844 21.1142 34.447L21.9913 32.6496C21.5214 32.4203 21.11 32.0869 20.7883 31.6747L19.2117 32.9053ZM18.8855 34.4458C19.6277 34.0832 20.278 33.557 20.7873 32.9066L19.2127 31.6735C18.89 32.0856 18.4779 32.4191 18.0076 32.6489L18.8855 34.4458ZM16.5025 35C17.3286 34.9979 18.1434 34.8085 18.8855 34.4458L18.0076 32.6489C17.5373 32.8786 17.0209 32.9987 16.4975 33L16.5025 35ZM15.9409 34.9983C16.1468 35.0105 16.3532 35.0105 16.5591 34.9983L16.4409 33.0018C16.3137 33.0093 16.1863 33.0093 16.0591 33.0018L15.9409 34.9983ZM17 45V34H15V45H17ZM17 45H17H15C15 45.5305 15.2107 46.0392 15.5858 46.4143L17 45ZM17 45L17 45L15.5858 46.4142C15.9609 46.7893 16.4696 47 17 47V45ZM20 45H17V47H20V45ZM19 38V46H21V38H19ZM19.5858 36.5858C19.2107 36.9609 19 37.4696 19 38H21L19.5858 36.5858ZM21 36C20.4696 36 19.9609 36.2108 19.5858 36.5858L21 38V36ZM25 36H21V38H25V36ZM26.4142 36.5858C26.0391 36.2108 25.5304 36 25 36V38L26.4142 36.5858ZM27 38C27 37.4696 26.7893 36.9609 26.4142 36.5858L25 38H27ZM27 46V38H25V46H27ZM37 45H26V47H37V45ZM37 45L37 45V47C37.5304 47 38.0391 46.7893 38.4142 46.4142L37 45ZM37 45L38.4142 46.4143C38.7893 46.0392 39 45.5305 39 45H37ZM37 34V45H39V34H37ZM37.5402 35.0492C37.7473 35.0409 37.9538 35.0202 38.1584 34.9874L37.8416 33.0127C37.7152 33.0329 37.5877 33.0457 37.4598 33.0508L37.5402 35.0492ZM35.0972 34.4683C35.8397 34.8417 36.6577 35.0406 37.4888 35.05L37.5112 33.0501C36.9846 33.0442 36.4662 32.9181 35.9957 32.6815L35.0972 34.4683ZM33.204 32.8954C33.7071 33.5569 34.3546 34.0949 35.0972 34.4683L35.9957 32.6815C35.5251 32.4449 35.1148 32.104 34.796 31.6847L33.204 32.8954ZM34.4142 42.4143C34.7893 42.0392 35 41.5305 35 41H33L34.4142 42.4143ZM33 43C33.5304 43 34.0391 42.7893 34.4142 42.4142L33 41L33 41V43ZM30 43H33V41H30V43ZM28.5858 42.4142C28.9609 42.7893 29.4696 43 30 43V41L30 41L28.5858 42.4142ZM28 41C28 41.5305 28.2107 42.0392 28.5858 42.4143L30 41H30H28ZM28 38V41H30V38H28ZM28.5858 36.5858C28.2107 36.9609 28 37.4696 28 38H30H30L28.5858 36.5858ZM30 36C29.4696 36 28.9609 36.2108 28.5858 36.5858L30 38H30V36ZM33 36H30V38H33V36ZM34.4142 36.5858C34.0391 36.2108 33.5304 36 33 36V38L34.4142 36.5858ZM35 38C35 37.4696 34.7893 36.9609 34.4142 36.5858L33 38H35ZM35 41V38H33V41H35Z" fill="url(#paint2_radial_3567_190100)" fill-opacity="0.3" mask="url(#path-2-inside-1_3567_190100)"/>
</g>
<g filter="url(#filter1_bd_3567_190100)">
<mask id="path-4-inside-2_3567_190100" fill="white">
<path fillRule="evenodd" clipRule="evenodd" d="M38.3292 15.6009C38.1257 15.051 37.348 15.051 37.1445 15.6009L36.7236 16.7385C36.2118 18.1215 35.1214 19.2119 33.7384 19.7237L32.6008 20.1446C32.0509 20.3481 32.0509 21.1258 32.6008 21.3293L33.7384 21.7503C35.1214 22.262 36.2118 23.3524 36.7236 24.7354L37.1445 25.8731C37.348 26.4229 38.1257 26.4229 38.3292 25.8731L38.7501 24.7354C39.2619 23.3524 40.3523 22.262 41.7353 21.7503L42.873 21.3293C43.4228 21.1258 43.4228 20.3481 42.873 20.1446L41.7353 19.7237C40.3523 19.2119 39.2619 18.1215 38.7501 16.7385L38.3292 15.6009ZM43.9263 24.0637C43.8246 23.7888 43.4357 23.7888 43.334 24.0637L43.1235 24.6325C42.8676 25.324 42.3224 25.8692 41.6309 26.1251L41.0621 26.3356C40.7872 26.4373 40.7872 26.8262 41.0621 26.9279L41.6309 27.1384C42.3224 27.3943 42.8676 27.9395 43.1235 28.631L43.334 29.1998C43.4357 29.4747 43.8246 29.4747 43.9263 29.1998L44.1368 28.631C44.3927 27.9395 44.9379 27.3943 45.6294 27.1384L46.1982 26.9279C46.4731 26.8262 46.4731 26.4373 46.1982 26.3356L45.6294 26.1251C44.9379 25.8692 44.3927 25.324 44.1368 24.6325L43.9263 24.0637Z"/>
</mask>
<path fillRule="evenodd" clipRule="evenodd" d="M38.3292 15.6009C38.1257 15.051 37.348 15.051 37.1445 15.6009L36.7236 16.7385C36.2118 18.1215 35.1214 19.2119 33.7384 19.7237L32.6008 20.1446C32.0509 20.3481 32.0509 21.1258 32.6008 21.3293L33.7384 21.7503C35.1214 22.262 36.2118 23.3524 36.7236 24.7354L37.1445 25.8731C37.348 26.4229 38.1257 26.4229 38.3292 25.8731L38.7501 24.7354C39.2619 23.3524 40.3523 22.262 41.7353 21.7503L42.873 21.3293C43.4228 21.1258 43.4228 20.3481 42.873 20.1446L41.7353 19.7237C40.3523 19.2119 39.2619 18.1215 38.7501 16.7385L38.3292 15.6009ZM43.9263 24.0637C43.8246 23.7888 43.4357 23.7888 43.334 24.0637L43.1235 24.6325C42.8676 25.324 42.3224 25.8692 41.6309 26.1251L41.0621 26.3356C40.7872 26.4373 40.7872 26.8262 41.0621 26.9279L41.6309 27.1384C42.3224 27.3943 42.8676 27.9395 43.1235 28.631L43.334 29.1998C43.4357 29.4747 43.8246 29.4747 43.9263 29.1998L44.1368 28.631C44.3927 27.9395 44.9379 27.3943 45.6294 27.1384L46.1982 26.9279C46.4731 26.8262 46.4731 26.4373 46.1982 26.3356L45.6294 26.1251C44.9379 25.8692 44.3927 25.324 44.1368 24.6325L43.9263 24.0637Z" fill="url(#paint3_linear_3567_190100)" shape-rendering="crispEdges"/>
<path fillRule="evenodd" clipRule="evenodd" d="M38.3292 15.6009C38.1257 15.051 37.348 15.051 37.1445 15.6009L36.7236 16.7385C36.2118 18.1215 35.1214 19.2119 33.7384 19.7237L32.6008 20.1446C32.0509 20.3481 32.0509 21.1258 32.6008 21.3293L33.7384 21.7503C35.1214 22.262 36.2118 23.3524 36.7236 24.7354L37.1445 25.8731C37.348 26.4229 38.1257 26.4229 38.3292 25.8731L38.7501 24.7354C39.2619 23.3524 40.3523 22.262 41.7353 21.7503L42.873 21.3293C43.4228 21.1258 43.4228 20.3481 42.873 20.1446L41.7353 19.7237C40.3523 19.2119 39.2619 18.1215 38.7501 16.7385L38.3292 15.6009ZM43.9263 24.0637C43.8246 23.7888 43.4357 23.7888 43.334 24.0637L43.1235 24.6325C42.8676 25.324 42.3224 25.8692 41.6309 26.1251L41.0621 26.3356C40.7872 26.4373 40.7872 26.8262 41.0621 26.9279L41.6309 27.1384C42.3224 27.3943 42.8676 27.9395 43.1235 28.631L43.334 29.1998C43.4357 29.4747 43.8246 29.4747 43.9263 29.1998L44.1368 28.631C44.3927 27.9395 44.9379 27.3943 45.6294 27.1384L46.1982 26.9279C46.4731 26.8262 46.4731 26.4373 46.1982 26.3356L45.6294 26.1251C44.9379 25.8692 44.3927 25.324 44.1368 24.6325L43.9263 24.0637Z" fill="#344254" fill-opacity="0.15" shape-rendering="crispEdges"/>
<path d="M37.1445 15.6009L36.2067 15.2538L36.2067 15.2538L37.1445 15.6009ZM38.3292 15.6009L39.267 15.2538L39.267 15.2538L38.3292 15.6009ZM36.7236 16.7385L37.6614 17.0855L36.7236 16.7385ZM33.7384 19.7237L33.3914 18.7858L33.7384 19.7237ZM32.6008 20.1446L32.2537 19.2068H32.2537L32.6008 20.1446ZM32.6008 21.3293L32.9478 20.3915L32.9478 20.3915L32.6008 21.3293ZM33.7384 21.7503L33.3914 22.6881L33.3914 22.6881L33.7384 21.7503ZM36.7236 24.7354L35.7857 25.0825L36.7236 24.7354ZM37.1445 25.8731L38.0824 25.526H38.0824L37.1445 25.8731ZM38.3292 25.8731L39.267 26.2201L39.267 26.2201L38.3292 25.8731ZM38.7501 24.7354L37.8123 24.3884L38.7501 24.7354ZM41.7353 21.7503L41.3883 20.8124L41.7353 21.7503ZM42.873 21.3293L42.5259 20.3915L42.5259 20.3915L42.873 21.3293ZM42.873 20.1446L42.5259 21.0825V21.0825L42.873 20.1446ZM41.7353 19.7237L42.0824 18.7858L41.7353 19.7237ZM38.7501 16.7385L37.8123 17.0855V17.0855L38.7501 16.7385ZM43.334 24.0637L42.3961 23.7167V23.7167L43.334 24.0637ZM43.9263 24.0637L44.8642 23.7167V23.7167L43.9263 24.0637ZM43.1235 24.6325L44.0614 24.9795L44.0614 24.9795L43.1235 24.6325ZM41.6309 26.1251L41.978 27.0629H41.978L41.6309 26.1251ZM41.0621 26.3356L40.7151 25.3977H40.7151L41.0621 26.3356ZM41.0621 26.9279L40.7151 27.8658H40.7151L41.0621 26.9279ZM41.6309 27.1384L41.978 26.2005H41.978L41.6309 27.1384ZM43.1235 28.631L44.0614 28.2839V28.2839L43.1235 28.631ZM43.334 29.1998L42.3961 29.5468V29.5468L43.334 29.1998ZM43.9263 29.1998L44.8642 29.5468V29.5468L43.9263 29.1998ZM44.1368 28.631L43.1989 28.2839V28.2839L44.1368 28.631ZM45.6294 27.1384L45.2823 26.2005H45.2823L45.6294 27.1384ZM46.1982 26.9279L46.5452 27.8658H46.5452L46.1982 26.9279ZM46.1982 26.3356L46.5452 25.3977H46.5452L46.1982 26.3356ZM45.6294 26.1251L45.2823 27.0629H45.2823L45.6294 26.1251ZM44.1368 24.6325L43.1989 24.9795V24.9795L44.1368 24.6325ZM38.0824 15.9479C37.9637 16.2687 37.51 16.2687 37.3913 15.9479L39.267 15.2538C38.7414 13.8334 36.7323 13.8334 36.2067 15.2538L38.0824 15.9479ZM37.6614 17.0855L38.0824 15.9479L36.2067 15.2538L35.7857 16.3915L37.6614 17.0855ZM34.0854 20.6615C35.7421 20.0485 37.0484 18.7423 37.6614 17.0855L35.7857 16.3915C35.3752 17.5008 34.5006 18.3754 33.3914 18.7858L34.0854 20.6615ZM32.9478 21.0825L34.0854 20.6615L33.3914 18.7858L32.2537 19.2068L32.9478 21.0825ZM32.9478 20.3915C33.2685 20.5101 33.2685 20.9638 32.9478 21.0825L32.2537 19.2068C30.8332 19.7324 30.8332 21.7415 32.2537 22.2672L32.9478 20.3915ZM34.0854 20.8124L32.9478 20.3915L32.2537 22.2672L33.3914 22.6881L34.0854 20.8124ZM37.6614 24.3884C37.0484 22.7317 35.7421 21.4255 34.0854 20.8124L33.3914 22.6881C34.5006 23.0986 35.3752 23.9732 35.7857 25.0825L37.6614 24.3884ZM38.0824 25.526L37.6614 24.3884L35.7857 25.0825L36.2067 26.2201L38.0824 25.526ZM37.3913 25.526C37.51 25.2053 37.9637 25.2053 38.0824 25.526L36.2067 26.2201C36.7323 27.6406 38.7414 27.6406 39.267 26.2201L37.3913 25.526ZM37.8123 24.3884L37.3913 25.526L39.267 26.2201L39.688 25.0825L37.8123 24.3884ZM41.3883 20.8124C39.7316 21.4255 38.4253 22.7317 37.8123 24.3884L39.688 25.0825C40.0985 23.9732 40.9731 23.0986 42.0824 22.6881L41.3883 20.8124ZM42.5259 20.3915L41.3883 20.8124L42.0824 22.6881L43.22 22.2672L42.5259 20.3915ZM42.5259 21.0825C42.2052 20.9638 42.2052 20.5101 42.5259 20.3915L43.22 22.2672C44.6405 21.7415 44.6405 19.7324 43.22 19.2068L42.5259 21.0825ZM41.3883 20.6615L42.5259 21.0825L43.22 19.2068L42.0824 18.7858L41.3883 20.6615ZM37.8123 17.0855C38.4253 18.7423 39.7316 20.0485 41.3883 20.6615L42.0824 18.7858C40.9731 18.3754 40.0985 17.5008 39.688 16.3915L37.8123 17.0855ZM37.3913 15.9479L37.8123 17.0855L39.688 16.3915L39.267 15.2538L37.3913 15.9479ZM44.2718 24.4107C44.0514 25.0064 43.2089 25.0064 42.9885 24.4107L44.8642 23.7167C44.4403 22.5711 42.82 22.5711 42.3961 23.7167L44.2718 24.4107ZM44.0614 24.9795L44.2718 24.4107L42.3961 23.7167L42.1857 24.2855L44.0614 24.9795ZM41.978 27.0629C42.9432 26.7058 43.7042 25.9448 44.0614 24.9795L42.1857 24.2855C42.0311 24.7033 41.7017 25.0326 41.2839 25.1872L41.978 27.0629ZM41.4091 27.2734L41.978 27.0629L41.2839 25.1872L40.7151 25.3977L41.4091 27.2734ZM41.4091 25.99C42.0048 26.2105 42.0048 27.053 41.4091 27.2734L40.7151 25.3977C39.5695 25.8216 39.5695 27.4419 40.7151 27.8658L41.4091 25.99ZM41.978 26.2005L41.4091 25.99L40.7151 27.8658L41.2839 28.0762L41.978 26.2005ZM44.0614 28.2839C43.7042 27.3187 42.9432 26.5577 41.978 26.2005L41.2839 28.0762C41.7017 28.2308 42.0311 28.5602 42.1857 28.978L44.0614 28.2839ZM44.2718 28.8528L44.0614 28.2839L42.1857 28.978L42.3961 29.5468L44.2718 28.8528ZM42.9885 28.8528C43.2089 28.2571 44.0514 28.2571 44.2718 28.8528L42.3961 29.5468C42.82 30.6924 44.4403 30.6924 44.8642 29.5468L42.9885 28.8528ZM43.1989 28.2839L42.9885 28.8528L44.8642 29.5468L45.0746 28.978L43.1989 28.2839ZM45.2823 26.2005C44.3171 26.5577 43.5561 27.3187 43.1989 28.2839L45.0746 28.978C45.2292 28.5602 45.5586 28.2308 45.9764 28.0762L45.2823 26.2005ZM45.8512 25.99L45.2823 26.2005L45.9764 28.0762L46.5452 27.8658L45.8512 25.99ZM45.8512 27.2734C45.2555 27.053 45.2555 26.2105 45.8512 25.99L46.5452 27.8658C47.6908 27.4419 47.6908 25.8216 46.5452 25.3977L45.8512 27.2734ZM45.2823 27.0629L45.8512 27.2734L46.5452 25.3977L45.9764 25.1872L45.2823 27.0629ZM43.1989 24.9795C43.5561 25.9448 44.3171 26.7058 45.2823 27.0629L45.9764 25.1872C45.5586 25.0326 45.2292 24.7033 45.0746 24.2855L43.1989 24.9795ZM42.9885 24.4107L43.1989 24.9795L45.0746 24.2855L44.8642 23.7167L42.9885 24.4107Z" fill="url(#paint4_radial_3567_190100)" fill-opacity="0.6" mask="url(#path-4-inside-2_3567_190100)"/>
<path d="M37.1445 15.6009L36.2067 15.2538L36.2067 15.2538L37.1445 15.6009ZM38.3292 15.6009L39.267 15.2538L39.267 15.2538L38.3292 15.6009ZM36.7236 16.7385L37.6614 17.0855L36.7236 16.7385ZM33.7384 19.7237L33.3914 18.7858L33.7384 19.7237ZM32.6008 20.1446L32.2537 19.2068H32.2537L32.6008 20.1446ZM32.6008 21.3293L32.9478 20.3915L32.9478 20.3915L32.6008 21.3293ZM33.7384 21.7503L33.3914 22.6881L33.3914 22.6881L33.7384 21.7503ZM36.7236 24.7354L35.7857 25.0825L36.7236 24.7354ZM37.1445 25.8731L38.0824 25.526H38.0824L37.1445 25.8731ZM38.3292 25.8731L39.267 26.2201L39.267 26.2201L38.3292 25.8731ZM38.7501 24.7354L37.8123 24.3884L38.7501 24.7354ZM41.7353 21.7503L41.3883 20.8124L41.7353 21.7503ZM42.873 21.3293L42.5259 20.3915L42.5259 20.3915L42.873 21.3293ZM42.873 20.1446L42.5259 21.0825V21.0825L42.873 20.1446ZM41.7353 19.7237L42.0824 18.7858L41.7353 19.7237ZM38.7501 16.7385L37.8123 17.0855V17.0855L38.7501 16.7385ZM43.334 24.0637L42.3961 23.7167V23.7167L43.334 24.0637ZM43.9263 24.0637L44.8642 23.7167V23.7167L43.9263 24.0637ZM43.1235 24.6325L44.0614 24.9795L44.0614 24.9795L43.1235 24.6325ZM41.6309 26.1251L41.978 27.0629H41.978L41.6309 26.1251ZM41.0621 26.3356L40.7151 25.3977H40.7151L41.0621 26.3356ZM41.0621 26.9279L40.7151 27.8658H40.7151L41.0621 26.9279ZM41.6309 27.1384L41.978 26.2005H41.978L41.6309 27.1384ZM43.1235 28.631L44.0614 28.2839V28.2839L43.1235 28.631ZM43.334 29.1998L42.3961 29.5468V29.5468L43.334 29.1998ZM43.9263 29.1998L44.8642 29.5468V29.5468L43.9263 29.1998ZM44.1368 28.631L43.1989 28.2839V28.2839L44.1368 28.631ZM45.6294 27.1384L45.2823 26.2005H45.2823L45.6294 27.1384ZM46.1982 26.9279L46.5452 27.8658H46.5452L46.1982 26.9279ZM46.1982 26.3356L46.5452 25.3977H46.5452L46.1982 26.3356ZM45.6294 26.1251L45.2823 27.0629H45.2823L45.6294 26.1251ZM44.1368 24.6325L43.1989 24.9795V24.9795L44.1368 24.6325ZM38.0824 15.9479C37.9637 16.2687 37.51 16.2687 37.3913 15.9479L39.267 15.2538C38.7414 13.8334 36.7323 13.8334 36.2067 15.2538L38.0824 15.9479ZM37.6614 17.0855L38.0824 15.9479L36.2067 15.2538L35.7857 16.3915L37.6614 17.0855ZM34.0854 20.6615C35.7421 20.0485 37.0484 18.7423 37.6614 17.0855L35.7857 16.3915C35.3752 17.5008 34.5006 18.3754 33.3914 18.7858L34.0854 20.6615ZM32.9478 21.0825L34.0854 20.6615L33.3914 18.7858L32.2537 19.2068L32.9478 21.0825ZM32.9478 20.3915C33.2685 20.5101 33.2685 20.9638 32.9478 21.0825L32.2537 19.2068C30.8332 19.7324 30.8332 21.7415 32.2537 22.2672L32.9478 20.3915ZM34.0854 20.8124L32.9478 20.3915L32.2537 22.2672L33.3914 22.6881L34.0854 20.8124ZM37.6614 24.3884C37.0484 22.7317 35.7421 21.4255 34.0854 20.8124L33.3914 22.6881C34.5006 23.0986 35.3752 23.9732 35.7857 25.0825L37.6614 24.3884ZM38.0824 25.526L37.6614 24.3884L35.7857 25.0825L36.2067 26.2201L38.0824 25.526ZM37.3913 25.526C37.51 25.2053 37.9637 25.2053 38.0824 25.526L36.2067 26.2201C36.7323 27.6406 38.7414 27.6406 39.267 26.2201L37.3913 25.526ZM37.8123 24.3884L37.3913 25.526L39.267 26.2201L39.688 25.0825L37.8123 24.3884ZM41.3883 20.8124C39.7316 21.4255 38.4253 22.7317 37.8123 24.3884L39.688 25.0825C40.0985 23.9732 40.9731 23.0986 42.0824 22.6881L41.3883 20.8124ZM42.5259 20.3915L41.3883 20.8124L42.0824 22.6881L43.22 22.2672L42.5259 20.3915ZM42.5259 21.0825C42.2052 20.9638 42.2052 20.5101 42.5259 20.3915L43.22 22.2672C44.6405 21.7415 44.6405 19.7324 43.22 19.2068L42.5259 21.0825ZM41.3883 20.6615L42.5259 21.0825L43.22 19.2068L42.0824 18.7858L41.3883 20.6615ZM37.8123 17.0855C38.4253 18.7423 39.7316 20.0485 41.3883 20.6615L42.0824 18.7858C40.9731 18.3754 40.0985 17.5008 39.688 16.3915L37.8123 17.0855ZM37.3913 15.9479L37.8123 17.0855L39.688 16.3915L39.267 15.2538L37.3913 15.9479ZM44.2718 24.4107C44.0514 25.0064 43.2089 25.0064 42.9885 24.4107L44.8642 23.7167C44.4403 22.5711 42.82 22.5711 42.3961 23.7167L44.2718 24.4107ZM44.0614 24.9795L44.2718 24.4107L42.3961 23.7167L42.1857 24.2855L44.0614 24.9795ZM41.978 27.0629C42.9432 26.7058 43.7042 25.9448 44.0614 24.9795L42.1857 24.2855C42.0311 24.7033 41.7017 25.0326 41.2839 25.1872L41.978 27.0629ZM41.4091 27.2734L41.978 27.0629L41.2839 25.1872L40.7151 25.3977L41.4091 27.2734ZM41.4091 25.99C42.0048 26.2105 42.0048 27.053 41.4091 27.2734L40.7151 25.3977C39.5695 25.8216 39.5695 27.4419 40.7151 27.8658L41.4091 25.99ZM41.978 26.2005L41.4091 25.99L40.7151 27.8658L41.2839 28.0762L41.978 26.2005ZM44.0614 28.2839C43.7042 27.3187 42.9432 26.5577 41.978 26.2005L41.2839 28.0762C41.7017 28.2308 42.0311 28.5602 42.1857 28.978L44.0614 28.2839ZM44.2718 28.8528L44.0614 28.2839L42.1857 28.978L42.3961 29.5468L44.2718 28.8528ZM42.9885 28.8528C43.2089 28.2571 44.0514 28.2571 44.2718 28.8528L42.3961 29.5468C42.82 30.6924 44.4403 30.6924 44.8642 29.5468L42.9885 28.8528ZM43.1989 28.2839L42.9885 28.8528L44.8642 29.5468L45.0746 28.978L43.1989 28.2839ZM45.2823 26.2005C44.3171 26.5577 43.5561 27.3187 43.1989 28.2839L45.0746 28.978C45.2292 28.5602 45.5586 28.2308 45.9764 28.0762L45.2823 26.2005ZM45.8512 25.99L45.2823 26.2005L45.9764 28.0762L46.5452 27.8658L45.8512 25.99ZM45.8512 27.2734C45.2555 27.053 45.2555 26.2105 45.8512 25.99L46.5452 27.8658C47.6908 27.4419 47.6908 25.8216 46.5452 25.3977L45.8512 27.2734ZM45.2823 27.0629L45.8512 27.2734L46.5452 25.3977L45.9764 25.1872L45.2823 27.0629ZM43.1989 24.9795C43.5561 25.9448 44.3171 26.7058 45.2823 27.0629L45.9764 25.1872C45.5586 25.0326 45.2292 24.7033 45.0746 24.2855L43.1989 24.9795ZM42.9885 24.4107L43.1989 24.9795L45.0746 24.2855L44.8642 23.7167L42.9885 24.4107Z" fill="url(#paint5_radial_3567_190100)" fill-opacity="0.3" mask="url(#path-4-inside-2_3567_190100)"/>
</g>
</g>
<defs>
<filter id="filter0_bd_3567_190100" x="-3986" y="-3978" width="8026" height="8024" filterUnits="userSpaceOnUse" color-interpolation-filters="sRGB">
<feFlood flood-opacity="0" result="BackgroundImageFix"/>
<feGaussianBlur in="BackgroundImageFix" stdDeviation="2000"/>
<feComposite in2="SourceAlpha" operator="in" result="effect1_backgroundBlur_3567_190100"/>
<feColorMatrix in="SourceAlpha" type="matrix" values="0 0 0 0 0 0 0 0 0 0 0 0 0 0 0 0 0 0 127 0" result="hardAlpha"/>
<feOffset dy="16"/>
<feGaussianBlur stdDeviation="8"/>
<feComposite in2="hardAlpha" operator="out"/>
<feColorMatrix type="matrix" values="0 0 0 0 0 0 0 0 0 0 0 0 0 0 0 0 0 0 0.25 0"/>
<feBlend mode="normal" in2="effect1_backgroundBlur_3567_190100" result="effect2_dropShadow_3567_190100"/>
<feBlend mode="normal" in="SourceGraphic" in2="effect2_dropShadow_3567_190100" result="shape"/>
</filter>
<filter id="filter1_bd_3567_190100" x="-3967.81" y="-3984.81" width="8014.22" height="8014.22" filterUnits="userSpaceOnUse" color-interpolation-filters="sRGB">
<feFlood flood-opacity="0" result="BackgroundImageFix"/>
<feGaussianBlur in="BackgroundImageFix" stdDeviation="2000"/>
<feComposite in2="SourceAlpha" operator="in" result="effect1_backgroundBlur_3567_190100"/>
<feColorMatrix in="SourceAlpha" type="matrix" values="0 0 0 0 0 0 0 0 0 0 0 0 0 0 0 0 0 0 127 0" result="hardAlpha"/>
<feOffset dy="16"/>
<feGaussianBlur stdDeviation="8"/>
<feComposite in2="hardAlpha" operator="out"/>
<feColorMatrix type="matrix" values="0 0 0 0 0 0 0 0 0 0 0 0 0 0 0 0 0 0 0.25 0"/>
<feBlend mode="normal" in2="effect1_backgroundBlur_3567_190100" result="effect2_dropShadow_3567_190100"/>
<feBlend mode="normal" in="SourceGraphic" in2="effect2_dropShadow_3567_190100" result="shape"/>
</filter>
<linearGradient id="paint0_linear_3567_190100" x1="15.0728" y1="22.6182" x2="25.7188" y2="52.2333" gradientUnits="userSpaceOnUse">
<stop stop-color="white" stop-opacity="0.6"/>
<stop offset="1" stop-color="white" stop-opacity="0.1"/>
</linearGradient>
<radialGradient id="paint1_radial_3567_190100" cx="0" cy="0" r="1" gradientUnits="userSpaceOnUse" gradientTransform="translate(27.0004 22.2182) rotate(90) scale(20.8364 22.5734)">
<stop stop-color="white"/>
<stop offset="1" stop-color="white" stop-opacity="0"/>
</radialGradient>
<radialGradient id="paint2_radial_3567_190100" cx="0" cy="0" r="1" gradientUnits="userSpaceOnUse" gradientTransform="translate(27.0004 46) rotate(-90) scale(12 13.0004)">
<stop stop-color="white"/>
<stop offset="1" stop-color="white" stop-opacity="0"/>
</radialGradient>
<linearGradient id="paint3_linear_3567_190100" x1="32.7749" y1="15.5547" x2="39.4747" y2="32.7562" gradientUnits="userSpaceOnUse">
<stop stop-color="white" stop-opacity="0.6"/>
<stop offset="1" stop-color="white" stop-opacity="0.1"/>
</linearGradient>
<radialGradient id="paint4_radial_3567_190100" cx="0" cy="0" r="1" gradientUnits="userSpaceOnUse" gradientTransform="translate(39.2964 15.3177) rotate(90) scale(12.3434 12.3421)">
<stop stop-color="white"/>
<stop offset="1" stop-color="white" stop-opacity="0"/>
</radialGradient>
<radialGradient id="paint5_radial_3567_190100" cx="0" cy="0" r="1" gradientUnits="userSpaceOnUse" gradientTransform="translate(39.2964 29.406) rotate(-90) scale(7.10876 7.10802)">
<stop stop-color="white"/>
<stop offset="1" stop-color="white" stop-opacity="0"/>
</radialGradient>
<clipPath id="clip0_3567_190100">
<rect width="32" height="32" fill="white" transform="translate(14 14)"/>
</clipPath>
</defs>
</svg>
