<svg width="272" height="272" viewBox="0 0 272 272" fill="none" xmlns="http://www.w3.org/2000/svg">
<g filter="url(#filter0_bd_4547_36311)">
<rect x="16" width="240" height="240" rx="64" fill="url(#paint0_linear_4547_36311)" fill-opacity="0.48" shape-rendering="crispEdges"/>
<rect x="16" width="240" height="240" rx="64" fill="#344254" fill-opacity="0.1" shape-rendering="crispEdges"/>
<rect x="17" y="1" width="238" height="238" rx="63" stroke="url(#paint1_radial_4547_36311)" stroke-opacity="0.6" stroke-width="2" shape-rendering="crispEdges"/>
<rect x="17" y="1" width="238" height="238" rx="63" stroke="url(#paint2_radial_4547_36311)" stroke-opacity="0.3" stroke-width="2" shape-rendering="crispEdges"/>
</g>
<g clip-path="url(#clip0_4547_36311)">
<g filter="url(#filter1_bd_4547_36311)">
<path d="M130.151 67.1992L182.948 74.7417L190.49 127.539L141.464 176.565C139.381 178.648 136.005 178.648 133.922 176.565L81.1246 123.768C79.0418 121.685 79.0418 118.308 81.1246 116.225L130.151 67.1992ZM145.236 112.454C149.401 116.62 156.155 116.62 160.321 112.454C164.486 108.288 164.486 101.535 160.321 97.3691C156.155 93.2035 149.401 93.2035 145.236 97.3691C141.07 101.535 141.07 108.288 145.236 112.454Z" fill="url(#paint3_linear_4547_36311)" shape-rendering="crispEdges"/>
<path d="M130.151 67.1992L182.948 74.7417L190.49 127.539L141.464 176.565C139.381 178.648 136.005 178.648 133.922 176.565L81.1246 123.768C79.0418 121.685 79.0418 118.308 81.1246 116.225L130.151 67.1992ZM145.236 112.454C149.401 116.62 156.155 116.62 160.321 112.454C164.486 108.288 164.486 101.535 160.321 97.3691C156.155 93.2035 149.401 93.2035 145.236 97.3691C141.07 101.535 141.07 108.288 145.236 112.454Z" fill="#344254" fill-opacity="0.15" shape-rendering="crispEdges"/>
<path d="M130.151 67.1992L182.948 74.7417L190.49 127.539L141.464 176.565C139.381 178.648 136.005 178.648 133.922 176.565L81.1246 123.768C79.0418 121.685 79.0418 118.308 81.1246 116.225L130.151 67.1992ZM145.236 112.454C149.401 116.62 156.155 116.62 160.321 112.454C164.486 108.288 164.486 101.535 160.321 97.3691C156.155 93.2035 149.401 93.2035 145.236 97.3691C141.07 101.535 141.07 108.288 145.236 112.454Z" fill="white" fill-opacity="0.2" shape-rendering="crispEdges"/>
<path d="M140.757 175.858L140.757 175.858C139.065 177.55 136.322 177.55 134.629 175.858L81.8318 123.061C80.1394 121.368 80.1394 118.625 81.8318 116.932L130.504 68.2599L182.064 75.6256L189.43 127.186L140.757 175.858ZM161.028 96.662L161.028 96.662C156.471 92.1059 149.085 92.1059 144.529 96.662C139.972 101.218 139.972 108.605 144.529 113.161C149.085 117.717 156.471 117.717 161.028 113.161C165.584 108.605 165.584 101.218 161.028 96.662Z" stroke="url(#paint4_radial_4547_36311)" stroke-opacity="0.6" stroke-width="2" shape-rendering="crispEdges"/>
<path d="M140.757 175.858L140.757 175.858C139.065 177.55 136.322 177.55 134.629 175.858L81.8318 123.061C80.1394 121.368 80.1394 118.625 81.8318 116.932L130.504 68.2599L182.064 75.6256L189.43 127.186L140.757 175.858ZM161.028 96.662L161.028 96.662C156.471 92.1059 149.085 92.1059 144.529 96.662C139.972 101.218 139.972 108.605 144.529 113.161C149.085 117.717 156.471 117.717 161.028 113.161C165.584 108.605 165.584 101.218 161.028 96.662Z" stroke="url(#paint5_radial_4547_36311)" stroke-opacity="0.3" stroke-width="2" shape-rendering="crispEdges"/>
</g>
</g>
<defs>
<filter id="filter0_bd_4547_36311" x="-3984" y="-4000" width="8240" height="8240" filterUnits="userSpaceOnUse" color-interpolation-filters="sRGB">
<feFlood flood-opacity="0" result="BackgroundImageFix"/>
<feGaussianBlur in="BackgroundImageFix" stdDeviation="2000"/>
<feComposite in2="SourceAlpha" operator="in" result="effect1_backgroundBlur_4547_36311"/>
<feColorMatrix in="SourceAlpha" type="matrix" values="0 0 0 0 0 0 0 0 0 0 0 0 0 0 0 0 0 0 127 0" result="hardAlpha"/>
<feOffset dy="16"/>
<feGaussianBlur stdDeviation="8"/>
<feComposite in2="hardAlpha" operator="out"/>
<feColorMatrix type="matrix" values="0 0 0 0 0 0 0 0 0 0 0 0 0 0 0 0 0 0 0.25 0"/>
<feBlend mode="normal" in2="effect1_backgroundBlur_4547_36311" result="effect2_dropShadow_4547_36311"/>
<feBlend mode="normal" in="SourceGraphic" in2="effect2_dropShadow_4547_36311" result="shape"/>
</filter>
<filter id="filter1_bd_4547_36311" x="-3920.44" y="-3932.8" width="8110.93" height="8110.93" filterUnits="userSpaceOnUse" color-interpolation-filters="sRGB">
<feFlood flood-opacity="0" result="BackgroundImageFix"/>
<feGaussianBlur in="BackgroundImageFix" stdDeviation="2000"/>
<feComposite in2="SourceAlpha" operator="in" result="effect1_backgroundBlur_4547_36311"/>
<feColorMatrix in="SourceAlpha" type="matrix" values="0 0 0 0 0 0 0 0 0 0 0 0 0 0 0 0 0 0 127 0" result="hardAlpha"/>
<feOffset dy="16"/>
<feGaussianBlur stdDeviation="8"/>
<feComposite in2="hardAlpha" operator="out"/>
<feColorMatrix type="matrix" values="0 0 0 0 0 0 0 0 0 0 0 0 0 0 0 0 0 0 0.25 0"/>
<feBlend mode="normal" in2="effect1_backgroundBlur_4547_36311" result="effect2_dropShadow_4547_36311"/>
<feBlend mode="normal" in="SourceGraphic" in2="effect2_dropShadow_4547_36311" result="shape"/>
</filter>
<linearGradient id="paint0_linear_4547_36311" x1="25.9029" y1="6.18182" x2="138.99" y2="296.562" gradientUnits="userSpaceOnUse">
<stop stop-color="white" stop-opacity="0.4"/>
<stop offset="1" stop-color="white" stop-opacity="0"/>
</linearGradient>
<radialGradient id="paint1_radial_4547_36311" cx="0" cy="0" r="1" gradientUnits="userSpaceOnUse" gradientTransform="translate(136 2.18182) rotate(90) scale(208.364)">
<stop stop-color="white"/>
<stop offset="1" stop-color="white" stop-opacity="0"/>
</radialGradient>
<radialGradient id="paint2_radial_4547_36311" cx="0" cy="0" r="1" gradientUnits="userSpaceOnUse" gradientTransform="translate(136 240) rotate(-90) scale(120)">
<stop stop-color="white"/>
<stop offset="1" stop-color="white" stop-opacity="0"/>
</radialGradient>
<linearGradient id="paint3_linear_4547_36311" x1="84.1396" y1="70.0565" x2="136.408" y2="204.27" gradientUnits="userSpaceOnUse">
<stop stop-color="white" stop-opacity="0.6"/>
<stop offset="1" stop-color="white" stop-opacity="0.1"/>
</linearGradient>
<radialGradient id="paint4_radial_4547_36311" cx="0" cy="0" r="1" gradientUnits="userSpaceOnUse" gradientTransform="translate(135.026 68.2077) rotate(90) scale(96.3057 96.3055)">
<stop stop-color="white"/>
<stop offset="1" stop-color="white" stop-opacity="0"/>
</radialGradient>
<radialGradient id="paint5_radial_4547_36311" cx="0" cy="0" r="1" gradientUnits="userSpaceOnUse" gradientTransform="translate(135.026 178.127) rotate(-90) scale(55.464 55.4639)">
<stop stop-color="white"/>
<stop offset="1" stop-color="white" stop-opacity="0"/>
</radialGradient>
<clipPath id="clip0_4547_36311">
<rect width="128" height="128" fill="white" transform="translate(72 56)"/>
</clipPath>
</defs>
</svg>
