<svg width="272" height="272" viewBox="0 0 272 272" fill="none" xmlns="http://www.w3.org/2000/svg">
<g filter="url(#filter0_bd_4547_36281)">
<rect x="16" width="240" height="240" rx="64" fill="url(#paint0_linear_4547_36281)" fill-opacity="0.48" shape-rendering="crispEdges"/>
<rect x="16" width="240" height="240" rx="64" fill="#344254" fill-opacity="0.1" shape-rendering="crispEdges"/>
<rect x="17" y="1" width="238" height="238" rx="63" stroke="url(#paint1_radial_4547_36281)" stroke-opacity="0.6" stroke-width="2" shape-rendering="crispEdges"/>
<rect x="17" y="1" width="238" height="238" rx="63" stroke="url(#paint2_radial_4547_36281)" stroke-opacity="0.3" stroke-width="2" shape-rendering="crispEdges"/>
</g>
<g clip-path="url(#clip0_4547_36281)">
<g filter="url(#filter1_bd_4547_36281)">
<path d="M88 77.2981C88 74.3721 90.3731 72 93.2981 72H178.702C181.628 72 184 74.3731 184 77.2981V162.702C184 165.628 181.627 168 178.702 168H93.2981C90.3721 168 88 165.627 88 162.702V77.2981ZM128.65 100.878C128.3 100.644 127.888 100.52 127.467 100.52C126.289 100.52 125.333 101.475 125.333 102.653V137.347C125.333 137.769 125.458 138.18 125.692 138.531C126.345 139.511 127.67 139.776 128.65 139.122L154.671 121.775C154.905 121.619 155.106 121.418 155.262 121.183C155.916 120.203 155.651 118.878 154.671 118.225L128.65 100.878Z" fill="url(#paint3_linear_4547_36281)" shape-rendering="crispEdges"/>
<path d="M88 77.2981C88 74.3721 90.3731 72 93.2981 72H178.702C181.628 72 184 74.3731 184 77.2981V162.702C184 165.628 181.627 168 178.702 168H93.2981C90.3721 168 88 165.627 88 162.702V77.2981ZM128.65 100.878C128.3 100.644 127.888 100.52 127.467 100.52C126.289 100.52 125.333 101.475 125.333 102.653V137.347C125.333 137.769 125.458 138.18 125.692 138.531C126.345 139.511 127.67 139.776 128.65 139.122L154.671 121.775C154.905 121.619 155.106 121.418 155.262 121.183C155.916 120.203 155.651 118.878 154.671 118.225L128.65 100.878Z" fill="#344254" fill-opacity="0.15" shape-rendering="crispEdges"/>
<path d="M88 77.2981C88 74.3721 90.3731 72 93.2981 72H178.702C181.628 72 184 74.3731 184 77.2981V162.702C184 165.628 181.627 168 178.702 168H93.2981C90.3721 168 88 165.627 88 162.702V77.2981ZM128.65 100.878C128.3 100.644 127.888 100.52 127.467 100.52C126.289 100.52 125.333 101.475 125.333 102.653V137.347C125.333 137.769 125.458 138.18 125.692 138.531C126.345 139.511 127.67 139.776 128.65 139.122L154.671 121.775C154.905 121.619 155.106 121.418 155.262 121.183C155.916 120.203 155.651 118.878 154.671 118.225L128.65 100.878Z" fill="white" fill-opacity="0.2" shape-rendering="crispEdges"/>
<path d="M124.86 139.085C125.819 140.525 127.765 140.914 129.205 139.954C129.205 139.954 129.205 139.954 129.205 139.954L155.226 122.607L155.226 122.607C155.57 122.377 155.865 122.082 156.094 121.739L156.094 121.738C157.055 120.298 156.665 118.353 155.226 117.393L129.205 100.046C128.69 99.7026 128.085 99.5195 127.467 99.5195C125.736 99.5195 124.333 100.922 124.333 102.653V137.347C124.333 137.966 124.517 138.571 124.86 139.085ZM124.86 139.085L125.678 138.54L124.86 139.085C124.86 139.085 124.86 139.085 124.86 139.085ZM89 77.2981C89 74.9245 90.9252 73 93.2981 73H178.702C181.075 73 183 74.9253 183 77.2981V162.702C183 165.075 181.075 167 178.702 167H93.2981C90.9244 167 89 165.075 89 162.702V77.2981Z" stroke="url(#paint4_radial_4547_36281)" stroke-opacity="0.6" stroke-width="2" shape-rendering="crispEdges"/>
<path d="M124.86 139.085C125.819 140.525 127.765 140.914 129.205 139.954C129.205 139.954 129.205 139.954 129.205 139.954L155.226 122.607L155.226 122.607C155.57 122.377 155.865 122.082 156.094 121.739L156.094 121.738C157.055 120.298 156.665 118.353 155.226 117.393L129.205 100.046C128.69 99.7026 128.085 99.5195 127.467 99.5195C125.736 99.5195 124.333 100.922 124.333 102.653V137.347C124.333 137.966 124.517 138.571 124.86 139.085ZM124.86 139.085L125.678 138.54L124.86 139.085C124.86 139.085 124.86 139.085 124.86 139.085ZM89 77.2981C89 74.9245 90.9252 73 93.2981 73H178.702C181.075 73 183 74.9253 183 77.2981V162.702C183 165.075 181.075 167 178.702 167H93.2981C90.9244 167 89 165.075 89 162.702V77.2981Z" stroke="url(#paint5_radial_4547_36281)" stroke-opacity="0.3" stroke-width="2" shape-rendering="crispEdges"/>
</g>
</g>
<defs>
<filter id="filter0_bd_4547_36281" x="-3984" y="-4000" width="8240" height="8240" filterUnits="userSpaceOnUse" color-interpolation-filters="sRGB">
<feFlood flood-opacity="0" result="BackgroundImageFix"/>
<feGaussianBlur in="BackgroundImageFix" stdDeviation="2000"/>
<feComposite in2="SourceAlpha" operator="in" result="effect1_backgroundBlur_4547_36281"/>
<feColorMatrix in="SourceAlpha" type="matrix" values="0 0 0 0 0 0 0 0 0 0 0 0 0 0 0 0 0 0 127 0" result="hardAlpha"/>
<feOffset dy="16"/>
<feGaussianBlur stdDeviation="8"/>
<feComposite in2="hardAlpha" operator="out"/>
<feColorMatrix type="matrix" values="0 0 0 0 0 0 0 0 0 0 0 0 0 0 0 0 0 0 0.25 0"/>
<feBlend mode="normal" in2="effect1_backgroundBlur_4547_36281" result="effect2_dropShadow_4547_36281"/>
<feBlend mode="normal" in="SourceGraphic" in2="effect2_dropShadow_4547_36281" result="shape"/>
</filter>
<filter id="filter1_bd_4547_36281" x="-3912" y="-3928" width="8096" height="8096" filterUnits="userSpaceOnUse" color-interpolation-filters="sRGB">
<feFlood flood-opacity="0" result="BackgroundImageFix"/>
<feGaussianBlur in="BackgroundImageFix" stdDeviation="2000"/>
<feComposite in2="SourceAlpha" operator="in" result="effect1_backgroundBlur_4547_36281"/>
<feColorMatrix in="SourceAlpha" type="matrix" values="0 0 0 0 0 0 0 0 0 0 0 0 0 0 0 0 0 0 127 0" result="hardAlpha"/>
<feOffset dy="16"/>
<feGaussianBlur stdDeviation="8"/>
<feComposite in2="hardAlpha" operator="out"/>
<feColorMatrix type="matrix" values="0 0 0 0 0 0 0 0 0 0 0 0 0 0 0 0 0 0 0.25 0"/>
<feBlend mode="normal" in2="effect1_backgroundBlur_4547_36281" result="effect2_dropShadow_4547_36281"/>
<feBlend mode="normal" in="SourceGraphic" in2="effect2_dropShadow_4547_36281" result="shape"/>
</filter>
<linearGradient id="paint0_linear_4547_36281" x1="25.9029" y1="6.18182" x2="138.99" y2="296.562" gradientUnits="userSpaceOnUse">
<stop stop-color="white" stop-opacity="0.4"/>
<stop offset="1" stop-color="white" stop-opacity="0"/>
</linearGradient>
<radialGradient id="paint1_radial_4547_36281" cx="0" cy="0" r="1" gradientUnits="userSpaceOnUse" gradientTransform="translate(136 2.18182) rotate(90) scale(208.364)">
<stop stop-color="white"/>
<stop offset="1" stop-color="white" stop-opacity="0"/>
</radialGradient>
<radialGradient id="paint2_radial_4547_36281" cx="0" cy="0" r="1" gradientUnits="userSpaceOnUse" gradientTransform="translate(136 240) rotate(-90) scale(120)">
<stop stop-color="white"/>
<stop offset="1" stop-color="white" stop-opacity="0"/>
</radialGradient>
<linearGradient id="paint3_linear_4547_36281" x1="91.9612" y1="74.4727" x2="137.196" y2="190.625" gradientUnits="userSpaceOnUse">
<stop stop-color="white" stop-opacity="0.6"/>
<stop offset="1" stop-color="white" stop-opacity="0.1"/>
</linearGradient>
<radialGradient id="paint4_radial_4547_36281" cx="0" cy="0" r="1" gradientUnits="userSpaceOnUse" gradientTransform="translate(136 72.8727) rotate(90) scale(83.3455)">
<stop stop-color="white"/>
<stop offset="1" stop-color="white" stop-opacity="0"/>
</radialGradient>
<radialGradient id="paint5_radial_4547_36281" cx="0" cy="0" r="1" gradientUnits="userSpaceOnUse" gradientTransform="translate(136 168) rotate(-90) scale(48)">
<stop stop-color="white"/>
<stop offset="1" stop-color="white" stop-opacity="0"/>
</radialGradient>
<clipPath id="clip0_4547_36281">
<rect width="128" height="128" fill="white" transform="translate(72 56)"/>
</clipPath>
</defs>
</svg>
