<svg width="272" height="272" viewBox="0 0 272 272" fill="none" xmlns="http://www.w3.org/2000/svg">
<g filter="url(#filter0_bd_4547_36296)">
<rect x="16" width="240" height="240" rx="64" fill="url(#paint0_linear_4547_36296)" fill-opacity="0.08" shape-rendering="crispEdges"/>
<rect x="16" width="240" height="240" rx="64" fill="#344254" fill-opacity="0.1" shape-rendering="crispEdges"/>
<rect x="17" y="1" width="238" height="238" rx="63" stroke="url(#paint1_radial_4547_36296)" stroke-opacity="0.6" stroke-width="2" shape-rendering="crispEdges"/>
<rect x="17" y="1" width="238" height="238" rx="63" stroke="url(#paint2_radial_4547_36296)" stroke-opacity="0.3" stroke-width="2" shape-rendering="crispEdges"/>
</g>
<g clip-path="url(#clip0_4547_36296)">
<g filter="url(#filter1_bd_4547_36296)">
<path d="M100.416 73.4458C106.992 71.1078 114.618 72.5707 119.882 77.8345C125.147 83.0998 126.609 90.7282 124.268 97.3059L182.107 155.145L170.793 166.459L112.949 108.622C106.372 110.96 98.7468 109.497 93.483 104.233C88.2176 98.9678 86.7554 91.3395 89.0962 84.7618L101.025 96.6907C104.15 99.8149 109.215 99.8149 112.339 96.6907C115.463 93.5665 115.463 88.5012 112.339 85.377L100.416 73.4458ZM155.708 83.4914L172.679 74.0633L180.222 81.6058L170.793 98.5763L161.365 100.462L150.051 111.776L142.509 104.233L153.823 92.9195L155.708 83.4914ZM117.996 124.975L129.31 136.289L102.911 162.687C99.7869 165.812 94.7215 165.812 91.5974 162.687C88.6569 159.747 88.484 155.087 91.0784 151.944L91.5974 151.374L117.996 124.975Z" fill="url(#paint3_linear_4547_36296)" shape-rendering="crispEdges"/>
<path d="M100.416 73.4458C106.992 71.1078 114.618 72.5707 119.882 77.8345C125.147 83.0998 126.609 90.7282 124.268 97.3059L182.107 155.145L170.793 166.459L112.949 108.622C106.372 110.96 98.7468 109.497 93.483 104.233C88.2176 98.9678 86.7554 91.3395 89.0962 84.7618L101.025 96.6907C104.15 99.8149 109.215 99.8149 112.339 96.6907C115.463 93.5665 115.463 88.5012 112.339 85.377L100.416 73.4458ZM155.708 83.4914L172.679 74.0633L180.222 81.6058L170.793 98.5763L161.365 100.462L150.051 111.776L142.509 104.233L153.823 92.9195L155.708 83.4914ZM117.996 124.975L129.31 136.289L102.911 162.687C99.7869 165.812 94.7215 165.812 91.5974 162.687C88.6569 159.747 88.484 155.087 91.0784 151.944L91.5974 151.374L117.996 124.975Z" fill="#344254" fill-opacity="0.15" shape-rendering="crispEdges"/>
<path d="M102.3 73.9163C108.145 72.4258 114.602 73.969 119.175 78.5416C124.157 83.5238 125.543 90.7428 123.326 96.9706L123.114 97.5661L123.561 98.013L180.693 155.145L170.793 165.044L113.656 107.915L113.209 107.468L112.614 107.68C106.387 109.893 99.1709 108.507 94.1901 103.526C89.616 98.952 88.0733 92.4927 89.5662 86.6459L100.318 97.3978C103.833 100.913 109.532 100.913 113.046 97.3978C116.561 93.8832 116.561 88.1849 113.046 84.6701C113.046 84.6701 113.046 84.67 113.046 84.6699L102.3 73.9163ZM150.051 110.362L143.923 104.233L154.53 93.6266L154.744 93.4125L154.803 93.1156L156.598 84.1409L172.505 75.3037L178.981 81.7795L170.144 97.6864L161.169 99.4813L160.872 99.5407L160.658 99.7548L150.051 110.362ZM92.3213 152.064L117.996 126.389L127.895 136.289L102.204 161.98L102.911 162.687L102.204 161.98C99.4703 164.714 95.0381 164.714 92.3045 161.98L91.5987 162.686L92.3045 161.98C89.7376 159.413 89.5808 155.347 91.8348 152.599L92.3213 152.064Z" stroke="url(#paint4_radial_4547_36296)" stroke-opacity="0.6" stroke-width="2" shape-rendering="crispEdges"/>
<path d="M102.3 73.9163C108.145 72.4258 114.602 73.969 119.175 78.5416C124.157 83.5238 125.543 90.7428 123.326 96.9706L123.114 97.5661L123.561 98.013L180.693 155.145L170.793 165.044L113.656 107.915L113.209 107.468L112.614 107.68C106.387 109.893 99.1709 108.507 94.1901 103.526C89.616 98.952 88.0733 92.4927 89.5662 86.6459L100.318 97.3978C103.833 100.913 109.532 100.913 113.046 97.3978C116.561 93.8832 116.561 88.1849 113.046 84.6701C113.046 84.6701 113.046 84.67 113.046 84.6699L102.3 73.9163ZM150.051 110.362L143.923 104.233L154.53 93.6266L154.744 93.4125L154.803 93.1156L156.598 84.1409L172.505 75.3037L178.981 81.7795L170.144 97.6864L161.169 99.4813L160.872 99.5407L160.658 99.7548L150.051 110.362ZM92.3213 152.064L117.996 126.389L127.895 136.289L102.204 161.98L102.911 162.687L102.204 161.98C99.4703 164.714 95.0381 164.714 92.3045 161.98L91.5987 162.686L92.3045 161.98C89.7376 159.413 89.5808 155.347 91.8348 152.599L92.3213 152.064Z" stroke="url(#paint5_radial_4547_36296)" stroke-opacity="0.3" stroke-width="2" shape-rendering="crispEdges"/>
</g>
</g>
<defs>
<filter id="filter0_bd_4547_36296" x="-3984" y="-4000" width="8240" height="8240" filterUnits="userSpaceOnUse" color-interpolation-filters="sRGB">
<feFlood flood-opacity="0" result="BackgroundImageFix"/>
<feGaussianBlur in="BackgroundImageFix" stdDeviation="2000"/>
<feComposite in2="SourceAlpha" operator="in" result="effect1_backgroundBlur_4547_36296"/>
<feColorMatrix in="SourceAlpha" type="matrix" values="0 0 0 0 0 0 0 0 0 0 0 0 0 0 0 0 0 0 127 0" result="hardAlpha"/>
<feOffset dy="16"/>
<feGaussianBlur stdDeviation="8"/>
<feComposite in2="hardAlpha" operator="out"/>
<feColorMatrix type="matrix" values="0 0 0 0 0 0 0 0 0 0 0 0 0 0 0 0 0 0 0.25 0"/>
<feBlend mode="normal" in2="effect1_backgroundBlur_4547_36296" result="effect2_dropShadow_4547_36296"/>
<feBlend mode="normal" in="SourceGraphic" in2="effect2_dropShadow_4547_36296" result="shape"/>
</filter>
<filter id="filter1_bd_4547_36296" x="-3911.98" y="-3927.63" width="8094.09" height="8094.09" filterUnits="userSpaceOnUse" color-interpolation-filters="sRGB">
<feFlood flood-opacity="0" result="BackgroundImageFix"/>
<feGaussianBlur in="BackgroundImageFix" stdDeviation="2000"/>
<feComposite in2="SourceAlpha" operator="in" result="effect1_backgroundBlur_4547_36296"/>
<feColorMatrix in="SourceAlpha" type="matrix" values="0 0 0 0 0 0 0 0 0 0 0 0 0 0 0 0 0 0 127 0" result="hardAlpha"/>
<feOffset dy="16"/>
<feGaussianBlur stdDeviation="8"/>
<feComposite in2="hardAlpha" operator="out"/>
<feColorMatrix type="matrix" values="0 0 0 0 0 0 0 0 0 0 0 0 0 0 0 0 0 0 0.25 0"/>
<feBlend mode="normal" in2="effect1_backgroundBlur_4547_36296" result="effect2_dropShadow_4547_36296"/>
<feBlend mode="normal" in="SourceGraphic" in2="effect2_dropShadow_4547_36296" result="shape"/>
</filter>
<linearGradient id="paint0_linear_4547_36296" x1="25.9029" y1="6.18182" x2="138.99" y2="296.562" gradientUnits="userSpaceOnUse">
<stop stop-color="white" stop-opacity="0.4"/>
<stop offset="1" stop-color="white" stop-opacity="0"/>
</linearGradient>
<radialGradient id="paint1_radial_4547_36296" cx="0" cy="0" r="1" gradientUnits="userSpaceOnUse" gradientTransform="translate(136 2.18182) rotate(90) scale(208.364)">
<stop stop-color="white"/>
<stop offset="1" stop-color="white" stop-opacity="0"/>
</radialGradient>
<radialGradient id="paint2_radial_4547_36296" cx="0" cy="0" r="1" gradientUnits="userSpaceOnUse" gradientTransform="translate(136 240) rotate(-90) scale(120)">
<stop stop-color="white"/>
<stop offset="1" stop-color="white" stop-opacity="0"/>
</radialGradient>
<linearGradient id="paint3_linear_4547_36296" x1="91.898" y1="74.7908" x2="136.233" y2="188.633" gradientUnits="userSpaceOnUse">
<stop stop-color="white" stop-opacity="0.6"/>
<stop offset="1" stop-color="white" stop-opacity="0.1"/>
</linearGradient>
<radialGradient id="paint4_radial_4547_36296" cx="0" cy="0" r="1" gradientUnits="userSpaceOnUse" gradientTransform="translate(135.061 73.2226) rotate(90) scale(81.6884 81.6883)">
<stop stop-color="white"/>
<stop offset="1" stop-color="white" stop-opacity="0"/>
</radialGradient>
<radialGradient id="paint5_radial_4547_36296" cx="0" cy="0" r="1" gradientUnits="userSpaceOnUse" gradientTransform="translate(135.061 166.459) rotate(-90) scale(47.0457 47.0456)">
<stop stop-color="white"/>
<stop offset="1" stop-color="white" stop-opacity="0"/>
</radialGradient>
<clipPath id="clip0_4547_36296">
<rect width="128" height="128" fill="white" transform="translate(72 56)"/>
</clipPath>
</defs>
</svg>
