<svg width="272" height="272" viewBox="0 0 272 272" fill="none" xmlns="http://www.w3.org/2000/svg">
<g filter="url(#filter0_bd_4547_36301)">
<rect x="16" width="240" height="240" rx="64" fill="url(#paint0_linear_4547_36301)"/>
<rect x="16" width="240" height="240" rx="64" fill="#344254" fill-opacity="0.15"/>
<rect x="17" y="1" width="238" height="238" rx="63" stroke="url(#paint1_radial_4547_36301)" stroke-opacity="0.6" stroke-width="2"/>
<rect x="17" y="1" width="238" height="238" rx="63" stroke="url(#paint2_radial_4547_36301)" stroke-opacity="0.3" stroke-width="2"/>
<rect x="17" y="1" width="238" height="238" rx="63" stroke="url(#paint3_linear_4547_36301)" stroke-width="2"/>
</g>
<g clip-path="url(#clip0_4547_36301)">
<g filter="url(#filter1_bd_4547_36301)">
<path d="M128.626 150.905L133.306 140.184C137.472 130.643 144.97 123.049 154.322 118.897L167.206 113.178C171.302 111.36 171.302 105.401 167.206 103.583L154.724 98.0425C145.131 93.7842 137.499 85.9085 133.405 76.0425L128.664 64.6174C126.904 60.3775 121.046 60.3776 119.287 64.6174L114.545 76.0424C110.451 85.9085 102.818 93.7842 93.2255 98.0425L80.744 103.583C76.6478 105.401 76.6478 111.36 80.744 113.178L93.6279 118.897C102.98 123.049 110.478 130.643 114.644 140.184L119.324 150.905C121.124 155.025 126.826 155.025 128.626 150.905ZM175.49 177.008L176.806 173.991C179.153 168.611 183.379 164.328 188.653 161.985L192.708 160.183C194.902 159.209 194.902 156.021 192.708 155.047L188.88 153.345C183.471 150.942 179.168 146.5 176.861 140.938L175.51 137.678C174.568 135.406 171.426 135.406 170.484 137.678L169.132 140.938C166.826 146.5 162.524 150.942 157.114 153.345L153.285 155.047C151.092 156.021 151.092 159.209 153.285 160.183L157.341 161.985C162.615 164.328 166.841 168.611 169.188 173.991L170.505 177.008C171.468 179.216 174.526 179.216 175.49 177.008Z" fill="url(#paint4_linear_4547_36301)" shape-rendering="crispEdges"/>
<path d="M128.626 150.905L133.306 140.184C137.472 130.643 144.97 123.049 154.322 118.897L167.206 113.178C171.302 111.36 171.302 105.401 167.206 103.583L154.724 98.0425C145.131 93.7842 137.499 85.9085 133.405 76.0425L128.664 64.6174C126.904 60.3775 121.046 60.3776 119.287 64.6174L114.545 76.0424C110.451 85.9085 102.818 93.7842 93.2255 98.0425L80.744 103.583C76.6478 105.401 76.6478 111.36 80.744 113.178L93.6279 118.897C102.98 123.049 110.478 130.643 114.644 140.184L119.324 150.905C121.124 155.025 126.826 155.025 128.626 150.905ZM175.49 177.008L176.806 173.991C179.153 168.611 183.379 164.328 188.653 161.985L192.708 160.183C194.902 159.209 194.902 156.021 192.708 155.047L188.88 153.345C183.471 150.942 179.168 146.5 176.861 140.938L175.51 137.678C174.568 135.406 171.426 135.406 170.484 137.678L169.132 140.938C166.826 146.5 162.524 150.942 157.114 153.345L153.285 155.047C151.092 156.021 151.092 159.209 153.285 160.183L157.341 161.985C162.615 164.328 166.841 168.611 169.188 173.991L170.505 177.008C171.468 179.216 174.526 179.216 175.49 177.008Z" fill="white" fill-opacity="0.6" shape-rendering="crispEdges"/>
<path d="M128.626 150.905L133.306 140.184C137.472 130.643 144.97 123.049 154.322 118.897L167.206 113.178C171.302 111.36 171.302 105.401 167.206 103.583L154.724 98.0425C145.131 93.7842 137.499 85.9085 133.405 76.0425L128.664 64.6174C126.904 60.3775 121.046 60.3776 119.287 64.6174L114.545 76.0424C110.451 85.9085 102.818 93.7842 93.2255 98.0425L80.744 103.583C76.6478 105.401 76.6478 111.36 80.744 113.178L93.6279 118.897C102.98 123.049 110.478 130.643 114.644 140.184L119.324 150.905C121.124 155.025 126.826 155.025 128.626 150.905ZM175.49 177.008L176.806 173.991C179.153 168.611 183.379 164.328 188.653 161.985L192.708 160.183C194.902 159.209 194.902 156.021 192.708 155.047L188.88 153.345C183.471 150.942 179.168 146.5 176.861 140.938L175.51 137.678C174.568 135.406 171.426 135.406 170.484 137.678L169.132 140.938C166.826 146.5 162.524 150.942 157.114 153.345L153.285 155.047C151.092 156.021 151.092 159.209 153.285 160.183L157.341 161.985C162.615 164.328 166.841 168.611 169.188 173.991L170.505 177.008C171.468 179.216 174.526 179.216 175.49 177.008Z" fill="#344254" fill-opacity="0.05" shape-rendering="crispEdges"/>
<path d="M132.39 139.783L132.39 139.783L127.709 150.504C126.259 153.825 121.691 153.825 120.241 150.505L115.56 139.783L114.644 140.184L115.56 139.783C111.296 130.019 103.619 122.238 94.0336 117.983L93.6878 118.762L94.0336 117.983L81.1498 112.264L80.7458 113.174L81.1497 112.264C77.8459 110.798 77.8459 105.963 81.1497 104.497L80.7569 103.612L81.1498 104.497L93.6312 98.9565C103.463 94.5922 111.278 86.5238 115.469 76.4257L120.21 65.0007L120.21 65.0006C121.628 61.5831 126.322 61.5831 127.74 65.0006L132.481 76.4258L133.405 76.0425L132.481 76.4258C136.672 86.5238 144.487 94.5922 154.319 98.9565L166.8 104.497C170.104 105.963 170.104 110.798 166.8 112.264L153.917 117.983C144.331 122.238 136.654 130.019 132.39 139.783ZM192.302 159.269L192.302 159.269L188.247 161.071C182.741 163.518 178.334 167.987 175.889 173.591L174.573 176.608C173.959 178.016 172.035 178.016 171.421 176.608L171.421 176.608L170.104 173.591C167.66 167.987 163.254 163.518 157.747 161.071L153.692 159.269L153.298 160.155L153.692 159.269C152.29 158.647 152.29 156.583 153.692 155.96L153.285 155.047L153.692 155.96L157.52 154.259C163.169 151.75 167.654 147.116 170.056 141.321L170.056 141.321L171.408 138.061C171.408 138.061 171.408 138.061 171.408 138.061C172.009 136.612 173.985 136.612 174.586 138.061C174.586 138.061 174.586 138.061 174.586 138.061L175.938 141.321L175.938 141.321C178.341 147.116 182.826 151.75 188.474 154.259L192.302 155.96L192.302 155.96C193.704 156.583 193.704 158.647 192.302 159.269Z" stroke="url(#paint5_radial_4547_36301)" stroke-opacity="0.6" stroke-width="2" shape-rendering="crispEdges"/>
<path d="M132.39 139.783L132.39 139.783L127.709 150.504C126.259 153.825 121.691 153.825 120.241 150.505L115.56 139.783L114.644 140.184L115.56 139.783C111.296 130.019 103.619 122.238 94.0336 117.983L93.6878 118.762L94.0336 117.983L81.1498 112.264L80.7458 113.174L81.1497 112.264C77.8459 110.798 77.8459 105.963 81.1497 104.497L80.7569 103.612L81.1498 104.497L93.6312 98.9565C103.463 94.5922 111.278 86.5238 115.469 76.4257L120.21 65.0007L120.21 65.0006C121.628 61.5831 126.322 61.5831 127.74 65.0006L132.481 76.4258L133.405 76.0425L132.481 76.4258C136.672 86.5238 144.487 94.5922 154.319 98.9565L166.8 104.497C170.104 105.963 170.104 110.798 166.8 112.264L153.917 117.983C144.331 122.238 136.654 130.019 132.39 139.783ZM192.302 159.269L192.302 159.269L188.247 161.071C182.741 163.518 178.334 167.987 175.889 173.591L174.573 176.608C173.959 178.016 172.035 178.016 171.421 176.608L171.421 176.608L170.104 173.591C167.66 167.987 163.254 163.518 157.747 161.071L153.692 159.269L153.298 160.155L153.692 159.269C152.29 158.647 152.29 156.583 153.692 155.96L153.285 155.047L153.692 155.96L157.52 154.259C163.169 151.75 167.654 147.116 170.056 141.321L170.056 141.321L171.408 138.061C171.408 138.061 171.408 138.061 171.408 138.061C172.009 136.612 173.985 136.612 174.586 138.061C174.586 138.061 174.586 138.061 174.586 138.061L175.938 141.321L175.938 141.321C178.341 147.116 182.826 151.75 188.474 154.259L192.302 155.96L192.302 155.96C193.704 156.583 193.704 158.647 192.302 159.269Z" stroke="url(#paint6_radial_4547_36301)" stroke-opacity="0.3" stroke-width="2" shape-rendering="crispEdges"/>
</g>
</g>
<defs>
<filter id="filter0_bd_4547_36301" x="-3984" y="-4000" width="8240" height="8240" filterUnits="userSpaceOnUse" color-interpolation-filters="sRGB">
<feFlood flood-opacity="0" result="BackgroundImageFix"/>
<feGaussianBlur in="BackgroundImageFix" stdDeviation="2000"/>
<feComposite in2="SourceAlpha" operator="in" result="effect1_backgroundBlur_4547_36301"/>
<feColorMatrix in="SourceAlpha" type="matrix" values="0 0 0 0 0 0 0 0 0 0 0 0 0 0 0 0 0 0 127 0" result="hardAlpha"/>
<feOffset dy="16"/>
<feGaussianBlur stdDeviation="8"/>
<feComposite in2="hardAlpha" operator="out"/>
<feColorMatrix type="matrix" values="0 0 0 0 0 0 0 0 0 0 0 0 0 0 0 0 0 0 0.25 0"/>
<feBlend mode="normal" in2="effect1_backgroundBlur_4547_36301" result="effect2_dropShadow_4547_36301"/>
<feBlend mode="normal" in="SourceGraphic" in2="effect2_dropShadow_4547_36301" result="shape"/>
</filter>
<filter id="filter1_bd_4547_36301" x="-3922.33" y="-3938.56" width="8116.68" height="8117.23" filterUnits="userSpaceOnUse" color-interpolation-filters="sRGB">
<feFlood flood-opacity="0" result="BackgroundImageFix"/>
<feGaussianBlur in="BackgroundImageFix" stdDeviation="2000"/>
<feComposite in2="SourceAlpha" operator="in" result="effect1_backgroundBlur_4547_36301"/>
<feColorMatrix in="SourceAlpha" type="matrix" values="0 0 0 0 0 0 0 0 0 0 0 0 0 0 0 0 0 0 127 0" result="hardAlpha"/>
<feOffset dy="16"/>
<feGaussianBlur stdDeviation="8"/>
<feComposite in2="hardAlpha" operator="out"/>
<feColorMatrix type="matrix" values="0 0 0 0 0 0 0 0 0 0 0 0 0 0 0 0 0 0 0.25 0"/>
<feBlend mode="normal" in2="effect1_backgroundBlur_4547_36301" result="effect2_dropShadow_4547_36301"/>
<feBlend mode="normal" in="SourceGraphic" in2="effect2_dropShadow_4547_36301" result="shape"/>
</filter>
<linearGradient id="paint0_linear_4547_36301" x1="25.9029" y1="6.18182" x2="138.99" y2="296.562" gradientUnits="userSpaceOnUse">
<stop stop-color="#25A6F9"/>
<stop offset="1" stop-color="#244CF8"/>
</linearGradient>
<radialGradient id="paint1_radial_4547_36301" cx="0" cy="0" r="1" gradientUnits="userSpaceOnUse" gradientTransform="translate(136 2.18182) rotate(90) scale(208.364)">
<stop stop-color="white"/>
<stop offset="1" stop-color="white" stop-opacity="0"/>
</radialGradient>
<radialGradient id="paint2_radial_4547_36301" cx="0" cy="0" r="1" gradientUnits="userSpaceOnUse" gradientTransform="translate(136 240) rotate(-90) scale(120)">
<stop stop-color="white"/>
<stop offset="1" stop-color="white" stop-opacity="0"/>
</radialGradient>
<linearGradient id="paint3_linear_4547_36301" x1="256" y1="120" x2="16" y2="120" gradientUnits="userSpaceOnUse">
<stop offset="0.245" stop-color="white" stop-opacity="0"/>
<stop offset="0.5" stop-color="white"/>
<stop offset="0.75" stop-color="white" stop-opacity="0"/>
</linearGradient>
<linearGradient id="paint4_linear_4547_36301" x1="82.4864" y1="64.457" x2="137.912" y2="206.117" gradientUnits="userSpaceOnUse">
<stop stop-color="white" stop-opacity="0.6"/>
<stop offset="1" stop-color="white" stop-opacity="0.1"/>
</linearGradient>
<radialGradient id="paint5_radial_4547_36301" cx="0" cy="0" r="1" gradientUnits="userSpaceOnUse" gradientTransform="translate(136.013 62.5032) rotate(90) scale(101.774 101.301)">
<stop stop-color="white"/>
<stop offset="1" stop-color="white" stop-opacity="0"/>
</radialGradient>
<radialGradient id="paint6_radial_4547_36301" cx="0" cy="0" r="1" gradientUnits="userSpaceOnUse" gradientTransform="translate(136.013 178.664) rotate(-90) scale(58.6132 58.3409)">
<stop stop-color="white"/>
<stop offset="1" stop-color="white" stop-opacity="0"/>
</radialGradient>
<clipPath id="clip0_4547_36301">
<rect width="128" height="128" fill="white" transform="translate(72 56)"/>
</clipPath>
</defs>
</svg>
