<svg width="60" height="60" viewBox="0 0 60 60" fill="none" xmlns="http://www.w3.org/2000/svg">
<g id="tech-icon" clip-path="url(#clip0_4550_206137)">
<g id="Union" filter="url(#filter0_bd_4550_206137)">
<mask id="path-1-inside-1_4550_206137" fill="white">
<path fill-rule="evenodd" clip-rule="evenodd" d="M46.7404 2.52022L48.7372 0.523463C50.4451 -1.06255 52.809 1.30229 51.2231 3.00936L49.2263 5.00612C48.5396 5.69284 47.4267 5.69237 46.7404 5.00612C46.054 4.31963 46.054 3.20659 46.7404 2.52022ZM10.7948 5.00622C12.5018 6.592 14.8671 4.22833 13.2807 2.52032L11.284 0.523564C10.5976 -0.162803 9.48455 -0.162803 8.79807 0.523564C8.11158 1.20993 8.11158 2.32298 8.79807 3.00946L10.7948 5.00622ZM1.76758 19.9797H4.5918C6.92102 20.0659 6.9202 23.4096 4.5918 23.4954H1.76758C0.796797 23.4954 0.00976562 22.7083 0.00976562 21.7375C0.00976562 20.7668 0.796797 19.9797 1.76758 19.9797ZM55.4277 19.9797H58.252C60.5812 20.0659 60.5805 23.4096 58.252 23.4954H55.4277C54.457 23.4954 53.6699 22.7083 53.6699 21.7375C53.6699 20.7668 54.457 19.9797 55.4277 19.9797ZM46.7404 40.9539C45.1541 39.246 47.5192 36.8823 49.2263 38.468L51.223 40.4648C51.9095 41.1512 51.9095 42.2643 51.223 42.9507C50.5363 43.6374 49.4234 43.6369 48.7371 42.9507L46.7404 40.9539ZM10.7948 38.4681L8.79807 40.4648C8.11158 41.1512 8.11158 42.2643 8.79807 42.9507C9.48432 43.637 10.5972 43.6375 11.284 42.9507L13.2807 40.954C14.8666 39.2469 12.5026 36.882 10.7948 38.4681ZM38.2674 23.495L34.9522 26.8102C36.8004 30.385 34.0506 34.8461 30.0078 34.7921C26.9621 34.7921 24.4843 32.3143 24.4843 29.2686C24.4306 25.2261 28.8914 22.4757 32.4663 24.3242L36.2963 20.4941C36.6258 20.1645 37.073 19.9792 37.5392 19.9792H49.5731C46.849 -3.7143 13.1579 -3.69696 10.4424 19.9792H21.7484L25.0635 16.664C23.2153 13.0893 25.9652 8.6281 30.008 8.68213C33.0536 8.68213 35.5315 11.16 35.5315 14.2056C35.5852 18.2481 31.1243 20.9985 27.5495 19.1498L23.7195 22.98C23.39 23.3096 22.9428 23.4949 22.4766 23.4949H10.4437C10.8868 28.4055 13.1716 32.9863 16.8681 36.2691C18.8812 38.13 20.187 40.6305 20.5874 43.3146C20.5917 43.314 39.4218 43.314 39.4284 43.3146C39.8285 40.631 41.1344 38.1302 43.1478 36.2691C46.8443 32.9864 49.1292 28.4055 49.5722 23.4949H38.2674V23.495ZM28.2511 57.9584C23.9669 57.1342 20.7197 53.3593 20.7197 48.8382V46.8303H39.2983V48.8382C39.2983 53.3593 36.0511 57.1342 31.7668 57.9584C31.9423 60.6804 28.0764 60.682 28.2511 57.9584ZM32.0202 14.2049C32.0202 13.0978 31.1194 12.197 30.0123 12.197C27.3523 12.298 27.353 16.1121 30.0123 16.2128C31.1194 16.2127 32.0202 15.312 32.0202 14.2049ZM30.0108 31.2764C28.9037 31.2764 28.0029 30.3756 28.0029 29.2685C28.0029 28.1614 28.9037 27.2607 30.0108 27.2607C32.6702 27.3613 32.6709 31.1754 30.0108 31.2764Z"/>
</mask>
<path fill-rule="evenodd" clip-rule="evenodd" d="M46.7404 2.52022L48.7372 0.523463C50.4451 -1.06255 52.809 1.30229 51.2231 3.00936L49.2263 5.00612C48.5396 5.69284 47.4267 5.69237 46.7404 5.00612C46.054 4.31963 46.054 3.20659 46.7404 2.52022ZM10.7948 5.00622C12.5018 6.592 14.8671 4.22833 13.2807 2.52032L11.284 0.523564C10.5976 -0.162803 9.48455 -0.162803 8.79807 0.523564C8.11158 1.20993 8.11158 2.32298 8.79807 3.00946L10.7948 5.00622ZM1.76758 19.9797H4.5918C6.92102 20.0659 6.9202 23.4096 4.5918 23.4954H1.76758C0.796797 23.4954 0.00976562 22.7083 0.00976562 21.7375C0.00976562 20.7668 0.796797 19.9797 1.76758 19.9797ZM55.4277 19.9797H58.252C60.5812 20.0659 60.5805 23.4096 58.252 23.4954H55.4277C54.457 23.4954 53.6699 22.7083 53.6699 21.7375C53.6699 20.7668 54.457 19.9797 55.4277 19.9797ZM46.7404 40.9539C45.1541 39.246 47.5192 36.8823 49.2263 38.468L51.223 40.4648C51.9095 41.1512 51.9095 42.2643 51.223 42.9507C50.5363 43.6374 49.4234 43.6369 48.7371 42.9507L46.7404 40.9539ZM10.7948 38.4681L8.79807 40.4648C8.11158 41.1512 8.11158 42.2643 8.79807 42.9507C9.48432 43.637 10.5972 43.6375 11.284 42.9507L13.2807 40.954C14.8666 39.2469 12.5026 36.882 10.7948 38.4681ZM38.2674 23.495L34.9522 26.8102C36.8004 30.385 34.0506 34.8461 30.0078 34.7921C26.9621 34.7921 24.4843 32.3143 24.4843 29.2686C24.4306 25.2261 28.8914 22.4757 32.4663 24.3242L36.2963 20.4941C36.6258 20.1645 37.073 19.9792 37.5392 19.9792H49.5731C46.849 -3.7143 13.1579 -3.69696 10.4424 19.9792H21.7484L25.0635 16.664C23.2153 13.0893 25.9652 8.6281 30.008 8.68213C33.0536 8.68213 35.5315 11.16 35.5315 14.2056C35.5852 18.2481 31.1243 20.9985 27.5495 19.1498L23.7195 22.98C23.39 23.3096 22.9428 23.4949 22.4766 23.4949H10.4437C10.8868 28.4055 13.1716 32.9863 16.8681 36.2691C18.8812 38.13 20.187 40.6305 20.5874 43.3146C20.5917 43.314 39.4218 43.314 39.4284 43.3146C39.8285 40.631 41.1344 38.1302 43.1478 36.2691C46.8443 32.9864 49.1292 28.4055 49.5722 23.4949H38.2674V23.495ZM28.2511 57.9584C23.9669 57.1342 20.7197 53.3593 20.7197 48.8382V46.8303H39.2983V48.8382C39.2983 53.3593 36.0511 57.1342 31.7668 57.9584C31.9423 60.6804 28.0764 60.682 28.2511 57.9584ZM32.0202 14.2049C32.0202 13.0978 31.1194 12.197 30.0123 12.197C27.3523 12.298 27.353 16.1121 30.0123 16.2128C31.1194 16.2127 32.0202 15.312 32.0202 14.2049ZM30.0108 31.2764C28.9037 31.2764 28.0029 30.3756 28.0029 29.2685C28.0029 28.1614 28.9037 27.2607 30.0108 27.2607C32.6702 27.3613 32.6709 31.1754 30.0108 31.2764Z" fill="url(#paint0_linear_4550_206137)" fill-opacity="0.8" shape-rendering="crispEdges"/>
<path fill-rule="evenodd" clip-rule="evenodd" d="M46.7404 2.52022L48.7372 0.523463C50.4451 -1.06255 52.809 1.30229 51.2231 3.00936L49.2263 5.00612C48.5396 5.69284 47.4267 5.69237 46.7404 5.00612C46.054 4.31963 46.054 3.20659 46.7404 2.52022ZM10.7948 5.00622C12.5018 6.592 14.8671 4.22833 13.2807 2.52032L11.284 0.523564C10.5976 -0.162803 9.48455 -0.162803 8.79807 0.523564C8.11158 1.20993 8.11158 2.32298 8.79807 3.00946L10.7948 5.00622ZM1.76758 19.9797H4.5918C6.92102 20.0659 6.9202 23.4096 4.5918 23.4954H1.76758C0.796797 23.4954 0.00976562 22.7083 0.00976562 21.7375C0.00976562 20.7668 0.796797 19.9797 1.76758 19.9797ZM55.4277 19.9797H58.252C60.5812 20.0659 60.5805 23.4096 58.252 23.4954H55.4277C54.457 23.4954 53.6699 22.7083 53.6699 21.7375C53.6699 20.7668 54.457 19.9797 55.4277 19.9797ZM46.7404 40.9539C45.1541 39.246 47.5192 36.8823 49.2263 38.468L51.223 40.4648C51.9095 41.1512 51.9095 42.2643 51.223 42.9507C50.5363 43.6374 49.4234 43.6369 48.7371 42.9507L46.7404 40.9539ZM10.7948 38.4681L8.79807 40.4648C8.11158 41.1512 8.11158 42.2643 8.79807 42.9507C9.48432 43.637 10.5972 43.6375 11.284 42.9507L13.2807 40.954C14.8666 39.2469 12.5026 36.882 10.7948 38.4681ZM38.2674 23.495L34.9522 26.8102C36.8004 30.385 34.0506 34.8461 30.0078 34.7921C26.9621 34.7921 24.4843 32.3143 24.4843 29.2686C24.4306 25.2261 28.8914 22.4757 32.4663 24.3242L36.2963 20.4941C36.6258 20.1645 37.073 19.9792 37.5392 19.9792H49.5731C46.849 -3.7143 13.1579 -3.69696 10.4424 19.9792H21.7484L25.0635 16.664C23.2153 13.0893 25.9652 8.6281 30.008 8.68213C33.0536 8.68213 35.5315 11.16 35.5315 14.2056C35.5852 18.2481 31.1243 20.9985 27.5495 19.1498L23.7195 22.98C23.39 23.3096 22.9428 23.4949 22.4766 23.4949H10.4437C10.8868 28.4055 13.1716 32.9863 16.8681 36.2691C18.8812 38.13 20.187 40.6305 20.5874 43.3146C20.5917 43.314 39.4218 43.314 39.4284 43.3146C39.8285 40.631 41.1344 38.1302 43.1478 36.2691C46.8443 32.9864 49.1292 28.4055 49.5722 23.4949H38.2674V23.495ZM28.2511 57.9584C23.9669 57.1342 20.7197 53.3593 20.7197 48.8382V46.8303H39.2983V48.8382C39.2983 53.3593 36.0511 57.1342 31.7668 57.9584C31.9423 60.6804 28.0764 60.682 28.2511 57.9584ZM32.0202 14.2049C32.0202 13.0978 31.1194 12.197 30.0123 12.197C27.3523 12.298 27.353 16.1121 30.0123 16.2128C31.1194 16.2127 32.0202 15.312 32.0202 14.2049ZM30.0108 31.2764C28.9037 31.2764 28.0029 30.3756 28.0029 29.2685C28.0029 28.1614 28.9037 27.2607 30.0108 27.2607C32.6702 27.3613 32.6709 31.1754 30.0108 31.2764Z" fill="#344254" fill-opacity="0.15" shape-rendering="crispEdges"/>
<path d="M48.7372 0.523463L48.0567 -0.209306L48.0432 -0.196721L48.0301 -0.183644L48.7372 0.523463ZM46.7404 2.52022L47.4475 3.22739L47.4476 3.22733L46.7404 2.52022ZM51.2231 3.00936L51.9302 3.71647L51.9432 3.70346L51.9557 3.68999L51.2231 3.00936ZM49.2263 5.00612L48.5192 4.29901L49.2263 5.00612ZM46.7404 5.00612L46.0333 5.71322L46.0333 5.71323L46.7404 5.00612ZM13.2807 2.52032L14.0134 1.83979L14.0009 1.82627L13.9878 1.81322L13.2807 2.52032ZM10.7948 5.00622L10.0877 5.71333L10.1007 5.72633L10.1142 5.73885L10.7948 5.00622ZM11.284 0.523564L11.9911 -0.183542V-0.183543L11.284 0.523564ZM8.79807 0.523564L8.09102 -0.183603V-0.183603L8.79807 0.523564ZM8.79807 3.00946L8.09096 3.71657L8.79807 3.00946ZM4.5918 19.9797L4.62875 18.9804L4.61028 18.9797H4.5918V19.9797ZM4.5918 23.4954V24.4954H4.61021L4.62861 24.4947L4.5918 23.4954ZM58.252 19.9797L58.2889 18.9804L58.2704 18.9797H58.252V19.9797ZM58.252 23.4954V24.4954H58.2704L58.2888 24.4947L58.252 23.4954ZM49.2263 38.468L49.9334 37.7609L49.9203 37.7479L49.9068 37.7353L49.2263 38.468ZM46.7404 40.9539L46.0076 41.6344L46.0202 41.648L46.0332 41.661L46.7404 40.9539ZM51.223 42.9507L50.516 42.2435L50.5159 42.2435L51.223 42.9507ZM48.7371 42.9507L49.4442 42.2435V42.2435L48.7371 42.9507ZM8.79807 40.4648L9.50511 41.172L9.50517 41.172L8.79807 40.4648ZM10.7948 38.4681L10.1143 37.7354L10.1008 37.7479L10.0877 37.761L10.7948 38.4681ZM8.79807 42.9507L8.09096 43.6579H8.09096L8.79807 42.9507ZM11.284 42.9507L10.5769 42.2436L11.284 42.9507ZM13.2807 40.954L13.9878 41.6611L14.0008 41.6481L14.0134 41.6346L13.2807 40.954ZM34.9522 26.8102L34.2451 26.1031L33.7282 26.62L34.0639 27.2694L34.9522 26.8102ZM38.2674 23.495L38.9745 24.2021L39.2674 23.9092V23.495H38.2674ZM30.0078 34.7921L30.0211 33.7921H30.0078V34.7921ZM24.4843 29.2686H25.4844L25.4842 29.2553L24.4843 29.2686ZM32.4663 24.3242L32.007 25.2125L32.6564 25.5483L33.1734 25.0313L32.4663 24.3242ZM36.2963 20.4941L37.0034 21.2012L37.0035 21.2011L36.2963 20.4941ZM49.5731 19.9792V20.9792H50.6947L50.5666 19.865L49.5731 19.9792ZM10.4424 19.9792L9.4489 19.8653L9.32113 20.9792H10.4424V19.9792ZM21.7484 19.9792V20.9792H22.1626L22.4555 20.6863L21.7484 19.9792ZM25.0635 16.664L25.7706 17.3711L26.2876 16.8542L25.9518 16.2048L25.0635 16.664ZM30.008 8.68213L29.9946 9.68213H30.008V8.68213ZM35.5315 14.2056H34.5314L34.5316 14.2189L35.5315 14.2056ZM27.5495 19.1498L28.0088 18.2616L27.3594 17.9257L26.8424 18.4428L27.5495 19.1498ZM23.7195 22.98L23.0124 22.2729L23.0123 22.273L23.7195 22.98ZM10.4437 23.4949V22.4949H9.34938L9.44772 23.5848L10.4437 23.4949ZM16.8681 36.2691L17.5469 35.5348L17.5396 35.528L17.5322 35.5214L16.8681 36.2691ZM20.5874 43.3146L19.5983 43.4621L19.7439 44.438L20.7216 44.3055L20.5874 43.3146ZM39.4284 43.3146L39.3392 44.3106L40.2784 44.3947L40.4175 43.462L39.4284 43.3146ZM43.1478 36.2691L42.4837 35.5214L42.4763 35.528L42.469 35.5348L43.1478 36.2691ZM49.5722 23.4949L50.5682 23.5847L50.6665 22.4949H49.5722V23.4949ZM38.2674 23.4949V22.4949H37.2674V23.4949H38.2674ZM28.2511 57.9584L29.2491 58.0224L29.3055 57.1429L28.4401 56.9764L28.2511 57.9584ZM20.7197 46.8303V45.8303H19.7197V46.8303H20.7197ZM39.2983 46.8303H40.2983V45.8303H39.2983V46.8303ZM31.7668 57.9584L31.5779 56.9764L30.7122 57.143L30.7689 58.0227L31.7668 57.9584ZM30.0123 12.197V11.197H29.9934L29.9744 11.1977L30.0123 12.197ZM30.0123 16.2128L29.9745 17.2121L29.9935 17.2128L30.0125 17.2128L30.0123 16.2128ZM30.0108 31.2764V32.2764H30.0298L30.0488 32.2757L30.0108 31.2764ZM30.0108 27.2607L30.0486 26.2615L30.0297 26.2607H30.0108V27.2607ZM48.0301 -0.183644L46.0333 1.81311L47.4476 3.22733L49.4443 1.23057L48.0301 -0.183644ZM51.9557 3.68999C54.4164 1.04131 50.7061 -2.66963 48.0567 -0.209306L49.4177 1.25623C50.1841 0.544522 51.2016 1.56327 50.4905 2.32873L51.9557 3.68999ZM49.9335 5.71323L51.9302 3.71647L50.516 2.30225L48.5192 4.29901L49.9335 5.71323ZM46.0333 5.71323C47.1099 6.78982 48.856 6.79064 49.9335 5.71323L48.5192 4.29901C48.2232 4.59503 47.7435 4.59491 47.4476 4.29901L46.0333 5.71323ZM46.0334 1.81305C44.9563 2.88999 44.9564 4.63625 46.0333 5.71322L47.4476 4.29901C47.1516 4.00302 47.1516 3.52318 47.4475 3.22739L46.0334 1.81305ZM12.548 3.20086C13.2572 3.96442 12.2437 4.98735 11.4754 4.27359L10.1142 5.73885C12.7598 8.19666 16.477 4.49224 14.0134 1.83979L12.548 3.20086ZM10.5769 1.23067L12.5736 3.22743L13.9878 1.81322L11.9911 -0.183542L10.5769 1.23067ZM9.50511 1.23073C9.80112 0.934775 10.281 0.934861 10.5769 1.23067L11.9911 -0.183543C10.9141 -1.26047 9.16798 -1.26038 8.09102 -0.183603L9.50511 1.23073ZM9.50517 2.30236C9.20918 2.00636 9.20927 1.52653 9.50511 1.23073L8.09102 -0.183603C7.0139 0.893336 7.01398 2.63959 8.09096 3.71657L9.50517 2.30236ZM11.5019 4.29911L9.50517 2.30236L8.09096 3.71657L10.0877 5.71333L11.5019 4.29911ZM4.5918 18.9797H1.76758V20.9797H4.5918V18.9797ZM4.62861 24.4947C8.23933 24.3617 8.24396 19.1141 4.62875 18.9804L4.55484 20.9791C5.59808 21.0176 5.60106 22.4575 4.55498 22.496L4.62861 24.4947ZM1.76758 24.4954H4.5918V22.4954H1.76758V24.4954ZM-0.990234 21.7375C-0.990234 23.2606 0.244512 24.4954 1.76758 24.4954V22.4954C1.34908 22.4954 1.00977 22.156 1.00977 21.7375H-0.990234ZM1.76758 18.9797C0.244512 18.9797 -0.990234 20.2145 -0.990234 21.7375H1.00977C1.00977 21.3191 1.34908 20.9797 1.76758 20.9797V18.9797ZM58.252 18.9797H55.4277V20.9797H58.252V18.9797ZM58.2888 24.4947C61.9002 24.3616 61.9035 19.1141 58.2889 18.9804L58.215 20.9791C59.2589 21.0177 59.2607 22.4575 58.2151 22.496L58.2888 24.4947ZM55.4277 24.4954H58.252V22.4954H55.4277V24.4954ZM52.6699 21.7375C52.6699 23.2606 53.9047 24.4954 55.4277 24.4954V22.4954C55.0092 22.4954 54.6699 22.156 54.6699 21.7375H52.6699ZM55.4277 18.9797C53.9047 18.9797 52.6699 20.2145 52.6699 21.7375H54.6699C54.6699 21.3191 55.0092 20.9797 55.4277 20.9797V18.9797ZM49.9068 37.7353C47.2614 35.278 43.544 38.9818 46.0076 41.6344L47.4731 40.2734C46.7643 39.5102 47.777 38.4867 48.5457 39.2007L49.9068 37.7353ZM51.9301 39.7577L49.9334 37.7609L48.5191 39.1751L50.5159 41.1719L51.9301 39.7577ZM51.9301 43.6578C53.0072 42.5809 53.0071 40.8346 51.9301 39.7577L50.5159 41.1719C50.8119 41.4679 50.8118 41.9477 50.516 42.2435L51.9301 43.6578ZM48.03 43.6578C49.1066 44.7344 50.8527 44.7352 51.9301 43.6578L50.5159 42.2435C50.2199 42.5396 49.7401 42.5394 49.4442 42.2435L48.03 43.6578ZM46.0332 41.661L48.03 43.6578L49.4442 42.2435L47.4475 40.2468L46.0332 41.661ZM9.50517 41.172L11.5019 39.1752L10.0877 37.761L8.09096 39.7577L9.50517 41.172ZM9.50517 42.2436C9.20918 41.9476 9.20927 41.4678 9.50511 41.172L8.09102 39.7577C7.0139 40.8346 7.01398 42.5809 8.09096 43.6579L9.50517 42.2436ZM10.5769 42.2436C10.2808 42.5397 9.80107 42.5395 9.50517 42.2436L8.09096 43.6579C9.16756 44.7345 10.9137 44.7353 11.9911 43.6579L10.5769 42.2436ZM12.5736 40.2469L10.5769 42.2436L11.9911 43.6579L13.9878 41.6611L12.5736 40.2469ZM11.4754 39.2008C12.2407 38.49 13.2601 39.507 12.5481 40.2734L14.0134 41.6346C16.4732 38.9869 12.7645 35.2739 10.1143 37.7354L11.4754 39.2008ZM35.6593 27.5173L38.9745 24.2021L37.5603 22.7879L34.2451 26.1031L35.6593 27.5173ZM29.9944 35.792C34.7915 35.8561 38.0359 30.5973 35.8405 26.3509L34.0639 27.2694C35.5649 30.1728 33.3096 33.8361 30.0211 33.7922L29.9944 35.792ZM23.4843 29.2686C23.4843 32.8666 26.4099 35.7921 30.0078 35.7921V33.7921C27.5144 33.7921 25.4843 31.762 25.4843 29.2686H23.4843ZM32.9256 23.436C28.679 21.24 23.4207 24.4854 23.4844 29.2819L25.4842 29.2553C25.4405 25.9668 29.1039 23.7113 32.007 25.2125L32.9256 23.436ZM35.5892 19.787L31.7592 23.6171L33.1734 25.0313L37.0034 21.2012L35.5892 19.787ZM37.5392 18.9792C36.8077 18.9792 36.1061 19.2699 35.589 19.7871L37.0035 21.2011C37.1455 21.0591 37.3383 20.9792 37.5392 20.9792V18.9792ZM49.5731 18.9792H37.5392V20.9792H49.5731V18.9792ZM11.4359 20.0931C14.016 -2.40292 45.9914 -2.41773 48.5797 20.0934L50.5666 19.865C47.7065 -5.01088 12.2998 -4.99099 9.4489 19.8653L11.4359 20.0931ZM21.7484 18.9792H10.4424V20.9792H21.7484V18.9792ZM24.3564 15.9569L21.0413 19.2721L22.4555 20.6863L25.7706 17.3711L24.3564 15.9569ZM30.0214 7.68222C25.2243 7.61811 21.9798 12.877 24.1752 17.1233L25.9518 16.2048C24.4508 13.3016 26.7061 9.63809 29.9946 9.68204L30.0214 7.68222ZM36.5315 14.2056C36.5315 10.6077 33.6059 7.68213 30.008 7.68213V9.68213C32.5014 9.68213 34.5315 11.7123 34.5315 14.2056H36.5315ZM27.0901 20.0381C31.3368 22.2342 36.5951 18.9888 36.5314 14.1923L34.5316 14.2189C34.5752 17.5074 30.9119 19.7629 28.0088 18.2616L27.0901 20.0381ZM24.4266 23.687L28.2566 19.8569L26.8424 18.4428L23.0124 22.2729L24.4266 23.687ZM22.4766 24.4949C23.208 24.4949 23.9096 24.2042 24.4267 23.6869L23.0123 22.273C22.8703 22.415 22.6775 22.4949 22.4766 22.4949V24.4949ZM10.4437 24.4949H22.4766V22.4949H10.4437V24.4949ZM17.5322 35.5214C14.0283 32.4097 11.8601 28.0652 11.4396 23.405L9.44772 23.5848C9.91341 28.7458 12.3149 33.5629 16.2041 37.0168L17.5322 35.5214ZM21.5764 43.1671C21.1429 40.2603 19.7291 37.552 17.5469 35.5348L16.1893 37.0035C18.0333 38.708 19.2312 41.0007 19.5983 43.4621L21.5764 43.1671ZM39.5176 42.3186C39.4798 42.3159 39.4387 42.3146 39.4355 42.3146C39.4342 42.3146 39.4322 42.3146 39.4313 42.3146C39.4297 42.3146 39.4281 42.3146 39.4268 42.3146C39.4239 42.3145 39.4201 42.3145 39.4154 42.3145C39.406 42.3145 39.3922 42.3145 39.3743 42.3145C39.3383 42.3145 39.2852 42.3145 39.216 42.3145C39.0777 42.3144 38.875 42.3144 38.6172 42.3144C38.1017 42.3143 37.3655 42.3143 36.4824 42.3142C34.716 42.3142 32.3615 42.3141 30.007 42.3141C27.6526 42.3141 25.2982 42.3142 23.5321 42.3142C22.6491 42.3143 21.9132 42.3143 21.3978 42.3144C21.1401 42.3144 20.9376 42.3144 20.7994 42.3145C20.7303 42.3145 20.6772 42.3145 20.6413 42.3145C20.6234 42.3145 20.6096 42.3145 20.6002 42.3145C20.5956 42.3145 20.5918 42.3145 20.5889 42.3146C20.5876 42.3146 20.586 42.3146 20.5844 42.3146C20.5835 42.3146 20.5814 42.3146 20.5801 42.3146C20.5766 42.3146 20.513 42.3173 20.4531 42.3236L20.7216 44.3055C20.6618 44.3118 20.5984 44.3145 20.5951 44.3145C20.5941 44.3145 20.5925 44.3146 20.5921 44.3146C20.5917 44.3146 20.5918 44.3146 20.5928 44.3146C20.5947 44.3145 20.5977 44.3145 20.6022 44.3145C20.611 44.3145 20.6244 44.3145 20.6423 44.3145C20.6779 44.3145 20.7308 44.3145 20.7998 44.3145C20.9379 44.3144 21.1404 44.3144 21.398 44.3144C21.9133 44.3143 22.6492 44.3143 23.5322 44.3142C25.2982 44.3142 27.6526 44.3141 30.007 44.3141C32.3615 44.3141 34.716 44.3142 36.4823 44.3142C37.3654 44.3143 38.1015 44.3143 38.617 44.3144C38.8748 44.3144 39.0773 44.3144 39.2155 44.3145C39.2847 44.3145 39.3376 44.3145 39.3733 44.3145C39.3912 44.3145 39.4046 44.3145 39.4135 44.3145C39.418 44.3145 39.421 44.3145 39.4229 44.3146C39.4239 44.3146 39.424 44.3146 39.4237 44.3146C39.4234 44.3146 39.4218 44.3145 39.4208 44.3145C39.4179 44.3145 39.377 44.3132 39.3392 44.3106L39.5176 42.3186ZM42.469 35.5348C40.2866 37.5522 38.8726 40.2608 38.4393 43.1671L40.4175 43.462C40.7843 41.0013 41.9823 38.7083 43.8266 37.0035L42.469 35.5348ZM48.5763 23.405C48.1559 28.0652 45.9876 32.4098 42.4837 35.5214L43.8118 37.0168C47.701 33.563 50.1026 28.7458 50.5682 23.5847L48.5763 23.405ZM38.2674 24.4949H49.5722V22.4949H38.2674V24.4949ZM39.2674 23.495V23.4949H37.2674V23.495H39.2674ZM19.7197 48.8382C19.7197 53.8489 23.3172 58.0276 28.0622 58.9404L28.4401 56.9764C24.6167 56.2409 21.7197 52.8698 21.7197 48.8382H19.7197ZM19.7197 46.8303V48.8382H21.7197V46.8303H19.7197ZM39.2983 45.8303H20.7197V47.8303H39.2983V45.8303ZM40.2983 48.8382V46.8303H38.2983V48.8382H40.2983ZM31.9558 58.9404C36.7008 58.0276 40.2983 53.8489 40.2983 48.8382H38.2983C38.2983 52.8698 35.4013 56.2409 31.5779 56.9764L31.9558 58.9404ZM27.2532 57.8944C27.1935 58.8257 27.4814 59.6256 28.0389 60.1918C28.5814 60.7428 29.3092 61.0007 30.0095 61.0005C30.7098 61.0003 31.4373 60.7422 31.9796 60.1912C32.5369 59.625 32.8248 58.8252 32.7648 57.8941L30.7689 58.0227C30.7966 58.4526 30.667 58.6737 30.5543 58.7883C30.4265 58.918 30.2314 59.0004 30.009 59.0005C29.7866 59.0005 29.5916 58.9182 29.464 58.7886C29.3513 58.6741 29.2215 58.4529 29.2491 58.0224L27.2532 57.8944ZM30.0123 13.197C30.5671 13.197 31.0202 13.6501 31.0202 14.2049H33.0202C33.0202 12.5456 31.6717 11.197 30.0123 11.197V13.197ZM30.0502 15.2135C28.6726 15.1614 28.6741 13.2486 30.0503 13.1963L29.9744 11.1977C26.0305 11.3475 26.0334 17.0629 29.9745 17.2121L30.0502 15.2135ZM31.0202 14.2049C31.0202 14.7596 30.5672 15.2127 30.0122 15.2128L30.0125 17.2128C31.6716 17.2126 33.0202 15.8644 33.0202 14.2049H31.0202ZM27.0029 29.2685C27.0029 30.9279 28.3515 32.2764 30.0108 32.2764V30.2764C29.456 30.2764 29.0029 29.8233 29.0029 29.2685H27.0029ZM30.0108 26.2607C28.3515 26.2607 27.0029 27.6091 27.0029 29.2685H29.0029C29.0029 28.7138 29.456 28.2607 30.0108 28.2607V26.2607ZM30.0488 32.2757C33.9919 32.1259 33.9905 26.4105 30.0486 26.2615L29.973 28.26C31.3498 28.3121 31.3498 30.2248 29.9729 30.2771L30.0488 32.2757Z" fill="url(#paint1_radial_4550_206137)" fill-opacity="0.6" mask="url(#path-1-inside-1_4550_206137)"/>
<path d="M48.7372 0.523463L48.0567 -0.209306L48.0432 -0.196721L48.0301 -0.183644L48.7372 0.523463ZM46.7404 2.52022L47.4475 3.22739L47.4476 3.22733L46.7404 2.52022ZM51.2231 3.00936L51.9302 3.71647L51.9432 3.70346L51.9557 3.68999L51.2231 3.00936ZM49.2263 5.00612L48.5192 4.29901L49.2263 5.00612ZM46.7404 5.00612L46.0333 5.71322L46.0333 5.71323L46.7404 5.00612ZM13.2807 2.52032L14.0134 1.83979L14.0009 1.82627L13.9878 1.81322L13.2807 2.52032ZM10.7948 5.00622L10.0877 5.71333L10.1007 5.72633L10.1142 5.73885L10.7948 5.00622ZM11.284 0.523564L11.9911 -0.183542V-0.183543L11.284 0.523564ZM8.79807 0.523564L8.09102 -0.183603V-0.183603L8.79807 0.523564ZM8.79807 3.00946L8.09096 3.71657L8.79807 3.00946ZM4.5918 19.9797L4.62875 18.9804L4.61028 18.9797H4.5918V19.9797ZM4.5918 23.4954V24.4954H4.61021L4.62861 24.4947L4.5918 23.4954ZM58.252 19.9797L58.2889 18.9804L58.2704 18.9797H58.252V19.9797ZM58.252 23.4954V24.4954H58.2704L58.2888 24.4947L58.252 23.4954ZM49.2263 38.468L49.9334 37.7609L49.9203 37.7479L49.9068 37.7353L49.2263 38.468ZM46.7404 40.9539L46.0076 41.6344L46.0202 41.648L46.0332 41.661L46.7404 40.9539ZM51.223 42.9507L50.516 42.2435L50.5159 42.2435L51.223 42.9507ZM48.7371 42.9507L49.4442 42.2435V42.2435L48.7371 42.9507ZM8.79807 40.4648L9.50511 41.172L9.50517 41.172L8.79807 40.4648ZM10.7948 38.4681L10.1143 37.7354L10.1008 37.7479L10.0877 37.761L10.7948 38.4681ZM8.79807 42.9507L8.09096 43.6579H8.09096L8.79807 42.9507ZM11.284 42.9507L10.5769 42.2436L11.284 42.9507ZM13.2807 40.954L13.9878 41.6611L14.0008 41.6481L14.0134 41.6346L13.2807 40.954ZM34.9522 26.8102L34.2451 26.1031L33.7282 26.62L34.0639 27.2694L34.9522 26.8102ZM38.2674 23.495L38.9745 24.2021L39.2674 23.9092V23.495H38.2674ZM30.0078 34.7921L30.0211 33.7921H30.0078V34.7921ZM24.4843 29.2686H25.4844L25.4842 29.2553L24.4843 29.2686ZM32.4663 24.3242L32.007 25.2125L32.6564 25.5483L33.1734 25.0313L32.4663 24.3242ZM36.2963 20.4941L37.0034 21.2012L37.0035 21.2011L36.2963 20.4941ZM49.5731 19.9792V20.9792H50.6947L50.5666 19.865L49.5731 19.9792ZM10.4424 19.9792L9.4489 19.8653L9.32113 20.9792H10.4424V19.9792ZM21.7484 19.9792V20.9792H22.1626L22.4555 20.6863L21.7484 19.9792ZM25.0635 16.664L25.7706 17.3711L26.2876 16.8542L25.9518 16.2048L25.0635 16.664ZM30.008 8.68213L29.9946 9.68213H30.008V8.68213ZM35.5315 14.2056H34.5314L34.5316 14.2189L35.5315 14.2056ZM27.5495 19.1498L28.0088 18.2616L27.3594 17.9257L26.8424 18.4428L27.5495 19.1498ZM23.7195 22.98L23.0124 22.2729L23.0123 22.273L23.7195 22.98ZM10.4437 23.4949V22.4949H9.34938L9.44772 23.5848L10.4437 23.4949ZM16.8681 36.2691L17.5469 35.5348L17.5396 35.528L17.5322 35.5214L16.8681 36.2691ZM20.5874 43.3146L19.5983 43.4621L19.7439 44.438L20.7216 44.3055L20.5874 43.3146ZM39.4284 43.3146L39.3392 44.3106L40.2784 44.3947L40.4175 43.462L39.4284 43.3146ZM43.1478 36.2691L42.4837 35.5214L42.4763 35.528L42.469 35.5348L43.1478 36.2691ZM49.5722 23.4949L50.5682 23.5847L50.6665 22.4949H49.5722V23.4949ZM38.2674 23.4949V22.4949H37.2674V23.4949H38.2674ZM28.2511 57.9584L29.2491 58.0224L29.3055 57.1429L28.4401 56.9764L28.2511 57.9584ZM20.7197 46.8303V45.8303H19.7197V46.8303H20.7197ZM39.2983 46.8303H40.2983V45.8303H39.2983V46.8303ZM31.7668 57.9584L31.5779 56.9764L30.7122 57.143L30.7689 58.0227L31.7668 57.9584ZM30.0123 12.197V11.197H29.9934L29.9744 11.1977L30.0123 12.197ZM30.0123 16.2128L29.9745 17.2121L29.9935 17.2128L30.0125 17.2128L30.0123 16.2128ZM30.0108 31.2764V32.2764H30.0298L30.0488 32.2757L30.0108 31.2764ZM30.0108 27.2607L30.0486 26.2615L30.0297 26.2607H30.0108V27.2607ZM48.0301 -0.183644L46.0333 1.81311L47.4476 3.22733L49.4443 1.23057L48.0301 -0.183644ZM51.9557 3.68999C54.4164 1.04131 50.7061 -2.66963 48.0567 -0.209306L49.4177 1.25623C50.1841 0.544522 51.2016 1.56327 50.4905 2.32873L51.9557 3.68999ZM49.9335 5.71323L51.9302 3.71647L50.516 2.30225L48.5192 4.29901L49.9335 5.71323ZM46.0333 5.71323C47.1099 6.78982 48.856 6.79064 49.9335 5.71323L48.5192 4.29901C48.2232 4.59503 47.7435 4.59491 47.4476 4.29901L46.0333 5.71323ZM46.0334 1.81305C44.9563 2.88999 44.9564 4.63625 46.0333 5.71322L47.4476 4.29901C47.1516 4.00302 47.1516 3.52318 47.4475 3.22739L46.0334 1.81305ZM12.548 3.20086C13.2572 3.96442 12.2437 4.98735 11.4754 4.27359L10.1142 5.73885C12.7598 8.19666 16.477 4.49224 14.0134 1.83979L12.548 3.20086ZM10.5769 1.23067L12.5736 3.22743L13.9878 1.81322L11.9911 -0.183542L10.5769 1.23067ZM9.50511 1.23073C9.80112 0.934775 10.281 0.934861 10.5769 1.23067L11.9911 -0.183543C10.9141 -1.26047 9.16798 -1.26038 8.09102 -0.183603L9.50511 1.23073ZM9.50517 2.30236C9.20918 2.00636 9.20927 1.52653 9.50511 1.23073L8.09102 -0.183603C7.0139 0.893336 7.01398 2.63959 8.09096 3.71657L9.50517 2.30236ZM11.5019 4.29911L9.50517 2.30236L8.09096 3.71657L10.0877 5.71333L11.5019 4.29911ZM4.5918 18.9797H1.76758V20.9797H4.5918V18.9797ZM4.62861 24.4947C8.23933 24.3617 8.24396 19.1141 4.62875 18.9804L4.55484 20.9791C5.59808 21.0176 5.60106 22.4575 4.55498 22.496L4.62861 24.4947ZM1.76758 24.4954H4.5918V22.4954H1.76758V24.4954ZM-0.990234 21.7375C-0.990234 23.2606 0.244512 24.4954 1.76758 24.4954V22.4954C1.34908 22.4954 1.00977 22.156 1.00977 21.7375H-0.990234ZM1.76758 18.9797C0.244512 18.9797 -0.990234 20.2145 -0.990234 21.7375H1.00977C1.00977 21.3191 1.34908 20.9797 1.76758 20.9797V18.9797ZM58.252 18.9797H55.4277V20.9797H58.252V18.9797ZM58.2888 24.4947C61.9002 24.3616 61.9035 19.1141 58.2889 18.9804L58.215 20.9791C59.2589 21.0177 59.2607 22.4575 58.2151 22.496L58.2888 24.4947ZM55.4277 24.4954H58.252V22.4954H55.4277V24.4954ZM52.6699 21.7375C52.6699 23.2606 53.9047 24.4954 55.4277 24.4954V22.4954C55.0092 22.4954 54.6699 22.156 54.6699 21.7375H52.6699ZM55.4277 18.9797C53.9047 18.9797 52.6699 20.2145 52.6699 21.7375H54.6699C54.6699 21.3191 55.0092 20.9797 55.4277 20.9797V18.9797ZM49.9068 37.7353C47.2614 35.278 43.544 38.9818 46.0076 41.6344L47.4731 40.2734C46.7643 39.5102 47.777 38.4867 48.5457 39.2007L49.9068 37.7353ZM51.9301 39.7577L49.9334 37.7609L48.5191 39.1751L50.5159 41.1719L51.9301 39.7577ZM51.9301 43.6578C53.0072 42.5809 53.0071 40.8346 51.9301 39.7577L50.5159 41.1719C50.8119 41.4679 50.8118 41.9477 50.516 42.2435L51.9301 43.6578ZM48.03 43.6578C49.1066 44.7344 50.8527 44.7352 51.9301 43.6578L50.5159 42.2435C50.2199 42.5396 49.7401 42.5394 49.4442 42.2435L48.03 43.6578ZM46.0332 41.661L48.03 43.6578L49.4442 42.2435L47.4475 40.2468L46.0332 41.661ZM9.50517 41.172L11.5019 39.1752L10.0877 37.761L8.09096 39.7577L9.50517 41.172ZM9.50517 42.2436C9.20918 41.9476 9.20927 41.4678 9.50511 41.172L8.09102 39.7577C7.0139 40.8346 7.01398 42.5809 8.09096 43.6579L9.50517 42.2436ZM10.5769 42.2436C10.2808 42.5397 9.80107 42.5395 9.50517 42.2436L8.09096 43.6579C9.16756 44.7345 10.9137 44.7353 11.9911 43.6579L10.5769 42.2436ZM12.5736 40.2469L10.5769 42.2436L11.9911 43.6579L13.9878 41.6611L12.5736 40.2469ZM11.4754 39.2008C12.2407 38.49 13.2601 39.507 12.5481 40.2734L14.0134 41.6346C16.4732 38.9869 12.7645 35.2739 10.1143 37.7354L11.4754 39.2008ZM35.6593 27.5173L38.9745 24.2021L37.5603 22.7879L34.2451 26.1031L35.6593 27.5173ZM29.9944 35.792C34.7915 35.8561 38.0359 30.5973 35.8405 26.3509L34.0639 27.2694C35.5649 30.1728 33.3096 33.8361 30.0211 33.7922L29.9944 35.792ZM23.4843 29.2686C23.4843 32.8666 26.4099 35.7921 30.0078 35.7921V33.7921C27.5144 33.7921 25.4843 31.762 25.4843 29.2686H23.4843ZM32.9256 23.436C28.679 21.24 23.4207 24.4854 23.4844 29.2819L25.4842 29.2553C25.4405 25.9668 29.1039 23.7113 32.007 25.2125L32.9256 23.436ZM35.5892 19.787L31.7592 23.6171L33.1734 25.0313L37.0034 21.2012L35.5892 19.787ZM37.5392 18.9792C36.8077 18.9792 36.1061 19.2699 35.589 19.7871L37.0035 21.2011C37.1455 21.0591 37.3383 20.9792 37.5392 20.9792V18.9792ZM49.5731 18.9792H37.5392V20.9792H49.5731V18.9792ZM11.4359 20.0931C14.016 -2.40292 45.9914 -2.41773 48.5797 20.0934L50.5666 19.865C47.7065 -5.01088 12.2998 -4.99099 9.4489 19.8653L11.4359 20.0931ZM21.7484 18.9792H10.4424V20.9792H21.7484V18.9792ZM24.3564 15.9569L21.0413 19.2721L22.4555 20.6863L25.7706 17.3711L24.3564 15.9569ZM30.0214 7.68222C25.2243 7.61811 21.9798 12.877 24.1752 17.1233L25.9518 16.2048C24.4508 13.3016 26.7061 9.63809 29.9946 9.68204L30.0214 7.68222ZM36.5315 14.2056C36.5315 10.6077 33.6059 7.68213 30.008 7.68213V9.68213C32.5014 9.68213 34.5315 11.7123 34.5315 14.2056H36.5315ZM27.0901 20.0381C31.3368 22.2342 36.5951 18.9888 36.5314 14.1923L34.5316 14.2189C34.5752 17.5074 30.9119 19.7629 28.0088 18.2616L27.0901 20.0381ZM24.4266 23.687L28.2566 19.8569L26.8424 18.4428L23.0124 22.2729L24.4266 23.687ZM22.4766 24.4949C23.208 24.4949 23.9096 24.2042 24.4267 23.6869L23.0123 22.273C22.8703 22.415 22.6775 22.4949 22.4766 22.4949V24.4949ZM10.4437 24.4949H22.4766V22.4949H10.4437V24.4949ZM17.5322 35.5214C14.0283 32.4097 11.8601 28.0652 11.4396 23.405L9.44772 23.5848C9.91341 28.7458 12.3149 33.5629 16.2041 37.0168L17.5322 35.5214ZM21.5764 43.1671C21.1429 40.2603 19.7291 37.552 17.5469 35.5348L16.1893 37.0035C18.0333 38.708 19.2312 41.0007 19.5983 43.4621L21.5764 43.1671ZM39.5176 42.3186C39.4798 42.3159 39.4387 42.3146 39.4355 42.3146C39.4342 42.3146 39.4322 42.3146 39.4313 42.3146C39.4297 42.3146 39.4281 42.3146 39.4268 42.3146C39.4239 42.3145 39.4201 42.3145 39.4154 42.3145C39.406 42.3145 39.3922 42.3145 39.3743 42.3145C39.3383 42.3145 39.2852 42.3145 39.216 42.3145C39.0777 42.3144 38.875 42.3144 38.6172 42.3144C38.1017 42.3143 37.3655 42.3143 36.4824 42.3142C34.716 42.3142 32.3615 42.3141 30.007 42.3141C27.6526 42.3141 25.2982 42.3142 23.5321 42.3142C22.6491 42.3143 21.9132 42.3143 21.3978 42.3144C21.1401 42.3144 20.9376 42.3144 20.7994 42.3145C20.7303 42.3145 20.6772 42.3145 20.6413 42.3145C20.6234 42.3145 20.6096 42.3145 20.6002 42.3145C20.5956 42.3145 20.5918 42.3145 20.5889 42.3146C20.5876 42.3146 20.586 42.3146 20.5844 42.3146C20.5835 42.3146 20.5814 42.3146 20.5801 42.3146C20.5766 42.3146 20.513 42.3173 20.4531 42.3236L20.7216 44.3055C20.6618 44.3118 20.5984 44.3145 20.5951 44.3145C20.5941 44.3145 20.5925 44.3146 20.5921 44.3146C20.5917 44.3146 20.5918 44.3146 20.5928 44.3146C20.5947 44.3145 20.5977 44.3145 20.6022 44.3145C20.611 44.3145 20.6244 44.3145 20.6423 44.3145C20.6779 44.3145 20.7308 44.3145 20.7998 44.3145C20.9379 44.3144 21.1404 44.3144 21.398 44.3144C21.9133 44.3143 22.6492 44.3143 23.5322 44.3142C25.2982 44.3142 27.6526 44.3141 30.007 44.3141C32.3615 44.3141 34.716 44.3142 36.4823 44.3142C37.3654 44.3143 38.1015 44.3143 38.617 44.3144C38.8748 44.3144 39.0773 44.3144 39.2155 44.3145C39.2847 44.3145 39.3376 44.3145 39.3733 44.3145C39.3912 44.3145 39.4046 44.3145 39.4135 44.3145C39.418 44.3145 39.421 44.3145 39.4229 44.3146C39.4239 44.3146 39.424 44.3146 39.4237 44.3146C39.4234 44.3146 39.4218 44.3145 39.4208 44.3145C39.4179 44.3145 39.377 44.3132 39.3392 44.3106L39.5176 42.3186ZM42.469 35.5348C40.2866 37.5522 38.8726 40.2608 38.4393 43.1671L40.4175 43.462C40.7843 41.0013 41.9823 38.7083 43.8266 37.0035L42.469 35.5348ZM48.5763 23.405C48.1559 28.0652 45.9876 32.4098 42.4837 35.5214L43.8118 37.0168C47.701 33.563 50.1026 28.7458 50.5682 23.5847L48.5763 23.405ZM38.2674 24.4949H49.5722V22.4949H38.2674V24.4949ZM39.2674 23.495V23.4949H37.2674V23.495H39.2674ZM19.7197 48.8382C19.7197 53.8489 23.3172 58.0276 28.0622 58.9404L28.4401 56.9764C24.6167 56.2409 21.7197 52.8698 21.7197 48.8382H19.7197ZM19.7197 46.8303V48.8382H21.7197V46.8303H19.7197ZM39.2983 45.8303H20.7197V47.8303H39.2983V45.8303ZM40.2983 48.8382V46.8303H38.2983V48.8382H40.2983ZM31.9558 58.9404C36.7008 58.0276 40.2983 53.8489 40.2983 48.8382H38.2983C38.2983 52.8698 35.4013 56.2409 31.5779 56.9764L31.9558 58.9404ZM27.2532 57.8944C27.1935 58.8257 27.4814 59.6256 28.0389 60.1918C28.5814 60.7428 29.3092 61.0007 30.0095 61.0005C30.7098 61.0003 31.4373 60.7422 31.9796 60.1912C32.5369 59.625 32.8248 58.8252 32.7648 57.8941L30.7689 58.0227C30.7966 58.4526 30.667 58.6737 30.5543 58.7883C30.4265 58.918 30.2314 59.0004 30.009 59.0005C29.7866 59.0005 29.5916 58.9182 29.464 58.7886C29.3513 58.6741 29.2215 58.4529 29.2491 58.0224L27.2532 57.8944ZM30.0123 13.197C30.5671 13.197 31.0202 13.6501 31.0202 14.2049H33.0202C33.0202 12.5456 31.6717 11.197 30.0123 11.197V13.197ZM30.0502 15.2135C28.6726 15.1614 28.6741 13.2486 30.0503 13.1963L29.9744 11.1977C26.0305 11.3475 26.0334 17.0629 29.9745 17.2121L30.0502 15.2135ZM31.0202 14.2049C31.0202 14.7596 30.5672 15.2127 30.0122 15.2128L30.0125 17.2128C31.6716 17.2126 33.0202 15.8644 33.0202 14.2049H31.0202ZM27.0029 29.2685C27.0029 30.9279 28.3515 32.2764 30.0108 32.2764V30.2764C29.456 30.2764 29.0029 29.8233 29.0029 29.2685H27.0029ZM30.0108 26.2607C28.3515 26.2607 27.0029 27.6091 27.0029 29.2685H29.0029C29.0029 28.7138 29.456 28.2607 30.0108 28.2607V26.2607ZM30.0488 32.2757C33.9919 32.1259 33.9905 26.4105 30.0486 26.2615L29.973 28.26C31.3498 28.3121 31.3498 30.2248 29.9729 30.2771L30.0488 32.2757Z" fill="url(#paint2_radial_4550_206137)" fill-opacity="0.3" mask="url(#path-1-inside-1_4550_206137)"/>
</g>
</g>
<defs>
<filter id="filter0_bd_4550_206137" x="-499.99" y="-500" width="1059.99" height="1060" filterUnits="userSpaceOnUse" color-interpolation-filters="sRGB">
<feFlood flood-opacity="0" result="BackgroundImageFix"/>
<feGaussianBlur in="BackgroundImageFix" stdDeviation="250"/>
<feComposite in2="SourceAlpha" operator="in" result="effect1_backgroundBlur_4550_206137"/>
<feColorMatrix in="SourceAlpha" type="matrix" values="0 0 0 0 0 0 0 0 0 0 0 0 0 0 0 0 0 0 127 0" result="hardAlpha"/>
<feOffset dy="2"/>
<feGaussianBlur stdDeviation="1"/>
<feComposite in2="hardAlpha" operator="out"/>
<feColorMatrix type="matrix" values="0 0 0 0 0 0 0 0 0 0 0 0 0 0 0 0 0 0 0.25 0"/>
<feBlend mode="normal" in2="effect1_backgroundBlur_4550_206137" result="effect2_dropShadow_4550_206137"/>
<feBlend mode="normal" in="SourceGraphic" in2="effect2_dropShadow_4550_206137" result="shape"/>
</filter>
<linearGradient id="paint0_linear_4550_206137" x1="2.48503" y1="1.54547" x2="30.761" y2="74.1373" gradientUnits="userSpaceOnUse">
<stop stop-color="white" stop-opacity="0.6"/>
<stop offset="1" stop-color="white" stop-opacity="0"/>
</linearGradient>
<radialGradient id="paint1_radial_4550_206137" cx="0" cy="0" r="1" gradientUnits="userSpaceOnUse" gradientTransform="translate(30.0042 0.54546) rotate(90) scale(52.0913 52.0812)">
<stop stop-color="white"/>
<stop offset="1" stop-color="white" stop-opacity="0"/>
</radialGradient>
<radialGradient id="paint2_radial_4550_206137" cx="0" cy="0" r="1" gradientUnits="userSpaceOnUse" gradientTransform="translate(30.0042 60.0005) rotate(-90) scale(30.0002 29.9944)">
<stop stop-color="white"/>
<stop offset="1" stop-color="white" stop-opacity="0"/>
</radialGradient>
<clipPath id="clip0_4550_206137">
<rect width="60" height="60" fill="white"/>
</clipPath>
</defs>
</svg>
