<svg width="60" height="60" viewBox="0 0 60 60" fill="none" xmlns="http://www.w3.org/2000/svg">
<g id="tech-icon" clip-path="url(#clip0_5787_220899)">
<g id="Union" filter="url(#filter0_bd_5787_220899)">
<mask id="path-1-inside-1_5787_220899" fill="white">
<path fill-rule="evenodd" clip-rule="evenodd" d="M46.7356 2.52022L48.7323 0.523463C50.4402 -1.06255 52.8041 1.30229 51.2182 3.00936L49.2215 5.00612C48.5347 5.69284 47.4218 5.69237 46.7356 5.00612C46.0491 4.31963 46.0491 3.20659 46.7356 2.52022ZM10.7929 5.00622C12.4998 6.592 14.8651 4.22833 13.2788 2.52032L11.282 0.523564C10.5956 -0.162803 9.4826 -0.162803 8.79611 0.523564C8.10963 1.20993 8.10963 2.32298 8.79611 3.00946L10.7929 5.00622ZM1.76563 19.979H4.58984C6.91906 20.0651 6.91824 23.4088 4.58984 23.4946H1.76563C0.794844 23.4946 0.0078125 22.7076 0.0078125 21.7368C0.0078125 20.766 0.794844 19.979 1.76563 19.979ZM55.4258 19.979H58.25C60.5792 20.0651 60.5785 23.4088 58.25 23.4946H55.4258C54.455 23.4946 53.668 22.7076 53.668 21.7368C53.668 20.766 54.455 19.979 55.4258 19.979ZM46.7384 40.9532C45.1522 39.2453 47.5172 36.8816 49.2243 38.4673L51.2211 40.464C51.9075 41.1505 51.9075 42.2636 51.2211 42.9499C50.5343 43.6366 49.4214 43.6362 48.7352 42.9499L46.7384 40.9532ZM10.7929 38.4674L8.79611 40.4641C8.10963 41.1505 8.10963 42.2635 8.79611 42.95C9.48236 43.6363 10.5953 43.6367 11.282 42.95L13.2788 40.9533C14.8647 39.2462 12.5006 36.8812 10.7929 38.4674ZM38.2684 23.4957L34.9532 26.8109C36.8014 30.3858 34.0515 34.8468 30.0087 34.7928C26.9631 34.7928 24.4852 32.3151 24.4852 29.2693C24.4316 25.2269 28.8924 22.4764 32.4673 24.325L36.2972 20.4949C36.6268 20.1652 37.074 19.9799 37.5402 19.9799H49.5741C46.8499 -3.71357 13.1589 -3.69623 10.4434 19.9799H21.7493L25.0645 16.6648C23.2163 13.09 25.9662 8.62883 30.009 8.68286C33.0546 8.68286 35.5325 11.1607 35.5325 14.2064C35.5861 18.2488 31.1253 20.9992 27.5505 19.1506L23.7205 22.9807C23.3909 23.3103 22.9437 23.4956 22.4776 23.4956H10.4446C10.8877 28.4062 13.1726 32.987 16.8691 36.2699C18.8822 38.1307 20.188 40.6312 20.5883 43.3153C20.5927 43.3147 39.4228 43.3147 39.4294 43.3153C39.8295 40.6318 41.1354 38.131 43.1487 36.2699C46.8452 32.9872 49.1302 28.4062 49.5732 23.4956H38.2684V23.4957ZM28.2521 57.9577C23.9679 57.1335 20.7207 53.3586 20.7207 48.8375V46.8296H39.2992V48.8375C39.2992 53.3586 36.052 57.1335 31.7678 57.9577C31.9432 60.6796 28.0774 60.6813 28.2521 57.9577ZM32.0183 14.2056C32.0183 13.0986 31.1175 12.1978 30.0104 12.1978C27.3504 12.2988 27.3511 16.1129 30.0104 16.2135C31.1175 16.2134 32.0183 15.3127 32.0183 14.2056ZM30.0059 31.2764C28.8989 31.2764 27.998 30.3756 27.998 29.2685C27.998 28.1614 28.8989 27.2607 30.0059 27.2607C32.6653 27.3613 32.666 31.1754 30.0059 31.2764Z"/>
</mask>
<path fill-rule="evenodd" clip-rule="evenodd" d="M46.7356 2.52022L48.7323 0.523463C50.4402 -1.06255 52.8041 1.30229 51.2182 3.00936L49.2215 5.00612C48.5347 5.69284 47.4218 5.69237 46.7356 5.00612C46.0491 4.31963 46.0491 3.20659 46.7356 2.52022ZM10.7929 5.00622C12.4998 6.592 14.8651 4.22833 13.2788 2.52032L11.282 0.523564C10.5956 -0.162803 9.4826 -0.162803 8.79611 0.523564C8.10963 1.20993 8.10963 2.32298 8.79611 3.00946L10.7929 5.00622ZM1.76563 19.979H4.58984C6.91906 20.0651 6.91824 23.4088 4.58984 23.4946H1.76563C0.794844 23.4946 0.0078125 22.7076 0.0078125 21.7368C0.0078125 20.766 0.794844 19.979 1.76563 19.979ZM55.4258 19.979H58.25C60.5792 20.0651 60.5785 23.4088 58.25 23.4946H55.4258C54.455 23.4946 53.668 22.7076 53.668 21.7368C53.668 20.766 54.455 19.979 55.4258 19.979ZM46.7384 40.9532C45.1522 39.2453 47.5172 36.8816 49.2243 38.4673L51.2211 40.464C51.9075 41.1505 51.9075 42.2636 51.2211 42.9499C50.5343 43.6366 49.4214 43.6362 48.7352 42.9499L46.7384 40.9532ZM10.7929 38.4674L8.79611 40.4641C8.10963 41.1505 8.10963 42.2635 8.79611 42.95C9.48236 43.6363 10.5953 43.6367 11.282 42.95L13.2788 40.9533C14.8647 39.2462 12.5006 36.8812 10.7929 38.4674ZM38.2684 23.4957L34.9532 26.8109C36.8014 30.3858 34.0515 34.8468 30.0087 34.7928C26.9631 34.7928 24.4852 32.3151 24.4852 29.2693C24.4316 25.2269 28.8924 22.4764 32.4673 24.325L36.2972 20.4949C36.6268 20.1652 37.074 19.9799 37.5402 19.9799H49.5741C46.8499 -3.71357 13.1589 -3.69623 10.4434 19.9799H21.7493L25.0645 16.6648C23.2163 13.09 25.9662 8.62883 30.009 8.68286C33.0546 8.68286 35.5325 11.1607 35.5325 14.2064C35.5861 18.2488 31.1253 20.9992 27.5505 19.1506L23.7205 22.9807C23.3909 23.3103 22.9437 23.4956 22.4776 23.4956H10.4446C10.8877 28.4062 13.1726 32.987 16.8691 36.2699C18.8822 38.1307 20.188 40.6312 20.5883 43.3153C20.5927 43.3147 39.4228 43.3147 39.4294 43.3153C39.8295 40.6318 41.1354 38.131 43.1487 36.2699C46.8452 32.9872 49.1302 28.4062 49.5732 23.4956H38.2684V23.4957ZM28.2521 57.9577C23.9679 57.1335 20.7207 53.3586 20.7207 48.8375V46.8296H39.2992V48.8375C39.2992 53.3586 36.052 57.1335 31.7678 57.9577C31.9432 60.6796 28.0774 60.6813 28.2521 57.9577ZM32.0183 14.2056C32.0183 13.0986 31.1175 12.1978 30.0104 12.1978C27.3504 12.2988 27.3511 16.1129 30.0104 16.2135C31.1175 16.2134 32.0183 15.3127 32.0183 14.2056ZM30.0059 31.2764C28.8989 31.2764 27.998 30.3756 27.998 29.2685C27.998 28.1614 28.8989 27.2607 30.0059 27.2607C32.6653 27.3613 32.666 31.1754 30.0059 31.2764Z" fill="url(#paint0_linear_5787_220899)" shape-rendering="crispEdges"/>
<path fill-rule="evenodd" clip-rule="evenodd" d="M46.7356 2.52022L48.7323 0.523463C50.4402 -1.06255 52.8041 1.30229 51.2182 3.00936L49.2215 5.00612C48.5347 5.69284 47.4218 5.69237 46.7356 5.00612C46.0491 4.31963 46.0491 3.20659 46.7356 2.52022ZM10.7929 5.00622C12.4998 6.592 14.8651 4.22833 13.2788 2.52032L11.282 0.523564C10.5956 -0.162803 9.4826 -0.162803 8.79611 0.523564C8.10963 1.20993 8.10963 2.32298 8.79611 3.00946L10.7929 5.00622ZM1.76563 19.979H4.58984C6.91906 20.0651 6.91824 23.4088 4.58984 23.4946H1.76563C0.794844 23.4946 0.0078125 22.7076 0.0078125 21.7368C0.0078125 20.766 0.794844 19.979 1.76563 19.979ZM55.4258 19.979H58.25C60.5792 20.0651 60.5785 23.4088 58.25 23.4946H55.4258C54.455 23.4946 53.668 22.7076 53.668 21.7368C53.668 20.766 54.455 19.979 55.4258 19.979ZM46.7384 40.9532C45.1522 39.2453 47.5172 36.8816 49.2243 38.4673L51.2211 40.464C51.9075 41.1505 51.9075 42.2636 51.2211 42.9499C50.5343 43.6366 49.4214 43.6362 48.7352 42.9499L46.7384 40.9532ZM10.7929 38.4674L8.79611 40.4641C8.10963 41.1505 8.10963 42.2635 8.79611 42.95C9.48236 43.6363 10.5953 43.6367 11.282 42.95L13.2788 40.9533C14.8647 39.2462 12.5006 36.8812 10.7929 38.4674ZM38.2684 23.4957L34.9532 26.8109C36.8014 30.3858 34.0515 34.8468 30.0087 34.7928C26.9631 34.7928 24.4852 32.3151 24.4852 29.2693C24.4316 25.2269 28.8924 22.4764 32.4673 24.325L36.2972 20.4949C36.6268 20.1652 37.074 19.9799 37.5402 19.9799H49.5741C46.8499 -3.71357 13.1589 -3.69623 10.4434 19.9799H21.7493L25.0645 16.6648C23.2163 13.09 25.9662 8.62883 30.009 8.68286C33.0546 8.68286 35.5325 11.1607 35.5325 14.2064C35.5861 18.2488 31.1253 20.9992 27.5505 19.1506L23.7205 22.9807C23.3909 23.3103 22.9437 23.4956 22.4776 23.4956H10.4446C10.8877 28.4062 13.1726 32.987 16.8691 36.2699C18.8822 38.1307 20.188 40.6312 20.5883 43.3153C20.5927 43.3147 39.4228 43.3147 39.4294 43.3153C39.8295 40.6318 41.1354 38.131 43.1487 36.2699C46.8452 32.9872 49.1302 28.4062 49.5732 23.4956H38.2684V23.4957ZM28.2521 57.9577C23.9679 57.1335 20.7207 53.3586 20.7207 48.8375V46.8296H39.2992V48.8375C39.2992 53.3586 36.052 57.1335 31.7678 57.9577C31.9432 60.6796 28.0774 60.6813 28.2521 57.9577ZM32.0183 14.2056C32.0183 13.0986 31.1175 12.1978 30.0104 12.1978C27.3504 12.2988 27.3511 16.1129 30.0104 16.2135C31.1175 16.2134 32.0183 15.3127 32.0183 14.2056ZM30.0059 31.2764C28.8989 31.2764 27.998 30.3756 27.998 29.2685C27.998 28.1614 28.8989 27.2607 30.0059 27.2607C32.6653 27.3613 32.666 31.1754 30.0059 31.2764Z" fill="#344254" fill-opacity="0.15" shape-rendering="crispEdges"/>
<path d="M48.7323 0.523463L48.0518 -0.209306L48.0383 -0.196721L48.0252 -0.183644L48.7323 0.523463ZM46.7356 2.52022L47.4426 3.22739L47.4427 3.22733L46.7356 2.52022ZM51.2182 3.00936L51.9253 3.71647L51.9383 3.70346L51.9509 3.68999L51.2182 3.00936ZM49.2215 5.00612L48.5144 4.29901L49.2215 5.00612ZM46.7356 5.00612L46.0285 5.71322L46.0285 5.71323L46.7356 5.00612ZM13.2788 2.52032L14.0115 1.83979L13.9989 1.82627L13.9859 1.81322L13.2788 2.52032ZM10.7929 5.00622L10.0858 5.71333L10.0988 5.72633L10.1122 5.73885L10.7929 5.00622ZM11.282 0.523564L11.9891 -0.183542V-0.183543L11.282 0.523564ZM8.79611 0.523564L8.08907 -0.183603V-0.183603L8.79611 0.523564ZM8.79611 3.00946L8.08901 3.71657L8.79611 3.00946ZM4.58984 19.979L4.6268 18.9797L4.60833 18.979H4.58984V19.979ZM4.58984 23.4946V24.4946H4.60826L4.62666 24.494L4.58984 23.4946ZM58.25 19.979L58.287 18.9797L58.2685 18.979H58.25V19.979ZM58.25 23.4946V24.4946H58.2684L58.2868 24.494L58.25 23.4946ZM49.2243 38.4673L49.9314 37.7602L49.9184 37.7471L49.9049 37.7346L49.2243 38.4673ZM46.7384 40.9532L46.0057 41.6337L46.0182 41.6472L46.0313 41.6603L46.7384 40.9532ZM51.2211 42.9499L50.514 42.2428L50.514 42.2428L51.2211 42.9499ZM48.7352 42.9499L49.4423 42.2428V42.2428L48.7352 42.9499ZM8.79611 40.4641L9.50316 41.1713L9.50322 41.1712L8.79611 40.4641ZM10.7929 38.4674L10.1123 37.7346L10.0988 37.7472L10.0858 37.7603L10.7929 38.4674ZM8.79611 42.95L8.08901 43.6571H8.08901L8.79611 42.95ZM11.282 42.95L10.5749 42.2429L11.282 42.95ZM13.2788 40.9533L13.9859 41.6604L13.9989 41.6474L14.0114 41.6339L13.2788 40.9533ZM34.9532 26.8109L34.2461 26.1038L33.7292 26.6207L34.0649 27.2702L34.9532 26.8109ZM38.2684 23.4957L38.9755 24.2028L39.2684 23.9099V23.4957H38.2684ZM30.0087 34.7928L30.0221 33.7928H30.0087V34.7928ZM24.4852 29.2693H25.4853L25.4852 29.256L24.4852 29.2693ZM32.4673 24.325L32.0079 25.2132L32.6574 25.5491L33.1744 25.0321L32.4673 24.325ZM36.2972 20.4949L37.0044 21.202L37.0045 21.2018L36.2972 20.4949ZM49.5741 19.9799V20.9799H50.6957L50.5676 19.8657L49.5741 19.9799ZM10.4434 19.9799L9.44987 19.866L9.32211 20.9799H10.4434V19.9799ZM21.7493 19.9799V20.9799H22.1636L22.4564 20.687L21.7493 19.9799ZM25.0645 16.6648L25.7716 17.3719L26.2886 16.8549L25.9528 16.2055L25.0645 16.6648ZM30.009 8.68286L29.9956 9.68286H30.009V8.68286ZM35.5325 14.2064H34.5324L34.5326 14.2196L35.5325 14.2064ZM27.5505 19.1506L28.0098 18.2623L27.3603 17.9265L26.8433 18.4435L27.5505 19.1506ZM23.7205 22.9807L23.0133 22.2736L23.0132 22.2737L23.7205 22.9807ZM10.4446 23.4956V22.4956H9.35035L9.4487 23.5855L10.4446 23.4956ZM16.8691 36.2699L17.5479 35.5355L17.5406 35.5288L17.5331 35.5222L16.8691 36.2699ZM20.5883 43.3153L19.5993 43.4628L19.7448 44.4387L20.7226 44.3062L20.5883 43.3153ZM39.4294 43.3153L39.3402 44.3113L40.2794 44.3954L40.4184 43.4628L39.4294 43.3153ZM43.1487 36.2699L42.4847 35.5221L42.4773 35.5288L42.4699 35.5355L43.1487 36.2699ZM49.5732 23.4956L50.5691 23.5855L50.6675 22.4956H49.5732V23.4956ZM38.2684 23.4956V22.4956H37.2684V23.4956H38.2684ZM28.2521 57.9577L29.2501 58.0217L29.3065 57.1422L28.441 56.9757L28.2521 57.9577ZM20.7207 46.8296V45.8296H19.7207V46.8296H20.7207ZM39.2992 46.8296H40.2992V45.8296H39.2992V46.8296ZM31.7678 57.9577L31.5789 56.9757L30.7132 57.1422L30.7699 58.022L31.7678 57.9577ZM30.0104 12.1978V11.1978H29.9914L29.9724 11.1985L30.0104 12.1978ZM30.0104 16.2135L29.9726 17.2128L29.9915 17.2135L30.0105 17.2135L30.0104 16.2135ZM30.0059 31.2764V32.2764H30.0249L30.0439 32.2757L30.0059 31.2764ZM30.0059 27.2607L30.0437 26.2615L30.0248 26.2607H30.0059V27.2607ZM48.0252 -0.183644L46.0285 1.81311L47.4427 3.22733L49.4394 1.23057L48.0252 -0.183644ZM51.9509 3.68999C54.4115 1.04131 50.7012 -2.66963 48.0518 -0.209306L49.4128 1.25623C50.1792 0.544522 51.1967 1.56327 50.4856 2.32873L51.9509 3.68999ZM49.9286 5.71323L51.9253 3.71647L50.5111 2.30225L48.5144 4.29901L49.9286 5.71323ZM46.0285 5.71323C47.1051 6.78982 48.8512 6.79064 49.9286 5.71323L48.5144 4.29901C48.2183 4.59503 47.7386 4.59491 47.4427 4.29901L46.0285 5.71323ZM46.0285 1.81305C44.9514 2.88999 44.9515 4.63625 46.0285 5.71322L47.4427 4.29901C47.1467 4.00302 47.1468 3.52318 47.4426 3.22739L46.0285 1.81305ZM12.5461 3.20086C13.2552 3.96442 12.2418 4.98735 11.4735 4.27359L10.1122 5.73885C12.7579 8.19666 16.475 4.49224 14.0115 1.83979L12.5461 3.20086ZM10.5749 1.23067L12.5717 3.22743L13.9859 1.81322L11.9891 -0.183542L10.5749 1.23067ZM9.50316 1.23073C9.79917 0.934775 10.2791 0.934861 10.5749 1.23067L11.9891 -0.183543C10.9122 -1.26047 9.16603 -1.26038 8.08907 -0.183603L9.50316 1.23073ZM9.50322 2.30236C9.20723 2.00636 9.20731 1.52653 9.50316 1.23073L8.08907 -0.183603C7.01194 0.893336 7.01203 2.63959 8.08901 3.71657L9.50322 2.30236ZM11.5 4.29911L9.50322 2.30236L8.08901 3.71657L10.0858 5.71333L11.5 4.29911ZM4.58984 18.979H1.76563V20.979H4.58984V18.979ZM4.62666 24.494C8.23738 24.3609 8.242 19.1134 4.6268 18.9797L4.55289 20.9783C5.59612 21.0169 5.59911 22.4568 4.55303 22.4953L4.62666 24.494ZM1.76563 24.4946H4.58984V22.4946H1.76563V24.4946ZM-0.992188 21.7368C-0.992188 23.2599 0.242559 24.4946 1.76563 24.4946V22.4946C1.34713 22.4946 1.00781 22.1553 1.00781 21.7368H-0.992188ZM1.76563 18.979C0.242559 18.979 -0.992188 20.2138 -0.992188 21.7368H1.00781C1.00781 21.3183 1.34713 20.979 1.76563 20.979V18.979ZM58.25 18.979H55.4258V20.979H58.25V18.979ZM58.2868 24.494C61.8983 24.3609 61.9015 19.1133 58.287 18.9797L58.213 20.9783C59.2569 21.0169 59.2587 22.4568 58.2132 22.4953L58.2868 24.494ZM55.4258 24.4946H58.25V22.4946H55.4258V24.4946ZM52.668 21.7368C52.668 23.2599 53.9027 24.4946 55.4258 24.4946V22.4946C55.0073 22.4946 54.668 22.1553 54.668 21.7368H52.668ZM55.4258 18.979C53.9027 18.979 52.668 20.2138 52.668 21.7368H54.668C54.668 21.3183 55.0073 20.979 55.4258 20.979V18.979ZM49.9049 37.7346C47.2594 35.2773 43.542 38.9811 46.0057 41.6337L47.4711 40.2726C46.7623 39.5095 47.775 38.4859 48.5437 39.2L49.9049 37.7346ZM51.9282 39.7569L49.9314 37.7602L48.5172 39.1744L50.514 41.1711L51.9282 39.7569ZM51.9281 43.6571C53.0052 42.5802 53.0051 40.8339 51.9282 39.7569L50.514 41.1711C50.8099 41.4671 50.8099 41.947 50.514 42.2428L51.9281 43.6571ZM48.0281 43.657C49.1047 44.7336 50.8507 44.7344 51.9282 43.657L50.514 42.2428C50.2179 42.5388 49.7382 42.5387 49.4423 42.2428L48.0281 43.657ZM46.0313 41.6603L48.0281 43.657L49.4423 42.2428L47.4455 40.2461L46.0313 41.6603ZM9.50322 41.1712L11.5 39.1745L10.0858 37.7603L8.08901 39.757L9.50322 41.1712ZM9.50322 42.2429C9.20723 41.9469 9.20731 41.4671 9.50316 41.1713L8.08907 39.7569C7.01194 40.8339 7.01203 42.5801 8.08901 43.6571L9.50322 42.2429ZM10.5749 42.2429C10.2789 42.5389 9.79912 42.5388 9.50322 42.2429L8.08901 43.6571C9.16561 44.7337 10.9117 44.7345 11.9891 43.6571L10.5749 42.2429ZM12.5717 40.2461L10.5749 42.2429L11.9891 43.6571L13.9859 41.6604L12.5717 40.2461ZM11.4734 39.2001C12.2388 38.4892 13.2581 39.5062 12.5461 40.2726L14.0114 41.6339C16.4712 38.9861 12.7625 35.2732 10.1123 37.7346L11.4734 39.2001ZM35.6603 27.518L38.9755 24.2028L37.5613 22.7886L34.2461 26.1038L35.6603 27.518ZM29.9954 35.7927C34.7925 35.8568 38.0369 30.5981 35.8415 26.3517L34.0649 27.2702C35.5659 30.1735 33.3106 33.8368 30.0221 33.7929L29.9954 35.7927ZM23.4852 29.2693C23.4852 32.8674 26.4108 35.7928 30.0087 35.7928V33.7928C27.5154 33.7928 25.4852 31.7628 25.4852 29.2693H23.4852ZM32.9266 23.4367C28.6799 21.2408 23.4217 24.4861 23.4853 29.2826L25.4852 29.256C25.4415 25.9676 29.1048 23.7121 32.0079 25.2132L32.9266 23.4367ZM35.5901 19.7878L31.7601 23.6179L33.1744 25.0321L37.0044 21.202L35.5901 19.7878ZM37.5402 18.9799C36.8087 18.9799 36.1071 19.2706 35.59 19.7879L37.0045 21.2018C37.1465 21.0598 37.3392 20.9799 37.5402 20.9799V18.9799ZM49.5741 18.9799H37.5402V20.9799H49.5741V18.9799ZM11.4368 20.0939C14.017 -2.40219 45.9924 -2.417 48.5807 20.0942L50.5676 19.8657C47.7075 -5.01014 12.3007 -4.99026 9.44987 19.866L11.4368 20.0939ZM21.7493 18.9799H10.4434V20.9799H21.7493V18.9799ZM24.3574 15.9577L21.0422 19.2728L22.4564 20.687L25.7716 17.3719L24.3574 15.9577ZM30.0223 7.68295C25.2252 7.61884 21.9808 12.8777 24.1762 17.124L25.9528 16.2055C24.4518 13.3023 26.7071 9.63882 29.9956 9.68277L30.0223 7.68295ZM36.5325 14.2064C36.5325 10.6084 33.6069 7.68286 30.009 7.68286V9.68286C32.5023 9.68286 34.5325 11.713 34.5325 14.2064H36.5325ZM27.0911 20.0388C31.3378 22.2349 36.5961 18.9895 36.5324 14.1931L34.5326 14.2196C34.5762 17.5081 30.9129 19.7636 28.0098 18.2623L27.0911 20.0388ZM24.4276 23.6878L28.2576 19.8577L26.8433 18.4435L23.0133 22.2736L24.4276 23.6878ZM22.4776 24.4956C23.209 24.4956 23.9106 24.205 24.4277 23.6877L23.0132 22.2737C22.8713 22.4157 22.6785 22.4956 22.4776 22.4956V24.4956ZM10.4446 24.4956H22.4776V22.4956H10.4446V24.4956ZM17.5331 35.5222C14.0293 32.4104 11.8611 28.0659 11.4406 23.4058L9.4487 23.5855C9.91438 28.7465 12.3159 33.5636 16.2051 37.0176L17.5331 35.5222ZM21.5774 43.1678C21.1439 40.261 19.7301 37.5527 17.5479 35.5355L16.1903 37.0042C18.0343 38.7087 19.2322 41.0014 19.5993 43.4628L21.5774 43.1678ZM39.5186 42.3193C39.4808 42.3166 39.4397 42.3154 39.4364 42.3153C39.4351 42.3153 39.4331 42.3153 39.4322 42.3153C39.4307 42.3153 39.4291 42.3153 39.4277 42.3153C39.4249 42.3153 39.421 42.3153 39.4164 42.3153C39.407 42.3153 39.3932 42.3153 39.3752 42.3152C39.3393 42.3152 39.2861 42.3152 39.217 42.3152C39.0786 42.3152 38.876 42.3151 38.6182 42.3151C38.1026 42.3151 37.3665 42.315 36.4833 42.315C34.717 42.3149 32.3625 42.3149 30.008 42.3149C27.6536 42.3149 25.2992 42.3149 23.5331 42.315C22.6501 42.315 21.9141 42.3151 21.3988 42.3151C21.1411 42.3151 20.9386 42.3152 20.8003 42.3152C20.7312 42.3152 20.6782 42.3152 20.6423 42.3152C20.6244 42.3153 20.6106 42.3153 20.6012 42.3153C20.5966 42.3153 20.5927 42.3153 20.5899 42.3153C20.5886 42.3153 20.587 42.3153 20.5854 42.3153C20.5845 42.3153 20.5824 42.3153 20.5811 42.3153C20.5775 42.3154 20.5139 42.3181 20.4541 42.3244L20.7226 44.3062C20.6628 44.3125 20.5993 44.3152 20.5961 44.3153C20.5951 44.3153 20.5934 44.3153 20.5931 44.3153C20.5927 44.3153 20.5928 44.3153 20.5938 44.3153C20.5956 44.3153 20.5987 44.3153 20.6032 44.3153C20.612 44.3153 20.6254 44.3153 20.6432 44.3152C20.6789 44.3152 20.7318 44.3152 20.8008 44.3152C20.9389 44.3152 21.1414 44.3151 21.399 44.3151C21.9143 44.3151 22.6502 44.315 23.5332 44.315C25.2992 44.3149 27.6536 44.3149 30.008 44.3149C32.3625 44.3149 34.717 44.3149 36.4833 44.315C37.3664 44.315 38.1025 44.3151 38.618 44.3151C38.8757 44.3151 39.0783 44.3152 39.2165 44.3152C39.2856 44.3152 39.3386 44.3152 39.3743 44.3152C39.3922 44.3153 39.4056 44.3153 39.4145 44.3153C39.419 44.3153 39.422 44.3153 39.4239 44.3153C39.4249 44.3153 39.425 44.3153 39.4246 44.3153C39.4243 44.3153 39.4228 44.3153 39.4218 44.3153C39.4189 44.3152 39.378 44.314 39.3402 44.3113L39.5186 42.3193ZM42.4699 35.5355C40.2876 37.5529 38.8736 40.2616 38.4403 43.1678L40.4184 43.4628C40.7853 41.002 41.9833 38.709 43.8275 37.0042L42.4699 35.5355ZM48.5772 23.4058C48.1568 28.0659 45.9885 32.4105 42.4847 35.5221L43.8128 37.0176C47.702 33.5638 50.1036 28.7465 50.5691 23.5855L48.5772 23.4058ZM38.2684 24.4956H49.5732V22.4956H38.2684V24.4956ZM39.2684 23.4957V23.4956H37.2684V23.4957H39.2684ZM19.7207 48.8375C19.7207 53.8481 23.3182 58.0268 28.0632 58.9397L28.441 56.9757C24.6176 56.2401 21.7207 52.869 21.7207 48.8375H19.7207ZM19.7207 46.8296V48.8375H21.7207V46.8296H19.7207ZM39.2992 45.8296H20.7207V47.8296H39.2992V45.8296ZM40.2992 48.8375V46.8296H38.2992V48.8375H40.2992ZM31.9567 58.9397C36.7018 58.0268 40.2992 53.8481 40.2992 48.8375H38.2992C38.2992 52.869 35.4023 56.2401 31.5789 56.9757L31.9567 58.9397ZM27.2542 57.8937C27.1944 58.825 27.4823 59.6249 28.0399 60.1911C28.5824 60.7421 29.3102 60.9999 30.0105 60.9998C30.7107 60.9996 31.4383 60.7415 31.9806 60.1905C32.5379 59.6243 32.8258 58.8244 32.7657 57.8934L30.7699 58.022C30.7976 58.4519 30.668 58.673 30.5552 58.7875C30.4275 58.9173 30.2324 58.9997 30.01 58.9998C29.7876 58.9998 29.5926 58.9175 29.4649 58.7878C29.3523 58.6734 29.2225 58.4522 29.2501 58.0217L27.2542 57.8937ZM30.0104 13.1978C30.5652 13.1978 31.0183 13.6509 31.0183 14.2056H33.0183C33.0183 12.5463 31.6697 11.1978 30.0104 11.1978V13.1978ZM30.0482 15.2143C28.6707 15.1621 28.6721 13.2493 30.0483 13.197L29.9724 11.1985C26.0286 11.3482 26.0314 17.0636 29.9726 17.2128L30.0482 15.2143ZM31.0183 14.2056C31.0183 14.7603 30.5652 15.2135 30.0103 15.2135L30.0105 17.2135C31.6697 17.2134 33.0183 15.8651 33.0183 14.2056H31.0183ZM26.998 29.2685C26.998 30.9279 28.3466 32.2764 30.0059 32.2764V30.2764C29.4512 30.2764 28.998 29.8233 28.998 29.2685H26.998ZM30.0059 26.2607C28.3467 26.2607 26.998 27.6091 26.998 29.2685H28.998C28.998 28.7138 29.4511 28.2607 30.0059 28.2607V26.2607ZM30.0439 32.2757C33.987 32.1259 33.9857 26.4105 30.0437 26.2615L29.9682 28.26C31.3449 28.3121 31.3449 30.2248 29.968 30.2771L30.0439 32.2757Z" fill="url(#paint1_radial_5787_220899)" fill-opacity="0.6" mask="url(#path-1-inside-1_5787_220899)"/>
<path d="M48.7323 0.523463L48.0518 -0.209306L48.0383 -0.196721L48.0252 -0.183644L48.7323 0.523463ZM46.7356 2.52022L47.4426 3.22739L47.4427 3.22733L46.7356 2.52022ZM51.2182 3.00936L51.9253 3.71647L51.9383 3.70346L51.9509 3.68999L51.2182 3.00936ZM49.2215 5.00612L48.5144 4.29901L49.2215 5.00612ZM46.7356 5.00612L46.0285 5.71322L46.0285 5.71323L46.7356 5.00612ZM13.2788 2.52032L14.0115 1.83979L13.9989 1.82627L13.9859 1.81322L13.2788 2.52032ZM10.7929 5.00622L10.0858 5.71333L10.0988 5.72633L10.1122 5.73885L10.7929 5.00622ZM11.282 0.523564L11.9891 -0.183542V-0.183543L11.282 0.523564ZM8.79611 0.523564L8.08907 -0.183603V-0.183603L8.79611 0.523564ZM8.79611 3.00946L8.08901 3.71657L8.79611 3.00946ZM4.58984 19.979L4.6268 18.9797L4.60833 18.979H4.58984V19.979ZM4.58984 23.4946V24.4946H4.60826L4.62666 24.494L4.58984 23.4946ZM58.25 19.979L58.287 18.9797L58.2685 18.979H58.25V19.979ZM58.25 23.4946V24.4946H58.2684L58.2868 24.494L58.25 23.4946ZM49.2243 38.4673L49.9314 37.7602L49.9184 37.7471L49.9049 37.7346L49.2243 38.4673ZM46.7384 40.9532L46.0057 41.6337L46.0182 41.6472L46.0313 41.6603L46.7384 40.9532ZM51.2211 42.9499L50.514 42.2428L50.514 42.2428L51.2211 42.9499ZM48.7352 42.9499L49.4423 42.2428V42.2428L48.7352 42.9499ZM8.79611 40.4641L9.50316 41.1713L9.50322 41.1712L8.79611 40.4641ZM10.7929 38.4674L10.1123 37.7346L10.0988 37.7472L10.0858 37.7603L10.7929 38.4674ZM8.79611 42.95L8.08901 43.6571H8.08901L8.79611 42.95ZM11.282 42.95L10.5749 42.2429L11.282 42.95ZM13.2788 40.9533L13.9859 41.6604L13.9989 41.6474L14.0114 41.6339L13.2788 40.9533ZM34.9532 26.8109L34.2461 26.1038L33.7292 26.6207L34.0649 27.2702L34.9532 26.8109ZM38.2684 23.4957L38.9755 24.2028L39.2684 23.9099V23.4957H38.2684ZM30.0087 34.7928L30.0221 33.7928H30.0087V34.7928ZM24.4852 29.2693H25.4853L25.4852 29.256L24.4852 29.2693ZM32.4673 24.325L32.0079 25.2132L32.6574 25.5491L33.1744 25.0321L32.4673 24.325ZM36.2972 20.4949L37.0044 21.202L37.0045 21.2018L36.2972 20.4949ZM49.5741 19.9799V20.9799H50.6957L50.5676 19.8657L49.5741 19.9799ZM10.4434 19.9799L9.44987 19.866L9.32211 20.9799H10.4434V19.9799ZM21.7493 19.9799V20.9799H22.1636L22.4564 20.687L21.7493 19.9799ZM25.0645 16.6648L25.7716 17.3719L26.2886 16.8549L25.9528 16.2055L25.0645 16.6648ZM30.009 8.68286L29.9956 9.68286H30.009V8.68286ZM35.5325 14.2064H34.5324L34.5326 14.2196L35.5325 14.2064ZM27.5505 19.1506L28.0098 18.2623L27.3603 17.9265L26.8433 18.4435L27.5505 19.1506ZM23.7205 22.9807L23.0133 22.2736L23.0132 22.2737L23.7205 22.9807ZM10.4446 23.4956V22.4956H9.35035L9.4487 23.5855L10.4446 23.4956ZM16.8691 36.2699L17.5479 35.5355L17.5406 35.5288L17.5331 35.5222L16.8691 36.2699ZM20.5883 43.3153L19.5993 43.4628L19.7448 44.4387L20.7226 44.3062L20.5883 43.3153ZM39.4294 43.3153L39.3402 44.3113L40.2794 44.3954L40.4184 43.4628L39.4294 43.3153ZM43.1487 36.2699L42.4847 35.5221L42.4773 35.5288L42.4699 35.5355L43.1487 36.2699ZM49.5732 23.4956L50.5691 23.5855L50.6675 22.4956H49.5732V23.4956ZM38.2684 23.4956V22.4956H37.2684V23.4956H38.2684ZM28.2521 57.9577L29.2501 58.0217L29.3065 57.1422L28.441 56.9757L28.2521 57.9577ZM20.7207 46.8296V45.8296H19.7207V46.8296H20.7207ZM39.2992 46.8296H40.2992V45.8296H39.2992V46.8296ZM31.7678 57.9577L31.5789 56.9757L30.7132 57.1422L30.7699 58.022L31.7678 57.9577ZM30.0104 12.1978V11.1978H29.9914L29.9724 11.1985L30.0104 12.1978ZM30.0104 16.2135L29.9726 17.2128L29.9915 17.2135L30.0105 17.2135L30.0104 16.2135ZM30.0059 31.2764V32.2764H30.0249L30.0439 32.2757L30.0059 31.2764ZM30.0059 27.2607L30.0437 26.2615L30.0248 26.2607H30.0059V27.2607ZM48.0252 -0.183644L46.0285 1.81311L47.4427 3.22733L49.4394 1.23057L48.0252 -0.183644ZM51.9509 3.68999C54.4115 1.04131 50.7012 -2.66963 48.0518 -0.209306L49.4128 1.25623C50.1792 0.544522 51.1967 1.56327 50.4856 2.32873L51.9509 3.68999ZM49.9286 5.71323L51.9253 3.71647L50.5111 2.30225L48.5144 4.29901L49.9286 5.71323ZM46.0285 5.71323C47.1051 6.78982 48.8512 6.79064 49.9286 5.71323L48.5144 4.29901C48.2183 4.59503 47.7386 4.59491 47.4427 4.29901L46.0285 5.71323ZM46.0285 1.81305C44.9514 2.88999 44.9515 4.63625 46.0285 5.71322L47.4427 4.29901C47.1467 4.00302 47.1468 3.52318 47.4426 3.22739L46.0285 1.81305ZM12.5461 3.20086C13.2552 3.96442 12.2418 4.98735 11.4735 4.27359L10.1122 5.73885C12.7579 8.19666 16.475 4.49224 14.0115 1.83979L12.5461 3.20086ZM10.5749 1.23067L12.5717 3.22743L13.9859 1.81322L11.9891 -0.183542L10.5749 1.23067ZM9.50316 1.23073C9.79917 0.934775 10.2791 0.934861 10.5749 1.23067L11.9891 -0.183543C10.9122 -1.26047 9.16603 -1.26038 8.08907 -0.183603L9.50316 1.23073ZM9.50322 2.30236C9.20723 2.00636 9.20731 1.52653 9.50316 1.23073L8.08907 -0.183603C7.01194 0.893336 7.01203 2.63959 8.08901 3.71657L9.50322 2.30236ZM11.5 4.29911L9.50322 2.30236L8.08901 3.71657L10.0858 5.71333L11.5 4.29911ZM4.58984 18.979H1.76563V20.979H4.58984V18.979ZM4.62666 24.494C8.23738 24.3609 8.242 19.1134 4.6268 18.9797L4.55289 20.9783C5.59612 21.0169 5.59911 22.4568 4.55303 22.4953L4.62666 24.494ZM1.76563 24.4946H4.58984V22.4946H1.76563V24.4946ZM-0.992188 21.7368C-0.992188 23.2599 0.242559 24.4946 1.76563 24.4946V22.4946C1.34713 22.4946 1.00781 22.1553 1.00781 21.7368H-0.992188ZM1.76563 18.979C0.242559 18.979 -0.992188 20.2138 -0.992188 21.7368H1.00781C1.00781 21.3183 1.34713 20.979 1.76563 20.979V18.979ZM58.25 18.979H55.4258V20.979H58.25V18.979ZM58.2868 24.494C61.8983 24.3609 61.9015 19.1133 58.287 18.9797L58.213 20.9783C59.2569 21.0169 59.2587 22.4568 58.2132 22.4953L58.2868 24.494ZM55.4258 24.4946H58.25V22.4946H55.4258V24.4946ZM52.668 21.7368C52.668 23.2599 53.9027 24.4946 55.4258 24.4946V22.4946C55.0073 22.4946 54.668 22.1553 54.668 21.7368H52.668ZM55.4258 18.979C53.9027 18.979 52.668 20.2138 52.668 21.7368H54.668C54.668 21.3183 55.0073 20.979 55.4258 20.979V18.979ZM49.9049 37.7346C47.2594 35.2773 43.542 38.9811 46.0057 41.6337L47.4711 40.2726C46.7623 39.5095 47.775 38.4859 48.5437 39.2L49.9049 37.7346ZM51.9282 39.7569L49.9314 37.7602L48.5172 39.1744L50.514 41.1711L51.9282 39.7569ZM51.9281 43.6571C53.0052 42.5802 53.0051 40.8339 51.9282 39.7569L50.514 41.1711C50.8099 41.4671 50.8099 41.947 50.514 42.2428L51.9281 43.6571ZM48.0281 43.657C49.1047 44.7336 50.8507 44.7344 51.9282 43.657L50.514 42.2428C50.2179 42.5388 49.7382 42.5387 49.4423 42.2428L48.0281 43.657ZM46.0313 41.6603L48.0281 43.657L49.4423 42.2428L47.4455 40.2461L46.0313 41.6603ZM9.50322 41.1712L11.5 39.1745L10.0858 37.7603L8.08901 39.757L9.50322 41.1712ZM9.50322 42.2429C9.20723 41.9469 9.20731 41.4671 9.50316 41.1713L8.08907 39.7569C7.01194 40.8339 7.01203 42.5801 8.08901 43.6571L9.50322 42.2429ZM10.5749 42.2429C10.2789 42.5389 9.79912 42.5388 9.50322 42.2429L8.08901 43.6571C9.16561 44.7337 10.9117 44.7345 11.9891 43.6571L10.5749 42.2429ZM12.5717 40.2461L10.5749 42.2429L11.9891 43.6571L13.9859 41.6604L12.5717 40.2461ZM11.4734 39.2001C12.2388 38.4892 13.2581 39.5062 12.5461 40.2726L14.0114 41.6339C16.4712 38.9861 12.7625 35.2732 10.1123 37.7346L11.4734 39.2001ZM35.6603 27.518L38.9755 24.2028L37.5613 22.7886L34.2461 26.1038L35.6603 27.518ZM29.9954 35.7927C34.7925 35.8568 38.0369 30.5981 35.8415 26.3517L34.0649 27.2702C35.5659 30.1735 33.3106 33.8368 30.0221 33.7929L29.9954 35.7927ZM23.4852 29.2693C23.4852 32.8674 26.4108 35.7928 30.0087 35.7928V33.7928C27.5154 33.7928 25.4852 31.7628 25.4852 29.2693H23.4852ZM32.9266 23.4367C28.6799 21.2408 23.4217 24.4861 23.4853 29.2826L25.4852 29.256C25.4415 25.9676 29.1048 23.7121 32.0079 25.2132L32.9266 23.4367ZM35.5901 19.7878L31.7601 23.6179L33.1744 25.0321L37.0044 21.202L35.5901 19.7878ZM37.5402 18.9799C36.8087 18.9799 36.1071 19.2706 35.59 19.7879L37.0045 21.2018C37.1465 21.0598 37.3392 20.9799 37.5402 20.9799V18.9799ZM49.5741 18.9799H37.5402V20.9799H49.5741V18.9799ZM11.4368 20.0939C14.017 -2.40219 45.9924 -2.417 48.5807 20.0942L50.5676 19.8657C47.7075 -5.01014 12.3007 -4.99026 9.44987 19.866L11.4368 20.0939ZM21.7493 18.9799H10.4434V20.9799H21.7493V18.9799ZM24.3574 15.9577L21.0422 19.2728L22.4564 20.687L25.7716 17.3719L24.3574 15.9577ZM30.0223 7.68295C25.2252 7.61884 21.9808 12.8777 24.1762 17.124L25.9528 16.2055C24.4518 13.3023 26.7071 9.63882 29.9956 9.68277L30.0223 7.68295ZM36.5325 14.2064C36.5325 10.6084 33.6069 7.68286 30.009 7.68286V9.68286C32.5023 9.68286 34.5325 11.713 34.5325 14.2064H36.5325ZM27.0911 20.0388C31.3378 22.2349 36.5961 18.9895 36.5324 14.1931L34.5326 14.2196C34.5762 17.5081 30.9129 19.7636 28.0098 18.2623L27.0911 20.0388ZM24.4276 23.6878L28.2576 19.8577L26.8433 18.4435L23.0133 22.2736L24.4276 23.6878ZM22.4776 24.4956C23.209 24.4956 23.9106 24.205 24.4277 23.6877L23.0132 22.2737C22.8713 22.4157 22.6785 22.4956 22.4776 22.4956V24.4956ZM10.4446 24.4956H22.4776V22.4956H10.4446V24.4956ZM17.5331 35.5222C14.0293 32.4104 11.8611 28.0659 11.4406 23.4058L9.4487 23.5855C9.91438 28.7465 12.3159 33.5636 16.2051 37.0176L17.5331 35.5222ZM21.5774 43.1678C21.1439 40.261 19.7301 37.5527 17.5479 35.5355L16.1903 37.0042C18.0343 38.7087 19.2322 41.0014 19.5993 43.4628L21.5774 43.1678ZM39.5186 42.3193C39.4808 42.3166 39.4397 42.3154 39.4364 42.3153C39.4351 42.3153 39.4331 42.3153 39.4322 42.3153C39.4307 42.3153 39.4291 42.3153 39.4277 42.3153C39.4249 42.3153 39.421 42.3153 39.4164 42.3153C39.407 42.3153 39.3932 42.3153 39.3752 42.3152C39.3393 42.3152 39.2861 42.3152 39.217 42.3152C39.0786 42.3152 38.876 42.3151 38.6182 42.3151C38.1026 42.3151 37.3665 42.315 36.4833 42.315C34.717 42.3149 32.3625 42.3149 30.008 42.3149C27.6536 42.3149 25.2992 42.3149 23.5331 42.315C22.6501 42.315 21.9141 42.3151 21.3988 42.3151C21.1411 42.3151 20.9386 42.3152 20.8003 42.3152C20.7312 42.3152 20.6782 42.3152 20.6423 42.3152C20.6244 42.3153 20.6106 42.3153 20.6012 42.3153C20.5966 42.3153 20.5927 42.3153 20.5899 42.3153C20.5886 42.3153 20.587 42.3153 20.5854 42.3153C20.5845 42.3153 20.5824 42.3153 20.5811 42.3153C20.5775 42.3154 20.5139 42.3181 20.4541 42.3244L20.7226 44.3062C20.6628 44.3125 20.5993 44.3152 20.5961 44.3153C20.5951 44.3153 20.5934 44.3153 20.5931 44.3153C20.5927 44.3153 20.5928 44.3153 20.5938 44.3153C20.5956 44.3153 20.5987 44.3153 20.6032 44.3153C20.612 44.3153 20.6254 44.3153 20.6432 44.3152C20.6789 44.3152 20.7318 44.3152 20.8008 44.3152C20.9389 44.3152 21.1414 44.3151 21.399 44.3151C21.9143 44.3151 22.6502 44.315 23.5332 44.315C25.2992 44.3149 27.6536 44.3149 30.008 44.3149C32.3625 44.3149 34.717 44.3149 36.4833 44.315C37.3664 44.315 38.1025 44.3151 38.618 44.3151C38.8757 44.3151 39.0783 44.3152 39.2165 44.3152C39.2856 44.3152 39.3386 44.3152 39.3743 44.3152C39.3922 44.3153 39.4056 44.3153 39.4145 44.3153C39.419 44.3153 39.422 44.3153 39.4239 44.3153C39.4249 44.3153 39.425 44.3153 39.4246 44.3153C39.4243 44.3153 39.4228 44.3153 39.4218 44.3153C39.4189 44.3152 39.378 44.314 39.3402 44.3113L39.5186 42.3193ZM42.4699 35.5355C40.2876 37.5529 38.8736 40.2616 38.4403 43.1678L40.4184 43.4628C40.7853 41.002 41.9833 38.709 43.8275 37.0042L42.4699 35.5355ZM48.5772 23.4058C48.1568 28.0659 45.9885 32.4105 42.4847 35.5221L43.8128 37.0176C47.702 33.5638 50.1036 28.7465 50.5691 23.5855L48.5772 23.4058ZM38.2684 24.4956H49.5732V22.4956H38.2684V24.4956ZM39.2684 23.4957V23.4956H37.2684V23.4957H39.2684ZM19.7207 48.8375C19.7207 53.8481 23.3182 58.0268 28.0632 58.9397L28.441 56.9757C24.6176 56.2401 21.7207 52.869 21.7207 48.8375H19.7207ZM19.7207 46.8296V48.8375H21.7207V46.8296H19.7207ZM39.2992 45.8296H20.7207V47.8296H39.2992V45.8296ZM40.2992 48.8375V46.8296H38.2992V48.8375H40.2992ZM31.9567 58.9397C36.7018 58.0268 40.2992 53.8481 40.2992 48.8375H38.2992C38.2992 52.869 35.4023 56.2401 31.5789 56.9757L31.9567 58.9397ZM27.2542 57.8937C27.1944 58.825 27.4823 59.6249 28.0399 60.1911C28.5824 60.7421 29.3102 60.9999 30.0105 60.9998C30.7107 60.9996 31.4383 60.7415 31.9806 60.1905C32.5379 59.6243 32.8258 58.8244 32.7657 57.8934L30.7699 58.022C30.7976 58.4519 30.668 58.673 30.5552 58.7875C30.4275 58.9173 30.2324 58.9997 30.01 58.9998C29.7876 58.9998 29.5926 58.9175 29.4649 58.7878C29.3523 58.6734 29.2225 58.4522 29.2501 58.0217L27.2542 57.8937ZM30.0104 13.1978C30.5652 13.1978 31.0183 13.6509 31.0183 14.2056H33.0183C33.0183 12.5463 31.6697 11.1978 30.0104 11.1978V13.1978ZM30.0482 15.2143C28.6707 15.1621 28.6721 13.2493 30.0483 13.197L29.9724 11.1985C26.0286 11.3482 26.0314 17.0636 29.9726 17.2128L30.0482 15.2143ZM31.0183 14.2056C31.0183 14.7603 30.5652 15.2135 30.0103 15.2135L30.0105 17.2135C31.6697 17.2134 33.0183 15.8651 33.0183 14.2056H31.0183ZM26.998 29.2685C26.998 30.9279 28.3466 32.2764 30.0059 32.2764V30.2764C29.4512 30.2764 28.998 29.8233 28.998 29.2685H26.998ZM30.0059 26.2607C28.3467 26.2607 26.998 27.6091 26.998 29.2685H28.998C28.998 28.7138 29.4511 28.2607 30.0059 28.2607V26.2607ZM30.0439 32.2757C33.987 32.1259 33.9857 26.4105 30.0437 26.2615L29.9682 28.26C31.3449 28.3121 31.3449 30.2248 29.968 30.2771L30.0439 32.2757Z" fill="url(#paint2_radial_5787_220899)" fill-opacity="0.3" mask="url(#path-1-inside-1_5787_220899)"/>
</g>
</g>
<defs>
<filter id="filter0_bd_5787_220899" x="-499.992" y="-500" width="1059.99" height="1060" filterUnits="userSpaceOnUse" color-interpolation-filters="sRGB">
<feFlood flood-opacity="0" result="BackgroundImageFix"/>
<feGaussianBlur in="BackgroundImageFix" stdDeviation="250"/>
<feComposite in2="SourceAlpha" operator="in" result="effect1_backgroundBlur_5787_220899"/>
<feColorMatrix in="SourceAlpha" type="matrix" values="0 0 0 0 0 0 0 0 0 0 0 0 0 0 0 0 0 0 127 0" result="hardAlpha"/>
<feOffset dy="2"/>
<feGaussianBlur stdDeviation="1"/>
<feComposite in2="hardAlpha" operator="out"/>
<feColorMatrix type="matrix" values="0 0 0 0 0 0 0 0 0 0 0 0 0 0 0 0 0 0 0.25 0"/>
<feBlend mode="normal" in2="effect1_backgroundBlur_5787_220899" result="effect2_dropShadow_5787_220899"/>
<feBlend mode="normal" in="SourceGraphic" in2="effect2_dropShadow_5787_220899" result="shape"/>
</filter>
<linearGradient id="paint0_linear_5787_220899" x1="2.48308" y1="1.54545" x2="30.7585" y2="74.1366" gradientUnits="userSpaceOnUse">
<stop stop-color="white" stop-opacity="0.8"/>
<stop offset="1" stop-color="white" stop-opacity="0.2"/>
</linearGradient>
<radialGradient id="paint1_radial_5787_220899" cx="0" cy="0" r="1" gradientUnits="userSpaceOnUse" gradientTransform="translate(30.0022 0.545453) rotate(90) scale(52.0907 52.0812)">
<stop stop-color="white"/>
<stop offset="1" stop-color="white" stop-opacity="0"/>
</radialGradient>
<radialGradient id="paint2_radial_5787_220899" cx="0" cy="0" r="1" gradientUnits="userSpaceOnUse" gradientTransform="translate(30.0022 59.9998) rotate(-90) scale(29.9999 29.9944)">
<stop stop-color="white"/>
<stop offset="1" stop-color="white" stop-opacity="0"/>
</radialGradient>
<clipPath id="clip0_5787_220899">
<rect width="60" height="60" fill="white"/>
</clipPath>
</defs>
</svg>
