<svg xmlns="http://www.w3.org/2000/svg" width="80" height="80" viewBox="0 0 80 80" fill="none">
  <g filter="url(#filter0_bd_5280_257516)">
    <mask id="path-1-inside-1_5280_257516" fill="white">
      <path fill-rule="evenodd" clip-rule="evenodd" d="M21.5561 23.8117L49.1111 11.5995L39.6856 7.42261C39.2603 7.23411 38.8002 7.13672 38.335 7.13672C37.8698 7.13672 37.4097 7.23411 36.9844 7.42261L10.7812 19.0362L21.5561 23.8117ZM53.2189 13.4219L25.6641 25.6341L38.33 31.2478L65.8845 19.0353L53.2189 13.4219ZM8.33594 21.5977L36.6694 34.1555L36.6692 69.1052L10.3188 57.4267C9.72878 57.1653 9.22738 56.7382 8.87541 56.1974C8.52344 55.6565 8.33603 55.0251 8.33594 54.3798V21.5977ZM40 56.7009V69.1043L43.5711 67.5215C41.2551 64.3886 40.0037 60.5964 40 56.7009ZM68.3333 41.3133C65.3617 39.3666 61.8858 38.331 58.3333 38.3341C53.4727 38.3396 48.8127 40.2729 45.3757 43.7099C41.9387 47.1469 40.0055 51.8069 40 56.6675V34.1555L68.3333 21.5977V41.3133Z"/>
    </mask>
    <path fill-rule="evenodd" clip-rule="evenodd" d="M21.5561 23.8117L49.1111 11.5995L39.6856 7.42261C39.2603 7.23411 38.8002 7.13672 38.335 7.13672C37.8698 7.13672 37.4097 7.23411 36.9844 7.42261L10.7812 19.0362L21.5561 23.8117ZM53.2189 13.4219L25.6641 25.6341L38.33 31.2478L65.8845 19.0353L53.2189 13.4219ZM8.33594 21.5977L36.6694 34.1555L36.6692 69.1052L10.3188 57.4267C9.72878 57.1653 9.22738 56.7382 8.87541 56.1974C8.52344 55.6565 8.33603 55.0251 8.33594 54.3798V21.5977ZM40 56.7009V69.1043L43.5711 67.5215C41.2551 64.3886 40.0037 60.5964 40 56.7009ZM68.3333 41.3133C65.3617 39.3666 61.8858 38.331 58.3333 38.3341C53.4727 38.3396 48.8127 40.2729 45.3757 43.7099C41.9387 47.1469 40.0055 51.8069 40 56.6675V34.1555L68.3333 21.5977V41.3133Z" fill="url(#paint0_linear_5280_257516)" fill-opacity="0.8" shape-rendering="crispEdges"/>
    <path fill-rule="evenodd" clip-rule="evenodd" d="M21.5561 23.8117L49.1111 11.5995L39.6856 7.42261C39.2603 7.23411 38.8002 7.13672 38.335 7.13672C37.8698 7.13672 37.4097 7.23411 36.9844 7.42261L10.7812 19.0362L21.5561 23.8117ZM53.2189 13.4219L25.6641 25.6341L38.33 31.2478L65.8845 19.0353L53.2189 13.4219ZM8.33594 21.5977L36.6694 34.1555L36.6692 69.1052L10.3188 57.4267C9.72878 57.1653 9.22738 56.7382 8.87541 56.1974C8.52344 55.6565 8.33603 55.0251 8.33594 54.3798V21.5977ZM40 56.7009V69.1043L43.5711 67.5215C41.2551 64.3886 40.0037 60.5964 40 56.7009ZM68.3333 41.3133C65.3617 39.3666 61.8858 38.331 58.3333 38.3341C53.4727 38.3396 48.8127 40.2729 45.3757 43.7099C41.9387 47.1469 40.0055 51.8069 40 56.6675V34.1555L68.3333 21.5977V41.3133Z" fill="#344254" fill-opacity="0.15" shape-rendering="crispEdges"/>
    <path d="M49.1111 11.5995L49.6513 12.8185L52.4019 11.5994L49.6513 10.3805L49.1111 11.5995ZM21.5561 23.8117L21.0158 25.0306L21.5561 25.2701L22.0963 25.0307L21.5561 23.8117ZM39.6856 7.42261L39.1454 8.64159L39.1454 8.64161L39.6856 7.42261ZM36.9844 7.42261L36.4441 6.20364L36.4441 6.20364L36.9844 7.42261ZM10.7812 19.0362L10.241 17.8172L7.49066 19.0362L10.241 20.2552L10.7812 19.0362ZM25.6641 25.6341L25.1238 24.4151L22.3734 25.634L25.1238 26.853L25.6641 25.6341ZM53.2189 13.4219L53.7592 12.2029L53.2189 11.9635L52.6787 12.2029L53.2189 13.4219ZM38.33 31.2478L37.7897 32.4668L38.33 32.7062L38.8703 32.4668L38.33 31.2478ZM65.8845 19.0353L66.4248 20.2543L69.1751 19.0353L66.4248 17.8163L65.8845 19.0353ZM36.6694 34.1555L38.0027 34.1555L38.0027 33.288L37.2096 32.9365L36.6694 34.1555ZM8.33594 21.5977L8.8762 20.3787L7.0026 19.5483V21.5977H8.33594ZM36.6692 69.1052L36.129 70.3241L38.0025 71.1545L38.0026 69.1052L36.6692 69.1052ZM10.3188 57.4267L10.859 56.2077L10.8589 56.2077L10.3188 57.4267ZM8.87541 56.1974L9.99294 55.4701L9.99294 55.4701L8.87541 56.1974ZM8.33594 54.3798H7.0026V54.38L8.33594 54.3798ZM40 69.1043H38.6667V71.1537L40.5403 70.3233L40 69.1043ZM40 56.7009L41.3333 56.6996L38.6667 56.7009H40ZM43.5711 67.5215L44.1114 68.7404L45.6321 68.0664L44.6433 66.7289L43.5711 67.5215ZM58.3333 38.3341L58.3321 37.0007H58.3318L58.3333 38.3341ZM68.3333 41.3133L67.6026 42.4286L69.6666 43.7807V41.3133H68.3333ZM40 56.6675H38.6667L41.3333 56.669L40 56.6675ZM40 34.1555L39.4597 32.9365L38.6667 33.288V34.1555H40ZM68.3333 21.5977H69.6666V19.5483L67.793 20.3787L68.3333 21.5977ZM48.5708 10.3805L21.0158 22.5927L22.0963 25.0307L49.6513 12.8185L48.5708 10.3805ZM39.1454 8.64161L48.5709 12.8185L49.6513 10.3805L40.2258 6.20361L39.1454 8.64161ZM38.335 8.47005C38.6141 8.47005 38.8902 8.52848 39.1454 8.64159L40.2259 6.20364C39.6304 5.93973 38.9863 5.80339 38.335 5.80339V8.47005ZM37.5246 8.64159C37.7798 8.52848 38.0559 8.47005 38.335 8.47005V5.80339C37.6837 5.80339 37.0396 5.93973 36.4441 6.20364L37.5246 8.64159ZM11.3215 20.2552L37.5246 8.64158L36.4441 6.20364L10.241 17.8172L11.3215 20.2552ZM22.0963 22.5927L11.3215 17.8172L10.241 20.2552L21.0158 25.0306L22.0963 22.5927ZM26.2043 26.853L53.7592 14.6409L52.6787 12.2029L25.1238 24.4151L26.2043 26.853ZM38.8703 30.0288L26.2043 24.4151L25.1238 26.853L37.7897 32.4668L38.8703 30.0288ZM65.3443 17.8163L37.7897 30.0288L38.8703 32.4668L66.4248 20.2543L65.3443 17.8163ZM52.6787 14.6409L65.3443 20.2543L66.4248 17.8163L53.7592 12.2029L52.6787 14.6409ZM37.2096 32.9365L8.8762 20.3787L7.79567 22.8166L36.1291 35.3744L37.2096 32.9365ZM38.0026 69.1052L38.0027 34.1555L35.336 34.1555L35.3359 69.1051L38.0026 69.1052ZM9.7785 58.6457L36.129 70.3241L37.2095 67.8862L10.859 56.2077L9.7785 58.6457ZM7.75787 56.9246C8.25064 57.6819 8.95262 58.2797 9.77859 58.6457L10.8589 56.2077C10.5049 56.0509 10.2041 55.7946 9.99294 55.4701L7.75787 56.9246ZM7.0026 54.38C7.00273 55.2835 7.26511 56.1674 7.75788 56.9246L9.99294 55.4701C9.78177 55.1456 9.66933 54.7668 9.66927 54.3797L7.0026 54.38ZM7.0026 21.5977V54.3798H9.66927V21.5977H7.0026ZM41.3333 69.1043V56.7009H38.6667V69.1043H41.3333ZM43.0308 66.3025L39.4597 67.8853L40.5403 70.3233L44.1114 68.7404L43.0308 66.3025ZM38.6667 56.7022C38.6707 60.8825 40.0135 64.952 42.4989 68.3141L44.6433 66.7289C42.4966 63.8251 41.3368 60.3102 41.3333 56.6996L38.6667 56.7022ZM58.3344 39.6674C61.6269 39.6646 64.8485 40.6244 67.6026 42.4286L69.0639 40.198C65.8748 38.1088 62.1446 36.9975 58.3321 37.0007L58.3344 39.6674ZM46.3185 44.6527C49.5058 41.4654 53.8273 39.6725 58.3348 39.6674L58.3318 37.0007C53.118 37.0066 48.1195 39.0804 44.4329 42.7671L46.3185 44.6527ZM41.3333 56.669C41.3384 52.1615 43.1312 47.84 46.3185 44.6527L44.4329 42.7671C40.7463 46.4538 38.6725 51.4523 38.6667 56.666L41.3333 56.669ZM38.6667 34.1555V56.6675H41.3333V34.1555H38.6667ZM67.793 20.3787L39.4597 32.9365L40.5403 35.3744L68.8736 22.8166L67.793 20.3787ZM69.6666 41.3133V21.5977H67V41.3133H69.6666Z" fill="url(#paint1_radial_5280_257516)" fill-opacity="0.6" mask="url(#path-1-inside-1_5280_257516)"/>
    <path d="M49.1111 11.5995L49.6513 12.8185L52.4019 11.5994L49.6513 10.3805L49.1111 11.5995ZM21.5561 23.8117L21.0158 25.0306L21.5561 25.2701L22.0963 25.0307L21.5561 23.8117ZM39.6856 7.42261L39.1454 8.64159L39.1454 8.64161L39.6856 7.42261ZM36.9844 7.42261L36.4441 6.20364L36.4441 6.20364L36.9844 7.42261ZM10.7812 19.0362L10.241 17.8172L7.49066 19.0362L10.241 20.2552L10.7812 19.0362ZM25.6641 25.6341L25.1238 24.4151L22.3734 25.634L25.1238 26.853L25.6641 25.6341ZM53.2189 13.4219L53.7592 12.2029L53.2189 11.9635L52.6787 12.2029L53.2189 13.4219ZM38.33 31.2478L37.7897 32.4668L38.33 32.7062L38.8703 32.4668L38.33 31.2478ZM65.8845 19.0353L66.4248 20.2543L69.1751 19.0353L66.4248 17.8163L65.8845 19.0353ZM36.6694 34.1555L38.0027 34.1555L38.0027 33.288L37.2096 32.9365L36.6694 34.1555ZM8.33594 21.5977L8.8762 20.3787L7.0026 19.5483V21.5977H8.33594ZM36.6692 69.1052L36.129 70.3241L38.0025 71.1545L38.0026 69.1052L36.6692 69.1052ZM10.3188 57.4267L10.859 56.2077L10.8589 56.2077L10.3188 57.4267ZM8.87541 56.1974L9.99294 55.4701L9.99294 55.4701L8.87541 56.1974ZM8.33594 54.3798H7.0026V54.38L8.33594 54.3798ZM40 69.1043H38.6667V71.1537L40.5403 70.3233L40 69.1043ZM40 56.7009L41.3333 56.6996L38.6667 56.7009H40ZM43.5711 67.5215L44.1114 68.7404L45.6321 68.0664L44.6433 66.7289L43.5711 67.5215ZM58.3333 38.3341L58.3321 37.0007H58.3318L58.3333 38.3341ZM68.3333 41.3133L67.6026 42.4286L69.6666 43.7807V41.3133H68.3333ZM40 56.6675H38.6667L41.3333 56.669L40 56.6675ZM40 34.1555L39.4597 32.9365L38.6667 33.288V34.1555H40ZM68.3333 21.5977H69.6666V19.5483L67.793 20.3787L68.3333 21.5977ZM48.5708 10.3805L21.0158 22.5927L22.0963 25.0307L49.6513 12.8185L48.5708 10.3805ZM39.1454 8.64161L48.5709 12.8185L49.6513 10.3805L40.2258 6.20361L39.1454 8.64161ZM38.335 8.47005C38.6141 8.47005 38.8902 8.52848 39.1454 8.64159L40.2259 6.20364C39.6304 5.93973 38.9863 5.80339 38.335 5.80339V8.47005ZM37.5246 8.64159C37.7798 8.52848 38.0559 8.47005 38.335 8.47005V5.80339C37.6837 5.80339 37.0396 5.93973 36.4441 6.20364L37.5246 8.64159ZM11.3215 20.2552L37.5246 8.64158L36.4441 6.20364L10.241 17.8172L11.3215 20.2552ZM22.0963 22.5927L11.3215 17.8172L10.241 20.2552L21.0158 25.0306L22.0963 22.5927ZM26.2043 26.853L53.7592 14.6409L52.6787 12.2029L25.1238 24.4151L26.2043 26.853ZM38.8703 30.0288L26.2043 24.4151L25.1238 26.853L37.7897 32.4668L38.8703 30.0288ZM65.3443 17.8163L37.7897 30.0288L38.8703 32.4668L66.4248 20.2543L65.3443 17.8163ZM52.6787 14.6409L65.3443 20.2543L66.4248 17.8163L53.7592 12.2029L52.6787 14.6409ZM37.2096 32.9365L8.8762 20.3787L7.79567 22.8166L36.1291 35.3744L37.2096 32.9365ZM38.0026 69.1052L38.0027 34.1555L35.336 34.1555L35.3359 69.1051L38.0026 69.1052ZM9.7785 58.6457L36.129 70.3241L37.2095 67.8862L10.859 56.2077L9.7785 58.6457ZM7.75787 56.9246C8.25064 57.6819 8.95262 58.2797 9.77859 58.6457L10.8589 56.2077C10.5049 56.0509 10.2041 55.7946 9.99294 55.4701L7.75787 56.9246ZM7.0026 54.38C7.00273 55.2835 7.26511 56.1674 7.75788 56.9246L9.99294 55.4701C9.78177 55.1456 9.66933 54.7668 9.66927 54.3797L7.0026 54.38ZM7.0026 21.5977V54.3798H9.66927V21.5977H7.0026ZM41.3333 69.1043V56.7009H38.6667V69.1043H41.3333ZM43.0308 66.3025L39.4597 67.8853L40.5403 70.3233L44.1114 68.7404L43.0308 66.3025ZM38.6667 56.7022C38.6707 60.8825 40.0135 64.952 42.4989 68.3141L44.6433 66.7289C42.4966 63.8251 41.3368 60.3102 41.3333 56.6996L38.6667 56.7022ZM58.3344 39.6674C61.6269 39.6646 64.8485 40.6244 67.6026 42.4286L69.0639 40.198C65.8748 38.1088 62.1446 36.9975 58.3321 37.0007L58.3344 39.6674ZM46.3185 44.6527C49.5058 41.4654 53.8273 39.6725 58.3348 39.6674L58.3318 37.0007C53.118 37.0066 48.1195 39.0804 44.4329 42.7671L46.3185 44.6527ZM41.3333 56.669C41.3384 52.1615 43.1312 47.84 46.3185 44.6527L44.4329 42.7671C40.7463 46.4538 38.6725 51.4523 38.6667 56.666L41.3333 56.669ZM38.6667 34.1555V56.6675H41.3333V34.1555H38.6667ZM67.793 20.3787L39.4597 32.9365L40.5403 35.3744L68.8736 22.8166L67.793 20.3787ZM69.6666 41.3133V21.5977H67V41.3133H69.6666Z" fill="url(#paint2_radial_5280_257516)" fill-opacity="0.3" mask="url(#path-1-inside-1_5280_257516)"/>
  </g>
  <g filter="url(#filter1_bd_5280_257516)">
    <path d="M58.3359 41.666C55.3692 41.666 52.4691 42.5458 50.0024 44.194C47.5357 45.8422 45.6131 48.1849 44.4778 50.9258C43.3424 53.6667 43.0454 56.6827 43.6242 59.5924C44.2029 62.5021 45.6316 65.1748 47.7293 67.2726C49.8271 69.3704 52.4999 70.799 55.4096 71.3778C58.3193 71.9566 61.3353 71.6595 64.0762 70.5242C66.8171 69.3889 69.1598 67.4663 70.808 64.9996C72.4562 62.5328 73.3359 59.6327 73.3359 56.666C73.3359 52.6878 71.7556 48.8725 68.9425 46.0594C66.1295 43.2464 62.3142 41.666 58.3359 41.666ZM66.1809 54.511L57.8477 62.8443C57.6929 62.9991 57.5092 63.1219 57.3071 63.2056C57.1049 63.2894 56.8882 63.3325 56.6693 63.3325C56.4504 63.3325 56.2337 63.2894 56.0316 63.2056C55.8294 63.1219 55.6457 62.9991 55.4909 62.8443L51.3242 58.6776C51.0176 58.3638 50.8471 57.9419 50.8496 57.5032C50.8522 57.0645 51.0275 56.6446 51.3377 56.3344C51.6479 56.0242 52.0679 55.8488 52.5066 55.8463C52.9452 55.8437 53.3672 56.0143 53.6809 56.3209L56.6692 59.3087L63.8242 52.1541C63.9783 51.9965 64.1622 51.8709 64.3651 51.7848C64.5681 51.6987 64.7861 51.6537 65.0066 51.6524C65.227 51.6511 65.4456 51.6936 65.6495 51.7774C65.8534 51.8612 66.0387 51.9846 66.1946 52.1405C66.3505 52.2964 66.4739 52.4817 66.5577 52.6856C66.6415 52.8895 66.684 53.1081 66.6827 53.3285C66.6814 53.549 66.6364 53.767 66.5503 53.97C66.4642 54.1729 66.3386 54.3568 66.1809 54.5109V54.511Z" fill="url(#paint3_linear_5280_257516)" fill-opacity="0.8" shape-rendering="crispEdges"/>
    <path d="M58.3359 41.666C55.3692 41.666 52.4691 42.5458 50.0024 44.194C47.5357 45.8422 45.6131 48.1849 44.4778 50.9258C43.3424 53.6667 43.0454 56.6827 43.6242 59.5924C44.2029 62.5021 45.6316 65.1748 47.7293 67.2726C49.8271 69.3704 52.4999 70.799 55.4096 71.3778C58.3193 71.9566 61.3353 71.6595 64.0762 70.5242C66.8171 69.3889 69.1598 67.4663 70.808 64.9996C72.4562 62.5328 73.3359 59.6327 73.3359 56.666C73.3359 52.6878 71.7556 48.8725 68.9425 46.0594C66.1295 43.2464 62.3142 41.666 58.3359 41.666ZM66.1809 54.511L57.8477 62.8443C57.6929 62.9991 57.5092 63.1219 57.3071 63.2056C57.1049 63.2894 56.8882 63.3325 56.6693 63.3325C56.4504 63.3325 56.2337 63.2894 56.0316 63.2056C55.8294 63.1219 55.6457 62.9991 55.4909 62.8443L51.3242 58.6776C51.0176 58.3638 50.8471 57.9419 50.8496 57.5032C50.8522 57.0645 51.0275 56.6446 51.3377 56.3344C51.6479 56.0242 52.0679 55.8488 52.5066 55.8463C52.9452 55.8437 53.3672 56.0143 53.6809 56.3209L56.6692 59.3087L63.8242 52.1541C63.9783 51.9965 64.1622 51.8709 64.3651 51.7848C64.5681 51.6987 64.7861 51.6537 65.0066 51.6524C65.227 51.6511 65.4456 51.6936 65.6495 51.7774C65.8534 51.8612 66.0387 51.9846 66.1946 52.1405C66.3505 52.2964 66.4739 52.4817 66.5577 52.6856C66.6415 52.8895 66.684 53.1081 66.6827 53.3285C66.6814 53.549 66.6364 53.767 66.5503 53.97C66.4642 54.1729 66.3386 54.3568 66.1809 54.5109V54.511Z" fill="#344254" fill-opacity="0.15" shape-rendering="crispEdges"/>
    <path d="M66.6523 54.9824L66.8476 54.7872V54.7645C66.9761 54.6017 67.0826 54.4222 67.164 54.2304C67.2846 53.9463 67.3476 53.641 67.3494 53.3324C67.3511 53.0237 67.2916 52.7178 67.1744 52.4322C67.0571 52.1467 66.8843 51.8873 66.666 51.6691C66.4477 51.4508 66.1883 51.278 65.9028 51.1607C65.6173 51.0434 65.3114 50.9839 65.0027 50.9857C64.6941 50.9875 64.3888 51.0505 64.1047 51.1711C63.8218 51.2911 63.5655 51.4658 63.3504 51.6852L56.6692 58.3659L54.1523 55.8494L54.1523 55.8494L54.1469 55.8441C53.7076 55.4148 53.1169 55.1761 52.5027 55.1796C51.8886 55.1831 51.3006 55.4287 50.8663 55.863C50.4321 56.2972 50.1865 56.8852 50.183 57.4994C50.1794 58.1135 50.4182 58.7043 50.8474 59.1435L50.8474 59.1435L50.8528 59.149L55.0194 63.3156C55.0195 63.3156 55.0195 63.3157 55.0195 63.3157C55.2362 63.5324 55.4933 63.7043 55.7764 63.8215C56.0595 63.9388 56.3629 63.9992 56.6693 63.9992C56.9757 63.9992 57.2792 63.9388 57.5622 63.8215C57.8453 63.7043 58.1025 63.5324 58.3191 63.3157C58.3191 63.3157 58.3191 63.3156 58.3192 63.3156L66.6523 54.9824ZM50.3728 44.7483C52.7299 43.1733 55.5011 42.3327 58.3359 42.3327C62.1374 42.3327 65.7831 43.8428 68.4711 46.5308C71.1592 49.2188 72.6693 52.8646 72.6693 56.666C72.6693 59.5009 71.8286 62.2721 70.2537 64.6292C68.6787 66.9863 66.4401 68.8234 63.8211 69.9083C61.202 70.9931 58.32 71.277 55.5397 70.7239C52.7593 70.1709 50.2053 68.8058 48.2007 66.8012C46.1962 64.7967 44.8311 62.2427 44.278 59.4623C43.725 56.6819 44.0088 53.8 45.0937 51.1809C46.1785 48.5618 48.0157 46.3233 50.3728 44.7483Z" stroke="url(#paint4_radial_5280_257516)" stroke-opacity="0.6" stroke-width="1.33333" shape-rendering="crispEdges"/>
    <path d="M66.6523 54.9824L66.8476 54.7872V54.7645C66.9761 54.6017 67.0826 54.4222 67.164 54.2304C67.2846 53.9463 67.3476 53.641 67.3494 53.3324C67.3511 53.0237 67.2916 52.7178 67.1744 52.4322C67.0571 52.1467 66.8843 51.8873 66.666 51.6691C66.4477 51.4508 66.1883 51.278 65.9028 51.1607C65.6173 51.0434 65.3114 50.9839 65.0027 50.9857C64.6941 50.9875 64.3888 51.0505 64.1047 51.1711C63.8218 51.2911 63.5655 51.4658 63.3504 51.6852L56.6692 58.3659L54.1523 55.8494L54.1523 55.8494L54.1469 55.8441C53.7076 55.4148 53.1169 55.1761 52.5027 55.1796C51.8886 55.1831 51.3006 55.4287 50.8663 55.863C50.4321 56.2972 50.1865 56.8852 50.183 57.4994C50.1794 58.1135 50.4182 58.7043 50.8474 59.1435L50.8474 59.1435L50.8528 59.149L55.0194 63.3156C55.0195 63.3156 55.0195 63.3157 55.0195 63.3157C55.2362 63.5324 55.4933 63.7043 55.7764 63.8215C56.0595 63.9388 56.3629 63.9992 56.6693 63.9992C56.9757 63.9992 57.2792 63.9388 57.5622 63.8215C57.8453 63.7043 58.1025 63.5324 58.3191 63.3157C58.3191 63.3157 58.3191 63.3156 58.3192 63.3156L66.6523 54.9824ZM50.3728 44.7483C52.7299 43.1733 55.5011 42.3327 58.3359 42.3327C62.1374 42.3327 65.7831 43.8428 68.4711 46.5308C71.1592 49.2188 72.6693 52.8646 72.6693 56.666C72.6693 59.5009 71.8286 62.2721 70.2537 64.6292C68.6787 66.9863 66.4401 68.8234 63.8211 69.9083C61.202 70.9931 58.32 71.277 55.5397 70.7239C52.7593 70.1709 50.2053 68.8058 48.2007 66.8012C46.1962 64.7967 44.8311 62.2427 44.278 59.4623C43.725 56.6819 44.0088 53.8 45.0937 51.1809C46.1785 48.5618 48.0157 46.3233 50.3728 44.7483Z" stroke="url(#paint5_radial_5280_257516)" stroke-opacity="0.3" stroke-width="1.33333" shape-rendering="crispEdges"/>
  </g>
  <defs>
    <filter id="filter0_bd_5280_257516" x="-658.331" y="-659.53" width="1393.33" height="1395.3" filterUnits="userSpaceOnUse" color-interpolation-filters="sRGB">
      <feFlood flood-opacity="0" result="BackgroundImageFix"/>
      <feGaussianBlur in="BackgroundImageFix" stdDeviation="333.333"/>
      <feComposite in2="SourceAlpha" operator="in" result="effect1_backgroundBlur_5280_257516"/>
      <feColorMatrix in="SourceAlpha" type="matrix" values="0 0 0 0 0 0 0 0 0 0 0 0 0 0 0 0 0 0 127 0" result="hardAlpha"/>
      <feOffset dy="2.66667"/>
      <feGaussianBlur stdDeviation="1.33333"/>
      <feComposite in2="hardAlpha" operator="out"/>
      <feColorMatrix type="matrix" values="0 0 0 0 0 0 0 0 0 0 0 0 0 0 0 0 0 0 0.25 0"/>
      <feBlend mode="normal" in2="effect1_backgroundBlur_5280_257516" result="effect2_dropShadow_5280_257516"/>
      <feBlend mode="normal" in="SourceGraphic" in2="effect2_dropShadow_5280_257516" result="shape"/>
    </filter>
    <filter id="filter1_bd_5280_257516" x="-623.331" y="-625.001" width="1363.33" height="1363.33" filterUnits="userSpaceOnUse" color-interpolation-filters="sRGB">
      <feFlood flood-opacity="0" result="BackgroundImageFix"/>
      <feGaussianBlur in="BackgroundImageFix" stdDeviation="333.333"/>
      <feComposite in2="SourceAlpha" operator="in" result="effect1_backgroundBlur_5280_257516"/>
      <feColorMatrix in="SourceAlpha" type="matrix" values="0 0 0 0 0 0 0 0 0 0 0 0 0 0 0 0 0 0 127 0" result="hardAlpha"/>
      <feOffset dy="2.66667"/>
      <feGaussianBlur stdDeviation="1.33333"/>
      <feComposite in2="hardAlpha" operator="out"/>
      <feColorMatrix type="matrix" values="0 0 0 0 0 0 0 0 0 0 0 0 0 0 0 0 0 0 0.25 0"/>
      <feBlend mode="normal" in2="effect1_backgroundBlur_5280_257516" result="effect2_dropShadow_5280_257516"/>
      <feBlend mode="normal" in="SourceGraphic" in2="effect2_dropShadow_5280_257516" result="shape"/>
    </filter>
    <linearGradient id="paint0_linear_5280_257516" x1="10.8116" y1="8.73288" x2="40.7071" y2="83.0558" gradientUnits="userSpaceOnUse">
      <stop stop-color="white" stop-opacity="0.6"/>
      <stop offset="1" stop-color="white" stop-opacity="0"/>
    </linearGradient>
    <radialGradient id="paint1_radial_5280_257516" cx="0" cy="0" r="1" gradientUnits="userSpaceOnUse" gradientTransform="translate(38.3346 7.70007) rotate(90) scale(53.7999 52.0886)">
      <stop stop-color="white"/>
      <stop offset="1" stop-color="white" stop-opacity="0"/>
    </radialGradient>
    <radialGradient id="paint2_radial_5280_257516" cx="0" cy="0" r="1" gradientUnits="userSpaceOnUse" gradientTransform="translate(38.3346 69.1052) rotate(-90) scale(30.9842 29.9987)">
      <stop stop-color="white"/>
      <stop offset="1" stop-color="white" stop-opacity="0"/>
    </radialGradient>
    <linearGradient id="paint3_linear_5280_257516" x1="44.5738" y1="42.4387" x2="58.7097" y2="78.7362" gradientUnits="userSpaceOnUse">
      <stop stop-color="white" stop-opacity="0.6"/>
      <stop offset="1" stop-color="white" stop-opacity="0"/>
    </linearGradient>
    <radialGradient id="paint4_radial_5280_257516" cx="0" cy="0" r="1" gradientUnits="userSpaceOnUse" gradientTransform="translate(58.3359 41.9387) rotate(90) scale(26.0455)">
      <stop stop-color="white"/>
      <stop offset="1" stop-color="white" stop-opacity="0"/>
    </radialGradient>
    <radialGradient id="paint5_radial_5280_257516" cx="0" cy="0" r="1" gradientUnits="userSpaceOnUse" gradientTransform="translate(58.3359 71.666) rotate(-90) scale(15)">
      <stop stop-color="white"/>
      <stop offset="1" stop-color="white" stop-opacity="0"/>
    </radialGradient>
  </defs>
</svg>
