<svg xmlns="http://www.w3.org/2000/svg" width="80" height="80" viewBox="0 0 80 80" fill="none">
  <g clip-path="url(#clip0_5585_48030)">
    <g filter="url(#filter0_bd_5585_48030)">
      <mask id="path-1-inside-1_5585_48030" fill="white">
        <path fill-rule="evenodd" clip-rule="evenodd" d="M37.653 2.34951V56.3281H30.6219C25.3455 56.3281 20.8221 52.8695 19.3735 47.8972C10.0963 46.4008 6.19632 34.9476 12.8801 28.125C6.21397 21.3203 10.0591 9.83638 19.3968 8.34904C21.7396 0.559508 31.1532 -2.54065 37.653 2.34951ZM25.5559 17.9342L25.5557 17.9344C23.8398 18.7634 21.2468 20.0162 21.2468 23.5937C21.2468 24.8881 22.2962 25.9375 23.5905 25.9375C24.8849 25.9375 25.9343 24.8881 25.9343 23.5937C25.9343 23.0795 25.9343 22.9573 27.5949 22.155L27.5949 22.155C29.6035 21.1845 32.9655 19.5601 32.9655 14.2187C32.9655 12.9244 31.9162 11.875 30.6218 11.875C29.3274 11.875 28.278 12.9244 28.278 14.2187C28.278 16.6189 27.3683 17.0585 25.5559 17.9342ZM27.1173 41.6212C28.1371 41.6212 29.0754 40.9504 29.3696 39.9214C29.7255 38.6768 29.0052 37.3795 27.7605 37.0234C25.9007 36.4917 24.2562 35.3693 23.0888 33.8847C22.2888 32.8672 20.8155 32.6908 19.7977 33.4909C18.7802 34.2909 18.6038 35.7643 19.404 36.782C21.9985 40.0818 25.8944 41.6212 27.1173 41.6212ZM67.1203 28.125C73.7893 21.3173 69.936 9.83545 60.6036 8.34904C58.2608 0.559822 48.8474 -2.5408 42.3472 2.34951V56.3281H49.3785C54.6689 56.3281 59.183 52.8533 60.6269 47.8972C69.9085 46.4001 73.8018 34.9454 67.1203 28.125ZM47.0347 14.2187C47.0347 12.9244 48.0841 11.875 49.3785 11.875C50.6728 11.875 51.7222 12.9244 51.7222 14.2187C51.7222 16.6189 52.6321 17.0586 54.4446 17.9344C56.1605 18.7634 58.7535 20.0162 58.7535 23.5937C58.7535 24.8881 57.7041 25.9375 56.4097 25.9375C55.1153 25.9375 54.066 24.8881 54.066 23.5937C54.066 23.0795 54.066 22.9573 52.4053 22.155C50.3968 21.1845 47.0347 19.5601 47.0347 14.2187ZM60.9364 36.3306C58.2382 40.0697 54.0699 41.6212 52.883 41.6212C51.8632 41.6212 50.925 40.9506 50.6307 39.9214C50.2747 38.6768 50.9952 37.3795 52.2397 37.0236C54.1772 36.4695 55.9285 35.2598 57.1353 33.5875C57.8928 32.5378 59.3578 32.3011 60.4074 33.0584C61.4571 33.8161 61.6939 35.2809 60.9364 36.3306ZM9.94733 5.41734C11.5087 6.87343 10.4578 9.47515 8.34842 9.47515C7.34607 9.47515 6.79563 8.92667 6.06004 8.19368C5.74609 7.88085 5.39842 7.5344 4.96749 7.18265C4.02093 6.29984 3.96905 4.81687 4.85186 3.87015C5.73452 2.92374 7.21764 2.87187 8.16436 3.75452L9.94733 5.41734ZM4.78172 25.9444C6.07609 25.9444 7.12547 26.9938 7.12547 28.2882C7.12547 29.5826 6.07609 30.6319 4.78172 30.6319H2.34375C1.04938 30.6319 0 29.5826 0 28.2882C0 26.9938 1.04938 25.9444 2.34375 25.9444H4.78172ZM6.75054 47.4039L4.96757 49.0666C4.02085 49.9494 3.96913 51.4325 4.85178 52.3791C5.73491 53.326 7.21772 53.3775 8.16444 52.4949L9.94741 50.8322C10.8941 49.9494 10.9458 48.4663 10.0632 47.5197C9.18022 46.573 7.69725 46.5211 6.75054 47.4039ZM75.2188 25.6181H77.6567C78.9511 25.6181 80.0005 26.6674 80.0005 27.9618C80.0005 29.2562 78.9511 30.3056 77.6567 30.3056H75.2188C73.9244 30.3056 72.875 29.2562 72.875 27.9618C72.875 26.6674 73.9244 25.6181 75.2188 25.6181ZM73.2478 47.4038C72.3011 46.5213 70.8181 46.573 69.9351 47.5195C69.0525 48.4663 69.1042 49.9492 70.0509 50.832L71.8339 52.4947C72.7826 53.3792 74.2654 53.3236 75.1465 52.3789C76.0292 51.4322 75.9775 49.9492 75.0307 49.0664L73.2478 47.4038ZM75.0307 7.18283L73.2478 8.84548C72.3014 9.72814 70.8182 9.67658 69.9353 8.72986C69.0524 7.7833 69.1042 6.30017 70.0509 5.41736L71.8338 3.7547C72.7804 2.87173 74.2635 2.92376 75.1463 3.87033C76.0292 4.81689 75.9774 6.30001 75.0307 7.18283ZM26.7222 63.5156C26.7222 66.4309 28.5074 68.9366 31.0416 70H48.9653C51.4996 68.9366 53.2847 66.4309 53.2847 63.5156V60.1563H26.7222V63.5156ZM33.7465 80C32.4528 80 31.4028 78.95 31.4028 77.6563V74.6875H48.5903V77.6563C48.5903 78.95 47.5403 80 46.2465 80H33.7465Z"/>
      </mask>
      <path fill-rule="evenodd" clip-rule="evenodd" d="M37.653 2.34951V56.3281H30.6219C25.3455 56.3281 20.8221 52.8695 19.3735 47.8972C10.0963 46.4008 6.19632 34.9476 12.8801 28.125C6.21397 21.3203 10.0591 9.83638 19.3968 8.34904C21.7396 0.559508 31.1532 -2.54065 37.653 2.34951ZM25.5559 17.9342L25.5557 17.9344C23.8398 18.7634 21.2468 20.0162 21.2468 23.5937C21.2468 24.8881 22.2962 25.9375 23.5905 25.9375C24.8849 25.9375 25.9343 24.8881 25.9343 23.5937C25.9343 23.0795 25.9343 22.9573 27.5949 22.155L27.5949 22.155C29.6035 21.1845 32.9655 19.5601 32.9655 14.2187C32.9655 12.9244 31.9162 11.875 30.6218 11.875C29.3274 11.875 28.278 12.9244 28.278 14.2187C28.278 16.6189 27.3683 17.0585 25.5559 17.9342ZM27.1173 41.6212C28.1371 41.6212 29.0754 40.9504 29.3696 39.9214C29.7255 38.6768 29.0052 37.3795 27.7605 37.0234C25.9007 36.4917 24.2562 35.3693 23.0888 33.8847C22.2888 32.8672 20.8155 32.6908 19.7977 33.4909C18.7802 34.2909 18.6038 35.7643 19.404 36.782C21.9985 40.0818 25.8944 41.6212 27.1173 41.6212ZM67.1203 28.125C73.7893 21.3173 69.936 9.83545 60.6036 8.34904C58.2608 0.559822 48.8474 -2.5408 42.3472 2.34951V56.3281H49.3785C54.6689 56.3281 59.183 52.8533 60.6269 47.8972C69.9085 46.4001 73.8018 34.9454 67.1203 28.125ZM47.0347 14.2187C47.0347 12.9244 48.0841 11.875 49.3785 11.875C50.6728 11.875 51.7222 12.9244 51.7222 14.2187C51.7222 16.6189 52.6321 17.0586 54.4446 17.9344C56.1605 18.7634 58.7535 20.0162 58.7535 23.5937C58.7535 24.8881 57.7041 25.9375 56.4097 25.9375C55.1153 25.9375 54.066 24.8881 54.066 23.5937C54.066 23.0795 54.066 22.9573 52.4053 22.155C50.3968 21.1845 47.0347 19.5601 47.0347 14.2187ZM60.9364 36.3306C58.2382 40.0697 54.0699 41.6212 52.883 41.6212C51.8632 41.6212 50.925 40.9506 50.6307 39.9214C50.2747 38.6768 50.9952 37.3795 52.2397 37.0236C54.1772 36.4695 55.9285 35.2598 57.1353 33.5875C57.8928 32.5378 59.3578 32.3011 60.4074 33.0584C61.4571 33.8161 61.6939 35.2809 60.9364 36.3306ZM9.94733 5.41734C11.5087 6.87343 10.4578 9.47515 8.34842 9.47515C7.34607 9.47515 6.79563 8.92667 6.06004 8.19368C5.74609 7.88085 5.39842 7.5344 4.96749 7.18265C4.02093 6.29984 3.96905 4.81687 4.85186 3.87015C5.73452 2.92374 7.21764 2.87187 8.16436 3.75452L9.94733 5.41734ZM4.78172 25.9444C6.07609 25.9444 7.12547 26.9938 7.12547 28.2882C7.12547 29.5826 6.07609 30.6319 4.78172 30.6319H2.34375C1.04938 30.6319 0 29.5826 0 28.2882C0 26.9938 1.04938 25.9444 2.34375 25.9444H4.78172ZM6.75054 47.4039L4.96757 49.0666C4.02085 49.9494 3.96913 51.4325 4.85178 52.3791C5.73491 53.326 7.21772 53.3775 8.16444 52.4949L9.94741 50.8322C10.8941 49.9494 10.9458 48.4663 10.0632 47.5197C9.18022 46.573 7.69725 46.5211 6.75054 47.4039ZM75.2188 25.6181H77.6567C78.9511 25.6181 80.0005 26.6674 80.0005 27.9618C80.0005 29.2562 78.9511 30.3056 77.6567 30.3056H75.2188C73.9244 30.3056 72.875 29.2562 72.875 27.9618C72.875 26.6674 73.9244 25.6181 75.2188 25.6181ZM73.2478 47.4038C72.3011 46.5213 70.8181 46.573 69.9351 47.5195C69.0525 48.4663 69.1042 49.9492 70.0509 50.832L71.8339 52.4947C72.7826 53.3792 74.2654 53.3236 75.1465 52.3789C76.0292 51.4322 75.9775 49.9492 75.0307 49.0664L73.2478 47.4038ZM75.0307 7.18283L73.2478 8.84548C72.3014 9.72814 70.8182 9.67658 69.9353 8.72986C69.0524 7.7833 69.1042 6.30017 70.0509 5.41736L71.8338 3.7547C72.7804 2.87173 74.2635 2.92376 75.1463 3.87033C76.0292 4.81689 75.9774 6.30001 75.0307 7.18283ZM26.7222 63.5156C26.7222 66.4309 28.5074 68.9366 31.0416 70H48.9653C51.4996 68.9366 53.2847 66.4309 53.2847 63.5156V60.1563H26.7222V63.5156ZM33.7465 80C32.4528 80 31.4028 78.95 31.4028 77.6563V74.6875H48.5903V77.6563C48.5903 78.95 47.5403 80 46.2465 80H33.7465Z" fill="url(#paint0_linear_5585_48030)" shape-rendering="crispEdges"/>
      <path fill-rule="evenodd" clip-rule="evenodd" d="M37.653 2.34951V56.3281H30.6219C25.3455 56.3281 20.8221 52.8695 19.3735 47.8972C10.0963 46.4008 6.19632 34.9476 12.8801 28.125C6.21397 21.3203 10.0591 9.83638 19.3968 8.34904C21.7396 0.559508 31.1532 -2.54065 37.653 2.34951ZM25.5559 17.9342L25.5557 17.9344C23.8398 18.7634 21.2468 20.0162 21.2468 23.5937C21.2468 24.8881 22.2962 25.9375 23.5905 25.9375C24.8849 25.9375 25.9343 24.8881 25.9343 23.5937C25.9343 23.0795 25.9343 22.9573 27.5949 22.155L27.5949 22.155C29.6035 21.1845 32.9655 19.5601 32.9655 14.2187C32.9655 12.9244 31.9162 11.875 30.6218 11.875C29.3274 11.875 28.278 12.9244 28.278 14.2187C28.278 16.6189 27.3683 17.0585 25.5559 17.9342ZM27.1173 41.6212C28.1371 41.6212 29.0754 40.9504 29.3696 39.9214C29.7255 38.6768 29.0052 37.3795 27.7605 37.0234C25.9007 36.4917 24.2562 35.3693 23.0888 33.8847C22.2888 32.8672 20.8155 32.6908 19.7977 33.4909C18.7802 34.2909 18.6038 35.7643 19.404 36.782C21.9985 40.0818 25.8944 41.6212 27.1173 41.6212ZM67.1203 28.125C73.7893 21.3173 69.936 9.83545 60.6036 8.34904C58.2608 0.559822 48.8474 -2.5408 42.3472 2.34951V56.3281H49.3785C54.6689 56.3281 59.183 52.8533 60.6269 47.8972C69.9085 46.4001 73.8018 34.9454 67.1203 28.125ZM47.0347 14.2187C47.0347 12.9244 48.0841 11.875 49.3785 11.875C50.6728 11.875 51.7222 12.9244 51.7222 14.2187C51.7222 16.6189 52.6321 17.0586 54.4446 17.9344C56.1605 18.7634 58.7535 20.0162 58.7535 23.5937C58.7535 24.8881 57.7041 25.9375 56.4097 25.9375C55.1153 25.9375 54.066 24.8881 54.066 23.5937C54.066 23.0795 54.066 22.9573 52.4053 22.155C50.3968 21.1845 47.0347 19.5601 47.0347 14.2187ZM60.9364 36.3306C58.2382 40.0697 54.0699 41.6212 52.883 41.6212C51.8632 41.6212 50.925 40.9506 50.6307 39.9214C50.2747 38.6768 50.9952 37.3795 52.2397 37.0236C54.1772 36.4695 55.9285 35.2598 57.1353 33.5875C57.8928 32.5378 59.3578 32.3011 60.4074 33.0584C61.4571 33.8161 61.6939 35.2809 60.9364 36.3306ZM9.94733 5.41734C11.5087 6.87343 10.4578 9.47515 8.34842 9.47515C7.34607 9.47515 6.79563 8.92667 6.06004 8.19368C5.74609 7.88085 5.39842 7.5344 4.96749 7.18265C4.02093 6.29984 3.96905 4.81687 4.85186 3.87015C5.73452 2.92374 7.21764 2.87187 8.16436 3.75452L9.94733 5.41734ZM4.78172 25.9444C6.07609 25.9444 7.12547 26.9938 7.12547 28.2882C7.12547 29.5826 6.07609 30.6319 4.78172 30.6319H2.34375C1.04938 30.6319 0 29.5826 0 28.2882C0 26.9938 1.04938 25.9444 2.34375 25.9444H4.78172ZM6.75054 47.4039L4.96757 49.0666C4.02085 49.9494 3.96913 51.4325 4.85178 52.3791C5.73491 53.326 7.21772 53.3775 8.16444 52.4949L9.94741 50.8322C10.8941 49.9494 10.9458 48.4663 10.0632 47.5197C9.18022 46.573 7.69725 46.5211 6.75054 47.4039ZM75.2188 25.6181H77.6567C78.9511 25.6181 80.0005 26.6674 80.0005 27.9618C80.0005 29.2562 78.9511 30.3056 77.6567 30.3056H75.2188C73.9244 30.3056 72.875 29.2562 72.875 27.9618C72.875 26.6674 73.9244 25.6181 75.2188 25.6181ZM73.2478 47.4038C72.3011 46.5213 70.8181 46.573 69.9351 47.5195C69.0525 48.4663 69.1042 49.9492 70.0509 50.832L71.8339 52.4947C72.7826 53.3792 74.2654 53.3236 75.1465 52.3789C76.0292 51.4322 75.9775 49.9492 75.0307 49.0664L73.2478 47.4038ZM75.0307 7.18283L73.2478 8.84548C72.3014 9.72814 70.8182 9.67658 69.9353 8.72986C69.0524 7.7833 69.1042 6.30017 70.0509 5.41736L71.8338 3.7547C72.7804 2.87173 74.2635 2.92376 75.1463 3.87033C76.0292 4.81689 75.9774 6.30001 75.0307 7.18283ZM26.7222 63.5156C26.7222 66.4309 28.5074 68.9366 31.0416 70H48.9653C51.4996 68.9366 53.2847 66.4309 53.2847 63.5156V60.1563H26.7222V63.5156ZM33.7465 80C32.4528 80 31.4028 78.95 31.4028 77.6563V74.6875H48.5903V77.6563C48.5903 78.95 47.5403 80 46.2465 80H33.7465Z" fill="#344254" fill-opacity="0.15" shape-rendering="crispEdges"/>
      <path d="M37.653 56.3281V57.6614H38.9864V56.3281H37.653ZM37.653 2.34951H38.9864V1.68409L38.4546 1.28404L37.653 2.34951ZM19.3735 47.8972L20.6536 47.5242L20.4179 46.715L19.5858 46.5808L19.3735 47.8972ZM12.8801 28.125L13.8325 29.058L14.7466 28.125L13.8325 27.1919L12.8801 28.125ZM19.3968 8.34904L19.6065 9.66577L20.4327 9.53418L20.6736 8.73306L19.3968 8.34904ZM25.5557 17.9344L24.9849 16.7293L24.9756 16.7338L25.5557 17.9344ZM25.5559 17.9342L26.1267 19.1393L26.136 19.1348L25.5559 17.9342ZM27.5949 22.155L28.175 23.3555L28.1831 23.3516L28.1912 23.3475L27.5949 22.155ZM27.5949 22.155L27.0149 20.9544L27.0067 20.9584L26.9987 20.9624L27.5949 22.155ZM29.3696 39.9214L28.0877 39.5547L28.0876 39.5549L29.3696 39.9214ZM27.7605 37.0234L28.1273 35.7415L28.127 35.7414L27.7605 37.0234ZM23.0888 33.8847L22.0407 34.7088L22.0407 34.7088L23.0888 33.8847ZM19.7977 33.4909L18.9737 32.4427L18.9736 32.4428L19.7977 33.4909ZM19.404 36.782L20.4521 35.9579L20.4521 35.9579L19.404 36.782ZM60.6036 8.34904L59.3268 8.73308L59.5678 9.53419L60.3939 9.66578L60.6036 8.34904ZM67.1203 28.125L66.1679 27.1919L65.2538 28.125L66.1679 29.058L67.1203 28.125ZM42.3472 2.34951L41.5456 1.28404L41.0139 1.68409V2.34951H42.3472ZM42.3472 56.3281H41.0139V57.6614H42.3472V56.3281ZM60.6269 47.8972L60.4146 46.5808L59.5825 46.715L59.3468 47.5242L60.6269 47.8972ZM54.4446 17.9344L53.8645 19.1349L53.8645 19.1349L54.4446 17.9344ZM52.4053 22.155L51.8253 23.3555L52.4053 22.155ZM60.9364 36.3306L62.0176 37.1108H62.0176L60.9364 36.3306ZM50.6307 39.9214L49.3487 40.288L49.3487 40.288L50.6307 39.9214ZM52.2397 37.0236L51.8731 35.7416L51.8731 35.7416L52.2397 37.0236ZM57.1353 33.5875L58.2165 34.3677L58.2166 34.3677L57.1353 33.5875ZM60.4074 33.0584L61.1877 31.9773L61.1876 31.9772L60.4074 33.0584ZM9.94733 5.41734L9.03795 6.39243L9.03798 6.39246L9.94733 5.41734ZM6.06004 8.19368L5.1189 9.13816L5.1189 9.13816L6.06004 8.19368ZM4.96749 7.18265L4.05809 8.15772L4.09027 8.18773L4.12435 8.21556L4.96749 7.18265ZM4.85186 3.87015L3.87679 2.96075L3.87672 2.96083L4.85186 3.87015ZM8.16436 3.75452L9.07374 2.77943L9.0736 2.7793L8.16436 3.75452ZM4.96757 49.0666L5.87689 50.0417L5.8769 50.0417L4.96757 49.0666ZM6.75054 47.4039L5.84121 46.4288L5.8412 46.4288L6.75054 47.4039ZM4.85178 52.3791L3.87663 53.2884L3.87672 53.2885L4.85178 52.3791ZM8.16444 52.4949L9.07368 53.4701L9.07378 53.47L8.16444 52.4949ZM9.94741 50.8322L9.03809 49.8571L9.03807 49.8571L9.94741 50.8322ZM10.0632 47.5197L11.0383 46.6104L11.0383 46.6103L10.0632 47.5197ZM69.9351 47.5195L68.9601 46.6101L68.9599 46.6103L69.9351 47.5195ZM73.2478 47.4038L74.1571 46.4286L74.1569 46.4284L73.2478 47.4038ZM70.0509 50.832L70.9602 49.8569L70.9602 49.8569L70.0509 50.832ZM71.8339 52.4947L70.9245 53.4698L70.9246 53.4699L71.8339 52.4947ZM75.1465 52.3789L76.1216 53.2883L76.1218 53.2881L75.1465 52.3789ZM75.0307 49.0664L74.1214 50.0415L74.1214 50.0416L75.0307 49.0664ZM73.2478 8.84548L72.3384 7.87035L72.3384 7.87041L73.2478 8.84548ZM75.0307 7.18283L74.1214 6.20768L74.1214 6.20769L75.0307 7.18283ZM69.9353 8.72986L68.9602 9.63926L68.9602 9.63926L69.9353 8.72986ZM70.0509 5.41736L70.9602 6.39251L70.9602 6.39249L70.0509 5.41736ZM71.8338 3.7547L72.7432 4.72984L72.7433 4.72969L71.8338 3.7547ZM75.1463 3.87033L76.1214 2.96092V2.96092L75.1463 3.87033ZM31.0416 70L30.5257 71.2295L30.7732 71.3333H31.0416V70ZM48.9653 70V71.3333H49.2338L49.4813 71.2295L48.9653 70ZM53.2847 60.1563H54.6181V58.8229H53.2847V60.1563ZM26.7222 60.1563V58.8229H25.3889V60.1563H26.7222ZM31.4028 74.6875V73.3542H30.0694V74.6875H31.4028ZM48.5903 74.6875H49.9236V73.3542H48.5903V74.6875ZM38.9864 56.3281V2.34951H36.3197V56.3281H38.9864ZM30.6219 57.6614H37.653V54.9948H30.6219V57.6614ZM18.0934 48.2701C19.7063 53.8066 24.7477 57.6614 30.6219 57.6614V54.9948C25.9434 54.9948 21.9379 51.9324 20.6536 47.5242L18.0934 48.2701ZM11.9276 27.1919C4.4778 34.7966 8.82951 47.547 19.1612 49.2135L19.5858 46.5808C11.3631 45.2545 7.91484 35.0987 13.8325 29.058L11.9276 27.1919ZM19.187 7.0323C8.78491 8.6892 4.50062 21.4766 11.9276 29.058L13.8325 27.1919C7.92732 21.1639 11.3334 10.9836 19.6065 9.66577L19.187 7.0323ZM38.4546 1.28404C31.2113 -4.16547 20.7291 -0.710098 18.12 7.96501L20.6736 8.73306C22.7501 1.82911 31.0951 -0.915822 36.8514 3.41497L38.4546 1.28404ZM26.1265 19.1393L26.1267 19.1392L24.9851 16.7293L24.9849 16.7294L26.1265 19.1393ZM22.5801 23.5937C22.5801 22.1781 23.0738 21.3039 23.7013 20.6755C24.3813 19.9945 25.2552 19.5604 26.1357 19.1349L24.9756 16.7338C24.1403 17.1374 22.8597 17.7442 21.8143 18.7913C20.7163 19.8909 19.9135 21.4319 19.9135 23.5937H22.5801ZM23.5905 24.6041C23.0325 24.6041 22.5801 24.1517 22.5801 23.5937H19.9135C19.9135 25.6245 21.5598 27.2708 23.5905 27.2708V24.6041ZM24.601 23.5937C24.601 24.1517 24.1485 24.6041 23.5905 24.6041V27.2708C25.6213 27.2708 27.2676 25.6245 27.2676 23.5937H24.601ZM27.0149 20.9544C26.2426 21.3276 25.6164 21.6464 25.2287 22.0109C24.9755 22.2489 24.7733 22.5449 24.6728 22.9179C24.592 23.2178 24.601 23.5114 24.601 23.5937H27.2676C27.2676 23.5596 27.2676 23.5385 27.2679 23.5201C27.2681 23.5026 27.2685 23.4965 27.2685 23.4969C27.2684 23.4975 27.266 23.5437 27.2477 23.6117C27.2276 23.6862 27.195 23.7633 27.1502 23.8344C27.108 23.9015 27.069 23.9408 27.0551 23.9539C27.0416 23.9665 27.0871 23.9222 27.2922 23.806C27.4865 23.6959 27.7659 23.5532 28.175 23.3555L27.0149 20.9544ZM26.9987 20.9624L26.9986 20.9624L28.1912 23.3475L28.1912 23.3475L26.9987 20.9624ZM31.6322 14.2187C31.6322 16.5746 30.9043 17.9903 30.049 18.9267C29.1515 19.9094 28.0315 20.4632 27.0149 20.9544L28.175 23.3555C29.167 22.8762 30.7323 22.1327 32.0179 20.7252C33.3458 19.2714 34.2989 17.2042 34.2989 14.2187H31.6322ZM30.6218 13.2083C31.1798 13.2083 31.6322 13.6607 31.6322 14.2187H34.2989C34.2989 12.188 32.6525 10.5416 30.6218 10.5416V13.2083ZM29.6114 14.2187C29.6114 13.6607 30.0638 13.2083 30.6218 13.2083V10.5416C28.591 10.5416 26.9447 12.188 26.9447 14.2187H29.6114ZM26.136 19.1348C26.9616 18.7359 27.9297 18.2931 28.6005 17.5257C29.3535 16.6642 29.6114 15.5797 29.6114 14.2187H26.9447C26.9447 15.258 26.7477 15.5934 26.5927 15.7707C26.3555 16.042 25.9626 16.2569 24.9758 16.7337L26.136 19.1348ZM28.0876 39.5549C27.9614 39.9964 27.5579 40.2879 27.1173 40.2879V42.9546C28.7163 42.9546 30.1894 41.9045 30.6516 40.2879L28.0876 39.5549ZM27.3938 38.3053C27.9307 38.4589 28.2411 39.0183 28.0877 39.5547L30.6515 40.288C31.21 38.3354 30.0798 36.3001 28.1273 35.7415L27.3938 38.3053ZM22.0407 34.7088C23.3791 36.411 25.2609 37.6955 27.394 38.3054L28.127 35.7414C26.5405 35.2879 25.1333 34.3277 24.137 33.0605L22.0407 34.7088ZM20.6218 34.5391C21.0608 34.194 21.6958 34.2702 22.0407 34.7088L24.137 33.0606C22.8818 31.4641 20.5703 31.1875 18.9737 32.4427L20.6218 34.5391ZM20.4521 35.9579C20.1071 35.5191 20.1832 34.8839 20.6218 34.5391L18.9736 32.4428C17.3772 33.6979 17.1005 36.0096 18.3558 37.6061L20.4521 35.9579ZM27.1173 40.2879C27.0281 40.2879 26.7179 40.2457 26.1892 40.0664C25.691 39.8975 25.0797 39.6346 24.4171 39.2705C23.0872 38.5398 21.6158 37.4379 20.4521 35.9579L18.3558 37.6061C19.7867 39.426 21.5605 40.7437 23.133 41.6076C23.9215 42.0409 24.6756 42.369 25.3329 42.5919C25.9597 42.8044 26.595 42.9546 27.1173 42.9546V40.2879ZM60.3939 9.66578C68.6627 10.9828 72.0752 21.1617 66.1679 27.1919L68.0728 29.058C75.5033 21.473 71.2093 8.68811 60.8134 7.0323L60.3939 9.66578ZM43.1488 3.41498C48.9054 -0.915951 57.2503 1.82938 59.3268 8.73308L61.8805 7.965C59.2713 -0.709735 48.7893 -4.16565 41.5456 1.28404L43.1488 3.41498ZM43.6806 56.3281V2.34951H41.0139V56.3281H43.6806ZM49.3785 54.9948H42.3472V57.6614H49.3785V54.9948ZM59.3468 47.5242C58.0667 51.9182 54.069 54.9948 49.3785 54.9948V57.6614C55.2689 57.6614 60.2993 53.7883 61.907 48.2701L59.3468 47.5242ZM66.1679 29.058C72.0838 35.0971 68.6408 45.254 60.4146 46.5808L60.8392 49.2135C71.1761 47.5462 75.5197 34.7938 68.0728 27.1919L66.1679 29.058ZM49.3785 10.5416C47.3477 10.5416 45.7014 12.188 45.7014 14.2187H48.3681C48.3681 13.6607 48.8205 13.2083 49.3785 13.2083V10.5416ZM53.0556 14.2187C53.0556 12.188 51.4092 10.5416 49.3785 10.5416V13.2083C49.9365 13.2083 50.3889 13.6607 50.3889 14.2187H53.0556ZM55.0247 16.7338C54.0378 16.257 53.6448 16.0421 53.4076 15.7707C53.2526 15.5933 53.0556 15.2579 53.0556 14.2187H50.3889C50.3889 15.5797 50.6468 16.6642 51.3998 17.5257C52.0706 18.2931 53.0388 18.7359 53.8645 19.1349L55.0247 16.7338ZM60.0868 23.5937C60.0868 21.4319 59.284 19.8909 58.186 18.7913C57.1405 17.7442 55.86 17.1374 55.0246 16.7338L53.8645 19.1349C54.7451 19.5604 55.619 19.9945 56.299 20.6755C56.9265 21.3039 57.4201 22.1781 57.4201 23.5937H60.0868ZM56.4097 27.2708C58.4405 27.2708 60.0868 25.6245 60.0868 23.5937H57.4201C57.4201 24.1517 56.9677 24.6041 56.4097 24.6041V27.2708ZM52.7326 23.5937C52.7326 25.6245 54.379 27.2708 56.4097 27.2708V24.6041C55.8517 24.6041 55.3993 24.1517 55.3993 23.5937H52.7326ZM51.8253 23.3555C52.2344 23.5532 52.5138 23.6959 52.7081 23.806C52.9132 23.9222 52.9586 23.9665 52.9452 23.9539C52.9312 23.9408 52.8922 23.9014 52.85 23.8344C52.8053 23.7633 52.7727 23.6862 52.7526 23.6117C52.7343 23.5437 52.7318 23.4975 52.7318 23.4969C52.7318 23.4965 52.7321 23.5026 52.7324 23.5201C52.7326 23.5385 52.7326 23.5596 52.7326 23.5937H55.3993C55.3993 23.5114 55.4082 23.2178 55.3274 22.9179C55.2269 22.5449 55.0248 22.2489 54.7716 22.0109C54.3838 21.6464 53.7577 21.3276 52.9854 20.9544L51.8253 23.3555ZM45.7014 14.2187C45.7014 17.2042 46.6545 19.2714 47.9823 20.7252C49.268 22.1327 50.8333 22.8762 51.8253 23.3555L52.9854 20.9544C51.9688 20.4632 50.8488 19.9094 49.9513 18.9267C49.096 17.9903 48.3681 16.5746 48.3681 14.2187H45.7014ZM52.883 42.9546C53.3978 42.9546 54.0443 42.8028 54.6917 42.5828C55.3722 42.3515 56.163 42.0069 56.9943 41.5415C58.6532 40.6128 60.5317 39.17 62.0176 37.1108L59.8552 35.5504C58.6429 37.2303 57.0882 38.4328 55.6916 39.2146C54.9952 39.6045 54.3528 39.8815 53.8335 40.058C53.2812 40.2457 52.9617 40.2879 52.883 40.2879V42.9546ZM49.3487 40.288C49.8111 41.9046 51.2839 42.9546 52.883 42.9546V40.2879C52.4424 40.2879 52.039 39.9966 51.9126 39.5547L49.3487 40.288ZM51.8731 35.7416C49.9207 36.3 48.7903 38.3353 49.3487 40.288L51.9126 39.5547C51.7592 39.0184 52.0697 38.459 52.6064 38.3055L51.8731 35.7416ZM56.0542 32.8072C55.0247 34.2337 53.5267 35.2688 51.8731 35.7416L52.6063 38.3055C54.8278 37.6702 56.8322 36.2859 58.2165 34.3677L56.0542 32.8072ZM61.1876 31.9772C59.541 30.789 57.2426 31.1604 56.0541 32.8072L58.2166 34.3677C58.5431 33.9152 59.1747 33.8131 59.6272 34.1396L61.1876 31.9772ZM62.0176 37.1108C63.2061 35.4639 62.8343 33.1658 61.1877 31.9773L59.627 34.1395C60.0798 34.4663 60.1818 35.0979 59.8552 35.5504L62.0176 37.1108ZM8.34842 10.8085C11.6515 10.8085 13.3155 6.73522 10.8567 4.44222L9.03798 6.39246C9.70195 7.01164 9.26407 8.14182 8.34842 8.14182V10.8085ZM5.1189 9.13816C5.8057 9.82252 6.7233 10.8085 8.34842 10.8085V8.14182C8.12633 8.14182 7.98613 8.09145 7.8266 7.98861C7.61355 7.85128 7.39498 7.64161 7.00117 7.2492L5.1189 9.13816ZM4.12435 8.21556C4.49779 8.52038 4.80275 8.82313 5.1189 9.13816L7.00117 7.2492C6.68943 6.93856 6.29905 6.54842 5.81062 6.14974L4.12435 8.21556ZM3.87672 2.96083C2.49166 4.44615 2.57311 6.77276 4.05809 8.15772L5.87689 6.20758C5.46874 5.82692 5.44644 5.18759 5.82701 4.77947L3.87672 2.96083ZM9.0736 2.7793C7.58836 1.39456 5.26164 1.47587 3.87679 2.96075L5.82694 4.77954C6.20739 4.37161 6.84693 4.34918 7.25513 4.72975L9.0736 2.7793ZM10.8567 4.44224L9.07374 2.77943L7.25498 4.72962L9.03795 6.39243L10.8567 4.44224ZM8.4588 28.2882C8.4588 26.2574 6.81247 24.6111 4.78172 24.6111V27.2778C5.33972 27.2778 5.79214 27.7302 5.79214 28.2882H8.4588ZM4.78172 31.9653C6.81247 31.9653 8.4588 30.3189 8.4588 28.2882H5.79214C5.79214 28.8462 5.33972 29.2986 4.78172 29.2986V31.9653ZM2.34375 31.9653H4.78172V29.2986H2.34375V31.9653ZM-1.33333 28.2882C-1.33333 30.3189 0.312995 31.9653 2.34375 31.9653V29.2986C1.78575 29.2986 1.33333 28.8462 1.33333 28.2882H-1.33333ZM2.34375 24.6111C0.312995 24.6111 -1.33333 26.2574 -1.33333 28.2882H1.33333C1.33333 27.7302 1.78575 27.2778 2.34375 27.2778V24.6111ZM4.78172 24.6111H2.34375V27.2778H4.78172V24.6111ZM5.8769 50.0417L7.65987 48.3791L5.8412 46.4288L4.05823 48.0914L5.8769 50.0417ZM5.82694 51.4698C5.44647 51.0618 5.46874 50.4223 5.87689 50.0417L4.05824 48.0914C2.57296 49.4765 2.49179 51.8033 3.87663 53.2884L5.82694 51.4698ZM7.25521 51.5196C6.84696 51.9003 6.20773 51.8781 5.82684 51.4697L3.87672 53.2885C5.26209 54.7739 7.58848 54.8548 9.07368 53.4701L7.25521 51.5196ZM9.03807 49.8571L7.25511 51.5197L9.07378 53.47L10.8567 51.8073L9.03807 49.8571ZM9.08804 48.429C9.46851 48.837 9.44624 49.4765 9.03809 49.8571L10.8567 51.8074C12.342 50.4223 12.4232 48.0955 11.0383 46.6104L9.08804 48.429ZM7.65986 48.3791C8.06791 47.9986 8.70725 48.0207 9.08813 48.4291L11.0383 46.6103C9.65319 45.1252 7.32659 45.0437 5.84121 46.4288L7.65986 48.3791ZM77.6567 24.2847H75.2188V26.9514H77.6567V24.2847ZM81.3338 27.9618C81.3338 25.9311 79.6875 24.2847 77.6567 24.2847V26.9514C78.2147 26.9514 78.6671 27.4038 78.6671 27.9618H81.3338ZM77.6567 31.6389C79.6875 31.6389 81.3338 29.9926 81.3338 27.9618H78.6671C78.6671 28.5198 78.2147 28.9722 77.6567 28.9722V31.6389ZM75.2188 31.6389H77.6567V28.9722H75.2188V31.6389ZM71.5417 27.9618C71.5417 29.9926 73.188 31.6389 75.2188 31.6389V28.9722C74.6608 28.9722 74.2083 28.5198 74.2083 27.9618H71.5417ZM75.2188 24.2847C73.188 24.2847 71.5417 25.9311 71.5417 27.9618H74.2083C74.2083 27.4038 74.6608 26.9514 75.2188 26.9514V24.2847ZM70.9101 48.429C71.2909 48.0208 71.9304 47.9985 72.3386 48.3791L74.1569 46.4284C72.6717 45.044 70.3453 45.1251 68.9601 46.6101L70.9101 48.429ZM70.9602 49.8569C70.5521 49.4763 70.5297 48.837 70.9103 48.4288L68.9599 46.6103C67.5752 48.0955 67.6562 50.4221 69.1416 51.8072L70.9602 49.8569ZM72.7432 51.5196L70.9602 49.8569L69.1416 51.8072L70.9245 53.4698L72.7432 51.5196ZM74.1715 51.4695C73.7912 51.8772 73.1518 51.9005 72.7431 51.5195L70.9246 53.4699C72.4134 54.8579 74.7397 54.77 76.1216 53.2883L74.1715 51.4695ZM74.1214 50.0416C74.5295 50.4221 74.5519 51.0614 74.1713 51.4697L76.1218 53.2881C77.5065 51.8029 77.4254 49.4763 75.9401 48.0913L74.1214 50.0416ZM72.3384 48.3789L74.1214 50.0415L75.9401 48.0913L74.1571 46.4286L72.3384 48.3789ZM74.1571 9.82062L75.9401 8.15796L74.1214 6.20769L72.3384 7.87035L74.1571 9.82062ZM68.9602 9.63926C70.3454 11.1245 72.6722 11.2055 74.1572 9.82056L72.3384 7.87041C71.9305 8.2508 71.2911 8.22868 70.9103 7.82045L68.9602 9.63926ZM69.1416 4.44221C67.6562 5.82725 67.5751 8.15414 68.9602 9.63926L70.9103 7.82046C70.5298 7.41245 70.5521 6.77309 70.9602 6.39251L69.1416 4.44221ZM70.9245 2.77957L69.1415 4.44222L70.9602 6.39249L72.7432 4.72984L70.9245 2.77957ZM76.1214 2.96092C74.7366 1.4761 72.4097 1.39415 70.9244 2.77971L72.7433 4.72969C73.1511 4.34932 73.7905 4.37143 74.1713 4.77973L76.1214 2.96092ZM75.94 8.15797C77.4253 6.77294 77.5065 4.44605 76.1214 2.96092L74.1713 4.77973C74.5518 5.18773 74.5295 5.82709 74.1214 6.20768L75.94 8.15797ZM31.5575 68.7705C29.4991 67.9068 28.0556 65.8732 28.0556 63.5156H25.3889C25.3889 66.9887 27.5156 69.9664 30.5257 71.2295L31.5575 68.7705ZM48.9653 68.6667H31.0416V71.3333H48.9653V68.6667ZM51.9514 63.5156C51.9514 65.8732 50.5078 67.9068 48.4494 68.7705L49.4813 71.2295C52.4913 69.9664 54.6181 66.9887 54.6181 63.5156H51.9514ZM51.9514 60.1563V63.5156H54.6181V60.1563H51.9514ZM26.7222 61.4896H53.2847V58.8229H26.7222V61.4896ZM28.0556 63.5156V60.1563H25.3889V63.5156H28.0556ZM30.0694 77.6563C30.0694 79.6864 31.7164 81.3333 33.7465 81.3333V78.6667C33.1892 78.6667 32.7361 78.2136 32.7361 77.6563H30.0694ZM30.0694 74.6875V77.6563H32.7361V74.6875H30.0694ZM48.5903 73.3542H31.4028V76.0208H48.5903V73.3542ZM49.9236 77.6563V74.6875H47.2569V77.6563H49.9236ZM46.2465 81.3333C48.2767 81.3333 49.9236 79.6864 49.9236 77.6563H47.2569C47.2569 78.2136 46.8039 78.6667 46.2465 78.6667V81.3333ZM33.7465 81.3333H46.2465V78.6667H33.7465V81.3333Z" fill="url(#paint1_radial_5585_48030)" fill-opacity="0.6" mask="url(#path-1-inside-1_5585_48030)"/>
      <path d="M37.653 56.3281V57.6614H38.9864V56.3281H37.653ZM37.653 2.34951H38.9864V1.68409L38.4546 1.28404L37.653 2.34951ZM19.3735 47.8972L20.6536 47.5242L20.4179 46.715L19.5858 46.5808L19.3735 47.8972ZM12.8801 28.125L13.8325 29.058L14.7466 28.125L13.8325 27.1919L12.8801 28.125ZM19.3968 8.34904L19.6065 9.66577L20.4327 9.53418L20.6736 8.73306L19.3968 8.34904ZM25.5557 17.9344L24.9849 16.7293L24.9756 16.7338L25.5557 17.9344ZM25.5559 17.9342L26.1267 19.1393L26.136 19.1348L25.5559 17.9342ZM27.5949 22.155L28.175 23.3555L28.1831 23.3516L28.1912 23.3475L27.5949 22.155ZM27.5949 22.155L27.0149 20.9544L27.0067 20.9584L26.9987 20.9624L27.5949 22.155ZM29.3696 39.9214L28.0877 39.5547L28.0876 39.5549L29.3696 39.9214ZM27.7605 37.0234L28.1273 35.7415L28.127 35.7414L27.7605 37.0234ZM23.0888 33.8847L22.0407 34.7088L22.0407 34.7088L23.0888 33.8847ZM19.7977 33.4909L18.9737 32.4427L18.9736 32.4428L19.7977 33.4909ZM19.404 36.782L20.4521 35.9579L20.4521 35.9579L19.404 36.782ZM60.6036 8.34904L59.3268 8.73308L59.5678 9.53419L60.3939 9.66578L60.6036 8.34904ZM67.1203 28.125L66.1679 27.1919L65.2538 28.125L66.1679 29.058L67.1203 28.125ZM42.3472 2.34951L41.5456 1.28404L41.0139 1.68409V2.34951H42.3472ZM42.3472 56.3281H41.0139V57.6614H42.3472V56.3281ZM60.6269 47.8972L60.4146 46.5808L59.5825 46.715L59.3468 47.5242L60.6269 47.8972ZM54.4446 17.9344L53.8645 19.1349L53.8645 19.1349L54.4446 17.9344ZM52.4053 22.155L51.8253 23.3555L52.4053 22.155ZM60.9364 36.3306L62.0176 37.1108H62.0176L60.9364 36.3306ZM50.6307 39.9214L49.3487 40.288L49.3487 40.288L50.6307 39.9214ZM52.2397 37.0236L51.8731 35.7416L51.8731 35.7416L52.2397 37.0236ZM57.1353 33.5875L58.2165 34.3677L58.2166 34.3677L57.1353 33.5875ZM60.4074 33.0584L61.1877 31.9773L61.1876 31.9772L60.4074 33.0584ZM9.94733 5.41734L9.03795 6.39243L9.03798 6.39246L9.94733 5.41734ZM6.06004 8.19368L5.1189 9.13816L5.1189 9.13816L6.06004 8.19368ZM4.96749 7.18265L4.05809 8.15772L4.09027 8.18773L4.12435 8.21556L4.96749 7.18265ZM4.85186 3.87015L3.87679 2.96075L3.87672 2.96083L4.85186 3.87015ZM8.16436 3.75452L9.07374 2.77943L9.0736 2.7793L8.16436 3.75452ZM4.96757 49.0666L5.87689 50.0417L5.8769 50.0417L4.96757 49.0666ZM6.75054 47.4039L5.84121 46.4288L5.8412 46.4288L6.75054 47.4039ZM4.85178 52.3791L3.87663 53.2884L3.87672 53.2885L4.85178 52.3791ZM8.16444 52.4949L9.07368 53.4701L9.07378 53.47L8.16444 52.4949ZM9.94741 50.8322L9.03809 49.8571L9.03807 49.8571L9.94741 50.8322ZM10.0632 47.5197L11.0383 46.6104L11.0383 46.6103L10.0632 47.5197ZM69.9351 47.5195L68.9601 46.6101L68.9599 46.6103L69.9351 47.5195ZM73.2478 47.4038L74.1571 46.4286L74.1569 46.4284L73.2478 47.4038ZM70.0509 50.832L70.9602 49.8569L70.9602 49.8569L70.0509 50.832ZM71.8339 52.4947L70.9245 53.4698L70.9246 53.4699L71.8339 52.4947ZM75.1465 52.3789L76.1216 53.2883L76.1218 53.2881L75.1465 52.3789ZM75.0307 49.0664L74.1214 50.0415L74.1214 50.0416L75.0307 49.0664ZM73.2478 8.84548L72.3384 7.87035L72.3384 7.87041L73.2478 8.84548ZM75.0307 7.18283L74.1214 6.20768L74.1214 6.20769L75.0307 7.18283ZM69.9353 8.72986L68.9602 9.63926L68.9602 9.63926L69.9353 8.72986ZM70.0509 5.41736L70.9602 6.39251L70.9602 6.39249L70.0509 5.41736ZM71.8338 3.7547L72.7432 4.72984L72.7433 4.72969L71.8338 3.7547ZM75.1463 3.87033L76.1214 2.96092V2.96092L75.1463 3.87033ZM31.0416 70L30.5257 71.2295L30.7732 71.3333H31.0416V70ZM48.9653 70V71.3333H49.2338L49.4813 71.2295L48.9653 70ZM53.2847 60.1563H54.6181V58.8229H53.2847V60.1563ZM26.7222 60.1563V58.8229H25.3889V60.1563H26.7222ZM31.4028 74.6875V73.3542H30.0694V74.6875H31.4028ZM48.5903 74.6875H49.9236V73.3542H48.5903V74.6875ZM38.9864 56.3281V2.34951H36.3197V56.3281H38.9864ZM30.6219 57.6614H37.653V54.9948H30.6219V57.6614ZM18.0934 48.2701C19.7063 53.8066 24.7477 57.6614 30.6219 57.6614V54.9948C25.9434 54.9948 21.9379 51.9324 20.6536 47.5242L18.0934 48.2701ZM11.9276 27.1919C4.4778 34.7966 8.82951 47.547 19.1612 49.2135L19.5858 46.5808C11.3631 45.2545 7.91484 35.0987 13.8325 29.058L11.9276 27.1919ZM19.187 7.0323C8.78491 8.6892 4.50062 21.4766 11.9276 29.058L13.8325 27.1919C7.92732 21.1639 11.3334 10.9836 19.6065 9.66577L19.187 7.0323ZM38.4546 1.28404C31.2113 -4.16547 20.7291 -0.710098 18.12 7.96501L20.6736 8.73306C22.7501 1.82911 31.0951 -0.915822 36.8514 3.41497L38.4546 1.28404ZM26.1265 19.1393L26.1267 19.1392L24.9851 16.7293L24.9849 16.7294L26.1265 19.1393ZM22.5801 23.5937C22.5801 22.1781 23.0738 21.3039 23.7013 20.6755C24.3813 19.9945 25.2552 19.5604 26.1357 19.1349L24.9756 16.7338C24.1403 17.1374 22.8597 17.7442 21.8143 18.7913C20.7163 19.8909 19.9135 21.4319 19.9135 23.5937H22.5801ZM23.5905 24.6041C23.0325 24.6041 22.5801 24.1517 22.5801 23.5937H19.9135C19.9135 25.6245 21.5598 27.2708 23.5905 27.2708V24.6041ZM24.601 23.5937C24.601 24.1517 24.1485 24.6041 23.5905 24.6041V27.2708C25.6213 27.2708 27.2676 25.6245 27.2676 23.5937H24.601ZM27.0149 20.9544C26.2426 21.3276 25.6164 21.6464 25.2287 22.0109C24.9755 22.2489 24.7733 22.5449 24.6728 22.9179C24.592 23.2178 24.601 23.5114 24.601 23.5937H27.2676C27.2676 23.5596 27.2676 23.5385 27.2679 23.5201C27.2681 23.5026 27.2685 23.4965 27.2685 23.4969C27.2684 23.4975 27.266 23.5437 27.2477 23.6117C27.2276 23.6862 27.195 23.7633 27.1502 23.8344C27.108 23.9015 27.069 23.9408 27.0551 23.9539C27.0416 23.9665 27.0871 23.9222 27.2922 23.806C27.4865 23.6959 27.7659 23.5532 28.175 23.3555L27.0149 20.9544ZM26.9987 20.9624L26.9986 20.9624L28.1912 23.3475L28.1912 23.3475L26.9987 20.9624ZM31.6322 14.2187C31.6322 16.5746 30.9043 17.9903 30.049 18.9267C29.1515 19.9094 28.0315 20.4632 27.0149 20.9544L28.175 23.3555C29.167 22.8762 30.7323 22.1327 32.0179 20.7252C33.3458 19.2714 34.2989 17.2042 34.2989 14.2187H31.6322ZM30.6218 13.2083C31.1798 13.2083 31.6322 13.6607 31.6322 14.2187H34.2989C34.2989 12.188 32.6525 10.5416 30.6218 10.5416V13.2083ZM29.6114 14.2187C29.6114 13.6607 30.0638 13.2083 30.6218 13.2083V10.5416C28.591 10.5416 26.9447 12.188 26.9447 14.2187H29.6114ZM26.136 19.1348C26.9616 18.7359 27.9297 18.2931 28.6005 17.5257C29.3535 16.6642 29.6114 15.5797 29.6114 14.2187H26.9447C26.9447 15.258 26.7477 15.5934 26.5927 15.7707C26.3555 16.042 25.9626 16.2569 24.9758 16.7337L26.136 19.1348ZM28.0876 39.5549C27.9614 39.9964 27.5579 40.2879 27.1173 40.2879V42.9546C28.7163 42.9546 30.1894 41.9045 30.6516 40.2879L28.0876 39.5549ZM27.3938 38.3053C27.9307 38.4589 28.2411 39.0183 28.0877 39.5547L30.6515 40.288C31.21 38.3354 30.0798 36.3001 28.1273 35.7415L27.3938 38.3053ZM22.0407 34.7088C23.3791 36.411 25.2609 37.6955 27.394 38.3054L28.127 35.7414C26.5405 35.2879 25.1333 34.3277 24.137 33.0605L22.0407 34.7088ZM20.6218 34.5391C21.0608 34.194 21.6958 34.2702 22.0407 34.7088L24.137 33.0606C22.8818 31.4641 20.5703 31.1875 18.9737 32.4427L20.6218 34.5391ZM20.4521 35.9579C20.1071 35.5191 20.1832 34.8839 20.6218 34.5391L18.9736 32.4428C17.3772 33.6979 17.1005 36.0096 18.3558 37.6061L20.4521 35.9579ZM27.1173 40.2879C27.0281 40.2879 26.7179 40.2457 26.1892 40.0664C25.691 39.8975 25.0797 39.6346 24.4171 39.2705C23.0872 38.5398 21.6158 37.4379 20.4521 35.9579L18.3558 37.6061C19.7867 39.426 21.5605 40.7437 23.133 41.6076C23.9215 42.0409 24.6756 42.369 25.3329 42.5919C25.9597 42.8044 26.595 42.9546 27.1173 42.9546V40.2879ZM60.3939 9.66578C68.6627 10.9828 72.0752 21.1617 66.1679 27.1919L68.0728 29.058C75.5033 21.473 71.2093 8.68811 60.8134 7.0323L60.3939 9.66578ZM43.1488 3.41498C48.9054 -0.915951 57.2503 1.82938 59.3268 8.73308L61.8805 7.965C59.2713 -0.709735 48.7893 -4.16565 41.5456 1.28404L43.1488 3.41498ZM43.6806 56.3281V2.34951H41.0139V56.3281H43.6806ZM49.3785 54.9948H42.3472V57.6614H49.3785V54.9948ZM59.3468 47.5242C58.0667 51.9182 54.069 54.9948 49.3785 54.9948V57.6614C55.2689 57.6614 60.2993 53.7883 61.907 48.2701L59.3468 47.5242ZM66.1679 29.058C72.0838 35.0971 68.6408 45.254 60.4146 46.5808L60.8392 49.2135C71.1761 47.5462 75.5197 34.7938 68.0728 27.1919L66.1679 29.058ZM49.3785 10.5416C47.3477 10.5416 45.7014 12.188 45.7014 14.2187H48.3681C48.3681 13.6607 48.8205 13.2083 49.3785 13.2083V10.5416ZM53.0556 14.2187C53.0556 12.188 51.4092 10.5416 49.3785 10.5416V13.2083C49.9365 13.2083 50.3889 13.6607 50.3889 14.2187H53.0556ZM55.0247 16.7338C54.0378 16.257 53.6448 16.0421 53.4076 15.7707C53.2526 15.5933 53.0556 15.2579 53.0556 14.2187H50.3889C50.3889 15.5797 50.6468 16.6642 51.3998 17.5257C52.0706 18.2931 53.0388 18.7359 53.8645 19.1349L55.0247 16.7338ZM60.0868 23.5937C60.0868 21.4319 59.284 19.8909 58.186 18.7913C57.1405 17.7442 55.86 17.1374 55.0246 16.7338L53.8645 19.1349C54.7451 19.5604 55.619 19.9945 56.299 20.6755C56.9265 21.3039 57.4201 22.1781 57.4201 23.5937H60.0868ZM56.4097 27.2708C58.4405 27.2708 60.0868 25.6245 60.0868 23.5937H57.4201C57.4201 24.1517 56.9677 24.6041 56.4097 24.6041V27.2708ZM52.7326 23.5937C52.7326 25.6245 54.379 27.2708 56.4097 27.2708V24.6041C55.8517 24.6041 55.3993 24.1517 55.3993 23.5937H52.7326ZM51.8253 23.3555C52.2344 23.5532 52.5138 23.6959 52.7081 23.806C52.9132 23.9222 52.9586 23.9665 52.9452 23.9539C52.9312 23.9408 52.8922 23.9014 52.85 23.8344C52.8053 23.7633 52.7727 23.6862 52.7526 23.6117C52.7343 23.5437 52.7318 23.4975 52.7318 23.4969C52.7318 23.4965 52.7321 23.5026 52.7324 23.5201C52.7326 23.5385 52.7326 23.5596 52.7326 23.5937H55.3993C55.3993 23.5114 55.4082 23.2178 55.3274 22.9179C55.2269 22.5449 55.0248 22.2489 54.7716 22.0109C54.3838 21.6464 53.7577 21.3276 52.9854 20.9544L51.8253 23.3555ZM45.7014 14.2187C45.7014 17.2042 46.6545 19.2714 47.9823 20.7252C49.268 22.1327 50.8333 22.8762 51.8253 23.3555L52.9854 20.9544C51.9688 20.4632 50.8488 19.9094 49.9513 18.9267C49.096 17.9903 48.3681 16.5746 48.3681 14.2187H45.7014ZM52.883 42.9546C53.3978 42.9546 54.0443 42.8028 54.6917 42.5828C55.3722 42.3515 56.163 42.0069 56.9943 41.5415C58.6532 40.6128 60.5317 39.17 62.0176 37.1108L59.8552 35.5504C58.6429 37.2303 57.0882 38.4328 55.6916 39.2146C54.9952 39.6045 54.3528 39.8815 53.8335 40.058C53.2812 40.2457 52.9617 40.2879 52.883 40.2879V42.9546ZM49.3487 40.288C49.8111 41.9046 51.2839 42.9546 52.883 42.9546V40.2879C52.4424 40.2879 52.039 39.9966 51.9126 39.5547L49.3487 40.288ZM51.8731 35.7416C49.9207 36.3 48.7903 38.3353 49.3487 40.288L51.9126 39.5547C51.7592 39.0184 52.0697 38.459 52.6064 38.3055L51.8731 35.7416ZM56.0542 32.8072C55.0247 34.2337 53.5267 35.2688 51.8731 35.7416L52.6063 38.3055C54.8278 37.6702 56.8322 36.2859 58.2165 34.3677L56.0542 32.8072ZM61.1876 31.9772C59.541 30.789 57.2426 31.1604 56.0541 32.8072L58.2166 34.3677C58.5431 33.9152 59.1747 33.8131 59.6272 34.1396L61.1876 31.9772ZM62.0176 37.1108C63.2061 35.4639 62.8343 33.1658 61.1877 31.9773L59.627 34.1395C60.0798 34.4663 60.1818 35.0979 59.8552 35.5504L62.0176 37.1108ZM8.34842 10.8085C11.6515 10.8085 13.3155 6.73522 10.8567 4.44222L9.03798 6.39246C9.70195 7.01164 9.26407 8.14182 8.34842 8.14182V10.8085ZM5.1189 9.13816C5.8057 9.82252 6.7233 10.8085 8.34842 10.8085V8.14182C8.12633 8.14182 7.98613 8.09145 7.8266 7.98861C7.61355 7.85128 7.39498 7.64161 7.00117 7.2492L5.1189 9.13816ZM4.12435 8.21556C4.49779 8.52038 4.80275 8.82313 5.1189 9.13816L7.00117 7.2492C6.68943 6.93856 6.29905 6.54842 5.81062 6.14974L4.12435 8.21556ZM3.87672 2.96083C2.49166 4.44615 2.57311 6.77276 4.05809 8.15772L5.87689 6.20758C5.46874 5.82692 5.44644 5.18759 5.82701 4.77947L3.87672 2.96083ZM9.0736 2.7793C7.58836 1.39456 5.26164 1.47587 3.87679 2.96075L5.82694 4.77954C6.20739 4.37161 6.84693 4.34918 7.25513 4.72975L9.0736 2.7793ZM10.8567 4.44224L9.07374 2.77943L7.25498 4.72962L9.03795 6.39243L10.8567 4.44224ZM8.4588 28.2882C8.4588 26.2574 6.81247 24.6111 4.78172 24.6111V27.2778C5.33972 27.2778 5.79214 27.7302 5.79214 28.2882H8.4588ZM4.78172 31.9653C6.81247 31.9653 8.4588 30.3189 8.4588 28.2882H5.79214C5.79214 28.8462 5.33972 29.2986 4.78172 29.2986V31.9653ZM2.34375 31.9653H4.78172V29.2986H2.34375V31.9653ZM-1.33333 28.2882C-1.33333 30.3189 0.312995 31.9653 2.34375 31.9653V29.2986C1.78575 29.2986 1.33333 28.8462 1.33333 28.2882H-1.33333ZM2.34375 24.6111C0.312995 24.6111 -1.33333 26.2574 -1.33333 28.2882H1.33333C1.33333 27.7302 1.78575 27.2778 2.34375 27.2778V24.6111ZM4.78172 24.6111H2.34375V27.2778H4.78172V24.6111ZM5.8769 50.0417L7.65987 48.3791L5.8412 46.4288L4.05823 48.0914L5.8769 50.0417ZM5.82694 51.4698C5.44647 51.0618 5.46874 50.4223 5.87689 50.0417L4.05824 48.0914C2.57296 49.4765 2.49179 51.8033 3.87663 53.2884L5.82694 51.4698ZM7.25521 51.5196C6.84696 51.9003 6.20773 51.8781 5.82684 51.4697L3.87672 53.2885C5.26209 54.7739 7.58848 54.8548 9.07368 53.4701L7.25521 51.5196ZM9.03807 49.8571L7.25511 51.5197L9.07378 53.47L10.8567 51.8073L9.03807 49.8571ZM9.08804 48.429C9.46851 48.837 9.44624 49.4765 9.03809 49.8571L10.8567 51.8074C12.342 50.4223 12.4232 48.0955 11.0383 46.6104L9.08804 48.429ZM7.65986 48.3791C8.06791 47.9986 8.70725 48.0207 9.08813 48.4291L11.0383 46.6103C9.65319 45.1252 7.32659 45.0437 5.84121 46.4288L7.65986 48.3791ZM77.6567 24.2847H75.2188V26.9514H77.6567V24.2847ZM81.3338 27.9618C81.3338 25.9311 79.6875 24.2847 77.6567 24.2847V26.9514C78.2147 26.9514 78.6671 27.4038 78.6671 27.9618H81.3338ZM77.6567 31.6389C79.6875 31.6389 81.3338 29.9926 81.3338 27.9618H78.6671C78.6671 28.5198 78.2147 28.9722 77.6567 28.9722V31.6389ZM75.2188 31.6389H77.6567V28.9722H75.2188V31.6389ZM71.5417 27.9618C71.5417 29.9926 73.188 31.6389 75.2188 31.6389V28.9722C74.6608 28.9722 74.2083 28.5198 74.2083 27.9618H71.5417ZM75.2188 24.2847C73.188 24.2847 71.5417 25.9311 71.5417 27.9618H74.2083C74.2083 27.4038 74.6608 26.9514 75.2188 26.9514V24.2847ZM70.9101 48.429C71.2909 48.0208 71.9304 47.9985 72.3386 48.3791L74.1569 46.4284C72.6717 45.044 70.3453 45.1251 68.9601 46.6101L70.9101 48.429ZM70.9602 49.8569C70.5521 49.4763 70.5297 48.837 70.9103 48.4288L68.9599 46.6103C67.5752 48.0955 67.6562 50.4221 69.1416 51.8072L70.9602 49.8569ZM72.7432 51.5196L70.9602 49.8569L69.1416 51.8072L70.9245 53.4698L72.7432 51.5196ZM74.1715 51.4695C73.7912 51.8772 73.1518 51.9005 72.7431 51.5195L70.9246 53.4699C72.4134 54.8579 74.7397 54.77 76.1216 53.2883L74.1715 51.4695ZM74.1214 50.0416C74.5295 50.4221 74.5519 51.0614 74.1713 51.4697L76.1218 53.2881C77.5065 51.8029 77.4254 49.4763 75.9401 48.0913L74.1214 50.0416ZM72.3384 48.3789L74.1214 50.0415L75.9401 48.0913L74.1571 46.4286L72.3384 48.3789ZM74.1571 9.82062L75.9401 8.15796L74.1214 6.20769L72.3384 7.87035L74.1571 9.82062ZM68.9602 9.63926C70.3454 11.1245 72.6722 11.2055 74.1572 9.82056L72.3384 7.87041C71.9305 8.2508 71.2911 8.22868 70.9103 7.82045L68.9602 9.63926ZM69.1416 4.44221C67.6562 5.82725 67.5751 8.15414 68.9602 9.63926L70.9103 7.82046C70.5298 7.41245 70.5521 6.77309 70.9602 6.39251L69.1416 4.44221ZM70.9245 2.77957L69.1415 4.44222L70.9602 6.39249L72.7432 4.72984L70.9245 2.77957ZM76.1214 2.96092C74.7366 1.4761 72.4097 1.39415 70.9244 2.77971L72.7433 4.72969C73.1511 4.34932 73.7905 4.37143 74.1713 4.77973L76.1214 2.96092ZM75.94 8.15797C77.4253 6.77294 77.5065 4.44605 76.1214 2.96092L74.1713 4.77973C74.5518 5.18773 74.5295 5.82709 74.1214 6.20768L75.94 8.15797ZM31.5575 68.7705C29.4991 67.9068 28.0556 65.8732 28.0556 63.5156H25.3889C25.3889 66.9887 27.5156 69.9664 30.5257 71.2295L31.5575 68.7705ZM48.9653 68.6667H31.0416V71.3333H48.9653V68.6667ZM51.9514 63.5156C51.9514 65.8732 50.5078 67.9068 48.4494 68.7705L49.4813 71.2295C52.4913 69.9664 54.6181 66.9887 54.6181 63.5156H51.9514ZM51.9514 60.1563V63.5156H54.6181V60.1563H51.9514ZM26.7222 61.4896H53.2847V58.8229H26.7222V61.4896ZM28.0556 63.5156V60.1563H25.3889V63.5156H28.0556ZM30.0694 77.6563C30.0694 79.6864 31.7164 81.3333 33.7465 81.3333V78.6667C33.1892 78.6667 32.7361 78.2136 32.7361 77.6563H30.0694ZM30.0694 74.6875V77.6563H32.7361V74.6875H30.0694ZM48.5903 73.3542H31.4028V76.0208H48.5903V73.3542ZM49.9236 77.6563V74.6875H47.2569V77.6563H49.9236ZM46.2465 81.3333C48.2767 81.3333 49.9236 79.6864 49.9236 77.6563H47.2569C47.2569 78.2136 46.8039 78.6667 46.2465 78.6667V81.3333ZM33.7465 81.3333H46.2465V78.6667H33.7465V81.3333Z" fill="url(#paint2_radial_5585_48030)" fill-opacity="0.3" mask="url(#path-1-inside-1_5585_48030)"/>
    </g>
  </g>
  <defs>
    <filter id="filter0_bd_5585_48030" x="-666.667" y="-666.667" width="1413.33" height="1413.33" filterUnits="userSpaceOnUse" color-interpolation-filters="sRGB">
      <feFlood flood-opacity="0" result="BackgroundImageFix"/>
      <feGaussianBlur in="BackgroundImageFix" stdDeviation="333.333"/>
      <feComposite in2="SourceAlpha" operator="in" result="effect1_backgroundBlur_5585_48030"/>
      <feColorMatrix in="SourceAlpha" type="matrix" values="0 0 0 0 0 0 0 0 0 0 0 0 0 0 0 0 0 0 127 0" result="hardAlpha"/>
      <feOffset dy="2.66667"/>
      <feGaussianBlur stdDeviation="1.33333"/>
      <feComposite in2="hardAlpha" operator="out"/>
      <feColorMatrix type="matrix" values="0 0 0 0 0 0 0 0 0 0 0 0 0 0 0 0 0 0 0.25 0"/>
      <feBlend mode="normal" in2="effect1_backgroundBlur_5585_48030" result="effect2_dropShadow_5585_48030"/>
      <feBlend mode="normal" in="SourceGraphic" in2="effect2_dropShadow_5585_48030" result="shape"/>
    </filter>
    <linearGradient id="paint0_linear_5585_48030" x1="3.30099" y1="2.06061" x2="40.9964" y2="98.854" gradientUnits="userSpaceOnUse">
      <stop stop-color="white" stop-opacity="0.8"/>
      <stop offset="1" stop-color="white" stop-opacity="0.2"/>
    </linearGradient>
    <radialGradient id="paint1_radial_5585_48030" cx="0" cy="0" r="1" gradientUnits="userSpaceOnUse" gradientTransform="translate(40.0002 0.727274) rotate(90) scale(69.4545 69.4549)">
      <stop stop-color="white"/>
      <stop offset="1" stop-color="white" stop-opacity="0"/>
    </radialGradient>
    <radialGradient id="paint2_radial_5585_48030" cx="0" cy="0" r="1" gradientUnits="userSpaceOnUse" gradientTransform="translate(40.0002 80) rotate(-90) scale(40 40.0002)">
      <stop stop-color="white"/>
      <stop offset="1" stop-color="white" stop-opacity="0"/>
    </radialGradient>
    <clipPath id="clip0_5585_48030">
      <rect width="80" height="80" fill="white"/>
    </clipPath>
  </defs>
</svg>
