<svg xmlns="http://www.w3.org/2000/svg" width="80" height="80" viewBox="0 0 80 80" fill="none">
  <g clip-path="url(#clip0_5280_257510)">
    <g filter="url(#filter0_bd_5280_257510)">
      <mask id="path-1-inside-1_5280_257510" fill="white">
        <path fill-rule="evenodd" clip-rule="evenodd" d="M26.8594 0H31.5469V9.375H26.8594V0ZM12.6328 7.83594L15.9465 4.52221L22.5762 11.1519L19.2625 14.4656L12.6328 7.83594ZM42.4578 4.52463L35.8281 11.1543L39.1419 14.468L45.7715 7.83836L42.4578 4.52463ZM64.7363 44.2002C62.8982 45.8879 60.0114 45.811 58.2265 44.0625C56.3434 42.1842 56.4446 39.2319 58.2241 37.4523L61.5521 34.1244C63.3091 32.3722 66.4463 32.3626 68.208 34.1244C70.0209 35.937 70.0185 38.9239 68.208 40.7826L65.1043 43.8415C66.7747 42.3747 69.8261 42.4022 71.4853 44.0614C73.3136 45.8897 73.3153 48.8873 71.4877 50.715L68.2031 53.9995C66.3639 55.8387 63.3664 55.8187 61.5472 53.9995C59.7236 52.1759 59.7241 49.2125 61.5472 47.3894L64.7363 44.2002ZM64.8778 24.1883C63.2501 22.4699 59.9587 22.4515 58.2218 24.1883L54.942 27.514C53.1154 29.3405 53.1115 32.2958 54.9396 34.1241C56.7664 35.9508 59.7181 35.9558 61.5498 34.1241L64.88 30.794C66.6857 28.9882 66.7293 26.0399 64.8778 24.1883ZM55.8816 48.1682C55.653 48.9848 55.4942 49.8243 55.4942 50.6957C55.4942 53.1974 56.467 55.548 58.2339 57.3151C59.1583 58.2395 60.2489 58.9334 61.4334 59.3982L55.1898 65.6418C52.5875 68.2465 48.8567 69.4412 45.2541 68.9216L34.2048 80.0007L11.0145 56.8127L18.7358 49.0616C21.4778 46.3173 21.4778 41.8563 18.7358 39.1121L7.14062 27.517L12.1256 22.5319C14.8631 19.7945 19.3125 19.7945 22.05 22.5319L30.3309 30.8105L60.5914 1.96633C62.4328 0.124919 65.4136 0.178982 67.2009 1.96633C69.0383 3.80367 68.9885 6.77538 67.2127 8.56403C66.4062 9.37306 52.0723 23.7523 51.6258 24.2002C49.8566 25.9694 48.8816 28.3201 48.8816 30.8195C48.8816 33.321 49.8544 35.6716 51.6236 37.4387C51.8591 37.6741 52.1193 37.8723 52.3797 38.0705C52.439 38.1157 52.4982 38.1608 52.5572 38.2063C52.3234 39.0304 52.1616 39.8779 52.1616 40.7576C52.1616 43.2593 53.1389 45.6121 54.9425 47.4112C55.1792 47.6431 55.4408 47.8385 55.7024 48.0338C55.7622 48.0785 55.822 48.1231 55.8816 48.1682Z"/>
      </mask>
      <path fill-rule="evenodd" clip-rule="evenodd" d="M26.8594 0H31.5469V9.375H26.8594V0ZM12.6328 7.83594L15.9465 4.52221L22.5762 11.1519L19.2625 14.4656L12.6328 7.83594ZM42.4578 4.52463L35.8281 11.1543L39.1419 14.468L45.7715 7.83836L42.4578 4.52463ZM64.7363 44.2002C62.8982 45.8879 60.0114 45.811 58.2265 44.0625C56.3434 42.1842 56.4446 39.2319 58.2241 37.4523L61.5521 34.1244C63.3091 32.3722 66.4463 32.3626 68.208 34.1244C70.0209 35.937 70.0185 38.9239 68.208 40.7826L65.1043 43.8415C66.7747 42.3747 69.8261 42.4022 71.4853 44.0614C73.3136 45.8897 73.3153 48.8873 71.4877 50.715L68.2031 53.9995C66.3639 55.8387 63.3664 55.8187 61.5472 53.9995C59.7236 52.1759 59.7241 49.2125 61.5472 47.3894L64.7363 44.2002ZM64.8778 24.1883C63.2501 22.4699 59.9587 22.4515 58.2218 24.1883L54.942 27.514C53.1154 29.3405 53.1115 32.2958 54.9396 34.1241C56.7664 35.9508 59.7181 35.9558 61.5498 34.1241L64.88 30.794C66.6857 28.9882 66.7293 26.0399 64.8778 24.1883ZM55.8816 48.1682C55.653 48.9848 55.4942 49.8243 55.4942 50.6957C55.4942 53.1974 56.467 55.548 58.2339 57.3151C59.1583 58.2395 60.2489 58.9334 61.4334 59.3982L55.1898 65.6418C52.5875 68.2465 48.8567 69.4412 45.2541 68.9216L34.2048 80.0007L11.0145 56.8127L18.7358 49.0616C21.4778 46.3173 21.4778 41.8563 18.7358 39.1121L7.14062 27.517L12.1256 22.5319C14.8631 19.7945 19.3125 19.7945 22.05 22.5319L30.3309 30.8105L60.5914 1.96633C62.4328 0.124919 65.4136 0.178982 67.2009 1.96633C69.0383 3.80367 68.9885 6.77538 67.2127 8.56403C66.4062 9.37306 52.0723 23.7523 51.6258 24.2002C49.8566 25.9694 48.8816 28.3201 48.8816 30.8195C48.8816 33.321 49.8544 35.6716 51.6236 37.4387C51.8591 37.6741 52.1193 37.8723 52.3797 38.0705C52.439 38.1157 52.4982 38.1608 52.5572 38.2063C52.3234 39.0304 52.1616 39.8779 52.1616 40.7576C52.1616 43.2593 53.1389 45.6121 54.9425 47.4112C55.1792 47.6431 55.4408 47.8385 55.7024 48.0338C55.7622 48.0785 55.822 48.1231 55.8816 48.1682Z" fill="url(#paint0_linear_5280_257510)" shape-rendering="crispEdges"/>
      <path fill-rule="evenodd" clip-rule="evenodd" d="M26.8594 0H31.5469V9.375H26.8594V0ZM12.6328 7.83594L15.9465 4.52221L22.5762 11.1519L19.2625 14.4656L12.6328 7.83594ZM42.4578 4.52463L35.8281 11.1543L39.1419 14.468L45.7715 7.83836L42.4578 4.52463ZM64.7363 44.2002C62.8982 45.8879 60.0114 45.811 58.2265 44.0625C56.3434 42.1842 56.4446 39.2319 58.2241 37.4523L61.5521 34.1244C63.3091 32.3722 66.4463 32.3626 68.208 34.1244C70.0209 35.937 70.0185 38.9239 68.208 40.7826L65.1043 43.8415C66.7747 42.3747 69.8261 42.4022 71.4853 44.0614C73.3136 45.8897 73.3153 48.8873 71.4877 50.715L68.2031 53.9995C66.3639 55.8387 63.3664 55.8187 61.5472 53.9995C59.7236 52.1759 59.7241 49.2125 61.5472 47.3894L64.7363 44.2002ZM64.8778 24.1883C63.2501 22.4699 59.9587 22.4515 58.2218 24.1883L54.942 27.514C53.1154 29.3405 53.1115 32.2958 54.9396 34.1241C56.7664 35.9508 59.7181 35.9558 61.5498 34.1241L64.88 30.794C66.6857 28.9882 66.7293 26.0399 64.8778 24.1883ZM55.8816 48.1682C55.653 48.9848 55.4942 49.8243 55.4942 50.6957C55.4942 53.1974 56.467 55.548 58.2339 57.3151C59.1583 58.2395 60.2489 58.9334 61.4334 59.3982L55.1898 65.6418C52.5875 68.2465 48.8567 69.4412 45.2541 68.9216L34.2048 80.0007L11.0145 56.8127L18.7358 49.0616C21.4778 46.3173 21.4778 41.8563 18.7358 39.1121L7.14062 27.517L12.1256 22.5319C14.8631 19.7945 19.3125 19.7945 22.05 22.5319L30.3309 30.8105L60.5914 1.96633C62.4328 0.124919 65.4136 0.178982 67.2009 1.96633C69.0383 3.80367 68.9885 6.77538 67.2127 8.56403C66.4062 9.37306 52.0723 23.7523 51.6258 24.2002C49.8566 25.9694 48.8816 28.3201 48.8816 30.8195C48.8816 33.321 49.8544 35.6716 51.6236 37.4387C51.8591 37.6741 52.1193 37.8723 52.3797 38.0705C52.439 38.1157 52.4982 38.1608 52.5572 38.2063C52.3234 39.0304 52.1616 39.8779 52.1616 40.7576C52.1616 43.2593 53.1389 45.6121 54.9425 47.4112C55.1792 47.6431 55.4408 47.8385 55.7024 48.0338C55.7622 48.0785 55.822 48.1231 55.8816 48.1682Z" fill="#344254" fill-opacity="0.15" shape-rendering="crispEdges"/>
      <path d="M31.5469 0H32.8802V-1.33333H31.5469V0ZM26.8594 0V-1.33333H25.526V0H26.8594ZM31.5469 9.375V10.7083H32.8802V9.375H31.5469ZM26.8594 9.375H25.526V10.7083H26.8594V9.375ZM15.9465 4.52221L16.8894 3.5794L15.9465 2.63659L15.0037 3.5794L15.9465 4.52221ZM12.6328 7.83594L11.69 6.89313L10.7472 7.83594L11.69 8.77875L12.6328 7.83594ZM22.5762 11.1519L23.519 12.0947L24.4618 11.1519L23.519 10.2091L22.5762 11.1519ZM19.2625 14.4656L18.3197 15.4084L19.2625 16.3512L20.2053 15.4084L19.2625 14.4656ZM35.8281 11.1543L34.8853 10.2115L33.9425 11.1543L34.8853 12.0971L35.8281 11.1543ZM42.4578 4.52463L43.4006 3.58182L42.4578 2.63901L41.515 3.58182L42.4578 4.52463ZM39.1419 14.468L38.199 15.4108L39.1419 16.3536L40.0847 15.4108L39.1419 14.468ZM45.7715 7.83836L46.7143 8.78117L47.6571 7.83836L46.7143 6.89555L45.7715 7.83836ZM58.2265 44.0625L57.2849 45.0065L57.2934 45.0149L58.2265 44.0625ZM64.7363 44.2002L65.6792 45.143L63.8346 43.2181L64.7363 44.2002ZM58.2241 37.4523L59.1669 38.3951H59.1669L58.2241 37.4523ZM61.5521 34.1244L60.6106 33.1802L60.6093 33.1815L61.5521 34.1244ZM68.208 34.1244L67.2652 35.0672L67.2653 35.0672L68.208 34.1244ZM68.208 40.7826L69.144 41.7323L69.1537 41.7227L69.1632 41.713L68.208 40.7826ZM65.1043 43.8415L64.1683 42.8919L65.984 44.8434L65.1043 43.8415ZM71.4853 44.0614L72.4281 43.1186V43.1186L71.4853 44.0614ZM71.4877 50.715L70.5449 49.7722L70.5449 49.7722L71.4877 50.715ZM68.2031 53.9995L69.146 54.9423L68.2031 53.9995ZM61.5472 53.9995L62.49 53.0567V53.0567L61.5472 53.9995ZM58.2218 24.1883L57.279 23.2455L57.2725 23.2521L58.2218 24.1883ZM64.8778 24.1883L63.9097 25.1052L63.9222 25.1184L63.935 25.1311L64.8778 24.1883ZM54.942 27.514L55.8848 28.4568L55.8913 28.4502L54.942 27.514ZM54.9396 34.1241L53.9968 35.0669L53.9968 35.0669L54.9396 34.1241ZM61.5498 34.1241L62.4926 35.0669L61.5498 34.1241ZM64.88 30.794L63.9372 29.8511L64.88 30.794ZM55.8816 48.1682L57.1655 48.5276L57.4102 47.6536L56.6868 47.1055L55.8816 48.1682ZM58.2339 57.3151L57.2911 58.2578L57.2911 58.2579L58.2339 57.3151ZM61.4334 59.3982L62.3762 60.341L63.8163 58.901L61.9205 58.157L61.4334 59.3982ZM55.1898 65.6418L54.247 64.699L54.2466 64.6994L55.1898 65.6418ZM45.2541 68.9216L45.4444 67.602L44.7823 67.5065L44.31 67.9801L45.2541 68.9216ZM34.2048 80.0007L33.2621 80.9436L34.2062 81.8875L35.1489 80.9422L34.2048 80.0007ZM11.0145 56.8127L10.0699 55.8717L9.13068 56.8146L10.0718 57.7556L11.0145 56.8127ZM18.7358 49.0616L17.7926 48.1192L17.7912 48.1206L18.7358 49.0616ZM18.7358 39.1121L19.679 38.1697L19.6786 38.1693L18.7358 39.1121ZM7.14062 27.517L6.19782 26.5741L5.25501 27.517L6.19782 28.4598L7.14062 27.517ZM12.1256 22.5319L11.1828 21.5891V21.5891L12.1256 22.5319ZM22.05 22.5319L21.1072 23.4748L21.1073 23.4749L22.05 22.5319ZM30.3309 30.8105L29.3883 31.7535L30.3087 32.6737L31.2509 31.7757L30.3309 30.8105ZM60.5914 1.96633L61.5114 2.93145L61.5229 2.92043L61.5342 2.90913L60.5914 1.96633ZM67.2009 1.96633L66.2581 2.90913V2.90914L67.2009 1.96633ZM67.2127 8.56403L68.157 9.50537L68.1589 9.50343L67.2127 8.56403ZM51.6258 24.2002L52.5686 25.143L52.5701 25.1415L51.6258 24.2002ZM51.6236 37.4387L52.5664 36.4959L52.5658 36.4953L51.6236 37.4387ZM52.3797 38.0705L51.572 39.1314L51.572 39.1314L52.3797 38.0705ZM52.5572 38.2063L53.8399 38.5702L54.086 37.7026L53.3723 37.1512L52.5572 38.2063ZM54.9425 47.4112L54.0008 48.3552L54.0092 48.3634L54.9425 47.4112ZM55.7024 48.0338L56.5001 46.9654L56.5001 46.9654L55.7024 48.0338ZM31.5469 -1.33333H26.8594V1.33333H31.5469V-1.33333ZM32.8802 9.375V0H30.2135V9.375H32.8802ZM26.8594 10.7083H31.5469V8.04167H26.8594V10.7083ZM25.526 0V9.375H28.1927V0H25.526ZM15.0037 3.5794L11.69 6.89313L13.5756 8.77875L16.8894 5.46502L15.0037 3.5794ZM23.519 10.2091L16.8894 3.5794L15.0037 5.46502L21.6334 12.0947L23.519 10.2091ZM20.2053 15.4084L23.519 12.0947L21.6334 10.2091L18.3197 13.5228L20.2053 15.4084ZM11.69 8.77875L18.3197 15.4084L20.2053 13.5228L13.5756 6.89313L11.69 8.77875ZM36.7709 12.0971L43.4006 5.46743L41.515 3.58182L34.8853 10.2115L36.7709 12.0971ZM40.0847 13.5252L36.7709 10.2115L34.8853 12.0971L38.199 15.4108L40.0847 13.5252ZM44.8287 6.89555L38.199 13.5252L40.0847 15.4108L46.7143 8.78117L44.8287 6.89555ZM41.515 5.46743L44.8287 8.78117L46.7143 6.89555L43.4006 3.58182L41.515 5.46743ZM57.2934 45.0149C59.5731 47.2482 63.2657 47.3605 65.6381 45.1824L63.8346 43.2181C62.5306 44.4153 60.4497 44.3739 59.1595 43.11L57.2934 45.0149ZM57.2813 36.5095C55.0003 38.7906 54.8605 42.5883 57.2849 45.0065L59.1681 43.1185C57.8263 41.7801 57.8889 39.6731 59.1669 38.3951L57.2813 36.5095ZM60.6093 33.1815L57.2813 36.5095L59.1669 38.3951L62.4949 35.0672L60.6093 33.1815ZM69.1509 33.1815C66.866 30.8967 62.8856 30.9115 60.6106 33.1802L62.4936 35.0685C63.7327 33.8328 66.0267 33.8286 67.2652 35.0672L69.1509 33.1815ZM69.1632 41.713C71.4707 39.3439 71.4916 35.5221 69.1508 33.1815L67.2653 35.0672C68.5501 36.352 68.5663 38.5039 67.2529 39.8523L69.1632 41.713ZM66.0402 44.7912L69.144 41.7323L67.2721 39.833L64.1683 42.8919L66.0402 44.7912ZM72.4281 43.1186C71.3135 42.004 69.7875 41.4844 68.334 41.4463C66.8846 41.4083 65.3573 41.8449 64.2245 42.8396L65.984 44.8434C66.5217 44.3713 67.3553 44.0882 68.2641 44.1121C69.1686 44.1358 69.9979 44.4596 70.5425 45.0042L72.4281 43.1186ZM72.4305 51.6578C74.7796 49.3087 74.7764 45.4668 72.4281 43.1186L70.5425 45.0042C71.8509 46.3125 71.8511 48.466 70.5449 49.7722L72.4305 51.6578ZM69.146 54.9423L72.4305 51.6578L70.5449 49.7722L67.2603 53.0567L69.146 54.9423ZM60.6044 54.9423C62.9406 57.2785 66.7824 57.3059 69.146 54.9423L67.2603 53.0567C65.9455 54.3715 63.7922 54.3589 62.49 53.0567L60.6044 54.9423ZM60.6044 46.4465C58.2607 48.7903 58.26 52.5979 60.6044 54.9423L62.49 53.0567C61.1872 51.7539 61.1875 49.6347 62.49 48.3322L60.6044 46.4465ZM63.7935 43.2574L60.6044 46.4465L62.49 48.3322L65.6792 45.143L63.7935 43.2574ZM59.1646 25.1311C59.7371 24.5587 60.6296 24.2241 61.5883 24.2259C62.5504 24.2277 63.3995 24.5666 63.9097 25.1052L65.8458 23.2714C64.7283 22.0916 63.118 21.5621 61.5932 21.5593C60.0651 21.5564 58.4435 22.0811 57.279 23.2455L59.1646 25.1311ZM55.8913 28.4502L59.1712 25.1246L57.2725 23.2521L53.9927 26.5777L55.8913 28.4502ZM55.8825 33.1813C54.5762 31.8749 54.5778 29.7638 55.8848 28.4568L53.9992 26.5711C51.6531 28.9173 51.6469 32.7168 53.9968 35.0669L55.8825 33.1813ZM60.607 33.1813C59.2969 34.4914 57.1894 34.4883 55.8825 33.1813L53.9968 35.0669C56.3433 37.4134 60.1393 37.4203 62.4926 35.0669L60.607 33.1813ZM63.9372 29.8511L60.607 33.1813L62.4926 35.0669L65.8228 31.7368L63.9372 29.8511ZM63.935 25.1311C65.2581 26.4543 65.23 28.5583 63.9372 29.8511L65.8228 31.7368C68.1415 29.418 68.2005 25.6255 65.8206 23.2455L63.935 25.1311ZM56.8275 50.6957C56.8275 49.9856 56.9569 49.2729 57.1655 48.5276L54.5976 47.8088C54.349 48.6966 54.1609 49.663 54.1609 50.6957H56.8275ZM59.1768 56.3723C57.6603 54.8557 56.8275 52.8443 56.8275 50.6957H54.1609C54.1609 53.5505 55.2738 56.2404 57.2911 58.2578L59.1768 56.3723ZM61.9205 58.157C60.8979 57.7557 59.9647 57.1603 59.1767 56.3723L57.2911 58.2579C58.3518 59.3186 59.5999 60.111 60.9464 60.6394L61.9205 58.157ZM56.1327 66.5846L62.3762 60.341L60.4906 58.4554L54.247 64.699L56.1327 66.5846ZM45.0638 70.2413C49.0729 70.8195 53.2267 69.4932 56.1331 66.5842L54.2466 64.6994C51.9483 66.9998 48.6405 68.0629 45.4444 67.602L45.0638 70.2413ZM35.1489 80.9422L46.1981 69.8632L44.31 67.9801L33.2608 79.0592L35.1489 80.9422ZM10.0718 57.7556L33.2621 80.9436L35.1476 79.0578L11.9573 55.8699L10.0718 57.7556ZM17.7912 48.1206L10.0699 55.8717L11.9592 57.7537L19.6804 50.0026L17.7912 48.1206ZM17.7926 40.0545C20.0144 42.2781 20.0145 45.8954 17.7926 48.1192L19.679 50.004C22.9412 46.7391 22.9412 41.4345 19.679 38.1697L17.7926 40.0545ZM6.19782 28.4598L17.793 40.0549L19.6786 38.1693L8.08343 26.5741L6.19782 28.4598ZM11.1828 21.5891L6.19782 26.5741L8.08343 28.4598L13.0684 23.4748L11.1828 21.5891ZM22.9928 21.5891C19.7346 18.3309 14.441 18.3309 11.1828 21.5891L13.0684 23.4748C15.2852 21.258 18.8904 21.258 21.1072 23.4748L22.9928 21.5891ZM31.2736 29.8676L22.9927 21.589L21.1073 23.4749L29.3883 31.7535L31.2736 29.8676ZM59.6715 1.0012L29.411 29.8454L31.2509 31.7757L61.5114 2.93145L59.6715 1.0012ZM68.1437 1.02352C65.8458 -1.27448 62.0207 -1.34858 59.6486 1.02352L61.5342 2.90913C62.8449 1.59842 64.9814 1.63244 66.2581 2.90913L68.1437 1.02352ZM68.1589 9.50343C70.442 7.20386 70.5107 3.39045 68.1437 1.02352L66.2581 2.90914C67.5659 4.2169 67.535 6.34691 66.2665 7.62463L68.1589 9.50343ZM52.5701 25.1415C53.0166 24.6936 67.3505 10.3144 68.157 9.50536L66.2684 7.62269C65.4619 8.43171 51.128 22.811 50.6814 23.259L52.5701 25.1415ZM50.2149 30.8195C50.2149 28.6744 51.0489 26.6627 52.5686 25.143L50.683 23.2574C48.6642 25.2762 47.5482 27.9658 47.5482 30.8195H50.2149ZM52.5658 36.4953C51.0475 34.9788 50.2149 32.9678 50.2149 30.8195H47.5482C47.5482 33.6742 48.6613 36.3644 50.6814 38.3821L52.5658 36.4953ZM53.1874 37.0097C52.9159 36.803 52.728 36.6574 52.5664 36.4959L50.6808 38.3815C50.9902 38.6909 51.3228 38.9416 51.572 39.1314L53.1874 37.0097ZM53.3723 37.1512C53.309 37.1023 53.246 37.0543 53.1874 37.0097L51.572 39.1314C51.6319 39.177 51.6874 39.2193 51.742 39.2615L53.3723 37.1512ZM53.4949 40.7576C53.4949 40.0409 53.6268 39.3217 53.8399 38.5702L51.2745 37.8425C51.0201 38.7391 50.8282 39.7149 50.8282 40.7576H53.4949ZM55.8841 46.4672C54.3286 44.9155 53.4949 42.9013 53.4949 40.7576H50.8282C50.8282 43.6173 51.9492 46.3087 54.0009 48.3552L55.8841 46.4672ZM56.5001 46.9654C56.2272 46.7616 56.0381 46.6181 55.8758 46.4589L54.0092 48.3634C54.3202 48.6682 54.6544 48.9153 54.9048 49.1022L56.5001 46.9654ZM56.6868 47.1055C56.6229 47.0571 56.5593 47.0096 56.5001 46.9654L54.9048 49.1022C54.9652 49.1473 55.0212 49.1892 55.0763 49.2309L56.6868 47.1055Z" fill="url(#paint1_radial_5280_257510)" fill-opacity="0.6" mask="url(#path-1-inside-1_5280_257510)"/>
      <path d="M31.5469 0H32.8802V-1.33333H31.5469V0ZM26.8594 0V-1.33333H25.526V0H26.8594ZM31.5469 9.375V10.7083H32.8802V9.375H31.5469ZM26.8594 9.375H25.526V10.7083H26.8594V9.375ZM15.9465 4.52221L16.8894 3.5794L15.9465 2.63659L15.0037 3.5794L15.9465 4.52221ZM12.6328 7.83594L11.69 6.89313L10.7472 7.83594L11.69 8.77875L12.6328 7.83594ZM22.5762 11.1519L23.519 12.0947L24.4618 11.1519L23.519 10.2091L22.5762 11.1519ZM19.2625 14.4656L18.3197 15.4084L19.2625 16.3512L20.2053 15.4084L19.2625 14.4656ZM35.8281 11.1543L34.8853 10.2115L33.9425 11.1543L34.8853 12.0971L35.8281 11.1543ZM42.4578 4.52463L43.4006 3.58182L42.4578 2.63901L41.515 3.58182L42.4578 4.52463ZM39.1419 14.468L38.199 15.4108L39.1419 16.3536L40.0847 15.4108L39.1419 14.468ZM45.7715 7.83836L46.7143 8.78117L47.6571 7.83836L46.7143 6.89555L45.7715 7.83836ZM58.2265 44.0625L57.2849 45.0065L57.2934 45.0149L58.2265 44.0625ZM64.7363 44.2002L65.6792 45.143L63.8346 43.2181L64.7363 44.2002ZM58.2241 37.4523L59.1669 38.3951H59.1669L58.2241 37.4523ZM61.5521 34.1244L60.6106 33.1802L60.6093 33.1815L61.5521 34.1244ZM68.208 34.1244L67.2652 35.0672L67.2653 35.0672L68.208 34.1244ZM68.208 40.7826L69.144 41.7323L69.1537 41.7227L69.1632 41.713L68.208 40.7826ZM65.1043 43.8415L64.1683 42.8919L65.984 44.8434L65.1043 43.8415ZM71.4853 44.0614L72.4281 43.1186V43.1186L71.4853 44.0614ZM71.4877 50.715L70.5449 49.7722L70.5449 49.7722L71.4877 50.715ZM68.2031 53.9995L69.146 54.9423L68.2031 53.9995ZM61.5472 53.9995L62.49 53.0567V53.0567L61.5472 53.9995ZM58.2218 24.1883L57.279 23.2455L57.2725 23.2521L58.2218 24.1883ZM64.8778 24.1883L63.9097 25.1052L63.9222 25.1184L63.935 25.1311L64.8778 24.1883ZM54.942 27.514L55.8848 28.4568L55.8913 28.4502L54.942 27.514ZM54.9396 34.1241L53.9968 35.0669L53.9968 35.0669L54.9396 34.1241ZM61.5498 34.1241L62.4926 35.0669L61.5498 34.1241ZM64.88 30.794L63.9372 29.8511L64.88 30.794ZM55.8816 48.1682L57.1655 48.5276L57.4102 47.6536L56.6868 47.1055L55.8816 48.1682ZM58.2339 57.3151L57.2911 58.2578L57.2911 58.2579L58.2339 57.3151ZM61.4334 59.3982L62.3762 60.341L63.8163 58.901L61.9205 58.157L61.4334 59.3982ZM55.1898 65.6418L54.247 64.699L54.2466 64.6994L55.1898 65.6418ZM45.2541 68.9216L45.4444 67.602L44.7823 67.5065L44.31 67.9801L45.2541 68.9216ZM34.2048 80.0007L33.2621 80.9436L34.2062 81.8875L35.1489 80.9422L34.2048 80.0007ZM11.0145 56.8127L10.0699 55.8717L9.13068 56.8146L10.0718 57.7556L11.0145 56.8127ZM18.7358 49.0616L17.7926 48.1192L17.7912 48.1206L18.7358 49.0616ZM18.7358 39.1121L19.679 38.1697L19.6786 38.1693L18.7358 39.1121ZM7.14062 27.517L6.19782 26.5741L5.25501 27.517L6.19782 28.4598L7.14062 27.517ZM12.1256 22.5319L11.1828 21.5891V21.5891L12.1256 22.5319ZM22.05 22.5319L21.1072 23.4748L21.1073 23.4749L22.05 22.5319ZM30.3309 30.8105L29.3883 31.7535L30.3087 32.6737L31.2509 31.7757L30.3309 30.8105ZM60.5914 1.96633L61.5114 2.93145L61.5229 2.92043L61.5342 2.90913L60.5914 1.96633ZM67.2009 1.96633L66.2581 2.90913V2.90914L67.2009 1.96633ZM67.2127 8.56403L68.157 9.50537L68.1589 9.50343L67.2127 8.56403ZM51.6258 24.2002L52.5686 25.143L52.5701 25.1415L51.6258 24.2002ZM51.6236 37.4387L52.5664 36.4959L52.5658 36.4953L51.6236 37.4387ZM52.3797 38.0705L51.572 39.1314L51.572 39.1314L52.3797 38.0705ZM52.5572 38.2063L53.8399 38.5702L54.086 37.7026L53.3723 37.1512L52.5572 38.2063ZM54.9425 47.4112L54.0008 48.3552L54.0092 48.3634L54.9425 47.4112ZM55.7024 48.0338L56.5001 46.9654L56.5001 46.9654L55.7024 48.0338ZM31.5469 -1.33333H26.8594V1.33333H31.5469V-1.33333ZM32.8802 9.375V0H30.2135V9.375H32.8802ZM26.8594 10.7083H31.5469V8.04167H26.8594V10.7083ZM25.526 0V9.375H28.1927V0H25.526ZM15.0037 3.5794L11.69 6.89313L13.5756 8.77875L16.8894 5.46502L15.0037 3.5794ZM23.519 10.2091L16.8894 3.5794L15.0037 5.46502L21.6334 12.0947L23.519 10.2091ZM20.2053 15.4084L23.519 12.0947L21.6334 10.2091L18.3197 13.5228L20.2053 15.4084ZM11.69 8.77875L18.3197 15.4084L20.2053 13.5228L13.5756 6.89313L11.69 8.77875ZM36.7709 12.0971L43.4006 5.46743L41.515 3.58182L34.8853 10.2115L36.7709 12.0971ZM40.0847 13.5252L36.7709 10.2115L34.8853 12.0971L38.199 15.4108L40.0847 13.5252ZM44.8287 6.89555L38.199 13.5252L40.0847 15.4108L46.7143 8.78117L44.8287 6.89555ZM41.515 5.46743L44.8287 8.78117L46.7143 6.89555L43.4006 3.58182L41.515 5.46743ZM57.2934 45.0149C59.5731 47.2482 63.2657 47.3605 65.6381 45.1824L63.8346 43.2181C62.5306 44.4153 60.4497 44.3739 59.1595 43.11L57.2934 45.0149ZM57.2813 36.5095C55.0003 38.7906 54.8605 42.5883 57.2849 45.0065L59.1681 43.1185C57.8263 41.7801 57.8889 39.6731 59.1669 38.3951L57.2813 36.5095ZM60.6093 33.1815L57.2813 36.5095L59.1669 38.3951L62.4949 35.0672L60.6093 33.1815ZM69.1509 33.1815C66.866 30.8967 62.8856 30.9115 60.6106 33.1802L62.4936 35.0685C63.7327 33.8328 66.0267 33.8286 67.2652 35.0672L69.1509 33.1815ZM69.1632 41.713C71.4707 39.3439 71.4916 35.5221 69.1508 33.1815L67.2653 35.0672C68.5501 36.352 68.5663 38.5039 67.2529 39.8523L69.1632 41.713ZM66.0402 44.7912L69.144 41.7323L67.2721 39.833L64.1683 42.8919L66.0402 44.7912ZM72.4281 43.1186C71.3135 42.004 69.7875 41.4844 68.334 41.4463C66.8846 41.4083 65.3573 41.8449 64.2245 42.8396L65.984 44.8434C66.5217 44.3713 67.3553 44.0882 68.2641 44.1121C69.1686 44.1358 69.9979 44.4596 70.5425 45.0042L72.4281 43.1186ZM72.4305 51.6578C74.7796 49.3087 74.7764 45.4668 72.4281 43.1186L70.5425 45.0042C71.8509 46.3125 71.8511 48.466 70.5449 49.7722L72.4305 51.6578ZM69.146 54.9423L72.4305 51.6578L70.5449 49.7722L67.2603 53.0567L69.146 54.9423ZM60.6044 54.9423C62.9406 57.2785 66.7824 57.3059 69.146 54.9423L67.2603 53.0567C65.9455 54.3715 63.7922 54.3589 62.49 53.0567L60.6044 54.9423ZM60.6044 46.4465C58.2607 48.7903 58.26 52.5979 60.6044 54.9423L62.49 53.0567C61.1872 51.7539 61.1875 49.6347 62.49 48.3322L60.6044 46.4465ZM63.7935 43.2574L60.6044 46.4465L62.49 48.3322L65.6792 45.143L63.7935 43.2574ZM59.1646 25.1311C59.7371 24.5587 60.6296 24.2241 61.5883 24.2259C62.5504 24.2277 63.3995 24.5666 63.9097 25.1052L65.8458 23.2714C64.7283 22.0916 63.118 21.5621 61.5932 21.5593C60.0651 21.5564 58.4435 22.0811 57.279 23.2455L59.1646 25.1311ZM55.8913 28.4502L59.1712 25.1246L57.2725 23.2521L53.9927 26.5777L55.8913 28.4502ZM55.8825 33.1813C54.5762 31.8749 54.5778 29.7638 55.8848 28.4568L53.9992 26.5711C51.6531 28.9173 51.6469 32.7168 53.9968 35.0669L55.8825 33.1813ZM60.607 33.1813C59.2969 34.4914 57.1894 34.4883 55.8825 33.1813L53.9968 35.0669C56.3433 37.4134 60.1393 37.4203 62.4926 35.0669L60.607 33.1813ZM63.9372 29.8511L60.607 33.1813L62.4926 35.0669L65.8228 31.7368L63.9372 29.8511ZM63.935 25.1311C65.2581 26.4543 65.23 28.5583 63.9372 29.8511L65.8228 31.7368C68.1415 29.418 68.2005 25.6255 65.8206 23.2455L63.935 25.1311ZM56.8275 50.6957C56.8275 49.9856 56.9569 49.2729 57.1655 48.5276L54.5976 47.8088C54.349 48.6966 54.1609 49.663 54.1609 50.6957H56.8275ZM59.1768 56.3723C57.6603 54.8557 56.8275 52.8443 56.8275 50.6957H54.1609C54.1609 53.5505 55.2738 56.2404 57.2911 58.2578L59.1768 56.3723ZM61.9205 58.157C60.8979 57.7557 59.9647 57.1603 59.1767 56.3723L57.2911 58.2579C58.3518 59.3186 59.5999 60.111 60.9464 60.6394L61.9205 58.157ZM56.1327 66.5846L62.3762 60.341L60.4906 58.4554L54.247 64.699L56.1327 66.5846ZM45.0638 70.2413C49.0729 70.8195 53.2267 69.4932 56.1331 66.5842L54.2466 64.6994C51.9483 66.9998 48.6405 68.0629 45.4444 67.602L45.0638 70.2413ZM35.1489 80.9422L46.1981 69.8632L44.31 67.9801L33.2608 79.0592L35.1489 80.9422ZM10.0718 57.7556L33.2621 80.9436L35.1476 79.0578L11.9573 55.8699L10.0718 57.7556ZM17.7912 48.1206L10.0699 55.8717L11.9592 57.7537L19.6804 50.0026L17.7912 48.1206ZM17.7926 40.0545C20.0144 42.2781 20.0145 45.8954 17.7926 48.1192L19.679 50.004C22.9412 46.7391 22.9412 41.4345 19.679 38.1697L17.7926 40.0545ZM6.19782 28.4598L17.793 40.0549L19.6786 38.1693L8.08343 26.5741L6.19782 28.4598ZM11.1828 21.5891L6.19782 26.5741L8.08343 28.4598L13.0684 23.4748L11.1828 21.5891ZM22.9928 21.5891C19.7346 18.3309 14.441 18.3309 11.1828 21.5891L13.0684 23.4748C15.2852 21.258 18.8904 21.258 21.1072 23.4748L22.9928 21.5891ZM31.2736 29.8676L22.9927 21.589L21.1073 23.4749L29.3883 31.7535L31.2736 29.8676ZM59.6715 1.0012L29.411 29.8454L31.2509 31.7757L61.5114 2.93145L59.6715 1.0012ZM68.1437 1.02352C65.8458 -1.27448 62.0207 -1.34858 59.6486 1.02352L61.5342 2.90913C62.8449 1.59842 64.9814 1.63244 66.2581 2.90913L68.1437 1.02352ZM68.1589 9.50343C70.442 7.20386 70.5107 3.39045 68.1437 1.02352L66.2581 2.90914C67.5659 4.2169 67.535 6.34691 66.2665 7.62463L68.1589 9.50343ZM52.5701 25.1415C53.0166 24.6936 67.3505 10.3144 68.157 9.50536L66.2684 7.62269C65.4619 8.43171 51.128 22.811 50.6814 23.259L52.5701 25.1415ZM50.2149 30.8195C50.2149 28.6744 51.0489 26.6627 52.5686 25.143L50.683 23.2574C48.6642 25.2762 47.5482 27.9658 47.5482 30.8195H50.2149ZM52.5658 36.4953C51.0475 34.9788 50.2149 32.9678 50.2149 30.8195H47.5482C47.5482 33.6742 48.6613 36.3644 50.6814 38.3821L52.5658 36.4953ZM53.1874 37.0097C52.9159 36.803 52.728 36.6574 52.5664 36.4959L50.6808 38.3815C50.9902 38.6909 51.3228 38.9416 51.572 39.1314L53.1874 37.0097ZM53.3723 37.1512C53.309 37.1023 53.246 37.0543 53.1874 37.0097L51.572 39.1314C51.6319 39.177 51.6874 39.2193 51.742 39.2615L53.3723 37.1512ZM53.4949 40.7576C53.4949 40.0409 53.6268 39.3217 53.8399 38.5702L51.2745 37.8425C51.0201 38.7391 50.8282 39.7149 50.8282 40.7576H53.4949ZM55.8841 46.4672C54.3286 44.9155 53.4949 42.9013 53.4949 40.7576H50.8282C50.8282 43.6173 51.9492 46.3087 54.0009 48.3552L55.8841 46.4672ZM56.5001 46.9654C56.2272 46.7616 56.0381 46.6181 55.8758 46.4589L54.0092 48.3634C54.3202 48.6682 54.6544 48.9153 54.9048 49.1022L56.5001 46.9654ZM56.6868 47.1055C56.6229 47.0571 56.5593 47.0096 56.5001 46.9654L54.9048 49.1022C54.9652 49.1473 55.0212 49.1892 55.0763 49.2309L56.6868 47.1055Z" fill="url(#paint2_radial_5280_257510)" fill-opacity="0.3" mask="url(#path-1-inside-1_5280_257510)"/>
    </g>
  </g>
  <defs>
    <filter id="filter0_bd_5280_257510" x="-659.526" y="-666.667" width="1399.05" height="1413.33" filterUnits="userSpaceOnUse" color-interpolation-filters="sRGB">
      <feFlood flood-opacity="0" result="BackgroundImageFix"/>
      <feGaussianBlur in="BackgroundImageFix" stdDeviation="333.333"/>
      <feComposite in2="SourceAlpha" operator="in" result="effect1_backgroundBlur_5280_257510"/>
      <feColorMatrix in="SourceAlpha" type="matrix" values="0 0 0 0 0 0 0 0 0 0 0 0 0 0 0 0 0 0 127 0" result="hardAlpha"/>
      <feOffset dy="2.66667"/>
      <feGaussianBlur stdDeviation="1.33333"/>
      <feComposite in2="hardAlpha" operator="out"/>
      <feColorMatrix type="matrix" values="0 0 0 0 0 0 0 0 0 0 0 0 0 0 0 0 0 0 0.25 0"/>
      <feBlend mode="normal" in2="effect1_backgroundBlur_5280_257510" result="effect2_dropShadow_5280_257510"/>
      <feBlend mode="normal" in="SourceGraphic" in2="effect2_dropShadow_5280_257510" result="shape"/>
    </filter>
    <linearGradient id="paint0_linear_5280_257510" x1="9.85224" y1="2.06062" x2="53.0028" y2="93.0779" gradientUnits="userSpaceOnUse">
      <stop stop-color="white" stop-opacity="0.8"/>
      <stop offset="1" stop-color="white" stop-opacity="0.2"/>
    </linearGradient>
    <radialGradient id="paint1_radial_5280_257510" cx="0" cy="0" r="1" gradientUnits="userSpaceOnUse" gradientTransform="translate(39.9991 0.72728) rotate(90) scale(69.4552 57.0542)">
      <stop stop-color="white"/>
      <stop offset="1" stop-color="white" stop-opacity="0"/>
    </radialGradient>
    <radialGradient id="paint2_radial_5280_257510" cx="0" cy="0" r="1" gradientUnits="userSpaceOnUse" gradientTransform="translate(39.9991 80.0007) rotate(-90) scale(40.0004 32.8584)">
      <stop stop-color="white"/>
      <stop offset="1" stop-color="white" stop-opacity="0"/>
    </radialGradient>
    <clipPath id="clip0_5280_257510">
      <rect width="80" height="80" fill="white"/>
    </clipPath>
  </defs>
</svg>
