<svg xmlns="http://www.w3.org/2000/svg" width="80" height="80" viewBox="0 0 80 80" fill="none">
  <g clip-path="url(#clip0_5585_48064)">
    <g filter="url(#filter0_bd_5585_48064)">
      <mask id="path-1-inside-1_5585_48064" fill="white">
        <path fill-rule="evenodd" clip-rule="evenodd" d="M24.2855 23.1654C24.8588 23.4387 25.5405 23.3704 26.0438 22.9671L33.4338 17.0554C39.8922 21.1654 47.3305 23.3321 55.0022 23.3321C55.9188 23.3321 56.6688 22.5821 56.6688 21.6654V16.9354C56.7722 9.5254 50.3688 3.3154 43.0655 3.33206H38.0522C34.7855 3.33206 31.7022 4.53373 29.3005 6.69873C25.9372 7.0654 23.3372 9.92706 23.3355 13.3321V21.6654C23.3355 22.2987 23.7022 22.8821 24.2855 23.1654ZM54.6061 26.6529C51.0844 42.0879 28.8927 42.0795 25.3911 26.6329C26.3844 26.5529 27.3444 26.1945 28.1244 25.5695L33.7077 21.1029C40.0877 24.6845 47.2577 26.5862 54.6061 26.6529ZM39.997 63.3303C42.1754 63.3186 42.1754 60.0086 39.997 59.997C37.8187 60.0086 37.8187 63.3186 39.997 63.3303ZM16.3131 72.2862C16.6248 74.7828 18.7581 76.6662 21.2748 76.6662H58.7231C61.2398 76.6662 63.3731 74.7828 63.6848 72.2862L66.1848 52.2862C66.6131 49.3945 64.1465 46.6112 61.2231 46.6662H18.7748C16.6648 46.6662 13.5814 48.2078 13.8131 52.2862L16.3131 72.2862ZM39.9981 56.6662C46.5914 56.8395 46.5898 66.4945 39.9981 66.6662C33.4048 66.4928 33.4064 56.8378 39.9981 56.6662ZM32.5452 40.0815C34.4286 42.1149 37.0952 43.3315 39.9952 43.3315C39.6627 43.3645 37.3498 43.3502 34.2991 43.3314C27.4716 43.2893 16.9487 43.2244 16.6619 43.6149V40.7849C16.6619 37.6082 18.4269 34.7515 21.2686 33.3315L23.8752 32.0282C25.7936 35.5815 28.8369 38.4349 32.5452 40.0815ZM63.3355 40.7849V43.6149C63.0028 43.2246 52.5433 43.2892 45.7282 43.3313C42.6779 43.3502 40.3577 43.3645 40.0022 43.3315C42.9022 43.3315 45.5688 42.1149 47.4522 40.0815C51.1605 38.4349 54.2038 35.5815 56.1222 32.0282L58.7288 33.3315C61.5705 34.7515 63.3355 37.6082 63.3355 40.7849Z"/>
      </mask>
      <path fill-rule="evenodd" clip-rule="evenodd" d="M24.2855 23.1654C24.8588 23.4387 25.5405 23.3704 26.0438 22.9671L33.4338 17.0554C39.8922 21.1654 47.3305 23.3321 55.0022 23.3321C55.9188 23.3321 56.6688 22.5821 56.6688 21.6654V16.9354C56.7722 9.5254 50.3688 3.3154 43.0655 3.33206H38.0522C34.7855 3.33206 31.7022 4.53373 29.3005 6.69873C25.9372 7.0654 23.3372 9.92706 23.3355 13.3321V21.6654C23.3355 22.2987 23.7022 22.8821 24.2855 23.1654ZM54.6061 26.6529C51.0844 42.0879 28.8927 42.0795 25.3911 26.6329C26.3844 26.5529 27.3444 26.1945 28.1244 25.5695L33.7077 21.1029C40.0877 24.6845 47.2577 26.5862 54.6061 26.6529ZM39.997 63.3303C42.1754 63.3186 42.1754 60.0086 39.997 59.997C37.8187 60.0086 37.8187 63.3186 39.997 63.3303ZM16.3131 72.2862C16.6248 74.7828 18.7581 76.6662 21.2748 76.6662H58.7231C61.2398 76.6662 63.3731 74.7828 63.6848 72.2862L66.1848 52.2862C66.6131 49.3945 64.1465 46.6112 61.2231 46.6662H18.7748C16.6648 46.6662 13.5814 48.2078 13.8131 52.2862L16.3131 72.2862ZM39.9981 56.6662C46.5914 56.8395 46.5898 66.4945 39.9981 66.6662C33.4048 66.4928 33.4064 56.8378 39.9981 56.6662ZM32.5452 40.0815C34.4286 42.1149 37.0952 43.3315 39.9952 43.3315C39.6627 43.3645 37.3498 43.3502 34.2991 43.3314C27.4716 43.2893 16.9487 43.2244 16.6619 43.6149V40.7849C16.6619 37.6082 18.4269 34.7515 21.2686 33.3315L23.8752 32.0282C25.7936 35.5815 28.8369 38.4349 32.5452 40.0815ZM63.3355 40.7849V43.6149C63.0028 43.2246 52.5433 43.2892 45.7282 43.3313C42.6779 43.3502 40.3577 43.3645 40.0022 43.3315C42.9022 43.3315 45.5688 42.1149 47.4522 40.0815C51.1605 38.4349 54.2038 35.5815 56.1222 32.0282L58.7288 33.3315C61.5705 34.7515 63.3355 37.6082 63.3355 40.7849Z" fill="url(#paint0_linear_5585_48064)" fill-opacity="0.8" shape-rendering="crispEdges"/>
      <path fill-rule="evenodd" clip-rule="evenodd" d="M24.2855 23.1654C24.8588 23.4387 25.5405 23.3704 26.0438 22.9671L33.4338 17.0554C39.8922 21.1654 47.3305 23.3321 55.0022 23.3321C55.9188 23.3321 56.6688 22.5821 56.6688 21.6654V16.9354C56.7722 9.5254 50.3688 3.3154 43.0655 3.33206H38.0522C34.7855 3.33206 31.7022 4.53373 29.3005 6.69873C25.9372 7.0654 23.3372 9.92706 23.3355 13.3321V21.6654C23.3355 22.2987 23.7022 22.8821 24.2855 23.1654ZM54.6061 26.6529C51.0844 42.0879 28.8927 42.0795 25.3911 26.6329C26.3844 26.5529 27.3444 26.1945 28.1244 25.5695L33.7077 21.1029C40.0877 24.6845 47.2577 26.5862 54.6061 26.6529ZM39.997 63.3303C42.1754 63.3186 42.1754 60.0086 39.997 59.997C37.8187 60.0086 37.8187 63.3186 39.997 63.3303ZM16.3131 72.2862C16.6248 74.7828 18.7581 76.6662 21.2748 76.6662H58.7231C61.2398 76.6662 63.3731 74.7828 63.6848 72.2862L66.1848 52.2862C66.6131 49.3945 64.1465 46.6112 61.2231 46.6662H18.7748C16.6648 46.6662 13.5814 48.2078 13.8131 52.2862L16.3131 72.2862ZM39.9981 56.6662C46.5914 56.8395 46.5898 66.4945 39.9981 66.6662C33.4048 66.4928 33.4064 56.8378 39.9981 56.6662ZM32.5452 40.0815C34.4286 42.1149 37.0952 43.3315 39.9952 43.3315C39.6627 43.3645 37.3498 43.3502 34.2991 43.3314C27.4716 43.2893 16.9487 43.2244 16.6619 43.6149V40.7849C16.6619 37.6082 18.4269 34.7515 21.2686 33.3315L23.8752 32.0282C25.7936 35.5815 28.8369 38.4349 32.5452 40.0815ZM63.3355 40.7849V43.6149C63.0028 43.2246 52.5433 43.2892 45.7282 43.3313C42.6779 43.3502 40.3577 43.3645 40.0022 43.3315C42.9022 43.3315 45.5688 42.1149 47.4522 40.0815C51.1605 38.4349 54.2038 35.5815 56.1222 32.0282L58.7288 33.3315C61.5705 34.7515 63.3355 37.6082 63.3355 40.7849Z" fill="#344254" fill-opacity="0.15" shape-rendering="crispEdges"/>
      <path d="M26.0438 22.9671L25.2109 21.9259L25.2101 21.9266L26.0438 22.9671ZM24.2855 23.1654L23.7029 24.3648L23.7117 24.369L24.2855 23.1654ZM33.4338 17.0554L34.1497 15.9305L33.3454 15.4187L32.6009 16.0142L33.4338 17.0554ZM56.6688 16.9354L55.3356 16.9168L55.3355 16.9261V16.9354H56.6688ZM43.0655 3.33206V4.6654L43.0685 4.66539L43.0655 3.33206ZM29.3005 6.69873L29.445 8.02421L29.8733 7.97752L30.1933 7.68907L29.3005 6.69873ZM23.3355 13.3321L22.0022 13.3314V13.3321H23.3355ZM25.3911 26.6329L25.284 25.3038L23.7506 25.4273L24.0907 26.9276L25.3911 26.6329ZM54.6061 26.6529L55.906 26.9495L56.2744 25.3346L54.6182 25.3196L54.6061 26.6529ZM28.1244 25.5695L27.2915 24.5284L27.2907 24.529L28.1244 25.5695ZM33.7077 21.1029L34.3604 19.9402L33.5767 19.5002L32.8748 20.0617L33.7077 21.1029ZM39.997 63.3303L39.9899 64.6636L39.997 64.6636L40.0042 64.6636L39.997 63.3303ZM39.997 59.997L40.0042 58.6637L39.997 58.6636L39.9899 58.6637L39.997 59.997ZM16.3131 72.2862L17.6362 72.121L17.6362 72.1208L16.3131 72.2862ZM63.6848 72.2862L62.3617 72.1208L62.3617 72.121L63.6848 72.2862ZM66.1848 52.2862L64.8658 52.0908L64.8636 52.1058L64.8617 52.1208L66.1848 52.2862ZM61.2231 46.6662V47.9995H61.2357L61.2482 47.9993L61.2231 46.6662ZM13.8131 52.2862L12.4819 52.3618L12.4845 52.4068L12.4901 52.4515L13.8131 52.2862ZM39.9981 56.6662L40.0332 55.3333L39.9983 55.3324L39.9634 55.3333L39.9981 56.6662ZM39.9981 66.6662L39.9631 67.999L39.998 68L40.0328 67.999L39.9981 66.6662ZM39.9952 43.3315L40.1267 44.6584L39.9952 41.9982V43.3315ZM32.5452 40.0815L33.5234 39.1755L33.337 38.9743L33.0863 38.8629L32.5452 40.0815ZM34.2991 43.3314L34.2909 44.6647H34.2909L34.2991 43.3314ZM16.6619 43.6149H15.3286V47.6825L17.7365 44.4042L16.6619 43.6149ZM21.2686 33.3315L21.8646 34.5243L21.8648 34.5241L21.2686 33.3315ZM23.8752 32.0282L25.0485 31.3948L24.4347 30.2578L23.2789 30.8356L23.8752 32.0282ZM63.3355 43.6149L62.3208 44.4799L64.6688 47.2341V43.6149H63.3355ZM45.7282 43.3313L45.7199 41.998L45.7282 43.3313ZM40.0022 43.3315V41.9982L39.879 44.6592L40.0022 43.3315ZM47.4522 40.0815L46.9111 38.8629L46.6604 38.9743L46.474 39.1755L47.4522 40.0815ZM56.1222 32.0282L56.7185 30.8356L55.5627 30.2578L54.9489 31.3948L56.1222 32.0282ZM58.7288 33.3315L58.1326 34.5241L58.1328 34.5243L58.7288 33.3315ZM25.2101 21.9266C25.1164 22.0017 24.9833 22.021 24.8593 21.9618L23.7117 24.369C24.7343 24.8565 25.9646 24.7391 26.8776 24.0076L25.2101 21.9266ZM32.6009 16.0142L25.2109 21.9259L26.8767 24.0082L34.2667 18.0966L32.6009 16.0142ZM55.0022 21.9987C47.5839 21.9987 40.3939 19.9043 34.1497 15.9305L32.718 18.1803C39.3904 22.4265 47.0771 24.6654 55.0022 24.6654V21.9987ZM55.3355 21.6654C55.3355 21.8457 55.1825 21.9987 55.0022 21.9987V24.6654C56.6552 24.6654 58.0022 23.3184 58.0022 21.6654H55.3355ZM55.3355 16.9354V21.6654H58.0022V16.9354H55.3355ZM43.0685 4.66539C49.6543 4.65037 55.4282 10.2785 55.3356 16.9168L58.002 16.954C58.1161 8.77228 51.0834 1.98043 43.0625 1.99874L43.0685 4.66539ZM38.0522 4.6654H43.0655V1.99873H38.0522V4.6654ZM30.1933 7.68907C32.3522 5.74286 35.1182 4.6654 38.0522 4.6654V1.99873C34.4528 1.99873 31.0521 3.3246 28.4078 5.70839L30.1933 7.68907ZM24.6688 13.3327C24.6702 10.6141 26.7517 8.31783 29.445 8.02421L29.156 5.37325C25.1227 5.81296 22.0042 9.24001 22.0022 13.3314L24.6688 13.3327ZM24.6688 21.6654V13.3321H22.0022V21.6654H24.6688ZM24.868 21.9661C24.7358 21.9018 24.6688 21.7792 24.6688 21.6654H22.0022C22.0022 22.8183 22.6685 23.8623 23.703 24.3647L24.868 21.9661ZM24.0907 26.9276C27.9063 43.7592 52.069 43.7666 55.906 26.9495L53.3061 26.3563C50.0998 40.4091 29.8791 40.3999 26.6914 26.3381L24.0907 26.9276ZM27.2907 24.529C26.7336 24.9754 26.0315 25.2436 25.284 25.3038L25.4981 27.9619C26.7373 27.8621 27.9552 27.4137 28.9581 26.61L27.2907 24.529ZM32.8748 20.0617L27.2915 24.5284L28.9573 26.6107L34.5407 22.144L32.8748 20.0617ZM54.6182 25.3196C47.4928 25.2549 40.5434 23.4113 34.3604 19.9402L33.055 22.2655C39.6321 25.9578 47.0226 27.9175 54.594 27.9861L54.6182 25.3196ZM40.0042 64.6636C40.9165 64.6587 41.6936 64.2942 42.2271 63.6827C42.7383 63.0967 42.9641 62.3574 42.9641 61.6636C42.9641 60.9698 42.7383 60.2306 42.2271 59.6446C41.6936 59.033 40.9165 58.6685 40.0042 58.6637L39.9899 61.3303C40.0906 61.3308 40.1436 61.3495 40.1659 61.3595C40.1882 61.3695 40.2035 61.3815 40.2176 61.3976C40.251 61.4358 40.2974 61.527 40.2974 61.6636C40.2974 61.8003 40.251 61.8914 40.2176 61.9297C40.2035 61.9458 40.1882 61.9577 40.1659 61.9677C40.1436 61.9777 40.0906 61.9964 39.9899 61.997L40.0042 64.6636ZM39.9899 58.6637C39.0775 58.6685 38.3005 59.033 37.767 59.6446C37.2558 60.2306 37.0299 60.9698 37.0299 61.6636C37.0299 62.3574 37.2558 63.0967 37.767 63.6827C38.3005 64.2942 39.0775 64.6587 39.9899 64.6636L40.0042 61.997C39.9035 61.9964 39.8505 61.9777 39.8282 61.9677C39.8058 61.9577 39.7905 61.9458 39.7765 61.9297C39.7431 61.8914 39.6966 61.8003 39.6966 61.6636C39.6966 61.527 39.7431 61.4358 39.7765 61.3976C39.7905 61.3815 39.8058 61.3695 39.8282 61.3595C39.8505 61.3495 39.9035 61.3308 40.0042 61.3303L39.9899 58.6637ZM21.2748 75.3328C19.4304 75.3328 17.8645 73.9501 17.6362 72.121L14.99 72.4513C15.385 75.6155 18.0858 77.9995 21.2748 77.9995V75.3328ZM58.7231 75.3328H21.2748V77.9995H58.7231V75.3328ZM62.3617 72.121C62.1334 73.9501 60.5675 75.3328 58.7231 75.3328V77.9995C61.9121 77.9995 64.6129 75.6155 65.0078 72.4513L62.3617 72.121ZM64.8617 52.1208L62.3617 72.1208L65.0078 72.4516L67.5078 52.4515L64.8617 52.1208ZM61.2482 47.9993C63.3546 47.9596 65.1723 50.0217 64.8658 52.0908L67.5037 52.4815C68.0539 48.7673 64.9383 45.2627 61.198 45.3331L61.2482 47.9993ZM18.7748 47.9995H61.2231V45.3328H18.7748V47.9995ZM15.1443 52.2105C15.0504 50.5575 15.6155 49.5541 16.3024 48.9427C17.036 48.2896 18.0073 47.9995 18.7748 47.9995V45.3328C17.4322 45.3328 15.8069 45.8135 14.5293 46.9509C13.2049 48.1299 12.3442 49.9365 12.4819 52.3618L15.1443 52.2105ZM17.6362 72.1208L15.1362 52.1208L12.4901 52.4515L14.9901 72.4516L17.6362 72.1208ZM39.9631 57.999C44.8278 58.1269 44.8212 65.2068 39.9634 65.3333L40.0328 67.999C48.3584 67.7822 48.3551 55.5521 40.0332 55.3333L39.9631 57.999ZM40.0332 65.3333C35.1685 65.2054 35.175 58.1256 40.0328 57.9991L39.9634 55.3333C31.6379 55.5501 31.641 67.7803 39.9631 67.999L40.0332 65.3333ZM39.9952 41.9982C37.4742 41.9982 35.1596 40.942 33.5234 39.1755L31.567 40.9876C33.6975 43.2877 36.7163 44.6649 39.9952 44.6649V41.9982ZM34.2909 44.6647C35.8151 44.6741 37.1594 44.6824 38.1641 44.6842C39.1141 44.6859 39.8737 44.6834 40.1267 44.6584L39.8638 42.0047C39.8756 42.0035 39.8471 42.0061 39.7442 42.0089C39.6541 42.0114 39.5332 42.0133 39.3811 42.0148C39.0776 42.0177 38.668 42.0185 38.1689 42.0176C37.1714 42.0158 35.8339 42.0075 34.3074 41.9981L34.2909 44.6647ZM17.7365 44.4042C17.5072 44.7164 17.2133 44.8177 17.2104 44.8188C17.1455 44.8446 17.1067 44.8517 17.121 44.8486C17.1442 44.8434 17.2184 44.8303 17.3654 44.8145C17.65 44.7837 18.0767 44.7558 18.6352 44.732C19.7448 44.6849 21.2815 44.6578 23.0381 44.6442C26.547 44.617 30.8747 44.6436 34.2909 44.6647L34.3074 41.9981C30.896 41.977 26.5485 41.9502 23.0174 41.9776C21.2539 41.9913 19.6795 42.0186 18.522 42.0678C17.947 42.0922 17.4512 42.123 17.0787 42.1632C16.8972 42.1829 16.7093 42.2084 16.5434 42.2452C16.4633 42.263 16.3482 42.292 16.2263 42.3404C16.1663 42.3642 15.8345 42.489 15.5873 42.8256L17.7365 44.4042ZM15.3286 40.7849V43.6149H17.9952V40.7849H15.3286ZM20.6726 32.1388C17.3788 33.7848 15.3286 37.1034 15.3286 40.7849H17.9952C17.9952 38.1131 19.475 35.7183 21.8646 34.5243L20.6726 32.1388ZM23.2789 30.8356L20.6723 32.139L21.8648 34.5241L24.4715 33.2208L23.2789 30.8356ZM33.0863 38.8629C29.6527 37.3382 26.8293 34.6934 25.0485 31.3948L22.702 32.6616C24.7578 36.4697 28.0211 39.5315 32.0041 41.3001L33.0863 38.8629ZM64.6688 43.6149V40.7849H62.0022V43.6149H64.6688ZM45.7364 44.6646C49.1465 44.6436 53.4551 44.617 56.9523 44.6442C58.703 44.6579 60.2358 44.685 61.3458 44.7321C61.9043 44.7559 62.3329 44.7838 62.6208 44.8146C62.7689 44.8305 62.8471 44.8438 62.875 44.8499C62.8911 44.8534 62.8585 44.8477 62.8009 44.8258C62.7952 44.8236 62.5414 44.7386 62.3208 44.4799L64.3502 42.7499C64.1088 42.4668 63.8145 42.3583 63.7493 42.3334C63.6321 42.2889 63.521 42.2614 63.4406 42.2439C63.2754 42.2081 63.0881 42.1828 62.9051 42.1632C62.5307 42.123 62.0342 42.0923 61.459 42.0679C60.3012 42.0187 58.7308 41.9914 56.9731 41.9777C53.4536 41.9502 49.125 41.977 45.7199 41.998L45.7364 44.6646ZM39.879 44.6592C40.1379 44.6832 40.8973 44.6859 41.8571 44.6842C42.8665 44.6824 44.2125 44.6741 45.7364 44.6646L45.7199 41.998C44.1936 42.0075 42.8544 42.0157 41.8523 42.0175C41.3509 42.0185 40.9381 42.0177 40.6306 42.0148C40.4766 42.0133 40.3532 42.0114 40.2603 42.0089C40.1567 42.0062 40.1212 42.0035 40.1253 42.0039L39.879 44.6592ZM46.474 39.1755C44.8378 40.942 42.5232 41.9982 40.0022 41.9982V44.6649C43.2811 44.6649 46.2999 43.2877 48.4304 40.9876L46.474 39.1755ZM54.9489 31.3948C53.1681 34.6934 50.3447 37.3382 46.9111 38.8629L47.9933 41.3001C51.9763 39.5315 55.2396 36.4697 57.2954 32.6616L54.9489 31.3948ZM59.3251 32.139L56.7185 30.8356L55.5259 33.2208L58.1326 34.5241L59.3251 32.139ZM64.6688 40.7849C64.6688 37.1034 62.6186 33.7848 59.3248 32.1388L58.1328 34.5243C60.5224 35.7183 62.0022 38.1131 62.0022 40.7849H64.6688Z" fill="url(#paint1_radial_5585_48064)" fill-opacity="0.6" mask="url(#path-1-inside-1_5585_48064)"/>
      <path d="M26.0438 22.9671L25.2109 21.9259L25.2101 21.9266L26.0438 22.9671ZM24.2855 23.1654L23.7029 24.3648L23.7117 24.369L24.2855 23.1654ZM33.4338 17.0554L34.1497 15.9305L33.3454 15.4187L32.6009 16.0142L33.4338 17.0554ZM56.6688 16.9354L55.3356 16.9168L55.3355 16.9261V16.9354H56.6688ZM43.0655 3.33206V4.6654L43.0685 4.66539L43.0655 3.33206ZM29.3005 6.69873L29.445 8.02421L29.8733 7.97752L30.1933 7.68907L29.3005 6.69873ZM23.3355 13.3321L22.0022 13.3314V13.3321H23.3355ZM25.3911 26.6329L25.284 25.3038L23.7506 25.4273L24.0907 26.9276L25.3911 26.6329ZM54.6061 26.6529L55.906 26.9495L56.2744 25.3346L54.6182 25.3196L54.6061 26.6529ZM28.1244 25.5695L27.2915 24.5284L27.2907 24.529L28.1244 25.5695ZM33.7077 21.1029L34.3604 19.9402L33.5767 19.5002L32.8748 20.0617L33.7077 21.1029ZM39.997 63.3303L39.9899 64.6636L39.997 64.6636L40.0042 64.6636L39.997 63.3303ZM39.997 59.997L40.0042 58.6637L39.997 58.6636L39.9899 58.6637L39.997 59.997ZM16.3131 72.2862L17.6362 72.121L17.6362 72.1208L16.3131 72.2862ZM63.6848 72.2862L62.3617 72.1208L62.3617 72.121L63.6848 72.2862ZM66.1848 52.2862L64.8658 52.0908L64.8636 52.1058L64.8617 52.1208L66.1848 52.2862ZM61.2231 46.6662V47.9995H61.2357L61.2482 47.9993L61.2231 46.6662ZM13.8131 52.2862L12.4819 52.3618L12.4845 52.4068L12.4901 52.4515L13.8131 52.2862ZM39.9981 56.6662L40.0332 55.3333L39.9983 55.3324L39.9634 55.3333L39.9981 56.6662ZM39.9981 66.6662L39.9631 67.999L39.998 68L40.0328 67.999L39.9981 66.6662ZM39.9952 43.3315L40.1267 44.6584L39.9952 41.9982V43.3315ZM32.5452 40.0815L33.5234 39.1755L33.337 38.9743L33.0863 38.8629L32.5452 40.0815ZM34.2991 43.3314L34.2909 44.6647H34.2909L34.2991 43.3314ZM16.6619 43.6149H15.3286V47.6825L17.7365 44.4042L16.6619 43.6149ZM21.2686 33.3315L21.8646 34.5243L21.8648 34.5241L21.2686 33.3315ZM23.8752 32.0282L25.0485 31.3948L24.4347 30.2578L23.2789 30.8356L23.8752 32.0282ZM63.3355 43.6149L62.3208 44.4799L64.6688 47.2341V43.6149H63.3355ZM45.7282 43.3313L45.7199 41.998L45.7282 43.3313ZM40.0022 43.3315V41.9982L39.879 44.6592L40.0022 43.3315ZM47.4522 40.0815L46.9111 38.8629L46.6604 38.9743L46.474 39.1755L47.4522 40.0815ZM56.1222 32.0282L56.7185 30.8356L55.5627 30.2578L54.9489 31.3948L56.1222 32.0282ZM58.7288 33.3315L58.1326 34.5241L58.1328 34.5243L58.7288 33.3315ZM25.2101 21.9266C25.1164 22.0017 24.9833 22.021 24.8593 21.9618L23.7117 24.369C24.7343 24.8565 25.9646 24.7391 26.8776 24.0076L25.2101 21.9266ZM32.6009 16.0142L25.2109 21.9259L26.8767 24.0082L34.2667 18.0966L32.6009 16.0142ZM55.0022 21.9987C47.5839 21.9987 40.3939 19.9043 34.1497 15.9305L32.718 18.1803C39.3904 22.4265 47.0771 24.6654 55.0022 24.6654V21.9987ZM55.3355 21.6654C55.3355 21.8457 55.1825 21.9987 55.0022 21.9987V24.6654C56.6552 24.6654 58.0022 23.3184 58.0022 21.6654H55.3355ZM55.3355 16.9354V21.6654H58.0022V16.9354H55.3355ZM43.0685 4.66539C49.6543 4.65037 55.4282 10.2785 55.3356 16.9168L58.002 16.954C58.1161 8.77228 51.0834 1.98043 43.0625 1.99874L43.0685 4.66539ZM38.0522 4.6654H43.0655V1.99873H38.0522V4.6654ZM30.1933 7.68907C32.3522 5.74286 35.1182 4.6654 38.0522 4.6654V1.99873C34.4528 1.99873 31.0521 3.3246 28.4078 5.70839L30.1933 7.68907ZM24.6688 13.3327C24.6702 10.6141 26.7517 8.31783 29.445 8.02421L29.156 5.37325C25.1227 5.81296 22.0042 9.24001 22.0022 13.3314L24.6688 13.3327ZM24.6688 21.6654V13.3321H22.0022V21.6654H24.6688ZM24.868 21.9661C24.7358 21.9018 24.6688 21.7792 24.6688 21.6654H22.0022C22.0022 22.8183 22.6685 23.8623 23.703 24.3647L24.868 21.9661ZM24.0907 26.9276C27.9063 43.7592 52.069 43.7666 55.906 26.9495L53.3061 26.3563C50.0998 40.4091 29.8791 40.3999 26.6914 26.3381L24.0907 26.9276ZM27.2907 24.529C26.7336 24.9754 26.0315 25.2436 25.284 25.3038L25.4981 27.9619C26.7373 27.8621 27.9552 27.4137 28.9581 26.61L27.2907 24.529ZM32.8748 20.0617L27.2915 24.5284L28.9573 26.6107L34.5407 22.144L32.8748 20.0617ZM54.6182 25.3196C47.4928 25.2549 40.5434 23.4113 34.3604 19.9402L33.055 22.2655C39.6321 25.9578 47.0226 27.9175 54.594 27.9861L54.6182 25.3196ZM40.0042 64.6636C40.9165 64.6587 41.6936 64.2942 42.2271 63.6827C42.7383 63.0967 42.9641 62.3574 42.9641 61.6636C42.9641 60.9698 42.7383 60.2306 42.2271 59.6446C41.6936 59.033 40.9165 58.6685 40.0042 58.6637L39.9899 61.3303C40.0906 61.3308 40.1436 61.3495 40.1659 61.3595C40.1882 61.3695 40.2035 61.3815 40.2176 61.3976C40.251 61.4358 40.2974 61.527 40.2974 61.6636C40.2974 61.8003 40.251 61.8914 40.2176 61.9297C40.2035 61.9458 40.1882 61.9577 40.1659 61.9677C40.1436 61.9777 40.0906 61.9964 39.9899 61.997L40.0042 64.6636ZM39.9899 58.6637C39.0775 58.6685 38.3005 59.033 37.767 59.6446C37.2558 60.2306 37.0299 60.9698 37.0299 61.6636C37.0299 62.3574 37.2558 63.0967 37.767 63.6827C38.3005 64.2942 39.0775 64.6587 39.9899 64.6636L40.0042 61.997C39.9035 61.9964 39.8505 61.9777 39.8282 61.9677C39.8058 61.9577 39.7905 61.9458 39.7765 61.9297C39.7431 61.8914 39.6966 61.8003 39.6966 61.6636C39.6966 61.527 39.7431 61.4358 39.7765 61.3976C39.7905 61.3815 39.8058 61.3695 39.8282 61.3595C39.8505 61.3495 39.9035 61.3308 40.0042 61.3303L39.9899 58.6637ZM21.2748 75.3328C19.4304 75.3328 17.8645 73.9501 17.6362 72.121L14.99 72.4513C15.385 75.6155 18.0858 77.9995 21.2748 77.9995V75.3328ZM58.7231 75.3328H21.2748V77.9995H58.7231V75.3328ZM62.3617 72.121C62.1334 73.9501 60.5675 75.3328 58.7231 75.3328V77.9995C61.9121 77.9995 64.6129 75.6155 65.0078 72.4513L62.3617 72.121ZM64.8617 52.1208L62.3617 72.1208L65.0078 72.4516L67.5078 52.4515L64.8617 52.1208ZM61.2482 47.9993C63.3546 47.9596 65.1723 50.0217 64.8658 52.0908L67.5037 52.4815C68.0539 48.7673 64.9383 45.2627 61.198 45.3331L61.2482 47.9993ZM18.7748 47.9995H61.2231V45.3328H18.7748V47.9995ZM15.1443 52.2105C15.0504 50.5575 15.6155 49.5541 16.3024 48.9427C17.036 48.2896 18.0073 47.9995 18.7748 47.9995V45.3328C17.4322 45.3328 15.8069 45.8135 14.5293 46.9509C13.2049 48.1299 12.3442 49.9365 12.4819 52.3618L15.1443 52.2105ZM17.6362 72.1208L15.1362 52.1208L12.4901 52.4515L14.9901 72.4516L17.6362 72.1208ZM39.9631 57.999C44.8278 58.1269 44.8212 65.2068 39.9634 65.3333L40.0328 67.999C48.3584 67.7822 48.3551 55.5521 40.0332 55.3333L39.9631 57.999ZM40.0332 65.3333C35.1685 65.2054 35.175 58.1256 40.0328 57.9991L39.9634 55.3333C31.6379 55.5501 31.641 67.7803 39.9631 67.999L40.0332 65.3333ZM39.9952 41.9982C37.4742 41.9982 35.1596 40.942 33.5234 39.1755L31.567 40.9876C33.6975 43.2877 36.7163 44.6649 39.9952 44.6649V41.9982ZM34.2909 44.6647C35.8151 44.6741 37.1594 44.6824 38.1641 44.6842C39.1141 44.6859 39.8737 44.6834 40.1267 44.6584L39.8638 42.0047C39.8756 42.0035 39.8471 42.0061 39.7442 42.0089C39.6541 42.0114 39.5332 42.0133 39.3811 42.0148C39.0776 42.0177 38.668 42.0185 38.1689 42.0176C37.1714 42.0158 35.8339 42.0075 34.3074 41.9981L34.2909 44.6647ZM17.7365 44.4042C17.5072 44.7164 17.2133 44.8177 17.2104 44.8188C17.1455 44.8446 17.1067 44.8517 17.121 44.8486C17.1442 44.8434 17.2184 44.8303 17.3654 44.8145C17.65 44.7837 18.0767 44.7558 18.6352 44.732C19.7448 44.6849 21.2815 44.6578 23.0381 44.6442C26.547 44.617 30.8747 44.6436 34.2909 44.6647L34.3074 41.9981C30.896 41.977 26.5485 41.9502 23.0174 41.9776C21.2539 41.9913 19.6795 42.0186 18.522 42.0678C17.947 42.0922 17.4512 42.123 17.0787 42.1632C16.8972 42.1829 16.7093 42.2084 16.5434 42.2452C16.4633 42.263 16.3482 42.292 16.2263 42.3404C16.1663 42.3642 15.8345 42.489 15.5873 42.8256L17.7365 44.4042ZM15.3286 40.7849V43.6149H17.9952V40.7849H15.3286ZM20.6726 32.1388C17.3788 33.7848 15.3286 37.1034 15.3286 40.7849H17.9952C17.9952 38.1131 19.475 35.7183 21.8646 34.5243L20.6726 32.1388ZM23.2789 30.8356L20.6723 32.139L21.8648 34.5241L24.4715 33.2208L23.2789 30.8356ZM33.0863 38.8629C29.6527 37.3382 26.8293 34.6934 25.0485 31.3948L22.702 32.6616C24.7578 36.4697 28.0211 39.5315 32.0041 41.3001L33.0863 38.8629ZM64.6688 43.6149V40.7849H62.0022V43.6149H64.6688ZM45.7364 44.6646C49.1465 44.6436 53.4551 44.617 56.9523 44.6442C58.703 44.6579 60.2358 44.685 61.3458 44.7321C61.9043 44.7559 62.3329 44.7838 62.6208 44.8146C62.7689 44.8305 62.8471 44.8438 62.875 44.8499C62.8911 44.8534 62.8585 44.8477 62.8009 44.8258C62.7952 44.8236 62.5414 44.7386 62.3208 44.4799L64.3502 42.7499C64.1088 42.4668 63.8145 42.3583 63.7493 42.3334C63.6321 42.2889 63.521 42.2614 63.4406 42.2439C63.2754 42.2081 63.0881 42.1828 62.9051 42.1632C62.5307 42.123 62.0342 42.0923 61.459 42.0679C60.3012 42.0187 58.7308 41.9914 56.9731 41.9777C53.4536 41.9502 49.125 41.977 45.7199 41.998L45.7364 44.6646ZM39.879 44.6592C40.1379 44.6832 40.8973 44.6859 41.8571 44.6842C42.8665 44.6824 44.2125 44.6741 45.7364 44.6646L45.7199 41.998C44.1936 42.0075 42.8544 42.0157 41.8523 42.0175C41.3509 42.0185 40.9381 42.0177 40.6306 42.0148C40.4766 42.0133 40.3532 42.0114 40.2603 42.0089C40.1567 42.0062 40.1212 42.0035 40.1253 42.0039L39.879 44.6592ZM46.474 39.1755C44.8378 40.942 42.5232 41.9982 40.0022 41.9982V44.6649C43.2811 44.6649 46.2999 43.2877 48.4304 40.9876L46.474 39.1755ZM54.9489 31.3948C53.1681 34.6934 50.3447 37.3382 46.9111 38.8629L47.9933 41.3001C51.9763 39.5315 55.2396 36.4697 57.2954 32.6616L54.9489 31.3948ZM59.3251 32.139L56.7185 30.8356L55.5259 33.2208L58.1326 34.5241L59.3251 32.139ZM64.6688 40.7849C64.6688 37.1034 62.6186 33.7848 59.3248 32.1388L58.1328 34.5243C60.5224 35.7183 62.0022 38.1131 62.0022 40.7849H64.6688Z" fill="url(#paint2_radial_5585_48064)" fill-opacity="0.3" mask="url(#path-1-inside-1_5585_48064)"/>
    </g>
  </g>
  <defs>
    <filter id="filter0_bd_5585_48064" x="-652.866" y="-663.335" width="1385.76" height="1406.67" filterUnits="userSpaceOnUse" color-interpolation-filters="sRGB">
      <feFlood flood-opacity="0" result="BackgroundImageFix"/>
      <feGaussianBlur in="BackgroundImageFix" stdDeviation="333.333"/>
      <feComposite in2="SourceAlpha" operator="in" result="effect1_backgroundBlur_5585_48064"/>
      <feColorMatrix in="SourceAlpha" type="matrix" values="0 0 0 0 0 0 0 0 0 0 0 0 0 0 0 0 0 0 127 0" result="hardAlpha"/>
      <feOffset dy="2.66667"/>
      <feGaussianBlur stdDeviation="1.33333"/>
      <feComposite in2="hardAlpha" operator="out"/>
      <feColorMatrix type="matrix" values="0 0 0 0 0 0 0 0 0 0 0 0 0 0 0 0 0 0 0.25 0"/>
      <feBlend mode="normal" in2="effect1_backgroundBlur_5585_48064" result="effect2_dropShadow_5585_48064"/>
      <feBlend mode="normal" in="SourceGraphic" in2="effect2_dropShadow_5585_48064" result="shape"/>
    </filter>
    <linearGradient id="paint0_linear_5585_48064" x1="15.9643" y1="5.22094" x2="58.8885" y2="84.0257" gradientUnits="userSpaceOnUse">
      <stop stop-color="white" stop-opacity="0.6"/>
      <stop offset="1" stop-color="white" stop-opacity="0"/>
    </linearGradient>
    <radialGradient id="paint1_radial_5585_48064" cx="0" cy="0" r="1" gradientUnits="userSpaceOnUse" gradientTransform="translate(40.0171 3.99871) rotate(90) scale(63.6674 45.521)">
      <stop stop-color="white"/>
      <stop offset="1" stop-color="white" stop-opacity="0"/>
    </radialGradient>
    <radialGradient id="paint2_radial_5585_48064" cx="0" cy="0" r="1" gradientUnits="userSpaceOnUse" gradientTransform="translate(40.0171 76.6662) rotate(-90) scale(36.6671 26.2163)">
      <stop stop-color="white"/>
      <stop offset="1" stop-color="white" stop-opacity="0"/>
    </radialGradient>
    <clipPath id="clip0_5585_48064">
      <rect width="80" height="80" fill="white"/>
    </clipPath>
  </defs>
</svg>
