<svg xmlns="http://www.w3.org/2000/svg" width="80" height="80" viewBox="0 0 80 80" fill="none">
  <g clip-path="url(#clip0_5578_118969)">
    <g filter="url(#filter0_bd_5578_118969)">
      <mask id="path-1-inside-1_5578_118969" fill="white">
        <path fill-rule="evenodd" clip-rule="evenodd" d="M34.4054 41.5615H38.7657V25.3922C35.4459 24.6984 32.9189 21.2301 32.9189 17.0515C32.9189 16.3744 33.464 15.8128 34.1576 15.8128C34.8346 15.8128 35.3963 16.3744 35.3963 17.0515C35.3963 20.3547 37.4608 23.0468 40.0044 23.0468C42.5479 23.0468 44.6124 20.3547 44.6124 17.0515C44.6124 16.3744 45.1572 15.8128 45.8511 15.8128C46.5282 15.8128 47.0899 16.3744 47.0899 17.0515C47.0899 21.2136 44.5628 24.6819 41.2431 25.3922V41.5615H45.6197C45.9501 37.2508 48.0146 33.2703 51.1032 30.1653C53.8943 27.3411 55.6286 23.4432 55.6286 19.1656C55.6286 9.96609 47.6511 2.61639 38.2205 3.64038C31.1681 4.41669 25.3709 10.1148 24.4957 17.1836C23.8515 22.4523 25.8334 27.2915 29.3019 30.5452C32.3572 33.419 34.108 37.3994 34.4054 41.5615ZM48.0225 42.8492V47.4076C48.0225 49.8356 46.0404 51.8175 43.5961 51.8175H41.2344V66.9628C50.7973 64.3037 60.013 63.5934 68.6676 65.8892C70.8477 66.4673 72.9618 64.7992 72.9618 62.553V29.0582C72.9618 27.5717 72.0203 26.2835 70.633 25.7881C66.2561 24.186 61.9291 23.2941 57.6678 23.1289C56.9247 26.4321 55.2731 29.4546 52.8453 31.9155C49.74 35.0371 48.0225 38.9349 48.0225 42.8492ZM67.7086 57.1662C67.5094 57.6388 67.0497 57.9243 66.5658 57.9243C66.4062 57.9243 66.2432 57.8936 66.0868 57.8275C59.4295 55.0291 52.9755 55.0227 46.9037 57.8114C46.2803 58.1017 45.5473 57.8243 45.261 57.2017C44.9755 56.5807 45.2481 55.8452 45.8699 55.5598C52.6013 52.4694 59.7279 52.4662 67.0465 55.5436C67.6771 55.8098 67.9739 56.5356 67.7086 57.1662ZM67.7086 46.7839C67.5094 47.2565 67.0497 47.542 66.5658 47.542C66.4062 47.542 66.2432 47.5114 66.086 47.4452C61.4207 45.4823 56.84 44.8823 52.4828 45.6598C51.8053 45.7775 51.165 45.3323 51.0457 44.6581C50.9255 43.9839 51.3739 43.3404 52.0473 43.221C56.8884 42.3533 61.9344 43.0114 67.0473 45.1614C67.6771 45.4275 67.9739 46.1533 67.7086 46.7839ZM56.4892 32.4678C59.9263 32.5017 63.4787 33.2791 67.0465 34.7791C67.6771 35.0436 67.9739 35.771 67.7086 36.4017C67.5094 36.8743 67.0497 37.1598 66.5658 37.1598C66.4062 37.1598 66.2432 37.1291 66.0868 37.063C62.8166 35.6888 59.5795 34.9759 56.465 34.9452C55.7812 34.9388 55.232 34.3791 55.2384 33.6936C55.2449 33.0098 55.8489 32.442 56.4892 32.4678ZM75.4451 30.5605V62.5524C75.4451 66.4336 71.7786 69.2744 68.0459 68.2834C64.7923 67.4246 61.3072 66.9787 57.7068 66.9787C49.9171 66.9787 42.5914 69.1302 40.5314 69.7352L40.5308 69.7354C40.2587 69.8153 40.0786 69.8682 40.0016 69.8855C30.5872 67.1603 21.4044 65.7895 11.9407 68.2834C8.307 69.2909 4.55801 66.4831 4.55801 62.5524V30.5605C2.87334 30.8083 1.60156 32.2452 1.60156 33.9794V67.821C1.60156 69.7203 3.13745 71.2728 5.05338 71.2728H32.1068C33.6096 71.2728 35.0137 72.0986 35.6413 73.453C36.4671 75.2202 38.2673 76.4589 40.3483 76.4589C42.4129 76.4589 44.2131 75.2368 45.0225 73.453C45.6665 72.0986 47.054 71.2728 48.5568 71.2728H74.9495C76.8489 71.2728 78.4016 69.7203 78.4016 67.821V33.9794C78.4016 32.2452 77.1133 30.8083 75.4451 30.5605ZM38.7665 66.9628C29.2036 64.3037 19.9709 63.5934 11.3165 65.8892C9.15298 66.4673 7.03906 64.7992 7.03906 62.553V29.0582C7.03906 27.5717 7.98039 26.2835 9.36769 25.7881C13.761 24.186 18.0883 23.2941 22.3493 23.1289C23.1092 26.6139 24.9094 29.818 27.6016 32.3449C30.3762 34.9545 31.9782 38.7863 31.9782 42.8492V47.4076C31.9782 49.8356 33.9602 51.8175 36.3881 51.8175H38.7665V66.9628ZM23.5068 32.4678C20.0697 32.5017 16.5173 33.2791 12.9495 34.7791C12.3189 35.0436 12.0221 35.771 12.2875 36.4017C12.4866 36.8743 12.9463 37.1598 13.4302 37.1598C13.5899 37.1598 13.7528 37.1291 13.9092 37.063C17.1794 35.6888 20.4165 34.9759 23.531 34.9452C24.2149 34.9388 24.7641 34.3791 24.7576 33.6936C24.7504 33.0098 24.1391 32.4098 23.5068 32.4678ZM27.9487 43.221C23.1044 42.3549 18.0625 43.0114 12.9487 45.1614C12.3189 45.4275 12.0221 46.1533 12.2875 46.7839C12.4866 47.2581 12.9463 47.542 13.4302 47.542C13.5899 47.542 13.7528 47.5114 13.91 47.4452C18.5745 45.4823 23.1504 44.8823 27.5133 45.6598C28.1939 45.7791 28.831 45.3323 28.9504 44.6581C29.0705 43.9839 28.6221 43.3404 27.9487 43.221ZM34.1262 55.5598C27.3971 52.4694 20.2705 52.463 12.9495 55.5436C12.3189 55.8098 12.0221 56.5356 12.2875 57.1662C12.4866 57.6404 12.9463 57.9243 13.4302 57.9243C13.5899 57.9243 13.7528 57.8936 13.9092 57.8275C20.5665 55.0275 27.0189 55.0227 33.0923 57.8114C33.7165 58.1001 34.4496 57.8227 34.735 57.2017C35.0205 56.5807 34.7479 55.8452 34.1262 55.5598ZM45.5385 44.0391V47.4069C45.5385 48.476 44.6717 49.3427 43.6028 49.3427H36.381C35.312 49.3427 34.4453 48.476 34.4453 47.4069V44.0391H45.5385Z"/>
      </mask>
      <path fill-rule="evenodd" clip-rule="evenodd" d="M34.4054 41.5615H38.7657V25.3922C35.4459 24.6984 32.9189 21.2301 32.9189 17.0515C32.9189 16.3744 33.464 15.8128 34.1576 15.8128C34.8346 15.8128 35.3963 16.3744 35.3963 17.0515C35.3963 20.3547 37.4608 23.0468 40.0044 23.0468C42.5479 23.0468 44.6124 20.3547 44.6124 17.0515C44.6124 16.3744 45.1572 15.8128 45.8511 15.8128C46.5282 15.8128 47.0899 16.3744 47.0899 17.0515C47.0899 21.2136 44.5628 24.6819 41.2431 25.3922V41.5615H45.6197C45.9501 37.2508 48.0146 33.2703 51.1032 30.1653C53.8943 27.3411 55.6286 23.4432 55.6286 19.1656C55.6286 9.96609 47.6511 2.61639 38.2205 3.64038C31.1681 4.41669 25.3709 10.1148 24.4957 17.1836C23.8515 22.4523 25.8334 27.2915 29.3019 30.5452C32.3572 33.419 34.108 37.3994 34.4054 41.5615ZM48.0225 42.8492V47.4076C48.0225 49.8356 46.0404 51.8175 43.5961 51.8175H41.2344V66.9628C50.7973 64.3037 60.013 63.5934 68.6676 65.8892C70.8477 66.4673 72.9618 64.7992 72.9618 62.553V29.0582C72.9618 27.5717 72.0203 26.2835 70.633 25.7881C66.2561 24.186 61.9291 23.2941 57.6678 23.1289C56.9247 26.4321 55.2731 29.4546 52.8453 31.9155C49.74 35.0371 48.0225 38.9349 48.0225 42.8492ZM67.7086 57.1662C67.5094 57.6388 67.0497 57.9243 66.5658 57.9243C66.4062 57.9243 66.2432 57.8936 66.0868 57.8275C59.4295 55.0291 52.9755 55.0227 46.9037 57.8114C46.2803 58.1017 45.5473 57.8243 45.261 57.2017C44.9755 56.5807 45.2481 55.8452 45.8699 55.5598C52.6013 52.4694 59.7279 52.4662 67.0465 55.5436C67.6771 55.8098 67.9739 56.5356 67.7086 57.1662ZM67.7086 46.7839C67.5094 47.2565 67.0497 47.542 66.5658 47.542C66.4062 47.542 66.2432 47.5114 66.086 47.4452C61.4207 45.4823 56.84 44.8823 52.4828 45.6598C51.8053 45.7775 51.165 45.3323 51.0457 44.6581C50.9255 43.9839 51.3739 43.3404 52.0473 43.221C56.8884 42.3533 61.9344 43.0114 67.0473 45.1614C67.6771 45.4275 67.9739 46.1533 67.7086 46.7839ZM56.4892 32.4678C59.9263 32.5017 63.4787 33.2791 67.0465 34.7791C67.6771 35.0436 67.9739 35.771 67.7086 36.4017C67.5094 36.8743 67.0497 37.1598 66.5658 37.1598C66.4062 37.1598 66.2432 37.1291 66.0868 37.063C62.8166 35.6888 59.5795 34.9759 56.465 34.9452C55.7812 34.9388 55.232 34.3791 55.2384 33.6936C55.2449 33.0098 55.8489 32.442 56.4892 32.4678ZM75.4451 30.5605V62.5524C75.4451 66.4336 71.7786 69.2744 68.0459 68.2834C64.7923 67.4246 61.3072 66.9787 57.7068 66.9787C49.9171 66.9787 42.5914 69.1302 40.5314 69.7352L40.5308 69.7354C40.2587 69.8153 40.0786 69.8682 40.0016 69.8855C30.5872 67.1603 21.4044 65.7895 11.9407 68.2834C8.307 69.2909 4.55801 66.4831 4.55801 62.5524V30.5605C2.87334 30.8083 1.60156 32.2452 1.60156 33.9794V67.821C1.60156 69.7203 3.13745 71.2728 5.05338 71.2728H32.1068C33.6096 71.2728 35.0137 72.0986 35.6413 73.453C36.4671 75.2202 38.2673 76.4589 40.3483 76.4589C42.4129 76.4589 44.2131 75.2368 45.0225 73.453C45.6665 72.0986 47.054 71.2728 48.5568 71.2728H74.9495C76.8489 71.2728 78.4016 69.7203 78.4016 67.821V33.9794C78.4016 32.2452 77.1133 30.8083 75.4451 30.5605ZM38.7665 66.9628C29.2036 64.3037 19.9709 63.5934 11.3165 65.8892C9.15298 66.4673 7.03906 64.7992 7.03906 62.553V29.0582C7.03906 27.5717 7.98039 26.2835 9.36769 25.7881C13.761 24.186 18.0883 23.2941 22.3493 23.1289C23.1092 26.6139 24.9094 29.818 27.6016 32.3449C30.3762 34.9545 31.9782 38.7863 31.9782 42.8492V47.4076C31.9782 49.8356 33.9602 51.8175 36.3881 51.8175H38.7665V66.9628ZM23.5068 32.4678C20.0697 32.5017 16.5173 33.2791 12.9495 34.7791C12.3189 35.0436 12.0221 35.771 12.2875 36.4017C12.4866 36.8743 12.9463 37.1598 13.4302 37.1598C13.5899 37.1598 13.7528 37.1291 13.9092 37.063C17.1794 35.6888 20.4165 34.9759 23.531 34.9452C24.2149 34.9388 24.7641 34.3791 24.7576 33.6936C24.7504 33.0098 24.1391 32.4098 23.5068 32.4678ZM27.9487 43.221C23.1044 42.3549 18.0625 43.0114 12.9487 45.1614C12.3189 45.4275 12.0221 46.1533 12.2875 46.7839C12.4866 47.2581 12.9463 47.542 13.4302 47.542C13.5899 47.542 13.7528 47.5114 13.91 47.4452C18.5745 45.4823 23.1504 44.8823 27.5133 45.6598C28.1939 45.7791 28.831 45.3323 28.9504 44.6581C29.0705 43.9839 28.6221 43.3404 27.9487 43.221ZM34.1262 55.5598C27.3971 52.4694 20.2705 52.463 12.9495 55.5436C12.3189 55.8098 12.0221 56.5356 12.2875 57.1662C12.4866 57.6404 12.9463 57.9243 13.4302 57.9243C13.5899 57.9243 13.7528 57.8936 13.9092 57.8275C20.5665 55.0275 27.0189 55.0227 33.0923 57.8114C33.7165 58.1001 34.4496 57.8227 34.735 57.2017C35.0205 56.5807 34.7479 55.8452 34.1262 55.5598ZM45.5385 44.0391V47.4069C45.5385 48.476 44.6717 49.3427 43.6028 49.3427H36.381C35.312 49.3427 34.4453 48.476 34.4453 47.4069V44.0391H45.5385Z" fill="url(#paint0_linear_5578_118969)" fill-opacity="0.8" shape-rendering="crispEdges"/>
      <path fill-rule="evenodd" clip-rule="evenodd" d="M34.4054 41.5615H38.7657V25.3922C35.4459 24.6984 32.9189 21.2301 32.9189 17.0515C32.9189 16.3744 33.464 15.8128 34.1576 15.8128C34.8346 15.8128 35.3963 16.3744 35.3963 17.0515C35.3963 20.3547 37.4608 23.0468 40.0044 23.0468C42.5479 23.0468 44.6124 20.3547 44.6124 17.0515C44.6124 16.3744 45.1572 15.8128 45.8511 15.8128C46.5282 15.8128 47.0899 16.3744 47.0899 17.0515C47.0899 21.2136 44.5628 24.6819 41.2431 25.3922V41.5615H45.6197C45.9501 37.2508 48.0146 33.2703 51.1032 30.1653C53.8943 27.3411 55.6286 23.4432 55.6286 19.1656C55.6286 9.96609 47.6511 2.61639 38.2205 3.64038C31.1681 4.41669 25.3709 10.1148 24.4957 17.1836C23.8515 22.4523 25.8334 27.2915 29.3019 30.5452C32.3572 33.419 34.108 37.3994 34.4054 41.5615ZM48.0225 42.8492V47.4076C48.0225 49.8356 46.0404 51.8175 43.5961 51.8175H41.2344V66.9628C50.7973 64.3037 60.013 63.5934 68.6676 65.8892C70.8477 66.4673 72.9618 64.7992 72.9618 62.553V29.0582C72.9618 27.5717 72.0203 26.2835 70.633 25.7881C66.2561 24.186 61.9291 23.2941 57.6678 23.1289C56.9247 26.4321 55.2731 29.4546 52.8453 31.9155C49.74 35.0371 48.0225 38.9349 48.0225 42.8492ZM67.7086 57.1662C67.5094 57.6388 67.0497 57.9243 66.5658 57.9243C66.4062 57.9243 66.2432 57.8936 66.0868 57.8275C59.4295 55.0291 52.9755 55.0227 46.9037 57.8114C46.2803 58.1017 45.5473 57.8243 45.261 57.2017C44.9755 56.5807 45.2481 55.8452 45.8699 55.5598C52.6013 52.4694 59.7279 52.4662 67.0465 55.5436C67.6771 55.8098 67.9739 56.5356 67.7086 57.1662ZM67.7086 46.7839C67.5094 47.2565 67.0497 47.542 66.5658 47.542C66.4062 47.542 66.2432 47.5114 66.086 47.4452C61.4207 45.4823 56.84 44.8823 52.4828 45.6598C51.8053 45.7775 51.165 45.3323 51.0457 44.6581C50.9255 43.9839 51.3739 43.3404 52.0473 43.221C56.8884 42.3533 61.9344 43.0114 67.0473 45.1614C67.6771 45.4275 67.9739 46.1533 67.7086 46.7839ZM56.4892 32.4678C59.9263 32.5017 63.4787 33.2791 67.0465 34.7791C67.6771 35.0436 67.9739 35.771 67.7086 36.4017C67.5094 36.8743 67.0497 37.1598 66.5658 37.1598C66.4062 37.1598 66.2432 37.1291 66.0868 37.063C62.8166 35.6888 59.5795 34.9759 56.465 34.9452C55.7812 34.9388 55.232 34.3791 55.2384 33.6936C55.2449 33.0098 55.8489 32.442 56.4892 32.4678ZM75.4451 30.5605V62.5524C75.4451 66.4336 71.7786 69.2744 68.0459 68.2834C64.7923 67.4246 61.3072 66.9787 57.7068 66.9787C49.9171 66.9787 42.5914 69.1302 40.5314 69.7352L40.5308 69.7354C40.2587 69.8153 40.0786 69.8682 40.0016 69.8855C30.5872 67.1603 21.4044 65.7895 11.9407 68.2834C8.307 69.2909 4.55801 66.4831 4.55801 62.5524V30.5605C2.87334 30.8083 1.60156 32.2452 1.60156 33.9794V67.821C1.60156 69.7203 3.13745 71.2728 5.05338 71.2728H32.1068C33.6096 71.2728 35.0137 72.0986 35.6413 73.453C36.4671 75.2202 38.2673 76.4589 40.3483 76.4589C42.4129 76.4589 44.2131 75.2368 45.0225 73.453C45.6665 72.0986 47.054 71.2728 48.5568 71.2728H74.9495C76.8489 71.2728 78.4016 69.7203 78.4016 67.821V33.9794C78.4016 32.2452 77.1133 30.8083 75.4451 30.5605ZM38.7665 66.9628C29.2036 64.3037 19.9709 63.5934 11.3165 65.8892C9.15298 66.4673 7.03906 64.7992 7.03906 62.553V29.0582C7.03906 27.5717 7.98039 26.2835 9.36769 25.7881C13.761 24.186 18.0883 23.2941 22.3493 23.1289C23.1092 26.6139 24.9094 29.818 27.6016 32.3449C30.3762 34.9545 31.9782 38.7863 31.9782 42.8492V47.4076C31.9782 49.8356 33.9602 51.8175 36.3881 51.8175H38.7665V66.9628ZM23.5068 32.4678C20.0697 32.5017 16.5173 33.2791 12.9495 34.7791C12.3189 35.0436 12.0221 35.771 12.2875 36.4017C12.4866 36.8743 12.9463 37.1598 13.4302 37.1598C13.5899 37.1598 13.7528 37.1291 13.9092 37.063C17.1794 35.6888 20.4165 34.9759 23.531 34.9452C24.2149 34.9388 24.7641 34.3791 24.7576 33.6936C24.7504 33.0098 24.1391 32.4098 23.5068 32.4678ZM27.9487 43.221C23.1044 42.3549 18.0625 43.0114 12.9487 45.1614C12.3189 45.4275 12.0221 46.1533 12.2875 46.7839C12.4866 47.2581 12.9463 47.542 13.4302 47.542C13.5899 47.542 13.7528 47.5114 13.91 47.4452C18.5745 45.4823 23.1504 44.8823 27.5133 45.6598C28.1939 45.7791 28.831 45.3323 28.9504 44.6581C29.0705 43.9839 28.6221 43.3404 27.9487 43.221ZM34.1262 55.5598C27.3971 52.4694 20.2705 52.463 12.9495 55.5436C12.3189 55.8098 12.0221 56.5356 12.2875 57.1662C12.4866 57.6404 12.9463 57.9243 13.4302 57.9243C13.5899 57.9243 13.7528 57.8936 13.9092 57.8275C20.5665 55.0275 27.0189 55.0227 33.0923 57.8114C33.7165 58.1001 34.4496 57.8227 34.735 57.2017C35.0205 56.5807 34.7479 55.8452 34.1262 55.5598ZM45.5385 44.0391V47.4069C45.5385 48.476 44.6717 49.3427 43.6028 49.3427H36.381C35.312 49.3427 34.4453 48.476 34.4453 47.4069V44.0391H45.5385Z" fill="#344254" fill-opacity="0.15" shape-rendering="crispEdges"/>
      <path d="M38.7657 41.5615V42.8948H40.099V41.5615H38.7657ZM34.4054 41.5615L33.0754 41.6565L33.1639 42.8948H34.4054V41.5615ZM38.7657 25.3922H40.099V24.3087L39.0384 24.0871L38.7657 25.3922ZM41.2431 25.3922L40.9641 24.0884L39.9097 24.314V25.3922H41.2431ZM41.2431 41.5615H39.9097V42.8948H41.2431V41.5615ZM45.6197 41.5615V42.8948H46.8547L46.9491 41.6634L45.6197 41.5615ZM51.1032 30.1653L52.0485 31.1056L52.0515 31.1025L51.1032 30.1653ZM38.2205 3.64038L38.0766 2.31484L38.0746 2.31506L38.2205 3.64038ZM24.4957 17.1836L23.1725 17.0198L23.1722 17.0218L24.4957 17.1836ZM29.3019 30.5452L30.2155 29.574L30.2142 29.5728L29.3019 30.5452ZM41.2344 51.8175V50.4842H39.901V51.8175H41.2344ZM41.2344 66.9628H39.901V68.7174L41.5916 68.2474L41.2344 66.9628ZM68.6676 65.8892L68.3258 67.1779L68.3259 67.178L68.6676 65.8892ZM70.633 25.7881L70.1746 27.0402L70.1845 27.0437L70.633 25.7881ZM57.6678 23.1289L57.7195 21.7966L56.6106 21.7536L56.367 22.8363L57.6678 23.1289ZM52.8453 31.9155L53.7906 32.8558L53.7944 32.8519L52.8453 31.9155ZM67.7086 57.1662L68.9372 57.6841L68.9376 57.6833L67.7086 57.1662ZM66.0868 57.8275L66.6059 56.5994L66.6035 56.5983L66.0868 57.8275ZM46.9037 57.8114L46.3472 56.5997L46.3408 56.6027L46.9037 57.8114ZM45.261 57.2017L44.0495 57.7586L44.0496 57.7587L45.261 57.2017ZM45.8699 55.5598L45.3136 54.348L45.3135 54.348L45.8699 55.5598ZM67.0465 55.5436L67.5649 54.3152L67.5633 54.3145L67.0465 55.5436ZM67.7086 46.7839L68.9372 47.3018L68.9376 47.301L67.7086 46.7839ZM66.086 47.4452L65.5689 48.6742L65.5691 48.6743L66.086 47.4452ZM52.4828 45.6598L52.7111 46.9734L52.717 46.9724L52.4828 45.6598ZM51.0457 44.6581L52.3586 44.4257L52.3583 44.4242L51.0457 44.6581ZM52.0473 43.221L52.28 44.5339L52.2825 44.5335L52.0473 43.221ZM67.0473 45.1614L67.5662 43.9332L67.5641 43.9323L67.0473 45.1614ZM67.0465 34.7791L66.5297 36.0082L66.5308 36.0087L67.0465 34.7791ZM56.4892 32.4678L56.4355 33.8001L56.4558 33.8009L56.4761 33.8011L56.4892 32.4678ZM67.7086 36.4017L68.9372 36.9196L68.9376 36.9187L67.7086 36.4017ZM66.0868 37.063L66.6059 35.8349L66.6033 35.8338L66.0868 37.063ZM56.465 34.9452L56.4781 33.612L56.4776 33.612L56.465 34.9452ZM55.2384 33.6936L53.9051 33.681V33.6811L55.2384 33.6936ZM75.4451 30.5605L75.641 29.2417L74.1118 29.0145V30.5605H75.4451ZM68.0459 68.2834L68.388 66.9947L68.3862 66.9943L68.0459 68.2834ZM40.5314 69.7352L40.1557 68.4558L40.1424 68.4599L40.5314 69.7352ZM40.5308 69.7354L40.9065 71.0148L40.9198 71.0107L40.5308 69.7354ZM40.0016 69.8855L39.6308 71.1663L39.96 71.2616L40.2944 71.1863L40.0016 69.8855ZM11.9407 68.2834L11.6009 66.9941L11.5927 66.9963L11.5844 66.9986L11.9407 68.2834ZM4.55801 30.5605H5.89135V29.0168L4.36399 29.2414L4.55801 30.5605ZM35.6413 73.453L34.4315 74.0136L34.4333 74.0174L35.6413 73.453ZM45.0225 73.453L43.8184 72.8804L43.8133 72.8912L43.8084 72.902L45.0225 73.453ZM11.3165 65.8892L10.9746 64.6004L10.9723 64.6011L11.3165 65.8892ZM38.7665 66.9628L38.4093 68.2474L40.0998 68.7174V66.9628H38.7665ZM7.03906 62.553H5.70573H7.03906ZM9.36769 25.7881L9.81615 27.0438L9.82449 27.0407L9.36769 25.7881ZM22.3493 23.1289L23.6521 22.8449L23.4141 21.7533L22.2977 21.7966L22.3493 23.1289ZM27.6016 32.3449L28.515 31.3737L28.5141 31.3728L27.6016 32.3449ZM38.7665 51.8175H40.0998V50.4842H38.7665V51.8175ZM12.9495 34.7791L13.4653 36.0087L13.4663 36.0082L12.9495 34.7791ZM23.5068 32.4678L23.5199 33.8011L23.5745 33.8005L23.6287 33.7956L23.5068 32.4678ZM12.2875 36.4017L11.0585 36.9187L11.0588 36.9196L12.2875 36.4017ZM13.9092 37.063L13.3927 35.8338L13.3901 35.8349L13.9092 37.063ZM23.531 34.9452L23.5184 33.612L23.5179 33.612L23.531 34.9452ZM24.7576 33.6936L26.0909 33.6811L26.0909 33.6795L24.7576 33.6936ZM12.9487 45.1614L12.432 43.9322L12.4298 43.9332L12.9487 45.1614ZM27.9487 43.221L27.7141 44.5336L27.716 44.5339L27.9487 43.221ZM12.2875 46.7839L13.5167 46.2676L13.5164 46.2669L12.2875 46.7839ZM13.91 47.4452L14.4269 48.6743L14.4272 48.6742L13.91 47.4452ZM27.5133 45.6598L27.2794 46.9724L27.283 46.973L27.5133 45.6598ZM28.9504 44.6581L27.6377 44.4242L27.6374 44.4257L28.9504 44.6581ZM12.9495 55.5436L12.4324 54.3147L12.4311 54.3152L12.9495 55.5436ZM34.1262 55.5598L33.5697 56.7714L33.5698 56.7715L34.1262 55.5598ZM12.2875 57.1662L13.5167 56.6498L13.5164 56.6492L12.2875 57.1662ZM13.9092 57.8275L13.3923 56.5984L13.3901 56.5994L13.9092 57.8275ZM33.0923 57.8114L33.652 56.6012L33.6487 56.5997L33.0923 57.8114ZM34.735 57.2017L35.9465 57.7586V57.7586L34.735 57.2017ZM45.5385 44.0391H46.8718V42.7057H45.5385V44.0391ZM34.4453 44.0391V42.7057H33.112V44.0391H34.4453ZM38.7657 40.2281H34.4054V42.8948H38.7657V40.2281ZM37.4323 25.3922V41.5615H40.099V25.3922H37.4323ZM31.5856 17.0515C31.5856 21.7052 34.4142 25.845 38.4929 26.6973L39.0384 24.0871C36.4776 23.5519 34.2522 20.755 34.2522 17.0515H31.5856ZM34.1576 14.4794C32.7162 14.4794 31.5856 15.6495 31.5856 17.0515H34.2522C34.2522 17.0764 34.2411 17.1007 34.2253 17.1167C34.2173 17.1248 34.2067 17.1324 34.1934 17.138C34.1791 17.1441 34.1659 17.1461 34.1576 17.1461V14.4794ZM36.7296 17.0515C36.7296 15.6379 35.5709 14.4794 34.1576 14.4794V17.1461C34.1209 17.1461 34.0973 17.1303 34.088 17.121C34.0788 17.1118 34.063 17.0882 34.063 17.0515H36.7296ZM40.0044 21.7135C39.2339 21.7135 38.4438 21.3088 37.8039 20.4757C37.1632 19.6415 36.7296 18.434 36.7296 17.0515H34.063C34.063 18.9722 34.6616 20.7624 35.6891 22.1C36.7173 23.4388 38.2313 24.3802 40.0044 24.3802V21.7135ZM43.2791 17.0515C43.2791 18.434 42.8455 19.6415 42.2048 20.4757C41.5649 21.3088 40.7748 21.7135 40.0044 21.7135V24.3802C41.7775 24.3802 43.2914 23.4388 44.3197 22.1C45.3471 20.7624 45.9458 18.9722 45.9458 17.0515H43.2791ZM45.8511 14.4794C44.409 14.4794 43.2791 15.6498 43.2791 17.0515H45.9458C45.9458 17.0762 45.9348 17.1004 45.9188 17.1166C45.9107 17.1247 45.9 17.1324 45.8867 17.1381C45.8724 17.1441 45.8592 17.1461 45.8511 17.1461V14.4794ZM48.4232 17.0515C48.4232 15.6379 47.2645 14.4794 45.8511 14.4794V17.1461C45.8144 17.1461 45.7909 17.1303 45.7816 17.121C45.7723 17.1118 45.7565 17.0882 45.7565 17.0515H48.4232ZM41.522 26.696C45.5924 25.8251 48.4232 21.6924 48.4232 17.0515H45.7565C45.7565 20.7347 43.5332 23.5387 40.9641 24.0884L41.522 26.696ZM42.5764 41.5615V25.3922H39.9097V41.5615H42.5764ZM45.6197 40.2281H41.2431V42.8948H45.6197V40.2281ZM50.1578 29.225C46.8826 32.5177 44.6487 36.784 44.2903 41.4595L46.9491 41.6634C47.2516 37.7175 49.1467 34.0229 52.0485 31.1056L50.1578 29.225ZM54.2952 19.1656C54.2952 23.077 52.7102 26.6424 50.1548 29.228L52.0515 31.1025C55.0783 28.0398 56.9619 23.8094 56.9619 19.1656H54.2952ZM38.3644 4.96593C47.0008 4.02818 54.2952 10.7538 54.2952 19.1656H56.9619C56.9619 9.17835 48.3015 1.20461 38.0766 2.31484L38.3644 4.96593ZM25.8189 17.3475C26.6181 10.8928 31.9271 5.67453 38.3664 4.96571L38.0746 2.31506C30.4091 3.15886 24.1237 9.33671 23.1725 17.0198L25.8189 17.3475ZM30.2142 29.5728C27.0423 26.5974 25.2288 22.1741 25.8192 17.3454L23.1722 17.0218C22.4743 22.7304 24.6245 27.9856 28.3897 31.5177L30.2142 29.5728ZM35.7353 41.4664C35.4161 36.9994 33.535 32.6964 30.2155 29.574L28.3884 31.5164C31.1794 34.1416 32.7998 37.7994 33.0754 41.6565L35.7353 41.4664ZM49.3558 47.4076V42.8492H46.6892V47.4076H49.3558ZM43.5961 53.1508C46.7735 53.1508 49.3558 50.5752 49.3558 47.4076H46.6892C46.6892 49.0959 45.3073 50.4842 43.5961 50.4842V53.1508ZM41.2344 53.1508H43.5961V50.4842H41.2344V53.1508ZM42.5677 66.9628V51.8175H39.901V66.9628H42.5677ZM69.0095 64.6004C60.0556 62.2253 50.5869 62.9783 40.8772 65.6782L41.5916 68.2474C51.0076 65.6291 59.9704 64.9616 68.3258 67.1779L69.0095 64.6004ZM71.6285 62.553C71.6285 63.945 70.3232 64.9488 69.0094 64.6004L68.3259 67.178C71.3722 67.9858 74.2951 65.6534 74.2951 62.553H71.6285ZM71.6285 29.0582V62.553H74.2951V29.0582H71.6285ZM70.1845 27.0437C71.0586 27.3559 71.6285 28.1535 71.6285 29.0582H74.2951C74.2951 26.99 72.982 25.2112 71.0814 24.5324L70.1845 27.0437ZM57.6162 24.4612C61.725 24.6206 65.915 25.4809 70.1746 27.0402L71.0913 24.536C66.5973 22.891 62.1332 21.9677 57.7195 21.7966L57.6162 24.4612ZM53.7944 32.8519C56.3954 30.2156 58.1702 26.9708 58.9687 23.4216L56.367 22.8363C55.6792 25.8935 54.1508 28.6937 51.8961 30.9791L53.7944 32.8519ZM49.3558 42.8492C49.3558 39.332 50.9004 35.7611 53.7905 32.8558L51.9 30.9752C48.5796 34.313 46.6892 38.5377 46.6892 42.8492H49.3558ZM66.5658 59.2576C67.5673 59.2576 68.5226 58.6678 68.9372 57.6841L66.4799 56.6483C66.4871 56.6313 66.5009 56.6152 66.5163 56.6052C66.5297 56.5965 66.5461 56.5909 66.5658 56.5909V59.2576ZM65.5677 59.0556C65.895 59.194 66.2352 59.2576 66.5658 59.2576V56.5909C66.5771 56.5909 66.5915 56.5933 66.6059 56.5994L65.5677 59.0556ZM47.4602 59.023C53.1628 56.4039 59.2259 56.3898 65.5701 59.0567L66.6035 56.5983C59.6332 53.6684 52.7882 53.6414 46.3472 56.5997L47.4602 59.023ZM44.0496 57.7587C44.6389 59.0403 46.1612 59.628 47.4666 59.0201L46.3408 56.6027C46.3995 56.5753 46.4557 56.6083 46.4724 56.6446L44.0496 57.7587ZM45.3135 54.348C44.023 54.9405 43.456 56.4676 44.0495 57.7586L46.4724 56.6447C46.495 56.6938 46.4731 56.7499 46.4262 56.7715L45.3135 54.348ZM67.5633 54.3145C59.9286 51.1042 52.4113 51.0895 45.3136 54.348L46.4262 56.7715C52.7913 53.8493 59.5272 53.8282 66.5296 56.7727L67.5633 54.3145ZM68.9376 57.6833C69.4892 56.372 68.871 54.8664 67.5649 54.3152L66.5281 56.7721C66.4832 56.7531 66.4585 56.6991 66.4796 56.6492L68.9376 57.6833ZM66.5658 48.8753C67.5673 48.8753 68.5226 48.2856 68.9372 47.3018L66.4799 46.2661C66.4871 46.249 66.5009 46.2329 66.5163 46.2229C66.5297 46.2142 66.5461 46.2087 66.5658 46.2087V48.8753ZM65.5691 48.6743C65.8955 48.8116 66.2347 48.8753 66.5658 48.8753V46.2087C66.5776 46.2087 66.591 46.2112 66.6028 46.2162L65.5691 48.6743ZM52.717 46.9724C56.7864 46.2463 61.1061 46.7965 65.5689 48.6742L66.6031 46.2163C61.7352 44.1681 56.8936 43.5184 52.2486 44.3471L52.717 46.9724ZM49.7327 44.8906C49.9817 46.2967 51.3182 47.2155 52.7111 46.9734L52.2544 44.3461C52.2719 44.3431 52.2968 44.3477 52.3169 44.3618C52.3375 44.3761 52.3542 44.4011 52.3586 44.4257L49.7327 44.8906ZM51.8146 41.9082C50.4135 42.1565 49.4839 43.4946 49.733 44.8921L52.3583 44.4242C52.3671 44.4733 52.3343 44.5243 52.28 44.5339L51.8146 41.9082ZM67.5641 43.9323C62.2465 41.6962 56.9394 40.9896 51.812 41.9086L52.2825 44.5335C56.8374 43.717 61.6222 44.3265 66.5304 46.3905L67.5641 43.9323ZM68.9376 47.301C69.4891 45.9901 68.8714 44.4847 67.5662 43.9332L66.5283 46.3896C66.4828 46.3703 66.4587 46.3165 66.4796 46.2669L68.9376 47.301ZM67.5632 33.55C63.8559 31.9913 60.1329 31.1703 56.5024 31.1345L56.4761 33.8011C59.7198 33.8331 63.1016 34.5669 66.5297 36.0082L67.5632 33.55ZM68.9376 36.9187C69.4884 35.6095 68.8731 34.0994 67.5622 33.5496L66.5308 36.0087C66.4811 35.9879 66.4594 35.9326 66.4796 35.8846L68.9376 36.9187ZM66.5658 38.4931C67.5673 38.4931 68.5226 37.9033 68.9372 36.9196L66.4799 35.8838C66.4871 35.8668 66.5009 35.8507 66.5163 35.8406C66.5297 35.8319 66.5461 35.8264 66.5658 35.8264V38.4931ZM65.5677 38.2911C65.895 38.4295 66.2352 38.4931 66.5658 38.4931V35.8264C66.5771 35.8264 66.5915 35.8287 66.6059 35.8349L65.5677 38.2911ZM56.4519 36.2785C59.3709 36.3072 62.4374 36.9757 65.5703 38.2922L66.6033 35.8338C63.1959 34.4019 59.7881 33.6445 56.4781 33.612L56.4519 36.2785ZM53.9051 33.6811C53.8918 35.1017 55.0311 36.2651 56.4524 36.2785L56.4776 33.612C56.5312 33.6125 56.5722 33.6565 56.5717 33.7062L53.9051 33.6811ZM56.5429 31.1356C55.1302 31.0786 53.9185 32.2654 53.9051 33.681L56.5717 33.7062C56.5714 33.7314 56.5655 33.7502 56.5609 33.7605C56.5569 33.7694 56.5537 33.7724 56.553 33.7731C56.5524 33.7736 56.5468 33.7792 56.5311 33.7857C56.5144 33.7925 56.4817 33.8019 56.4355 33.8001L56.5429 31.1356ZM76.7785 62.5524V30.5605H74.1118V62.5524H76.7785ZM67.7038 69.5721C72.2922 70.7902 76.7785 67.2991 76.7785 62.5524H74.1118C74.1118 65.5682 71.2649 67.7585 68.388 66.9947L67.7038 69.5721ZM57.7068 68.312C61.1979 68.312 64.5683 68.7444 67.7056 69.5726L68.3862 66.9943C65.0163 66.1047 61.4165 65.6454 57.7068 65.6454V68.312ZM40.9072 71.0145C42.9577 70.4123 50.124 68.312 57.7068 68.312V65.6454C49.7103 65.6454 42.2252 67.8481 40.1557 68.4559L40.9072 71.0145ZM40.9198 71.0107L40.9205 71.0105L40.1424 68.4599L40.1417 68.4601L40.9198 71.0107ZM40.2944 71.1863C40.4259 71.1567 40.667 71.085 40.9065 71.0147L40.1551 68.4561C40.0174 68.4966 39.9094 68.5282 39.8262 68.5521C39.7322 68.579 39.7041 68.5858 39.7088 68.5848L40.2944 71.1863ZM12.2804 69.5727C21.4052 67.1681 30.3139 68.4693 39.6308 71.1663L40.3723 68.6048C30.8606 65.8514 21.4036 64.4108 11.6009 66.9941L12.2804 69.5727ZM3.22468 62.5524C3.22468 67.3524 7.802 70.8145 12.2969 69.5683L11.5844 66.9986C8.81201 67.7672 5.89135 65.6139 5.89135 62.5524H3.22468ZM3.22468 30.5605V62.5524H5.89135V30.5605H3.22468ZM2.9349 33.9794C2.9349 32.9161 3.71233 32.0326 4.75203 31.8797L4.36399 29.2414C2.03434 29.584 0.268229 31.5743 0.268229 33.9794H2.9349ZM2.9349 67.821V33.9794H0.268229V67.821H2.9349ZM5.05338 69.9395C3.87801 69.9395 2.9349 68.9881 2.9349 67.821H0.268229C0.268229 70.4525 2.39689 72.6062 5.05338 72.6062V69.9395ZM32.1068 69.9395H5.05338V72.6062H32.1068V69.9395ZM36.851 72.8924C35.9862 71.0261 34.0825 69.9395 32.1068 69.9395V72.6062C33.1367 72.6062 34.0411 73.1712 34.4315 74.0136L36.851 72.8924ZM40.3483 75.1256C38.8084 75.1256 37.4659 74.2082 36.8492 72.8885L34.4333 74.0174C35.4683 76.2323 37.7262 77.7923 40.3483 77.7923V75.1256ZM43.8084 72.902C43.2097 74.2212 41.8768 75.1256 40.3483 75.1256V77.7923C42.9489 77.7923 45.2164 76.2523 46.2367 74.004L43.8084 72.902ZM48.5568 69.9395C46.5718 69.9395 44.6968 71.0329 43.8184 72.8804L46.2267 74.0255C46.6361 73.1644 47.5362 72.6062 48.5568 72.6062V69.9395ZM74.9495 69.9395H48.5568V72.6062H74.9495V69.9395ZM77.0682 67.821C77.0682 68.9839 76.1126 69.9395 74.9495 69.9395V72.6062C77.5853 72.6062 79.7349 70.4568 79.7349 67.821H77.0682ZM77.0682 33.9794V67.821H79.7349V33.9794H77.0682ZM75.2492 31.8794C76.2794 32.0324 77.0682 32.9216 77.0682 33.9794H79.7349C79.7349 31.5689 77.9471 29.5842 75.641 29.2417L75.2492 31.8794ZM11.6584 67.1779C20.0136 64.9615 28.9933 65.6292 38.4093 68.2474L39.1237 65.6782C29.4139 62.9783 19.9282 62.2253 10.9746 64.6004L11.6584 67.1779ZM5.70573 62.553C5.70573 65.6478 8.62404 67.9888 11.6607 67.1773L10.9723 64.6011C9.68191 64.9459 8.3724 63.9505 8.3724 62.553H5.70573ZM5.70573 29.0582V62.553H8.3724V29.0582H5.70573ZM8.91924 24.5324C7.01858 25.2112 5.70573 26.9901 5.70573 29.0582H8.3724C8.3724 28.1534 8.94221 27.3559 9.81614 27.0437L8.91924 24.5324ZM22.2977 21.7966C17.884 21.9677 13.4202 22.891 8.91089 24.5354L9.82449 27.0407C14.1018 25.4809 18.2925 24.6205 22.401 24.4612L22.2977 21.7966ZM28.5141 31.3728C26.0179 29.0298 24.3543 26.0653 23.6521 22.8449L21.0466 23.413C21.8642 27.1625 23.801 30.6063 26.6891 33.3171L28.5141 31.3728ZM33.3115 42.8492C33.3115 38.4438 31.5755 34.2521 28.515 31.3737L26.6881 33.3162C29.1768 35.6569 30.6448 39.1287 30.6448 42.8492H33.3115ZM33.3115 47.4076V42.8492H30.6448V47.4076H33.3115ZM36.3881 50.4842C34.6966 50.4842 33.3115 49.0992 33.3115 47.4076H30.6448C30.6448 50.572 33.2239 53.1508 36.3881 53.1508V50.4842ZM38.7665 50.4842H36.3881V53.1508H38.7665V50.4842ZM40.0998 66.9628V51.8175H37.4332V66.9628H40.0998ZM13.4663 36.0082C16.8944 34.5669 20.2763 33.8331 23.5199 33.8011L23.4937 31.1345C19.8632 31.1703 16.1401 31.9913 12.4328 33.55L13.4663 36.0082ZM13.5164 35.8846C13.5366 35.9326 13.5149 35.9879 13.4653 36.0087L12.4338 33.5496C11.1229 34.0994 10.5076 35.6095 11.0585 36.9187L13.5164 35.8846ZM13.4302 35.8264C13.45 35.8264 13.4663 35.8319 13.4797 35.8406C13.4951 35.8507 13.5089 35.8668 13.5161 35.8838L11.0588 36.9196C11.4735 37.9033 12.4287 38.4931 13.4302 38.4931V35.8264ZM13.3901 35.8349C13.4046 35.8287 13.4189 35.8264 13.4302 35.8264V38.4931C13.7609 38.4931 14.101 38.4295 14.4283 38.2911L13.3901 35.8349ZM23.5179 33.612C20.2079 33.6445 16.8002 34.4019 13.3927 35.8338L14.4258 38.2922C17.5586 36.9757 20.6251 36.3072 23.5441 36.2785L23.5179 33.612ZM23.4243 33.7062C23.4239 33.6565 23.4648 33.6125 23.5184 33.612L23.5436 36.2785C24.965 36.2651 26.1043 35.1017 26.0909 33.6811L23.4243 33.7062ZM23.6287 33.7956C23.5562 33.8022 23.5013 33.7881 23.471 33.776C23.4562 33.77 23.4465 33.7643 23.4412 33.7608C23.4359 33.7573 23.4335 33.755 23.4331 33.7545C23.4326 33.7541 23.4328 33.7542 23.4332 33.7547C23.4335 33.7552 23.4331 33.7547 23.4322 33.7528C23.4306 33.7491 23.4246 33.734 23.4244 33.7078L26.0909 33.6795C26.0831 32.9466 25.7568 32.2983 25.3001 31.8505C24.846 31.4052 24.1654 31.0684 23.3849 31.1401L23.6287 33.7956ZM13.4655 46.3905C18.3743 44.3266 23.1554 43.7185 27.7141 44.5336L28.1834 41.9085C23.0534 40.9913 17.7506 41.6961 12.432 43.9322L13.4655 46.3905ZM13.5164 46.2669C13.5373 46.3165 13.5132 46.3703 13.4677 46.3896L12.4298 43.9332C11.1246 44.4847 10.5069 45.9901 11.0585 47.301L13.5164 46.2669ZM13.4302 46.2087C13.4484 46.2087 13.4647 46.2137 13.4789 46.223C13.4954 46.2337 13.5096 46.2506 13.5167 46.2676L11.0582 47.3003C11.4735 48.2891 12.431 48.8753 13.4302 48.8753V46.2087ZM13.3932 46.2162C13.4051 46.2112 13.4185 46.2087 13.4302 46.2087V48.8753C13.7613 48.8753 14.1005 48.8116 14.4269 48.6743L13.3932 46.2162ZM27.7472 44.3471C23.0967 43.5184 18.26 44.1681 13.3929 46.2163L14.4272 48.6742C18.8891 46.7966 23.204 46.2462 27.2794 46.9724L27.7472 44.3471ZM27.6374 44.4257C27.6413 44.4038 27.6569 44.3787 27.6789 44.3633C27.7012 44.3478 27.7276 44.3437 27.7436 44.3465L27.283 46.973C28.6846 47.2188 30.0151 46.2925 30.2633 44.8906L27.6374 44.4257ZM27.716 44.5339C27.6617 44.5243 27.629 44.4733 27.6377 44.4242L30.263 44.8921C30.5121 43.4946 29.5825 42.1565 28.1814 41.9082L27.716 44.5339ZM13.4667 56.7726C20.4711 53.8252 27.2068 53.8493 33.5697 56.7714L34.6826 54.3481C27.5874 51.0896 20.07 51.1008 12.4324 54.3147L13.4667 56.7726ZM13.5164 56.6492C13.5375 56.6991 13.5128 56.7531 13.4679 56.7721L12.4311 54.3152C11.125 54.8664 10.5068 56.372 11.0585 57.6833L13.5164 56.6492ZM13.4302 56.5909C13.4484 56.5909 13.4647 56.596 13.4789 56.6052C13.4954 56.616 13.5096 56.6329 13.5167 56.6498L11.0582 57.6826C11.4735 58.6713 12.431 59.2576 13.4302 59.2576V56.5909ZM13.3901 56.5994C13.4046 56.5933 13.4189 56.5909 13.4302 56.5909V59.2576C13.7609 59.2576 14.101 59.194 14.4283 59.0556L13.3901 56.5994ZM33.6487 56.5997C27.2064 53.6416 20.363 53.6666 13.3923 56.5984L14.4262 59.0565C20.77 56.3884 26.8314 56.4038 32.5359 59.0231L33.6487 56.5997ZM33.5236 56.6447C33.542 56.6048 33.5976 56.576 33.652 56.6012L32.5326 59.0215C33.8354 59.6241 35.3571 59.0405 35.9465 57.7586L33.5236 56.6447ZM33.5698 56.7715C33.5229 56.7499 33.501 56.6938 33.5236 56.6447L35.9465 57.7586C36.54 56.4676 35.973 54.9405 34.6825 54.348L33.5698 56.7715ZM46.8718 47.4069V44.0391H44.2051V47.4069H46.8718ZM43.6028 50.676C45.4082 50.676 46.8718 49.2123 46.8718 47.4069H44.2051C44.2051 47.7396 43.9353 48.0094 43.6028 48.0094V50.676ZM36.381 50.676H43.6028V48.0094H36.381V50.676ZM33.112 47.4069C33.112 49.2123 34.5756 50.676 36.381 50.676V48.0094C36.0485 48.0094 35.7786 47.7396 35.7786 47.4069H33.112ZM33.112 44.0391V47.4069H35.7786V44.0391H33.112ZM45.5385 42.7057H34.4453V45.3724H45.5385V42.7057Z" fill="url(#paint1_radial_5578_118969)" fill-opacity="0.6" mask="url(#path-1-inside-1_5578_118969)"/>
      <path d="M38.7657 41.5615V42.8948H40.099V41.5615H38.7657ZM34.4054 41.5615L33.0754 41.6565L33.1639 42.8948H34.4054V41.5615ZM38.7657 25.3922H40.099V24.3087L39.0384 24.0871L38.7657 25.3922ZM41.2431 25.3922L40.9641 24.0884L39.9097 24.314V25.3922H41.2431ZM41.2431 41.5615H39.9097V42.8948H41.2431V41.5615ZM45.6197 41.5615V42.8948H46.8547L46.9491 41.6634L45.6197 41.5615ZM51.1032 30.1653L52.0485 31.1056L52.0515 31.1025L51.1032 30.1653ZM38.2205 3.64038L38.0766 2.31484L38.0746 2.31506L38.2205 3.64038ZM24.4957 17.1836L23.1725 17.0198L23.1722 17.0218L24.4957 17.1836ZM29.3019 30.5452L30.2155 29.574L30.2142 29.5728L29.3019 30.5452ZM41.2344 51.8175V50.4842H39.901V51.8175H41.2344ZM41.2344 66.9628H39.901V68.7174L41.5916 68.2474L41.2344 66.9628ZM68.6676 65.8892L68.3258 67.1779L68.3259 67.178L68.6676 65.8892ZM70.633 25.7881L70.1746 27.0402L70.1845 27.0437L70.633 25.7881ZM57.6678 23.1289L57.7195 21.7966L56.6106 21.7536L56.367 22.8363L57.6678 23.1289ZM52.8453 31.9155L53.7906 32.8558L53.7944 32.8519L52.8453 31.9155ZM67.7086 57.1662L68.9372 57.6841L68.9376 57.6833L67.7086 57.1662ZM66.0868 57.8275L66.6059 56.5994L66.6035 56.5983L66.0868 57.8275ZM46.9037 57.8114L46.3472 56.5997L46.3408 56.6027L46.9037 57.8114ZM45.261 57.2017L44.0495 57.7586L44.0496 57.7587L45.261 57.2017ZM45.8699 55.5598L45.3136 54.348L45.3135 54.348L45.8699 55.5598ZM67.0465 55.5436L67.5649 54.3152L67.5633 54.3145L67.0465 55.5436ZM67.7086 46.7839L68.9372 47.3018L68.9376 47.301L67.7086 46.7839ZM66.086 47.4452L65.5689 48.6742L65.5691 48.6743L66.086 47.4452ZM52.4828 45.6598L52.7111 46.9734L52.717 46.9724L52.4828 45.6598ZM51.0457 44.6581L52.3586 44.4257L52.3583 44.4242L51.0457 44.6581ZM52.0473 43.221L52.28 44.5339L52.2825 44.5335L52.0473 43.221ZM67.0473 45.1614L67.5662 43.9332L67.5641 43.9323L67.0473 45.1614ZM67.0465 34.7791L66.5297 36.0082L66.5308 36.0087L67.0465 34.7791ZM56.4892 32.4678L56.4355 33.8001L56.4558 33.8009L56.4761 33.8011L56.4892 32.4678ZM67.7086 36.4017L68.9372 36.9196L68.9376 36.9187L67.7086 36.4017ZM66.0868 37.063L66.6059 35.8349L66.6033 35.8338L66.0868 37.063ZM56.465 34.9452L56.4781 33.612L56.4776 33.612L56.465 34.9452ZM55.2384 33.6936L53.9051 33.681V33.6811L55.2384 33.6936ZM75.4451 30.5605L75.641 29.2417L74.1118 29.0145V30.5605H75.4451ZM68.0459 68.2834L68.388 66.9947L68.3862 66.9943L68.0459 68.2834ZM40.5314 69.7352L40.1557 68.4558L40.1424 68.4599L40.5314 69.7352ZM40.5308 69.7354L40.9065 71.0148L40.9198 71.0107L40.5308 69.7354ZM40.0016 69.8855L39.6308 71.1663L39.96 71.2616L40.2944 71.1863L40.0016 69.8855ZM11.9407 68.2834L11.6009 66.9941L11.5927 66.9963L11.5844 66.9986L11.9407 68.2834ZM4.55801 30.5605H5.89135V29.0168L4.36399 29.2414L4.55801 30.5605ZM35.6413 73.453L34.4315 74.0136L34.4333 74.0174L35.6413 73.453ZM45.0225 73.453L43.8184 72.8804L43.8133 72.8912L43.8084 72.902L45.0225 73.453ZM11.3165 65.8892L10.9746 64.6004L10.9723 64.6011L11.3165 65.8892ZM38.7665 66.9628L38.4093 68.2474L40.0998 68.7174V66.9628H38.7665ZM7.03906 62.553H5.70573H7.03906ZM9.36769 25.7881L9.81615 27.0438L9.82449 27.0407L9.36769 25.7881ZM22.3493 23.1289L23.6521 22.8449L23.4141 21.7533L22.2977 21.7966L22.3493 23.1289ZM27.6016 32.3449L28.515 31.3737L28.5141 31.3728L27.6016 32.3449ZM38.7665 51.8175H40.0998V50.4842H38.7665V51.8175ZM12.9495 34.7791L13.4653 36.0087L13.4663 36.0082L12.9495 34.7791ZM23.5068 32.4678L23.5199 33.8011L23.5745 33.8005L23.6287 33.7956L23.5068 32.4678ZM12.2875 36.4017L11.0585 36.9187L11.0588 36.9196L12.2875 36.4017ZM13.9092 37.063L13.3927 35.8338L13.3901 35.8349L13.9092 37.063ZM23.531 34.9452L23.5184 33.612L23.5179 33.612L23.531 34.9452ZM24.7576 33.6936L26.0909 33.6811L26.0909 33.6795L24.7576 33.6936ZM12.9487 45.1614L12.432 43.9322L12.4298 43.9332L12.9487 45.1614ZM27.9487 43.221L27.7141 44.5336L27.716 44.5339L27.9487 43.221ZM12.2875 46.7839L13.5167 46.2676L13.5164 46.2669L12.2875 46.7839ZM13.91 47.4452L14.4269 48.6743L14.4272 48.6742L13.91 47.4452ZM27.5133 45.6598L27.2794 46.9724L27.283 46.973L27.5133 45.6598ZM28.9504 44.6581L27.6377 44.4242L27.6374 44.4257L28.9504 44.6581ZM12.9495 55.5436L12.4324 54.3147L12.4311 54.3152L12.9495 55.5436ZM34.1262 55.5598L33.5697 56.7714L33.5698 56.7715L34.1262 55.5598ZM12.2875 57.1662L13.5167 56.6498L13.5164 56.6492L12.2875 57.1662ZM13.9092 57.8275L13.3923 56.5984L13.3901 56.5994L13.9092 57.8275ZM33.0923 57.8114L33.652 56.6012L33.6487 56.5997L33.0923 57.8114ZM34.735 57.2017L35.9465 57.7586V57.7586L34.735 57.2017ZM45.5385 44.0391H46.8718V42.7057H45.5385V44.0391ZM34.4453 44.0391V42.7057H33.112V44.0391H34.4453ZM38.7657 40.2281H34.4054V42.8948H38.7657V40.2281ZM37.4323 25.3922V41.5615H40.099V25.3922H37.4323ZM31.5856 17.0515C31.5856 21.7052 34.4142 25.845 38.4929 26.6973L39.0384 24.0871C36.4776 23.5519 34.2522 20.755 34.2522 17.0515H31.5856ZM34.1576 14.4794C32.7162 14.4794 31.5856 15.6495 31.5856 17.0515H34.2522C34.2522 17.0764 34.2411 17.1007 34.2253 17.1167C34.2173 17.1248 34.2067 17.1324 34.1934 17.138C34.1791 17.1441 34.1659 17.1461 34.1576 17.1461V14.4794ZM36.7296 17.0515C36.7296 15.6379 35.5709 14.4794 34.1576 14.4794V17.1461C34.1209 17.1461 34.0973 17.1303 34.088 17.121C34.0788 17.1118 34.063 17.0882 34.063 17.0515H36.7296ZM40.0044 21.7135C39.2339 21.7135 38.4438 21.3088 37.8039 20.4757C37.1632 19.6415 36.7296 18.434 36.7296 17.0515H34.063C34.063 18.9722 34.6616 20.7624 35.6891 22.1C36.7173 23.4388 38.2313 24.3802 40.0044 24.3802V21.7135ZM43.2791 17.0515C43.2791 18.434 42.8455 19.6415 42.2048 20.4757C41.5649 21.3088 40.7748 21.7135 40.0044 21.7135V24.3802C41.7775 24.3802 43.2914 23.4388 44.3197 22.1C45.3471 20.7624 45.9458 18.9722 45.9458 17.0515H43.2791ZM45.8511 14.4794C44.409 14.4794 43.2791 15.6498 43.2791 17.0515H45.9458C45.9458 17.0762 45.9348 17.1004 45.9188 17.1166C45.9107 17.1247 45.9 17.1324 45.8867 17.1381C45.8724 17.1441 45.8592 17.1461 45.8511 17.1461V14.4794ZM48.4232 17.0515C48.4232 15.6379 47.2645 14.4794 45.8511 14.4794V17.1461C45.8144 17.1461 45.7909 17.1303 45.7816 17.121C45.7723 17.1118 45.7565 17.0882 45.7565 17.0515H48.4232ZM41.522 26.696C45.5924 25.8251 48.4232 21.6924 48.4232 17.0515H45.7565C45.7565 20.7347 43.5332 23.5387 40.9641 24.0884L41.522 26.696ZM42.5764 41.5615V25.3922H39.9097V41.5615H42.5764ZM45.6197 40.2281H41.2431V42.8948H45.6197V40.2281ZM50.1578 29.225C46.8826 32.5177 44.6487 36.784 44.2903 41.4595L46.9491 41.6634C47.2516 37.7175 49.1467 34.0229 52.0485 31.1056L50.1578 29.225ZM54.2952 19.1656C54.2952 23.077 52.7102 26.6424 50.1548 29.228L52.0515 31.1025C55.0783 28.0398 56.9619 23.8094 56.9619 19.1656H54.2952ZM38.3644 4.96593C47.0008 4.02818 54.2952 10.7538 54.2952 19.1656H56.9619C56.9619 9.17835 48.3015 1.20461 38.0766 2.31484L38.3644 4.96593ZM25.8189 17.3475C26.6181 10.8928 31.9271 5.67453 38.3664 4.96571L38.0746 2.31506C30.4091 3.15886 24.1237 9.33671 23.1725 17.0198L25.8189 17.3475ZM30.2142 29.5728C27.0423 26.5974 25.2288 22.1741 25.8192 17.3454L23.1722 17.0218C22.4743 22.7304 24.6245 27.9856 28.3897 31.5177L30.2142 29.5728ZM35.7353 41.4664C35.4161 36.9994 33.535 32.6964 30.2155 29.574L28.3884 31.5164C31.1794 34.1416 32.7998 37.7994 33.0754 41.6565L35.7353 41.4664ZM49.3558 47.4076V42.8492H46.6892V47.4076H49.3558ZM43.5961 53.1508C46.7735 53.1508 49.3558 50.5752 49.3558 47.4076H46.6892C46.6892 49.0959 45.3073 50.4842 43.5961 50.4842V53.1508ZM41.2344 53.1508H43.5961V50.4842H41.2344V53.1508ZM42.5677 66.9628V51.8175H39.901V66.9628H42.5677ZM69.0095 64.6004C60.0556 62.2253 50.5869 62.9783 40.8772 65.6782L41.5916 68.2474C51.0076 65.6291 59.9704 64.9616 68.3258 67.1779L69.0095 64.6004ZM71.6285 62.553C71.6285 63.945 70.3232 64.9488 69.0094 64.6004L68.3259 67.178C71.3722 67.9858 74.2951 65.6534 74.2951 62.553H71.6285ZM71.6285 29.0582V62.553H74.2951V29.0582H71.6285ZM70.1845 27.0437C71.0586 27.3559 71.6285 28.1535 71.6285 29.0582H74.2951C74.2951 26.99 72.982 25.2112 71.0814 24.5324L70.1845 27.0437ZM57.6162 24.4612C61.725 24.6206 65.915 25.4809 70.1746 27.0402L71.0913 24.536C66.5973 22.891 62.1332 21.9677 57.7195 21.7966L57.6162 24.4612ZM53.7944 32.8519C56.3954 30.2156 58.1702 26.9708 58.9687 23.4216L56.367 22.8363C55.6792 25.8935 54.1508 28.6937 51.8961 30.9791L53.7944 32.8519ZM49.3558 42.8492C49.3558 39.332 50.9004 35.7611 53.7905 32.8558L51.9 30.9752C48.5796 34.313 46.6892 38.5377 46.6892 42.8492H49.3558ZM66.5658 59.2576C67.5673 59.2576 68.5226 58.6678 68.9372 57.6841L66.4799 56.6483C66.4871 56.6313 66.5009 56.6152 66.5163 56.6052C66.5297 56.5965 66.5461 56.5909 66.5658 56.5909V59.2576ZM65.5677 59.0556C65.895 59.194 66.2352 59.2576 66.5658 59.2576V56.5909C66.5771 56.5909 66.5915 56.5933 66.6059 56.5994L65.5677 59.0556ZM47.4602 59.023C53.1628 56.4039 59.2259 56.3898 65.5701 59.0567L66.6035 56.5983C59.6332 53.6684 52.7882 53.6414 46.3472 56.5997L47.4602 59.023ZM44.0496 57.7587C44.6389 59.0403 46.1612 59.628 47.4666 59.0201L46.3408 56.6027C46.3995 56.5753 46.4557 56.6083 46.4724 56.6446L44.0496 57.7587ZM45.3135 54.348C44.023 54.9405 43.456 56.4676 44.0495 57.7586L46.4724 56.6447C46.495 56.6938 46.4731 56.7499 46.4262 56.7715L45.3135 54.348ZM67.5633 54.3145C59.9286 51.1042 52.4113 51.0895 45.3136 54.348L46.4262 56.7715C52.7913 53.8493 59.5272 53.8282 66.5296 56.7727L67.5633 54.3145ZM68.9376 57.6833C69.4892 56.372 68.871 54.8664 67.5649 54.3152L66.5281 56.7721C66.4832 56.7531 66.4585 56.6991 66.4796 56.6492L68.9376 57.6833ZM66.5658 48.8753C67.5673 48.8753 68.5226 48.2856 68.9372 47.3018L66.4799 46.2661C66.4871 46.249 66.5009 46.2329 66.5163 46.2229C66.5297 46.2142 66.5461 46.2087 66.5658 46.2087V48.8753ZM65.5691 48.6743C65.8955 48.8116 66.2347 48.8753 66.5658 48.8753V46.2087C66.5776 46.2087 66.591 46.2112 66.6028 46.2162L65.5691 48.6743ZM52.717 46.9724C56.7864 46.2463 61.1061 46.7965 65.5689 48.6742L66.6031 46.2163C61.7352 44.1681 56.8936 43.5184 52.2486 44.3471L52.717 46.9724ZM49.7327 44.8906C49.9817 46.2967 51.3182 47.2155 52.7111 46.9734L52.2544 44.3461C52.2719 44.3431 52.2968 44.3477 52.3169 44.3618C52.3375 44.3761 52.3542 44.4011 52.3586 44.4257L49.7327 44.8906ZM51.8146 41.9082C50.4135 42.1565 49.4839 43.4946 49.733 44.8921L52.3583 44.4242C52.3671 44.4733 52.3343 44.5243 52.28 44.5339L51.8146 41.9082ZM67.5641 43.9323C62.2465 41.6962 56.9394 40.9896 51.812 41.9086L52.2825 44.5335C56.8374 43.717 61.6222 44.3265 66.5304 46.3905L67.5641 43.9323ZM68.9376 47.301C69.4891 45.9901 68.8714 44.4847 67.5662 43.9332L66.5283 46.3896C66.4828 46.3703 66.4587 46.3165 66.4796 46.2669L68.9376 47.301ZM67.5632 33.55C63.8559 31.9913 60.1329 31.1703 56.5024 31.1345L56.4761 33.8011C59.7198 33.8331 63.1016 34.5669 66.5297 36.0082L67.5632 33.55ZM68.9376 36.9187C69.4884 35.6095 68.8731 34.0994 67.5622 33.5496L66.5308 36.0087C66.4811 35.9879 66.4594 35.9326 66.4796 35.8846L68.9376 36.9187ZM66.5658 38.4931C67.5673 38.4931 68.5226 37.9033 68.9372 36.9196L66.4799 35.8838C66.4871 35.8668 66.5009 35.8507 66.5163 35.8406C66.5297 35.8319 66.5461 35.8264 66.5658 35.8264V38.4931ZM65.5677 38.2911C65.895 38.4295 66.2352 38.4931 66.5658 38.4931V35.8264C66.5771 35.8264 66.5915 35.8287 66.6059 35.8349L65.5677 38.2911ZM56.4519 36.2785C59.3709 36.3072 62.4374 36.9757 65.5703 38.2922L66.6033 35.8338C63.1959 34.4019 59.7881 33.6445 56.4781 33.612L56.4519 36.2785ZM53.9051 33.6811C53.8918 35.1017 55.0311 36.2651 56.4524 36.2785L56.4776 33.612C56.5312 33.6125 56.5722 33.6565 56.5717 33.7062L53.9051 33.6811ZM56.5429 31.1356C55.1302 31.0786 53.9185 32.2654 53.9051 33.681L56.5717 33.7062C56.5714 33.7314 56.5655 33.7502 56.5609 33.7605C56.5569 33.7694 56.5537 33.7724 56.553 33.7731C56.5524 33.7736 56.5468 33.7792 56.5311 33.7857C56.5144 33.7925 56.4817 33.8019 56.4355 33.8001L56.5429 31.1356ZM76.7785 62.5524V30.5605H74.1118V62.5524H76.7785ZM67.7038 69.5721C72.2922 70.7902 76.7785 67.2991 76.7785 62.5524H74.1118C74.1118 65.5682 71.2649 67.7585 68.388 66.9947L67.7038 69.5721ZM57.7068 68.312C61.1979 68.312 64.5683 68.7444 67.7056 69.5726L68.3862 66.9943C65.0163 66.1047 61.4165 65.6454 57.7068 65.6454V68.312ZM40.9072 71.0145C42.9577 70.4123 50.124 68.312 57.7068 68.312V65.6454C49.7103 65.6454 42.2252 67.8481 40.1557 68.4559L40.9072 71.0145ZM40.9198 71.0107L40.9205 71.0105L40.1424 68.4599L40.1417 68.4601L40.9198 71.0107ZM40.2944 71.1863C40.4259 71.1567 40.667 71.085 40.9065 71.0147L40.1551 68.4561C40.0174 68.4966 39.9094 68.5282 39.8262 68.5521C39.7322 68.579 39.7041 68.5858 39.7088 68.5848L40.2944 71.1863ZM12.2804 69.5727C21.4052 67.1681 30.3139 68.4693 39.6308 71.1663L40.3723 68.6048C30.8606 65.8514 21.4036 64.4108 11.6009 66.9941L12.2804 69.5727ZM3.22468 62.5524C3.22468 67.3524 7.802 70.8145 12.2969 69.5683L11.5844 66.9986C8.81201 67.7672 5.89135 65.6139 5.89135 62.5524H3.22468ZM3.22468 30.5605V62.5524H5.89135V30.5605H3.22468ZM2.9349 33.9794C2.9349 32.9161 3.71233 32.0326 4.75203 31.8797L4.36399 29.2414C2.03434 29.584 0.268229 31.5743 0.268229 33.9794H2.9349ZM2.9349 67.821V33.9794H0.268229V67.821H2.9349ZM5.05338 69.9395C3.87801 69.9395 2.9349 68.9881 2.9349 67.821H0.268229C0.268229 70.4525 2.39689 72.6062 5.05338 72.6062V69.9395ZM32.1068 69.9395H5.05338V72.6062H32.1068V69.9395ZM36.851 72.8924C35.9862 71.0261 34.0825 69.9395 32.1068 69.9395V72.6062C33.1367 72.6062 34.0411 73.1712 34.4315 74.0136L36.851 72.8924ZM40.3483 75.1256C38.8084 75.1256 37.4659 74.2082 36.8492 72.8885L34.4333 74.0174C35.4683 76.2323 37.7262 77.7923 40.3483 77.7923V75.1256ZM43.8084 72.902C43.2097 74.2212 41.8768 75.1256 40.3483 75.1256V77.7923C42.9489 77.7923 45.2164 76.2523 46.2367 74.004L43.8084 72.902ZM48.5568 69.9395C46.5718 69.9395 44.6968 71.0329 43.8184 72.8804L46.2267 74.0255C46.6361 73.1644 47.5362 72.6062 48.5568 72.6062V69.9395ZM74.9495 69.9395H48.5568V72.6062H74.9495V69.9395ZM77.0682 67.821C77.0682 68.9839 76.1126 69.9395 74.9495 69.9395V72.6062C77.5853 72.6062 79.7349 70.4568 79.7349 67.821H77.0682ZM77.0682 33.9794V67.821H79.7349V33.9794H77.0682ZM75.2492 31.8794C76.2794 32.0324 77.0682 32.9216 77.0682 33.9794H79.7349C79.7349 31.5689 77.9471 29.5842 75.641 29.2417L75.2492 31.8794ZM11.6584 67.1779C20.0136 64.9615 28.9933 65.6292 38.4093 68.2474L39.1237 65.6782C29.4139 62.9783 19.9282 62.2253 10.9746 64.6004L11.6584 67.1779ZM5.70573 62.553C5.70573 65.6478 8.62404 67.9888 11.6607 67.1773L10.9723 64.6011C9.68191 64.9459 8.3724 63.9505 8.3724 62.553H5.70573ZM5.70573 29.0582V62.553H8.3724V29.0582H5.70573ZM8.91924 24.5324C7.01858 25.2112 5.70573 26.9901 5.70573 29.0582H8.3724C8.3724 28.1534 8.94221 27.3559 9.81614 27.0437L8.91924 24.5324ZM22.2977 21.7966C17.884 21.9677 13.4202 22.891 8.91089 24.5354L9.82449 27.0407C14.1018 25.4809 18.2925 24.6205 22.401 24.4612L22.2977 21.7966ZM28.5141 31.3728C26.0179 29.0298 24.3543 26.0653 23.6521 22.8449L21.0466 23.413C21.8642 27.1625 23.801 30.6063 26.6891 33.3171L28.5141 31.3728ZM33.3115 42.8492C33.3115 38.4438 31.5755 34.2521 28.515 31.3737L26.6881 33.3162C29.1768 35.6569 30.6448 39.1287 30.6448 42.8492H33.3115ZM33.3115 47.4076V42.8492H30.6448V47.4076H33.3115ZM36.3881 50.4842C34.6966 50.4842 33.3115 49.0992 33.3115 47.4076H30.6448C30.6448 50.572 33.2239 53.1508 36.3881 53.1508V50.4842ZM38.7665 50.4842H36.3881V53.1508H38.7665V50.4842ZM40.0998 66.9628V51.8175H37.4332V66.9628H40.0998ZM13.4663 36.0082C16.8944 34.5669 20.2763 33.8331 23.5199 33.8011L23.4937 31.1345C19.8632 31.1703 16.1401 31.9913 12.4328 33.55L13.4663 36.0082ZM13.5164 35.8846C13.5366 35.9326 13.5149 35.9879 13.4653 36.0087L12.4338 33.5496C11.1229 34.0994 10.5076 35.6095 11.0585 36.9187L13.5164 35.8846ZM13.4302 35.8264C13.45 35.8264 13.4663 35.8319 13.4797 35.8406C13.4951 35.8507 13.5089 35.8668 13.5161 35.8838L11.0588 36.9196C11.4735 37.9033 12.4287 38.4931 13.4302 38.4931V35.8264ZM13.3901 35.8349C13.4046 35.8287 13.4189 35.8264 13.4302 35.8264V38.4931C13.7609 38.4931 14.101 38.4295 14.4283 38.2911L13.3901 35.8349ZM23.5179 33.612C20.2079 33.6445 16.8002 34.4019 13.3927 35.8338L14.4258 38.2922C17.5586 36.9757 20.6251 36.3072 23.5441 36.2785L23.5179 33.612ZM23.4243 33.7062C23.4239 33.6565 23.4648 33.6125 23.5184 33.612L23.5436 36.2785C24.965 36.2651 26.1043 35.1017 26.0909 33.6811L23.4243 33.7062ZM23.6287 33.7956C23.5562 33.8022 23.5013 33.7881 23.471 33.776C23.4562 33.77 23.4465 33.7643 23.4412 33.7608C23.4359 33.7573 23.4335 33.755 23.4331 33.7545C23.4326 33.7541 23.4328 33.7542 23.4332 33.7547C23.4335 33.7552 23.4331 33.7547 23.4322 33.7528C23.4306 33.7491 23.4246 33.734 23.4244 33.7078L26.0909 33.6795C26.0831 32.9466 25.7568 32.2983 25.3001 31.8505C24.846 31.4052 24.1654 31.0684 23.3849 31.1401L23.6287 33.7956ZM13.4655 46.3905C18.3743 44.3266 23.1554 43.7185 27.7141 44.5336L28.1834 41.9085C23.0534 40.9913 17.7506 41.6961 12.432 43.9322L13.4655 46.3905ZM13.5164 46.2669C13.5373 46.3165 13.5132 46.3703 13.4677 46.3896L12.4298 43.9332C11.1246 44.4847 10.5069 45.9901 11.0585 47.301L13.5164 46.2669ZM13.4302 46.2087C13.4484 46.2087 13.4647 46.2137 13.4789 46.223C13.4954 46.2337 13.5096 46.2506 13.5167 46.2676L11.0582 47.3003C11.4735 48.2891 12.431 48.8753 13.4302 48.8753V46.2087ZM13.3932 46.2162C13.4051 46.2112 13.4185 46.2087 13.4302 46.2087V48.8753C13.7613 48.8753 14.1005 48.8116 14.4269 48.6743L13.3932 46.2162ZM27.7472 44.3471C23.0967 43.5184 18.26 44.1681 13.3929 46.2163L14.4272 48.6742C18.8891 46.7966 23.204 46.2462 27.2794 46.9724L27.7472 44.3471ZM27.6374 44.4257C27.6413 44.4038 27.6569 44.3787 27.6789 44.3633C27.7012 44.3478 27.7276 44.3437 27.7436 44.3465L27.283 46.973C28.6846 47.2188 30.0151 46.2925 30.2633 44.8906L27.6374 44.4257ZM27.716 44.5339C27.6617 44.5243 27.629 44.4733 27.6377 44.4242L30.263 44.8921C30.5121 43.4946 29.5825 42.1565 28.1814 41.9082L27.716 44.5339ZM13.4667 56.7726C20.4711 53.8252 27.2068 53.8493 33.5697 56.7714L34.6826 54.3481C27.5874 51.0896 20.07 51.1008 12.4324 54.3147L13.4667 56.7726ZM13.5164 56.6492C13.5375 56.6991 13.5128 56.7531 13.4679 56.7721L12.4311 54.3152C11.125 54.8664 10.5068 56.372 11.0585 57.6833L13.5164 56.6492ZM13.4302 56.5909C13.4484 56.5909 13.4647 56.596 13.4789 56.6052C13.4954 56.616 13.5096 56.6329 13.5167 56.6498L11.0582 57.6826C11.4735 58.6713 12.431 59.2576 13.4302 59.2576V56.5909ZM13.3901 56.5994C13.4046 56.5933 13.4189 56.5909 13.4302 56.5909V59.2576C13.7609 59.2576 14.101 59.194 14.4283 59.0556L13.3901 56.5994ZM33.6487 56.5997C27.2064 53.6416 20.363 53.6666 13.3923 56.5984L14.4262 59.0565C20.77 56.3884 26.8314 56.4038 32.5359 59.0231L33.6487 56.5997ZM33.5236 56.6447C33.542 56.6048 33.5976 56.576 33.652 56.6012L32.5326 59.0215C33.8354 59.6241 35.3571 59.0405 35.9465 57.7586L33.5236 56.6447ZM33.5698 56.7715C33.5229 56.7499 33.501 56.6938 33.5236 56.6447L35.9465 57.7586C36.54 56.4676 35.973 54.9405 34.6825 54.348L33.5698 56.7715ZM46.8718 47.4069V44.0391H44.2051V47.4069H46.8718ZM43.6028 50.676C45.4082 50.676 46.8718 49.2123 46.8718 47.4069H44.2051C44.2051 47.7396 43.9353 48.0094 43.6028 48.0094V50.676ZM36.381 50.676H43.6028V48.0094H36.381V50.676ZM33.112 47.4069C33.112 49.2123 34.5756 50.676 36.381 50.676V48.0094C36.0485 48.0094 35.7786 47.7396 35.7786 47.4069H33.112ZM33.112 44.0391V47.4069H35.7786V44.0391H33.112ZM45.5385 42.7057H34.4453V45.3724H45.5385V42.7057Z" fill="url(#paint2_radial_5578_118969)" fill-opacity="0.3" mask="url(#path-1-inside-1_5578_118969)"/>
    </g>
  </g>
  <defs>
    <filter id="filter0_bd_5578_118969" x="-665.065" y="-663.122" width="1410.13" height="1406.25" filterUnits="userSpaceOnUse" color-interpolation-filters="sRGB">
      <feFlood flood-opacity="0" result="BackgroundImageFix"/>
      <feGaussianBlur in="BackgroundImageFix" stdDeviation="333.333"/>
      <feComposite in2="SourceAlpha" operator="in" result="effect1_backgroundBlur_5578_118969"/>
      <feColorMatrix in="SourceAlpha" type="matrix" values="0 0 0 0 0 0 0 0 0 0 0 0 0 0 0 0 0 0 127 0" result="hardAlpha"/>
      <feOffset dy="2.66667"/>
      <feGaussianBlur stdDeviation="1.33333"/>
      <feComposite in2="hardAlpha" operator="out"/>
      <feColorMatrix type="matrix" values="0 0 0 0 0 0 0 0 0 0 0 0 0 0 0 0 0 0 0.25 0"/>
      <feBlend mode="normal" in2="effect1_backgroundBlur_5578_118969" result="effect2_dropShadow_5578_118969"/>
      <feBlend mode="normal" in="SourceGraphic" in2="effect2_dropShadow_5578_118969" result="shape"/>
    </filter>
    <linearGradient id="paint0_linear_5578_118969" x1="4.77049" y1="5.42301" x2="37.8181" y2="94.8039" gradientUnits="userSpaceOnUse">
      <stop stop-color="white" stop-opacity="0.6"/>
      <stop offset="1" stop-color="white" stop-opacity="0"/>
    </linearGradient>
    <radialGradient id="paint1_radial_5578_118969" cx="0" cy="0" r="1" gradientUnits="userSpaceOnUse" gradientTransform="translate(40.0016 4.20778) rotate(90) scale(63.3026 66.6764)">
      <stop stop-color="white"/>
      <stop offset="1" stop-color="white" stop-opacity="0"/>
    </radialGradient>
    <radialGradient id="paint2_radial_5578_118969" cx="0" cy="0" r="1" gradientUnits="userSpaceOnUse" gradientTransform="translate(40.0016 76.4589) rotate(-90) scale(36.457 38.4)">
      <stop stop-color="white"/>
      <stop offset="1" stop-color="white" stop-opacity="0"/>
    </radialGradient>
    <clipPath id="clip0_5578_118969">
      <rect width="80" height="80" fill="white"/>
    </clipPath>
  </defs>
</svg>
