<svg width="80" height="80" viewBox="0 0 80 80" fill="none" xmlns="http://www.w3.org/2000/svg">
<g id="tech-icon" clip-path="url(#clip0_5552_48157)">
<g id="Union" filter="url(#filter0_bd_5552_48157)">
<mask id="path-1-inside-1_5552_48157" fill="white">
<path fill-rule="evenodd" clip-rule="evenodd" d="M62.3199 3.36029L64.9823 0.69795C67.2595 -1.41674 70.4114 1.73639 68.2968 4.01248L65.6345 6.67483C64.7189 7.59045 63.2349 7.58983 62.3199 6.67483C61.4046 5.75951 61.4046 4.27545 62.3199 3.36029ZM14.3938 6.67496C16.6697 8.78934 19.8234 5.63777 17.7083 3.36043L15.0459 0.698086C14.1308 -0.21707 12.6467 -0.21707 11.7314 0.698086C10.8161 1.61324 10.8161 3.0973 11.7314 4.01262L14.3938 6.67496ZM2.35742 26.6393H6.12305C9.22867 26.7542 9.22758 31.2124 6.12305 31.3268H2.35742C1.06305 31.3268 0.0136719 30.2774 0.0136719 28.9831C0.0136719 27.6887 1.06305 26.6393 2.35742 26.6393ZM73.9043 26.6393H77.6699C80.7756 26.7542 80.7746 31.2124 77.6699 31.3268H73.9043C72.6099 31.3268 71.5605 30.2774 71.5605 28.9831C71.5605 27.6887 72.6099 26.6393 73.9043 26.6393ZM62.3211 54.6049C60.2061 52.3277 63.3596 49.1761 65.6357 51.2903L68.298 53.9527C69.2133 54.868 69.2133 56.3521 68.298 57.2672C67.3824 58.1828 65.8985 58.1822 64.9835 57.2672L62.3211 54.6049ZM14.3938 51.2905L11.7314 53.9528C10.8161 54.868 10.8161 56.352 11.7314 57.2673C12.6464 58.1823 14.1303 58.183 15.0459 57.2673L17.7083 54.605C19.8228 52.3289 16.6708 49.1756 14.3938 51.2905ZM51.0252 31.327L46.6049 35.7472C49.0692 40.5137 45.4027 46.4618 40.0123 46.3898C35.9515 46.3898 32.6476 43.0861 32.6476 39.0251C32.5761 33.6352 38.5238 29.9679 43.2903 32.4326L48.397 27.3258C48.8364 26.8863 49.4326 26.6393 50.0542 26.6393H66.0995C62.4672 -4.95208 17.5458 -4.92895 13.9251 26.6393H28.9998L33.42 22.219C30.9557 17.4527 34.6222 11.5045 40.0126 11.5765C44.0735 11.5765 47.3773 14.8803 47.3773 18.9412C47.4488 24.3311 41.5011 27.9983 36.7346 25.5335L31.6279 30.6403C31.1886 31.0798 30.5923 31.3268 29.9707 31.3268H13.9268C14.5176 37.8743 17.5641 43.9821 22.4928 48.3592C25.1769 50.8403 26.918 54.1743 27.4518 57.7531C27.4576 57.7523 52.5644 57.7523 52.5731 57.7531C53.1066 54.1751 54.8479 50.8406 57.5323 48.3592C62.461 43.9822 65.5076 37.8743 66.0982 31.3268H51.0252V31.327ZM37.6702 77.2776C31.9579 76.1786 27.6283 71.1454 27.6283 65.1173V62.4401H52.3996V65.1173C52.3996 71.1454 48.07 76.1786 42.3577 77.2776C42.5916 80.9068 37.4372 80.909 37.6702 77.2776ZM42.6943 18.9402C42.6943 17.4641 41.4932 16.263 40.0171 16.263C36.4704 16.3977 36.4713 21.4832 40.0171 21.6174C41.4932 21.6172 42.6943 20.4163 42.6943 18.9402ZM40.0138 41.7019C38.5377 41.7019 37.3366 40.5008 37.3366 39.0247C37.3366 37.5486 38.5377 36.3477 40.0138 36.3477C43.5596 36.4817 43.5605 41.5672 40.0138 41.7019Z"/>
</mask>
<path fill-rule="evenodd" clip-rule="evenodd" d="M62.3199 3.36029L64.9823 0.69795C67.2595 -1.41674 70.4114 1.73639 68.2968 4.01248L65.6345 6.67483C64.7189 7.59045 63.2349 7.58983 62.3199 6.67483C61.4046 5.75951 61.4046 4.27545 62.3199 3.36029ZM14.3938 6.67496C16.6697 8.78934 19.8234 5.63777 17.7083 3.36043L15.0459 0.698086C14.1308 -0.21707 12.6467 -0.21707 11.7314 0.698086C10.8161 1.61324 10.8161 3.0973 11.7314 4.01262L14.3938 6.67496ZM2.35742 26.6393H6.12305C9.22867 26.7542 9.22758 31.2124 6.12305 31.3268H2.35742C1.06305 31.3268 0.0136719 30.2774 0.0136719 28.9831C0.0136719 27.6887 1.06305 26.6393 2.35742 26.6393ZM73.9043 26.6393H77.6699C80.7756 26.7542 80.7746 31.2124 77.6699 31.3268H73.9043C72.6099 31.3268 71.5605 30.2774 71.5605 28.9831C71.5605 27.6887 72.6099 26.6393 73.9043 26.6393ZM62.3211 54.6049C60.2061 52.3277 63.3596 49.1761 65.6357 51.2903L68.298 53.9527C69.2133 54.868 69.2133 56.3521 68.298 57.2672C67.3824 58.1828 65.8985 58.1822 64.9835 57.2672L62.3211 54.6049ZM14.3938 51.2905L11.7314 53.9528C10.8161 54.868 10.8161 56.352 11.7314 57.2673C12.6464 58.1823 14.1303 58.183 15.0459 57.2673L17.7083 54.605C19.8228 52.3289 16.6708 49.1756 14.3938 51.2905ZM51.0252 31.327L46.6049 35.7472C49.0692 40.5137 45.4027 46.4618 40.0123 46.3898C35.9515 46.3898 32.6476 43.0861 32.6476 39.0251C32.5761 33.6352 38.5238 29.9679 43.2903 32.4326L48.397 27.3258C48.8364 26.8863 49.4326 26.6393 50.0542 26.6393H66.0995C62.4672 -4.95208 17.5458 -4.92895 13.9251 26.6393H28.9998L33.42 22.219C30.9557 17.4527 34.6222 11.5045 40.0126 11.5765C44.0735 11.5765 47.3773 14.8803 47.3773 18.9412C47.4488 24.3311 41.5011 27.9983 36.7346 25.5335L31.6279 30.6403C31.1886 31.0798 30.5923 31.3268 29.9707 31.3268H13.9268C14.5176 37.8743 17.5641 43.9821 22.4928 48.3592C25.1769 50.8403 26.918 54.1743 27.4518 57.7531C27.4576 57.7523 52.5644 57.7523 52.5731 57.7531C53.1066 54.1751 54.8479 50.8406 57.5323 48.3592C62.461 43.9822 65.5076 37.8743 66.0982 31.3268H51.0252V31.327ZM37.6702 77.2776C31.9579 76.1786 27.6283 71.1454 27.6283 65.1173V62.4401H52.3996V65.1173C52.3996 71.1454 48.07 76.1786 42.3577 77.2776C42.5916 80.9068 37.4372 80.909 37.6702 77.2776ZM42.6943 18.9402C42.6943 17.4641 41.4932 16.263 40.0171 16.263C36.4704 16.3977 36.4713 21.4832 40.0171 21.6174C41.4932 21.6172 42.6943 20.4163 42.6943 18.9402ZM40.0138 41.7019C38.5377 41.7019 37.3366 40.5008 37.3366 39.0247C37.3366 37.5486 38.5377 36.3477 40.0138 36.3477C43.5596 36.4817 43.5605 41.5672 40.0138 41.7019Z" fill="url(#paint0_linear_5552_48157)" fill-opacity="0.8" shape-rendering="crispEdges"/>
<path fill-rule="evenodd" clip-rule="evenodd" d="M62.3199 3.36029L64.9823 0.69795C67.2595 -1.41674 70.4114 1.73639 68.2968 4.01248L65.6345 6.67483C64.7189 7.59045 63.2349 7.58983 62.3199 6.67483C61.4046 5.75951 61.4046 4.27545 62.3199 3.36029ZM14.3938 6.67496C16.6697 8.78934 19.8234 5.63777 17.7083 3.36043L15.0459 0.698086C14.1308 -0.21707 12.6467 -0.21707 11.7314 0.698086C10.8161 1.61324 10.8161 3.0973 11.7314 4.01262L14.3938 6.67496ZM2.35742 26.6393H6.12305C9.22867 26.7542 9.22758 31.2124 6.12305 31.3268H2.35742C1.06305 31.3268 0.0136719 30.2774 0.0136719 28.9831C0.0136719 27.6887 1.06305 26.6393 2.35742 26.6393ZM73.9043 26.6393H77.6699C80.7756 26.7542 80.7746 31.2124 77.6699 31.3268H73.9043C72.6099 31.3268 71.5605 30.2774 71.5605 28.9831C71.5605 27.6887 72.6099 26.6393 73.9043 26.6393ZM62.3211 54.6049C60.2061 52.3277 63.3596 49.1761 65.6357 51.2903L68.298 53.9527C69.2133 54.868 69.2133 56.3521 68.298 57.2672C67.3824 58.1828 65.8985 58.1822 64.9835 57.2672L62.3211 54.6049ZM14.3938 51.2905L11.7314 53.9528C10.8161 54.868 10.8161 56.352 11.7314 57.2673C12.6464 58.1823 14.1303 58.183 15.0459 57.2673L17.7083 54.605C19.8228 52.3289 16.6708 49.1756 14.3938 51.2905ZM51.0252 31.327L46.6049 35.7472C49.0692 40.5137 45.4027 46.4618 40.0123 46.3898C35.9515 46.3898 32.6476 43.0861 32.6476 39.0251C32.5761 33.6352 38.5238 29.9679 43.2903 32.4326L48.397 27.3258C48.8364 26.8863 49.4326 26.6393 50.0542 26.6393H66.0995C62.4672 -4.95208 17.5458 -4.92895 13.9251 26.6393H28.9998L33.42 22.219C30.9557 17.4527 34.6222 11.5045 40.0126 11.5765C44.0735 11.5765 47.3773 14.8803 47.3773 18.9412C47.4488 24.3311 41.5011 27.9983 36.7346 25.5335L31.6279 30.6403C31.1886 31.0798 30.5923 31.3268 29.9707 31.3268H13.9268C14.5176 37.8743 17.5641 43.9821 22.4928 48.3592C25.1769 50.8403 26.918 54.1743 27.4518 57.7531C27.4576 57.7523 52.5644 57.7523 52.5731 57.7531C53.1066 54.1751 54.8479 50.8406 57.5323 48.3592C62.461 43.9822 65.5076 37.8743 66.0982 31.3268H51.0252V31.327ZM37.6702 77.2776C31.9579 76.1786 27.6283 71.1454 27.6283 65.1173V62.4401H52.3996V65.1173C52.3996 71.1454 48.07 76.1786 42.3577 77.2776C42.5916 80.9068 37.4372 80.909 37.6702 77.2776ZM42.6943 18.9402C42.6943 17.4641 41.4932 16.263 40.0171 16.263C36.4704 16.3977 36.4713 21.4832 40.0171 21.6174C41.4932 21.6172 42.6943 20.4163 42.6943 18.9402ZM40.0138 41.7019C38.5377 41.7019 37.3366 40.5008 37.3366 39.0247C37.3366 37.5486 38.5377 36.3477 40.0138 36.3477C43.5596 36.4817 43.5605 41.5672 40.0138 41.7019Z" fill="#344254" fill-opacity="0.15" shape-rendering="crispEdges"/>
<path d="M64.9823 0.69795L64.075 -0.279073L64.0569 -0.262295L64.0395 -0.244859L64.9823 0.69795ZM62.3199 3.36029L63.2627 4.30318L63.2628 4.3031L62.3199 3.36029ZM68.2968 4.01248L69.2396 4.95529L69.257 4.93795L69.2737 4.91998L68.2968 4.01248ZM65.6345 6.67483L64.6917 5.73202V5.73202L65.6345 6.67483ZM62.3199 6.67483L61.3771 7.61764L62.3199 6.67483ZM17.7083 3.36043L18.6852 2.45305L18.6685 2.43502L18.6511 2.41762L17.7083 3.36043ZM14.3938 6.67496L13.4509 7.61777L13.4683 7.63511L13.4863 7.6518L14.3938 6.67496ZM15.0459 0.698086L14.1031 1.64089V1.6409L15.0459 0.698086ZM11.7314 4.01262L12.6742 3.06981V3.06981L11.7314 4.01262ZM6.12305 26.6393L6.17232 25.3069L6.14769 25.306H6.12305V26.6393ZM6.12305 31.3268V32.6602H6.1476L6.17214 32.6593L6.12305 31.3268ZM77.6699 26.6393L77.7192 25.3069L77.6946 25.306H77.6699V26.6393ZM77.6699 31.3268V32.6602H77.6945L77.719 32.6593L77.6699 31.3268ZM65.6357 51.2903L66.5785 50.3475L66.5611 50.3302L66.5431 50.3134L65.6357 51.2903ZM62.3211 54.6049L61.3442 55.5122L61.3609 55.5303L61.3783 55.5477L62.3211 54.6049ZM68.298 53.9527L69.2408 53.0099L68.298 53.9527ZM68.298 57.2672L67.3553 56.3243L67.3552 56.3244L68.298 57.2672ZM11.7314 53.9528L12.6741 54.8957L12.6742 54.8956L11.7314 53.9528ZM14.3938 51.2905L13.4864 50.3135L13.4683 50.3302L13.4509 50.3477L14.3938 51.2905ZM11.7314 57.2673L10.7886 58.2101H10.7886L11.7314 57.2673ZM15.0459 57.2673L15.9887 58.2101H15.9887L15.0459 57.2673ZM17.7083 54.605L18.6511 55.5478L18.6684 55.5305L18.6851 55.5125L17.7083 54.605ZM46.6049 35.7472L45.6621 34.8044L44.9729 35.4937L45.4205 36.3596L46.6049 35.7472ZM51.0252 31.327L51.968 32.2698L52.3585 31.8793V31.327H51.0252ZM40.0123 46.3898L40.0301 45.0565L40.0212 45.0564H40.0123V46.3898ZM32.6476 39.0251H33.981V39.0163L33.9809 39.0074L32.6476 39.0251ZM43.2903 32.4326L42.6779 33.617L43.5438 34.0648L44.2332 33.3754L43.2903 32.4326ZM48.397 27.3258L49.3398 28.2686L49.34 28.2685L48.397 27.3258ZM66.0995 26.6393V27.9726H67.5949L67.4241 26.487L66.0995 26.6393ZM13.9251 26.6393L12.6005 26.4873L12.4301 27.9726H13.9251V26.6393ZM28.9998 26.6393V27.9726H29.5521L29.9426 27.5821L28.9998 26.6393ZM33.42 22.219L34.3628 23.1618L35.0521 22.4726L34.6044 21.6067L33.42 22.219ZM40.0126 11.5765L39.9948 12.9097L40.0037 12.9098H40.0126V11.5765ZM47.3773 18.9412H46.0439V18.95L46.0441 18.9589L47.3773 18.9412ZM36.7346 25.5335L37.347 24.3491L36.4811 23.9013L35.7918 24.5907L36.7346 25.5335ZM31.6279 30.6403L30.6851 29.6975L30.685 29.6976L31.6279 30.6403ZM13.9268 31.3268V29.9935H12.4678L12.5989 31.4467L13.9268 31.3268ZM22.4928 48.3592L23.3978 47.3801L23.3881 47.371L23.3782 47.3622L22.4928 48.3592ZM27.4518 57.7531L26.133 57.9498L26.3271 59.2507L27.6305 59.0744L27.4518 57.7531ZM52.5731 57.7531L52.4545 59.0811L53.7065 59.193L53.8919 57.9497L52.5731 57.7531ZM57.5323 48.3592L56.6469 47.3622L56.637 47.371L56.6272 47.3801L57.5323 48.3592ZM66.0982 31.3268L67.4262 31.4466L67.5573 29.9935H66.0982V31.3268ZM51.0252 31.3268V29.9935H49.6918V31.3268H51.0252ZM37.6702 77.2776L39.0007 77.3629L39.076 76.1902L37.922 75.9682L37.6702 77.2776ZM27.6283 62.4401V61.1068H26.2949V62.4401H27.6283ZM52.3996 62.4401H53.733V61.1068H52.3996V62.4401ZM42.3577 77.2776L42.1058 75.9682L40.9516 76.1903L41.0272 77.3633L42.3577 77.2776ZM40.0171 16.263V14.9297H39.9918L39.9665 14.9306L40.0171 16.263ZM40.0171 21.6174L39.9667 22.9498L39.992 22.9507L40.0173 22.9507L40.0171 21.6174ZM40.0138 41.7019V43.0352H40.0391L40.0644 43.0342L40.0138 41.7019ZM40.0138 36.3477L40.0642 35.0153L40.039 35.0143H40.0138V36.3477ZM64.0395 -0.244859L61.3771 2.41749L63.2628 4.3031L65.9251 1.64076L64.0395 -0.244859ZM69.2737 4.91998C72.5545 1.38845 67.6075 -3.55954 64.075 -0.279073L65.8896 1.67497C66.9114 0.726069 68.2682 2.08432 67.32 3.10498L69.2737 4.91998ZM66.5773 7.61764L69.2396 4.95529L67.354 3.06967L64.6917 5.73202L66.5773 7.61764ZM61.3771 7.61764C62.8126 9.0531 65.1407 9.05419 66.5773 7.61763L64.6917 5.73202C64.297 6.12671 63.6573 6.12655 63.2628 5.73202L61.3771 7.61764ZM61.3772 2.4174C59.9411 3.85332 59.9412 6.18167 61.3771 7.61764L63.2628 5.73202C62.8681 5.33736 62.8682 4.69758 63.2627 4.30318L61.3772 2.4174ZM16.7313 4.26781C17.6769 5.28589 16.3256 6.64979 15.3012 5.69812L13.4863 7.6518C17.0137 10.9289 21.97 5.98966 18.6852 2.45305L16.7313 4.26781ZM14.1031 1.6409L16.7655 4.30324L18.6511 2.41762L15.9887 -0.244723L14.1031 1.6409ZM12.6741 1.64098C13.0688 1.24637 13.7087 1.24648 14.1031 1.64089L15.9887 -0.244723C14.5528 -1.68062 12.2246 -1.68051 10.7887 -0.244804L12.6741 1.64098ZM12.6742 3.06981C12.2796 2.67515 12.2797 2.03537 12.6741 1.64098L10.7887 -0.244804C9.35251 1.19111 9.35263 3.51946 10.7886 4.95543L12.6742 3.06981ZM15.3366 5.73215L12.6742 3.06981L10.7886 4.95543L13.4509 7.61777L15.3366 5.73215ZM6.12305 25.306H2.35742V27.9727H6.12305V25.306ZM6.17214 32.6593C10.9864 32.4819 10.9926 25.4851 6.17232 25.3069L6.07378 27.9717C7.46476 28.0232 7.46872 29.943 6.07396 29.9944L6.17214 32.6593ZM2.35742 32.6602H6.12305V29.9935H2.35742V32.6602ZM-1.31966 28.9831C-1.31966 31.0138 0.326667 32.6602 2.35742 32.6602V29.9935C1.79943 29.9935 1.34701 29.5411 1.34701 28.9831H-1.31966ZM2.35742 25.306C0.326667 25.306 -1.31966 26.9523 -1.31966 28.9831H1.34701C1.34701 28.4251 1.79943 27.9727 2.35742 27.9727V25.306ZM77.6699 25.306H73.9043V27.9727H77.6699V25.306ZM77.719 32.6593C82.5343 32.4819 82.5386 25.4851 77.7192 25.3069L77.6207 27.9717C79.0125 28.0232 79.0149 29.943 77.6208 29.9944L77.719 32.6593ZM73.9043 32.6602H77.6699V29.9935H73.9043V32.6602ZM70.2272 28.9831C70.2272 31.0138 71.8735 32.6602 73.9043 32.6602V29.9935C73.3463 29.9935 72.8939 29.5411 72.8939 28.9831H70.2272ZM73.9043 25.306C71.8735 25.306 70.2272 26.9523 70.2272 28.9831H72.8939C72.8939 28.4251 73.3463 27.9727 73.9043 27.9727V25.306ZM66.5431 50.3134C63.0158 47.037 58.0593 51.9755 61.3442 55.5122L63.2981 53.6975C62.353 52.6799 63.7033 51.3153 64.7282 52.2673L66.5431 50.3134ZM69.2408 53.0099L66.5785 50.3475L64.6928 52.2332L67.3552 54.8955L69.2408 53.0099ZM69.2407 58.2101C70.6769 56.7742 70.6768 54.4458 69.2408 53.0099L67.3552 54.8955C67.7499 55.2902 67.7497 55.9299 67.3553 56.3243L69.2407 58.2101ZM64.0407 58.21C65.4761 59.6455 67.8043 59.6466 69.2408 58.21L67.3552 56.3244C66.9605 56.7191 66.3208 56.7189 65.9263 56.3244L64.0407 58.21ZM61.3783 55.5477L64.0407 58.21L65.9263 56.3244L63.2639 53.6621L61.3783 55.5477ZM12.6742 54.8956L15.3366 52.2333L13.4509 50.3477L10.7886 53.01L12.6742 54.8956ZM12.6742 56.3245C12.2796 55.9299 12.2797 55.2901 12.6741 54.8957L10.7887 53.0099C9.35251 54.4458 9.35263 56.7742 10.7886 58.2101L12.6742 56.3245ZM14.1031 56.3245C13.7084 56.7192 13.0687 56.7191 12.6742 56.3245L10.7886 58.2101C12.2241 59.6456 14.5522 59.6467 15.9887 58.2101L14.1031 56.3245ZM16.7655 53.6622L14.1031 56.3245L15.9887 58.2101L18.6511 55.5478L16.7655 53.6622ZM15.3011 52.2674C16.3216 51.3196 17.6807 52.6757 16.7314 53.6975L18.6851 55.5125C21.9649 51.9821 17.0199 47.0316 13.4864 50.3135L15.3011 52.2674ZM47.5477 36.69L51.968 32.2698L50.0823 30.3842L45.6621 34.8044L47.5477 36.69ZM39.9945 47.723C46.3906 47.8084 50.7165 40.7968 47.7893 35.1349L45.4205 36.3596C47.4219 40.2307 44.4148 45.1151 40.0301 45.0565L39.9945 47.723ZM31.3143 39.0251C31.3143 43.8225 35.2151 47.7231 40.0123 47.7231V45.0564C36.6878 45.0564 33.981 42.3497 33.981 39.0251H31.3143ZM43.9028 31.2483C38.2406 28.3204 31.2295 32.6475 31.3144 39.0428L33.9809 39.0074C33.9226 34.6228 38.8071 31.6154 42.6779 33.617L43.9028 31.2483ZM47.4542 26.383L42.3475 31.4898L44.2332 33.3754L49.3398 28.2686L47.4542 26.383ZM50.0542 25.3059C49.0789 25.3059 48.1435 25.6935 47.454 26.3832L49.34 28.2685C49.5293 28.0791 49.7863 27.9726 50.0542 27.9726V25.3059ZM66.0995 25.3059H50.0542V27.9726H66.0995V25.3059ZM15.2498 26.7912C18.69 -3.20357 61.3239 -3.22331 64.7749 26.7916L67.4241 26.487C63.6106 -6.68084 16.4016 -6.65434 12.6005 26.4873L15.2498 26.7912ZM28.9998 25.3059H13.9251V27.9726H28.9998V25.3059ZM32.4772 21.2762L28.057 25.6964L29.9426 27.5821L34.3628 23.1618L32.4772 21.2762ZM40.0304 10.2433C33.6343 10.1578 29.3084 17.1696 32.2356 22.8314L34.6044 21.6067C32.6031 17.7357 35.6101 12.8511 39.9948 12.9097L40.0304 10.2433ZM48.7106 18.9412C48.7106 14.1439 44.8098 10.2432 40.0126 10.2432V12.9098C43.3371 12.9098 46.0439 15.6167 46.0439 18.9412H48.7106ZM36.1221 26.7178C41.7843 29.6459 48.7954 25.3187 48.7105 18.9235L46.0441 18.9589C46.1023 23.3435 41.2178 26.3508 37.347 24.3491L36.1221 26.7178ZM32.5708 31.5831L37.6774 26.4763L35.7918 24.5907L30.6851 29.6975L32.5708 31.5831ZM29.9707 32.6602C30.946 32.6602 31.8814 32.2726 32.5709 31.5829L30.685 29.6976C30.4957 29.887 30.2386 29.9935 29.9707 29.9935V32.6602ZM13.9268 32.6602H29.9707V29.9935H13.9268V32.6602ZM23.3782 47.3622C18.7064 43.2133 15.8155 37.4206 15.2548 31.207L12.5989 31.4467C13.2198 38.328 16.4218 44.7509 21.6074 49.3561L23.3782 47.3622ZM28.7705 57.5564C28.1925 53.6807 26.3074 50.0696 23.3978 47.3801L21.5877 49.3383C24.0464 51.611 25.6435 54.6679 26.133 57.9498L28.7705 57.5564ZM52.6918 56.425C52.6415 56.4215 52.5869 56.4198 52.5826 56.4198C52.5808 56.4198 52.5782 56.4198 52.577 56.4198C52.5749 56.4197 52.5727 56.4197 52.5709 56.4197C52.5672 56.4197 52.562 56.4197 52.5558 56.4197C52.5433 56.4197 52.5249 56.4197 52.501 56.4197C52.453 56.4197 52.3822 56.4196 52.29 56.4196C52.1055 56.4196 51.8353 56.4195 51.4916 56.4195C50.8042 56.4194 49.8227 56.4194 48.6451 56.4193C46.29 56.4192 43.1506 56.4192 40.0113 56.4192C36.8721 56.4192 33.7329 56.4192 31.3781 56.4193C30.2008 56.4194 29.2195 56.4194 28.5324 56.4195C28.1888 56.4195 27.9187 56.4196 27.7344 56.4196C27.6423 56.4196 27.5715 56.4197 27.5237 56.4197C27.4998 56.4197 27.4814 56.4197 27.4689 56.4197C27.4628 56.4197 27.4576 56.4197 27.4539 56.4197C27.4521 56.4197 27.4499 56.4197 27.4478 56.4198C27.4466 56.4198 27.4439 56.4198 27.4421 56.4198C27.4374 56.4198 27.3527 56.4234 27.273 56.4318L27.6305 59.0744C27.5508 59.0827 27.4664 59.0863 27.4621 59.0864C27.4607 59.0864 27.4586 59.0864 27.4581 59.0864C27.4576 59.0864 27.4577 59.0864 27.4591 59.0864C27.4615 59.0864 27.4656 59.0864 27.4715 59.0864C27.4834 59.0864 27.5012 59.0864 27.525 59.0863C27.5725 59.0863 27.643 59.0863 27.7351 59.0863C27.9192 59.0862 28.1891 59.0862 28.5326 59.0862C29.2197 59.0861 30.2009 59.086 31.3783 59.086C33.7329 59.0859 36.8721 59.0858 40.0113 59.0858C43.1506 59.0858 46.2899 59.0859 48.645 59.086C49.8225 59.086 50.804 59.0861 51.4913 59.0862C51.835 59.0862 52.105 59.0862 52.2893 59.0863C52.3815 59.0863 52.4521 59.0863 52.4997 59.0863C52.5235 59.0864 52.5414 59.0864 52.5533 59.0864C52.5592 59.0864 52.5633 59.0864 52.5658 59.0864C52.5671 59.0864 52.5673 59.0864 52.5668 59.0864C52.5664 59.0864 52.5644 59.0864 52.5631 59.0864C52.5591 59.0863 52.5047 59.0847 52.4545 59.0811L52.6918 56.425ZM56.6272 47.3801C53.7174 50.0699 51.8321 53.6814 51.2544 57.5565L53.8919 57.9497C54.3811 54.6687 55.9784 51.6113 58.4374 49.3383L56.6272 47.3801ZM64.7703 31.207C64.2098 37.4206 61.3187 43.2134 56.6469 47.3622L58.4177 49.3561C63.6032 44.751 66.8054 38.328 67.4262 31.4466L64.7703 31.207ZM51.0252 32.6602H66.0982V29.9935H51.0252V32.6602ZM52.3585 31.327V31.3268H49.6918V31.327H52.3585ZM26.2949 65.1173C26.2949 71.7981 31.0916 77.3698 37.4183 78.5869L37.922 75.9682C32.8242 74.9875 28.9616 70.4927 28.9616 65.1173H26.2949ZM26.2949 62.4401V65.1173H28.9616V62.4401H26.2949ZM52.3996 61.1068H27.6283V63.7734H52.3996V61.1068ZM53.733 65.1173V62.4401H51.0663V65.1173H53.733ZM42.6096 78.5869C48.9363 77.3698 53.733 71.7981 53.733 65.1173H51.0663C51.0663 70.4927 47.2037 74.9875 42.1058 75.9682L42.6096 78.5869ZM36.3396 77.1922C36.2599 78.4339 36.6438 79.5005 37.3871 80.2555C38.1105 80.9901 39.0809 81.3339 40.0146 81.3337C40.9483 81.3335 41.9184 80.9893 42.6415 80.2546C43.3845 79.4997 43.7683 78.4333 43.6883 77.1918L41.0272 77.3633C41.0641 77.9365 40.8913 78.2313 40.741 78.384C40.5707 78.5571 40.3105 78.6669 40.014 78.667C39.7175 78.6671 39.4575 78.5573 39.2872 78.3844C39.137 78.2318 38.9639 77.9369 39.0007 77.3629L36.3396 77.1922ZM40.0171 17.5964C40.7568 17.5964 41.361 18.2005 41.361 18.9402H44.0276C44.0276 16.7277 42.2296 14.9297 40.0171 14.9297V17.5964ZM40.0675 20.285C38.2308 20.2155 38.2328 17.6651 40.0677 17.5954L39.9665 14.9306C34.708 15.1303 34.7118 22.7509 39.9667 22.9498L40.0675 20.285ZM41.361 18.9402C41.361 19.6798 40.7569 20.284 40.017 20.2841L40.0173 22.9507C42.2295 22.9505 44.0276 21.1528 44.0276 18.9402H41.361ZM36.0033 39.0247C36.0033 41.2372 37.8013 43.0352 40.0138 43.0352V40.3685C39.2741 40.3685 38.6699 39.7644 38.6699 39.0247H36.0033ZM40.0138 35.0143C37.8014 35.0143 36.0033 36.8121 36.0033 39.0247H38.6699C38.6699 38.2851 39.274 37.681 40.0138 37.681V35.0143ZM40.0644 43.0342C45.3219 42.8346 45.3201 35.214 40.0642 35.0153L39.9634 37.68C41.799 37.7494 41.7991 40.2998 39.9632 40.3695L40.0644 43.0342Z" fill="url(#paint1_radial_5552_48157)" fill-opacity="0.6" mask="url(#path-1-inside-1_5552_48157)"/>
<path d="M64.9823 0.69795L64.075 -0.279073L64.0569 -0.262295L64.0395 -0.244859L64.9823 0.69795ZM62.3199 3.36029L63.2627 4.30318L63.2628 4.3031L62.3199 3.36029ZM68.2968 4.01248L69.2396 4.95529L69.257 4.93795L69.2737 4.91998L68.2968 4.01248ZM65.6345 6.67483L64.6917 5.73202V5.73202L65.6345 6.67483ZM62.3199 6.67483L61.3771 7.61764L62.3199 6.67483ZM17.7083 3.36043L18.6852 2.45305L18.6685 2.43502L18.6511 2.41762L17.7083 3.36043ZM14.3938 6.67496L13.4509 7.61777L13.4683 7.63511L13.4863 7.6518L14.3938 6.67496ZM15.0459 0.698086L14.1031 1.64089V1.6409L15.0459 0.698086ZM11.7314 4.01262L12.6742 3.06981V3.06981L11.7314 4.01262ZM6.12305 26.6393L6.17232 25.3069L6.14769 25.306H6.12305V26.6393ZM6.12305 31.3268V32.6602H6.1476L6.17214 32.6593L6.12305 31.3268ZM77.6699 26.6393L77.7192 25.3069L77.6946 25.306H77.6699V26.6393ZM77.6699 31.3268V32.6602H77.6945L77.719 32.6593L77.6699 31.3268ZM65.6357 51.2903L66.5785 50.3475L66.5611 50.3302L66.5431 50.3134L65.6357 51.2903ZM62.3211 54.6049L61.3442 55.5122L61.3609 55.5303L61.3783 55.5477L62.3211 54.6049ZM68.298 53.9527L69.2408 53.0099L68.298 53.9527ZM68.298 57.2672L67.3553 56.3243L67.3552 56.3244L68.298 57.2672ZM11.7314 53.9528L12.6741 54.8957L12.6742 54.8956L11.7314 53.9528ZM14.3938 51.2905L13.4864 50.3135L13.4683 50.3302L13.4509 50.3477L14.3938 51.2905ZM11.7314 57.2673L10.7886 58.2101H10.7886L11.7314 57.2673ZM15.0459 57.2673L15.9887 58.2101H15.9887L15.0459 57.2673ZM17.7083 54.605L18.6511 55.5478L18.6684 55.5305L18.6851 55.5125L17.7083 54.605ZM46.6049 35.7472L45.6621 34.8044L44.9729 35.4937L45.4205 36.3596L46.6049 35.7472ZM51.0252 31.327L51.968 32.2698L52.3585 31.8793V31.327H51.0252ZM40.0123 46.3898L40.0301 45.0565L40.0212 45.0564H40.0123V46.3898ZM32.6476 39.0251H33.981V39.0163L33.9809 39.0074L32.6476 39.0251ZM43.2903 32.4326L42.6779 33.617L43.5438 34.0648L44.2332 33.3754L43.2903 32.4326ZM48.397 27.3258L49.3398 28.2686L49.34 28.2685L48.397 27.3258ZM66.0995 26.6393V27.9726H67.5949L67.4241 26.487L66.0995 26.6393ZM13.9251 26.6393L12.6005 26.4873L12.4301 27.9726H13.9251V26.6393ZM28.9998 26.6393V27.9726H29.5521L29.9426 27.5821L28.9998 26.6393ZM33.42 22.219L34.3628 23.1618L35.0521 22.4726L34.6044 21.6067L33.42 22.219ZM40.0126 11.5765L39.9948 12.9097L40.0037 12.9098H40.0126V11.5765ZM47.3773 18.9412H46.0439V18.95L46.0441 18.9589L47.3773 18.9412ZM36.7346 25.5335L37.347 24.3491L36.4811 23.9013L35.7918 24.5907L36.7346 25.5335ZM31.6279 30.6403L30.6851 29.6975L30.685 29.6976L31.6279 30.6403ZM13.9268 31.3268V29.9935H12.4678L12.5989 31.4467L13.9268 31.3268ZM22.4928 48.3592L23.3978 47.3801L23.3881 47.371L23.3782 47.3622L22.4928 48.3592ZM27.4518 57.7531L26.133 57.9498L26.3271 59.2507L27.6305 59.0744L27.4518 57.7531ZM52.5731 57.7531L52.4545 59.0811L53.7065 59.193L53.8919 57.9497L52.5731 57.7531ZM57.5323 48.3592L56.6469 47.3622L56.637 47.371L56.6272 47.3801L57.5323 48.3592ZM66.0982 31.3268L67.4262 31.4466L67.5573 29.9935H66.0982V31.3268ZM51.0252 31.3268V29.9935H49.6918V31.3268H51.0252ZM37.6702 77.2776L39.0007 77.3629L39.076 76.1902L37.922 75.9682L37.6702 77.2776ZM27.6283 62.4401V61.1068H26.2949V62.4401H27.6283ZM52.3996 62.4401H53.733V61.1068H52.3996V62.4401ZM42.3577 77.2776L42.1058 75.9682L40.9516 76.1903L41.0272 77.3633L42.3577 77.2776ZM40.0171 16.263V14.9297H39.9918L39.9665 14.9306L40.0171 16.263ZM40.0171 21.6174L39.9667 22.9498L39.992 22.9507L40.0173 22.9507L40.0171 21.6174ZM40.0138 41.7019V43.0352H40.0391L40.0644 43.0342L40.0138 41.7019ZM40.0138 36.3477L40.0642 35.0153L40.039 35.0143H40.0138V36.3477ZM64.0395 -0.244859L61.3771 2.41749L63.2628 4.3031L65.9251 1.64076L64.0395 -0.244859ZM69.2737 4.91998C72.5545 1.38845 67.6075 -3.55954 64.075 -0.279073L65.8896 1.67497C66.9114 0.726069 68.2682 2.08432 67.32 3.10498L69.2737 4.91998ZM66.5773 7.61764L69.2396 4.95529L67.354 3.06967L64.6917 5.73202L66.5773 7.61764ZM61.3771 7.61764C62.8126 9.0531 65.1407 9.05419 66.5773 7.61763L64.6917 5.73202C64.297 6.12671 63.6573 6.12655 63.2628 5.73202L61.3771 7.61764ZM61.3772 2.4174C59.9411 3.85332 59.9412 6.18167 61.3771 7.61764L63.2628 5.73202C62.8681 5.33736 62.8682 4.69758 63.2627 4.30318L61.3772 2.4174ZM16.7313 4.26781C17.6769 5.28589 16.3256 6.64979 15.3012 5.69812L13.4863 7.6518C17.0137 10.9289 21.97 5.98966 18.6852 2.45305L16.7313 4.26781ZM14.1031 1.6409L16.7655 4.30324L18.6511 2.41762L15.9887 -0.244723L14.1031 1.6409ZM12.6741 1.64098C13.0688 1.24637 13.7087 1.24648 14.1031 1.64089L15.9887 -0.244723C14.5528 -1.68062 12.2246 -1.68051 10.7887 -0.244804L12.6741 1.64098ZM12.6742 3.06981C12.2796 2.67515 12.2797 2.03537 12.6741 1.64098L10.7887 -0.244804C9.35251 1.19111 9.35263 3.51946 10.7886 4.95543L12.6742 3.06981ZM15.3366 5.73215L12.6742 3.06981L10.7886 4.95543L13.4509 7.61777L15.3366 5.73215ZM6.12305 25.306H2.35742V27.9727H6.12305V25.306ZM6.17214 32.6593C10.9864 32.4819 10.9926 25.4851 6.17232 25.3069L6.07378 27.9717C7.46476 28.0232 7.46872 29.943 6.07396 29.9944L6.17214 32.6593ZM2.35742 32.6602H6.12305V29.9935H2.35742V32.6602ZM-1.31966 28.9831C-1.31966 31.0138 0.326667 32.6602 2.35742 32.6602V29.9935C1.79943 29.9935 1.34701 29.5411 1.34701 28.9831H-1.31966ZM2.35742 25.306C0.326667 25.306 -1.31966 26.9523 -1.31966 28.9831H1.34701C1.34701 28.4251 1.79943 27.9727 2.35742 27.9727V25.306ZM77.6699 25.306H73.9043V27.9727H77.6699V25.306ZM77.719 32.6593C82.5343 32.4819 82.5386 25.4851 77.7192 25.3069L77.6207 27.9717C79.0125 28.0232 79.0149 29.943 77.6208 29.9944L77.719 32.6593ZM73.9043 32.6602H77.6699V29.9935H73.9043V32.6602ZM70.2272 28.9831C70.2272 31.0138 71.8735 32.6602 73.9043 32.6602V29.9935C73.3463 29.9935 72.8939 29.5411 72.8939 28.9831H70.2272ZM73.9043 25.306C71.8735 25.306 70.2272 26.9523 70.2272 28.9831H72.8939C72.8939 28.4251 73.3463 27.9727 73.9043 27.9727V25.306ZM66.5431 50.3134C63.0158 47.037 58.0593 51.9755 61.3442 55.5122L63.2981 53.6975C62.353 52.6799 63.7033 51.3153 64.7282 52.2673L66.5431 50.3134ZM69.2408 53.0099L66.5785 50.3475L64.6928 52.2332L67.3552 54.8955L69.2408 53.0099ZM69.2407 58.2101C70.6769 56.7742 70.6768 54.4458 69.2408 53.0099L67.3552 54.8955C67.7499 55.2902 67.7497 55.9299 67.3553 56.3243L69.2407 58.2101ZM64.0407 58.21C65.4761 59.6455 67.8043 59.6466 69.2408 58.21L67.3552 56.3244C66.9605 56.7191 66.3208 56.7189 65.9263 56.3244L64.0407 58.21ZM61.3783 55.5477L64.0407 58.21L65.9263 56.3244L63.2639 53.6621L61.3783 55.5477ZM12.6742 54.8956L15.3366 52.2333L13.4509 50.3477L10.7886 53.01L12.6742 54.8956ZM12.6742 56.3245C12.2796 55.9299 12.2797 55.2901 12.6741 54.8957L10.7887 53.0099C9.35251 54.4458 9.35263 56.7742 10.7886 58.2101L12.6742 56.3245ZM14.1031 56.3245C13.7084 56.7192 13.0687 56.7191 12.6742 56.3245L10.7886 58.2101C12.2241 59.6456 14.5522 59.6467 15.9887 58.2101L14.1031 56.3245ZM16.7655 53.6622L14.1031 56.3245L15.9887 58.2101L18.6511 55.5478L16.7655 53.6622ZM15.3011 52.2674C16.3216 51.3196 17.6807 52.6757 16.7314 53.6975L18.6851 55.5125C21.9649 51.9821 17.0199 47.0316 13.4864 50.3135L15.3011 52.2674ZM47.5477 36.69L51.968 32.2698L50.0823 30.3842L45.6621 34.8044L47.5477 36.69ZM39.9945 47.723C46.3906 47.8084 50.7165 40.7968 47.7893 35.1349L45.4205 36.3596C47.4219 40.2307 44.4148 45.1151 40.0301 45.0565L39.9945 47.723ZM31.3143 39.0251C31.3143 43.8225 35.2151 47.7231 40.0123 47.7231V45.0564C36.6878 45.0564 33.981 42.3497 33.981 39.0251H31.3143ZM43.9028 31.2483C38.2406 28.3204 31.2295 32.6475 31.3144 39.0428L33.9809 39.0074C33.9226 34.6228 38.8071 31.6154 42.6779 33.617L43.9028 31.2483ZM47.4542 26.383L42.3475 31.4898L44.2332 33.3754L49.3398 28.2686L47.4542 26.383ZM50.0542 25.3059C49.0789 25.3059 48.1435 25.6935 47.454 26.3832L49.34 28.2685C49.5293 28.0791 49.7863 27.9726 50.0542 27.9726V25.3059ZM66.0995 25.3059H50.0542V27.9726H66.0995V25.3059ZM15.2498 26.7912C18.69 -3.20357 61.3239 -3.22331 64.7749 26.7916L67.4241 26.487C63.6106 -6.68084 16.4016 -6.65434 12.6005 26.4873L15.2498 26.7912ZM28.9998 25.3059H13.9251V27.9726H28.9998V25.3059ZM32.4772 21.2762L28.057 25.6964L29.9426 27.5821L34.3628 23.1618L32.4772 21.2762ZM40.0304 10.2433C33.6343 10.1578 29.3084 17.1696 32.2356 22.8314L34.6044 21.6067C32.6031 17.7357 35.6101 12.8511 39.9948 12.9097L40.0304 10.2433ZM48.7106 18.9412C48.7106 14.1439 44.8098 10.2432 40.0126 10.2432V12.9098C43.3371 12.9098 46.0439 15.6167 46.0439 18.9412H48.7106ZM36.1221 26.7178C41.7843 29.6459 48.7954 25.3187 48.7105 18.9235L46.0441 18.9589C46.1023 23.3435 41.2178 26.3508 37.347 24.3491L36.1221 26.7178ZM32.5708 31.5831L37.6774 26.4763L35.7918 24.5907L30.6851 29.6975L32.5708 31.5831ZM29.9707 32.6602C30.946 32.6602 31.8814 32.2726 32.5709 31.5829L30.685 29.6976C30.4957 29.887 30.2386 29.9935 29.9707 29.9935V32.6602ZM13.9268 32.6602H29.9707V29.9935H13.9268V32.6602ZM23.3782 47.3622C18.7064 43.2133 15.8155 37.4206 15.2548 31.207L12.5989 31.4467C13.2198 38.328 16.4218 44.7509 21.6074 49.3561L23.3782 47.3622ZM28.7705 57.5564C28.1925 53.6807 26.3074 50.0696 23.3978 47.3801L21.5877 49.3383C24.0464 51.611 25.6435 54.6679 26.133 57.9498L28.7705 57.5564ZM52.6918 56.425C52.6415 56.4215 52.5869 56.4198 52.5826 56.4198C52.5808 56.4198 52.5782 56.4198 52.577 56.4198C52.5749 56.4197 52.5727 56.4197 52.5709 56.4197C52.5672 56.4197 52.562 56.4197 52.5558 56.4197C52.5433 56.4197 52.5249 56.4197 52.501 56.4197C52.453 56.4197 52.3822 56.4196 52.29 56.4196C52.1055 56.4196 51.8353 56.4195 51.4916 56.4195C50.8042 56.4194 49.8227 56.4194 48.6451 56.4193C46.29 56.4192 43.1506 56.4192 40.0113 56.4192C36.8721 56.4192 33.7329 56.4192 31.3781 56.4193C30.2008 56.4194 29.2195 56.4194 28.5324 56.4195C28.1888 56.4195 27.9187 56.4196 27.7344 56.4196C27.6423 56.4196 27.5715 56.4197 27.5237 56.4197C27.4998 56.4197 27.4814 56.4197 27.4689 56.4197C27.4628 56.4197 27.4576 56.4197 27.4539 56.4197C27.4521 56.4197 27.4499 56.4197 27.4478 56.4198C27.4466 56.4198 27.4439 56.4198 27.4421 56.4198C27.4374 56.4198 27.3527 56.4234 27.273 56.4318L27.6305 59.0744C27.5508 59.0827 27.4664 59.0863 27.4621 59.0864C27.4607 59.0864 27.4586 59.0864 27.4581 59.0864C27.4576 59.0864 27.4577 59.0864 27.4591 59.0864C27.4615 59.0864 27.4656 59.0864 27.4715 59.0864C27.4834 59.0864 27.5012 59.0864 27.525 59.0863C27.5725 59.0863 27.643 59.0863 27.7351 59.0863C27.9192 59.0862 28.1891 59.0862 28.5326 59.0862C29.2197 59.0861 30.2009 59.086 31.3783 59.086C33.7329 59.0859 36.8721 59.0858 40.0113 59.0858C43.1506 59.0858 46.2899 59.0859 48.645 59.086C49.8225 59.086 50.804 59.0861 51.4913 59.0862C51.835 59.0862 52.105 59.0862 52.2893 59.0863C52.3815 59.0863 52.4521 59.0863 52.4997 59.0863C52.5235 59.0864 52.5414 59.0864 52.5533 59.0864C52.5592 59.0864 52.5633 59.0864 52.5658 59.0864C52.5671 59.0864 52.5673 59.0864 52.5668 59.0864C52.5664 59.0864 52.5644 59.0864 52.5631 59.0864C52.5591 59.0863 52.5047 59.0847 52.4545 59.0811L52.6918 56.425ZM56.6272 47.3801C53.7174 50.0699 51.8321 53.6814 51.2544 57.5565L53.8919 57.9497C54.3811 54.6687 55.9784 51.6113 58.4374 49.3383L56.6272 47.3801ZM64.7703 31.207C64.2098 37.4206 61.3187 43.2134 56.6469 47.3622L58.4177 49.3561C63.6032 44.751 66.8054 38.328 67.4262 31.4466L64.7703 31.207ZM51.0252 32.6602H66.0982V29.9935H51.0252V32.6602ZM52.3585 31.327V31.3268H49.6918V31.327H52.3585ZM26.2949 65.1173C26.2949 71.7981 31.0916 77.3698 37.4183 78.5869L37.922 75.9682C32.8242 74.9875 28.9616 70.4927 28.9616 65.1173H26.2949ZM26.2949 62.4401V65.1173H28.9616V62.4401H26.2949ZM52.3996 61.1068H27.6283V63.7734H52.3996V61.1068ZM53.733 65.1173V62.4401H51.0663V65.1173H53.733ZM42.6096 78.5869C48.9363 77.3698 53.733 71.7981 53.733 65.1173H51.0663C51.0663 70.4927 47.2037 74.9875 42.1058 75.9682L42.6096 78.5869ZM36.3396 77.1922C36.2599 78.4339 36.6438 79.5005 37.3871 80.2555C38.1105 80.9901 39.0809 81.3339 40.0146 81.3337C40.9483 81.3335 41.9184 80.9893 42.6415 80.2546C43.3845 79.4997 43.7683 78.4333 43.6883 77.1918L41.0272 77.3633C41.0641 77.9365 40.8913 78.2313 40.741 78.384C40.5707 78.5571 40.3105 78.6669 40.014 78.667C39.7175 78.6671 39.4575 78.5573 39.2872 78.3844C39.137 78.2318 38.9639 77.9369 39.0007 77.3629L36.3396 77.1922ZM40.0171 17.5964C40.7568 17.5964 41.361 18.2005 41.361 18.9402H44.0276C44.0276 16.7277 42.2296 14.9297 40.0171 14.9297V17.5964ZM40.0675 20.285C38.2308 20.2155 38.2328 17.6651 40.0677 17.5954L39.9665 14.9306C34.708 15.1303 34.7118 22.7509 39.9667 22.9498L40.0675 20.285ZM41.361 18.9402C41.361 19.6798 40.7569 20.284 40.017 20.2841L40.0173 22.9507C42.2295 22.9505 44.0276 21.1528 44.0276 18.9402H41.361ZM36.0033 39.0247C36.0033 41.2372 37.8013 43.0352 40.0138 43.0352V40.3685C39.2741 40.3685 38.6699 39.7644 38.6699 39.0247H36.0033ZM40.0138 35.0143C37.8014 35.0143 36.0033 36.8121 36.0033 39.0247H38.6699C38.6699 38.2851 39.274 37.681 40.0138 37.681V35.0143ZM40.0644 43.0342C45.3219 42.8346 45.3201 35.214 40.0642 35.0153L39.9634 37.68C41.799 37.7494 41.7991 40.2998 39.9632 40.3695L40.0644 43.0342Z" fill="url(#paint2_radial_5552_48157)" fill-opacity="0.3" mask="url(#path-1-inside-1_5552_48157)"/>
</g>
</g>
<defs>
<filter id="filter0_bd_5552_48157" x="-666.653" y="-666.667" width="1413.32" height="1413.33" filterUnits="userSpaceOnUse" color-interpolation-filters="sRGB">
<feFlood flood-opacity="0" result="BackgroundImageFix"/>
<feGaussianBlur in="BackgroundImageFix" stdDeviation="333.333"/>
<feComposite in2="SourceAlpha" operator="in" result="effect1_backgroundBlur_5552_48157"/>
<feColorMatrix in="SourceAlpha" type="matrix" values="0 0 0 0 0 0 0 0 0 0 0 0 0 0 0 0 0 0 127 0" result="hardAlpha"/>
<feOffset dy="2.66667"/>
<feGaussianBlur stdDeviation="1.33333"/>
<feComposite in2="hardAlpha" operator="out"/>
<feColorMatrix type="matrix" values="0 0 0 0 0 0 0 0 0 0 0 0 0 0 0 0 0 0 0.25 0"/>
<feBlend mode="normal" in2="effect1_backgroundBlur_5552_48157" result="effect2_dropShadow_5552_48157"/>
<feBlend mode="normal" in="SourceGraphic" in2="effect2_dropShadow_5552_48157" result="shape"/>
</filter>
<linearGradient id="paint0_linear_5552_48157" x1="3.31403" y1="2.06062" x2="41.0151" y2="98.8494" gradientUnits="userSpaceOnUse">
<stop stop-color="white" stop-opacity="0.6"/>
<stop offset="1" stop-color="white" stop-opacity="0"/>
</linearGradient>
<radialGradient id="paint1_radial_5552_48157" cx="0" cy="0" r="1" gradientUnits="userSpaceOnUse" gradientTransform="translate(40.0062 0.727277) rotate(90) scale(69.4548 69.4416)">
<stop stop-color="white"/>
<stop offset="1" stop-color="white" stop-opacity="0"/>
</radialGradient>
<radialGradient id="paint2_radial_5552_48157" cx="0" cy="0" r="1" gradientUnits="userSpaceOnUse" gradientTransform="translate(40.0062 80.0003) rotate(-90) scale(40.0002 39.9926)">
<stop stop-color="white"/>
<stop offset="1" stop-color="white" stop-opacity="0"/>
</radialGradient>
<clipPath id="clip0_5552_48157">
<rect width="80" height="80" fill="white"/>
</clipPath>
</defs>
</svg>
