<svg xmlns="http://www.w3.org/2000/svg" width="80" height="80" viewBox="0 0 80 80" fill="none">
<g clip-path="url(#clip0_5784_36096)">
<g filter="url(#filter0_bd_5784_36096)">
<mask id="path-1-inside-1_5784_36096" fill="white">
<path fill-rule="evenodd" clip-rule="evenodd" d="M45.3843 3.46365C45.0028 3.75967 44.636 4.07827 44.2893 4.42495L39.846 8.86893L35.5234 4.5458L41.3084 1.65334C42.2098 1.2029 43.3005 1.3793 44.0134 2.0928L45.3843 3.46365ZM68.4931 34.1064C71.1322 36.7498 71.1316 41.0485 68.4894 43.6901L52.5824 59.5977C49.8505 62.3291 46.2183 63.8342 42.3548 63.8342H38.3045L23.9282 78.2098C23.0127 79.1247 21.5289 79.1253 20.6134 78.2098L0.530396 58.1268C-0.385132 57.2113 -0.385132 55.7275 0.530396 54.812L8.11036 47.2314L10.3827 49.5037C12.2168 51.3384 14.6558 52.3486 17.2498 52.3486C19.8438 52.3486 22.2827 51.3378 24.1168 49.5043C25.3888 48.2318 26.2641 46.668 26.6809 44.9639C28.3856 44.5464 29.9488 43.6718 31.2213 42.3992C32.4933 41.1273 33.3686 39.5635 33.7854 37.8594C35.4901 37.4419 37.0532 36.5673 38.3258 35.2947C39.6241 33.9971 40.4761 32.42 40.8844 30.7562C42.591 30.3393 44.1565 29.464 45.4309 28.1902C49.217 24.4036 49.217 18.2427 45.4303 14.4561L43.158 12.1838L47.602 7.74039C50.2454 5.09695 54.5459 5.09695 57.1894 7.74039L57.1912 7.74222C57.1916 7.74222 57.1917 7.7425 57.192 7.74268L57.1924 7.74283C59.5783 10.1293 59.4263 13.211 58.7061 15.0329C59.538 15.3692 60.3016 15.8733 60.9552 16.527L60.9595 16.5313C63.3442 18.9165 63.1916 21.9982 62.4714 23.8189C63.2966 24.1534 64.0546 24.6514 64.7046 25.2972C64.7091 25.3013 64.7134 25.3056 64.7175 25.3099L64.7236 25.3161C67.1094 27.7026 66.9574 30.7836 66.2372 32.6055C67.0679 32.9418 67.8309 33.4448 68.4839 34.0972L68.4931 34.1064ZM71.5822 47.2324L79.1621 54.813C80.0777 55.7279 80.0777 57.2123 79.1621 58.1278L59.0785 78.2108C58.1636 79.1264 56.6792 79.1264 55.7643 78.2108L45.7734 68.22C49.5894 67.537 53.1025 65.7121 55.9016 62.913L71.5822 47.2324ZM13.6971 46.1902C15.6588 48.1524 18.8399 48.1524 20.8016 46.1902C22.7639 44.2285 22.7639 41.0479 20.8016 39.0857C22.7639 41.0479 25.9444 41.0479 27.9067 39.0857C29.8684 37.124 29.8684 33.9428 27.9067 31.9812C29.8684 33.9428 33.0495 33.9428 35.0112 31.9812C36.9729 30.0195 36.9729 26.8383 35.0112 24.8767C36.9729 26.8383 40.154 26.8383 42.1157 24.8767C44.078 22.9144 44.078 19.7338 42.1157 17.7716L32.0986 7.75446C30.1369 5.79279 26.9558 5.79279 24.9941 7.75446C23.0324 9.71613 23.0324 12.8973 24.9941 14.859L26.249 16.1144C24.2873 14.1522 21.1061 14.1522 19.1445 16.1144C17.1828 18.0761 17.1828 21.2573 19.1445 23.2189L21.6549 25.7293C19.6932 23.7677 16.512 23.7677 14.5504 25.7293C12.5881 27.691 12.5881 30.8722 14.5504 32.8338L17.0607 35.3448C15.0985 33.3825 11.9179 33.3825 9.95563 35.3448C7.99396 37.3065 7.99396 40.487 9.95563 42.4493L13.6971 46.1902Z"/>
</mask>
<path fill-rule="evenodd" clip-rule="evenodd" d="M45.3843 3.46365C45.0028 3.75967 44.636 4.07827 44.2893 4.42495L39.846 8.86893L35.5234 4.5458L41.3084 1.65334C42.2098 1.2029 43.3005 1.3793 44.0134 2.0928L45.3843 3.46365ZM68.4931 34.1064C71.1322 36.7498 71.1316 41.0485 68.4894 43.6901L52.5824 59.5977C49.8505 62.3291 46.2183 63.8342 42.3548 63.8342H38.3045L23.9282 78.2098C23.0127 79.1247 21.5289 79.1253 20.6134 78.2098L0.530396 58.1268C-0.385132 57.2113 -0.385132 55.7275 0.530396 54.812L8.11036 47.2314L10.3827 49.5037C12.2168 51.3384 14.6558 52.3486 17.2498 52.3486C19.8438 52.3486 22.2827 51.3378 24.1168 49.5043C25.3888 48.2318 26.2641 46.668 26.6809 44.9639C28.3856 44.5464 29.9488 43.6718 31.2213 42.3992C32.4933 41.1273 33.3686 39.5635 33.7854 37.8594C35.4901 37.4419 37.0532 36.5673 38.3258 35.2947C39.6241 33.9971 40.4761 32.42 40.8844 30.7562C42.591 30.3393 44.1565 29.464 45.4309 28.1902C49.217 24.4036 49.217 18.2427 45.4303 14.4561L43.158 12.1838L47.602 7.74039C50.2454 5.09695 54.5459 5.09695 57.1894 7.74039L57.1912 7.74222C57.1916 7.74222 57.1917 7.7425 57.192 7.74268L57.1924 7.74283C59.5783 10.1293 59.4263 13.211 58.7061 15.0329C59.538 15.3692 60.3016 15.8733 60.9552 16.527L60.9595 16.5313C63.3442 18.9165 63.1916 21.9982 62.4714 23.8189C63.2966 24.1534 64.0546 24.6514 64.7046 25.2972C64.7091 25.3013 64.7134 25.3056 64.7175 25.3099L64.7236 25.3161C67.1094 27.7026 66.9574 30.7836 66.2372 32.6055C67.0679 32.9418 67.8309 33.4448 68.4839 34.0972L68.4931 34.1064ZM71.5822 47.2324L79.1621 54.813C80.0777 55.7279 80.0777 57.2123 79.1621 58.1278L59.0785 78.2108C58.1636 79.1264 56.6792 79.1264 55.7643 78.2108L45.7734 68.22C49.5894 67.537 53.1025 65.7121 55.9016 62.913L71.5822 47.2324ZM13.6971 46.1902C15.6588 48.1524 18.8399 48.1524 20.8016 46.1902C22.7639 44.2285 22.7639 41.0479 20.8016 39.0857C22.7639 41.0479 25.9444 41.0479 27.9067 39.0857C29.8684 37.124 29.8684 33.9428 27.9067 31.9812C29.8684 33.9428 33.0495 33.9428 35.0112 31.9812C36.9729 30.0195 36.9729 26.8383 35.0112 24.8767C36.9729 26.8383 40.154 26.8383 42.1157 24.8767C44.078 22.9144 44.078 19.7338 42.1157 17.7716L32.0986 7.75446C30.1369 5.79279 26.9558 5.79279 24.9941 7.75446C23.0324 9.71613 23.0324 12.8973 24.9941 14.859L26.249 16.1144C24.2873 14.1522 21.1061 14.1522 19.1445 16.1144C17.1828 18.0761 17.1828 21.2573 19.1445 23.2189L21.6549 25.7293C19.6932 23.7677 16.512 23.7677 14.5504 25.7293C12.5881 27.691 12.5881 30.8722 14.5504 32.8338L17.0607 35.3448C15.0985 33.3825 11.9179 33.3825 9.95563 35.3448C7.99396 37.3065 7.99396 40.487 9.95563 42.4493L13.6971 46.1902Z" fill="url(#paint0_linear_5784_36096)" fill-opacity="0.8" shape-rendering="crispEdges"/>
<path fill-rule="evenodd" clip-rule="evenodd" d="M45.3843 3.46365C45.0028 3.75967 44.636 4.07827 44.2893 4.42495L39.846 8.86893L35.5234 4.5458L41.3084 1.65334C42.2098 1.2029 43.3005 1.3793 44.0134 2.0928L45.3843 3.46365ZM68.4931 34.1064C71.1322 36.7498 71.1316 41.0485 68.4894 43.6901L52.5824 59.5977C49.8505 62.3291 46.2183 63.8342 42.3548 63.8342H38.3045L23.9282 78.2098C23.0127 79.1247 21.5289 79.1253 20.6134 78.2098L0.530396 58.1268C-0.385132 57.2113 -0.385132 55.7275 0.530396 54.812L8.11036 47.2314L10.3827 49.5037C12.2168 51.3384 14.6558 52.3486 17.2498 52.3486C19.8438 52.3486 22.2827 51.3378 24.1168 49.5043C25.3888 48.2318 26.2641 46.668 26.6809 44.9639C28.3856 44.5464 29.9488 43.6718 31.2213 42.3992C32.4933 41.1273 33.3686 39.5635 33.7854 37.8594C35.4901 37.4419 37.0532 36.5673 38.3258 35.2947C39.6241 33.9971 40.4761 32.42 40.8844 30.7562C42.591 30.3393 44.1565 29.464 45.4309 28.1902C49.217 24.4036 49.217 18.2427 45.4303 14.4561L43.158 12.1838L47.602 7.74039C50.2454 5.09695 54.5459 5.09695 57.1894 7.74039L57.1912 7.74222C57.1916 7.74222 57.1917 7.7425 57.192 7.74268L57.1924 7.74283C59.5783 10.1293 59.4263 13.211 58.7061 15.0329C59.538 15.3692 60.3016 15.8733 60.9552 16.527L60.9595 16.5313C63.3442 18.9165 63.1916 21.9982 62.4714 23.8189C63.2966 24.1534 64.0546 24.6514 64.7046 25.2972C64.7091 25.3013 64.7134 25.3056 64.7175 25.3099L64.7236 25.3161C67.1094 27.7026 66.9574 30.7836 66.2372 32.6055C67.0679 32.9418 67.8309 33.4448 68.4839 34.0972L68.4931 34.1064ZM71.5822 47.2324L79.1621 54.813C80.0777 55.7279 80.0777 57.2123 79.1621 58.1278L59.0785 78.2108C58.1636 79.1264 56.6792 79.1264 55.7643 78.2108L45.7734 68.22C49.5894 67.537 53.1025 65.7121 55.9016 62.913L71.5822 47.2324ZM13.6971 46.1902C15.6588 48.1524 18.8399 48.1524 20.8016 46.1902C22.7639 44.2285 22.7639 41.0479 20.8016 39.0857C22.7639 41.0479 25.9444 41.0479 27.9067 39.0857C29.8684 37.124 29.8684 33.9428 27.9067 31.9812C29.8684 33.9428 33.0495 33.9428 35.0112 31.9812C36.9729 30.0195 36.9729 26.8383 35.0112 24.8767C36.9729 26.8383 40.154 26.8383 42.1157 24.8767C44.078 22.9144 44.078 19.7338 42.1157 17.7716L32.0986 7.75446C30.1369 5.79279 26.9558 5.79279 24.9941 7.75446C23.0324 9.71613 23.0324 12.8973 24.9941 14.859L26.249 16.1144C24.2873 14.1522 21.1061 14.1522 19.1445 16.1144C17.1828 18.0761 17.1828 21.2573 19.1445 23.2189L21.6549 25.7293C19.6932 23.7677 16.512 23.7677 14.5504 25.7293C12.5881 27.691 12.5881 30.8722 14.5504 32.8338L17.0607 35.3448C15.0985 33.3825 11.9179 33.3825 9.95563 35.3448C7.99396 37.3065 7.99396 40.487 9.95563 42.4493L13.6971 46.1902Z" fill="#344254" fill-opacity="0.15" shape-rendering="crispEdges"/>
<path d="M44.2893 4.42495L43.3465 3.48215L43.3464 3.48221L44.2893 4.42495ZM45.3843 3.46365L46.2017 4.51702L47.3963 3.59003L46.3271 2.52084L45.3843 3.46365ZM39.846 8.86893L38.9031 9.81167L39.846 10.7547L40.7888 9.81167L39.846 8.86893ZM35.5234 4.5458L34.9272 3.35323L33.2727 4.18047L34.5806 5.48855L35.5234 4.5458ZM41.3084 1.65334L40.7124 0.460614L40.7121 0.460775L41.3084 1.65334ZM44.0134 2.0928L43.0702 3.0352L43.0706 3.03561L44.0134 2.0928ZM68.4894 43.6901L67.5467 42.7472L67.5466 42.7473L68.4894 43.6901ZM68.4931 34.1064L69.4367 33.1643L69.4359 33.1636L68.4931 34.1064ZM52.5824 59.5977L53.5251 60.5406L53.5253 60.5405L52.5824 59.5977ZM38.3045 63.8342V62.5009H37.7522L37.3617 62.8914L38.3045 63.8342ZM23.9282 78.2098L24.8707 79.1529L24.871 79.1526L23.9282 78.2098ZM20.6134 78.2098L19.6706 79.1526H19.6706L20.6134 78.2098ZM0.530396 58.1268L1.47321 57.184H1.4732L0.530396 58.1268ZM0.530396 54.812L1.4732 55.7548L1.47324 55.7547L0.530396 54.812ZM8.11036 47.2314L9.05317 46.2886L8.11032 45.3457L7.16751 46.2886L8.11036 47.2314ZM10.3827 49.5037L11.3257 48.5611L11.3255 48.5609L10.3827 49.5037ZM24.1168 49.5043L25.0595 50.4473L25.0599 50.4469L24.1168 49.5043ZM26.6809 44.9639L26.3638 43.6689L25.578 43.8613L25.3858 44.6471L26.6809 44.9639ZM31.2213 42.3992L30.2785 41.4564L30.2785 41.4564L31.2213 42.3992ZM33.7854 37.8594L33.4683 36.5644L32.6825 36.7568L32.4903 37.5426L33.7854 37.8594ZM38.3258 35.2947L37.3832 34.3517L37.383 34.3519L38.3258 35.2947ZM40.8844 30.7562L40.568 29.4609L39.7823 29.6528L39.5895 30.4384L40.8844 30.7562ZM45.4309 28.1902L46.3735 29.1333L46.3738 29.133L45.4309 28.1902ZM45.4303 14.4561L44.4875 15.3989L45.4303 14.4561ZM43.158 12.1838L42.2152 11.2409L41.2723 12.1837L42.2152 13.1266L43.158 12.1838ZM47.602 7.74039L48.5447 8.68326L48.5448 8.6832L47.602 7.74039ZM57.1894 7.74039L56.2466 8.6832V8.6832L57.1894 7.74039ZM57.1912 7.74222L56.2484 8.68503L56.6389 9.07555H57.1912V7.74222ZM57.192 7.74268L56.3741 8.79573L56.5545 8.9358L56.7712 9.00787L57.192 7.74268ZM57.1924 7.74283L58.1353 6.80014L57.9124 6.57716L57.6132 6.47764L57.1924 7.74283ZM58.7061 15.0329L57.4661 14.5427L56.9797 15.7731L58.2064 16.269L58.7061 15.0329ZM60.9552 16.527L60.0124 17.4698L60.9552 16.527ZM60.9595 16.5313L61.9024 15.5886L61.9023 15.5885L60.9595 16.5313ZM62.4714 23.8189L61.2315 23.3284L60.7452 24.5579L61.9705 25.0546L62.4714 23.8189ZM64.7046 25.2972L63.7649 26.2431L63.7859 26.2639L63.8078 26.2838L64.7046 25.2972ZM64.7175 25.3099L63.7594 26.2372L63.7643 26.2422L64.7175 25.3099ZM64.7236 25.3161L63.7704 26.2484L63.7755 26.2536L63.7806 26.2588L64.7236 25.3161ZM66.2372 32.6055L64.9973 32.1154L64.5111 33.3452L65.7369 33.8414L66.2372 32.6055ZM68.4839 34.0972L69.4267 33.1544L69.4263 33.154L68.4839 34.0972ZM79.1621 54.813L78.2193 55.7558L78.2196 55.7561L79.1621 54.813ZM71.5822 47.2324L72.525 46.2896L71.5822 45.3468L70.6394 46.2896L71.5822 47.2324ZM79.1621 58.1278L80.1049 59.0706L80.1049 59.0706L79.1621 58.1278ZM59.0785 78.2108L58.1357 77.268L58.1354 77.2683L59.0785 78.2108ZM55.7643 78.2108L56.7074 77.2683L56.7071 77.268L55.7643 78.2108ZM45.7734 68.22L45.5385 66.9075L43.0252 67.3574L44.8306 69.1628L45.7734 68.22ZM55.9016 62.913L56.8444 63.8558L55.9016 62.913ZM20.8016 46.1902L19.8589 45.2472L19.8586 45.2475L20.8016 46.1902ZM13.6971 46.1902L14.64 45.2475L14.6398 45.2473L13.6971 46.1902ZM27.9067 39.0857L28.8495 40.0285H28.8495L27.9067 39.0857ZM35.0112 31.9812L35.954 32.924V32.924L35.0112 31.9812ZM42.1157 24.8767L41.1729 23.9339L42.1157 24.8767ZM42.1157 17.7716L41.1729 18.7144L42.1157 17.7716ZM32.0986 7.75446L31.1558 8.69727L31.1558 8.69727L32.0986 7.75446ZM24.9941 7.75446L25.9369 8.69727L25.9369 8.69727L24.9941 7.75446ZM24.9941 14.859L25.9371 13.9164L25.9369 13.9161L24.9941 14.859ZM26.249 16.1144L25.306 17.0571L27.192 15.1719L26.249 16.1144ZM19.1445 16.1144L20.0873 17.0573L20.0874 17.0571L19.1445 16.1144ZM14.5504 25.7293L15.493 26.6723L15.4932 26.6721L14.5504 25.7293ZM14.5504 32.8338L15.4933 31.8911L15.493 31.8909L14.5504 32.8338ZM17.0607 35.3448L16.1179 36.2876L18.0037 34.4021L17.0607 35.3448ZM9.95563 35.3448L10.8984 36.2876L9.95563 35.3448ZM9.95563 42.4493L9.01267 43.392L9.0129 43.3922L9.95563 42.4493ZM45.2321 5.36776C45.5351 5.06482 45.8592 4.78279 46.2017 4.51702L44.5669 2.41027C44.1464 2.73655 43.7369 3.09172 43.3465 3.48215L45.2321 5.36776ZM40.7888 9.81167L45.2322 5.3677L43.3464 3.48221L38.9031 7.92618L40.7888 9.81167ZM34.5806 5.48855L38.9031 9.81167L40.7888 7.92618L36.4663 3.60306L34.5806 5.48855ZM40.7121 0.460775L34.9272 3.35323L36.1197 5.73837L41.9046 2.84591L40.7121 0.460775ZM44.9566 1.15039C43.8375 0.0302576 42.1266 -0.246007 40.7124 0.460614L41.9043 2.84608C42.2931 2.65182 42.7636 2.72834 43.0702 3.0352L44.9566 1.15039ZM46.3271 2.52084L44.9562 1.14999L43.0706 3.03561L44.4415 4.40646L46.3271 2.52084ZM69.4321 44.633C72.5951 41.4708 72.5956 36.3284 69.4367 33.1643L67.5495 35.0484C69.6689 37.1713 69.6682 40.6263 67.5467 42.7472L69.4321 44.633ZM53.5253 60.5405L69.4323 44.6329L67.5466 42.7473L51.6396 58.6549L53.5253 60.5405ZM42.3548 65.1675C46.572 65.1675 50.5433 63.5218 53.5251 60.5406L51.6397 58.6548C49.1577 61.1363 45.8645 62.5009 42.3548 62.5009V65.1675ZM38.3045 65.1675H42.3548V62.5009H38.3045V65.1675ZM24.871 79.1526L39.2473 64.777L37.3617 62.8914L22.9854 77.267L24.871 79.1526ZM19.6706 79.1526C21.1072 80.5892 23.435 80.5877 24.8707 79.1529L22.9857 77.2667C22.5904 77.6617 21.9507 77.6614 21.5562 77.267L19.6706 79.1526ZM-0.412413 59.0696L19.6706 79.1526L21.5562 77.267L1.47321 57.184L-0.412413 59.0696ZM-0.412413 53.8691C-1.84864 55.3054 -1.84864 57.6334 -0.412413 59.0696L1.4732 57.184C1.07838 56.7891 1.07838 56.1496 1.4732 55.7548L-0.412413 53.8691ZM7.16751 46.2886L-0.412451 53.8692L1.47324 55.7547L9.0532 48.1742L7.16751 46.2886ZM11.3255 48.5609L9.05317 46.2886L7.16755 48.1742L9.43989 50.4465L11.3255 48.5609ZM17.2498 51.0152C15.0094 51.0152 12.9096 50.1456 11.3257 48.5611L9.43973 50.4464C11.524 52.5313 14.3022 53.6819 17.2498 53.6819V51.0152ZM23.1742 48.5614C21.59 50.1451 19.49 51.0152 17.2498 51.0152V53.6819C20.1975 53.6819 22.9755 52.5306 25.0595 50.4473L23.1742 48.5614ZM25.3858 44.6471C25.0271 46.1133 24.2741 47.4609 23.1738 48.5618L25.0599 50.4469C26.5035 49.0026 27.501 47.2227 27.9761 45.2808L25.3858 44.6471ZM30.2785 41.4564C29.1779 42.5571 27.831 43.3095 26.3638 43.6689L26.9981 46.259C28.9403 45.7834 30.7196 44.7866 32.1641 43.342L30.2785 41.4564ZM32.4903 37.5426C32.1316 39.0089 31.3786 40.3563 30.2785 41.4564L32.1641 43.342C33.608 41.8982 34.6055 40.1182 35.0806 38.1763L32.4903 37.5426ZM37.383 34.3519C36.2824 35.4526 34.9355 36.205 33.4683 36.5644L34.1026 39.1545C36.0448 38.6789 37.8241 37.6821 39.2686 36.2375L37.383 34.3519ZM39.5895 30.4384C39.2373 31.8735 38.5034 33.2321 37.3832 34.3517L39.2684 36.2378C40.7447 34.7621 41.7149 32.9665 42.1793 31.0739L39.5895 30.4384ZM44.4884 27.2472C43.386 28.349 42.0368 29.1021 40.568 29.4609L41.2008 32.0514C43.1451 31.5765 44.9271 30.579 46.3735 29.1333L44.4884 27.2472ZM44.4875 15.3989C47.7535 18.6648 47.7535 23.9816 44.4881 27.2475L46.3738 29.133C50.6805 24.8256 50.6805 17.8206 46.3731 13.5133L44.4875 15.3989ZM42.2152 13.1266L44.4875 15.3989L46.3731 13.5133L44.1008 11.2409L42.2152 13.1266ZM46.6592 6.79751L42.2152 11.2409L44.1007 13.1266L48.5447 8.68326L46.6592 6.79751ZM58.1322 6.79758C54.968 3.63345 49.8233 3.63345 46.6591 6.79758L48.5448 8.6832C50.6675 6.56046 54.1238 6.56046 56.2466 8.6832L58.1322 6.79758ZM58.134 6.79941L58.1322 6.79758L56.2466 8.6832L56.2484 8.68503L58.134 6.79941ZM58.0098 6.68963C58.0515 6.72202 58.0835 6.7509 58.1037 6.76974C58.1225 6.78737 58.1371 6.80223 58.1371 6.80223C58.1508 6.816 58.0994 6.76224 58.0354 6.70994C57.9594 6.64786 57.8413 6.56525 57.6805 6.50186C57.5163 6.43711 57.3494 6.40889 57.1912 6.40889V9.07555C57.0332 9.07555 56.8665 9.04737 56.7024 8.98267C56.5418 8.91935 56.4238 8.83682 56.348 8.77483C56.2841 8.72262 56.2327 8.66897 56.2465 8.68284C56.2466 8.68289 56.2613 8.69781 56.2801 8.71548C56.3003 8.73438 56.3324 8.7633 56.3741 8.79573L58.0098 6.68963ZM57.6132 6.47764L57.6128 6.4775L56.7712 9.00787L56.7716 9.00802L57.6132 6.47764ZM59.9461 15.523C60.8007 13.3612 61.0016 9.66712 58.1353 6.80014L56.2495 8.68552C58.155 10.5915 58.0519 13.0608 57.4661 14.5427L59.9461 15.523ZM61.8981 15.5842C61.119 14.8051 60.2051 14.2007 59.2058 13.7967L58.2064 16.269C58.8709 16.5377 59.4841 16.9415 60.0124 17.4698L61.8981 15.5842ZM61.9023 15.5885L61.8981 15.5842L60.0124 17.4698L60.0167 17.4741L61.9023 15.5885ZM63.7112 24.3093C64.5659 22.1488 64.7677 18.4546 61.9024 15.5886L60.0166 17.474C61.9206 19.3785 61.8173 21.8476 61.2315 23.3284L63.7112 24.3093ZM65.6443 24.3513C64.869 23.5811 63.9619 22.9844 62.9722 22.5832L61.9705 25.0546C62.6312 25.3224 63.2402 25.7218 63.7649 26.2431L65.6443 24.3513ZM65.6756 24.3826C65.6746 24.3816 65.6651 24.3717 65.6541 24.3607C65.6423 24.3489 65.6241 24.3311 65.6014 24.3105L63.8078 26.2838C63.7896 26.2673 63.7759 26.2537 63.7683 26.2462C63.7616 26.2395 63.7563 26.234 63.7594 26.2372L65.6756 24.3826ZM65.6767 24.3838L65.6707 24.3776L63.7643 26.2422L63.7704 26.2484L65.6767 24.3838ZM67.4772 33.0957C68.3318 30.9338 68.5327 27.2404 65.6665 24.3734L63.7806 26.2588C65.6861 28.1648 65.5831 30.6335 64.9973 32.1154L67.4772 33.0957ZM69.4263 33.154C68.6476 32.376 67.7345 31.7732 66.7376 31.3696L65.7369 33.8414C66.4013 34.1104 67.0141 34.5135 67.5416 35.0405L69.4263 33.154ZM69.4359 33.1636L69.4267 33.1544L67.5411 35.04L67.5503 35.0492L69.4359 33.1636ZM80.105 53.8702L72.525 46.2896L70.6393 48.1752L78.2193 55.7558L80.105 53.8702ZM80.1049 59.0706C81.541 57.6346 81.5414 55.3057 80.1046 53.8699L78.2196 55.7561C78.6139 56.1501 78.6143 56.79 78.2193 57.185L80.1049 59.0706ZM60.0213 79.1537L80.1049 59.0706L78.2193 57.185L58.1357 77.268L60.0213 79.1537ZM54.8212 79.1533C56.2569 80.59 58.5859 80.59 60.0216 79.1533L58.1354 77.2683C57.7412 77.6628 57.1016 77.6628 56.7074 77.2683L54.8212 79.1533ZM44.8306 69.1628L54.8215 79.1536L56.7071 77.268L46.7162 67.2772L44.8306 69.1628ZM54.9588 61.9702C52.3518 64.5772 49.0854 66.2727 45.5385 66.9075L46.0083 69.5325C50.0933 68.8013 53.8533 66.8469 56.8444 63.8558L54.9588 61.9702ZM70.6394 46.2896L54.9588 61.9702L56.8444 63.8558L72.525 48.1752L70.6394 46.2896ZM19.8586 45.2475C18.4177 46.6889 16.081 46.6889 14.64 45.2475L12.7541 47.1328C15.2365 49.616 19.2621 49.616 21.7445 47.1328L19.8586 45.2475ZM19.8588 40.0285C21.3004 41.4701 21.3002 43.8063 19.8589 45.2472L21.7442 47.1331C24.2275 44.6506 24.2273 40.6257 21.7444 38.1428L19.8588 40.0285ZM26.9639 38.1428C25.5223 39.5844 23.186 39.5844 21.7444 38.1428L19.8588 40.0285C22.3418 42.5114 26.3665 42.5114 28.8495 40.0285L26.9639 38.1428ZM26.9639 32.924C28.4049 34.3649 28.4049 36.7019 26.9639 38.1429L28.8495 40.0285C31.3319 37.5461 31.3319 33.5207 28.8495 31.0384L26.9639 32.924ZM34.0684 31.0383C32.6274 32.4793 30.2905 32.4793 28.8495 31.0384L26.9639 32.924C29.4463 35.4063 33.4716 35.4063 35.954 32.924L34.0684 31.0383ZM34.0684 25.8195C35.5093 27.2604 35.5093 29.5974 34.0684 31.0384L35.954 32.924C38.4364 30.4416 38.4364 26.4162 35.954 23.9339L34.0684 25.8195ZM41.1729 23.9339C39.7319 25.3748 37.395 25.3748 35.954 23.9339L34.0684 25.8195C36.5507 28.3018 40.5761 28.3018 43.0585 25.8195L41.1729 23.9339ZM41.1729 18.7144C42.6145 20.1559 42.6145 22.4923 41.1729 23.9339L43.0585 25.8195C45.5415 23.3365 45.5415 19.3117 43.0585 16.8287L41.1729 18.7144ZM31.1558 8.69727L41.1729 18.7144L43.0585 16.8287L33.0414 6.81165L31.1558 8.69727ZM25.9369 8.69727C27.3779 7.25629 29.7148 7.25629 31.1558 8.69727L33.0414 6.81165C30.559 4.32928 26.5337 4.32928 24.0513 6.81165L25.9369 8.69727ZM25.9369 13.9161C24.4959 12.4752 24.4959 10.1382 25.9369 8.69727L24.0513 6.81165C21.5689 9.29402 21.5689 13.3194 24.0513 15.8018L25.9369 13.9161ZM27.192 15.1719L25.9371 13.9164L24.0511 15.8015L25.3059 17.057L27.192 15.1719ZM20.0874 17.0571C21.5284 15.6157 23.8651 15.6157 25.306 17.0571L27.1919 15.1718C24.7095 12.6886 20.6839 12.6886 18.2015 15.1718L20.0874 17.0571ZM20.0873 22.2761C18.6463 20.8352 18.6463 18.4982 20.0873 17.0573L18.2017 15.1716C15.7193 17.654 15.7193 21.6794 18.2017 24.1618L20.0873 22.2761ZM22.5977 24.7865L20.0873 22.2761L18.2017 24.1618L20.712 26.6721L22.5977 24.7865ZM15.4932 26.6721C16.9341 25.2312 19.2711 25.2312 20.712 26.6721L22.5977 24.7865C20.1153 22.3041 16.0899 22.3041 13.6075 24.7865L15.4932 26.6721ZM15.493 31.8909C14.0516 30.4499 14.0516 28.1132 15.493 26.6723L13.6077 24.7864C11.1245 27.2688 11.1245 31.2944 13.6077 33.7768L15.493 31.8909ZM18.0037 34.4021L15.4933 31.8911L13.6074 33.7765L16.1178 36.2875L18.0037 34.4021ZM10.8984 36.2876C12.34 34.846 14.6763 34.846 16.1179 36.2876L18.0035 34.402C15.5206 31.919 11.4958 31.919 9.01282 34.402L10.8984 36.2876ZM10.8986 41.5066C9.45734 40.0649 9.45755 37.7285 10.8984 36.2876L9.01282 34.402C6.53037 36.8845 6.53058 40.9091 9.01267 43.392L10.8986 41.5066ZM14.6398 45.2473L10.8984 41.5064L9.0129 43.3922L12.7544 47.133L14.6398 45.2473Z" fill="url(#paint1_radial_5784_36096)" fill-opacity="0.6" mask="url(#path-1-inside-1_5784_36096)"/>
<path d="M44.2893 4.42495L43.3465 3.48215L43.3464 3.48221L44.2893 4.42495ZM45.3843 3.46365L46.2017 4.51702L47.3963 3.59003L46.3271 2.52084L45.3843 3.46365ZM39.846 8.86893L38.9031 9.81167L39.846 10.7547L40.7888 9.81167L39.846 8.86893ZM35.5234 4.5458L34.9272 3.35323L33.2727 4.18047L34.5806 5.48855L35.5234 4.5458ZM41.3084 1.65334L40.7124 0.460614L40.7121 0.460775L41.3084 1.65334ZM44.0134 2.0928L43.0702 3.0352L43.0706 3.03561L44.0134 2.0928ZM68.4894 43.6901L67.5467 42.7472L67.5466 42.7473L68.4894 43.6901ZM68.4931 34.1064L69.4367 33.1643L69.4359 33.1636L68.4931 34.1064ZM52.5824 59.5977L53.5251 60.5406L53.5253 60.5405L52.5824 59.5977ZM38.3045 63.8342V62.5009H37.7522L37.3617 62.8914L38.3045 63.8342ZM23.9282 78.2098L24.8707 79.1529L24.871 79.1526L23.9282 78.2098ZM20.6134 78.2098L19.6706 79.1526H19.6706L20.6134 78.2098ZM0.530396 58.1268L1.47321 57.184H1.4732L0.530396 58.1268ZM0.530396 54.812L1.4732 55.7548L1.47324 55.7547L0.530396 54.812ZM8.11036 47.2314L9.05317 46.2886L8.11032 45.3457L7.16751 46.2886L8.11036 47.2314ZM10.3827 49.5037L11.3257 48.5611L11.3255 48.5609L10.3827 49.5037ZM24.1168 49.5043L25.0595 50.4473L25.0599 50.4469L24.1168 49.5043ZM26.6809 44.9639L26.3638 43.6689L25.578 43.8613L25.3858 44.6471L26.6809 44.9639ZM31.2213 42.3992L30.2785 41.4564L30.2785 41.4564L31.2213 42.3992ZM33.7854 37.8594L33.4683 36.5644L32.6825 36.7568L32.4903 37.5426L33.7854 37.8594ZM38.3258 35.2947L37.3832 34.3517L37.383 34.3519L38.3258 35.2947ZM40.8844 30.7562L40.568 29.4609L39.7823 29.6528L39.5895 30.4384L40.8844 30.7562ZM45.4309 28.1902L46.3735 29.1333L46.3738 29.133L45.4309 28.1902ZM45.4303 14.4561L44.4875 15.3989L45.4303 14.4561ZM43.158 12.1838L42.2152 11.2409L41.2723 12.1837L42.2152 13.1266L43.158 12.1838ZM47.602 7.74039L48.5447 8.68326L48.5448 8.6832L47.602 7.74039ZM57.1894 7.74039L56.2466 8.6832V8.6832L57.1894 7.74039ZM57.1912 7.74222L56.2484 8.68503L56.6389 9.07555H57.1912V7.74222ZM57.192 7.74268L56.3741 8.79573L56.5545 8.9358L56.7712 9.00787L57.192 7.74268ZM57.1924 7.74283L58.1353 6.80014L57.9124 6.57716L57.6132 6.47764L57.1924 7.74283ZM58.7061 15.0329L57.4661 14.5427L56.9797 15.7731L58.2064 16.269L58.7061 15.0329ZM60.9552 16.527L60.0124 17.4698L60.9552 16.527ZM60.9595 16.5313L61.9024 15.5886L61.9023 15.5885L60.9595 16.5313ZM62.4714 23.8189L61.2315 23.3284L60.7452 24.5579L61.9705 25.0546L62.4714 23.8189ZM64.7046 25.2972L63.7649 26.2431L63.7859 26.2639L63.8078 26.2838L64.7046 25.2972ZM64.7175 25.3099L63.7594 26.2372L63.7643 26.2422L64.7175 25.3099ZM64.7236 25.3161L63.7704 26.2484L63.7755 26.2536L63.7806 26.2588L64.7236 25.3161ZM66.2372 32.6055L64.9973 32.1154L64.5111 33.3452L65.7369 33.8414L66.2372 32.6055ZM68.4839 34.0972L69.4267 33.1544L69.4263 33.154L68.4839 34.0972ZM79.1621 54.813L78.2193 55.7558L78.2196 55.7561L79.1621 54.813ZM71.5822 47.2324L72.525 46.2896L71.5822 45.3468L70.6394 46.2896L71.5822 47.2324ZM79.1621 58.1278L80.1049 59.0706L80.1049 59.0706L79.1621 58.1278ZM59.0785 78.2108L58.1357 77.268L58.1354 77.2683L59.0785 78.2108ZM55.7643 78.2108L56.7074 77.2683L56.7071 77.268L55.7643 78.2108ZM45.7734 68.22L45.5385 66.9075L43.0252 67.3574L44.8306 69.1628L45.7734 68.22ZM55.9016 62.913L56.8444 63.8558L55.9016 62.913ZM20.8016 46.1902L19.8589 45.2472L19.8586 45.2475L20.8016 46.1902ZM13.6971 46.1902L14.64 45.2475L14.6398 45.2473L13.6971 46.1902ZM27.9067 39.0857L28.8495 40.0285H28.8495L27.9067 39.0857ZM35.0112 31.9812L35.954 32.924V32.924L35.0112 31.9812ZM42.1157 24.8767L41.1729 23.9339L42.1157 24.8767ZM42.1157 17.7716L41.1729 18.7144L42.1157 17.7716ZM32.0986 7.75446L31.1558 8.69727L31.1558 8.69727L32.0986 7.75446ZM24.9941 7.75446L25.9369 8.69727L25.9369 8.69727L24.9941 7.75446ZM24.9941 14.859L25.9371 13.9164L25.9369 13.9161L24.9941 14.859ZM26.249 16.1144L25.306 17.0571L27.192 15.1719L26.249 16.1144ZM19.1445 16.1144L20.0873 17.0573L20.0874 17.0571L19.1445 16.1144ZM14.5504 25.7293L15.493 26.6723L15.4932 26.6721L14.5504 25.7293ZM14.5504 32.8338L15.4933 31.8911L15.493 31.8909L14.5504 32.8338ZM17.0607 35.3448L16.1179 36.2876L18.0037 34.4021L17.0607 35.3448ZM9.95563 35.3448L10.8984 36.2876L9.95563 35.3448ZM9.95563 42.4493L9.01267 43.392L9.0129 43.3922L9.95563 42.4493ZM45.2321 5.36776C45.5351 5.06482 45.8592 4.78279 46.2017 4.51702L44.5669 2.41027C44.1464 2.73655 43.7369 3.09172 43.3465 3.48215L45.2321 5.36776ZM40.7888 9.81167L45.2322 5.3677L43.3464 3.48221L38.9031 7.92618L40.7888 9.81167ZM34.5806 5.48855L38.9031 9.81167L40.7888 7.92618L36.4663 3.60306L34.5806 5.48855ZM40.7121 0.460775L34.9272 3.35323L36.1197 5.73837L41.9046 2.84591L40.7121 0.460775ZM44.9566 1.15039C43.8375 0.0302576 42.1266 -0.246007 40.7124 0.460614L41.9043 2.84608C42.2931 2.65182 42.7636 2.72834 43.0702 3.0352L44.9566 1.15039ZM46.3271 2.52084L44.9562 1.14999L43.0706 3.03561L44.4415 4.40646L46.3271 2.52084ZM69.4321 44.633C72.5951 41.4708 72.5956 36.3284 69.4367 33.1643L67.5495 35.0484C69.6689 37.1713 69.6682 40.6263 67.5467 42.7472L69.4321 44.633ZM53.5253 60.5405L69.4323 44.6329L67.5466 42.7473L51.6396 58.6549L53.5253 60.5405ZM42.3548 65.1675C46.572 65.1675 50.5433 63.5218 53.5251 60.5406L51.6397 58.6548C49.1577 61.1363 45.8645 62.5009 42.3548 62.5009V65.1675ZM38.3045 65.1675H42.3548V62.5009H38.3045V65.1675ZM24.871 79.1526L39.2473 64.777L37.3617 62.8914L22.9854 77.267L24.871 79.1526ZM19.6706 79.1526C21.1072 80.5892 23.435 80.5877 24.8707 79.1529L22.9857 77.2667C22.5904 77.6617 21.9507 77.6614 21.5562 77.267L19.6706 79.1526ZM-0.412413 59.0696L19.6706 79.1526L21.5562 77.267L1.47321 57.184L-0.412413 59.0696ZM-0.412413 53.8691C-1.84864 55.3054 -1.84864 57.6334 -0.412413 59.0696L1.4732 57.184C1.07838 56.7891 1.07838 56.1496 1.4732 55.7548L-0.412413 53.8691ZM7.16751 46.2886L-0.412451 53.8692L1.47324 55.7547L9.0532 48.1742L7.16751 46.2886ZM11.3255 48.5609L9.05317 46.2886L7.16755 48.1742L9.43989 50.4465L11.3255 48.5609ZM17.2498 51.0152C15.0094 51.0152 12.9096 50.1456 11.3257 48.5611L9.43973 50.4464C11.524 52.5313 14.3022 53.6819 17.2498 53.6819V51.0152ZM23.1742 48.5614C21.59 50.1451 19.49 51.0152 17.2498 51.0152V53.6819C20.1975 53.6819 22.9755 52.5306 25.0595 50.4473L23.1742 48.5614ZM25.3858 44.6471C25.0271 46.1133 24.2741 47.4609 23.1738 48.5618L25.0599 50.4469C26.5035 49.0026 27.501 47.2227 27.9761 45.2808L25.3858 44.6471ZM30.2785 41.4564C29.1779 42.5571 27.831 43.3095 26.3638 43.6689L26.9981 46.259C28.9403 45.7834 30.7196 44.7866 32.1641 43.342L30.2785 41.4564ZM32.4903 37.5426C32.1316 39.0089 31.3786 40.3563 30.2785 41.4564L32.1641 43.342C33.608 41.8982 34.6055 40.1182 35.0806 38.1763L32.4903 37.5426ZM37.383 34.3519C36.2824 35.4526 34.9355 36.205 33.4683 36.5644L34.1026 39.1545C36.0448 38.6789 37.8241 37.6821 39.2686 36.2375L37.383 34.3519ZM39.5895 30.4384C39.2373 31.8735 38.5034 33.2321 37.3832 34.3517L39.2684 36.2378C40.7447 34.7621 41.7149 32.9665 42.1793 31.0739L39.5895 30.4384ZM44.4884 27.2472C43.386 28.349 42.0368 29.1021 40.568 29.4609L41.2008 32.0514C43.1451 31.5765 44.9271 30.579 46.3735 29.1333L44.4884 27.2472ZM44.4875 15.3989C47.7535 18.6648 47.7535 23.9816 44.4881 27.2475L46.3738 29.133C50.6805 24.8256 50.6805 17.8206 46.3731 13.5133L44.4875 15.3989ZM42.2152 13.1266L44.4875 15.3989L46.3731 13.5133L44.1008 11.2409L42.2152 13.1266ZM46.6592 6.79751L42.2152 11.2409L44.1007 13.1266L48.5447 8.68326L46.6592 6.79751ZM58.1322 6.79758C54.968 3.63345 49.8233 3.63345 46.6591 6.79758L48.5448 8.6832C50.6675 6.56046 54.1238 6.56046 56.2466 8.6832L58.1322 6.79758ZM58.134 6.79941L58.1322 6.79758L56.2466 8.6832L56.2484 8.68503L58.134 6.79941ZM58.0098 6.68963C58.0515 6.72202 58.0835 6.7509 58.1037 6.76974C58.1225 6.78737 58.1371 6.80223 58.1371 6.80223C58.1508 6.816 58.0994 6.76224 58.0354 6.70994C57.9594 6.64786 57.8413 6.56525 57.6805 6.50186C57.5163 6.43711 57.3494 6.40889 57.1912 6.40889V9.07555C57.0332 9.07555 56.8665 9.04737 56.7024 8.98267C56.5418 8.91935 56.4238 8.83682 56.348 8.77483C56.2841 8.72262 56.2327 8.66897 56.2465 8.68284C56.2466 8.68289 56.2613 8.69781 56.2801 8.71548C56.3003 8.73438 56.3324 8.7633 56.3741 8.79573L58.0098 6.68963ZM57.6132 6.47764L57.6128 6.4775L56.7712 9.00787L56.7716 9.00802L57.6132 6.47764ZM59.9461 15.523C60.8007 13.3612 61.0016 9.66712 58.1353 6.80014L56.2495 8.68552C58.155 10.5915 58.0519 13.0608 57.4661 14.5427L59.9461 15.523ZM61.8981 15.5842C61.119 14.8051 60.2051 14.2007 59.2058 13.7967L58.2064 16.269C58.8709 16.5377 59.4841 16.9415 60.0124 17.4698L61.8981 15.5842ZM61.9023 15.5885L61.8981 15.5842L60.0124 17.4698L60.0167 17.4741L61.9023 15.5885ZM63.7112 24.3093C64.5659 22.1488 64.7677 18.4546 61.9024 15.5886L60.0166 17.474C61.9206 19.3785 61.8173 21.8476 61.2315 23.3284L63.7112 24.3093ZM65.6443 24.3513C64.869 23.5811 63.9619 22.9844 62.9722 22.5832L61.9705 25.0546C62.6312 25.3224 63.2402 25.7218 63.7649 26.2431L65.6443 24.3513ZM65.6756 24.3826C65.6746 24.3816 65.6651 24.3717 65.6541 24.3607C65.6423 24.3489 65.6241 24.3311 65.6014 24.3105L63.8078 26.2838C63.7896 26.2673 63.7759 26.2537 63.7683 26.2462C63.7616 26.2395 63.7563 26.234 63.7594 26.2372L65.6756 24.3826ZM65.6767 24.3838L65.6707 24.3776L63.7643 26.2422L63.7704 26.2484L65.6767 24.3838ZM67.4772 33.0957C68.3318 30.9338 68.5327 27.2404 65.6665 24.3734L63.7806 26.2588C65.6861 28.1648 65.5831 30.6335 64.9973 32.1154L67.4772 33.0957ZM69.4263 33.154C68.6476 32.376 67.7345 31.7732 66.7376 31.3696L65.7369 33.8414C66.4013 34.1104 67.0141 34.5135 67.5416 35.0405L69.4263 33.154ZM69.4359 33.1636L69.4267 33.1544L67.5411 35.04L67.5503 35.0492L69.4359 33.1636ZM80.105 53.8702L72.525 46.2896L70.6393 48.1752L78.2193 55.7558L80.105 53.8702ZM80.1049 59.0706C81.541 57.6346 81.5414 55.3057 80.1046 53.8699L78.2196 55.7561C78.6139 56.1501 78.6143 56.79 78.2193 57.185L80.1049 59.0706ZM60.0213 79.1537L80.1049 59.0706L78.2193 57.185L58.1357 77.268L60.0213 79.1537ZM54.8212 79.1533C56.2569 80.59 58.5859 80.59 60.0216 79.1533L58.1354 77.2683C57.7412 77.6628 57.1016 77.6628 56.7074 77.2683L54.8212 79.1533ZM44.8306 69.1628L54.8215 79.1536L56.7071 77.268L46.7162 67.2772L44.8306 69.1628ZM54.9588 61.9702C52.3518 64.5772 49.0854 66.2727 45.5385 66.9075L46.0083 69.5325C50.0933 68.8013 53.8533 66.8469 56.8444 63.8558L54.9588 61.9702ZM70.6394 46.2896L54.9588 61.9702L56.8444 63.8558L72.525 48.1752L70.6394 46.2896ZM19.8586 45.2475C18.4177 46.6889 16.081 46.6889 14.64 45.2475L12.7541 47.1328C15.2365 49.616 19.2621 49.616 21.7445 47.1328L19.8586 45.2475ZM19.8588 40.0285C21.3004 41.4701 21.3002 43.8063 19.8589 45.2472L21.7442 47.1331C24.2275 44.6506 24.2273 40.6257 21.7444 38.1428L19.8588 40.0285ZM26.9639 38.1428C25.5223 39.5844 23.186 39.5844 21.7444 38.1428L19.8588 40.0285C22.3418 42.5114 26.3665 42.5114 28.8495 40.0285L26.9639 38.1428ZM26.9639 32.924C28.4049 34.3649 28.4049 36.7019 26.9639 38.1429L28.8495 40.0285C31.3319 37.5461 31.3319 33.5207 28.8495 31.0384L26.9639 32.924ZM34.0684 31.0383C32.6274 32.4793 30.2905 32.4793 28.8495 31.0384L26.9639 32.924C29.4463 35.4063 33.4716 35.4063 35.954 32.924L34.0684 31.0383ZM34.0684 25.8195C35.5093 27.2604 35.5093 29.5974 34.0684 31.0384L35.954 32.924C38.4364 30.4416 38.4364 26.4162 35.954 23.9339L34.0684 25.8195ZM41.1729 23.9339C39.7319 25.3748 37.395 25.3748 35.954 23.9339L34.0684 25.8195C36.5507 28.3018 40.5761 28.3018 43.0585 25.8195L41.1729 23.9339ZM41.1729 18.7144C42.6145 20.1559 42.6145 22.4923 41.1729 23.9339L43.0585 25.8195C45.5415 23.3365 45.5415 19.3117 43.0585 16.8287L41.1729 18.7144ZM31.1558 8.69727L41.1729 18.7144L43.0585 16.8287L33.0414 6.81165L31.1558 8.69727ZM25.9369 8.69727C27.3779 7.25629 29.7148 7.25629 31.1558 8.69727L33.0414 6.81165C30.559 4.32928 26.5337 4.32928 24.0513 6.81165L25.9369 8.69727ZM25.9369 13.9161C24.4959 12.4752 24.4959 10.1382 25.9369 8.69727L24.0513 6.81165C21.5689 9.29402 21.5689 13.3194 24.0513 15.8018L25.9369 13.9161ZM27.192 15.1719L25.9371 13.9164L24.0511 15.8015L25.3059 17.057L27.192 15.1719ZM20.0874 17.0571C21.5284 15.6157 23.8651 15.6157 25.306 17.0571L27.1919 15.1718C24.7095 12.6886 20.6839 12.6886 18.2015 15.1718L20.0874 17.0571ZM20.0873 22.2761C18.6463 20.8352 18.6463 18.4982 20.0873 17.0573L18.2017 15.1716C15.7193 17.654 15.7193 21.6794 18.2017 24.1618L20.0873 22.2761ZM22.5977 24.7865L20.0873 22.2761L18.2017 24.1618L20.712 26.6721L22.5977 24.7865ZM15.4932 26.6721C16.9341 25.2312 19.2711 25.2312 20.712 26.6721L22.5977 24.7865C20.1153 22.3041 16.0899 22.3041 13.6075 24.7865L15.4932 26.6721ZM15.493 31.8909C14.0516 30.4499 14.0516 28.1132 15.493 26.6723L13.6077 24.7864C11.1245 27.2688 11.1245 31.2944 13.6077 33.7768L15.493 31.8909ZM18.0037 34.4021L15.4933 31.8911L13.6074 33.7765L16.1178 36.2875L18.0037 34.4021ZM10.8984 36.2876C12.34 34.846 14.6763 34.846 16.1179 36.2876L18.0035 34.402C15.5206 31.919 11.4958 31.919 9.01282 34.402L10.8984 36.2876ZM10.8986 41.5066C9.45734 40.0649 9.45755 37.7285 10.8984 36.2876L9.01282 34.402C6.53037 36.8845 6.53058 40.9091 9.01267 43.392L10.8986 41.5066ZM14.6398 45.2473L10.8984 41.5064L9.0129 43.3922L12.7544 47.133L14.6398 45.2473Z" fill="url(#paint2_radial_5784_36096)" fill-opacity="0.3" mask="url(#path-1-inside-1_5784_36096)"/>
</g>
</g>
<defs>
<filter id="filter0_bd_5784_36096" x="-666.823" y="-665.26" width="1413.34" height="1410.82" filterUnits="userSpaceOnUse" color-interpolation-filters="sRGB">
<feFlood flood-opacity="0" result="BackgroundImageFix"/>
<feGaussianBlur in="BackgroundImageFix" stdDeviation="333.333"/>
<feComposite in2="SourceAlpha" operator="in" result="effect1_backgroundBlur_5784_36096"/>
<feColorMatrix in="SourceAlpha" type="matrix" values="0 0 0 0 0 0 0 0 0 0 0 0 0 0 0 0 0 0 127 0" result="hardAlpha"/>
<feOffset dy="2.66667"/>
<feGaussianBlur stdDeviation="1.33333"/>
<feComposite in2="hardAlpha" operator="out"/>
<feColorMatrix type="matrix" values="0 0 0 0 0 0 0 0 0 0 0 0 0 0 0 0 0 0 0.25 0"/>
<feBlend mode="normal" in2="effect1_backgroundBlur_5784_36096" result="effect2_dropShadow_5784_36096"/>
<feBlend mode="normal" in="SourceGraphic" in2="effect2_dropShadow_5784_36096" result="shape"/>
</filter>
<linearGradient id="paint0_linear_5784_36096" x1="3.14493" y1="3.40224" x2="38.8016" y2="97.9301" gradientUnits="userSpaceOnUse">
<stop stop-color="white" stop-opacity="0.6"/>
<stop offset="1" stop-color="white" stop-opacity="0"/>
</linearGradient>
<radialGradient id="paint1_radial_5784_36096" cx="0" cy="0" r="1" gradientUnits="userSpaceOnUse" gradientTransform="translate(39.8463 2.11072) rotate(90) scale(67.2765 69.4589)">
<stop stop-color="white"/>
<stop offset="1" stop-color="white" stop-opacity="0"/>
</radialGradient>
<radialGradient id="paint2_radial_5784_36096" cx="0" cy="0" r="1" gradientUnits="userSpaceOnUse" gradientTransform="translate(39.8463 78.8975) rotate(-90) scale(38.7456 40.0025)">
<stop stop-color="white"/>
<stop offset="1" stop-color="white" stop-opacity="0"/>
</radialGradient>
<clipPath id="clip0_5784_36096">
<rect width="80" height="80" fill="white"/>
</clipPath>
</defs>
</svg>