<svg xmlns="http://www.w3.org/2000/svg" width="80" height="80" viewBox="0 0 80 80" fill="none">
<g clip-path="url(#clip0_5784_36118)">
<g filter="url(#filter0_bd_5784_36118)">
<mask id="path-1-inside-1_5784_36118" fill="white">
<path fill-rule="evenodd" clip-rule="evenodd" d="M48.7009 20.2431L53.5134 15.5506H53.5159C55.1034 14.0006 54.2284 11.3056 52.0334 10.9856L45.3809 10.0181L42.4059 3.99063C41.4259 2.00313 38.5909 2.00313 37.6084 3.99063L34.6334 10.0181L27.9809 10.9856C25.7859 11.3056 24.9109 14.0031 26.4984 15.5506L31.3109 20.2431L30.1734 26.8681C29.7984 29.0531 32.0934 30.7206 34.0559 29.6881L40.0059 26.5606L45.9559 29.6881C47.9184 30.7206 50.2134 29.0531 49.8384 26.8681L48.7009 20.2431ZM57.32 7.50005C58.01 8.69505 59.5375 9.10505 60.735 8.41505L62.9 7.16505C64.0975 6.47505 64.505 4.94505 63.815 3.75005C63.125 2.55505 61.5975 2.14505 60.4 2.83505L58.235 4.08505C57.0375 4.77505 56.63 6.30505 57.32 7.50005ZM60.735 26.5851C59.5375 25.8951 58.01 26.3051 57.32 27.5001C56.63 28.6951 57.0375 30.2251 58.235 30.9151L60.4 32.1651C61.5975 32.8551 63.125 32.4451 63.815 31.2501C64.505 30.0551 64.0975 28.5251 62.9 27.8351L60.735 26.5851ZM35 37.5H45C47.7614 37.5 50 39.7386 50 42.5V70C50 72.7614 47.7614 75 45 75H35C32.2386 75 30 72.7614 30 70V42.5C30 39.7386 32.2386 37.5 35 37.5ZM12.5 47.5H20C22.7614 47.5 25 49.7386 25 52.5V70C25 72.7614 22.7614 75 20 75H12.5C9.73858 75 7.5 72.7614 7.5 70V52.5C7.5 49.7386 9.73858 47.5 12.5 47.5ZM67.5 50H60C57.2386 50 55 52.2386 55 55V70C55 72.7614 57.2386 75 60 75H67.5C70.2614 75 72.5 72.7614 72.5 70V55C72.5 52.2386 70.2614 50 67.5 50ZM62.5 20C61.1175 20 60 18.88 60 17.5C60 16.12 61.1175 15 62.5 15H65C66.3825 15 67.5 16.12 67.5 17.5C67.5 18.88 66.3825 20 65 20H62.5ZM22.6822 27.5001C21.9922 26.3051 20.4647 25.8951 19.2672 26.5851L17.1022 27.8351C15.9047 28.5251 15.4972 30.0551 16.1872 31.2501C16.8772 32.4451 18.4047 32.8551 19.6022 32.1651L21.7672 30.9151C22.9647 30.2251 23.3722 28.6951 22.6822 27.5001ZM19.2672 8.41505C20.4647 9.10505 21.9922 8.69505 22.6822 7.50005C23.3722 6.30505 22.9647 4.77505 21.7672 4.08505L19.6022 2.83505C18.4047 2.14505 16.8772 2.55505 16.1872 3.75005C15.4972 4.94505 15.9047 6.47505 17.1022 7.16505L19.2672 8.41505ZM15 20H17.5C18.8825 20 20 18.88 20 17.5C20 16.12 18.8825 15 17.5 15H15C13.6175 15 12.5 16.12 12.5 17.5C12.5 18.88 13.6175 20 15 20Z"/>
</mask>
<path fill-rule="evenodd" clip-rule="evenodd" d="M48.7009 20.2431L53.5134 15.5506H53.5159C55.1034 14.0006 54.2284 11.3056 52.0334 10.9856L45.3809 10.0181L42.4059 3.99063C41.4259 2.00313 38.5909 2.00313 37.6084 3.99063L34.6334 10.0181L27.9809 10.9856C25.7859 11.3056 24.9109 14.0031 26.4984 15.5506L31.3109 20.2431L30.1734 26.8681C29.7984 29.0531 32.0934 30.7206 34.0559 29.6881L40.0059 26.5606L45.9559 29.6881C47.9184 30.7206 50.2134 29.0531 49.8384 26.8681L48.7009 20.2431ZM57.32 7.50005C58.01 8.69505 59.5375 9.10505 60.735 8.41505L62.9 7.16505C64.0975 6.47505 64.505 4.94505 63.815 3.75005C63.125 2.55505 61.5975 2.14505 60.4 2.83505L58.235 4.08505C57.0375 4.77505 56.63 6.30505 57.32 7.50005ZM60.735 26.5851C59.5375 25.8951 58.01 26.3051 57.32 27.5001C56.63 28.6951 57.0375 30.2251 58.235 30.9151L60.4 32.1651C61.5975 32.8551 63.125 32.4451 63.815 31.2501C64.505 30.0551 64.0975 28.5251 62.9 27.8351L60.735 26.5851ZM35 37.5H45C47.7614 37.5 50 39.7386 50 42.5V70C50 72.7614 47.7614 75 45 75H35C32.2386 75 30 72.7614 30 70V42.5C30 39.7386 32.2386 37.5 35 37.5ZM12.5 47.5H20C22.7614 47.5 25 49.7386 25 52.5V70C25 72.7614 22.7614 75 20 75H12.5C9.73858 75 7.5 72.7614 7.5 70V52.5C7.5 49.7386 9.73858 47.5 12.5 47.5ZM67.5 50H60C57.2386 50 55 52.2386 55 55V70C55 72.7614 57.2386 75 60 75H67.5C70.2614 75 72.5 72.7614 72.5 70V55C72.5 52.2386 70.2614 50 67.5 50ZM62.5 20C61.1175 20 60 18.88 60 17.5C60 16.12 61.1175 15 62.5 15H65C66.3825 15 67.5 16.12 67.5 17.5C67.5 18.88 66.3825 20 65 20H62.5ZM22.6822 27.5001C21.9922 26.3051 20.4647 25.8951 19.2672 26.5851L17.1022 27.8351C15.9047 28.5251 15.4972 30.0551 16.1872 31.2501C16.8772 32.4451 18.4047 32.8551 19.6022 32.1651L21.7672 30.9151C22.9647 30.2251 23.3722 28.6951 22.6822 27.5001ZM19.2672 8.41505C20.4647 9.10505 21.9922 8.69505 22.6822 7.50005C23.3722 6.30505 22.9647 4.77505 21.7672 4.08505L19.6022 2.83505C18.4047 2.14505 16.8772 2.55505 16.1872 3.75005C15.4972 4.94505 15.9047 6.47505 17.1022 7.16505L19.2672 8.41505ZM15 20H17.5C18.8825 20 20 18.88 20 17.5C20 16.12 18.8825 15 17.5 15H15C13.6175 15 12.5 16.12 12.5 17.5C12.5 18.88 13.6175 20 15 20Z" fill="url(#paint0_linear_5784_36118)" fill-opacity="0.8" shape-rendering="crispEdges"/>
<path fill-rule="evenodd" clip-rule="evenodd" d="M48.7009 20.2431L53.5134 15.5506H53.5159C55.1034 14.0006 54.2284 11.3056 52.0334 10.9856L45.3809 10.0181L42.4059 3.99063C41.4259 2.00313 38.5909 2.00313 37.6084 3.99063L34.6334 10.0181L27.9809 10.9856C25.7859 11.3056 24.9109 14.0031 26.4984 15.5506L31.3109 20.2431L30.1734 26.8681C29.7984 29.0531 32.0934 30.7206 34.0559 29.6881L40.0059 26.5606L45.9559 29.6881C47.9184 30.7206 50.2134 29.0531 49.8384 26.8681L48.7009 20.2431ZM57.32 7.50005C58.01 8.69505 59.5375 9.10505 60.735 8.41505L62.9 7.16505C64.0975 6.47505 64.505 4.94505 63.815 3.75005C63.125 2.55505 61.5975 2.14505 60.4 2.83505L58.235 4.08505C57.0375 4.77505 56.63 6.30505 57.32 7.50005ZM60.735 26.5851C59.5375 25.8951 58.01 26.3051 57.32 27.5001C56.63 28.6951 57.0375 30.2251 58.235 30.9151L60.4 32.1651C61.5975 32.8551 63.125 32.4451 63.815 31.2501C64.505 30.0551 64.0975 28.5251 62.9 27.8351L60.735 26.5851ZM35 37.5H45C47.7614 37.5 50 39.7386 50 42.5V70C50 72.7614 47.7614 75 45 75H35C32.2386 75 30 72.7614 30 70V42.5C30 39.7386 32.2386 37.5 35 37.5ZM12.5 47.5H20C22.7614 47.5 25 49.7386 25 52.5V70C25 72.7614 22.7614 75 20 75H12.5C9.73858 75 7.5 72.7614 7.5 70V52.5C7.5 49.7386 9.73858 47.5 12.5 47.5ZM67.5 50H60C57.2386 50 55 52.2386 55 55V70C55 72.7614 57.2386 75 60 75H67.5C70.2614 75 72.5 72.7614 72.5 70V55C72.5 52.2386 70.2614 50 67.5 50ZM62.5 20C61.1175 20 60 18.88 60 17.5C60 16.12 61.1175 15 62.5 15H65C66.3825 15 67.5 16.12 67.5 17.5C67.5 18.88 66.3825 20 65 20H62.5ZM22.6822 27.5001C21.9922 26.3051 20.4647 25.8951 19.2672 26.5851L17.1022 27.8351C15.9047 28.5251 15.4972 30.0551 16.1872 31.2501C16.8772 32.4451 18.4047 32.8551 19.6022 32.1651L21.7672 30.9151C22.9647 30.2251 23.3722 28.6951 22.6822 27.5001ZM19.2672 8.41505C20.4647 9.10505 21.9922 8.69505 22.6822 7.50005C23.3722 6.30505 22.9647 4.77505 21.7672 4.08505L19.6022 2.83505C18.4047 2.14505 16.8772 2.55505 16.1872 3.75005C15.4972 4.94505 15.9047 6.47505 17.1022 7.16505L19.2672 8.41505ZM15 20H17.5C18.8825 20 20 18.88 20 17.5C20 16.12 18.8825 15 17.5 15H15C13.6175 15 12.5 16.12 12.5 17.5C12.5 18.88 13.6175 20 15 20Z" fill="#344254" fill-opacity="0.15" shape-rendering="crispEdges"/>
<path d="M53.5134 15.5506V14.2173H52.9709L52.5826 14.596L53.5134 15.5506ZM48.7009 20.2431L47.7701 19.2885L47.2682 19.7779L47.3868 20.4688L48.7009 20.2431ZM53.5159 15.5506V16.884H54.0589L54.4474 16.5046L53.5159 15.5506ZM52.0334 10.9856L52.2257 9.66624L52.2253 9.66617L52.0334 10.9856ZM45.3809 10.0181L44.1853 10.6083L44.4955 11.2367L45.189 11.3376L45.3809 10.0181ZM42.4059 3.99063L41.21 4.58028L41.2103 4.58075L42.4059 3.99063ZM37.6084 3.99063L36.4131 3.39976L36.4128 3.4005L37.6084 3.99063ZM34.6334 10.0181L34.8253 11.3376L35.5188 11.2367L35.829 10.6083L34.6334 10.0181ZM27.9809 10.9856L27.789 9.66617L27.7885 9.66624L27.9809 10.9856ZM26.4984 15.5506L27.4292 14.596L27.4291 14.5959L26.4984 15.5506ZM31.3109 20.2431L32.625 20.4688L32.7436 19.7779L32.2417 19.2885L31.3109 20.2431ZM30.1734 26.8681L28.8593 26.6425L28.8593 26.6426L30.1734 26.8681ZM34.0559 29.6881L33.4355 28.5079L33.4351 28.5081L34.0559 29.6881ZM40.0059 26.5606L40.6263 25.3804L40.0059 25.0543L39.3855 25.3804L40.0059 26.5606ZM45.9559 29.6881L46.5767 28.5081L46.5763 28.5079L45.9559 29.6881ZM49.8384 26.8681L51.1525 26.6426L51.1525 26.6425L49.8384 26.8681ZM60.735 8.41505L61.4006 9.57033L61.4017 9.56974L60.735 8.41505ZM57.32 7.50005L58.4746 6.83334L58.4746 6.83334L57.32 7.50005ZM62.9 7.16505L62.2343 6.00978L62.2333 6.01036L62.9 7.16505ZM63.815 3.75005L64.9696 3.08334L64.9696 3.08334L63.815 3.75005ZM60.4 2.83505L59.7343 1.67978L59.7333 1.68036L60.4 2.83505ZM58.235 4.08505L58.9006 5.24033L58.9017 5.23974L58.235 4.08505ZM57.32 27.5001L58.4746 28.1668L58.4746 28.1668L57.32 27.5001ZM60.735 26.5851L61.4017 25.4304L61.4006 25.4298L60.735 26.5851ZM58.235 30.9151L58.9017 29.7604L58.9006 29.7598L58.235 30.9151ZM60.4 32.1651L59.7333 33.3197L59.7343 33.3203L60.4 32.1651ZM63.815 31.2501L64.9696 31.9168L64.9696 31.9168L63.815 31.2501ZM62.9 27.8351L62.2333 28.9897L62.2343 28.9903L62.9 27.8351ZM19.2672 26.5851L18.6015 25.4298L18.6005 25.4304L19.2672 26.5851ZM22.6822 27.5001L21.5275 28.1668H21.5275L22.6822 27.5001ZM17.1022 27.8351L17.7678 28.9903L17.7688 28.9897L17.1022 27.8351ZM16.1872 31.2501L15.0325 31.9168L16.1872 31.2501ZM19.6022 32.1651L20.2678 33.3203L20.2688 33.3197L19.6022 32.1651ZM21.7672 30.9151L21.1015 29.7598L21.1005 29.7604L21.7672 30.9151ZM22.6822 7.50005L21.5275 6.83334L22.6822 7.50005ZM19.2672 8.41505L18.6005 9.56974L18.6015 9.57033L19.2672 8.41505ZM21.7672 4.08505L21.1005 5.23974L21.1015 5.24033L21.7672 4.08505ZM19.6022 2.83505L20.2688 1.68036L20.2678 1.67978L19.6022 2.83505ZM16.1872 3.75005L17.3418 4.41677V4.41677L16.1872 3.75005ZM17.1022 7.16505L17.7688 6.01036L17.7678 6.00978L17.1022 7.16505ZM52.5826 14.596L47.7701 19.2885L49.6317 21.1978L54.4442 16.5053L52.5826 14.596ZM53.5159 14.2173H53.5134V16.884H53.5159V14.2173ZM51.841 12.305C52.9419 12.4655 53.3828 13.8171 52.5844 14.5966L54.4474 16.5046C56.824 14.1842 55.5149 10.1458 52.2257 9.66624L51.841 12.305ZM45.189 11.3376L51.8415 12.3051L52.2253 9.66617L45.5728 8.69867L45.189 11.3376ZM41.2103 4.58075L44.1853 10.6083L46.5765 9.428L43.6015 3.4005L41.2103 4.58075ZM38.8037 4.58149C39.2974 3.58268 40.7196 3.58561 41.21 4.58028L43.6018 3.40097C42.1322 0.420637 37.8844 0.423565 36.4131 3.39976L38.8037 4.58149ZM35.829 10.6083L38.804 4.58075L36.4128 3.4005L33.4378 9.428L35.829 10.6083ZM28.1728 12.3051L34.8253 11.3376L34.4415 8.69867L27.789 9.66617L28.1728 12.3051ZM27.4291 14.5959C26.6326 13.8194 27.0717 12.4656 28.1732 12.305L27.7885 9.66624C24.5001 10.1457 23.1892 14.1869 25.5677 16.5054L27.4291 14.5959ZM32.2417 19.2885L27.4292 14.596L25.5676 16.5053L30.3801 21.1978L32.2417 19.2885ZM31.4875 27.0938L32.625 20.4688L29.9968 20.0175L28.8593 26.6425L31.4875 27.0938ZM33.4351 28.5081C32.4509 29.0259 31.2995 28.1893 31.4875 27.0937L28.8593 26.6426C28.2973 29.9169 31.7359 32.4153 34.6767 30.8681L33.4351 28.5081ZM39.3855 25.3804L33.4355 28.5079L34.6763 30.8683L40.6263 27.7408L39.3855 25.3804ZM46.5763 28.5079L40.6263 25.3804L39.3855 27.7408L45.3355 30.8683L46.5763 28.5079ZM48.5243 27.0937C48.7123 28.1893 47.5609 29.0259 46.5767 28.5081L45.3351 30.8681C48.2759 32.4153 51.7145 29.9169 51.1525 26.6426L48.5243 27.0937ZM47.3868 20.4688L48.5243 27.0938L51.1525 26.6425L50.015 20.0175L47.3868 20.4688ZM60.0693 7.25978C59.5088 7.58273 58.7963 7.39041 58.4746 6.83334L56.1653 8.16677C57.2236 9.99969 59.5661 10.6274 61.4006 9.57033L60.0693 7.25978ZM62.2333 6.01036L60.0683 7.26036L61.4017 9.56974L63.5667 8.31974L62.2333 6.01036ZM62.6603 4.41677C62.983 4.97558 62.7914 5.68876 62.2343 6.00978L63.5656 8.32033C65.4035 7.26134 66.027 4.91453 64.9696 3.08334L62.6603 4.41677ZM61.0656 3.99033C61.6261 3.66738 62.3386 3.85969 62.6603 4.41677L64.9696 3.08334C63.9113 1.25042 61.5688 0.62273 59.7343 1.67978L61.0656 3.99033ZM58.9017 5.23974L61.0667 3.98974L59.7333 1.68036L57.5683 2.93036L58.9017 5.23974ZM58.4746 6.83334C58.152 6.27453 58.3435 5.56135 58.9006 5.24033L57.5693 2.92978C55.7314 3.98876 55.108 6.33557 56.1653 8.16677L58.4746 6.83334ZM58.4746 28.1668C58.7963 27.6097 59.5088 27.4174 60.0693 27.7403L61.4006 25.4298C59.5661 24.3727 57.2236 25.0004 56.1653 26.8333L58.4746 28.1668ZM58.9006 29.7598C58.3435 29.4388 58.152 28.7256 58.4746 28.1668L56.1653 26.8333C55.108 28.6645 55.7314 31.0113 57.5693 32.0703L58.9006 29.7598ZM61.0667 31.0104L58.9017 29.7604L57.5683 32.0697L59.7333 33.3197L61.0667 31.0104ZM62.6603 30.5833C62.3386 31.1404 61.6261 31.3327 61.0656 31.0098L59.7343 33.3203C61.5688 34.3774 63.9113 33.7497 64.9696 31.9168L62.6603 30.5833ZM62.2343 28.9903C62.7914 29.3113 62.983 30.0245 62.6603 30.5833L64.9696 31.9168C66.027 30.0856 65.4035 27.7388 63.5656 26.6798L62.2343 28.9903ZM60.0683 27.7397L62.2333 28.9897L63.5667 26.6804L61.4017 25.4304L60.0683 27.7397ZM45 36.1667H35V38.8333H45V36.1667ZM51.3333 42.5C51.3333 39.0022 48.4978 36.1667 45 36.1667V38.8333C47.025 38.8333 48.6667 40.475 48.6667 42.5H51.3333ZM51.3333 70V42.5H48.6667V70H51.3333ZM45 76.3333C48.4978 76.3333 51.3333 73.4978 51.3333 70H48.6667C48.6667 72.025 47.025 73.6667 45 73.6667V76.3333ZM35 76.3333H45V73.6667H35V76.3333ZM28.6667 70C28.6667 73.4978 31.5022 76.3333 35 76.3333V73.6667C32.975 73.6667 31.3333 72.025 31.3333 70H28.6667ZM28.6667 42.5V70H31.3333V42.5H28.6667ZM35 36.1667C31.5022 36.1667 28.6667 39.0022 28.6667 42.5H31.3333C31.3333 40.475 32.975 38.8333 35 38.8333V36.1667ZM20 46.1667H12.5V48.8333H20V46.1667ZM26.3333 52.5C26.3333 49.0022 23.4978 46.1667 20 46.1667V48.8333C22.025 48.8333 23.6667 50.475 23.6667 52.5H26.3333ZM26.3333 70V52.5H23.6667V70H26.3333ZM20 76.3333C23.4978 76.3333 26.3333 73.4978 26.3333 70H23.6667C23.6667 72.025 22.025 73.6667 20 73.6667V76.3333ZM12.5 76.3333H20V73.6667H12.5V76.3333ZM6.16667 70C6.16667 73.4978 9.0022 76.3333 12.5 76.3333V73.6667C10.475 73.6667 8.83333 72.025 8.83333 70H6.16667ZM6.16667 52.5V70H8.83333V52.5H6.16667ZM12.5 46.1667C9.0022 46.1667 6.16667 49.0022 6.16667 52.5H8.83333C8.83333 50.475 10.475 48.8333 12.5 48.8333V46.1667ZM60 51.3333H67.5V48.6667H60V51.3333ZM56.3333 55C56.3333 52.975 57.975 51.3333 60 51.3333V48.6667C56.5022 48.6667 53.6667 51.5022 53.6667 55H56.3333ZM56.3333 70V55H53.6667V70H56.3333ZM60 73.6667C57.975 73.6667 56.3333 72.025 56.3333 70H53.6667C53.6667 73.4978 56.5022 76.3333 60 76.3333V73.6667ZM67.5 73.6667H60V76.3333H67.5V73.6667ZM71.1667 70C71.1667 72.025 69.525 73.6667 67.5 73.6667V76.3333C70.9978 76.3333 73.8333 73.4978 73.8333 70H71.1667ZM71.1667 55V70H73.8333V55H71.1667ZM67.5 51.3333C69.525 51.3333 71.1667 52.975 71.1667 55H73.8333C73.8333 51.5022 70.9978 48.6667 67.5 48.6667V51.3333ZM58.6667 17.5C58.6667 19.6155 60.3803 21.3333 62.5 21.3333V18.6667C61.8547 18.6667 61.3333 18.1445 61.3333 17.5H58.6667ZM62.5 13.6667C60.3803 13.6667 58.6667 15.3845 58.6667 17.5H61.3333C61.3333 16.8555 61.8547 16.3333 62.5 16.3333V13.6667ZM65 13.6667H62.5V16.3333H65V13.6667ZM68.8333 17.5C68.8333 15.3845 67.1197 13.6667 65 13.6667V16.3333C65.6453 16.3333 66.1667 16.8555 66.1667 17.5H68.8333ZM65 21.3333C67.1197 21.3333 68.8333 19.6155 68.8333 17.5H66.1667C66.1667 18.1445 65.6453 18.6667 65 18.6667V21.3333ZM62.5 21.3333H65V18.6667H62.5V21.3333ZM19.9328 27.7403C20.4933 27.4174 21.2058 27.6097 21.5275 28.1668L23.8368 26.8333C22.7785 25.0004 20.436 24.3727 18.6015 25.4298L19.9328 27.7403ZM17.7688 28.9897L19.9338 27.7397L18.6005 25.4304L16.4355 26.6804L17.7688 28.9897ZM17.3418 30.5833C17.0192 30.0245 17.2107 29.3113 17.7678 28.9903L16.4365 26.6798C14.5986 27.7388 13.9751 30.0856 15.0325 31.9168L17.3418 30.5833ZM18.9365 31.0098C18.376 31.3327 17.6635 31.1404 17.3418 30.5833L15.0325 31.9168C16.0908 33.7497 18.4333 34.3774 20.2678 33.3203L18.9365 31.0098ZM21.1005 29.7604L18.9355 31.0104L20.2688 33.3197L22.4338 32.0697L21.1005 29.7604ZM21.5275 28.1668C21.8501 28.7256 21.6586 29.4388 21.1015 29.7598L22.4328 32.0703C24.2707 31.0113 24.8942 28.6645 23.8368 26.8333L21.5275 28.1668ZM21.5275 6.83334C21.2058 7.39042 20.4933 7.58273 19.9328 7.25978L18.6015 9.57033C20.436 10.6274 22.7785 9.99969 23.8368 8.16677L21.5275 6.83334ZM21.1015 5.24033C21.6586 5.56134 21.8501 6.27453 21.5275 6.83334L23.8368 8.16677C24.8942 6.33558 24.2707 3.98876 22.4328 2.92978L21.1015 5.24033ZM18.9355 3.98974L21.1005 5.23974L22.4338 2.93036L20.2688 1.68036L18.9355 3.98974ZM17.3418 4.41677C17.6635 3.85969 18.376 3.66737 18.9365 3.99033L20.2678 1.67978C18.4333 0.622731 16.0908 1.25042 15.0325 3.08334L17.3418 4.41677ZM17.7678 6.00978C17.2107 5.68876 17.0192 4.97558 17.3418 4.41677L15.0325 3.08334C13.9751 4.91453 14.5986 7.26134 16.4365 8.32033L17.7678 6.00978ZM19.9338 7.26036L17.7688 6.01036L16.4355 8.31974L18.6005 9.56974L19.9338 7.26036ZM17.5 18.6667H15V21.3333H17.5V18.6667ZM18.6667 17.5C18.6667 18.1445 18.1453 18.6667 17.5 18.6667V21.3333C19.6197 21.3333 21.3333 19.6155 21.3333 17.5H18.6667ZM17.5 16.3333C18.1453 16.3333 18.6667 16.8555 18.6667 17.5H21.3333C21.3333 15.3845 19.6197 13.6667 17.5 13.6667V16.3333ZM15 16.3333H17.5V13.6667H15V16.3333ZM13.8333 17.5C13.8333 16.8555 14.3547 16.3333 15 16.3333V13.6667C12.8803 13.6667 11.1667 15.3845 11.1667 17.5H13.8333ZM15 18.6667C14.3547 18.6667 13.8333 18.1445 13.8333 17.5H11.1667C11.1667 19.6155 12.8803 21.3333 15 21.3333V18.6667Z" fill="url(#paint1_radial_5784_36118)" fill-opacity="0.6" mask="url(#path-1-inside-1_5784_36118)"/>
<path d="M53.5134 15.5506V14.2173H52.9709L52.5826 14.596L53.5134 15.5506ZM48.7009 20.2431L47.7701 19.2885L47.2682 19.7779L47.3868 20.4688L48.7009 20.2431ZM53.5159 15.5506V16.884H54.0589L54.4474 16.5046L53.5159 15.5506ZM52.0334 10.9856L52.2257 9.66624L52.2253 9.66617L52.0334 10.9856ZM45.3809 10.0181L44.1853 10.6083L44.4955 11.2367L45.189 11.3376L45.3809 10.0181ZM42.4059 3.99063L41.21 4.58028L41.2103 4.58075L42.4059 3.99063ZM37.6084 3.99063L36.4131 3.39976L36.4128 3.4005L37.6084 3.99063ZM34.6334 10.0181L34.8253 11.3376L35.5188 11.2367L35.829 10.6083L34.6334 10.0181ZM27.9809 10.9856L27.789 9.66617L27.7885 9.66624L27.9809 10.9856ZM26.4984 15.5506L27.4292 14.596L27.4291 14.5959L26.4984 15.5506ZM31.3109 20.2431L32.625 20.4688L32.7436 19.7779L32.2417 19.2885L31.3109 20.2431ZM30.1734 26.8681L28.8593 26.6425L28.8593 26.6426L30.1734 26.8681ZM34.0559 29.6881L33.4355 28.5079L33.4351 28.5081L34.0559 29.6881ZM40.0059 26.5606L40.6263 25.3804L40.0059 25.0543L39.3855 25.3804L40.0059 26.5606ZM45.9559 29.6881L46.5767 28.5081L46.5763 28.5079L45.9559 29.6881ZM49.8384 26.8681L51.1525 26.6426L51.1525 26.6425L49.8384 26.8681ZM60.735 8.41505L61.4006 9.57033L61.4017 9.56974L60.735 8.41505ZM57.32 7.50005L58.4746 6.83334L58.4746 6.83334L57.32 7.50005ZM62.9 7.16505L62.2343 6.00978L62.2333 6.01036L62.9 7.16505ZM63.815 3.75005L64.9696 3.08334L64.9696 3.08334L63.815 3.75005ZM60.4 2.83505L59.7343 1.67978L59.7333 1.68036L60.4 2.83505ZM58.235 4.08505L58.9006 5.24033L58.9017 5.23974L58.235 4.08505ZM57.32 27.5001L58.4746 28.1668L58.4746 28.1668L57.32 27.5001ZM60.735 26.5851L61.4017 25.4304L61.4006 25.4298L60.735 26.5851ZM58.235 30.9151L58.9017 29.7604L58.9006 29.7598L58.235 30.9151ZM60.4 32.1651L59.7333 33.3197L59.7343 33.3203L60.4 32.1651ZM63.815 31.2501L64.9696 31.9168L64.9696 31.9168L63.815 31.2501ZM62.9 27.8351L62.2333 28.9897L62.2343 28.9903L62.9 27.8351ZM19.2672 26.5851L18.6015 25.4298L18.6005 25.4304L19.2672 26.5851ZM22.6822 27.5001L21.5275 28.1668H21.5275L22.6822 27.5001ZM17.1022 27.8351L17.7678 28.9903L17.7688 28.9897L17.1022 27.8351ZM16.1872 31.2501L15.0325 31.9168L16.1872 31.2501ZM19.6022 32.1651L20.2678 33.3203L20.2688 33.3197L19.6022 32.1651ZM21.7672 30.9151L21.1015 29.7598L21.1005 29.7604L21.7672 30.9151ZM22.6822 7.50005L21.5275 6.83334L22.6822 7.50005ZM19.2672 8.41505L18.6005 9.56974L18.6015 9.57033L19.2672 8.41505ZM21.7672 4.08505L21.1005 5.23974L21.1015 5.24033L21.7672 4.08505ZM19.6022 2.83505L20.2688 1.68036L20.2678 1.67978L19.6022 2.83505ZM16.1872 3.75005L17.3418 4.41677V4.41677L16.1872 3.75005ZM17.1022 7.16505L17.7688 6.01036L17.7678 6.00978L17.1022 7.16505ZM52.5826 14.596L47.7701 19.2885L49.6317 21.1978L54.4442 16.5053L52.5826 14.596ZM53.5159 14.2173H53.5134V16.884H53.5159V14.2173ZM51.841 12.305C52.9419 12.4655 53.3828 13.8171 52.5844 14.5966L54.4474 16.5046C56.824 14.1842 55.5149 10.1458 52.2257 9.66624L51.841 12.305ZM45.189 11.3376L51.8415 12.3051L52.2253 9.66617L45.5728 8.69867L45.189 11.3376ZM41.2103 4.58075L44.1853 10.6083L46.5765 9.428L43.6015 3.4005L41.2103 4.58075ZM38.8037 4.58149C39.2974 3.58268 40.7196 3.58561 41.21 4.58028L43.6018 3.40097C42.1322 0.420637 37.8844 0.423565 36.4131 3.39976L38.8037 4.58149ZM35.829 10.6083L38.804 4.58075L36.4128 3.4005L33.4378 9.428L35.829 10.6083ZM28.1728 12.3051L34.8253 11.3376L34.4415 8.69867L27.789 9.66617L28.1728 12.3051ZM27.4291 14.5959C26.6326 13.8194 27.0717 12.4656 28.1732 12.305L27.7885 9.66624C24.5001 10.1457 23.1892 14.1869 25.5677 16.5054L27.4291 14.5959ZM32.2417 19.2885L27.4292 14.596L25.5676 16.5053L30.3801 21.1978L32.2417 19.2885ZM31.4875 27.0938L32.625 20.4688L29.9968 20.0175L28.8593 26.6425L31.4875 27.0938ZM33.4351 28.5081C32.4509 29.0259 31.2995 28.1893 31.4875 27.0937L28.8593 26.6426C28.2973 29.9169 31.7359 32.4153 34.6767 30.8681L33.4351 28.5081ZM39.3855 25.3804L33.4355 28.5079L34.6763 30.8683L40.6263 27.7408L39.3855 25.3804ZM46.5763 28.5079L40.6263 25.3804L39.3855 27.7408L45.3355 30.8683L46.5763 28.5079ZM48.5243 27.0937C48.7123 28.1893 47.5609 29.0259 46.5767 28.5081L45.3351 30.8681C48.2759 32.4153 51.7145 29.9169 51.1525 26.6426L48.5243 27.0937ZM47.3868 20.4688L48.5243 27.0938L51.1525 26.6425L50.015 20.0175L47.3868 20.4688ZM60.0693 7.25978C59.5088 7.58273 58.7963 7.39041 58.4746 6.83334L56.1653 8.16677C57.2236 9.99969 59.5661 10.6274 61.4006 9.57033L60.0693 7.25978ZM62.2333 6.01036L60.0683 7.26036L61.4017 9.56974L63.5667 8.31974L62.2333 6.01036ZM62.6603 4.41677C62.983 4.97558 62.7914 5.68876 62.2343 6.00978L63.5656 8.32033C65.4035 7.26134 66.027 4.91453 64.9696 3.08334L62.6603 4.41677ZM61.0656 3.99033C61.6261 3.66738 62.3386 3.85969 62.6603 4.41677L64.9696 3.08334C63.9113 1.25042 61.5688 0.62273 59.7343 1.67978L61.0656 3.99033ZM58.9017 5.23974L61.0667 3.98974L59.7333 1.68036L57.5683 2.93036L58.9017 5.23974ZM58.4746 6.83334C58.152 6.27453 58.3435 5.56135 58.9006 5.24033L57.5693 2.92978C55.7314 3.98876 55.108 6.33557 56.1653 8.16677L58.4746 6.83334ZM58.4746 28.1668C58.7963 27.6097 59.5088 27.4174 60.0693 27.7403L61.4006 25.4298C59.5661 24.3727 57.2236 25.0004 56.1653 26.8333L58.4746 28.1668ZM58.9006 29.7598C58.3435 29.4388 58.152 28.7256 58.4746 28.1668L56.1653 26.8333C55.108 28.6645 55.7314 31.0113 57.5693 32.0703L58.9006 29.7598ZM61.0667 31.0104L58.9017 29.7604L57.5683 32.0697L59.7333 33.3197L61.0667 31.0104ZM62.6603 30.5833C62.3386 31.1404 61.6261 31.3327 61.0656 31.0098L59.7343 33.3203C61.5688 34.3774 63.9113 33.7497 64.9696 31.9168L62.6603 30.5833ZM62.2343 28.9903C62.7914 29.3113 62.983 30.0245 62.6603 30.5833L64.9696 31.9168C66.027 30.0856 65.4035 27.7388 63.5656 26.6798L62.2343 28.9903ZM60.0683 27.7397L62.2333 28.9897L63.5667 26.6804L61.4017 25.4304L60.0683 27.7397ZM45 36.1667H35V38.8333H45V36.1667ZM51.3333 42.5C51.3333 39.0022 48.4978 36.1667 45 36.1667V38.8333C47.025 38.8333 48.6667 40.475 48.6667 42.5H51.3333ZM51.3333 70V42.5H48.6667V70H51.3333ZM45 76.3333C48.4978 76.3333 51.3333 73.4978 51.3333 70H48.6667C48.6667 72.025 47.025 73.6667 45 73.6667V76.3333ZM35 76.3333H45V73.6667H35V76.3333ZM28.6667 70C28.6667 73.4978 31.5022 76.3333 35 76.3333V73.6667C32.975 73.6667 31.3333 72.025 31.3333 70H28.6667ZM28.6667 42.5V70H31.3333V42.5H28.6667ZM35 36.1667C31.5022 36.1667 28.6667 39.0022 28.6667 42.5H31.3333C31.3333 40.475 32.975 38.8333 35 38.8333V36.1667ZM20 46.1667H12.5V48.8333H20V46.1667ZM26.3333 52.5C26.3333 49.0022 23.4978 46.1667 20 46.1667V48.8333C22.025 48.8333 23.6667 50.475 23.6667 52.5H26.3333ZM26.3333 70V52.5H23.6667V70H26.3333ZM20 76.3333C23.4978 76.3333 26.3333 73.4978 26.3333 70H23.6667C23.6667 72.025 22.025 73.6667 20 73.6667V76.3333ZM12.5 76.3333H20V73.6667H12.5V76.3333ZM6.16667 70C6.16667 73.4978 9.0022 76.3333 12.5 76.3333V73.6667C10.475 73.6667 8.83333 72.025 8.83333 70H6.16667ZM6.16667 52.5V70H8.83333V52.5H6.16667ZM12.5 46.1667C9.0022 46.1667 6.16667 49.0022 6.16667 52.5H8.83333C8.83333 50.475 10.475 48.8333 12.5 48.8333V46.1667ZM60 51.3333H67.5V48.6667H60V51.3333ZM56.3333 55C56.3333 52.975 57.975 51.3333 60 51.3333V48.6667C56.5022 48.6667 53.6667 51.5022 53.6667 55H56.3333ZM56.3333 70V55H53.6667V70H56.3333ZM60 73.6667C57.975 73.6667 56.3333 72.025 56.3333 70H53.6667C53.6667 73.4978 56.5022 76.3333 60 76.3333V73.6667ZM67.5 73.6667H60V76.3333H67.5V73.6667ZM71.1667 70C71.1667 72.025 69.525 73.6667 67.5 73.6667V76.3333C70.9978 76.3333 73.8333 73.4978 73.8333 70H71.1667ZM71.1667 55V70H73.8333V55H71.1667ZM67.5 51.3333C69.525 51.3333 71.1667 52.975 71.1667 55H73.8333C73.8333 51.5022 70.9978 48.6667 67.5 48.6667V51.3333ZM58.6667 17.5C58.6667 19.6155 60.3803 21.3333 62.5 21.3333V18.6667C61.8547 18.6667 61.3333 18.1445 61.3333 17.5H58.6667ZM62.5 13.6667C60.3803 13.6667 58.6667 15.3845 58.6667 17.5H61.3333C61.3333 16.8555 61.8547 16.3333 62.5 16.3333V13.6667ZM65 13.6667H62.5V16.3333H65V13.6667ZM68.8333 17.5C68.8333 15.3845 67.1197 13.6667 65 13.6667V16.3333C65.6453 16.3333 66.1667 16.8555 66.1667 17.5H68.8333ZM65 21.3333C67.1197 21.3333 68.8333 19.6155 68.8333 17.5H66.1667C66.1667 18.1445 65.6453 18.6667 65 18.6667V21.3333ZM62.5 21.3333H65V18.6667H62.5V21.3333ZM19.9328 27.7403C20.4933 27.4174 21.2058 27.6097 21.5275 28.1668L23.8368 26.8333C22.7785 25.0004 20.436 24.3727 18.6015 25.4298L19.9328 27.7403ZM17.7688 28.9897L19.9338 27.7397L18.6005 25.4304L16.4355 26.6804L17.7688 28.9897ZM17.3418 30.5833C17.0192 30.0245 17.2107 29.3113 17.7678 28.9903L16.4365 26.6798C14.5986 27.7388 13.9751 30.0856 15.0325 31.9168L17.3418 30.5833ZM18.9365 31.0098C18.376 31.3327 17.6635 31.1404 17.3418 30.5833L15.0325 31.9168C16.0908 33.7497 18.4333 34.3774 20.2678 33.3203L18.9365 31.0098ZM21.1005 29.7604L18.9355 31.0104L20.2688 33.3197L22.4338 32.0697L21.1005 29.7604ZM21.5275 28.1668C21.8501 28.7256 21.6586 29.4388 21.1015 29.7598L22.4328 32.0703C24.2707 31.0113 24.8942 28.6645 23.8368 26.8333L21.5275 28.1668ZM21.5275 6.83334C21.2058 7.39042 20.4933 7.58273 19.9328 7.25978L18.6015 9.57033C20.436 10.6274 22.7785 9.99969 23.8368 8.16677L21.5275 6.83334ZM21.1015 5.24033C21.6586 5.56134 21.8501 6.27453 21.5275 6.83334L23.8368 8.16677C24.8942 6.33558 24.2707 3.98876 22.4328 2.92978L21.1015 5.24033ZM18.9355 3.98974L21.1005 5.23974L22.4338 2.93036L20.2688 1.68036L18.9355 3.98974ZM17.3418 4.41677C17.6635 3.85969 18.376 3.66737 18.9365 3.99033L20.2678 1.67978C18.4333 0.622731 16.0908 1.25042 15.0325 3.08334L17.3418 4.41677ZM17.7678 6.00978C17.2107 5.68876 17.0192 4.97558 17.3418 4.41677L15.0325 3.08334C13.9751 4.91453 14.5986 7.26134 16.4365 8.32033L17.7678 6.00978ZM19.9338 7.26036L17.7688 6.01036L16.4355 8.31974L18.6005 9.56974L19.9338 7.26036ZM17.5 18.6667H15V21.3333H17.5V18.6667ZM18.6667 17.5C18.6667 18.1445 18.1453 18.6667 17.5 18.6667V21.3333C19.6197 21.3333 21.3333 19.6155 21.3333 17.5H18.6667ZM17.5 16.3333C18.1453 16.3333 18.6667 16.8555 18.6667 17.5H21.3333C21.3333 15.3845 19.6197 13.6667 17.5 13.6667V16.3333ZM15 16.3333H17.5V13.6667H15V16.3333ZM13.8333 17.5C13.8333 16.8555 14.3547 16.3333 15 16.3333V13.6667C12.8803 13.6667 11.1667 15.3845 11.1667 17.5H13.8333ZM15 18.6667C14.3547 18.6667 13.8333 18.1445 13.8333 17.5H11.1667C11.1667 19.6155 12.8803 21.3333 15 21.3333V18.6667Z" fill="url(#paint2_radial_5784_36118)" fill-opacity="0.3" mask="url(#path-1-inside-1_5784_36118)"/>
</g>
</g>
<defs>
<filter id="filter0_bd_5784_36118" x="-659.167" y="-664.167" width="1398.33" height="1405.83" filterUnits="userSpaceOnUse" color-interpolation-filters="sRGB">
<feFlood flood-opacity="0" result="BackgroundImageFix"/>
<feGaussianBlur in="BackgroundImageFix" stdDeviation="333.333"/>
<feComposite in2="SourceAlpha" operator="in" result="effect1_backgroundBlur_5784_36118"/>
<feColorMatrix in="SourceAlpha" type="matrix" values="0 0 0 0 0 0 0 0 0 0 0 0 0 0 0 0 0 0 127 0" result="hardAlpha"/>
<feOffset dy="2.66667"/>
<feGaussianBlur stdDeviation="1.33333"/>
<feComposite in2="hardAlpha" operator="out"/>
<feColorMatrix type="matrix" values="0 0 0 0 0 0 0 0 0 0 0 0 0 0 0 0 0 0 0.25 0"/>
<feBlend mode="normal" in2="effect1_backgroundBlur_5784_36118" result="effect2_dropShadow_5784_36118"/>
<feBlend mode="normal" in="SourceGraphic" in2="effect2_dropShadow_5784_36118" result="shape"/>
</filter>
<linearGradient id="paint0_linear_5784_36118" x1="10.182" y1="4.36742" x2="47.0987" y2="89.3545" gradientUnits="userSpaceOnUse">
<stop stop-color="white" stop-opacity="0.6"/>
<stop offset="1" stop-color="white" stop-opacity="0"/>
</linearGradient>
<radialGradient id="paint1_radial_5784_36118" cx="0" cy="0" r="1" gradientUnits="userSpaceOnUse" gradientTransform="translate(40 3.15909) rotate(90) scale(62.9432 56.4318)">
<stop stop-color="white"/>
<stop offset="1" stop-color="white" stop-opacity="0"/>
</radialGradient>
<radialGradient id="paint2_radial_5784_36118" cx="0" cy="0" r="1" gradientUnits="userSpaceOnUse" gradientTransform="translate(40 75) rotate(-90) scale(36.25 32.5)">
<stop stop-color="white"/>
<stop offset="1" stop-color="white" stop-opacity="0"/>
</radialGradient>
<clipPath id="clip0_5784_36118">
<rect width="80" height="80" fill="white"/>
</clipPath>
</defs>
</svg>