<svg xmlns="http://www.w3.org/2000/svg" width="80" height="80" viewBox="0 0 80 80" fill="none">
<g clip-path="url(#clip0_5784_36107)">
<g filter="url(#filter0_bd_5784_36107)">
<mask id="path-1-inside-1_5784_36107" fill="white">
<path fill-rule="evenodd" clip-rule="evenodd" d="M69.0051 20.5002C69.5051 20.7971 70.1145 20.7815 70.5833 20.4534C71.052 20.1409 71.302 19.5627 71.1926 19.0002L68.177 1.20337C68.1614 1.094 68.1301 0.98462 68.0833 0.875245C67.7708 0.14087 66.9114 -0.20288 66.177 0.10962L50.2551 6.87525C49.927 7.01587 49.6614 7.26587 49.5051 7.594C49.1614 8.31275 49.4739 9.18775 50.1926 9.5315L54.9895 11.8596C42.177 40.0627 11.677 38.0159 10.3645 37.9065C9.63013 37.844 8.97388 38.3284 8.81763 39.0471C8.66138 39.844 9.16138 40.6096 9.94263 40.7815C15.3489 41.969 20.2395 42.5002 24.677 42.5002C45.7083 42.5002 56.5989 30.469 64.3176 17.6877L69.0051 20.5002ZM70.4766 73.75V40.1562C70.4766 36.6562 68.2578 33.9062 65.4609 33.9062H58.6016C55.7891 33.9062 53.5859 36.6406 53.5859 40.1562V73.75C53.5859 77.25 55.7891 80 58.6016 80H65.4609C68.2734 80 70.4766 77.2656 70.4766 73.75ZM48.4609 52.5001V73.7501C48.4609 77.2657 46.2578 80.0001 43.4453 80.0001H36.5703C33.7578 80.0001 31.5547 77.2501 31.5547 73.7501V52.5001C31.5547 48.9844 33.7578 46.2501 36.5703 46.2501H43.4297C46.2578 46.2344 48.4609 48.9844 48.4609 52.5001ZM26.9297 73.7501V62.7813C26.9297 59.2657 24.7266 56.5157 21.8984 56.5313H15.0391C12.2266 56.5313 10.0234 59.2657 10.0234 62.7813V73.7501C10.0234 77.2501 12.2266 80.0001 15.0391 80.0001H21.9141C24.7266 80.0001 26.9297 77.2501 26.9297 73.7501Z"/>
</mask>
<path fill-rule="evenodd" clip-rule="evenodd" d="M69.0051 20.5002C69.5051 20.7971 70.1145 20.7815 70.5833 20.4534C71.052 20.1409 71.302 19.5627 71.1926 19.0002L68.177 1.20337C68.1614 1.094 68.1301 0.98462 68.0833 0.875245C67.7708 0.14087 66.9114 -0.20288 66.177 0.10962L50.2551 6.87525C49.927 7.01587 49.6614 7.26587 49.5051 7.594C49.1614 8.31275 49.4739 9.18775 50.1926 9.5315L54.9895 11.8596C42.177 40.0627 11.677 38.0159 10.3645 37.9065C9.63013 37.844 8.97388 38.3284 8.81763 39.0471C8.66138 39.844 9.16138 40.6096 9.94263 40.7815C15.3489 41.969 20.2395 42.5002 24.677 42.5002C45.7083 42.5002 56.5989 30.469 64.3176 17.6877L69.0051 20.5002ZM70.4766 73.75V40.1562C70.4766 36.6562 68.2578 33.9062 65.4609 33.9062H58.6016C55.7891 33.9062 53.5859 36.6406 53.5859 40.1562V73.75C53.5859 77.25 55.7891 80 58.6016 80H65.4609C68.2734 80 70.4766 77.2656 70.4766 73.75ZM48.4609 52.5001V73.7501C48.4609 77.2657 46.2578 80.0001 43.4453 80.0001H36.5703C33.7578 80.0001 31.5547 77.2501 31.5547 73.7501V52.5001C31.5547 48.9844 33.7578 46.2501 36.5703 46.2501H43.4297C46.2578 46.2344 48.4609 48.9844 48.4609 52.5001ZM26.9297 73.7501V62.7813C26.9297 59.2657 24.7266 56.5157 21.8984 56.5313H15.0391C12.2266 56.5313 10.0234 59.2657 10.0234 62.7813V73.7501C10.0234 77.2501 12.2266 80.0001 15.0391 80.0001H21.9141C24.7266 80.0001 26.9297 77.2501 26.9297 73.7501Z" fill="url(#paint0_linear_5784_36107)" fill-opacity="0.8" shape-rendering="crispEdges"/>
<path fill-rule="evenodd" clip-rule="evenodd" d="M69.0051 20.5002C69.5051 20.7971 70.1145 20.7815 70.5833 20.4534C71.052 20.1409 71.302 19.5627 71.1926 19.0002L68.177 1.20337C68.1614 1.094 68.1301 0.98462 68.0833 0.875245C67.7708 0.14087 66.9114 -0.20288 66.177 0.10962L50.2551 6.87525C49.927 7.01587 49.6614 7.26587 49.5051 7.594C49.1614 8.31275 49.4739 9.18775 50.1926 9.5315L54.9895 11.8596C42.177 40.0627 11.677 38.0159 10.3645 37.9065C9.63013 37.844 8.97388 38.3284 8.81763 39.0471C8.66138 39.844 9.16138 40.6096 9.94263 40.7815C15.3489 41.969 20.2395 42.5002 24.677 42.5002C45.7083 42.5002 56.5989 30.469 64.3176 17.6877L69.0051 20.5002ZM70.4766 73.75V40.1562C70.4766 36.6562 68.2578 33.9062 65.4609 33.9062H58.6016C55.7891 33.9062 53.5859 36.6406 53.5859 40.1562V73.75C53.5859 77.25 55.7891 80 58.6016 80H65.4609C68.2734 80 70.4766 77.2656 70.4766 73.75ZM48.4609 52.5001V73.7501C48.4609 77.2657 46.2578 80.0001 43.4453 80.0001H36.5703C33.7578 80.0001 31.5547 77.2501 31.5547 73.7501V52.5001C31.5547 48.9844 33.7578 46.2501 36.5703 46.2501H43.4297C46.2578 46.2344 48.4609 48.9844 48.4609 52.5001ZM26.9297 73.7501V62.7813C26.9297 59.2657 24.7266 56.5157 21.8984 56.5313H15.0391C12.2266 56.5313 10.0234 59.2657 10.0234 62.7813V73.7501C10.0234 77.2501 12.2266 80.0001 15.0391 80.0001H21.9141C24.7266 80.0001 26.9297 77.2501 26.9297 73.7501Z" fill="#344254" fill-opacity="0.15" shape-rendering="crispEdges"/>
<path d="M70.5833 20.4534L69.8437 19.344L69.8311 19.3524L69.8186 19.3611L70.5833 20.4534ZM69.0051 20.5002L68.3191 21.6436L68.3244 21.6467L69.0051 20.5002ZM71.1926 19.0002L69.878 19.223L69.8807 19.2389L69.8838 19.2547L71.1926 19.0002ZM68.177 1.20337L66.8571 1.39193L66.8595 1.40906L66.8624 1.42612L68.177 1.20337ZM68.0833 0.875245L66.8564 1.39732L66.8577 1.40047L68.0833 0.875245ZM66.177 0.10962L66.6985 1.33676L66.6991 1.33649L66.177 0.10962ZM50.2551 6.87525L49.7337 5.6481L49.7299 5.64972L50.2551 6.87525ZM49.5051 7.594L50.708 8.16927L50.7089 8.16724L49.5051 7.594ZM50.1926 9.5315L50.7748 8.33196L50.7679 8.32865L50.1926 9.5315ZM54.9895 11.8596L56.2034 12.4111L56.7411 11.2277L55.5717 10.6601L54.9895 11.8596ZM10.3645 37.9065L10.2514 39.235L10.2538 39.2352L10.3645 37.9065ZM8.81763 39.0471L7.51473 38.7639L7.51184 38.7772L7.50921 38.7906L8.81763 39.0471ZM9.94263 40.7815L9.65615 42.0837L9.65658 42.0838L9.94263 40.7815ZM64.3176 17.6877L65.0036 16.5444L63.8636 15.8604L63.1763 16.9985L64.3176 17.6877ZM43.4297 46.2501V47.5834L43.4371 47.5834L43.4297 46.2501ZM21.8984 56.5313V57.8647L21.9058 57.8646L21.8984 56.5313ZM69.8186 19.3611C69.8013 19.3732 69.7852 19.3779 69.7678 19.3784C69.7497 19.3789 69.7212 19.3748 69.6858 19.3538L68.3244 21.6467C69.2587 22.2014 70.4345 22.185 71.3479 21.5457L69.8186 19.3611ZM69.8838 19.2547C69.8855 19.2635 69.8858 19.2797 69.8768 19.301C69.8674 19.3233 69.8535 19.3374 69.8437 19.344L71.3229 21.5628C72.2303 20.9578 72.7154 19.8462 72.5014 18.7458L69.8838 19.2547ZM66.8624 1.42612L69.878 19.223L72.5072 18.7775L69.4916 0.980616L66.8624 1.42612ZM66.8577 1.40047C66.86 1.40578 66.8603 1.40743 66.8598 1.40558C66.8593 1.40367 66.8581 1.39901 66.8571 1.39193L69.4969 1.01481C69.4635 0.781036 69.3983 0.558778 69.3088 0.35002L66.8577 1.40047ZM66.6991 1.33649C66.7256 1.32522 66.7573 1.32344 66.7919 1.33734C66.8263 1.35114 66.8461 1.37322 66.8564 1.39732L69.3101 0.353172C68.7077 -1.06248 67.0632 -1.71651 65.6549 -1.11725L66.6991 1.33649ZM50.7766 8.10239L66.6985 1.33676L65.6556 -1.11752L49.7337 5.64811L50.7766 8.10239ZM50.7089 8.16724C50.717 8.15031 50.7262 8.13838 50.736 8.12912C50.7459 8.11965 50.76 8.1095 50.7804 8.10077L49.7299 5.64972C49.1106 5.91514 48.6001 6.39335 48.3013 7.02075L50.7089 8.16724ZM50.7679 8.32865C50.7436 8.31704 50.7201 8.29431 50.7067 8.25669C50.6935 8.21945 50.698 8.19012 50.708 8.16927L48.3023 7.01872C47.6383 8.40705 48.2396 10.0754 49.6174 10.7343L50.7679 8.32865ZM55.5717 10.6601L50.7748 8.33198L49.6105 10.731L54.4073 13.0591L55.5717 10.6601ZM10.2538 39.2352C11.0022 39.2976 19.1492 39.844 28.7703 36.7703C38.4249 33.686 49.6045 26.9368 56.2034 12.4111L53.7756 11.3081C47.562 24.9856 37.0854 31.3145 27.9588 34.2302C18.7985 37.1565 11.0393 36.6248 10.4752 36.5778L10.2538 39.2352ZM10.1205 39.3304C10.1284 39.2943 10.1456 39.2717 10.1657 39.2569C10.1858 39.2421 10.2131 39.2318 10.2514 39.235L10.4776 36.578C9.07658 36.4587 7.81351 37.3895 7.51473 38.7639L10.1205 39.3304ZM10.2291 39.4793C10.165 39.4652 10.1073 39.3992 10.126 39.3037L7.50921 38.7906C7.21545 40.2887 8.15781 41.7541 9.65615 42.0837L10.2291 39.4793ZM24.677 41.1669C20.3462 41.1669 15.5518 40.6485 10.2287 39.4792L9.65658 42.0838C15.1459 43.2895 20.1328 43.8336 24.677 43.8336V41.1669ZM63.1763 16.9985C59.3584 23.3204 54.8154 29.3536 48.704 33.8096C42.6184 38.2468 34.9136 41.1669 24.677 41.1669V43.8336C35.4716 43.8336 43.7278 40.7381 50.275 35.9643C56.7964 31.2094 61.5581 24.8363 65.459 18.377L63.1763 16.9985ZM69.6911 19.3569L65.0036 16.5444L63.6316 18.8311L68.3191 21.6436L69.6911 19.3569ZM69.1432 40.1562V73.75H71.8099V40.1562H69.1432ZM65.4609 35.2396C67.2643 35.2396 69.1432 37.1061 69.1432 40.1562H71.8099C71.8099 36.2064 69.2513 32.5729 65.4609 32.5729V35.2396ZM58.6016 35.2396H65.4609V32.5729H58.6016V35.2396ZM54.9193 40.1562C54.9193 37.0899 56.783 35.2396 58.6016 35.2396V32.5729C54.7951 32.5729 52.2526 36.1914 52.2526 40.1562H54.9193ZM54.9193 73.75V40.1562H52.2526V73.75H54.9193ZM58.6016 78.6667C56.7849 78.6667 54.9193 76.8031 54.9193 73.75H52.2526C52.2526 77.6969 54.7932 81.3333 58.6016 81.3333V78.6667ZM65.4609 78.6667H58.6016V81.3333H65.4609V78.6667ZM69.1432 73.75C69.1432 76.8164 67.2795 78.6667 65.4609 78.6667V81.3333C69.2674 81.3333 71.8099 77.7149 71.8099 73.75H69.1432ZM49.7943 73.7501V52.5001H47.1276V73.7501H49.7943ZM43.4453 81.3334C47.2517 81.3334 49.7943 77.7149 49.7943 73.7501H47.1276C47.1276 76.8165 45.2639 78.6667 43.4453 78.6667V81.3334ZM36.5703 81.3334H43.4453V78.6667H36.5703V81.3334ZM30.2214 73.7501C30.2214 77.697 32.762 81.3334 36.5703 81.3334V78.6667C34.7536 78.6667 32.888 76.8032 32.888 73.7501H30.2214ZM30.2214 52.5001V73.7501H32.888V52.5001H30.2214ZM36.5703 44.9167C32.7639 44.9167 30.2214 48.5352 30.2214 52.5001H32.888C32.888 49.4337 34.7517 47.5834 36.5703 47.5834V44.9167ZM43.4297 44.9167H36.5703V47.5834H43.4297V44.9167ZM49.7943 52.5001C49.7943 48.5401 47.2537 44.8956 43.4223 44.9168L43.4371 47.5834C45.2619 47.5733 47.1276 49.4287 47.1276 52.5001H49.7943ZM25.5964 62.7813V73.7501H28.263V62.7813H25.5964ZM21.9058 57.8646C23.7306 57.8545 25.5964 59.71 25.5964 62.7813H28.263C28.263 58.8214 25.7225 55.1768 21.8911 55.198L21.9058 57.8646ZM15.0391 57.8646H21.8984V55.198H15.0391V57.8646ZM11.3568 62.7813C11.3568 59.7149 13.2205 57.8646 15.0391 57.8646V55.198C11.2326 55.198 8.6901 58.8165 8.6901 62.7813H11.3568ZM11.3568 73.7501V62.7813H8.6901V73.7501H11.3568ZM15.0391 78.6667C13.2224 78.6667 11.3568 76.8032 11.3568 73.7501H8.6901C8.6901 77.697 11.2307 81.3334 15.0391 81.3334V78.6667ZM21.9141 78.6667H15.0391V81.3334H21.9141V78.6667ZM25.5964 73.7501C25.5964 76.8032 23.7307 78.6667 21.9141 78.6667V81.3334C25.7224 81.3334 28.263 77.697 28.263 73.7501H25.5964Z" fill="url(#paint1_radial_5784_36107)" fill-opacity="0.6" mask="url(#path-1-inside-1_5784_36107)"/>
<path d="M70.5833 20.4534L69.8437 19.344L69.8311 19.3524L69.8186 19.3611L70.5833 20.4534ZM69.0051 20.5002L68.3191 21.6436L68.3244 21.6467L69.0051 20.5002ZM71.1926 19.0002L69.878 19.223L69.8807 19.2389L69.8838 19.2547L71.1926 19.0002ZM68.177 1.20337L66.8571 1.39193L66.8595 1.40906L66.8624 1.42612L68.177 1.20337ZM68.0833 0.875245L66.8564 1.39732L66.8577 1.40047L68.0833 0.875245ZM66.177 0.10962L66.6985 1.33676L66.6991 1.33649L66.177 0.10962ZM50.2551 6.87525L49.7337 5.6481L49.7299 5.64972L50.2551 6.87525ZM49.5051 7.594L50.708 8.16927L50.7089 8.16724L49.5051 7.594ZM50.1926 9.5315L50.7748 8.33196L50.7679 8.32865L50.1926 9.5315ZM54.9895 11.8596L56.2034 12.4111L56.7411 11.2277L55.5717 10.6601L54.9895 11.8596ZM10.3645 37.9065L10.2514 39.235L10.2538 39.2352L10.3645 37.9065ZM8.81763 39.0471L7.51473 38.7639L7.51184 38.7772L7.50921 38.7906L8.81763 39.0471ZM9.94263 40.7815L9.65615 42.0837L9.65658 42.0838L9.94263 40.7815ZM64.3176 17.6877L65.0036 16.5444L63.8636 15.8604L63.1763 16.9985L64.3176 17.6877ZM43.4297 46.2501V47.5834L43.4371 47.5834L43.4297 46.2501ZM21.8984 56.5313V57.8647L21.9058 57.8646L21.8984 56.5313ZM69.8186 19.3611C69.8013 19.3732 69.7852 19.3779 69.7678 19.3784C69.7497 19.3789 69.7212 19.3748 69.6858 19.3538L68.3244 21.6467C69.2587 22.2014 70.4345 22.185 71.3479 21.5457L69.8186 19.3611ZM69.8838 19.2547C69.8855 19.2635 69.8858 19.2797 69.8768 19.301C69.8674 19.3233 69.8535 19.3374 69.8437 19.344L71.3229 21.5628C72.2303 20.9578 72.7154 19.8462 72.5014 18.7458L69.8838 19.2547ZM66.8624 1.42612L69.878 19.223L72.5072 18.7775L69.4916 0.980616L66.8624 1.42612ZM66.8577 1.40047C66.86 1.40578 66.8603 1.40743 66.8598 1.40558C66.8593 1.40367 66.8581 1.39901 66.8571 1.39193L69.4969 1.01481C69.4635 0.781036 69.3983 0.558778 69.3088 0.35002L66.8577 1.40047ZM66.6991 1.33649C66.7256 1.32522 66.7573 1.32344 66.7919 1.33734C66.8263 1.35114 66.8461 1.37322 66.8564 1.39732L69.3101 0.353172C68.7077 -1.06248 67.0632 -1.71651 65.6549 -1.11725L66.6991 1.33649ZM50.7766 8.10239L66.6985 1.33676L65.6556 -1.11752L49.7337 5.64811L50.7766 8.10239ZM50.7089 8.16724C50.717 8.15031 50.7262 8.13838 50.736 8.12912C50.7459 8.11965 50.76 8.1095 50.7804 8.10077L49.7299 5.64972C49.1106 5.91514 48.6001 6.39335 48.3013 7.02075L50.7089 8.16724ZM50.7679 8.32865C50.7436 8.31704 50.7201 8.29431 50.7067 8.25669C50.6935 8.21945 50.698 8.19012 50.708 8.16927L48.3023 7.01872C47.6383 8.40705 48.2396 10.0754 49.6174 10.7343L50.7679 8.32865ZM55.5717 10.6601L50.7748 8.33198L49.6105 10.731L54.4073 13.0591L55.5717 10.6601ZM10.2538 39.2352C11.0022 39.2976 19.1492 39.844 28.7703 36.7703C38.4249 33.686 49.6045 26.9368 56.2034 12.4111L53.7756 11.3081C47.562 24.9856 37.0854 31.3145 27.9588 34.2302C18.7985 37.1565 11.0393 36.6248 10.4752 36.5778L10.2538 39.2352ZM10.1205 39.3304C10.1284 39.2943 10.1456 39.2717 10.1657 39.2569C10.1858 39.2421 10.2131 39.2318 10.2514 39.235L10.4776 36.578C9.07658 36.4587 7.81351 37.3895 7.51473 38.7639L10.1205 39.3304ZM10.2291 39.4793C10.165 39.4652 10.1073 39.3992 10.126 39.3037L7.50921 38.7906C7.21545 40.2887 8.15781 41.7541 9.65615 42.0837L10.2291 39.4793ZM24.677 41.1669C20.3462 41.1669 15.5518 40.6485 10.2287 39.4792L9.65658 42.0838C15.1459 43.2895 20.1328 43.8336 24.677 43.8336V41.1669ZM63.1763 16.9985C59.3584 23.3204 54.8154 29.3536 48.704 33.8096C42.6184 38.2468 34.9136 41.1669 24.677 41.1669V43.8336C35.4716 43.8336 43.7278 40.7381 50.275 35.9643C56.7964 31.2094 61.5581 24.8363 65.459 18.377L63.1763 16.9985ZM69.6911 19.3569L65.0036 16.5444L63.6316 18.8311L68.3191 21.6436L69.6911 19.3569ZM69.1432 40.1562V73.75H71.8099V40.1562H69.1432ZM65.4609 35.2396C67.2643 35.2396 69.1432 37.1061 69.1432 40.1562H71.8099C71.8099 36.2064 69.2513 32.5729 65.4609 32.5729V35.2396ZM58.6016 35.2396H65.4609V32.5729H58.6016V35.2396ZM54.9193 40.1562C54.9193 37.0899 56.783 35.2396 58.6016 35.2396V32.5729C54.7951 32.5729 52.2526 36.1914 52.2526 40.1562H54.9193ZM54.9193 73.75V40.1562H52.2526V73.75H54.9193ZM58.6016 78.6667C56.7849 78.6667 54.9193 76.8031 54.9193 73.75H52.2526C52.2526 77.6969 54.7932 81.3333 58.6016 81.3333V78.6667ZM65.4609 78.6667H58.6016V81.3333H65.4609V78.6667ZM69.1432 73.75C69.1432 76.8164 67.2795 78.6667 65.4609 78.6667V81.3333C69.2674 81.3333 71.8099 77.7149 71.8099 73.75H69.1432ZM49.7943 73.7501V52.5001H47.1276V73.7501H49.7943ZM43.4453 81.3334C47.2517 81.3334 49.7943 77.7149 49.7943 73.7501H47.1276C47.1276 76.8165 45.2639 78.6667 43.4453 78.6667V81.3334ZM36.5703 81.3334H43.4453V78.6667H36.5703V81.3334ZM30.2214 73.7501C30.2214 77.697 32.762 81.3334 36.5703 81.3334V78.6667C34.7536 78.6667 32.888 76.8032 32.888 73.7501H30.2214ZM30.2214 52.5001V73.7501H32.888V52.5001H30.2214ZM36.5703 44.9167C32.7639 44.9167 30.2214 48.5352 30.2214 52.5001H32.888C32.888 49.4337 34.7517 47.5834 36.5703 47.5834V44.9167ZM43.4297 44.9167H36.5703V47.5834H43.4297V44.9167ZM49.7943 52.5001C49.7943 48.5401 47.2537 44.8956 43.4223 44.9168L43.4371 47.5834C45.2619 47.5733 47.1276 49.4287 47.1276 52.5001H49.7943ZM25.5964 62.7813V73.7501H28.263V62.7813H25.5964ZM21.9058 57.8646C23.7306 57.8545 25.5964 59.71 25.5964 62.7813H28.263C28.263 58.8214 25.7225 55.1768 21.8911 55.198L21.9058 57.8646ZM15.0391 57.8646H21.8984V55.198H15.0391V57.8646ZM11.3568 62.7813C11.3568 59.7149 13.2205 57.8646 15.0391 57.8646V55.198C11.2326 55.198 8.6901 58.8165 8.6901 62.7813H11.3568ZM11.3568 73.7501V62.7813H8.6901V73.7501H11.3568ZM15.0391 78.6667C13.2224 78.6667 11.3568 76.8032 11.3568 73.7501H8.6901C8.6901 77.697 11.2307 81.3334 15.0391 81.3334V78.6667ZM21.9141 78.6667H15.0391V81.3334H21.9141V78.6667ZM25.5964 73.7501C25.5964 76.8032 23.7307 78.6667 21.9141 78.6667V81.3334C25.7224 81.3334 28.263 77.697 28.263 73.7501H25.5964Z" fill="url(#paint2_radial_5784_36107)" fill-opacity="0.3" mask="url(#path-1-inside-1_5784_36107)"/>
</g>
</g>
<defs>
<filter id="filter0_bd_5784_36107" x="-657.878" y="-666.673" width="1395.76" height="1413.34" filterUnits="userSpaceOnUse" color-interpolation-filters="sRGB">
<feFlood flood-opacity="0" result="BackgroundImageFix"/>
<feGaussianBlur in="BackgroundImageFix" stdDeviation="333.333"/>
<feComposite in2="SourceAlpha" operator="in" result="effect1_backgroundBlur_5784_36107"/>
<feColorMatrix in="SourceAlpha" type="matrix" values="0 0 0 0 0 0 0 0 0 0 0 0 0 0 0 0 0 0 127 0" result="hardAlpha"/>
<feOffset dy="2.66667"/>
<feGaussianBlur stdDeviation="1.33333"/>
<feComposite in2="hardAlpha" operator="out"/>
<feColorMatrix type="matrix" values="0 0 0 0 0 0 0 0 0 0 0 0 0 0 0 0 0 0 0.25 0"/>
<feBlend mode="normal" in2="effect1_backgroundBlur_5784_36107" result="effect2_dropShadow_5784_36107"/>
<feBlend mode="normal" in="SourceGraphic" in2="effect2_dropShadow_5784_36107" result="shape"/>
</filter>
<linearGradient id="paint0_linear_5784_36107" x1="11.365" y1="2.0549" x2="55.9091" y2="91.3051" gradientUnits="userSpaceOnUse">
<stop stop-color="white" stop-opacity="0.6"/>
<stop offset="1" stop-color="white" stop-opacity="0"/>
</linearGradient>
<radialGradient id="paint1_radial_5784_36107" cx="0" cy="0" r="1" gradientUnits="userSpaceOnUse" gradientTransform="translate(40.0036 0.721468) rotate(90) scale(69.4597 54.1998)">
<stop stop-color="white"/>
<stop offset="1" stop-color="white" stop-opacity="0"/>
</radialGradient>
<radialGradient id="paint2_radial_5784_36107" cx="0" cy="0" r="1" gradientUnits="userSpaceOnUse" gradientTransform="translate(40.0036 80.0001) rotate(-90) scale(40.003 31.2145)">
<stop stop-color="white"/>
<stop offset="1" stop-color="white" stop-opacity="0"/>
</radialGradient>
<clipPath id="clip0_5784_36107">
<rect width="80" height="80" fill="white"/>
</clipPath>
</defs>
</svg>