<svg xmlns="http://www.w3.org/2000/svg" width="80" height="80" viewBox="0 0 80 80" fill="none">
<g clip-path="url(#clip0_5784_36079)">
<g filter="url(#filter0_bd_5784_36079)">
<mask id="path-1-inside-1_5784_36079" fill="white">
<path fill-rule="evenodd" clip-rule="evenodd" d="M53.6441 8.69841C53.1966 9.90981 51.8501 10.534 50.6333 10.0843C49.4193 9.6356 48.7988 8.28763 49.2476 7.07341L50.8754 2.66856C51.3241 1.4545 52.6726 0.834033 53.8863 1.28263C55.1004 1.73138 55.7208 3.0795 55.2722 4.29356L53.6441 8.69841ZM26.3522 8.69852C26.8 9.9107 28.1472 10.5337 29.3629 10.0845C30.577 9.6357 31.1975 8.28773 30.7487 7.07352L29.1209 2.66867C28.6722 1.45477 27.3242 0.833828 26.11 1.28273C24.8959 1.73148 24.2754 3.07945 24.724 4.29367L26.3522 8.69852ZM39.9997 13.084C59.8534 13.084 72.1655 34.7396 62.1847 51.7523L51.0652 46.4896C53.2122 41.8405 49.7897 36.521 44.6794 36.521H35.32C34.0275 36.521 32.9762 35.4696 32.9762 34.1773C32.9762 32.8849 34.0277 31.8335 35.32 31.8335H49.3822C50.6766 31.8335 51.7259 30.7841 51.7259 29.4898C51.7259 28.1954 50.6766 27.146 49.3822 27.146H42.4214V24.8023C42.4214 23.5079 41.372 22.4585 40.0777 22.4585C38.7833 22.4585 37.7339 23.5079 37.7339 24.8023V27.146H35.3198C31.4427 27.146 28.2886 30.3002 28.2886 34.1773C28.2886 38.0543 31.4428 41.2085 35.3198 41.2085H44.6792C45.9717 41.2085 47.023 42.2598 47.023 43.5523C47.023 44.8448 45.9716 45.896 44.6792 45.896H30.6325C29.3381 45.896 28.2887 46.9454 28.2887 48.2398C28.2887 49.5341 29.3381 50.5835 30.6325 50.5835H37.7341V52.9273C37.7341 54.2216 38.7834 55.271 40.0778 55.271C41.3722 55.271 42.4216 54.2216 42.4216 52.9273V50.5835C43.0144 50.5745 43.4861 50.5789 43.8874 50.5827H43.8876H43.8879H43.8881H43.8883H43.8886H43.8888C44.7819 50.5911 45.3259 50.5962 46.0806 50.4429L49.1163 62.8177C32.3755 69.1901 14.2969 56.7655 14.2969 38.7868C14.2969 24.6143 25.827 13.084 39.9997 13.084ZM51.2266 51.7539L68.5 59.9289L64.3767 63.3831L69.4348 69.4466L64.9436 73.2155L59.8878 67.1545L55.8369 70.5483L51.2266 51.7539ZM8.0417 18.0002L12.1639 20.344C13.289 20.9837 13.6828 22.4146 13.0429 23.5398C12.3989 24.6721 10.965 25.0545 9.84701 24.4187L5.72483 22.0749C4.59967 21.4352 4.20592 20.0045 4.84576 18.8791C5.48576 17.754 6.91608 17.3601 8.0417 18.0002ZM6.63071 42.2811L1.94321 43.095C0.667894 43.3165 -0.186481 44.5298 0.034925 45.8053C0.255238 47.0742 1.46274 47.9356 2.74524 47.7136L7.43274 46.8997C8.70805 46.6781 9.56242 45.4646 9.34102 44.1893C9.11961 42.914 7.90711 42.0595 6.63071 42.2811ZM16.6974 62.6008C17.5371 61.6158 19.0163 61.4978 20.0015 62.3369C20.9868 63.1764 21.1049 64.6556 20.2654 65.641L17.2058 69.2317C16.3661 70.2171 14.8871 70.3347 13.9018 69.4956C12.9166 68.6561 12.7985 67.1769 13.6379 66.1916L16.6974 62.6008ZM40 69.4902C38.7056 69.4902 37.6562 70.5396 37.6562 71.834V76.5215C37.6562 77.8159 38.7056 78.8652 40 78.8652C41.2944 78.8652 42.3438 77.8159 42.3438 76.5215V71.834C42.3438 70.5396 41.2944 69.4902 40 69.4902ZM73.3702 42.2809L78.0577 43.0948C79.3331 43.3162 80.1873 44.5297 79.966 45.8052C79.7457 47.0733 78.5391 47.9358 77.2557 47.7134L72.5682 46.8995C71.2929 46.678 70.4385 45.4645 70.6599 44.1892C70.8813 42.9139 72.0937 42.0598 73.3702 42.2809ZM75.1523 18.879C74.5123 17.7537 73.0814 17.3603 71.9564 18.0001L67.8342 20.3439C66.709 20.9837 66.3153 22.4145 66.9551 23.5397C67.5919 24.6592 69.0206 25.0615 70.1511 24.4186L74.2733 22.0748C75.3984 21.4351 75.7922 20.0044 75.1523 18.879Z"/>
</mask>
<path fill-rule="evenodd" clip-rule="evenodd" d="M53.6441 8.69841C53.1966 9.90981 51.8501 10.534 50.6333 10.0843C49.4193 9.6356 48.7988 8.28763 49.2476 7.07341L50.8754 2.66856C51.3241 1.4545 52.6726 0.834033 53.8863 1.28263C55.1004 1.73138 55.7208 3.0795 55.2722 4.29356L53.6441 8.69841ZM26.3522 8.69852C26.8 9.9107 28.1472 10.5337 29.3629 10.0845C30.577 9.6357 31.1975 8.28773 30.7487 7.07352L29.1209 2.66867C28.6722 1.45477 27.3242 0.833828 26.11 1.28273C24.8959 1.73148 24.2754 3.07945 24.724 4.29367L26.3522 8.69852ZM39.9997 13.084C59.8534 13.084 72.1655 34.7396 62.1847 51.7523L51.0652 46.4896C53.2122 41.8405 49.7897 36.521 44.6794 36.521H35.32C34.0275 36.521 32.9762 35.4696 32.9762 34.1773C32.9762 32.8849 34.0277 31.8335 35.32 31.8335H49.3822C50.6766 31.8335 51.7259 30.7841 51.7259 29.4898C51.7259 28.1954 50.6766 27.146 49.3822 27.146H42.4214V24.8023C42.4214 23.5079 41.372 22.4585 40.0777 22.4585C38.7833 22.4585 37.7339 23.5079 37.7339 24.8023V27.146H35.3198C31.4427 27.146 28.2886 30.3002 28.2886 34.1773C28.2886 38.0543 31.4428 41.2085 35.3198 41.2085H44.6792C45.9717 41.2085 47.023 42.2598 47.023 43.5523C47.023 44.8448 45.9716 45.896 44.6792 45.896H30.6325C29.3381 45.896 28.2887 46.9454 28.2887 48.2398C28.2887 49.5341 29.3381 50.5835 30.6325 50.5835H37.7341V52.9273C37.7341 54.2216 38.7834 55.271 40.0778 55.271C41.3722 55.271 42.4216 54.2216 42.4216 52.9273V50.5835C43.0144 50.5745 43.4861 50.5789 43.8874 50.5827H43.8876H43.8879H43.8881H43.8883H43.8886H43.8888C44.7819 50.5911 45.3259 50.5962 46.0806 50.4429L49.1163 62.8177C32.3755 69.1901 14.2969 56.7655 14.2969 38.7868C14.2969 24.6143 25.827 13.084 39.9997 13.084ZM51.2266 51.7539L68.5 59.9289L64.3767 63.3831L69.4348 69.4466L64.9436 73.2155L59.8878 67.1545L55.8369 70.5483L51.2266 51.7539ZM8.0417 18.0002L12.1639 20.344C13.289 20.9837 13.6828 22.4146 13.0429 23.5398C12.3989 24.6721 10.965 25.0545 9.84701 24.4187L5.72483 22.0749C4.59967 21.4352 4.20592 20.0045 4.84576 18.8791C5.48576 17.754 6.91608 17.3601 8.0417 18.0002ZM6.63071 42.2811L1.94321 43.095C0.667894 43.3165 -0.186481 44.5298 0.034925 45.8053C0.255238 47.0742 1.46274 47.9356 2.74524 47.7136L7.43274 46.8997C8.70805 46.6781 9.56242 45.4646 9.34102 44.1893C9.11961 42.914 7.90711 42.0595 6.63071 42.2811ZM16.6974 62.6008C17.5371 61.6158 19.0163 61.4978 20.0015 62.3369C20.9868 63.1764 21.1049 64.6556 20.2654 65.641L17.2058 69.2317C16.3661 70.2171 14.8871 70.3347 13.9018 69.4956C12.9166 68.6561 12.7985 67.1769 13.6379 66.1916L16.6974 62.6008ZM40 69.4902C38.7056 69.4902 37.6562 70.5396 37.6562 71.834V76.5215C37.6562 77.8159 38.7056 78.8652 40 78.8652C41.2944 78.8652 42.3438 77.8159 42.3438 76.5215V71.834C42.3438 70.5396 41.2944 69.4902 40 69.4902ZM73.3702 42.2809L78.0577 43.0948C79.3331 43.3162 80.1873 44.5297 79.966 45.8052C79.7457 47.0733 78.5391 47.9358 77.2557 47.7134L72.5682 46.8995C71.2929 46.678 70.4385 45.4645 70.6599 44.1892C70.8813 42.9139 72.0937 42.0598 73.3702 42.2809ZM75.1523 18.879C74.5123 17.7537 73.0814 17.3603 71.9564 18.0001L67.8342 20.3439C66.709 20.9837 66.3153 22.4145 66.9551 23.5397C67.5919 24.6592 69.0206 25.0615 70.1511 24.4186L74.2733 22.0748C75.3984 21.4351 75.7922 20.0044 75.1523 18.879Z" fill="url(#paint0_linear_5784_36079)" shape-rendering="crispEdges"/>
<path fill-rule="evenodd" clip-rule="evenodd" d="M53.6441 8.69841C53.1966 9.90981 51.8501 10.534 50.6333 10.0843C49.4193 9.6356 48.7988 8.28763 49.2476 7.07341L50.8754 2.66856C51.3241 1.4545 52.6726 0.834033 53.8863 1.28263C55.1004 1.73138 55.7208 3.0795 55.2722 4.29356L53.6441 8.69841ZM26.3522 8.69852C26.8 9.9107 28.1472 10.5337 29.3629 10.0845C30.577 9.6357 31.1975 8.28773 30.7487 7.07352L29.1209 2.66867C28.6722 1.45477 27.3242 0.833828 26.11 1.28273C24.8959 1.73148 24.2754 3.07945 24.724 4.29367L26.3522 8.69852ZM39.9997 13.084C59.8534 13.084 72.1655 34.7396 62.1847 51.7523L51.0652 46.4896C53.2122 41.8405 49.7897 36.521 44.6794 36.521H35.32C34.0275 36.521 32.9762 35.4696 32.9762 34.1773C32.9762 32.8849 34.0277 31.8335 35.32 31.8335H49.3822C50.6766 31.8335 51.7259 30.7841 51.7259 29.4898C51.7259 28.1954 50.6766 27.146 49.3822 27.146H42.4214V24.8023C42.4214 23.5079 41.372 22.4585 40.0777 22.4585C38.7833 22.4585 37.7339 23.5079 37.7339 24.8023V27.146H35.3198C31.4427 27.146 28.2886 30.3002 28.2886 34.1773C28.2886 38.0543 31.4428 41.2085 35.3198 41.2085H44.6792C45.9717 41.2085 47.023 42.2598 47.023 43.5523C47.023 44.8448 45.9716 45.896 44.6792 45.896H30.6325C29.3381 45.896 28.2887 46.9454 28.2887 48.2398C28.2887 49.5341 29.3381 50.5835 30.6325 50.5835H37.7341V52.9273C37.7341 54.2216 38.7834 55.271 40.0778 55.271C41.3722 55.271 42.4216 54.2216 42.4216 52.9273V50.5835C43.0144 50.5745 43.4861 50.5789 43.8874 50.5827H43.8876H43.8879H43.8881H43.8883H43.8886H43.8888C44.7819 50.5911 45.3259 50.5962 46.0806 50.4429L49.1163 62.8177C32.3755 69.1901 14.2969 56.7655 14.2969 38.7868C14.2969 24.6143 25.827 13.084 39.9997 13.084ZM51.2266 51.7539L68.5 59.9289L64.3767 63.3831L69.4348 69.4466L64.9436 73.2155L59.8878 67.1545L55.8369 70.5483L51.2266 51.7539ZM8.0417 18.0002L12.1639 20.344C13.289 20.9837 13.6828 22.4146 13.0429 23.5398C12.3989 24.6721 10.965 25.0545 9.84701 24.4187L5.72483 22.0749C4.59967 21.4352 4.20592 20.0045 4.84576 18.8791C5.48576 17.754 6.91608 17.3601 8.0417 18.0002ZM6.63071 42.2811L1.94321 43.095C0.667894 43.3165 -0.186481 44.5298 0.034925 45.8053C0.255238 47.0742 1.46274 47.9356 2.74524 47.7136L7.43274 46.8997C8.70805 46.6781 9.56242 45.4646 9.34102 44.1893C9.11961 42.914 7.90711 42.0595 6.63071 42.2811ZM16.6974 62.6008C17.5371 61.6158 19.0163 61.4978 20.0015 62.3369C20.9868 63.1764 21.1049 64.6556 20.2654 65.641L17.2058 69.2317C16.3661 70.2171 14.8871 70.3347 13.9018 69.4956C12.9166 68.6561 12.7985 67.1769 13.6379 66.1916L16.6974 62.6008ZM40 69.4902C38.7056 69.4902 37.6562 70.5396 37.6562 71.834V76.5215C37.6562 77.8159 38.7056 78.8652 40 78.8652C41.2944 78.8652 42.3438 77.8159 42.3438 76.5215V71.834C42.3438 70.5396 41.2944 69.4902 40 69.4902ZM73.3702 42.2809L78.0577 43.0948C79.3331 43.3162 80.1873 44.5297 79.966 45.8052C79.7457 47.0733 78.5391 47.9358 77.2557 47.7134L72.5682 46.8995C71.2929 46.678 70.4385 45.4645 70.6599 44.1892C70.8813 42.9139 72.0937 42.0598 73.3702 42.2809ZM75.1523 18.879C74.5123 17.7537 73.0814 17.3603 71.9564 18.0001L67.8342 20.3439C66.709 20.9837 66.3153 22.4145 66.9551 23.5397C67.5919 24.6592 69.0206 25.0615 70.1511 24.4186L74.2733 22.0748C75.3984 21.4351 75.7922 20.0044 75.1523 18.879Z" fill="#344254" fill-opacity="0.15" shape-rendering="crispEdges"/>
<path d="M50.6333 10.0843L50.1711 11.335L50.1711 11.335L50.6333 10.0843ZM53.6441 8.69841L52.3935 8.23615L52.3934 8.23638L53.6441 8.69841ZM49.2476 7.07341L50.4982 7.53563L50.4982 7.53559L49.2476 7.07341ZM50.8754 2.66856L49.6247 2.2063L49.6247 2.20638L50.8754 2.66856ZM53.8863 1.28263L54.3486 0.0319924L54.3485 0.0319784L53.8863 1.28263ZM55.2722 4.29356L56.5229 4.75583L56.5229 4.75569L55.2722 4.29356ZM29.3629 10.0845L29.8251 11.3351L29.8252 11.3351L29.3629 10.0845ZM26.3522 8.69852L27.6029 8.23647L27.6028 8.23625L26.3522 8.69852ZM30.7487 7.07352L29.4981 7.5357L29.4981 7.53573L30.7487 7.07352ZM29.1209 2.66867L30.3716 2.20649L30.3715 2.20635L29.1209 2.66867ZM26.11 1.28273L26.5722 2.53337L26.5723 2.53334L26.11 1.28273ZM24.724 4.29367L23.4733 4.75575L23.4734 4.75593L24.724 4.29367ZM62.1847 51.7523L61.6143 52.9574L62.7173 53.4794L63.3347 52.427L62.1847 51.7523ZM51.0652 46.4896L49.8547 45.9306L49.3009 47.1297L50.4948 47.6948L51.0652 46.4896ZM42.4214 27.146H41.0881V28.4793H42.4214V27.146ZM37.7339 27.146V28.4793H39.0672V27.146H37.7339ZM37.7341 50.5835H39.0674V49.2502H37.7341V50.5835ZM42.4216 50.5835L42.4013 49.2503L41.0882 49.2703V50.5835H42.4216ZM43.8874 50.5827L43.8749 51.916H43.8874V50.5827ZM43.8888 50.5827L43.9013 49.2494H43.8888V50.5827ZM46.0806 50.4429L47.3756 50.1252L47.0704 48.8813L45.8153 49.1362L46.0806 50.4429ZM49.1163 62.8177L49.5906 64.0638L50.692 63.6446L50.4112 62.5001L49.1163 62.8177ZM68.5 59.9289L69.3562 60.951L70.9519 59.6142L69.0704 58.7237L68.5 59.9289ZM51.2266 51.7539L51.7969 50.5487L49.264 49.35L49.9316 52.0716L51.2266 51.7539ZM64.3767 63.3831L63.5205 62.361L62.5005 63.2155L63.3529 64.2372L64.3767 63.3831ZM69.4348 69.4466L70.2919 70.4679L71.3103 69.6133L70.4587 68.5925L69.4348 69.4466ZM64.9436 73.2155L63.9197 74.0695L64.7763 75.0965L65.8007 74.2368L64.9436 73.2155ZM59.8878 67.1545L60.9117 66.3005L60.0558 65.2744L59.0316 66.1325L59.8878 67.1545ZM55.8369 70.5483L54.5419 70.8659L55.052 72.9452L56.6931 71.5703L55.8369 70.5483ZM12.1639 20.344L11.5049 21.5031L11.5049 21.5031L12.1639 20.344ZM8.0417 18.0002L7.38256 19.1593L7.38268 19.1593L8.0417 18.0002ZM13.0429 23.5398L14.2019 24.199L14.202 24.1989L13.0429 23.5398ZM9.84701 24.4187L10.5061 23.2597L10.506 23.2596L9.84701 24.4187ZM5.72483 22.0749L6.38384 20.9158L6.38381 20.9158L5.72483 22.0749ZM4.84576 18.8791L3.6868 18.2199L3.68669 18.2201L4.84576 18.8791ZM1.94321 43.095L1.71511 41.7813L1.71498 41.7813L1.94321 43.095ZM6.63071 42.2811L6.40267 40.9674L6.40261 40.9674L6.63071 42.2811ZM0.034925 45.8053L-1.27876 46.0333L-1.27875 46.0334L0.034925 45.8053ZM2.74524 47.7136L2.97269 49.0273L2.97334 49.0272L2.74524 47.7136ZM7.43274 46.8997L7.66084 48.2133L7.66096 48.2133L7.43274 46.8997ZM9.34102 44.1893L8.02734 44.4174L8.02734 44.4174L9.34102 44.1893ZM20.0015 62.3369L20.8662 61.322L20.866 61.3218L20.0015 62.3369ZM16.6974 62.6008L15.6827 61.7358L15.6825 61.7361L16.6974 62.6008ZM20.2654 65.641L21.2803 66.5057L20.2654 65.641ZM17.2058 69.2317L18.2206 70.0966L18.2207 70.0965L17.2058 69.2317ZM13.9018 69.4956L13.0369 70.5105L13.0373 70.5108L13.9018 69.4956ZM13.6379 66.1916L12.623 65.3268L12.6229 65.3269L13.6379 66.1916ZM78.0577 43.0948L77.8296 44.4085L77.8297 44.4085L78.0577 43.0948ZM73.3702 42.2809L73.5983 40.9673L73.5978 40.9672L73.3702 42.2809ZM79.966 45.8052L81.2797 46.0334L81.2797 46.033L79.966 45.8052ZM77.2557 47.7134L77.0276 49.0271L77.0281 49.0272L77.2557 47.7134ZM72.5682 46.8995L72.34 48.2132L72.3401 48.2132L72.5682 46.8995ZM70.6599 44.1892L69.3462 43.9612L70.6599 44.1892ZM71.9564 18.0001L72.6154 19.1592L72.6156 19.1591L71.9564 18.0001ZM75.1523 18.879L76.3114 18.22L76.3113 18.2199L75.1523 18.879ZM67.8342 20.3439L67.1752 19.1848L67.1751 19.1849L67.8342 20.3439ZM66.9551 23.5397L65.7961 24.1988L65.7961 24.1988L66.9551 23.5397ZM70.1511 24.4186L69.4921 23.2595L69.4919 23.2596L70.1511 24.4186ZM74.2733 22.0748L73.6143 20.9157L73.6142 20.9157L74.2733 22.0748ZM50.1711 11.335C52.0804 12.0407 54.1928 11.0608 54.8948 9.16043L52.3934 8.23638C52.2004 8.75878 51.6197 9.0274 51.0956 8.8337L50.1711 11.335ZM47.9969 6.61119C47.2929 8.51608 48.2663 10.6309 50.1711 11.335L51.0956 8.83371C50.5723 8.64027 50.3047 8.05917 50.4982 7.53563L47.9969 6.61119ZM49.6247 2.20638L47.9969 6.61122L50.4982 7.53559L52.126 3.13075L49.6247 2.20638ZM54.3485 0.0319784C52.4441 -0.671879 50.3288 0.301505 49.6247 2.2063L52.126 3.13083C52.3194 2.6075 52.901 2.33994 53.4241 2.53328L54.3485 0.0319784ZM56.5229 4.75569C57.2267 2.85102 56.2534 0.736052 54.3486 0.0319924L53.424 2.53326C53.9474 2.7267 54.215 3.30798 54.0215 3.83143L56.5229 4.75569ZM54.8947 9.16067L56.5229 4.75583L54.0216 3.8313L52.3935 8.23615L54.8947 9.16067ZM28.9008 8.83376C28.3769 9.02736 27.7959 8.75893 27.6029 8.23647L25.1014 9.16056C25.8041 11.0625 27.9175 12.04 29.8251 11.3351L28.9008 8.83376ZM29.4981 7.53573C29.6916 8.05928 29.424 8.64037 28.9007 8.83382L29.8252 11.3351C31.73 10.631 32.7034 8.51619 31.9994 6.6113L29.4981 7.53573ZM27.8702 3.13086L29.4981 7.5357L31.9994 6.61133L30.3716 2.20649L27.8702 3.13086ZM26.5723 2.53334C27.0954 2.33995 27.6767 2.60736 27.8703 3.13099L30.3715 2.20635C29.6676 0.302173 27.553 -0.672293 25.6476 0.0321333L26.5723 2.53334ZM25.9747 3.8316C25.7813 3.30796 26.0489 2.72681 26.5722 2.53337L25.6477 0.0321003C23.7429 0.736158 22.7696 2.85094 23.4733 4.75575L25.9747 3.8316ZM27.6028 8.23625L25.9747 3.83141L23.4734 4.75593L25.1015 9.16078L27.6028 8.23625ZM63.3347 52.427C73.8358 34.5274 60.8863 11.7507 39.9997 11.7507V14.4173C58.8206 14.4173 70.4951 34.9518 61.0347 51.0776L63.3347 52.427ZM50.4948 47.6948L61.6143 52.9574L62.7551 50.5471L51.6355 45.2844L50.4948 47.6948ZM44.6794 37.8543C48.8209 37.8543 51.5918 42.1691 49.8547 45.9306L52.2756 47.0486C54.8326 41.512 50.7584 35.1877 44.6794 35.1877V37.8543ZM35.32 37.8543H44.6794V35.1877H35.32V37.8543ZM31.6429 34.1773C31.6429 36.2059 33.2911 37.8543 35.32 37.8543V35.1877C34.7639 35.1877 34.3096 34.7333 34.3096 34.1773H31.6429ZM35.32 30.5002C33.2913 30.5002 31.6429 32.1485 31.6429 34.1773H34.3096C34.3096 33.6213 34.764 33.1668 35.32 33.1668V30.5002ZM49.3822 30.5002H35.32V33.1668H49.3822V30.5002ZM50.3926 29.4898C50.3926 30.0478 49.9402 30.5002 49.3822 30.5002V33.1668C51.4129 33.1668 53.0593 31.5205 53.0593 29.4898H50.3926ZM49.3822 28.4793C49.9402 28.4793 50.3926 28.9318 50.3926 29.4898H53.0593C53.0593 27.459 51.4129 25.8127 49.3822 25.8127V28.4793ZM42.4214 28.4793H49.3822V25.8127H42.4214V28.4793ZM41.0881 24.8023V27.146H43.7547V24.8023H41.0881ZM40.0777 23.7918C40.6357 23.7918 41.0881 24.2443 41.0881 24.8023H43.7547C43.7547 22.7715 42.1084 21.1252 40.0777 21.1252V23.7918ZM39.0672 24.8023C39.0672 24.2443 39.5197 23.7918 40.0777 23.7918V21.1252C38.0469 21.1252 36.4006 22.7715 36.4006 24.8023H39.0672ZM39.0672 27.146V24.8023H36.4006V27.146H39.0672ZM35.3198 28.4793H37.7339V25.8127H35.3198V28.4793ZM29.6219 34.1773C29.6219 31.0366 32.1791 28.4793 35.3198 28.4793V25.8127C30.7063 25.8127 26.9553 29.5639 26.9553 34.1773H29.6219ZM35.3198 39.8752C32.1792 39.8752 29.6219 37.3179 29.6219 34.1773H26.9553C26.9553 38.7907 30.7064 42.5419 35.3198 42.5419V39.8752ZM44.6792 39.8752H35.3198V42.5419H44.6792V39.8752ZM48.3563 43.5523C48.3563 41.5234 46.7081 39.8752 44.6792 39.8752V42.5419C45.2353 42.5419 45.6896 42.9961 45.6896 43.5523H48.3563ZM44.6792 47.2294C46.7079 47.2294 48.3563 45.5812 48.3563 43.5523H45.6896C45.6896 44.1083 45.2352 44.5627 44.6792 44.5627V47.2294ZM30.6325 47.2294H44.6792V44.5627H30.6325V47.2294ZM29.6221 48.2398C29.6221 47.6818 30.0745 47.2294 30.6325 47.2294V44.5627C28.6017 44.5627 26.9554 46.209 26.9554 48.2398H29.6221ZM30.6325 49.2502C30.0745 49.2502 29.6221 48.7978 29.6221 48.2398H26.9554C26.9554 50.2705 28.6017 51.9169 30.6325 51.9169V49.2502ZM37.7341 49.2502H30.6325V51.9169H37.7341V49.2502ZM39.0674 52.9273V50.5835H36.4007V52.9273H39.0674ZM40.0778 53.9377C39.5198 53.9377 39.0674 53.4853 39.0674 52.9273H36.4007C36.4007 54.958 38.0471 56.6044 40.0778 56.6044V53.9377ZM41.0882 52.9273C41.0882 53.4853 40.6358 53.9377 40.0778 53.9377V56.6044C42.1086 56.6044 43.7549 54.958 43.7549 52.9273H41.0882ZM41.0882 50.5835V52.9273H43.7549V50.5835H41.0882ZM43.8999 49.2494C43.4978 49.2456 43.0119 49.2411 42.4013 49.2503L42.4418 51.9167C43.0169 51.908 43.4744 51.9122 43.8749 51.916L43.8999 49.2494ZM43.8876 49.2494H43.8874V51.916H43.8876V49.2494ZM43.8879 49.2494H43.8876V51.916H43.8879V49.2494ZM43.8881 49.2494H43.8879V51.916H43.8881V49.2494ZM43.8883 49.2494H43.8881V51.916H43.8883V49.2494ZM43.8886 49.2494H43.8883V51.916H43.8886V49.2494ZM43.8888 49.2494H43.8886V51.916H43.8888V49.2494ZM45.8153 49.1362C45.2152 49.2581 44.802 49.2579 43.9013 49.2494L43.8763 51.916C44.7617 51.9243 45.4366 51.9342 46.346 51.7496L45.8153 49.1362ZM50.4112 62.5001L47.3756 50.1252L44.7857 50.7606L47.8213 63.1354L50.4112 62.5001ZM12.9635 38.7868C12.9635 57.6997 31.9775 70.7682 49.5906 64.0638L48.6419 61.5716C32.7734 67.6119 15.6302 55.8314 15.6302 38.7868H12.9635ZM39.9997 11.7507C25.0906 11.7507 12.9635 23.8779 12.9635 38.7868H15.6302C15.6302 25.3507 26.5634 14.4173 39.9997 14.4173V11.7507ZM69.0704 58.7237L51.7969 50.5487L50.6562 52.9591L67.9296 61.1341L69.0704 58.7237ZM65.2329 64.4052L69.3562 60.951L67.6438 58.9068L63.5205 62.361L65.2329 64.4052ZM70.4587 68.5925L65.4006 62.529L63.3529 64.2372L68.411 70.3007L70.4587 68.5925ZM65.8007 74.2368L70.2919 70.4679L68.5777 68.4252L64.0865 72.1941L65.8007 74.2368ZM58.8639 68.0086L63.9197 74.0695L65.9675 72.3614L60.9117 66.3005L58.8639 68.0086ZM56.6931 71.5703L60.7441 68.1766L59.0316 66.1325L54.9806 69.5262L56.6931 71.5703ZM49.9316 52.0716L54.5419 70.8659L57.1318 70.2306L52.5215 51.4363L49.9316 52.0716ZM12.8229 19.1849L8.70072 16.8412L7.38268 19.1593L11.5049 21.5031L12.8229 19.1849ZM14.202 24.1989C15.206 22.4334 14.5881 20.1885 12.8229 19.1849L11.5049 21.5031C11.99 21.7789 12.1596 22.3958 11.8839 22.8807L14.202 24.1989ZM9.18789 25.5777C10.9409 26.5746 13.1909 25.9764 14.2019 24.199L11.884 22.8806C11.6068 23.3678 10.9891 23.5343 10.5061 23.2597L9.18789 25.5777ZM5.06581 23.234L9.18799 25.5778L10.506 23.2596L6.38384 20.9158L5.06581 23.234ZM3.68669 18.2201C2.6828 19.9857 3.30062 22.2304 5.06584 23.234L6.38381 20.9158C5.89872 20.64 5.72904 20.0232 6.00484 19.5382L3.68669 18.2201ZM8.70084 16.8412C6.93467 15.8368 4.69059 16.4552 3.6868 18.2199L6.00473 19.5384C6.28094 19.0528 6.89748 18.8834 7.38256 19.1593L8.70084 16.8412ZM2.1713 44.4086L6.8588 43.5947L6.40261 40.9674L1.71511 41.7813L2.1713 44.4086ZM1.34861 45.5772C1.25315 45.0273 1.62149 44.5042 2.17143 44.4086L1.71498 41.7813C-0.285701 42.1289 -1.62611 44.0323 -1.27876 46.0333L1.34861 45.5772ZM2.51779 46.3998C1.96469 46.4955 1.4437 46.1249 1.3486 45.5772L-1.27875 46.0334C-0.933224 48.0235 0.960784 49.3757 2.97269 49.0273L2.51779 46.3998ZM7.20464 45.586L2.51714 46.3999L2.97334 49.0272L7.66084 48.2133L7.20464 45.586ZM8.02734 44.4174C8.12279 44.9672 7.75442 45.4905 7.20451 45.586L7.66096 48.2133C9.66168 47.8657 11.0021 45.9621 10.6547 43.9613L8.02734 44.4174ZM6.85874 43.5947C7.40942 43.4992 7.93185 43.8674 8.02734 44.4174L10.6547 43.9613C10.3074 41.9607 8.40481 40.6198 6.40267 40.9674L6.85874 43.5947ZM20.866 61.3218C19.3204 60.0055 17 60.1906 15.6827 61.7358L17.7121 63.4658C18.0741 63.0411 18.7121 62.9902 19.1369 63.352L20.866 61.3218ZM21.2803 66.5057C22.5973 64.9599 22.412 62.6391 20.8662 61.322L19.1367 63.3518C19.5615 63.7137 19.6124 64.3514 19.2505 64.7762L21.2803 66.5057ZM18.2207 70.0965L21.2803 66.5057L19.2505 64.7762L16.1909 68.367L18.2207 70.0965ZM13.0373 70.5108C14.5827 71.8268 16.9031 71.6426 18.2206 70.0966L16.191 68.3669C15.8292 68.7915 15.1914 68.8426 14.7662 68.4805L13.0373 70.5108ZM12.6229 65.3269C11.3061 66.8727 11.4913 69.1933 13.0369 70.5105L14.7666 68.4808C14.3419 68.1189 14.2909 67.4811 14.6528 67.0562L12.6229 65.3269ZM15.6825 61.7361L12.623 65.3268L14.6527 67.0563L17.7123 63.4655L15.6825 61.7361ZM38.9896 71.834C38.9896 71.276 39.442 70.8236 40 70.8236V68.1569C37.9692 68.1569 36.3229 69.8032 36.3229 71.834H38.9896ZM38.9896 76.5215V71.834H36.3229V76.5215H38.9896ZM40 77.5319C39.442 77.5319 38.9896 77.0795 38.9896 76.5215H36.3229C36.3229 78.5522 37.9692 80.1986 40 80.1986V77.5319ZM41.0104 76.5215C41.0104 77.0795 40.558 77.5319 40 77.5319V80.1986C42.0308 80.1986 43.6771 78.5522 43.6771 76.5215H41.0104ZM41.0104 71.834V76.5215H43.6771V71.834H41.0104ZM40 70.8236C40.558 70.8236 41.0104 71.276 41.0104 71.834H43.6771C43.6771 69.8032 42.0308 68.1569 40 68.1569V70.8236ZM78.2858 41.7812L73.5983 40.9673L73.1421 43.5946L77.8296 44.4085L78.2858 41.7812ZM81.2797 46.033C81.6268 44.0324 80.2869 42.1286 78.2858 41.7812L77.8297 44.4085C78.3792 44.5039 78.7478 45.0269 78.6523 45.5773L81.2797 46.033ZM77.0281 49.0272C79.0419 49.3761 80.9342 48.0217 81.2797 46.0334L78.6524 45.5769C78.5572 46.1249 78.0363 46.4955 77.4833 46.3997L77.0281 49.0272ZM72.3401 48.2132L77.0276 49.0271L77.4838 46.3998L72.7963 45.5859L72.3401 48.2132ZM69.3462 43.9612C68.9989 45.962 70.3393 47.8656 72.34 48.2132L72.7964 45.5859C72.2465 45.4903 71.8782 44.9671 71.9736 44.4173L69.3462 43.9612ZM73.5978 40.9672C71.5962 40.6205 69.6936 41.9601 69.3462 43.9612L71.9736 44.4173C72.069 43.8677 72.5911 43.4992 73.1427 43.5947L73.5978 40.9672ZM72.6156 19.1591C73.1003 18.8834 73.7173 19.0528 73.9933 19.5382L76.3113 18.2199C75.3074 16.4546 73.0625 15.8371 71.2972 16.8411L72.6156 19.1591ZM68.4932 21.503L72.6154 19.1592L71.2974 16.8411L67.1752 19.1848L68.4932 21.503ZM68.1142 22.8806C67.8385 22.3958 68.008 21.7789 68.4933 21.5029L67.1751 19.1849C65.4101 20.1885 64.7921 22.4332 65.7961 24.1988L68.1142 22.8806ZM69.4919 23.2596C69.0059 23.536 68.3893 23.3643 68.1141 22.8805L65.7961 24.1988C66.7944 25.9541 69.0353 26.5871 70.8103 25.5776L69.4919 23.2596ZM73.6142 20.9157L69.4921 23.2595L70.8101 25.5777L74.9323 23.2339L73.6142 20.9157ZM73.9933 19.5381C74.269 20.0231 74.0994 20.6399 73.6143 20.9157L74.9322 23.2339C76.6975 22.2303 77.3153 19.9856 76.3114 18.22L73.9933 19.5381Z" fill="url(#paint1_radial_5784_36079)" fill-opacity="0.6" mask="url(#path-1-inside-1_5784_36079)"/>
<path d="M50.6333 10.0843L50.1711 11.335L50.1711 11.335L50.6333 10.0843ZM53.6441 8.69841L52.3935 8.23615L52.3934 8.23638L53.6441 8.69841ZM49.2476 7.07341L50.4982 7.53563L50.4982 7.53559L49.2476 7.07341ZM50.8754 2.66856L49.6247 2.2063L49.6247 2.20638L50.8754 2.66856ZM53.8863 1.28263L54.3486 0.0319924L54.3485 0.0319784L53.8863 1.28263ZM55.2722 4.29356L56.5229 4.75583L56.5229 4.75569L55.2722 4.29356ZM29.3629 10.0845L29.8251 11.3351L29.8252 11.3351L29.3629 10.0845ZM26.3522 8.69852L27.6029 8.23647L27.6028 8.23625L26.3522 8.69852ZM30.7487 7.07352L29.4981 7.5357L29.4981 7.53573L30.7487 7.07352ZM29.1209 2.66867L30.3716 2.20649L30.3715 2.20635L29.1209 2.66867ZM26.11 1.28273L26.5722 2.53337L26.5723 2.53334L26.11 1.28273ZM24.724 4.29367L23.4733 4.75575L23.4734 4.75593L24.724 4.29367ZM62.1847 51.7523L61.6143 52.9574L62.7173 53.4794L63.3347 52.427L62.1847 51.7523ZM51.0652 46.4896L49.8547 45.9306L49.3009 47.1297L50.4948 47.6948L51.0652 46.4896ZM42.4214 27.146H41.0881V28.4793H42.4214V27.146ZM37.7339 27.146V28.4793H39.0672V27.146H37.7339ZM37.7341 50.5835H39.0674V49.2502H37.7341V50.5835ZM42.4216 50.5835L42.4013 49.2503L41.0882 49.2703V50.5835H42.4216ZM43.8874 50.5827L43.8749 51.916H43.8874V50.5827ZM43.8888 50.5827L43.9013 49.2494H43.8888V50.5827ZM46.0806 50.4429L47.3756 50.1252L47.0704 48.8813L45.8153 49.1362L46.0806 50.4429ZM49.1163 62.8177L49.5906 64.0638L50.692 63.6446L50.4112 62.5001L49.1163 62.8177ZM68.5 59.9289L69.3562 60.951L70.9519 59.6142L69.0704 58.7237L68.5 59.9289ZM51.2266 51.7539L51.7969 50.5487L49.264 49.35L49.9316 52.0716L51.2266 51.7539ZM64.3767 63.3831L63.5205 62.361L62.5005 63.2155L63.3529 64.2372L64.3767 63.3831ZM69.4348 69.4466L70.2919 70.4679L71.3103 69.6133L70.4587 68.5925L69.4348 69.4466ZM64.9436 73.2155L63.9197 74.0695L64.7763 75.0965L65.8007 74.2368L64.9436 73.2155ZM59.8878 67.1545L60.9117 66.3005L60.0558 65.2744L59.0316 66.1325L59.8878 67.1545ZM55.8369 70.5483L54.5419 70.8659L55.052 72.9452L56.6931 71.5703L55.8369 70.5483ZM12.1639 20.344L11.5049 21.5031L11.5049 21.5031L12.1639 20.344ZM8.0417 18.0002L7.38256 19.1593L7.38268 19.1593L8.0417 18.0002ZM13.0429 23.5398L14.2019 24.199L14.202 24.1989L13.0429 23.5398ZM9.84701 24.4187L10.5061 23.2597L10.506 23.2596L9.84701 24.4187ZM5.72483 22.0749L6.38384 20.9158L6.38381 20.9158L5.72483 22.0749ZM4.84576 18.8791L3.6868 18.2199L3.68669 18.2201L4.84576 18.8791ZM1.94321 43.095L1.71511 41.7813L1.71498 41.7813L1.94321 43.095ZM6.63071 42.2811L6.40267 40.9674L6.40261 40.9674L6.63071 42.2811ZM0.034925 45.8053L-1.27876 46.0333L-1.27875 46.0334L0.034925 45.8053ZM2.74524 47.7136L2.97269 49.0273L2.97334 49.0272L2.74524 47.7136ZM7.43274 46.8997L7.66084 48.2133L7.66096 48.2133L7.43274 46.8997ZM9.34102 44.1893L8.02734 44.4174L8.02734 44.4174L9.34102 44.1893ZM20.0015 62.3369L20.8662 61.322L20.866 61.3218L20.0015 62.3369ZM16.6974 62.6008L15.6827 61.7358L15.6825 61.7361L16.6974 62.6008ZM20.2654 65.641L21.2803 66.5057L20.2654 65.641ZM17.2058 69.2317L18.2206 70.0966L18.2207 70.0965L17.2058 69.2317ZM13.9018 69.4956L13.0369 70.5105L13.0373 70.5108L13.9018 69.4956ZM13.6379 66.1916L12.623 65.3268L12.6229 65.3269L13.6379 66.1916ZM78.0577 43.0948L77.8296 44.4085L77.8297 44.4085L78.0577 43.0948ZM73.3702 42.2809L73.5983 40.9673L73.5978 40.9672L73.3702 42.2809ZM79.966 45.8052L81.2797 46.0334L81.2797 46.033L79.966 45.8052ZM77.2557 47.7134L77.0276 49.0271L77.0281 49.0272L77.2557 47.7134ZM72.5682 46.8995L72.34 48.2132L72.3401 48.2132L72.5682 46.8995ZM70.6599 44.1892L69.3462 43.9612L70.6599 44.1892ZM71.9564 18.0001L72.6154 19.1592L72.6156 19.1591L71.9564 18.0001ZM75.1523 18.879L76.3114 18.22L76.3113 18.2199L75.1523 18.879ZM67.8342 20.3439L67.1752 19.1848L67.1751 19.1849L67.8342 20.3439ZM66.9551 23.5397L65.7961 24.1988L65.7961 24.1988L66.9551 23.5397ZM70.1511 24.4186L69.4921 23.2595L69.4919 23.2596L70.1511 24.4186ZM74.2733 22.0748L73.6143 20.9157L73.6142 20.9157L74.2733 22.0748ZM50.1711 11.335C52.0804 12.0407 54.1928 11.0608 54.8948 9.16043L52.3934 8.23638C52.2004 8.75878 51.6197 9.0274 51.0956 8.8337L50.1711 11.335ZM47.9969 6.61119C47.2929 8.51608 48.2663 10.6309 50.1711 11.335L51.0956 8.83371C50.5723 8.64027 50.3047 8.05917 50.4982 7.53563L47.9969 6.61119ZM49.6247 2.20638L47.9969 6.61122L50.4982 7.53559L52.126 3.13075L49.6247 2.20638ZM54.3485 0.0319784C52.4441 -0.671879 50.3288 0.301505 49.6247 2.2063L52.126 3.13083C52.3194 2.6075 52.901 2.33994 53.4241 2.53328L54.3485 0.0319784ZM56.5229 4.75569C57.2267 2.85102 56.2534 0.736052 54.3486 0.0319924L53.424 2.53326C53.9474 2.7267 54.215 3.30798 54.0215 3.83143L56.5229 4.75569ZM54.8947 9.16067L56.5229 4.75583L54.0216 3.8313L52.3935 8.23615L54.8947 9.16067ZM28.9008 8.83376C28.3769 9.02736 27.7959 8.75893 27.6029 8.23647L25.1014 9.16056C25.8041 11.0625 27.9175 12.04 29.8251 11.3351L28.9008 8.83376ZM29.4981 7.53573C29.6916 8.05928 29.424 8.64037 28.9007 8.83382L29.8252 11.3351C31.73 10.631 32.7034 8.51619 31.9994 6.6113L29.4981 7.53573ZM27.8702 3.13086L29.4981 7.5357L31.9994 6.61133L30.3716 2.20649L27.8702 3.13086ZM26.5723 2.53334C27.0954 2.33995 27.6767 2.60736 27.8703 3.13099L30.3715 2.20635C29.6676 0.302173 27.553 -0.672293 25.6476 0.0321333L26.5723 2.53334ZM25.9747 3.8316C25.7813 3.30796 26.0489 2.72681 26.5722 2.53337L25.6477 0.0321003C23.7429 0.736158 22.7696 2.85094 23.4733 4.75575L25.9747 3.8316ZM27.6028 8.23625L25.9747 3.83141L23.4734 4.75593L25.1015 9.16078L27.6028 8.23625ZM63.3347 52.427C73.8358 34.5274 60.8863 11.7507 39.9997 11.7507V14.4173C58.8206 14.4173 70.4951 34.9518 61.0347 51.0776L63.3347 52.427ZM50.4948 47.6948L61.6143 52.9574L62.7551 50.5471L51.6355 45.2844L50.4948 47.6948ZM44.6794 37.8543C48.8209 37.8543 51.5918 42.1691 49.8547 45.9306L52.2756 47.0486C54.8326 41.512 50.7584 35.1877 44.6794 35.1877V37.8543ZM35.32 37.8543H44.6794V35.1877H35.32V37.8543ZM31.6429 34.1773C31.6429 36.2059 33.2911 37.8543 35.32 37.8543V35.1877C34.7639 35.1877 34.3096 34.7333 34.3096 34.1773H31.6429ZM35.32 30.5002C33.2913 30.5002 31.6429 32.1485 31.6429 34.1773H34.3096C34.3096 33.6213 34.764 33.1668 35.32 33.1668V30.5002ZM49.3822 30.5002H35.32V33.1668H49.3822V30.5002ZM50.3926 29.4898C50.3926 30.0478 49.9402 30.5002 49.3822 30.5002V33.1668C51.4129 33.1668 53.0593 31.5205 53.0593 29.4898H50.3926ZM49.3822 28.4793C49.9402 28.4793 50.3926 28.9318 50.3926 29.4898H53.0593C53.0593 27.459 51.4129 25.8127 49.3822 25.8127V28.4793ZM42.4214 28.4793H49.3822V25.8127H42.4214V28.4793ZM41.0881 24.8023V27.146H43.7547V24.8023H41.0881ZM40.0777 23.7918C40.6357 23.7918 41.0881 24.2443 41.0881 24.8023H43.7547C43.7547 22.7715 42.1084 21.1252 40.0777 21.1252V23.7918ZM39.0672 24.8023C39.0672 24.2443 39.5197 23.7918 40.0777 23.7918V21.1252C38.0469 21.1252 36.4006 22.7715 36.4006 24.8023H39.0672ZM39.0672 27.146V24.8023H36.4006V27.146H39.0672ZM35.3198 28.4793H37.7339V25.8127H35.3198V28.4793ZM29.6219 34.1773C29.6219 31.0366 32.1791 28.4793 35.3198 28.4793V25.8127C30.7063 25.8127 26.9553 29.5639 26.9553 34.1773H29.6219ZM35.3198 39.8752C32.1792 39.8752 29.6219 37.3179 29.6219 34.1773H26.9553C26.9553 38.7907 30.7064 42.5419 35.3198 42.5419V39.8752ZM44.6792 39.8752H35.3198V42.5419H44.6792V39.8752ZM48.3563 43.5523C48.3563 41.5234 46.7081 39.8752 44.6792 39.8752V42.5419C45.2353 42.5419 45.6896 42.9961 45.6896 43.5523H48.3563ZM44.6792 47.2294C46.7079 47.2294 48.3563 45.5812 48.3563 43.5523H45.6896C45.6896 44.1083 45.2352 44.5627 44.6792 44.5627V47.2294ZM30.6325 47.2294H44.6792V44.5627H30.6325V47.2294ZM29.6221 48.2398C29.6221 47.6818 30.0745 47.2294 30.6325 47.2294V44.5627C28.6017 44.5627 26.9554 46.209 26.9554 48.2398H29.6221ZM30.6325 49.2502C30.0745 49.2502 29.6221 48.7978 29.6221 48.2398H26.9554C26.9554 50.2705 28.6017 51.9169 30.6325 51.9169V49.2502ZM37.7341 49.2502H30.6325V51.9169H37.7341V49.2502ZM39.0674 52.9273V50.5835H36.4007V52.9273H39.0674ZM40.0778 53.9377C39.5198 53.9377 39.0674 53.4853 39.0674 52.9273H36.4007C36.4007 54.958 38.0471 56.6044 40.0778 56.6044V53.9377ZM41.0882 52.9273C41.0882 53.4853 40.6358 53.9377 40.0778 53.9377V56.6044C42.1086 56.6044 43.7549 54.958 43.7549 52.9273H41.0882ZM41.0882 50.5835V52.9273H43.7549V50.5835H41.0882ZM43.8999 49.2494C43.4978 49.2456 43.0119 49.2411 42.4013 49.2503L42.4418 51.9167C43.0169 51.908 43.4744 51.9122 43.8749 51.916L43.8999 49.2494ZM43.8876 49.2494H43.8874V51.916H43.8876V49.2494ZM43.8879 49.2494H43.8876V51.916H43.8879V49.2494ZM43.8881 49.2494H43.8879V51.916H43.8881V49.2494ZM43.8883 49.2494H43.8881V51.916H43.8883V49.2494ZM43.8886 49.2494H43.8883V51.916H43.8886V49.2494ZM43.8888 49.2494H43.8886V51.916H43.8888V49.2494ZM45.8153 49.1362C45.2152 49.2581 44.802 49.2579 43.9013 49.2494L43.8763 51.916C44.7617 51.9243 45.4366 51.9342 46.346 51.7496L45.8153 49.1362ZM50.4112 62.5001L47.3756 50.1252L44.7857 50.7606L47.8213 63.1354L50.4112 62.5001ZM12.9635 38.7868C12.9635 57.6997 31.9775 70.7682 49.5906 64.0638L48.6419 61.5716C32.7734 67.6119 15.6302 55.8314 15.6302 38.7868H12.9635ZM39.9997 11.7507C25.0906 11.7507 12.9635 23.8779 12.9635 38.7868H15.6302C15.6302 25.3507 26.5634 14.4173 39.9997 14.4173V11.7507ZM69.0704 58.7237L51.7969 50.5487L50.6562 52.9591L67.9296 61.1341L69.0704 58.7237ZM65.2329 64.4052L69.3562 60.951L67.6438 58.9068L63.5205 62.361L65.2329 64.4052ZM70.4587 68.5925L65.4006 62.529L63.3529 64.2372L68.411 70.3007L70.4587 68.5925ZM65.8007 74.2368L70.2919 70.4679L68.5777 68.4252L64.0865 72.1941L65.8007 74.2368ZM58.8639 68.0086L63.9197 74.0695L65.9675 72.3614L60.9117 66.3005L58.8639 68.0086ZM56.6931 71.5703L60.7441 68.1766L59.0316 66.1325L54.9806 69.5262L56.6931 71.5703ZM49.9316 52.0716L54.5419 70.8659L57.1318 70.2306L52.5215 51.4363L49.9316 52.0716ZM12.8229 19.1849L8.70072 16.8412L7.38268 19.1593L11.5049 21.5031L12.8229 19.1849ZM14.202 24.1989C15.206 22.4334 14.5881 20.1885 12.8229 19.1849L11.5049 21.5031C11.99 21.7789 12.1596 22.3958 11.8839 22.8807L14.202 24.1989ZM9.18789 25.5777C10.9409 26.5746 13.1909 25.9764 14.2019 24.199L11.884 22.8806C11.6068 23.3678 10.9891 23.5343 10.5061 23.2597L9.18789 25.5777ZM5.06581 23.234L9.18799 25.5778L10.506 23.2596L6.38384 20.9158L5.06581 23.234ZM3.68669 18.2201C2.6828 19.9857 3.30062 22.2304 5.06584 23.234L6.38381 20.9158C5.89872 20.64 5.72904 20.0232 6.00484 19.5382L3.68669 18.2201ZM8.70084 16.8412C6.93467 15.8368 4.69059 16.4552 3.6868 18.2199L6.00473 19.5384C6.28094 19.0528 6.89748 18.8834 7.38256 19.1593L8.70084 16.8412ZM2.1713 44.4086L6.8588 43.5947L6.40261 40.9674L1.71511 41.7813L2.1713 44.4086ZM1.34861 45.5772C1.25315 45.0273 1.62149 44.5042 2.17143 44.4086L1.71498 41.7813C-0.285701 42.1289 -1.62611 44.0323 -1.27876 46.0333L1.34861 45.5772ZM2.51779 46.3998C1.96469 46.4955 1.4437 46.1249 1.3486 45.5772L-1.27875 46.0334C-0.933224 48.0235 0.960784 49.3757 2.97269 49.0273L2.51779 46.3998ZM7.20464 45.586L2.51714 46.3999L2.97334 49.0272L7.66084 48.2133L7.20464 45.586ZM8.02734 44.4174C8.12279 44.9672 7.75442 45.4905 7.20451 45.586L7.66096 48.2133C9.66168 47.8657 11.0021 45.9621 10.6547 43.9613L8.02734 44.4174ZM6.85874 43.5947C7.40942 43.4992 7.93185 43.8674 8.02734 44.4174L10.6547 43.9613C10.3074 41.9607 8.40481 40.6198 6.40267 40.9674L6.85874 43.5947ZM20.866 61.3218C19.3204 60.0055 17 60.1906 15.6827 61.7358L17.7121 63.4658C18.0741 63.0411 18.7121 62.9902 19.1369 63.352L20.866 61.3218ZM21.2803 66.5057C22.5973 64.9599 22.412 62.6391 20.8662 61.322L19.1367 63.3518C19.5615 63.7137 19.6124 64.3514 19.2505 64.7762L21.2803 66.5057ZM18.2207 70.0965L21.2803 66.5057L19.2505 64.7762L16.1909 68.367L18.2207 70.0965ZM13.0373 70.5108C14.5827 71.8268 16.9031 71.6426 18.2206 70.0966L16.191 68.3669C15.8292 68.7915 15.1914 68.8426 14.7662 68.4805L13.0373 70.5108ZM12.6229 65.3269C11.3061 66.8727 11.4913 69.1933 13.0369 70.5105L14.7666 68.4808C14.3419 68.1189 14.2909 67.4811 14.6528 67.0562L12.6229 65.3269ZM15.6825 61.7361L12.623 65.3268L14.6527 67.0563L17.7123 63.4655L15.6825 61.7361ZM38.9896 71.834C38.9896 71.276 39.442 70.8236 40 70.8236V68.1569C37.9692 68.1569 36.3229 69.8032 36.3229 71.834H38.9896ZM38.9896 76.5215V71.834H36.3229V76.5215H38.9896ZM40 77.5319C39.442 77.5319 38.9896 77.0795 38.9896 76.5215H36.3229C36.3229 78.5522 37.9692 80.1986 40 80.1986V77.5319ZM41.0104 76.5215C41.0104 77.0795 40.558 77.5319 40 77.5319V80.1986C42.0308 80.1986 43.6771 78.5522 43.6771 76.5215H41.0104ZM41.0104 71.834V76.5215H43.6771V71.834H41.0104ZM40 70.8236C40.558 70.8236 41.0104 71.276 41.0104 71.834H43.6771C43.6771 69.8032 42.0308 68.1569 40 68.1569V70.8236ZM78.2858 41.7812L73.5983 40.9673L73.1421 43.5946L77.8296 44.4085L78.2858 41.7812ZM81.2797 46.033C81.6268 44.0324 80.2869 42.1286 78.2858 41.7812L77.8297 44.4085C78.3792 44.5039 78.7478 45.0269 78.6523 45.5773L81.2797 46.033ZM77.0281 49.0272C79.0419 49.3761 80.9342 48.0217 81.2797 46.0334L78.6524 45.5769C78.5572 46.1249 78.0363 46.4955 77.4833 46.3997L77.0281 49.0272ZM72.3401 48.2132L77.0276 49.0271L77.4838 46.3998L72.7963 45.5859L72.3401 48.2132ZM69.3462 43.9612C68.9989 45.962 70.3393 47.8656 72.34 48.2132L72.7964 45.5859C72.2465 45.4903 71.8782 44.9671 71.9736 44.4173L69.3462 43.9612ZM73.5978 40.9672C71.5962 40.6205 69.6936 41.9601 69.3462 43.9612L71.9736 44.4173C72.069 43.8677 72.5911 43.4992 73.1427 43.5947L73.5978 40.9672ZM72.6156 19.1591C73.1003 18.8834 73.7173 19.0528 73.9933 19.5382L76.3113 18.2199C75.3074 16.4546 73.0625 15.8371 71.2972 16.8411L72.6156 19.1591ZM68.4932 21.503L72.6154 19.1592L71.2974 16.8411L67.1752 19.1848L68.4932 21.503ZM68.1142 22.8806C67.8385 22.3958 68.008 21.7789 68.4933 21.5029L67.1751 19.1849C65.4101 20.1885 64.7921 22.4332 65.7961 24.1988L68.1142 22.8806ZM69.4919 23.2596C69.0059 23.536 68.3893 23.3643 68.1141 22.8805L65.7961 24.1988C66.7944 25.9541 69.0353 26.5871 70.8103 25.5776L69.4919 23.2596ZM73.6142 20.9157L69.4921 23.2595L70.8101 25.5777L74.9323 23.2339L73.6142 20.9157ZM73.9933 19.5381C74.269 20.0231 74.0994 20.6399 73.6143 20.9157L74.9322 23.2339C76.6975 22.2303 77.3153 19.9856 76.3114 18.22L73.9933 19.5381Z" fill="url(#paint2_radial_5784_36079)" fill-opacity="0.3" mask="url(#path-1-inside-1_5784_36079)"/>
</g>
</g>
<defs>
<filter id="filter0_bd_5784_36079" x="-666.667" y="-665.53" width="1413.33" height="1411.06" filterUnits="userSpaceOnUse" color-interpolation-filters="sRGB">
<feFlood flood-opacity="0" result="BackgroundImageFix"/>
<feGaussianBlur in="BackgroundImageFix" stdDeviation="333.333"/>
<feComposite in2="SourceAlpha" operator="in" result="effect1_backgroundBlur_5784_36079"/>
<feColorMatrix in="SourceAlpha" type="matrix" values="0 0 0 0 0 0 0 0 0 0 0 0 0 0 0 0 0 0 127 0" result="hardAlpha"/>
<feOffset dy="2.66667"/>
<feGaussianBlur stdDeviation="1.33333"/>
<feComposite in2="hardAlpha" operator="out"/>
<feColorMatrix type="matrix" values="0 0 0 0 0 0 0 0 0 0 0 0 0 0 0 0 0 0 0.25 0"/>
<feBlend mode="normal" in2="effect1_backgroundBlur_5784_36079" result="effect2_dropShadow_5784_36079"/>
<feBlend mode="normal" in="SourceGraphic" in2="effect2_dropShadow_5784_36079" result="shape"/>
</filter>
<linearGradient id="paint0_linear_5784_36079" x1="3.30101" y1="3.13882" x2="39.1504" y2="97.8825" gradientUnits="userSpaceOnUse">
<stop stop-color="white" stop-opacity="0.8"/>
<stop offset="1" stop-color="white" stop-opacity="0.2"/>
</linearGradient>
<radialGradient id="paint1_radial_5784_36079" cx="0" cy="0" r="1" gradientUnits="userSpaceOnUse" gradientTransform="translate(40.0005 1.84334) rotate(90) scale(67.4825 69.4553)">
<stop stop-color="white"/>
<stop offset="1" stop-color="white" stop-opacity="0"/>
</radialGradient>
<radialGradient id="paint2_radial_5784_36079" cx="0" cy="0" r="1" gradientUnits="userSpaceOnUse" gradientTransform="translate(40.0005 78.8652) rotate(-90) scale(38.8643 40.0005)">
<stop stop-color="white"/>
<stop offset="1" stop-color="white" stop-opacity="0"/>
</radialGradient>
<clipPath id="clip0_5784_36079">
<rect width="80" height="80" fill="white"/>
</clipPath>
</defs>
</svg>