<svg width="86" height="86" viewBox="0 0 86 86" fill="none" xmlns="http://www.w3.org/2000/svg">
<mask id="path-1-inside-1_6145_299279" fill="white">
<path fill-rule="evenodd" clip-rule="evenodd" d="M36.8476 2.47439C35.6267 -0.824799 30.9603 -0.824796 29.7394 2.47439L27.2134 9.3003C24.1424 17.5986 17.5995 24.1412 9.30098 27.2116L2.47461 29.7373C-0.824866 30.9581 -0.824872 35.6249 2.4746 36.8457L9.30097 39.3714C17.5995 42.4418 24.1424 48.9844 27.2134 57.2827L29.7394 64.1086C30.9603 67.4078 35.6267 67.4078 36.8476 64.1086L39.3736 57.2827C42.4446 48.9844 48.9875 42.4418 57.286 39.3714L64.1124 36.8457C67.4118 35.6249 67.4119 30.9581 64.1124 29.7373L57.286 27.2116C48.9875 24.1412 42.4446 17.5986 39.3736 9.3003L36.8476 2.47439ZM70.4363 53.2515C69.8258 51.6019 67.4927 51.6019 66.8822 53.2515L65.6192 56.6644C64.0837 60.8136 60.8122 64.0849 56.663 65.6201L53.2498 66.883C51.6001 67.4934 51.6001 69.8267 53.2498 70.4371L56.663 71.7C60.8122 73.2352 64.0837 76.5065 65.6192 80.6556L66.8822 84.0686C67.4927 85.7182 69.8258 85.7182 70.4363 84.0686L71.6993 80.6556C73.2348 76.5065 76.5062 73.2352 80.6555 71.7L84.0687 70.4371C85.7184 69.8267 85.7184 67.4934 84.0687 66.883L80.6555 65.6201C76.5063 64.0849 73.2348 60.8136 71.6993 56.6644L70.4363 53.2515Z"/>
</mask>
<path fill-rule="evenodd" clip-rule="evenodd" d="M36.8476 2.47439C35.6267 -0.824799 30.9603 -0.824796 29.7394 2.47439L27.2134 9.3003C24.1424 17.5986 17.5995 24.1412 9.30098 27.2116L2.47461 29.7373C-0.824866 30.9581 -0.824872 35.6249 2.4746 36.8457L9.30097 39.3714C17.5995 42.4418 24.1424 48.9844 27.2134 57.2827L29.7394 64.1086C30.9603 67.4078 35.6267 67.4078 36.8476 64.1086L39.3736 57.2827C42.4446 48.9844 48.9875 42.4418 57.286 39.3714L64.1124 36.8457C67.4118 35.6249 67.4119 30.9581 64.1124 29.7373L57.286 27.2116C48.9875 24.1412 42.4446 17.5986 39.3736 9.3003L36.8476 2.47439ZM70.4363 53.2515C69.8258 51.6019 67.4927 51.6019 66.8822 53.2515L65.6192 56.6644C64.0837 60.8136 60.8122 64.0849 56.663 65.6201L53.2498 66.883C51.6001 67.4934 51.6001 69.8267 53.2498 70.4371L56.663 71.7C60.8122 73.2352 64.0837 76.5065 65.6192 80.6556L66.8822 84.0686C67.4927 85.7182 69.8258 85.7182 70.4363 84.0686L71.6993 80.6556C73.2348 76.5065 76.5062 73.2352 80.6555 71.7L84.0687 70.4371C85.7184 69.8267 85.7184 67.4934 84.0687 66.883L80.6555 65.6201C76.5063 64.0849 73.2348 60.8136 71.6993 56.6644L70.4363 53.2515Z" fill="white"/>
<path fill-rule="evenodd" clip-rule="evenodd" d="M36.8476 2.47439C35.6267 -0.824799 30.9603 -0.824796 29.7394 2.47439L27.2134 9.3003C24.1424 17.5986 17.5995 24.1412 9.30098 27.2116L2.47461 29.7373C-0.824866 30.9581 -0.824872 35.6249 2.4746 36.8457L9.30097 39.3714C17.5995 42.4418 24.1424 48.9844 27.2134 57.2827L29.7394 64.1086C30.9603 67.4078 35.6267 67.4078 36.8476 64.1086L39.3736 57.2827C42.4446 48.9844 48.9875 42.4418 57.286 39.3714L64.1124 36.8457C67.4118 35.6249 67.4119 30.9581 64.1124 29.7373L57.286 27.2116C48.9875 24.1412 42.4446 17.5986 39.3736 9.3003L36.8476 2.47439ZM70.4363 53.2515C69.8258 51.6019 67.4927 51.6019 66.8822 53.2515L65.6192 56.6644C64.0837 60.8136 60.8122 64.0849 56.663 65.6201L53.2498 66.883C51.6001 67.4934 51.6001 69.8267 53.2498 70.4371L56.663 71.7C60.8122 73.2352 64.0837 76.5065 65.6192 80.6556L66.8822 84.0686C67.4927 85.7182 69.8258 85.7182 70.4363 84.0686L71.6993 80.6556C73.2348 76.5065 76.5062 73.2352 80.6555 71.7L84.0687 70.4371C85.7184 69.8267 85.7184 67.4934 84.0687 66.883L80.6555 65.6201C76.5063 64.0849 73.2348 60.8136 71.6993 56.6644L70.4363 53.2515Z" fill="url(#paint0_linear_6145_299279)"/>
<path fill-rule="evenodd" clip-rule="evenodd" d="M36.8476 2.47439C35.6267 -0.824799 30.9603 -0.824796 29.7394 2.47439L27.2134 9.3003C24.1424 17.5986 17.5995 24.1412 9.30098 27.2116L2.47461 29.7373C-0.824866 30.9581 -0.824872 35.6249 2.4746 36.8457L9.30097 39.3714C17.5995 42.4418 24.1424 48.9844 27.2134 57.2827L29.7394 64.1086C30.9603 67.4078 35.6267 67.4078 36.8476 64.1086L39.3736 57.2827C42.4446 48.9844 48.9875 42.4418 57.286 39.3714L64.1124 36.8457C67.4118 35.6249 67.4119 30.9581 64.1124 29.7373L57.286 27.2116C48.9875 24.1412 42.4446 17.5986 39.3736 9.3003L36.8476 2.47439ZM70.4363 53.2515C69.8258 51.6019 67.4927 51.6019 66.8822 53.2515L65.6192 56.6644C64.0837 60.8136 60.8122 64.0849 56.663 65.6201L53.2498 66.883C51.6001 67.4934 51.6001 69.8267 53.2498 70.4371L56.663 71.7C60.8122 73.2352 64.0837 76.5065 65.6192 80.6556L66.8822 84.0686C67.4927 85.7182 69.8258 85.7182 70.4363 84.0686L71.6993 80.6556C73.2348 76.5065 76.5062 73.2352 80.6555 71.7L84.0687 70.4371C85.7184 69.8267 85.7184 67.4934 84.0687 66.883L80.6555 65.6201C76.5063 64.0849 73.2348 60.8136 71.6993 56.6644L70.4363 53.2515Z" fill="#344254" fill-opacity="0.15"/>
<path d="M29.7394 2.47439L26.9258 1.43315L26.9258 1.43315L29.7394 2.47439ZM36.8476 2.47439L39.6612 1.43315L39.6612 1.43315L36.8476 2.47439ZM27.2134 9.3003L24.3997 8.25906L24.3997 8.25906L27.2134 9.3003ZM9.30098 27.2116L8.25991 24.3979L8.25991 24.3979L9.30098 27.2116ZM2.47461 29.7373L3.51568 32.5511L3.51568 32.5511L2.47461 29.7373ZM2.4746 36.8457L3.51568 34.032L3.51568 34.032L2.4746 36.8457ZM9.30097 39.3714L10.342 36.5577L9.30097 39.3714ZM27.2134 57.2827L24.3997 58.324L24.3997 58.324L27.2134 57.2827ZM29.7394 64.1086L32.5531 63.0674L32.5531 63.0674L29.7394 64.1086ZM36.8476 64.1086L39.6612 65.1499L39.6612 65.1499L36.8476 64.1086ZM39.3736 57.2827L36.56 56.2415L36.56 56.2415L39.3736 57.2827ZM57.286 39.3714L56.2449 36.5577L56.2449 36.5577L57.286 39.3714ZM64.1124 36.8457L65.1534 39.6594L65.1534 39.6594L64.1124 36.8457ZM64.1124 29.7373L65.1535 26.9236L65.1535 26.9236L64.1124 29.7373ZM57.286 27.2116L56.2449 30.0253L56.2449 30.0253L57.286 27.2116ZM39.3736 9.3003L42.1873 8.25906L42.1873 8.25905L39.3736 9.3003ZM66.8822 53.2515L69.6958 54.2927L69.6958 54.2927L66.8822 53.2515ZM70.4363 53.2515L67.6226 54.2927L67.6226 54.2927L70.4363 53.2515ZM65.6192 56.6644L68.4328 57.7057L68.4328 57.7057L65.6192 56.6644ZM56.663 65.6201L55.6219 62.8064L55.6219 62.8064L56.663 65.6201ZM53.2498 66.883L54.2909 69.6967L54.2909 69.6967L53.2498 66.883ZM53.2498 70.4371L52.2087 73.2508L52.2087 73.2508L53.2498 70.4371ZM56.663 71.7L57.704 68.8863L57.704 68.8863L56.663 71.7ZM65.6192 80.6556L68.4328 79.6144L68.4328 79.6144L65.6192 80.6556ZM66.8822 84.0686L69.6958 83.0274L69.6958 83.0274L66.8822 84.0686ZM70.4363 84.0686L67.6226 83.0274L67.6226 83.0274L70.4363 84.0686ZM71.6993 80.6556L68.8857 79.6144L68.8857 79.6144L71.6993 80.6556ZM80.6555 71.7L79.6144 68.8863L79.6144 68.8863L80.6555 71.7ZM84.0687 70.4371L85.1097 73.2508L85.1098 73.2508L84.0687 70.4371ZM84.0687 66.883L83.0276 69.6967L83.0276 69.6967L84.0687 66.883ZM80.6555 65.6201L81.6966 62.8064L81.6966 62.8064L80.6555 65.6201ZM71.6993 56.6644L68.8857 57.7057L68.8857 57.7057L71.6993 56.6644ZM32.5531 3.51564C32.8074 2.8283 33.7796 2.82831 34.0339 3.51563L39.6612 1.43315C37.4737 -4.47791 29.1132 -4.47789 26.9258 1.43315L32.5531 3.51564ZM30.027 10.3415L32.5531 3.51564L26.9258 1.43315L24.3997 8.25906L30.027 10.3415ZM10.3421 30.0253C19.4617 26.651 26.6522 19.461 30.027 10.3415L24.3997 8.25906C21.6327 15.7362 15.7372 21.6313 8.25991 24.3979L10.3421 30.0253ZM3.51568 32.5511L10.3421 30.0253L8.25991 24.3979L1.43354 26.9236L3.51568 32.5511ZM3.51568 34.032C2.8283 33.7776 2.82828 32.8054 3.51568 32.5511L1.43354 26.9236C-4.47801 29.1109 -4.47804 37.4721 1.43353 39.6594L3.51568 34.032ZM10.342 36.5577L3.51568 34.032L1.43353 39.6594L8.2599 42.1851L10.342 36.5577ZM30.027 56.2415C26.6522 47.122 19.4617 39.932 10.342 36.5577L8.2599 42.1851C15.7372 44.9517 21.6327 50.8469 24.3997 58.324L30.027 56.2415ZM32.5531 63.0674L30.027 56.2415L24.3997 58.324L26.9258 65.1499L32.5531 63.0674ZM34.0339 63.0674C33.7796 63.7547 32.8074 63.7547 32.5531 63.0674L26.9258 65.1499C29.1132 71.0609 37.4737 71.0609 39.6612 65.1499L34.0339 63.0674ZM36.56 56.2415L34.0339 63.0674L39.6612 65.1499L42.1873 58.324L36.56 56.2415ZM56.2449 36.5577C47.1252 39.932 39.9348 47.122 36.56 56.2415L42.1873 58.324C44.9543 50.8468 50.8498 44.9517 58.3271 42.1851L56.2449 36.5577ZM63.0713 34.032L56.2449 36.5577L58.3271 42.1851L65.1534 39.6594L63.0713 34.032ZM63.0713 32.5511C63.7587 32.8054 63.7587 33.7776 63.0713 34.032L65.1534 39.6594C71.065 37.4721 71.065 29.1109 65.1535 26.9236L63.0713 32.5511ZM56.2449 30.0253L63.0713 32.5511L65.1535 26.9236L58.3271 24.3979L56.2449 30.0253ZM36.56 10.3415C39.9348 19.461 47.1253 26.651 56.2449 30.0253L58.3271 24.3979C50.8498 21.6313 44.9543 15.7362 42.1873 8.25906L36.56 10.3415ZM34.0339 3.51563L36.56 10.3415L42.1873 8.25905L39.6612 1.43315L34.0339 3.51563ZM69.6958 54.2927C69.3397 55.255 67.9787 55.255 67.6226 54.2927L73.2499 52.2102C71.6729 47.9488 65.6456 47.9488 64.0685 52.2102L69.6958 54.2927ZM68.4328 57.7057L69.6958 54.2927L64.0685 52.2102L62.8055 55.6232L68.4328 57.7057ZM57.7041 68.4338C62.6745 66.5947 66.5935 62.676 68.4328 57.7057L62.8055 55.6232C61.5739 58.9512 58.9499 61.575 55.6219 62.8064L57.7041 68.4338ZM54.2909 69.6967L57.7041 68.4338L55.6219 62.8064L52.2087 64.0692L54.2909 69.6967ZM54.2909 67.6234C55.2532 67.9795 55.2532 69.3406 54.2909 69.6967L52.2087 64.0692C47.9469 65.6461 47.9469 71.674 52.2087 73.2508L54.2909 67.6234ZM57.704 68.8863L54.2909 67.6234L52.2087 73.2508L55.6219 74.5137L57.704 68.8863ZM68.4328 79.6144C66.5935 74.6441 62.6745 70.7253 57.704 68.8863L55.6219 74.5137C58.9499 75.7451 61.5739 78.3689 62.8055 81.6969L68.4328 79.6144ZM69.6958 83.0274L68.4328 79.6144L62.8055 81.6969L64.0685 85.1098L69.6958 83.0274ZM67.6226 83.0274C67.9787 82.0651 69.3397 82.0651 69.6958 83.0274L64.0685 85.1098C65.6456 89.3713 71.6729 89.3713 73.2499 85.1098L67.6226 83.0274ZM68.8857 79.6144L67.6226 83.0274L73.2499 85.1098L74.513 81.6969L68.8857 79.6144ZM79.6144 68.8863C74.644 70.7253 70.725 74.6441 68.8857 79.6144L74.513 81.6969C75.7445 78.3689 78.3685 75.7451 81.6966 74.5137L79.6144 68.8863ZM83.0276 67.6234L79.6144 68.8863L81.6966 74.5137L85.1097 73.2508L83.0276 67.6234ZM83.0276 69.6967C82.0652 69.3406 82.0653 67.9795 83.0276 67.6234L85.1098 73.2508C89.3715 71.674 89.3716 65.6461 85.1097 64.0692L83.0276 69.6967ZM79.6144 68.4338L83.0276 69.6967L85.1098 64.0692L81.6966 62.8064L79.6144 68.4338ZM68.8857 57.7057C70.725 62.676 74.644 66.5947 79.6144 68.4338L81.6966 62.8064C78.3685 61.575 75.7445 58.9512 74.513 55.6232L68.8857 57.7057ZM67.6226 54.2927L68.8857 57.7057L74.513 55.6232L73.2499 52.2102L67.6226 54.2927Z" fill="url(#paint1_radial_6145_299279)" fill-opacity="0.6" mask="url(#path-1-inside-1_6145_299279)"/>
<path d="M29.7394 2.47439L26.9258 1.43315L26.9258 1.43315L29.7394 2.47439ZM36.8476 2.47439L39.6612 1.43315L39.6612 1.43315L36.8476 2.47439ZM27.2134 9.3003L24.3997 8.25906L24.3997 8.25906L27.2134 9.3003ZM9.30098 27.2116L8.25991 24.3979L8.25991 24.3979L9.30098 27.2116ZM2.47461 29.7373L3.51568 32.5511L3.51568 32.5511L2.47461 29.7373ZM2.4746 36.8457L3.51568 34.032L3.51568 34.032L2.4746 36.8457ZM9.30097 39.3714L10.342 36.5577L9.30097 39.3714ZM27.2134 57.2827L24.3997 58.324L24.3997 58.324L27.2134 57.2827ZM29.7394 64.1086L32.5531 63.0674L32.5531 63.0674L29.7394 64.1086ZM36.8476 64.1086L39.6612 65.1499L39.6612 65.1499L36.8476 64.1086ZM39.3736 57.2827L36.56 56.2415L36.56 56.2415L39.3736 57.2827ZM57.286 39.3714L56.2449 36.5577L56.2449 36.5577L57.286 39.3714ZM64.1124 36.8457L65.1534 39.6594L65.1534 39.6594L64.1124 36.8457ZM64.1124 29.7373L65.1535 26.9236L65.1535 26.9236L64.1124 29.7373ZM57.286 27.2116L56.2449 30.0253L56.2449 30.0253L57.286 27.2116ZM39.3736 9.3003L42.1873 8.25906L42.1873 8.25905L39.3736 9.3003ZM66.8822 53.2515L69.6958 54.2927L69.6958 54.2927L66.8822 53.2515ZM70.4363 53.2515L67.6226 54.2927L67.6226 54.2927L70.4363 53.2515ZM65.6192 56.6644L68.4328 57.7057L68.4328 57.7057L65.6192 56.6644ZM56.663 65.6201L55.6219 62.8064L55.6219 62.8064L56.663 65.6201ZM53.2498 66.883L54.2909 69.6967L54.2909 69.6967L53.2498 66.883ZM53.2498 70.4371L52.2087 73.2508L52.2087 73.2508L53.2498 70.4371ZM56.663 71.7L57.704 68.8863L57.704 68.8863L56.663 71.7ZM65.6192 80.6556L68.4328 79.6144L68.4328 79.6144L65.6192 80.6556ZM66.8822 84.0686L69.6958 83.0274L69.6958 83.0274L66.8822 84.0686ZM70.4363 84.0686L67.6226 83.0274L67.6226 83.0274L70.4363 84.0686ZM71.6993 80.6556L68.8857 79.6144L68.8857 79.6144L71.6993 80.6556ZM80.6555 71.7L79.6144 68.8863L79.6144 68.8863L80.6555 71.7ZM84.0687 70.4371L85.1097 73.2508L85.1098 73.2508L84.0687 70.4371ZM84.0687 66.883L83.0276 69.6967L83.0276 69.6967L84.0687 66.883ZM80.6555 65.6201L81.6966 62.8064L81.6966 62.8064L80.6555 65.6201ZM71.6993 56.6644L68.8857 57.7057L68.8857 57.7057L71.6993 56.6644ZM32.5531 3.51564C32.8074 2.8283 33.7796 2.82831 34.0339 3.51563L39.6612 1.43315C37.4737 -4.47791 29.1132 -4.47789 26.9258 1.43315L32.5531 3.51564ZM30.027 10.3415L32.5531 3.51564L26.9258 1.43315L24.3997 8.25906L30.027 10.3415ZM10.3421 30.0253C19.4617 26.651 26.6522 19.461 30.027 10.3415L24.3997 8.25906C21.6327 15.7362 15.7372 21.6313 8.25991 24.3979L10.3421 30.0253ZM3.51568 32.5511L10.3421 30.0253L8.25991 24.3979L1.43354 26.9236L3.51568 32.5511ZM3.51568 34.032C2.8283 33.7776 2.82828 32.8054 3.51568 32.5511L1.43354 26.9236C-4.47801 29.1109 -4.47804 37.4721 1.43353 39.6594L3.51568 34.032ZM10.342 36.5577L3.51568 34.032L1.43353 39.6594L8.2599 42.1851L10.342 36.5577ZM30.027 56.2415C26.6522 47.122 19.4617 39.932 10.342 36.5577L8.2599 42.1851C15.7372 44.9517 21.6327 50.8469 24.3997 58.324L30.027 56.2415ZM32.5531 63.0674L30.027 56.2415L24.3997 58.324L26.9258 65.1499L32.5531 63.0674ZM34.0339 63.0674C33.7796 63.7547 32.8074 63.7547 32.5531 63.0674L26.9258 65.1499C29.1132 71.0609 37.4737 71.0609 39.6612 65.1499L34.0339 63.0674ZM36.56 56.2415L34.0339 63.0674L39.6612 65.1499L42.1873 58.324L36.56 56.2415ZM56.2449 36.5577C47.1252 39.932 39.9348 47.122 36.56 56.2415L42.1873 58.324C44.9543 50.8468 50.8498 44.9517 58.3271 42.1851L56.2449 36.5577ZM63.0713 34.032L56.2449 36.5577L58.3271 42.1851L65.1534 39.6594L63.0713 34.032ZM63.0713 32.5511C63.7587 32.8054 63.7587 33.7776 63.0713 34.032L65.1534 39.6594C71.065 37.4721 71.065 29.1109 65.1535 26.9236L63.0713 32.5511ZM56.2449 30.0253L63.0713 32.5511L65.1535 26.9236L58.3271 24.3979L56.2449 30.0253ZM36.56 10.3415C39.9348 19.461 47.1253 26.651 56.2449 30.0253L58.3271 24.3979C50.8498 21.6313 44.9543 15.7362 42.1873 8.25906L36.56 10.3415ZM34.0339 3.51563L36.56 10.3415L42.1873 8.25905L39.6612 1.43315L34.0339 3.51563ZM69.6958 54.2927C69.3397 55.255 67.9787 55.255 67.6226 54.2927L73.2499 52.2102C71.6729 47.9488 65.6456 47.9488 64.0685 52.2102L69.6958 54.2927ZM68.4328 57.7057L69.6958 54.2927L64.0685 52.2102L62.8055 55.6232L68.4328 57.7057ZM57.7041 68.4338C62.6745 66.5947 66.5935 62.676 68.4328 57.7057L62.8055 55.6232C61.5739 58.9512 58.9499 61.575 55.6219 62.8064L57.7041 68.4338ZM54.2909 69.6967L57.7041 68.4338L55.6219 62.8064L52.2087 64.0692L54.2909 69.6967ZM54.2909 67.6234C55.2532 67.9795 55.2532 69.3406 54.2909 69.6967L52.2087 64.0692C47.9469 65.6461 47.9469 71.674 52.2087 73.2508L54.2909 67.6234ZM57.704 68.8863L54.2909 67.6234L52.2087 73.2508L55.6219 74.5137L57.704 68.8863ZM68.4328 79.6144C66.5935 74.6441 62.6745 70.7253 57.704 68.8863L55.6219 74.5137C58.9499 75.7451 61.5739 78.3689 62.8055 81.6969L68.4328 79.6144ZM69.6958 83.0274L68.4328 79.6144L62.8055 81.6969L64.0685 85.1098L69.6958 83.0274ZM67.6226 83.0274C67.9787 82.0651 69.3397 82.0651 69.6958 83.0274L64.0685 85.1098C65.6456 89.3713 71.6729 89.3713 73.2499 85.1098L67.6226 83.0274ZM68.8857 79.6144L67.6226 83.0274L73.2499 85.1098L74.513 81.6969L68.8857 79.6144ZM79.6144 68.8863C74.644 70.7253 70.725 74.6441 68.8857 79.6144L74.513 81.6969C75.7445 78.3689 78.3685 75.7451 81.6966 74.5137L79.6144 68.8863ZM83.0276 67.6234L79.6144 68.8863L81.6966 74.5137L85.1097 73.2508L83.0276 67.6234ZM83.0276 69.6967C82.0652 69.3406 82.0653 67.9795 83.0276 67.6234L85.1098 73.2508C89.3715 71.674 89.3716 65.6461 85.1097 64.0692L83.0276 69.6967ZM79.6144 68.4338L83.0276 69.6967L85.1098 64.0692L81.6966 62.8064L79.6144 68.4338ZM68.8857 57.7057C70.725 62.676 74.644 66.5947 79.6144 68.4338L81.6966 62.8064C78.3685 61.575 75.7445 58.9512 74.513 55.6232L68.8857 57.7057ZM67.6226 54.2927L68.8857 57.7057L74.513 55.6232L73.2499 52.2102L67.6226 54.2927Z" fill="url(#paint2_radial_6145_299279)" fill-opacity="0.3" mask="url(#path-1-inside-1_6145_299279)"/>
<defs>
<linearGradient id="paint0_linear_6145_299279" x1="3.51991" y1="2.19727" x2="43.7155" y2="105.41" gradientUnits="userSpaceOnUse">
<stop stop-color="white" stop-opacity="0.6"/>
<stop offset="1" stop-color="white" stop-opacity="0.1"/>
</linearGradient>
<radialGradient id="paint1_radial_6145_299279" cx="0" cy="0" r="1" gradientUnits="userSpaceOnUse" gradientTransform="translate(42.653 0.775508) rotate(90) scale(74.0609 74.0611)">
<stop stop-color="white"/>
<stop offset="1" stop-color="white" stop-opacity="0"/>
</radialGradient>
<radialGradient id="paint2_radial_6145_299279" cx="0" cy="0" r="1" gradientUnits="userSpaceOnUse" gradientTransform="translate(42.653 85.3058) rotate(-90) scale(42.6529 42.653)">
<stop stop-color="white"/>
<stop offset="1" stop-color="white" stop-opacity="0"/>
</radialGradient>
</defs>
</svg>
