<svg width="48" height="48" viewBox="0 0 48 48" fill="none" xmlns="http://www.w3.org/2000/svg">
<g id="Union" filter="url(#filter0_bd_5929_15379)">
<mask id="path-1-inside-1_5929_15379" fill="white">
<path fill-rule="evenodd" clip-rule="evenodd" d="M24 20.8847C23.627 20.8847 23.2693 20.7365 23.0056 20.4728L12.9905 10.4571C10.5971 8.06448 10.5931 4.18829 12.9907 1.79157C15.3795 -0.597176 19.2667 -0.59727 21.6557 1.79176L24 4.13532L26.3444 1.79157C28.7332 -0.597176 32.6203 -0.597176 35.0093 1.79186C37.3983 4.18089 37.3983 8.06804 35.0093 10.4571L24.9944 20.4728C24.7307 20.7365 24.373 20.8847 24 20.8847ZM42.7039 4.17066L45.7164 2.66438C46.4111 2.31704 46.6926 1.47235 46.3453 0.777661C45.9981 0.0829734 45.1534 -0.198558 44.4587 0.148786L41.4461 1.65507C40.7514 2.00241 40.4699 2.8471 40.8172 3.54179C41.1659 4.2391 42.0119 4.5166 42.7039 4.17066ZM2.28346 2.66436L5.29593 4.17064C5.98959 4.51743 6.83474 4.23758 7.18265 3.54177C7.52999 2.84708 7.24846 2.00239 6.55377 1.65505L3.54131 0.148769C2.84662 -0.198575 2.00202 0.0830502 1.65459 0.777644C1.30734 1.47233 1.58887 2.31702 2.28346 2.66436ZM7.18271 11.3217C6.83536 10.627 5.99058 10.3453 5.29599 10.6928L2.28352 12.199C1.58883 12.5463 1.3073 13.391 1.65465 14.0857C2.00311 14.7827 2.84902 15.0608 3.54136 14.7146L6.55383 13.2084C7.24843 12.861 7.52996 12.0163 7.18271 11.3217ZM44.4587 14.7144L41.4461 13.2082C40.7514 12.861 40.4699 12.0162 40.8172 11.3215C41.1647 10.6268 42.0096 10.3455 42.7039 10.6926L45.7164 12.1988C46.4111 12.5461 46.6926 13.3908 46.3453 14.0855C45.9975 14.7811 45.1524 15.0613 44.4587 14.7144ZM14.037 23.9253C14.494 26.7445 12.5791 29.4004 9.75996 29.8574C6.94077 30.3144 4.28489 28.3995 3.82787 25.5803C3.37085 22.761 5.28576 20.1051 8.10495 19.6481C10.9241 19.1911 13.58 21.106 14.037 23.9253ZM39.8823 29.8633C42.7015 29.4063 44.6164 26.7504 44.1593 23.9311C43.7023 21.1119 41.0464 19.1969 38.2273 19.654C35.4081 20.111 33.4932 22.7669 33.9502 25.5861C34.4072 28.4053 37.0631 30.3203 39.8823 29.8633ZM16.867 32.8524L16.7956 32.881C14.0343 33.9853 12.25 36.6208 12.25 39.5952V46.5933C12.25 47.0862 12.3358 47.5594 12.4919 47.9995H1.40625C0.629625 47.9995 0 47.3699 0 46.5933V35.0765C0 33.2588 1.09022 31.6484 2.77744 30.9736L3.5685 30.6571C4.9875 31.9486 6.87216 32.7369 8.93756 32.7369C11.0028 32.7369 12.886 31.9478 14.3045 30.6563L15.0977 30.9736C15.5984 31.1739 16.0461 31.4572 16.4288 31.8032C16.5503 32.1651 16.6972 32.5155 16.867 32.8524ZM45.2226 30.9736L44.4316 30.6571C43.0126 31.9486 41.1278 32.7369 39.0625 32.7369C36.9973 32.7369 35.1141 31.9478 33.6957 30.6563L32.9025 30.9736C32.4017 31.1738 31.954 31.4571 31.5713 31.8032C31.4497 32.1651 31.3028 32.5154 31.1331 32.8523L31.2049 32.881C33.9659 33.9851 35.7502 36.6206 35.7502 39.5951V46.5932C35.7502 47.0861 35.6644 47.5593 35.5083 47.9994H46.5938C47.3705 47.9994 48.0001 47.3698 48.0001 46.5932V35.0764C48.0001 33.2587 46.9099 31.6483 45.2226 30.9736ZM29.3689 35.1768L30.1599 35.4933C31.8472 36.168 32.9373 37.7784 32.9373 39.596V46.5941C32.9373 47.3707 32.3077 48.0004 31.531 48.0004H16.4685C15.6919 48.0004 15.0623 47.3707 15.0623 46.5941V39.5961C15.0623 37.7784 16.1525 36.168 17.8397 35.4933L18.6308 35.1768C20.0498 36.4683 21.9344 37.2566 23.9998 37.2566C26.0652 37.2566 27.9499 36.4683 29.3689 35.1768ZM24.82 34.3779C27.6392 33.9209 29.5541 31.265 29.0971 28.4458C28.6401 25.6266 25.9842 23.7116 23.165 24.1686C20.3458 24.6256 18.4309 27.2815 18.8879 30.1008C19.3449 32.92 22.0008 34.835 24.82 34.3779Z"/>
</mask>
<path fill-rule="evenodd" clip-rule="evenodd" d="M24 20.8847C23.627 20.8847 23.2693 20.7365 23.0056 20.4728L12.9905 10.4571C10.5971 8.06448 10.5931 4.18829 12.9907 1.79157C15.3795 -0.597176 19.2667 -0.59727 21.6557 1.79176L24 4.13532L26.3444 1.79157C28.7332 -0.597176 32.6203 -0.597176 35.0093 1.79186C37.3983 4.18089 37.3983 8.06804 35.0093 10.4571L24.9944 20.4728C24.7307 20.7365 24.373 20.8847 24 20.8847ZM42.7039 4.17066L45.7164 2.66438C46.4111 2.31704 46.6926 1.47235 46.3453 0.777661C45.9981 0.0829734 45.1534 -0.198558 44.4587 0.148786L41.4461 1.65507C40.7514 2.00241 40.4699 2.8471 40.8172 3.54179C41.1659 4.2391 42.0119 4.5166 42.7039 4.17066ZM2.28346 2.66436L5.29593 4.17064C5.98959 4.51743 6.83474 4.23758 7.18265 3.54177C7.52999 2.84708 7.24846 2.00239 6.55377 1.65505L3.54131 0.148769C2.84662 -0.198575 2.00202 0.0830502 1.65459 0.777644C1.30734 1.47233 1.58887 2.31702 2.28346 2.66436ZM7.18271 11.3217C6.83536 10.627 5.99058 10.3453 5.29599 10.6928L2.28352 12.199C1.58883 12.5463 1.3073 13.391 1.65465 14.0857C2.00311 14.7827 2.84902 15.0608 3.54136 14.7146L6.55383 13.2084C7.24843 12.861 7.52996 12.0163 7.18271 11.3217ZM44.4587 14.7144L41.4461 13.2082C40.7514 12.861 40.4699 12.0162 40.8172 11.3215C41.1647 10.6268 42.0096 10.3455 42.7039 10.6926L45.7164 12.1988C46.4111 12.5461 46.6926 13.3908 46.3453 14.0855C45.9975 14.7811 45.1524 15.0613 44.4587 14.7144ZM14.037 23.9253C14.494 26.7445 12.5791 29.4004 9.75996 29.8574C6.94077 30.3144 4.28489 28.3995 3.82787 25.5803C3.37085 22.761 5.28576 20.1051 8.10495 19.6481C10.9241 19.1911 13.58 21.106 14.037 23.9253ZM39.8823 29.8633C42.7015 29.4063 44.6164 26.7504 44.1593 23.9311C43.7023 21.1119 41.0464 19.1969 38.2273 19.654C35.4081 20.111 33.4932 22.7669 33.9502 25.5861C34.4072 28.4053 37.0631 30.3203 39.8823 29.8633ZM16.867 32.8524L16.7956 32.881C14.0343 33.9853 12.25 36.6208 12.25 39.5952V46.5933C12.25 47.0862 12.3358 47.5594 12.4919 47.9995H1.40625C0.629625 47.9995 0 47.3699 0 46.5933V35.0765C0 33.2588 1.09022 31.6484 2.77744 30.9736L3.5685 30.6571C4.9875 31.9486 6.87216 32.7369 8.93756 32.7369C11.0028 32.7369 12.886 31.9478 14.3045 30.6563L15.0977 30.9736C15.5984 31.1739 16.0461 31.4572 16.4288 31.8032C16.5503 32.1651 16.6972 32.5155 16.867 32.8524ZM45.2226 30.9736L44.4316 30.6571C43.0126 31.9486 41.1278 32.7369 39.0625 32.7369C36.9973 32.7369 35.1141 31.9478 33.6957 30.6563L32.9025 30.9736C32.4017 31.1738 31.954 31.4571 31.5713 31.8032C31.4497 32.1651 31.3028 32.5154 31.1331 32.8523L31.2049 32.881C33.9659 33.9851 35.7502 36.6206 35.7502 39.5951V46.5932C35.7502 47.0861 35.6644 47.5593 35.5083 47.9994H46.5938C47.3705 47.9994 48.0001 47.3698 48.0001 46.5932V35.0764C48.0001 33.2587 46.9099 31.6483 45.2226 30.9736ZM29.3689 35.1768L30.1599 35.4933C31.8472 36.168 32.9373 37.7784 32.9373 39.596V46.5941C32.9373 47.3707 32.3077 48.0004 31.531 48.0004H16.4685C15.6919 48.0004 15.0623 47.3707 15.0623 46.5941V39.5961C15.0623 37.7784 16.1525 36.168 17.8397 35.4933L18.6308 35.1768C20.0498 36.4683 21.9344 37.2566 23.9998 37.2566C26.0652 37.2566 27.9499 36.4683 29.3689 35.1768ZM24.82 34.3779C27.6392 33.9209 29.5541 31.265 29.0971 28.4458C28.6401 25.6266 25.9842 23.7116 23.165 24.1686C20.3458 24.6256 18.4309 27.2815 18.8879 30.1008C19.3449 32.92 22.0008 34.835 24.82 34.3779Z" fill="url(#paint0_linear_5929_15379)" fill-opacity="0.8" shape-rendering="crispEdges"/>
<path fill-rule="evenodd" clip-rule="evenodd" d="M24 20.8847C23.627 20.8847 23.2693 20.7365 23.0056 20.4728L12.9905 10.4571C10.5971 8.06448 10.5931 4.18829 12.9907 1.79157C15.3795 -0.597176 19.2667 -0.59727 21.6557 1.79176L24 4.13532L26.3444 1.79157C28.7332 -0.597176 32.6203 -0.597176 35.0093 1.79186C37.3983 4.18089 37.3983 8.06804 35.0093 10.4571L24.9944 20.4728C24.7307 20.7365 24.373 20.8847 24 20.8847ZM42.7039 4.17066L45.7164 2.66438C46.4111 2.31704 46.6926 1.47235 46.3453 0.777661C45.9981 0.0829734 45.1534 -0.198558 44.4587 0.148786L41.4461 1.65507C40.7514 2.00241 40.4699 2.8471 40.8172 3.54179C41.1659 4.2391 42.0119 4.5166 42.7039 4.17066ZM2.28346 2.66436L5.29593 4.17064C5.98959 4.51743 6.83474 4.23758 7.18265 3.54177C7.52999 2.84708 7.24846 2.00239 6.55377 1.65505L3.54131 0.148769C2.84662 -0.198575 2.00202 0.0830502 1.65459 0.777644C1.30734 1.47233 1.58887 2.31702 2.28346 2.66436ZM7.18271 11.3217C6.83536 10.627 5.99058 10.3453 5.29599 10.6928L2.28352 12.199C1.58883 12.5463 1.3073 13.391 1.65465 14.0857C2.00311 14.7827 2.84902 15.0608 3.54136 14.7146L6.55383 13.2084C7.24843 12.861 7.52996 12.0163 7.18271 11.3217ZM44.4587 14.7144L41.4461 13.2082C40.7514 12.861 40.4699 12.0162 40.8172 11.3215C41.1647 10.6268 42.0096 10.3455 42.7039 10.6926L45.7164 12.1988C46.4111 12.5461 46.6926 13.3908 46.3453 14.0855C45.9975 14.7811 45.1524 15.0613 44.4587 14.7144ZM14.037 23.9253C14.494 26.7445 12.5791 29.4004 9.75996 29.8574C6.94077 30.3144 4.28489 28.3995 3.82787 25.5803C3.37085 22.761 5.28576 20.1051 8.10495 19.6481C10.9241 19.1911 13.58 21.106 14.037 23.9253ZM39.8823 29.8633C42.7015 29.4063 44.6164 26.7504 44.1593 23.9311C43.7023 21.1119 41.0464 19.1969 38.2273 19.654C35.4081 20.111 33.4932 22.7669 33.9502 25.5861C34.4072 28.4053 37.0631 30.3203 39.8823 29.8633ZM16.867 32.8524L16.7956 32.881C14.0343 33.9853 12.25 36.6208 12.25 39.5952V46.5933C12.25 47.0862 12.3358 47.5594 12.4919 47.9995H1.40625C0.629625 47.9995 0 47.3699 0 46.5933V35.0765C0 33.2588 1.09022 31.6484 2.77744 30.9736L3.5685 30.6571C4.9875 31.9486 6.87216 32.7369 8.93756 32.7369C11.0028 32.7369 12.886 31.9478 14.3045 30.6563L15.0977 30.9736C15.5984 31.1739 16.0461 31.4572 16.4288 31.8032C16.5503 32.1651 16.6972 32.5155 16.867 32.8524ZM45.2226 30.9736L44.4316 30.6571C43.0126 31.9486 41.1278 32.7369 39.0625 32.7369C36.9973 32.7369 35.1141 31.9478 33.6957 30.6563L32.9025 30.9736C32.4017 31.1738 31.954 31.4571 31.5713 31.8032C31.4497 32.1651 31.3028 32.5154 31.1331 32.8523L31.2049 32.881C33.9659 33.9851 35.7502 36.6206 35.7502 39.5951V46.5932C35.7502 47.0861 35.6644 47.5593 35.5083 47.9994H46.5938C47.3705 47.9994 48.0001 47.3698 48.0001 46.5932V35.0764C48.0001 33.2587 46.9099 31.6483 45.2226 30.9736ZM29.3689 35.1768L30.1599 35.4933C31.8472 36.168 32.9373 37.7784 32.9373 39.596V46.5941C32.9373 47.3707 32.3077 48.0004 31.531 48.0004H16.4685C15.6919 48.0004 15.0623 47.3707 15.0623 46.5941V39.5961C15.0623 37.7784 16.1525 36.168 17.8397 35.4933L18.6308 35.1768C20.0498 36.4683 21.9344 37.2566 23.9998 37.2566C26.0652 37.2566 27.9499 36.4683 29.3689 35.1768ZM24.82 34.3779C27.6392 33.9209 29.5541 31.265 29.0971 28.4458C28.6401 25.6266 25.9842 23.7116 23.165 24.1686C20.3458 24.6256 18.4309 27.2815 18.8879 30.1008C19.3449 32.92 22.0008 34.835 24.82 34.3779Z" fill="#344254" fill-opacity="0.15" shape-rendering="crispEdges"/>
<path d="M23.0056 20.4728L22.4399 21.0384L22.4399 21.0385L23.0056 20.4728ZM12.9905 10.4571L13.5562 9.89141L13.5561 9.89129L12.9905 10.4571ZM12.9907 1.79157L13.5563 2.35737L13.5564 2.35726L12.9907 1.79157ZM21.6557 1.79176L21.09 2.35744L21.0901 2.35754L21.6557 1.79176ZM24 4.13532L23.4344 4.7011L24 5.26653L24.5656 4.70109L24 4.13532ZM26.3444 1.79157L26.91 2.35734L26.9101 2.35727L26.3444 1.79157ZM35.0093 1.79186L35.575 1.22618L35.575 1.22617L35.0093 1.79186ZM35.0093 10.4571L34.4436 9.8914L34.4436 9.89141L35.0093 10.4571ZM24.9944 20.4728L25.5601 21.0385L25.5601 21.0384L24.9944 20.4728ZM45.7164 2.66438L46.0742 3.37992L46.0742 3.37992L45.7164 2.66438ZM42.7039 4.17066L43.0616 4.88622L43.0616 4.8862L42.7039 4.17066ZM46.3453 0.777661L45.6297 1.13536L45.6298 1.13543L46.3453 0.777661ZM44.4587 0.148786L44.1009 -0.566757L44.1009 -0.566756L44.4587 0.148786ZM41.4461 1.65507L41.0883 0.939525L41.0883 0.939525L41.4461 1.65507ZM40.8172 3.54179L41.5328 3.18402L41.5328 3.18402L40.8172 3.54179ZM5.29593 4.17064L4.93815 4.88618L4.9382 4.8862L5.29593 4.17064ZM2.28346 2.66436L1.92565 3.37989L1.92568 3.3799L2.28346 2.66436ZM7.18265 3.54177L6.46711 3.184L6.46711 3.184L7.18265 3.54177ZM6.55377 1.65505L6.196 2.37059L6.196 2.37059L6.55377 1.65505ZM3.54131 0.148769L3.89909 -0.566768L3.89908 -0.566773L3.54131 0.148769ZM1.65459 0.777644L0.939103 0.419757L0.939007 0.41995L1.65459 0.777644ZM5.29599 10.6928L5.65375 11.4084L5.65395 11.4083L5.29599 10.6928ZM7.18271 11.3217L7.89827 10.964L7.89825 10.9639L7.18271 11.3217ZM2.28352 12.199L1.92576 11.4835L1.92575 11.4835L2.28352 12.199ZM1.65465 14.0857L0.939103 14.4435L0.939103 14.4435L1.65465 14.0857ZM3.54136 14.7146L3.1836 13.999L3.18355 13.9991L3.54136 14.7146ZM6.55383 13.2084L6.91159 13.924L6.91172 13.9239L6.55383 13.2084ZM41.4461 13.2082L41.8039 12.4926L41.8038 12.4926L41.4461 13.2082ZM44.4587 14.7144L44.8164 13.9988L44.8164 13.9988L44.4587 14.7144ZM40.8172 11.3215L40.1017 10.9636L40.1017 10.9637L40.8172 11.3215ZM42.7039 10.6926L43.0616 9.97706L43.0616 9.97703L42.7039 10.6926ZM45.7164 12.1988L46.0742 11.4833L46.0742 11.4832L45.7164 12.1988ZM46.3453 14.0855L47.0608 14.4433L47.0608 14.4433L46.3453 14.0855ZM9.75996 29.8574L9.88797 30.6471L9.88797 30.6471L9.75996 29.8574ZM14.037 23.9253L14.8267 23.7973L14.8267 23.7973L14.037 23.9253ZM3.82787 25.5803L3.03818 25.7083L3.03818 25.7083L3.82787 25.5803ZM8.10495 19.6481L8.23296 20.4378L8.23296 20.4378L8.10495 19.6481ZM44.1593 23.9311L43.3697 24.0591L43.3697 24.0592L44.1593 23.9311ZM39.8823 29.8633L40.0103 30.653L40.0103 30.653L39.8823 29.8633ZM38.2273 19.654L38.3553 20.4436L38.3553 20.4436L38.2273 19.654ZM33.9502 25.5861L33.1605 25.7141L33.1605 25.7141L33.9502 25.5861ZM16.7956 32.881L17.0926 33.6238L17.0929 33.6237L16.7956 32.881ZM16.867 32.8524L17.1643 33.5951L17.974 33.271L17.5814 32.4923L16.867 32.8524ZM12.4919 47.9995V48.7995H13.6244L13.2459 47.7321L12.4919 47.9995ZM2.77744 30.9736L3.07452 31.7164L3.07461 31.7164L2.77744 30.9736ZM3.5685 30.6571L4.10698 30.0655L3.73647 29.7282L3.27133 29.9143L3.5685 30.6571ZM14.3045 30.6563L14.6016 29.9135L14.1364 29.7274L13.7658 30.0647L14.3045 30.6563ZM15.0977 30.9736L15.3949 30.2308L15.3948 30.2308L15.0977 30.9736ZM16.4288 31.8032L17.1871 31.5484L17.1205 31.3501L16.9653 31.2098L16.4288 31.8032ZM44.4316 30.6571L44.7288 29.9143L44.2636 29.7282L43.8931 30.0655L44.4316 30.6571ZM45.2226 30.9736L44.9255 31.7163L44.9256 31.7164L45.2226 30.9736ZM33.6957 30.6563L34.2344 30.0648L33.8638 29.7273L33.3986 29.9135L33.6957 30.6563ZM32.9025 30.9736L33.1995 31.7164L33.1997 31.7164L32.9025 30.9736ZM31.5713 31.8032L31.0347 31.2099L30.8796 31.3501L30.813 31.5484L31.5713 31.8032ZM31.1331 32.8523L30.4186 32.4923L30.026 33.2715L30.8363 33.5952L31.1331 32.8523ZM31.2049 32.881L31.5019 32.1382L31.5017 32.1381L31.2049 32.881ZM35.5083 47.9994L34.7543 47.732L34.3758 48.7994H35.5083V47.9994ZM30.1599 35.4933L29.8628 36.236L29.8629 36.2361L30.1599 35.4933ZM29.3689 35.1768L29.6661 34.434L29.2009 34.2479L28.8304 34.5851L29.3689 35.1768ZM17.8397 35.4933L18.1367 36.2361L18.1369 36.236L17.8397 35.4933ZM18.6308 35.1768L19.1692 34.5851L18.7987 34.2479L18.3336 34.434L18.6308 35.1768ZM29.0971 28.4458L28.3074 28.5738L28.3074 28.5738L29.0971 28.4458ZM24.82 34.3779L24.948 35.1676L24.948 35.1676L24.82 34.3779ZM23.165 24.1686L23.037 23.3789L23.037 23.3789L23.165 24.1686ZM18.8879 30.1008L18.0982 30.2288L18.0982 30.2288L18.8879 30.1008ZM22.4399 21.0385C22.8536 21.4522 23.4148 21.6847 24 21.6847V20.0847C23.8393 20.0847 23.685 20.0208 23.5713 19.9071L22.4399 21.0385ZM12.4248 11.0227L22.4399 21.0384L23.5713 19.9071L13.5562 9.89141L12.4248 11.0227ZM12.4251 1.22578C9.71459 3.93527 9.71929 8.31816 12.425 11.0229L13.5561 9.89129C11.4749 7.8108 11.4715 4.44131 13.5563 2.35737L12.4251 1.22578ZM22.2214 1.22609C19.52 -1.47538 15.1262 -1.47528 12.425 1.22589L13.5564 2.35726C15.6327 0.280931 19.0134 0.280837 21.09 2.35744L22.2214 1.22609ZM24.5656 3.56955L22.2213 1.22599L21.0901 2.35754L23.4344 4.7011L24.5656 3.56955ZM25.7788 1.22581L23.4344 3.56956L24.5656 4.70109L26.91 2.35734L25.7788 1.22581ZM35.575 1.22617C32.8736 -1.47526 28.48 -1.47529 25.7787 1.22588L26.9101 2.35727C28.9865 0.280943 32.367 0.280912 34.4436 2.35754L35.575 1.22617ZM35.575 11.0227C38.2764 8.3213 38.2764 3.92763 35.575 1.22618L34.4436 2.35753C36.5202 4.43414 36.5202 7.81479 34.4436 9.8914L35.575 11.0227ZM25.5601 21.0384L35.575 11.0227L34.4436 9.89141L24.4287 19.9071L25.5601 21.0384ZM24 21.6847C24.5853 21.6847 25.1464 21.4521 25.5601 21.0385L24.4287 19.9071C24.3149 20.0208 24.1608 20.0847 24 20.0847V21.6847ZM45.3587 1.94884L42.3461 3.45512L43.0616 4.8862L46.0742 3.37992L45.3587 1.94884ZM45.6298 1.13543C45.7795 1.43496 45.6581 1.7991 45.3587 1.94884L46.0742 3.37992C47.1641 2.83497 47.6058 1.50973 47.0608 0.41989L45.6298 1.13543ZM44.8164 0.864328C45.116 0.714547 45.4801 0.835988 45.6297 1.13536L47.0609 0.419966C46.516 -0.670041 45.1907 -1.11166 44.1009 -0.566757L44.8164 0.864328ZM41.8039 2.37061L44.8165 0.864328L44.1009 -0.566756L41.0883 0.939525L41.8039 2.37061ZM41.5328 3.18402C41.383 2.88448 41.5044 2.52035 41.8039 2.37061L41.0883 0.939525C39.9984 1.48447 39.5568 2.80971 40.1017 3.89956L41.5328 3.18402ZM42.3461 3.4551C42.0473 3.60449 41.6828 3.48412 41.5328 3.18402L40.1017 3.89956C40.649 4.99407 41.9765 5.4287 43.0616 4.88622L42.3461 3.4551ZM5.65371 3.45511L2.64124 1.94883L1.92568 3.3799L4.93815 4.88618L5.65371 3.45511ZM6.46711 3.184C6.31723 3.48376 5.95303 3.60474 5.65366 3.45508L4.9382 4.8862C6.02615 5.43011 7.35226 4.9914 7.89819 3.89954L6.46711 3.184ZM6.196 2.37059C6.49548 2.52033 6.61687 2.88447 6.46711 3.184L7.89819 3.89954C8.44311 2.8097 8.00144 1.48446 6.91155 0.939508L6.196 2.37059ZM3.18353 0.864306L6.196 2.37059L6.91155 0.939513L3.89909 -0.566768L3.18353 0.864306ZM2.37007 1.13553C2.51994 0.835906 2.88412 0.714604 3.18354 0.864311L3.89908 -0.566773C2.80912 -1.11175 1.48411 -0.669805 0.939103 0.419757L2.37007 1.13553ZM2.64127 1.94884C2.34187 1.79912 2.22041 1.43493 2.37017 1.13534L0.939007 0.41995C0.394263 1.50973 0.835868 2.83492 1.92565 3.37989L2.64127 1.94884ZM5.65395 11.4083C5.95312 11.2586 6.31734 11.3798 6.46717 11.6795L7.89825 10.9639C7.35339 9.8742 6.02805 9.43199 4.93803 9.97737L5.65395 11.4083ZM2.64128 12.9145L5.65375 11.4084L4.93823 9.97727L1.92576 11.4835L2.64128 12.9145ZM2.37019 13.7279C2.22042 13.4284 2.34181 13.0643 2.64129 12.9145L1.92575 11.4835C0.835851 12.0284 0.394182 13.3536 0.939103 14.4435L2.37019 13.7279ZM3.18355 13.9991C2.88472 14.1485 2.52022 14.028 2.37019 13.7279L0.939103 14.4435C1.48601 15.5373 2.81332 15.9731 3.89917 15.4301L3.18355 13.9991ZM6.19607 12.4929L3.1836 13.999L3.89913 15.4301L6.91159 13.924L6.19607 12.4929ZM6.46715 11.6794C6.61683 11.9788 6.49549 12.3431 6.19595 12.4929L6.91172 13.9239C8.00136 13.3789 8.44308 12.0537 7.89827 10.964L6.46715 11.6794ZM41.0884 13.9238L44.1009 15.4299L44.8164 13.9988L41.8039 12.4926L41.0884 13.9238ZM40.1017 10.9637C39.5568 12.0535 39.9984 13.3789 41.0884 13.9238L41.8038 12.4926C41.5045 12.343 41.383 11.9788 41.5328 11.6793L40.1017 10.9637ZM43.0616 9.97703C41.9723 9.43253 40.6469 9.87368 40.1017 10.9636L41.5327 11.6793C41.6825 11.3799 42.0468 11.2586 42.3462 11.4082L43.0616 9.97703ZM46.0742 11.4832L43.0616 9.97706L42.3461 11.4082L45.3587 12.9143L46.0742 11.4832ZM47.0608 14.4433C47.6058 13.3534 47.1641 12.0282 46.0742 11.4833L45.3587 12.9143C45.6581 13.0641 45.7795 13.4282 45.6298 13.7277L47.0608 14.4433ZM44.1009 15.4299C45.1891 15.974 46.5151 15.5348 47.0608 14.4433L45.6298 13.7277C45.4799 14.0275 45.1157 14.1485 44.8164 13.9988L44.1009 15.4299ZM9.88797 30.6471C13.1433 30.1194 15.3544 27.0526 14.8267 23.7973L13.2473 24.0533C13.6337 26.4364 12.015 28.6814 9.63194 29.0677L9.88797 30.6471ZM3.03818 25.7083C3.5659 28.9636 6.63264 31.1748 9.88797 30.6471L9.63194 29.0677C7.24891 29.4541 5.00388 27.8354 4.61756 25.4522L3.03818 25.7083ZM7.97693 18.8584C4.7216 19.3861 2.51046 22.4529 3.03818 25.7083L4.61756 25.4522C4.23124 23.0691 5.84993 20.8241 8.23296 20.4378L7.97693 18.8584ZM14.8267 23.7973C14.299 20.5419 11.2323 18.3307 7.97693 18.8584L8.23296 20.4378C10.616 20.0515 12.861 21.6702 13.2473 24.0533L14.8267 23.7973ZM43.3697 24.0592C43.756 26.4423 42.1373 28.6873 39.7543 29.0736L40.0103 30.653C43.2656 30.1253 45.4768 27.0585 44.949 23.8031L43.3697 24.0592ZM38.3553 20.4436C40.7383 20.0573 42.9833 21.676 43.3697 24.0591L44.949 23.8031C44.4213 20.5478 41.3546 18.3366 38.0992 18.8643L38.3553 20.4436ZM34.7399 25.4581C34.3536 23.075 35.9722 20.83 38.3553 20.4436L38.0992 18.8643C34.8439 19.392 32.6328 22.4588 33.1605 25.7141L34.7399 25.4581ZM39.7543 29.0736C37.3712 29.4599 35.1262 27.8412 34.7399 25.4581L33.1605 25.7141C33.6882 28.9695 36.755 31.1807 40.0103 30.653L39.7543 29.0736ZM17.0929 33.6237L17.1643 33.5951L16.5697 32.1097L16.4983 32.1383L17.0929 33.6237ZM13.05 39.5952C13.05 36.9479 14.6352 34.6066 17.0926 33.6238L16.4985 32.1382C13.4334 33.364 11.45 36.2937 11.45 39.5952H13.05ZM13.05 46.5933V39.5952H11.45V46.5933H13.05ZM13.2459 47.7321C13.1194 47.3756 13.05 46.9927 13.05 46.5933H11.45C11.45 47.1797 11.5522 47.7432 11.7379 48.2669L13.2459 47.7321ZM1.40625 48.7995H12.4919V47.1995H1.40625V48.7995ZM-0.8 46.5933C-0.8 47.8117 0.187798 48.7995 1.40625 48.7995V47.1995C1.07145 47.1995 0.8 46.9281 0.8 46.5933H-0.8ZM-0.8 35.0765V46.5933H0.8V35.0765H-0.8ZM2.48035 30.2308C0.489306 31.0271 -0.8 32.9318 -0.8 35.0765H0.8C0.8 33.5859 1.69113 32.2697 3.07452 31.7164L2.48035 30.2308ZM3.27133 29.9143L2.48026 30.2308L3.07461 31.7164L3.86567 31.3998L3.27133 29.9143ZM8.93756 31.9369C7.07965 31.9369 5.38495 31.2286 4.10698 30.0655L3.03002 31.2487C4.59004 32.6686 6.66466 33.5369 8.93756 33.5369V31.9369ZM13.7658 30.0647C12.4882 31.2281 10.795 31.9369 8.93756 31.9369V33.5369C11.2106 33.5369 13.2838 32.6676 14.8431 31.2478L13.7658 30.0647ZM15.3948 30.2308L14.6016 29.9135L14.0073 31.399L14.8005 31.7164L15.3948 30.2308ZM16.9653 31.2098C16.5133 30.8011 15.9848 30.4669 15.3949 30.2308L14.8005 31.7163C15.212 31.881 15.5789 32.1133 15.8922 32.3966L16.9653 31.2098ZM17.5814 32.4923C17.4285 32.189 17.2964 31.8738 17.1871 31.5484L15.6704 32.058C15.8043 32.4564 15.9658 32.842 16.1527 33.2126L17.5814 32.4923ZM44.1344 31.3999L44.9255 31.7163L45.5198 30.2308L44.7288 29.9143L44.1344 31.3999ZM39.0625 33.5369C41.3353 33.5369 43.41 32.6686 44.9701 31.2487L43.8931 30.0655C42.6151 31.2286 40.9203 31.9369 39.0625 31.9369V33.5369ZM33.1571 31.2477C34.7163 32.6676 36.7895 33.5369 39.0625 33.5369V31.9369C37.2051 31.9369 35.5119 31.2281 34.2344 30.0648L33.1571 31.2477ZM33.1997 31.7164L33.9929 31.399L33.3986 29.9135L32.6053 30.2308L33.1997 31.7164ZM32.108 32.3965C32.4213 32.1132 32.788 31.881 33.1995 31.7164L32.6055 30.2308C32.0154 30.4667 31.4868 30.801 31.0347 31.2099L32.108 32.3965ZM31.8475 33.2123C32.0341 32.842 32.1958 32.4565 32.3297 32.058L30.813 31.5484C30.7037 31.8736 30.5716 32.1888 30.4186 32.4923L31.8475 33.2123ZM31.5017 32.1381L31.4299 32.1094L30.8363 33.5952L30.9081 33.6239L31.5017 32.1381ZM36.5502 39.5951C36.5502 36.2936 34.5668 33.3638 31.5019 32.1382L30.9078 33.6238C33.365 34.6064 34.9502 36.9477 34.9502 39.5951H36.5502ZM36.5502 46.5932V39.5951H34.9502V46.5932H36.5502ZM36.2623 48.2668C36.448 47.7431 36.5502 47.1796 36.5502 46.5932H34.9502C34.9502 46.9926 34.8807 47.3755 34.7543 47.732L36.2623 48.2668ZM46.5938 47.1994H35.5083V48.7994H46.5938V47.1994ZM47.2001 46.5932C47.2001 46.928 46.9286 47.1994 46.5938 47.1994V48.7994C47.8123 48.7994 48.8001 47.8116 48.8001 46.5932H47.2001ZM47.2001 35.0764V46.5932H48.8001V35.0764H47.2001ZM44.9256 31.7164C46.309 32.2696 47.2001 33.5858 47.2001 35.0764H48.8001C48.8001 32.9317 47.5108 31.027 45.5197 30.2308L44.9256 31.7164ZM30.4571 34.7505L29.6661 34.434L29.0717 35.9195L29.8628 36.236L30.4571 34.7505ZM33.7373 39.596C33.7373 37.4514 32.4481 35.5467 30.457 34.7505L29.8629 36.2361C31.2462 36.7893 32.1373 38.1054 32.1373 39.596H33.7373ZM33.7373 46.5941V39.596H32.1373V46.5941H33.7373ZM31.531 48.8004C32.7495 48.8004 33.7373 47.8126 33.7373 46.5941H32.1373C32.1373 46.9289 31.8658 47.2004 31.531 47.2004V48.8004ZM16.4685 48.8004H31.531V47.2004H16.4685V48.8004ZM14.2623 46.5941C14.2623 47.8126 15.2501 48.8004 16.4685 48.8004V47.2004C16.1337 47.2004 15.8623 46.9289 15.8623 46.5941H14.2623ZM14.2623 39.5961V46.5941H15.8623V39.5961H14.2623ZM17.5426 34.7505C15.5516 35.5467 14.2623 37.4514 14.2623 39.5961H15.8623C15.8623 38.1054 16.7534 36.7893 18.1367 36.2361L17.5426 34.7505ZM18.3336 34.434L17.5425 34.7505L18.1369 36.236L18.9279 35.9195L18.3336 34.434ZM23.9998 36.4566C22.1419 36.4566 20.4472 35.7483 19.1692 34.5851L18.0923 35.7684C19.6523 37.1883 21.7269 38.0566 23.9998 38.0566V36.4566ZM28.8304 34.5851C27.5524 35.7483 25.8577 36.4566 23.9998 36.4566V38.0566C26.2727 38.0566 28.3473 37.1883 29.9074 35.7684L28.8304 34.5851ZM28.3074 28.5738C28.6937 30.9569 27.075 33.2019 24.692 33.5883L24.948 35.1676C28.2034 34.6399 30.4145 31.5731 29.8868 28.3178L28.3074 28.5738ZM23.293 24.9583C25.6761 24.572 27.9211 26.1907 28.3074 28.5738L29.8868 28.3178C29.3591 25.0624 26.2923 22.8512 23.037 23.3789L23.293 24.9583ZM19.6776 29.9728C19.2913 27.5896 20.91 25.3446 23.293 24.9583L23.037 23.3789C19.7817 23.9066 17.5705 26.9734 18.0982 30.2288L19.6776 29.9728ZM24.692 33.5883C22.309 33.9746 20.0639 32.3559 19.6776 29.9728L18.0982 30.2288C18.626 33.4841 21.6927 35.6954 24.948 35.1676L24.692 33.5883Z" fill="url(#paint1_radial_5929_15379)" fill-opacity="0.6" mask="url(#path-1-inside-1_5929_15379)"/>
<path d="M23.0056 20.4728L22.4399 21.0384L22.4399 21.0385L23.0056 20.4728ZM12.9905 10.4571L13.5562 9.89141L13.5561 9.89129L12.9905 10.4571ZM12.9907 1.79157L13.5563 2.35737L13.5564 2.35726L12.9907 1.79157ZM21.6557 1.79176L21.09 2.35744L21.0901 2.35754L21.6557 1.79176ZM24 4.13532L23.4344 4.7011L24 5.26653L24.5656 4.70109L24 4.13532ZM26.3444 1.79157L26.91 2.35734L26.9101 2.35727L26.3444 1.79157ZM35.0093 1.79186L35.575 1.22618L35.575 1.22617L35.0093 1.79186ZM35.0093 10.4571L34.4436 9.8914L34.4436 9.89141L35.0093 10.4571ZM24.9944 20.4728L25.5601 21.0385L25.5601 21.0384L24.9944 20.4728ZM45.7164 2.66438L46.0742 3.37992L46.0742 3.37992L45.7164 2.66438ZM42.7039 4.17066L43.0616 4.88622L43.0616 4.8862L42.7039 4.17066ZM46.3453 0.777661L45.6297 1.13536L45.6298 1.13543L46.3453 0.777661ZM44.4587 0.148786L44.1009 -0.566757L44.1009 -0.566756L44.4587 0.148786ZM41.4461 1.65507L41.0883 0.939525L41.0883 0.939525L41.4461 1.65507ZM40.8172 3.54179L41.5328 3.18402L41.5328 3.18402L40.8172 3.54179ZM5.29593 4.17064L4.93815 4.88618L4.9382 4.8862L5.29593 4.17064ZM2.28346 2.66436L1.92565 3.37989L1.92568 3.3799L2.28346 2.66436ZM7.18265 3.54177L6.46711 3.184L6.46711 3.184L7.18265 3.54177ZM6.55377 1.65505L6.196 2.37059L6.196 2.37059L6.55377 1.65505ZM3.54131 0.148769L3.89909 -0.566768L3.89908 -0.566773L3.54131 0.148769ZM1.65459 0.777644L0.939103 0.419757L0.939007 0.41995L1.65459 0.777644ZM5.29599 10.6928L5.65375 11.4084L5.65395 11.4083L5.29599 10.6928ZM7.18271 11.3217L7.89827 10.964L7.89825 10.9639L7.18271 11.3217ZM2.28352 12.199L1.92576 11.4835L1.92575 11.4835L2.28352 12.199ZM1.65465 14.0857L0.939103 14.4435L0.939103 14.4435L1.65465 14.0857ZM3.54136 14.7146L3.1836 13.999L3.18355 13.9991L3.54136 14.7146ZM6.55383 13.2084L6.91159 13.924L6.91172 13.9239L6.55383 13.2084ZM41.4461 13.2082L41.8039 12.4926L41.8038 12.4926L41.4461 13.2082ZM44.4587 14.7144L44.8164 13.9988L44.8164 13.9988L44.4587 14.7144ZM40.8172 11.3215L40.1017 10.9636L40.1017 10.9637L40.8172 11.3215ZM42.7039 10.6926L43.0616 9.97706L43.0616 9.97703L42.7039 10.6926ZM45.7164 12.1988L46.0742 11.4833L46.0742 11.4832L45.7164 12.1988ZM46.3453 14.0855L47.0608 14.4433L47.0608 14.4433L46.3453 14.0855ZM9.75996 29.8574L9.88797 30.6471L9.88797 30.6471L9.75996 29.8574ZM14.037 23.9253L14.8267 23.7973L14.8267 23.7973L14.037 23.9253ZM3.82787 25.5803L3.03818 25.7083L3.03818 25.7083L3.82787 25.5803ZM8.10495 19.6481L8.23296 20.4378L8.23296 20.4378L8.10495 19.6481ZM44.1593 23.9311L43.3697 24.0591L43.3697 24.0592L44.1593 23.9311ZM39.8823 29.8633L40.0103 30.653L40.0103 30.653L39.8823 29.8633ZM38.2273 19.654L38.3553 20.4436L38.3553 20.4436L38.2273 19.654ZM33.9502 25.5861L33.1605 25.7141L33.1605 25.7141L33.9502 25.5861ZM16.7956 32.881L17.0926 33.6238L17.0929 33.6237L16.7956 32.881ZM16.867 32.8524L17.1643 33.5951L17.974 33.271L17.5814 32.4923L16.867 32.8524ZM12.4919 47.9995V48.7995H13.6244L13.2459 47.7321L12.4919 47.9995ZM2.77744 30.9736L3.07452 31.7164L3.07461 31.7164L2.77744 30.9736ZM3.5685 30.6571L4.10698 30.0655L3.73647 29.7282L3.27133 29.9143L3.5685 30.6571ZM14.3045 30.6563L14.6016 29.9135L14.1364 29.7274L13.7658 30.0647L14.3045 30.6563ZM15.0977 30.9736L15.3949 30.2308L15.3948 30.2308L15.0977 30.9736ZM16.4288 31.8032L17.1871 31.5484L17.1205 31.3501L16.9653 31.2098L16.4288 31.8032ZM44.4316 30.6571L44.7288 29.9143L44.2636 29.7282L43.8931 30.0655L44.4316 30.6571ZM45.2226 30.9736L44.9255 31.7163L44.9256 31.7164L45.2226 30.9736ZM33.6957 30.6563L34.2344 30.0648L33.8638 29.7273L33.3986 29.9135L33.6957 30.6563ZM32.9025 30.9736L33.1995 31.7164L33.1997 31.7164L32.9025 30.9736ZM31.5713 31.8032L31.0347 31.2099L30.8796 31.3501L30.813 31.5484L31.5713 31.8032ZM31.1331 32.8523L30.4186 32.4923L30.026 33.2715L30.8363 33.5952L31.1331 32.8523ZM31.2049 32.881L31.5019 32.1382L31.5017 32.1381L31.2049 32.881ZM35.5083 47.9994L34.7543 47.732L34.3758 48.7994H35.5083V47.9994ZM30.1599 35.4933L29.8628 36.236L29.8629 36.2361L30.1599 35.4933ZM29.3689 35.1768L29.6661 34.434L29.2009 34.2479L28.8304 34.5851L29.3689 35.1768ZM17.8397 35.4933L18.1367 36.2361L18.1369 36.236L17.8397 35.4933ZM18.6308 35.1768L19.1692 34.5851L18.7987 34.2479L18.3336 34.434L18.6308 35.1768ZM29.0971 28.4458L28.3074 28.5738L28.3074 28.5738L29.0971 28.4458ZM24.82 34.3779L24.948 35.1676L24.948 35.1676L24.82 34.3779ZM23.165 24.1686L23.037 23.3789L23.037 23.3789L23.165 24.1686ZM18.8879 30.1008L18.0982 30.2288L18.0982 30.2288L18.8879 30.1008ZM22.4399 21.0385C22.8536 21.4522 23.4148 21.6847 24 21.6847V20.0847C23.8393 20.0847 23.685 20.0208 23.5713 19.9071L22.4399 21.0385ZM12.4248 11.0227L22.4399 21.0384L23.5713 19.9071L13.5562 9.89141L12.4248 11.0227ZM12.4251 1.22578C9.71459 3.93527 9.71929 8.31816 12.425 11.0229L13.5561 9.89129C11.4749 7.8108 11.4715 4.44131 13.5563 2.35737L12.4251 1.22578ZM22.2214 1.22609C19.52 -1.47538 15.1262 -1.47528 12.425 1.22589L13.5564 2.35726C15.6327 0.280931 19.0134 0.280837 21.09 2.35744L22.2214 1.22609ZM24.5656 3.56955L22.2213 1.22599L21.0901 2.35754L23.4344 4.7011L24.5656 3.56955ZM25.7788 1.22581L23.4344 3.56956L24.5656 4.70109L26.91 2.35734L25.7788 1.22581ZM35.575 1.22617C32.8736 -1.47526 28.48 -1.47529 25.7787 1.22588L26.9101 2.35727C28.9865 0.280943 32.367 0.280912 34.4436 2.35754L35.575 1.22617ZM35.575 11.0227C38.2764 8.3213 38.2764 3.92763 35.575 1.22618L34.4436 2.35753C36.5202 4.43414 36.5202 7.81479 34.4436 9.8914L35.575 11.0227ZM25.5601 21.0384L35.575 11.0227L34.4436 9.89141L24.4287 19.9071L25.5601 21.0384ZM24 21.6847C24.5853 21.6847 25.1464 21.4521 25.5601 21.0385L24.4287 19.9071C24.3149 20.0208 24.1608 20.0847 24 20.0847V21.6847ZM45.3587 1.94884L42.3461 3.45512L43.0616 4.8862L46.0742 3.37992L45.3587 1.94884ZM45.6298 1.13543C45.7795 1.43496 45.6581 1.7991 45.3587 1.94884L46.0742 3.37992C47.1641 2.83497 47.6058 1.50973 47.0608 0.41989L45.6298 1.13543ZM44.8164 0.864328C45.116 0.714547 45.4801 0.835988 45.6297 1.13536L47.0609 0.419966C46.516 -0.670041 45.1907 -1.11166 44.1009 -0.566757L44.8164 0.864328ZM41.8039 2.37061L44.8165 0.864328L44.1009 -0.566756L41.0883 0.939525L41.8039 2.37061ZM41.5328 3.18402C41.383 2.88448 41.5044 2.52035 41.8039 2.37061L41.0883 0.939525C39.9984 1.48447 39.5568 2.80971 40.1017 3.89956L41.5328 3.18402ZM42.3461 3.4551C42.0473 3.60449 41.6828 3.48412 41.5328 3.18402L40.1017 3.89956C40.649 4.99407 41.9765 5.4287 43.0616 4.88622L42.3461 3.4551ZM5.65371 3.45511L2.64124 1.94883L1.92568 3.3799L4.93815 4.88618L5.65371 3.45511ZM6.46711 3.184C6.31723 3.48376 5.95303 3.60474 5.65366 3.45508L4.9382 4.8862C6.02615 5.43011 7.35226 4.9914 7.89819 3.89954L6.46711 3.184ZM6.196 2.37059C6.49548 2.52033 6.61687 2.88447 6.46711 3.184L7.89819 3.89954C8.44311 2.8097 8.00144 1.48446 6.91155 0.939508L6.196 2.37059ZM3.18353 0.864306L6.196 2.37059L6.91155 0.939513L3.89909 -0.566768L3.18353 0.864306ZM2.37007 1.13553C2.51994 0.835906 2.88412 0.714604 3.18354 0.864311L3.89908 -0.566773C2.80912 -1.11175 1.48411 -0.669805 0.939103 0.419757L2.37007 1.13553ZM2.64127 1.94884C2.34187 1.79912 2.22041 1.43493 2.37017 1.13534L0.939007 0.41995C0.394263 1.50973 0.835868 2.83492 1.92565 3.37989L2.64127 1.94884ZM5.65395 11.4083C5.95312 11.2586 6.31734 11.3798 6.46717 11.6795L7.89825 10.9639C7.35339 9.8742 6.02805 9.43199 4.93803 9.97737L5.65395 11.4083ZM2.64128 12.9145L5.65375 11.4084L4.93823 9.97727L1.92576 11.4835L2.64128 12.9145ZM2.37019 13.7279C2.22042 13.4284 2.34181 13.0643 2.64129 12.9145L1.92575 11.4835C0.835851 12.0284 0.394182 13.3536 0.939103 14.4435L2.37019 13.7279ZM3.18355 13.9991C2.88472 14.1485 2.52022 14.028 2.37019 13.7279L0.939103 14.4435C1.48601 15.5373 2.81332 15.9731 3.89917 15.4301L3.18355 13.9991ZM6.19607 12.4929L3.1836 13.999L3.89913 15.4301L6.91159 13.924L6.19607 12.4929ZM6.46715 11.6794C6.61683 11.9788 6.49549 12.3431 6.19595 12.4929L6.91172 13.9239C8.00136 13.3789 8.44308 12.0537 7.89827 10.964L6.46715 11.6794ZM41.0884 13.9238L44.1009 15.4299L44.8164 13.9988L41.8039 12.4926L41.0884 13.9238ZM40.1017 10.9637C39.5568 12.0535 39.9984 13.3789 41.0884 13.9238L41.8038 12.4926C41.5045 12.343 41.383 11.9788 41.5328 11.6793L40.1017 10.9637ZM43.0616 9.97703C41.9723 9.43253 40.6469 9.87368 40.1017 10.9636L41.5327 11.6793C41.6825 11.3799 42.0468 11.2586 42.3462 11.4082L43.0616 9.97703ZM46.0742 11.4832L43.0616 9.97706L42.3461 11.4082L45.3587 12.9143L46.0742 11.4832ZM47.0608 14.4433C47.6058 13.3534 47.1641 12.0282 46.0742 11.4833L45.3587 12.9143C45.6581 13.0641 45.7795 13.4282 45.6298 13.7277L47.0608 14.4433ZM44.1009 15.4299C45.1891 15.974 46.5151 15.5348 47.0608 14.4433L45.6298 13.7277C45.4799 14.0275 45.1157 14.1485 44.8164 13.9988L44.1009 15.4299ZM9.88797 30.6471C13.1433 30.1194 15.3544 27.0526 14.8267 23.7973L13.2473 24.0533C13.6337 26.4364 12.015 28.6814 9.63194 29.0677L9.88797 30.6471ZM3.03818 25.7083C3.5659 28.9636 6.63264 31.1748 9.88797 30.6471L9.63194 29.0677C7.24891 29.4541 5.00388 27.8354 4.61756 25.4522L3.03818 25.7083ZM7.97693 18.8584C4.7216 19.3861 2.51046 22.4529 3.03818 25.7083L4.61756 25.4522C4.23124 23.0691 5.84993 20.8241 8.23296 20.4378L7.97693 18.8584ZM14.8267 23.7973C14.299 20.5419 11.2323 18.3307 7.97693 18.8584L8.23296 20.4378C10.616 20.0515 12.861 21.6702 13.2473 24.0533L14.8267 23.7973ZM43.3697 24.0592C43.756 26.4423 42.1373 28.6873 39.7543 29.0736L40.0103 30.653C43.2656 30.1253 45.4768 27.0585 44.949 23.8031L43.3697 24.0592ZM38.3553 20.4436C40.7383 20.0573 42.9833 21.676 43.3697 24.0591L44.949 23.8031C44.4213 20.5478 41.3546 18.3366 38.0992 18.8643L38.3553 20.4436ZM34.7399 25.4581C34.3536 23.075 35.9722 20.83 38.3553 20.4436L38.0992 18.8643C34.8439 19.392 32.6328 22.4588 33.1605 25.7141L34.7399 25.4581ZM39.7543 29.0736C37.3712 29.4599 35.1262 27.8412 34.7399 25.4581L33.1605 25.7141C33.6882 28.9695 36.755 31.1807 40.0103 30.653L39.7543 29.0736ZM17.0929 33.6237L17.1643 33.5951L16.5697 32.1097L16.4983 32.1383L17.0929 33.6237ZM13.05 39.5952C13.05 36.9479 14.6352 34.6066 17.0926 33.6238L16.4985 32.1382C13.4334 33.364 11.45 36.2937 11.45 39.5952H13.05ZM13.05 46.5933V39.5952H11.45V46.5933H13.05ZM13.2459 47.7321C13.1194 47.3756 13.05 46.9927 13.05 46.5933H11.45C11.45 47.1797 11.5522 47.7432 11.7379 48.2669L13.2459 47.7321ZM1.40625 48.7995H12.4919V47.1995H1.40625V48.7995ZM-0.8 46.5933C-0.8 47.8117 0.187798 48.7995 1.40625 48.7995V47.1995C1.07145 47.1995 0.8 46.9281 0.8 46.5933H-0.8ZM-0.8 35.0765V46.5933H0.8V35.0765H-0.8ZM2.48035 30.2308C0.489306 31.0271 -0.8 32.9318 -0.8 35.0765H0.8C0.8 33.5859 1.69113 32.2697 3.07452 31.7164L2.48035 30.2308ZM3.27133 29.9143L2.48026 30.2308L3.07461 31.7164L3.86567 31.3998L3.27133 29.9143ZM8.93756 31.9369C7.07965 31.9369 5.38495 31.2286 4.10698 30.0655L3.03002 31.2487C4.59004 32.6686 6.66466 33.5369 8.93756 33.5369V31.9369ZM13.7658 30.0647C12.4882 31.2281 10.795 31.9369 8.93756 31.9369V33.5369C11.2106 33.5369 13.2838 32.6676 14.8431 31.2478L13.7658 30.0647ZM15.3948 30.2308L14.6016 29.9135L14.0073 31.399L14.8005 31.7164L15.3948 30.2308ZM16.9653 31.2098C16.5133 30.8011 15.9848 30.4669 15.3949 30.2308L14.8005 31.7163C15.212 31.881 15.5789 32.1133 15.8922 32.3966L16.9653 31.2098ZM17.5814 32.4923C17.4285 32.189 17.2964 31.8738 17.1871 31.5484L15.6704 32.058C15.8043 32.4564 15.9658 32.842 16.1527 33.2126L17.5814 32.4923ZM44.1344 31.3999L44.9255 31.7163L45.5198 30.2308L44.7288 29.9143L44.1344 31.3999ZM39.0625 33.5369C41.3353 33.5369 43.41 32.6686 44.9701 31.2487L43.8931 30.0655C42.6151 31.2286 40.9203 31.9369 39.0625 31.9369V33.5369ZM33.1571 31.2477C34.7163 32.6676 36.7895 33.5369 39.0625 33.5369V31.9369C37.2051 31.9369 35.5119 31.2281 34.2344 30.0648L33.1571 31.2477ZM33.1997 31.7164L33.9929 31.399L33.3986 29.9135L32.6053 30.2308L33.1997 31.7164ZM32.108 32.3965C32.4213 32.1132 32.788 31.881 33.1995 31.7164L32.6055 30.2308C32.0154 30.4667 31.4868 30.801 31.0347 31.2099L32.108 32.3965ZM31.8475 33.2123C32.0341 32.842 32.1958 32.4565 32.3297 32.058L30.813 31.5484C30.7037 31.8736 30.5716 32.1888 30.4186 32.4923L31.8475 33.2123ZM31.5017 32.1381L31.4299 32.1094L30.8363 33.5952L30.9081 33.6239L31.5017 32.1381ZM36.5502 39.5951C36.5502 36.2936 34.5668 33.3638 31.5019 32.1382L30.9078 33.6238C33.365 34.6064 34.9502 36.9477 34.9502 39.5951H36.5502ZM36.5502 46.5932V39.5951H34.9502V46.5932H36.5502ZM36.2623 48.2668C36.448 47.7431 36.5502 47.1796 36.5502 46.5932H34.9502C34.9502 46.9926 34.8807 47.3755 34.7543 47.732L36.2623 48.2668ZM46.5938 47.1994H35.5083V48.7994H46.5938V47.1994ZM47.2001 46.5932C47.2001 46.928 46.9286 47.1994 46.5938 47.1994V48.7994C47.8123 48.7994 48.8001 47.8116 48.8001 46.5932H47.2001ZM47.2001 35.0764V46.5932H48.8001V35.0764H47.2001ZM44.9256 31.7164C46.309 32.2696 47.2001 33.5858 47.2001 35.0764H48.8001C48.8001 32.9317 47.5108 31.027 45.5197 30.2308L44.9256 31.7164ZM30.4571 34.7505L29.6661 34.434L29.0717 35.9195L29.8628 36.236L30.4571 34.7505ZM33.7373 39.596C33.7373 37.4514 32.4481 35.5467 30.457 34.7505L29.8629 36.2361C31.2462 36.7893 32.1373 38.1054 32.1373 39.596H33.7373ZM33.7373 46.5941V39.596H32.1373V46.5941H33.7373ZM31.531 48.8004C32.7495 48.8004 33.7373 47.8126 33.7373 46.5941H32.1373C32.1373 46.9289 31.8658 47.2004 31.531 47.2004V48.8004ZM16.4685 48.8004H31.531V47.2004H16.4685V48.8004ZM14.2623 46.5941C14.2623 47.8126 15.2501 48.8004 16.4685 48.8004V47.2004C16.1337 47.2004 15.8623 46.9289 15.8623 46.5941H14.2623ZM14.2623 39.5961V46.5941H15.8623V39.5961H14.2623ZM17.5426 34.7505C15.5516 35.5467 14.2623 37.4514 14.2623 39.5961H15.8623C15.8623 38.1054 16.7534 36.7893 18.1367 36.2361L17.5426 34.7505ZM18.3336 34.434L17.5425 34.7505L18.1369 36.236L18.9279 35.9195L18.3336 34.434ZM23.9998 36.4566C22.1419 36.4566 20.4472 35.7483 19.1692 34.5851L18.0923 35.7684C19.6523 37.1883 21.7269 38.0566 23.9998 38.0566V36.4566ZM28.8304 34.5851C27.5524 35.7483 25.8577 36.4566 23.9998 36.4566V38.0566C26.2727 38.0566 28.3473 37.1883 29.9074 35.7684L28.8304 34.5851ZM28.3074 28.5738C28.6937 30.9569 27.075 33.2019 24.692 33.5883L24.948 35.1676C28.2034 34.6399 30.4145 31.5731 29.8868 28.3178L28.3074 28.5738ZM23.293 24.9583C25.6761 24.572 27.9211 26.1907 28.3074 28.5738L29.8868 28.3178C29.3591 25.0624 26.2923 22.8512 23.037 23.3789L23.293 24.9583ZM19.6776 29.9728C19.2913 27.5896 20.91 25.3446 23.293 24.9583L23.037 23.3789C19.7817 23.9066 17.5705 26.9734 18.0982 30.2288L19.6776 29.9728ZM24.692 33.5883C22.309 33.9746 20.0639 32.3559 19.6776 29.9728L18.0982 30.2288C18.626 33.4841 21.6927 35.6954 24.948 35.1676L24.692 33.5883Z" fill="url(#paint2_radial_5929_15379)" fill-opacity="0.3" mask="url(#path-1-inside-1_5929_15379)"/>
</g>
<defs>
<filter id="filter0_bd_5929_15379" x="-400" y="-400" width="848" height="848" filterUnits="userSpaceOnUse" color-interpolation-filters="sRGB">
<feFlood flood-opacity="0" result="BackgroundImageFix"/>
<feGaussianBlur in="BackgroundImageFix" stdDeviation="200"/>
<feComposite in2="SourceAlpha" operator="in" result="effect1_backgroundBlur_5929_15379"/>
<feColorMatrix in="SourceAlpha" type="matrix" values="0 0 0 0 0 0 0 0 0 0 0 0 0 0 0 0 0 0 127 0" result="hardAlpha"/>
<feOffset dy="1.6"/>
<feGaussianBlur stdDeviation="0.8"/>
<feComposite in2="hardAlpha" operator="out"/>
<feColorMatrix type="matrix" values="0 0 0 0 0 0 0 0 0 0 0 0 0 0 0 0 0 0 0.25 0"/>
<feBlend mode="normal" in2="effect1_backgroundBlur_5929_15379" result="effect2_dropShadow_5929_15379"/>
<feBlend mode="normal" in="SourceGraphic" in2="effect2_dropShadow_5929_15379" result="shape"/>
</filter>
<linearGradient id="paint0_linear_5929_15379" x1="1.98059" y1="1.23637" x2="24.5982" y2="59.3127" gradientUnits="userSpaceOnUse">
<stop stop-color="white" stop-opacity="0.6"/>
<stop offset="1" stop-color="white" stop-opacity="0"/>
</linearGradient>
<radialGradient id="paint1_radial_5929_15379" cx="0" cy="0" r="1" gradientUnits="userSpaceOnUse" gradientTransform="translate(24 0.436367) rotate(90) scale(41.673 41.6728)">
<stop stop-color="white"/>
<stop offset="1" stop-color="white" stop-opacity="0"/>
</radialGradient>
<radialGradient id="paint2_radial_5929_15379" cx="0" cy="0" r="1" gradientUnits="userSpaceOnUse" gradientTransform="translate(24 48.0004) rotate(-90) scale(24.0002 24)">
<stop stop-color="white"/>
<stop offset="1" stop-color="white" stop-opacity="0"/>
</radialGradient>
</defs>
</svg>
