<svg width="446" height="125" viewBox="0 0 446 125" fill="none" xmlns="http://www.w3.org/2000/svg">
<path d="M56.3626 114.454C56.3626 121.725 50.5906 124.611 31.2766 124.611C24.7276 124.611 14.0161 124 7.02313 122.557L7.57813 118.284C13.6831 119.227 22.4521 120.282 31.4431 120.282C45.9841 120.282 51.3676 119.061 51.3676 113.622C51.3676 108.016 47.5381 106.629 37.8256 106.629H15.0151V103.077H37.5481C47.2606 103.077 51.0901 101.967 51.0901 97.1383C51.0901 91.1998 45.7621 89.8678 31.4431 89.8678C22.7296 89.8678 14.4046 90.7003 8.57713 91.5328L8.02213 87.2593C14.9041 86.0938 25.3381 85.4833 30.8881 85.4833C49.7581 85.4833 56.0851 88.4803 56.0851 96.5278C56.0851 101.578 53.1436 103.798 47.8156 104.964C53.0881 106.129 56.3626 109.071 56.3626 114.454Z" fill="#BFBFBF"/>
<path d="M96.6023 124H64.0238V86.1493H96.6023C111.643 86.1493 118.913 91.4218 118.913 105.019C118.913 118.728 111.587 124 96.6023 124ZM69.0188 90.4783V119.616H96.2138C109.034 119.616 113.752 115.453 113.752 105.019C113.752 94.5298 109.034 90.4783 96.2138 90.4783H69.0188Z" fill="#BFBFBF"/>
<path d="M193.667 124H145.271V86.1493H193.667V90.2008H150.266V102.855H192.612V106.407H150.266V119.893H193.667V124Z" fill="#BFBFBF"/>
<path d="M205.631 124H200.636V86.1493H206.408L247.7 118.617V86.1493H252.695V124H246.868L205.631 91.3663V124Z" fill="#BFBFBF"/>
<path d="M259.065 105.075C259.065 91.7548 267.39 85.5943 286.205 85.5943C294.918 85.5943 304.686 87.1483 311.79 88.9243L310.791 93.1978C304.409 91.7548 295.029 89.9788 285.872 89.9788C269.499 89.9788 264.06 94.9183 264.06 105.075C264.06 115.231 269.499 120.171 285.872 120.171C293.309 120.171 301.079 118.839 306.629 117.729V104.464H311.79V121.281C304.686 123.057 294.918 124.611 286.205 124.611C267.39 124.611 259.065 118.45 259.065 105.075Z" fill="#BFBFBF"/>
<path d="M323.733 124H318.738V86.1493H323.733V124Z" fill="#BFBFBF"/>
<path d="M336.227 124H331.232V86.1493H337.004L378.296 118.617V86.1493H383.291V124H377.464L336.227 91.3663V124Z" fill="#BFBFBF"/>
<path d="M439.167 124H390.771V86.1493H439.167V90.2008H395.766V102.855H438.113V106.407H395.766V119.893H439.167V124Z" fill="#BFBFBF"/>
<path d="M51.9226 114.454C51.9226 121.725 46.1506 124.611 26.8366 124.611C20.2876 124.611 9.57613 124 2.58313 122.557L3.13813 118.284C9.24313 119.227 18.0121 120.282 27.0031 120.282C41.5441 120.282 46.9276 119.061 46.9276 113.622C46.9276 108.016 43.0981 106.629 33.3856 106.629H10.5751V103.077H33.1081C42.8206 103.077 46.6501 101.967 46.6501 97.1383C46.6501 91.1998 41.3221 89.8678 27.0031 89.8678C18.2896 89.8678 9.96463 90.7003 4.13713 91.5328L3.58213 87.2593C10.4641 86.0938 20.8981 85.4833 26.4481 85.4833C45.3181 85.4833 51.6451 88.4803 51.6451 96.5278C51.6451 101.578 48.7036 103.798 43.3756 104.964C48.6481 106.129 51.9226 109.071 51.9226 114.454Z" fill="white"/>
<path d="M93.2723 124H60.6938V86.1493H93.2723C108.313 86.1493 115.583 91.4218 115.583 105.019C115.583 118.728 108.257 124 93.2723 124ZM65.6888 90.4783V119.616H92.8838C105.704 119.616 110.422 115.453 110.422 105.019C110.422 94.5298 105.704 90.4783 92.8838 90.4783H65.6888Z" fill="white"/>
<path d="M192.557 124H144.161V86.1493H192.557V90.2008H149.156V102.855H191.502V106.407H149.156V119.893H192.557V124Z" fill="white"/>
<path d="M205.631 124H200.636V86.1493H206.408L247.7 118.617V86.1493H252.695V124H246.868L205.631 91.3663V124Z" fill="white"/>
<path d="M260.175 105.075C260.175 91.7548 268.5 85.5943 287.315 85.5943C296.028 85.5943 305.796 87.1483 312.9 88.9243L311.901 93.1978C305.519 91.7548 296.139 89.9788 286.982 89.9788C270.609 89.9788 265.17 94.9183 265.17 105.075C265.17 115.231 270.609 120.171 286.982 120.171C294.419 120.171 302.189 118.839 307.739 117.729V104.464H312.9V121.281C305.796 123.057 296.028 124.611 287.315 124.611C268.5 124.611 260.175 118.45 260.175 105.075Z" fill="white"/>
<path d="M325.953 124H320.958V86.1493H325.953V124Z" fill="white"/>
<path d="M339.557 124H334.562V86.1493H340.334L381.626 118.617V86.1493H386.621V124H380.794L339.557 91.3663V124Z" fill="white"/>
<path d="M443.607 124H395.211V86.1493H443.607V90.2008H400.206V102.855H442.553V106.407H400.206V119.893H443.607V124Z" fill="white"/>
<path d="M17.8416 28.9703C17.8416 40.5773 23.7246 45.9833 45.1896 45.9833C57.8301 45.9833 71.1066 43.6778 80.2491 41.7698L82.634 52.3433C71.8221 54.9668 57.6711 56.9543 44.7921 56.9543C16.4106 56.9543 5.12155 47.5733 5.12155 28.9703C5.12155 10.4468 16.4106 0.986328 44.7921 0.986328C57.6711 0.986328 71.8221 2.97383 82.634 5.59733L80.2491 16.1708C71.1066 14.3423 57.8301 11.9573 45.1896 11.9573C23.7246 11.9573 17.8416 17.3633 17.8416 28.9703Z" fill="#BFBFBF"/>
<path d="M125.469 12.6728H92.9535V1.78133H170.546V12.6728H138.189V56.0003H125.469V12.6728Z" fill="#BFBFBF"/>
<path d="M196.083 56.0003H183.363V1.78133H236.469C249.825 1.78133 258.173 6.63083 258.173 20.0663C258.173 31.7528 251.495 37.3973 239.172 38.1128L234.323 38.1923L238.934 41.2133L257.378 56.0003H241.239L220.331 38.8283H196.083V56.0003ZM196.083 12.6728V29.2088H235.356C242.273 29.2088 245.055 26.9033 245.055 21.0203C245.055 14.8988 242.273 12.6728 235.356 12.6728H196.083Z" fill="#BFBFBF"/>
<path d="M336.133 27.5393V1.78133H348.853V30.0833C348.853 48.6863 334.066 56.8748 310.455 56.8748C286.923 56.8748 272.136 48.6863 272.136 30.0833V1.78133H284.856V27.5393C284.856 40.5773 292.806 45.9833 310.455 45.9833C328.183 45.9833 336.133 40.5773 336.133 27.5393Z" fill="#BFBFBF"/>
<path d="M376.383 56.0003H363.663V1.78133H376.383V22.5308H427.581V1.78133H440.301V56.0003H427.581V33.5018H376.383V56.0003Z" fill="#BFBFBF"/>
<path d="M13.5716 28.9703C13.5716 40.5773 19.4546 45.9833 40.9196 45.9833C53.5601 45.9833 66.8366 43.6778 75.9791 41.7698L78.3641 52.3433C67.5521 54.9668 53.4011 56.9543 40.5221 56.9543C12.1406 56.9543 0.851562 47.5733 0.851562 28.9703C0.851562 10.4468 12.1406 0.986328 40.5221 0.986328C53.4011 0.986328 67.5521 2.97383 78.3641 5.59733L75.9791 16.1708C66.8366 14.3423 53.5601 11.9573 40.9196 11.9573C19.4546 11.9573 13.5716 17.3633 13.5716 28.9703Z" fill="white"/>
<path d="M123.584 12.6728H91.0685V1.78133H168.661V12.6728H136.304V56.0003H123.584V12.6728Z" fill="white"/>
<path d="M196.583 56.0003H183.863V1.78133H236.969C250.325 1.78133 258.673 6.63083 258.673 20.0663C258.673 31.7528 251.995 37.3973 239.672 38.1128L234.823 38.1923L239.434 41.2133L257.878 56.0003H241.739L220.831 38.8283H196.583V56.0003ZM196.583 12.6728V29.2088H235.856C242.773 29.2088 245.555 26.9033 245.555 21.0203C245.555 14.8988 242.773 12.6728 235.856 12.6728H196.583Z" fill="white"/>
<path d="M339.018 27.5393V1.78133H351.738V30.0833C351.738 48.6863 336.951 56.8748 313.34 56.8748C289.808 56.8748 275.021 48.6863 275.021 30.0833V1.78133H287.741V27.5393C287.741 40.5773 295.691 45.9833 313.34 45.9833C331.068 45.9833 339.018 40.5773 339.018 27.5393Z" fill="white"/>
<path d="M381.653 56.0003H368.933V1.78133H381.653V22.5308H432.851V1.78133H445.571V56.0003H432.851V33.5018H381.653V56.0003Z" fill="white"/>
</svg>
