<svg width="48" height="48" viewBox="0 0 48 48" fill="none" xmlns="http://www.w3.org/2000/svg">
<g clip-path="url(#clip0_5910_178644)">
<g filter="url(#filter0_bd_5910_178644)">
<mask id="path-1-inside-1_5910_178644" fill="white">
<path fill-rule="evenodd" clip-rule="evenodd" d="M8.62778 8.62769C4.55028 12.7052 2.25666 18.2336 2.25011 24C2.23439 28.741 3.78377 33.3546 6.65786 37.125C6.76978 37.284 6.81558 37.4803 6.78558 37.6724C6.75558 37.8645 6.65214 38.0375 6.49707 38.1548C6.34201 38.2721 6.14744 38.3247 5.9544 38.3013C5.76136 38.2779 5.58495 38.1805 5.46236 38.0295C2.39051 33.999 0.734159 29.0677 0.750114 24C0.757062 17.8359 3.20884 11.9262 7.56756 7.56747C11.9263 3.20875 17.836 0.756977 24.0001 0.750029C28.6225 0.742694 33.1397 2.12958 36.9616 4.72953C37.56 4.22628 38.3158 3.94869 39.0976 3.94503C39.7662 3.94429 40.4199 4.14191 40.9762 4.51289C41.5324 4.88386 41.966 5.41152 42.2222 6.02905C42.4784 6.64659 42.5456 7.32626 42.4154 7.98202C42.2851 8.63778 41.9633 9.24016 41.4905 9.71291C41.0177 10.1857 40.4154 10.5075 39.7596 10.6378C39.1038 10.768 38.4242 10.7008 37.8066 10.4446C37.1891 10.1884 36.6614 9.75478 36.2905 9.19857C35.9195 8.64236 35.7219 7.9886 35.7226 7.32003C35.7245 6.83463 35.8322 6.35549 36.0384 5.91603C32.4814 3.52001 28.2888 2.24324 24.0001 2.25003C18.2337 2.25658 12.7053 4.55019 8.62778 8.62769ZM44 12.2452C44.0781 12.3089 44.1425 12.3877 44.1894 12.4769C46.2089 16.0124 47.2643 20.0163 47.25 24.0878C47.2356 28.1594 46.152 32.1558 44.1076 35.6769C42.0633 39.198 39.1298 42.1204 35.601 44.1514C32.0722 46.1825 28.0717 47.2509 24.0002 47.2499C20.7707 47.2566 17.5761 46.582 14.6252 45.2699C14.312 45.6417 13.9217 45.9409 13.4814 46.1468C13.0411 46.3528 12.5613 46.4604 12.0752 46.4624C11.6315 46.4624 11.1921 46.375 10.7822 46.2052C10.3722 46.0354 9.99977 45.7865 9.68602 45.4728C9.37228 45.159 9.1234 44.7866 8.9536 44.3766C8.7838 43.9667 8.69641 43.5274 8.69641 43.0836C8.69641 42.6399 8.7838 42.2006 8.9536 41.7907C9.1234 41.3807 9.37228 41.0083 9.68602 40.6945C9.99977 40.3808 10.3722 40.1319 10.7822 39.9621C11.1921 39.7923 11.6315 39.7049 12.0752 39.7049C12.5933 39.6984 13.1059 39.8129 13.5721 40.0391C14.0383 40.2653 14.4454 40.5971 14.761 41.0081C15.0766 41.4192 15.292 41.8981 15.3901 42.4069C15.4883 42.9158 15.4665 43.4405 15.3264 43.9394C18.0603 45.1396 21.0145 45.7563 24.0002 45.7499C27.8088 45.7507 31.5509 44.7511 34.8518 42.8513C38.1528 40.9515 40.8969 38.218 42.8095 34.9244C44.7221 31.6308 45.7361 27.8926 45.75 24.084C45.7639 20.2754 44.7773 16.5299 42.8889 13.2224C42.8357 13.1368 42.8002 13.0414 42.7847 12.9419C42.7691 12.8423 42.7738 12.7406 42.7984 12.6429C42.8231 12.5452 42.8671 12.4535 42.928 12.3731C42.9889 12.2928 43.0653 12.2256 43.1527 12.1755C43.2401 12.1254 43.3368 12.0934 43.4368 12.0815C43.5369 12.0695 43.6383 12.0779 43.7351 12.106C43.8318 12.1341 43.9219 12.1815 44 12.2452ZM34.0501 25.3648C33.9036 25.6127 33.8356 25.8992 33.8551 26.1866C33.8747 26.4739 33.9808 26.7485 34.1596 26.9743C34.5608 27.3395 35.0289 27.6235 35.5381 27.8106C35.8238 23.9938 38.2283 20.4606 40.5031 18.4221C39.2396 14.6844 36.7451 11.4861 33.4276 9.35047C30.1101 7.21486 26.166 6.26836 22.2406 6.66581C22.2166 7.88081 22.1963 10.4998 22.2346 10.9678C22.3096 11.6766 22.4221 11.7253 23.0521 11.6781C24.1801 11.4258 25.2943 11.1153 26.3903 10.7481C26.8641 10.589 27.3797 10.609 27.8397 10.8043C28.2998 10.9996 28.6723 11.3565 28.8871 11.8078C29.3221 12.6973 30.2371 17.4988 30.2446 17.5468C30.2664 17.5844 30.2937 17.6185 30.3256 17.6481C31.7798 18.5788 33.2318 19.4886 34.6306 20.3481C34.9611 20.5103 35.214 20.7968 35.3339 21.1449C35.4538 21.493 35.4309 21.8745 35.2703 22.2058C35.0951 22.6348 34.9429 23.0612 34.7912 23.4866L34.7911 23.4867L34.7911 23.4867L34.791 23.487C34.5673 24.1139 34.3445 24.7384 34.0501 25.3648ZM14.4692 13.1436L14.4623 13.1495C13.7333 13.7728 12.5798 14.768 12.825 16.0168C13.8 18.5248 13.4438 19.526 11.316 20.4673C10.2869 20.888 9.44827 21.6722 8.95951 22.6708C8.28151 23.9165 7.63801 24.2188 6.57751 23.9998C6.5783 21.2429 7.23384 18.5257 8.49016 16.0717C9.74648 13.6177 11.5677 11.4972 13.8038 9.88477C14.3985 10.3168 15.549 11.4613 15.4485 11.9443C15.4373 12.3175 14.9676 12.7183 14.4692 13.1436ZM28.0892 29.6251C28.065 29.4907 28.0418 29.34 28.0173 29.1806V29.1806C27.9696 28.8711 27.9169 28.5286 27.8417 28.2083C26.3634 28.7761 23.5022 29.1173 22.4349 26.6071C22.2883 26.269 22.133 26.2773 22.0441 26.282L22.0382 26.2823C21.8192 26.3296 21.6155 26.4305 21.4453 26.5761C21.2751 26.7217 21.1438 26.9073 21.0632 27.1163C21.0681 30.769 18.2344 31.5757 16.0356 32.2016C15.9052 32.2387 15.7771 32.2752 15.6519 32.3116C15.4652 32.3018 15.2837 32.8366 15.3707 32.9228C17.9447 32.9866 19.4387 34.0478 19.6524 36.0728C23.5052 35.7068 24.0129 37.4296 24.5897 39.4276C24.6195 39.5281 24.6528 39.6396 24.6883 39.7582C24.8422 40.273 25.0361 40.9213 25.1507 41.3858C27.3762 41.2421 29.5529 40.6693 31.5609 39.6991C30.8237 38.1361 31.4894 36.6191 32.0942 35.241C32.1398 35.1373 32.185 35.0343 32.2292 34.9321L32.0915 34.8532C29.2572 33.2308 28.4273 32.7557 28.0892 29.6251ZM32.9124 38.9631C32.5434 38.1126 32.7774 37.3836 33.2341 36.4348C33.423 36.0376 33.5836 35.6276 33.7149 35.2078C33.8375 34.9425 33.8502 34.6393 33.7502 34.3646C33.6501 34.0899 33.4455 33.8659 33.1809 33.7416C32.9678 33.6185 32.7655 33.5038 32.5738 33.3949C30.6041 32.2772 29.7378 31.7857 29.5704 29.3833C29.5104 29.0083 29.4414 28.5846 29.3521 28.0708C29.324 27.8161 29.2398 27.5707 29.1056 27.3523C28.9714 27.134 28.7905 26.948 28.5759 26.8078C28.3412 26.7093 28.0875 26.6644 27.8333 26.6766C27.579 26.6888 27.3308 26.7577 27.1066 26.8783C27.0016 26.9151 24.5281 27.7498 23.8186 26.0248C23.6812 25.6359 23.4189 25.3035 23.0727 25.0793C22.7264 24.8552 22.3157 24.752 21.9046 24.7858C21.3242 24.864 20.784 25.1258 20.363 25.5329C19.942 25.9401 19.6623 26.4711 19.5646 27.0486C19.7026 29.5266 17.7834 30.1573 15.4096 30.8286C14.9767 30.9237 14.5884 31.1617 14.3071 31.5042C14.0258 31.8468 13.8678 32.2739 13.8586 32.7171C13.8194 33.1015 13.9247 33.4868 14.154 33.7978C14.3833 34.1088 14.7203 34.3232 15.0991 34.3993C16.8526 34.4211 18.0961 34.9198 18.1651 36.2338C18.2045 36.618 18.3945 36.9709 18.6935 37.2153C18.9924 37.4598 19.3761 37.5758 19.7604 37.5381C22.4211 37.3044 22.6046 37.9397 23.1502 39.8291L23.1526 39.8376C23.2085 40.0384 23.2733 40.2497 23.3388 40.4634C23.4367 40.7828 23.5363 41.1079 23.6109 41.4126C19.3266 41.3117 15.2295 39.6369 12.1014 36.7078C8.97325 33.7788 7.03308 29.8004 6.65112 25.5321C7.39117 25.6157 8.13851 25.4595 8.78319 25.0866C9.42786 24.7137 9.93584 24.1438 10.2324 23.4606C10.5576 22.7456 11.1348 22.1755 11.8539 21.8593C15.3991 20.2971 15.1606 17.9661 14.2944 15.6553C14.5343 15.0971 14.9314 14.6208 15.4374 14.2843C16.1296 13.6941 16.9149 13.0243 16.9494 11.9871C17.0491 11.1268 16.1686 9.83309 15.1096 9.01859C16.8464 7.98254 18.7516 7.25932 20.7384 6.88184C20.7121 8.21009 20.6956 10.5741 20.7384 11.0991C20.8959 12.6051 21.6886 13.2786 23.1609 13.1668C24.385 12.9256 25.5909 12.5999 26.7699 12.1918C27.2851 12.0591 27.4404 12.2661 27.5401 12.4656C28.045 14.2297 28.4556 16.0195 28.7701 17.8273C28.8715 18.2638 29.1337 18.6459 29.5044 18.8976C30.9774 19.8411 32.4361 20.7561 33.8611 21.6268L33.8761 21.6358C33.7078 22.0481 33.5548 22.4781 33.4019 22.908C33.1815 23.5276 32.9613 24.1467 32.6956 24.7108C32.4342 25.1929 32.3152 25.7393 32.3525 26.2864C32.3898 26.8335 32.5819 27.3588 32.9064 27.8008C33.5664 28.5105 34.4001 29.0358 35.3251 29.3248C35.5173 29.4027 35.726 29.4312 35.9321 29.4077C36.1381 29.3841 36.335 29.3092 36.5047 29.1899C36.6743 29.0706 36.8113 28.9107 36.9032 28.7248C36.9951 28.5388 37.0389 28.3328 37.0306 28.1256C37.0441 25.4361 39.0166 21.8631 40.9666 20.0548C41.8073 23.6534 41.4798 27.4262 40.0316 30.8261C38.5833 34.2259 36.0897 37.0761 32.9124 38.9631Z"/>
</mask>
<path fill-rule="evenodd" clip-rule="evenodd" d="M8.62778 8.62769C4.55028 12.7052 2.25666 18.2336 2.25011 24C2.23439 28.741 3.78377 33.3546 6.65786 37.125C6.76978 37.284 6.81558 37.4803 6.78558 37.6724C6.75558 37.8645 6.65214 38.0375 6.49707 38.1548C6.34201 38.2721 6.14744 38.3247 5.9544 38.3013C5.76136 38.2779 5.58495 38.1805 5.46236 38.0295C2.39051 33.999 0.734159 29.0677 0.750114 24C0.757062 17.8359 3.20884 11.9262 7.56756 7.56747C11.9263 3.20875 17.836 0.756977 24.0001 0.750029C28.6225 0.742694 33.1397 2.12958 36.9616 4.72953C37.56 4.22628 38.3158 3.94869 39.0976 3.94503C39.7662 3.94429 40.4199 4.14191 40.9762 4.51289C41.5324 4.88386 41.966 5.41152 42.2222 6.02905C42.4784 6.64659 42.5456 7.32626 42.4154 7.98202C42.2851 8.63778 41.9633 9.24016 41.4905 9.71291C41.0177 10.1857 40.4154 10.5075 39.7596 10.6378C39.1038 10.768 38.4242 10.7008 37.8066 10.4446C37.1891 10.1884 36.6614 9.75478 36.2905 9.19857C35.9195 8.64236 35.7219 7.9886 35.7226 7.32003C35.7245 6.83463 35.8322 6.35549 36.0384 5.91603C32.4814 3.52001 28.2888 2.24324 24.0001 2.25003C18.2337 2.25658 12.7053 4.55019 8.62778 8.62769ZM44 12.2452C44.0781 12.3089 44.1425 12.3877 44.1894 12.4769C46.2089 16.0124 47.2643 20.0163 47.25 24.0878C47.2356 28.1594 46.152 32.1558 44.1076 35.6769C42.0633 39.198 39.1298 42.1204 35.601 44.1514C32.0722 46.1825 28.0717 47.2509 24.0002 47.2499C20.7707 47.2566 17.5761 46.582 14.6252 45.2699C14.312 45.6417 13.9217 45.9409 13.4814 46.1468C13.0411 46.3528 12.5613 46.4604 12.0752 46.4624C11.6315 46.4624 11.1921 46.375 10.7822 46.2052C10.3722 46.0354 9.99977 45.7865 9.68602 45.4728C9.37228 45.159 9.1234 44.7866 8.9536 44.3766C8.7838 43.9667 8.69641 43.5274 8.69641 43.0836C8.69641 42.6399 8.7838 42.2006 8.9536 41.7907C9.1234 41.3807 9.37228 41.0083 9.68602 40.6945C9.99977 40.3808 10.3722 40.1319 10.7822 39.9621C11.1921 39.7923 11.6315 39.7049 12.0752 39.7049C12.5933 39.6984 13.1059 39.8129 13.5721 40.0391C14.0383 40.2653 14.4454 40.5971 14.761 41.0081C15.0766 41.4192 15.292 41.8981 15.3901 42.4069C15.4883 42.9158 15.4665 43.4405 15.3264 43.9394C18.0603 45.1396 21.0145 45.7563 24.0002 45.7499C27.8088 45.7507 31.5509 44.7511 34.8518 42.8513C38.1528 40.9515 40.8969 38.218 42.8095 34.9244C44.7221 31.6308 45.7361 27.8926 45.75 24.084C45.7639 20.2754 44.7773 16.5299 42.8889 13.2224C42.8357 13.1368 42.8002 13.0414 42.7847 12.9419C42.7691 12.8423 42.7738 12.7406 42.7984 12.6429C42.8231 12.5452 42.8671 12.4535 42.928 12.3731C42.9889 12.2928 43.0653 12.2256 43.1527 12.1755C43.2401 12.1254 43.3368 12.0934 43.4368 12.0815C43.5369 12.0695 43.6383 12.0779 43.7351 12.106C43.8318 12.1341 43.9219 12.1815 44 12.2452ZM34.0501 25.3648C33.9036 25.6127 33.8356 25.8992 33.8551 26.1866C33.8747 26.4739 33.9808 26.7485 34.1596 26.9743C34.5608 27.3395 35.0289 27.6235 35.5381 27.8106C35.8238 23.9938 38.2283 20.4606 40.5031 18.4221C39.2396 14.6844 36.7451 11.4861 33.4276 9.35047C30.1101 7.21486 26.166 6.26836 22.2406 6.66581C22.2166 7.88081 22.1963 10.4998 22.2346 10.9678C22.3096 11.6766 22.4221 11.7253 23.0521 11.6781C24.1801 11.4258 25.2943 11.1153 26.3903 10.7481C26.8641 10.589 27.3797 10.609 27.8397 10.8043C28.2998 10.9996 28.6723 11.3565 28.8871 11.8078C29.3221 12.6973 30.2371 17.4988 30.2446 17.5468C30.2664 17.5844 30.2937 17.6185 30.3256 17.6481C31.7798 18.5788 33.2318 19.4886 34.6306 20.3481C34.9611 20.5103 35.214 20.7968 35.3339 21.1449C35.4538 21.493 35.4309 21.8745 35.2703 22.2058C35.0951 22.6348 34.9429 23.0612 34.7912 23.4866L34.7911 23.4867L34.7911 23.4867L34.791 23.487C34.5673 24.1139 34.3445 24.7384 34.0501 25.3648ZM14.4692 13.1436L14.4623 13.1495C13.7333 13.7728 12.5798 14.768 12.825 16.0168C13.8 18.5248 13.4438 19.526 11.316 20.4673C10.2869 20.888 9.44827 21.6722 8.95951 22.6708C8.28151 23.9165 7.63801 24.2188 6.57751 23.9998C6.5783 21.2429 7.23384 18.5257 8.49016 16.0717C9.74648 13.6177 11.5677 11.4972 13.8038 9.88477C14.3985 10.3168 15.549 11.4613 15.4485 11.9443C15.4373 12.3175 14.9676 12.7183 14.4692 13.1436ZM28.0892 29.6251C28.065 29.4907 28.0418 29.34 28.0173 29.1806V29.1806C27.9696 28.8711 27.9169 28.5286 27.8417 28.2083C26.3634 28.7761 23.5022 29.1173 22.4349 26.6071C22.2883 26.269 22.133 26.2773 22.0441 26.282L22.0382 26.2823C21.8192 26.3296 21.6155 26.4305 21.4453 26.5761C21.2751 26.7217 21.1438 26.9073 21.0632 27.1163C21.0681 30.769 18.2344 31.5757 16.0356 32.2016C15.9052 32.2387 15.7771 32.2752 15.6519 32.3116C15.4652 32.3018 15.2837 32.8366 15.3707 32.9228C17.9447 32.9866 19.4387 34.0478 19.6524 36.0728C23.5052 35.7068 24.0129 37.4296 24.5897 39.4276C24.6195 39.5281 24.6528 39.6396 24.6883 39.7582C24.8422 40.273 25.0361 40.9213 25.1507 41.3858C27.3762 41.2421 29.5529 40.6693 31.5609 39.6991C30.8237 38.1361 31.4894 36.6191 32.0942 35.241C32.1398 35.1373 32.185 35.0343 32.2292 34.9321L32.0915 34.8532C29.2572 33.2308 28.4273 32.7557 28.0892 29.6251ZM32.9124 38.9631C32.5434 38.1126 32.7774 37.3836 33.2341 36.4348C33.423 36.0376 33.5836 35.6276 33.7149 35.2078C33.8375 34.9425 33.8502 34.6393 33.7502 34.3646C33.6501 34.0899 33.4455 33.8659 33.1809 33.7416C32.9678 33.6185 32.7655 33.5038 32.5738 33.3949C30.6041 32.2772 29.7378 31.7857 29.5704 29.3833C29.5104 29.0083 29.4414 28.5846 29.3521 28.0708C29.324 27.8161 29.2398 27.5707 29.1056 27.3523C28.9714 27.134 28.7905 26.948 28.5759 26.8078C28.3412 26.7093 28.0875 26.6644 27.8333 26.6766C27.579 26.6888 27.3308 26.7577 27.1066 26.8783C27.0016 26.9151 24.5281 27.7498 23.8186 26.0248C23.6812 25.6359 23.4189 25.3035 23.0727 25.0793C22.7264 24.8552 22.3157 24.752 21.9046 24.7858C21.3242 24.864 20.784 25.1258 20.363 25.5329C19.942 25.9401 19.6623 26.4711 19.5646 27.0486C19.7026 29.5266 17.7834 30.1573 15.4096 30.8286C14.9767 30.9237 14.5884 31.1617 14.3071 31.5042C14.0258 31.8468 13.8678 32.2739 13.8586 32.7171C13.8194 33.1015 13.9247 33.4868 14.154 33.7978C14.3833 34.1088 14.7203 34.3232 15.0991 34.3993C16.8526 34.4211 18.0961 34.9198 18.1651 36.2338C18.2045 36.618 18.3945 36.9709 18.6935 37.2153C18.9924 37.4598 19.3761 37.5758 19.7604 37.5381C22.4211 37.3044 22.6046 37.9397 23.1502 39.8291L23.1526 39.8376C23.2085 40.0384 23.2733 40.2497 23.3388 40.4634C23.4367 40.7828 23.5363 41.1079 23.6109 41.4126C19.3266 41.3117 15.2295 39.6369 12.1014 36.7078C8.97325 33.7788 7.03308 29.8004 6.65112 25.5321C7.39117 25.6157 8.13851 25.4595 8.78319 25.0866C9.42786 24.7137 9.93584 24.1438 10.2324 23.4606C10.5576 22.7456 11.1348 22.1755 11.8539 21.8593C15.3991 20.2971 15.1606 17.9661 14.2944 15.6553C14.5343 15.0971 14.9314 14.6208 15.4374 14.2843C16.1296 13.6941 16.9149 13.0243 16.9494 11.9871C17.0491 11.1268 16.1686 9.83309 15.1096 9.01859C16.8464 7.98254 18.7516 7.25932 20.7384 6.88184C20.7121 8.21009 20.6956 10.5741 20.7384 11.0991C20.8959 12.6051 21.6886 13.2786 23.1609 13.1668C24.385 12.9256 25.5909 12.5999 26.7699 12.1918C27.2851 12.0591 27.4404 12.2661 27.5401 12.4656C28.045 14.2297 28.4556 16.0195 28.7701 17.8273C28.8715 18.2638 29.1337 18.6459 29.5044 18.8976C30.9774 19.8411 32.4361 20.7561 33.8611 21.6268L33.8761 21.6358C33.7078 22.0481 33.5548 22.4781 33.4019 22.908C33.1815 23.5276 32.9613 24.1467 32.6956 24.7108C32.4342 25.1929 32.3152 25.7393 32.3525 26.2864C32.3898 26.8335 32.5819 27.3588 32.9064 27.8008C33.5664 28.5105 34.4001 29.0358 35.3251 29.3248C35.5173 29.4027 35.726 29.4312 35.9321 29.4077C36.1381 29.3841 36.335 29.3092 36.5047 29.1899C36.6743 29.0706 36.8113 28.9107 36.9032 28.7248C36.9951 28.5388 37.0389 28.3328 37.0306 28.1256C37.0441 25.4361 39.0166 21.8631 40.9666 20.0548C41.8073 23.6534 41.4798 27.4262 40.0316 30.8261C38.5833 34.2259 36.0897 37.0761 32.9124 38.9631Z" fill="url(#paint0_linear_5910_178644)" fill-opacity="0.8" shape-rendering="crispEdges"/>
<path fill-rule="evenodd" clip-rule="evenodd" d="M8.62778 8.62769C4.55028 12.7052 2.25666 18.2336 2.25011 24C2.23439 28.741 3.78377 33.3546 6.65786 37.125C6.76978 37.284 6.81558 37.4803 6.78558 37.6724C6.75558 37.8645 6.65214 38.0375 6.49707 38.1548C6.34201 38.2721 6.14744 38.3247 5.9544 38.3013C5.76136 38.2779 5.58495 38.1805 5.46236 38.0295C2.39051 33.999 0.734159 29.0677 0.750114 24C0.757062 17.8359 3.20884 11.9262 7.56756 7.56747C11.9263 3.20875 17.836 0.756977 24.0001 0.750029C28.6225 0.742694 33.1397 2.12958 36.9616 4.72953C37.56 4.22628 38.3158 3.94869 39.0976 3.94503C39.7662 3.94429 40.4199 4.14191 40.9762 4.51289C41.5324 4.88386 41.966 5.41152 42.2222 6.02905C42.4784 6.64659 42.5456 7.32626 42.4154 7.98202C42.2851 8.63778 41.9633 9.24016 41.4905 9.71291C41.0177 10.1857 40.4154 10.5075 39.7596 10.6378C39.1038 10.768 38.4242 10.7008 37.8066 10.4446C37.1891 10.1884 36.6614 9.75478 36.2905 9.19857C35.9195 8.64236 35.7219 7.9886 35.7226 7.32003C35.7245 6.83463 35.8322 6.35549 36.0384 5.91603C32.4814 3.52001 28.2888 2.24324 24.0001 2.25003C18.2337 2.25658 12.7053 4.55019 8.62778 8.62769ZM44 12.2452C44.0781 12.3089 44.1425 12.3877 44.1894 12.4769C46.2089 16.0124 47.2643 20.0163 47.25 24.0878C47.2356 28.1594 46.152 32.1558 44.1076 35.6769C42.0633 39.198 39.1298 42.1204 35.601 44.1514C32.0722 46.1825 28.0717 47.2509 24.0002 47.2499C20.7707 47.2566 17.5761 46.582 14.6252 45.2699C14.312 45.6417 13.9217 45.9409 13.4814 46.1468C13.0411 46.3528 12.5613 46.4604 12.0752 46.4624C11.6315 46.4624 11.1921 46.375 10.7822 46.2052C10.3722 46.0354 9.99977 45.7865 9.68602 45.4728C9.37228 45.159 9.1234 44.7866 8.9536 44.3766C8.7838 43.9667 8.69641 43.5274 8.69641 43.0836C8.69641 42.6399 8.7838 42.2006 8.9536 41.7907C9.1234 41.3807 9.37228 41.0083 9.68602 40.6945C9.99977 40.3808 10.3722 40.1319 10.7822 39.9621C11.1921 39.7923 11.6315 39.7049 12.0752 39.7049C12.5933 39.6984 13.1059 39.8129 13.5721 40.0391C14.0383 40.2653 14.4454 40.5971 14.761 41.0081C15.0766 41.4192 15.292 41.8981 15.3901 42.4069C15.4883 42.9158 15.4665 43.4405 15.3264 43.9394C18.0603 45.1396 21.0145 45.7563 24.0002 45.7499C27.8088 45.7507 31.5509 44.7511 34.8518 42.8513C38.1528 40.9515 40.8969 38.218 42.8095 34.9244C44.7221 31.6308 45.7361 27.8926 45.75 24.084C45.7639 20.2754 44.7773 16.5299 42.8889 13.2224C42.8357 13.1368 42.8002 13.0414 42.7847 12.9419C42.7691 12.8423 42.7738 12.7406 42.7984 12.6429C42.8231 12.5452 42.8671 12.4535 42.928 12.3731C42.9889 12.2928 43.0653 12.2256 43.1527 12.1755C43.2401 12.1254 43.3368 12.0934 43.4368 12.0815C43.5369 12.0695 43.6383 12.0779 43.7351 12.106C43.8318 12.1341 43.9219 12.1815 44 12.2452ZM34.0501 25.3648C33.9036 25.6127 33.8356 25.8992 33.8551 26.1866C33.8747 26.4739 33.9808 26.7485 34.1596 26.9743C34.5608 27.3395 35.0289 27.6235 35.5381 27.8106C35.8238 23.9938 38.2283 20.4606 40.5031 18.4221C39.2396 14.6844 36.7451 11.4861 33.4276 9.35047C30.1101 7.21486 26.166 6.26836 22.2406 6.66581C22.2166 7.88081 22.1963 10.4998 22.2346 10.9678C22.3096 11.6766 22.4221 11.7253 23.0521 11.6781C24.1801 11.4258 25.2943 11.1153 26.3903 10.7481C26.8641 10.589 27.3797 10.609 27.8397 10.8043C28.2998 10.9996 28.6723 11.3565 28.8871 11.8078C29.3221 12.6973 30.2371 17.4988 30.2446 17.5468C30.2664 17.5844 30.2937 17.6185 30.3256 17.6481C31.7798 18.5788 33.2318 19.4886 34.6306 20.3481C34.9611 20.5103 35.214 20.7968 35.3339 21.1449C35.4538 21.493 35.4309 21.8745 35.2703 22.2058C35.0951 22.6348 34.9429 23.0612 34.7912 23.4866L34.7911 23.4867L34.7911 23.4867L34.791 23.487C34.5673 24.1139 34.3445 24.7384 34.0501 25.3648ZM14.4692 13.1436L14.4623 13.1495C13.7333 13.7728 12.5798 14.768 12.825 16.0168C13.8 18.5248 13.4438 19.526 11.316 20.4673C10.2869 20.888 9.44827 21.6722 8.95951 22.6708C8.28151 23.9165 7.63801 24.2188 6.57751 23.9998C6.5783 21.2429 7.23384 18.5257 8.49016 16.0717C9.74648 13.6177 11.5677 11.4972 13.8038 9.88477C14.3985 10.3168 15.549 11.4613 15.4485 11.9443C15.4373 12.3175 14.9676 12.7183 14.4692 13.1436ZM28.0892 29.6251C28.065 29.4907 28.0418 29.34 28.0173 29.1806V29.1806C27.9696 28.8711 27.9169 28.5286 27.8417 28.2083C26.3634 28.7761 23.5022 29.1173 22.4349 26.6071C22.2883 26.269 22.133 26.2773 22.0441 26.282L22.0382 26.2823C21.8192 26.3296 21.6155 26.4305 21.4453 26.5761C21.2751 26.7217 21.1438 26.9073 21.0632 27.1163C21.0681 30.769 18.2344 31.5757 16.0356 32.2016C15.9052 32.2387 15.7771 32.2752 15.6519 32.3116C15.4652 32.3018 15.2837 32.8366 15.3707 32.9228C17.9447 32.9866 19.4387 34.0478 19.6524 36.0728C23.5052 35.7068 24.0129 37.4296 24.5897 39.4276C24.6195 39.5281 24.6528 39.6396 24.6883 39.7582C24.8422 40.273 25.0361 40.9213 25.1507 41.3858C27.3762 41.2421 29.5529 40.6693 31.5609 39.6991C30.8237 38.1361 31.4894 36.6191 32.0942 35.241C32.1398 35.1373 32.185 35.0343 32.2292 34.9321L32.0915 34.8532C29.2572 33.2308 28.4273 32.7557 28.0892 29.6251ZM32.9124 38.9631C32.5434 38.1126 32.7774 37.3836 33.2341 36.4348C33.423 36.0376 33.5836 35.6276 33.7149 35.2078C33.8375 34.9425 33.8502 34.6393 33.7502 34.3646C33.6501 34.0899 33.4455 33.8659 33.1809 33.7416C32.9678 33.6185 32.7655 33.5038 32.5738 33.3949C30.6041 32.2772 29.7378 31.7857 29.5704 29.3833C29.5104 29.0083 29.4414 28.5846 29.3521 28.0708C29.324 27.8161 29.2398 27.5707 29.1056 27.3523C28.9714 27.134 28.7905 26.948 28.5759 26.8078C28.3412 26.7093 28.0875 26.6644 27.8333 26.6766C27.579 26.6888 27.3308 26.7577 27.1066 26.8783C27.0016 26.9151 24.5281 27.7498 23.8186 26.0248C23.6812 25.6359 23.4189 25.3035 23.0727 25.0793C22.7264 24.8552 22.3157 24.752 21.9046 24.7858C21.3242 24.864 20.784 25.1258 20.363 25.5329C19.942 25.9401 19.6623 26.4711 19.5646 27.0486C19.7026 29.5266 17.7834 30.1573 15.4096 30.8286C14.9767 30.9237 14.5884 31.1617 14.3071 31.5042C14.0258 31.8468 13.8678 32.2739 13.8586 32.7171C13.8194 33.1015 13.9247 33.4868 14.154 33.7978C14.3833 34.1088 14.7203 34.3232 15.0991 34.3993C16.8526 34.4211 18.0961 34.9198 18.1651 36.2338C18.2045 36.618 18.3945 36.9709 18.6935 37.2153C18.9924 37.4598 19.3761 37.5758 19.7604 37.5381C22.4211 37.3044 22.6046 37.9397 23.1502 39.8291L23.1526 39.8376C23.2085 40.0384 23.2733 40.2497 23.3388 40.4634C23.4367 40.7828 23.5363 41.1079 23.6109 41.4126C19.3266 41.3117 15.2295 39.6369 12.1014 36.7078C8.97325 33.7788 7.03308 29.8004 6.65112 25.5321C7.39117 25.6157 8.13851 25.4595 8.78319 25.0866C9.42786 24.7137 9.93584 24.1438 10.2324 23.4606C10.5576 22.7456 11.1348 22.1755 11.8539 21.8593C15.3991 20.2971 15.1606 17.9661 14.2944 15.6553C14.5343 15.0971 14.9314 14.6208 15.4374 14.2843C16.1296 13.6941 16.9149 13.0243 16.9494 11.9871C17.0491 11.1268 16.1686 9.83309 15.1096 9.01859C16.8464 7.98254 18.7516 7.25932 20.7384 6.88184C20.7121 8.21009 20.6956 10.5741 20.7384 11.0991C20.8959 12.6051 21.6886 13.2786 23.1609 13.1668C24.385 12.9256 25.5909 12.5999 26.7699 12.1918C27.2851 12.0591 27.4404 12.2661 27.5401 12.4656C28.045 14.2297 28.4556 16.0195 28.7701 17.8273C28.8715 18.2638 29.1337 18.6459 29.5044 18.8976C30.9774 19.8411 32.4361 20.7561 33.8611 21.6268L33.8761 21.6358C33.7078 22.0481 33.5548 22.4781 33.4019 22.908C33.1815 23.5276 32.9613 24.1467 32.6956 24.7108C32.4342 25.1929 32.3152 25.7393 32.3525 26.2864C32.3898 26.8335 32.5819 27.3588 32.9064 27.8008C33.5664 28.5105 34.4001 29.0358 35.3251 29.3248C35.5173 29.4027 35.726 29.4312 35.9321 29.4077C36.1381 29.3841 36.335 29.3092 36.5047 29.1899C36.6743 29.0706 36.8113 28.9107 36.9032 28.7248C36.9951 28.5388 37.0389 28.3328 37.0306 28.1256C37.0441 25.4361 39.0166 21.8631 40.9666 20.0548C41.8073 23.6534 41.4798 27.4262 40.0316 30.8261C38.5833 34.2259 36.0897 37.0761 32.9124 38.9631Z" fill="#344254" fill-opacity="0.15" shape-rendering="crispEdges"/>
<path d="M2.25011 24L3.05011 24.0027L3.05011 24.0009L2.25011 24ZM8.62778 8.62769L8.06209 8.06201L8.06209 8.06201L8.62778 8.62769ZM6.65786 37.125L7.31206 36.6646L7.30331 36.6521L7.2941 36.64L6.65786 37.125ZM5.9544 38.3013L6.05057 37.5071L6.05056 37.5071L5.9544 38.3013ZM5.46236 38.0295L4.82609 38.5145L4.83358 38.5243L4.84136 38.5339L5.46236 38.0295ZM0.750114 24L1.55011 24.0025L1.55011 24.0009L0.750114 24ZM7.56756 7.56747L8.13324 8.13316L8.13324 8.13316L7.56756 7.56747ZM24.0001 0.750029L24.001 1.55003L24.0014 1.55003L24.0001 0.750029ZM36.9616 4.72953L36.5116 5.39099L37.0127 5.73187L37.4766 5.34177L36.9616 4.72953ZM39.0976 3.94503L39.0967 3.14502L39.0939 3.14504L39.0976 3.94503ZM40.9762 4.51289L41.4201 3.84734L41.4201 3.84734L40.9762 4.51289ZM42.2222 6.02905L41.4833 6.33561L41.4833 6.33561L42.2222 6.02905ZM42.4154 7.98202L41.6307 7.82616L41.6307 7.82617L42.4154 7.98202ZM39.7596 10.6378L39.9155 11.4225L39.9155 11.4225L39.7596 10.6378ZM37.8066 10.4446L38.1132 9.70568L38.1132 9.70568L37.8066 10.4446ZM35.7226 7.32003L34.9226 7.31694L34.9226 7.31914L35.7226 7.32003ZM36.0384 5.91603L36.7627 6.25574L37.0536 5.63535L36.4853 5.25252L36.0384 5.91603ZM24.0001 2.25003L24.001 3.05003L24.0014 3.05003L24.0001 2.25003ZM44.1894 12.4769L43.4815 12.8495L43.4879 12.8617L43.4947 12.8737L44.1894 12.4769ZM47.25 24.0878L46.45 24.085L46.45 24.085L47.25 24.0878ZM44.1076 35.6769L44.7995 36.0786L44.7995 36.0786L44.1076 35.6769ZM35.601 44.1514L35.2019 43.4581L35.2019 43.4581L35.601 44.1514ZM24.0002 47.2499L24.0004 46.4499L23.9985 46.4499L24.0002 47.2499ZM14.6252 45.2699L14.9502 44.5389L14.4007 44.2946L14.0133 44.7545L14.6252 45.2699ZM13.4814 46.1468L13.8203 46.8715L13.8203 46.8715L13.4814 46.1468ZM12.0752 46.4624L12.0752 47.2624L12.0784 47.2624L12.0752 46.4624ZM10.7822 46.2052L11.0883 45.4661L11.0883 45.4661L10.7822 46.2052ZM9.68602 45.4728L10.2517 44.9071L10.2517 44.9071L9.68602 45.4728ZM8.9536 41.7907L8.2145 41.4845L8.2145 41.4845L8.9536 41.7907ZM9.68602 40.6945L9.12034 40.1288L9.12034 40.1288L9.68602 40.6945ZM10.7822 39.9621L10.476 39.223L10.476 39.223L10.7822 39.9621ZM12.0752 39.7049L12.0752 40.505L12.0851 40.5048L12.0752 39.7049ZM15.3901 42.4069L14.6046 42.5585L14.6046 42.5585L15.3901 42.4069ZM15.3264 43.9394L14.5562 43.7232L14.3683 44.3925L15.0048 44.6719L15.3264 43.9394ZM24.0002 45.7499L24.0003 44.9499L23.9984 44.9499L24.0002 45.7499ZM34.8518 42.8513L34.4528 42.1579L34.4528 42.1579L34.8518 42.8513ZM42.8095 34.9244L42.1176 34.5226L42.1176 34.5226L42.8095 34.9244ZM42.8889 13.2224L43.5836 12.8257L43.5761 12.8126L43.5681 12.7998L42.8889 13.2224ZM42.7847 12.9419L41.9943 13.0653L41.9943 13.0653L42.7847 12.9419ZM42.928 12.3731L43.5655 12.8564L43.5656 12.8564L42.928 12.3731ZM43.7351 12.106L43.9584 11.3378L43.9584 11.3378L43.7351 12.106ZM34.0501 25.3648L34.7388 25.7718L34.758 25.7393L34.7741 25.7051L34.0501 25.3648ZM34.1596 26.9743L33.5323 27.4709L33.5728 27.522L33.6211 27.5659L34.1596 26.9743ZM35.5381 27.8106L35.2622 28.5615L36.2567 28.9269L36.3358 27.8703L35.5381 27.8106ZM40.5031 18.4221L41.037 19.0178L41.4299 18.6657L41.261 18.1659L40.5031 18.4221ZM33.4276 9.35047L33.8606 8.67779L33.8606 8.67779L33.4276 9.35047ZM22.2406 6.66581L22.16 5.86988L21.4547 5.94129L21.4407 6.65001L22.2406 6.66581ZM22.2346 10.9678L21.4372 11.033L21.438 11.0425L21.439 11.052L22.2346 10.9678ZM23.0521 11.6781L23.1119 12.4758L23.1699 12.4715L23.2267 12.4588L23.0521 11.6781ZM26.3903 10.7481L26.6445 11.5066L26.6449 11.5065L26.3903 10.7481ZM27.8397 10.8043L28.1523 10.0679L28.1523 10.0679L27.8397 10.8043ZM28.8871 11.8078L28.1647 12.1516L28.1684 12.1593L28.8871 11.8078ZM30.2446 17.5468L29.4542 17.6703L29.4773 17.8185L29.5526 17.9482L30.2446 17.5468ZM30.3256 17.6481L29.782 18.235L29.8343 18.2835L29.8943 18.3219L30.3256 17.6481ZM34.6306 20.3481L34.2118 21.0297L34.2441 21.0495L34.2782 21.0662L34.6306 20.3481ZM35.3339 21.1449L34.5775 21.4054L34.5775 21.4054L35.3339 21.1449ZM35.2703 22.2058L34.5504 21.8569L34.5393 21.8798L34.5297 21.9033L35.2703 22.2058ZM34.7912 23.4866L34.0377 23.2178L34.029 23.242L34.0219 23.2668L34.7912 23.4866ZM34.7911 23.4867L35.5467 23.7495L35.5541 23.7282L35.5604 23.7065L34.7911 23.4867ZM34.791 23.487L35.5445 23.7558L35.5466 23.7498L34.791 23.487ZM14.4623 13.1495L13.943 12.5409L13.9424 12.5414L14.4623 13.1495ZM14.4692 13.1436L14.9885 13.7522L14.9885 13.7521L14.4692 13.1436ZM12.825 16.0168L12.04 16.1709L12.0537 16.2405L12.0794 16.3066L12.825 16.0168ZM11.316 20.4673L11.6187 21.2078L11.6293 21.2035L11.6397 21.1989L11.316 20.4673ZM8.95951 22.6708L9.66219 23.0532L9.67046 23.038L9.67806 23.0225L8.95951 22.6708ZM6.57751 23.9998L5.77751 23.9995L5.77733 24.6514L6.41572 24.7832L6.57751 23.9998ZM8.49016 16.0717L7.77806 15.7071L7.77806 15.7071L8.49016 16.0717ZM13.8038 9.88477L14.2739 9.23749L13.8055 8.89723L13.3358 9.23588L13.8038 9.88477ZM15.4485 11.9443L14.6653 11.7813L14.651 11.8501L14.6489 11.9203L15.4485 11.9443ZM28.0173 29.1806H27.2173V29.2418L27.2266 29.3023L28.0173 29.1806ZM28.0892 29.6251L28.8846 29.5392L28.8815 29.511L28.8765 29.4832L28.0892 29.6251ZM28.0173 29.1806H28.8173V29.1194L28.8079 29.059L28.0173 29.1806ZM27.8417 28.2083L28.6205 28.0254L28.4108 27.1328L27.5549 27.4615L27.8417 28.2083ZM22.4349 26.6071L23.1712 26.2941L23.1688 26.2887L22.4349 26.6071ZM22.0441 26.282L22.086 27.0809L22.0868 27.0809L22.0441 26.282ZM22.0382 26.2823L21.9964 25.4834L21.9323 25.4868L21.8695 25.5003L22.0382 26.2823ZM21.0632 27.1163L20.3167 26.8285L20.263 26.968L20.2632 27.1174L21.0632 27.1163ZM16.0356 32.2016L15.8166 31.4322L15.8166 31.4322L16.0356 32.2016ZM15.6519 32.3116L15.6102 33.1105L15.7454 33.1176L15.8753 33.0798L15.6519 32.3116ZM15.3707 32.9228L14.8075 33.491L15.0332 33.7147L15.3509 33.7226L15.3707 32.9228ZM19.6524 36.0728L18.8569 36.1568L18.94 36.9441L19.7281 36.8692L19.6524 36.0728ZM24.5897 39.4276L23.8211 39.6495L23.8226 39.6547L24.5897 39.4276ZM24.6883 39.7582L25.4547 39.529L25.4547 39.529L24.6883 39.7582ZM25.1507 41.3858L24.374 41.5775L24.5343 42.2273L25.2022 42.1842L25.1507 41.3858ZM31.5609 39.6991L31.909 40.4194L32.6226 40.0746L32.2845 39.3578L31.5609 39.6991ZM32.0942 35.241L31.3616 34.9196L31.3616 34.9196L32.0942 35.241ZM32.2292 34.9321L32.9633 35.2499L33.2476 34.5933L32.6267 34.2378L32.2292 34.9321ZM32.0915 34.8532L32.489 34.159L32.4889 34.1589L32.0915 34.8532ZM33.2341 36.4348L33.9549 36.7819L33.9566 36.7783L33.2341 36.4348ZM32.9124 38.9631L32.1785 39.2815L32.54 40.1147L33.3209 39.6509L32.9124 38.9631ZM33.7149 35.2078L32.9887 34.8722L32.9669 34.9195L32.9513 34.9691L33.7149 35.2078ZM33.7502 34.3646L32.9985 34.6384L32.9985 34.6384L33.7502 34.3646ZM33.1809 33.7416L32.7808 34.4344L32.81 34.4512L32.8406 34.4656L33.1809 33.7416ZM32.5738 33.3949L32.1789 34.0907L32.1789 34.0907L32.5738 33.3949ZM29.5704 29.3833L30.3684 29.3277L30.366 29.2921L30.3603 29.2569L29.5704 29.3833ZM29.3521 28.0708L28.557 28.1587L28.5597 28.1833L28.5639 28.2078L29.3521 28.0708ZM29.1056 27.3523L28.424 27.7712L28.424 27.7712L29.1056 27.3523ZM28.5759 26.8078L29.0134 26.1381L28.9526 26.0984L28.8857 26.0703L28.5759 26.8078ZM27.1066 26.8783L27.3709 27.6334L27.4303 27.6126L27.4857 27.5828L27.1066 26.8783ZM23.8186 26.0248L23.0643 26.2914L23.0711 26.3104L23.0788 26.3291L23.8186 26.0248ZM21.9046 24.7858L21.839 23.9885L21.8183 23.9902L21.7978 23.993L21.9046 24.7858ZM19.5646 27.0486L18.7758 26.9152L18.7609 27.0036L18.7659 27.0931L19.5646 27.0486ZM15.4096 30.8286L15.5814 31.6099L15.6045 31.6048L15.6273 31.5984L15.4096 30.8286ZM13.8586 32.7171L14.6545 32.7984L14.6578 32.7661L14.6585 32.7337L13.8586 32.7171ZM14.154 33.7978L13.5101 34.2726L13.5101 34.2726L14.154 33.7978ZM15.0991 34.3993L14.9416 35.1837L15.0147 35.1984L15.0892 35.1993L15.0991 34.3993ZM18.1651 36.2338L17.3662 36.2758L17.3673 36.2957L17.3693 36.3155L18.1651 36.2338ZM18.6935 37.2153L18.1871 37.8347L18.1871 37.8347L18.6935 37.2153ZM19.7604 37.5381L19.6904 36.7411L19.6822 36.7419L19.7604 37.5381ZM23.1502 39.8291L22.3816 40.051L22.3816 40.0511L23.1502 39.8291ZM23.1526 39.8376L23.9233 39.623L23.9212 39.6156L23.1526 39.8376ZM23.3388 40.4634L24.1037 40.229L24.1037 40.229L23.3388 40.4634ZM23.6109 41.4126L23.592 42.2124L24.6363 42.237L24.3879 41.2223L23.6109 41.4126ZM6.65112 25.5321L6.7409 24.7371L5.76695 24.6271L5.85431 25.6034L6.65112 25.5321ZM8.78319 25.0866L9.18375 25.7791L9.18375 25.7791L8.78319 25.0866ZM10.2324 23.4606L9.50404 23.1293L9.49852 23.1421L10.2324 23.4606ZM11.8539 21.8593L12.1759 22.5917L12.1765 22.5914L11.8539 21.8593ZM14.2944 15.6553L13.5594 15.3394L13.4324 15.635L13.5453 15.9362L14.2944 15.6553ZM15.4374 14.2843L15.8803 14.9505L15.9201 14.9241L15.9564 14.8931L15.4374 14.2843ZM16.9494 11.9871L16.1547 11.8949L16.1509 11.9276L16.1498 11.9605L16.9494 11.9871ZM15.1096 9.01859L14.6998 8.33154L13.6885 8.93481L14.6219 9.65272L15.1096 9.01859ZM20.7384 6.88184L21.5382 6.89764L21.5577 5.91185L20.589 6.0959L20.7384 6.88184ZM20.7384 11.0991L19.941 11.164L19.9418 11.1732L19.9427 11.1823L20.7384 11.0991ZM23.1609 13.1668L23.2214 13.9645L23.2689 13.9609L23.3155 13.9517L23.1609 13.1668ZM26.7699 12.1918L26.5703 11.4171L26.5389 11.4252L26.5082 11.4358L26.7699 12.1918ZM27.5401 12.4656L28.3092 12.2455L28.2888 12.1742L28.2557 12.1078L27.5401 12.4656ZM28.7701 17.8273L27.982 17.9645L27.9858 17.9865L27.9909 18.0083L28.7701 17.8273ZM29.5044 18.8976L29.055 19.5595L29.0639 19.5655L29.0729 19.5712L29.5044 18.8976ZM33.8611 21.6268L33.444 22.3095L33.4494 22.3128L33.8611 21.6268ZM33.8761 21.6358L34.6168 21.9383L34.8762 21.303L34.2878 20.9499L33.8761 21.6358ZM33.4019 22.908L34.1557 23.1761L34.1557 23.1761L33.4019 22.908ZM32.6956 24.7108L33.3989 25.0923L33.4097 25.0723L33.4194 25.0517L32.6956 24.7108ZM32.3525 26.2864L33.1506 26.232L33.1506 26.232L32.3525 26.2864ZM32.9064 27.8008L32.2614 28.2742L32.2889 28.3116L32.3206 28.3456L32.9064 27.8008ZM35.3251 29.3248L35.6256 28.5834L35.5951 28.5711L35.5637 28.5612L35.3251 29.3248ZM35.9321 29.4077L36.023 30.2025L36.023 30.2025L35.9321 29.4077ZM36.5047 29.1899L36.9648 29.8443L36.9648 29.8443L36.5047 29.1899ZM36.9032 28.7248L36.186 28.3703L36.186 28.3703L36.9032 28.7248ZM37.0306 28.1256L36.2306 28.1216L36.2305 28.1396L36.2313 28.1576L37.0306 28.1256ZM40.9666 20.0548L41.7456 19.8728L41.4324 18.5319L40.4227 19.4682L40.9666 20.0548ZM40.0316 30.8261L39.2956 30.5126L39.2956 30.5126L40.0316 30.8261ZM3.05011 24.0009C3.05642 18.4463 5.26577 13.1211 9.19346 9.19338L8.06209 8.06201C3.83479 12.2893 1.45691 18.0208 1.45011 23.9991L3.05011 24.0009ZM7.2941 36.64C4.52678 33.0097 3.03497 28.5675 3.05011 24.0027L1.45012 23.9974C1.43381 28.9145 3.04075 33.6995 6.02163 37.61L7.2941 36.64ZM7.576 37.7958C7.638 37.3988 7.54336 36.9932 7.31206 36.6646L6.00367 37.5855C5.99621 37.5749 5.99315 37.5618 5.99516 37.549L7.576 37.7958ZM6.97976 38.7928C7.30023 38.5503 7.51401 38.1929 7.576 37.7958L5.99516 37.549C5.99715 37.5362 6.00405 37.5247 6.01439 37.5168L6.97976 38.7928ZM5.85822 39.0955C6.25718 39.1438 6.65929 39.0353 6.97976 38.7928L6.01439 37.5168C6.02472 37.509 6.03769 37.5055 6.05057 37.5071L5.85822 39.0955ZM4.84136 38.5339C5.09469 38.8458 5.45928 39.0472 5.85824 39.0955L6.05056 37.5071C6.06344 37.5086 6.0752 37.5151 6.08337 37.5252L4.84136 38.5339ZM-0.0498819 23.9975C-0.066392 29.2412 1.64751 34.3439 4.82609 38.5145L6.09863 37.5446C3.13351 33.6541 1.53471 28.8941 1.55011 24.0025L-0.0498819 23.9975ZM7.00187 7.00178C2.49335 11.5103 -0.0426988 17.6231 -0.0498854 23.9991L1.55011 24.0009C1.55682 18.0486 3.92433 12.3421 8.13324 8.13316L7.00187 7.00178ZM23.9992 -0.0499706C17.6232 -0.0427841 11.5104 2.49326 7.00187 7.00178L8.13324 8.13316C12.3421 3.92425 18.0487 1.55674 24.001 1.55003L23.9992 -0.0499706ZM37.4116 4.06807C33.4566 1.37761 28.7822 -0.0575607 23.9988 -0.0499701L24.0014 1.55003C28.4629 1.54295 32.8228 2.88155 36.5116 5.39099L37.4116 4.06807ZM39.0939 3.14504C38.1249 3.14957 37.1882 3.4936 36.4467 4.11729L37.4766 5.34177C37.9317 4.95896 38.5066 4.7478 39.1014 4.74502L39.0939 3.14504ZM41.4201 3.84734C40.7322 3.38853 39.9236 3.14411 39.0967 3.14503L39.0985 4.74503C39.6088 4.74446 40.1077 4.89529 40.5323 5.17843L41.4201 3.84734ZM42.9611 5.7225C42.6443 4.95874 42.108 4.30616 41.4201 3.84734L40.5323 5.17843C40.9568 5.46157 41.2877 5.86429 41.4833 6.33561L42.9611 5.7225ZM43.2 8.13788C43.3611 7.32684 43.278 6.48625 42.9611 5.7225L41.4833 6.33561C41.6788 6.80693 41.7301 7.32567 41.6307 7.82616L43.2 8.13788ZM42.0562 10.2786C42.6409 9.69391 43.039 8.9489 43.2 8.13787L41.6307 7.82617C41.5313 8.32666 41.2856 8.78641 40.9248 9.14723L42.0562 10.2786ZM39.9155 11.4225C40.7265 11.2614 41.4715 10.8633 42.0562 10.2786L40.9248 9.14723C40.564 9.50804 40.1042 9.75371 39.6037 9.85312L39.9155 11.4225ZM37.5001 11.1836C38.2638 11.5004 39.1044 11.5835 39.9155 11.4225L39.6038 9.85312C39.1033 9.95253 38.5845 9.90122 38.1132 9.70568L37.5001 11.1836ZM35.6249 9.64247C36.0837 10.3304 36.7363 10.8667 37.5001 11.1836L38.1132 9.70568C37.6419 9.51015 37.2392 9.17918 36.956 8.75467L35.6249 9.64247ZM34.9226 7.31914C34.9217 8.14601 35.1661 8.95457 35.6249 9.64247L36.956 8.75467C36.6729 8.33016 36.522 7.83119 36.5226 7.32091L34.9226 7.31914ZM35.3141 5.57632C35.0585 6.12115 34.9249 6.71517 34.9226 7.31694L36.5226 7.32312C36.524 6.9541 36.606 6.58984 36.7627 6.25574L35.3141 5.57632ZM24.0014 3.05003C28.1304 3.0435 32.1669 4.27273 35.5914 6.57953L36.4853 5.25252C32.7959 2.7673 28.4472 1.44299 23.9988 1.45003L24.0014 3.05003ZM9.19346 9.19338C13.1212 5.26569 18.4464 3.05634 24.001 3.05003L23.9992 1.45003C18.0209 1.45682 12.2894 3.8347 8.06209 8.06201L9.19346 9.19338ZM44.8974 12.1043C44.8004 11.9201 44.6673 11.7572 44.5059 11.6255L43.4941 12.8649C43.4889 12.8607 43.4846 12.8554 43.4815 12.8495L44.8974 12.1043ZM48.05 24.0906C48.0648 19.8789 46.9731 15.7372 44.8841 12.0801L43.4947 12.8737C45.4447 16.2875 46.4638 20.1536 46.45 24.085L48.05 24.0906ZM44.7995 36.0786C46.9142 32.4362 48.0351 28.3023 48.05 24.0906L46.45 24.085C46.4361 28.0164 45.3898 31.8753 43.4158 35.2752L44.7995 36.0786ZM36.0001 44.8448C39.6504 42.7438 42.6847 39.7209 44.7995 36.0786L43.4158 35.2752C41.4418 38.6751 38.6093 41.4969 35.2019 43.4581L36.0001 44.8448ZM24 48.0499C28.2117 48.051 32.3498 46.9457 36.0001 44.8448L35.2019 43.4581C31.7946 45.4192 27.9318 46.4509 24.0004 46.4499L24 48.0499ZM14.3001 46.0009C17.3539 47.3587 20.6598 48.0569 24.0018 48.0499L23.9985 46.4499C20.8815 46.4564 17.7983 45.8052 14.9502 44.5389L14.3001 46.0009ZM13.8203 46.8715C14.3657 46.6164 14.8492 46.2458 15.237 45.7853L14.0133 44.7545C13.7749 45.0376 13.4778 45.2654 13.1425 45.4222L13.8203 46.8715ZM12.0784 47.2624C12.6805 47.26 13.2749 47.1266 13.8203 46.8715L13.1425 45.4222C12.8073 45.5789 12.442 45.6609 12.0719 45.6624L12.0784 47.2624ZM10.476 46.9443C10.983 47.1543 11.5264 47.2624 12.0752 47.2624V45.6624C11.7365 45.6624 11.4012 45.5957 11.0883 45.4661L10.476 46.9443ZM9.12034 46.0385C9.50837 46.4265 9.96903 46.7343 10.476 46.9443L11.0883 45.4661C10.7754 45.3365 10.4912 45.1466 10.2517 44.9071L9.12034 46.0385ZM8.2145 44.6828C8.4245 45.1898 8.7323 45.6504 9.12034 46.0385L10.2517 44.9071C10.0123 44.6676 9.8223 44.3834 9.69271 44.0705L8.2145 44.6828ZM7.89641 43.0836C7.89641 43.6324 8.0045 44.1758 8.2145 44.6828L9.69271 44.0705C9.56311 43.7576 9.49641 43.4223 9.49641 43.0836H7.89641ZM8.2145 41.4845C8.0045 41.9915 7.89641 42.5349 7.89641 43.0836H9.49641C9.49641 42.745 9.56311 42.4097 9.69271 42.0968L8.2145 41.4845ZM9.12034 40.1288C8.73231 40.5169 8.4245 40.9775 8.2145 41.4845L9.69271 42.0968C9.8223 41.7839 10.0123 41.4997 10.2517 41.2602L9.12034 40.1288ZM10.476 39.223C9.96903 39.433 9.50837 39.7408 9.12034 40.1288L10.2517 41.2602C10.4912 41.0207 10.7754 40.8308 11.0883 40.7012L10.476 39.223ZM12.0752 38.9049C11.5264 38.9049 10.983 39.013 10.476 39.223L11.0883 40.7012C11.4012 40.5716 11.7365 40.5049 12.0752 40.5049V38.9049ZM13.9213 39.3193C13.3432 39.0388 12.7077 38.8969 12.0652 38.905L12.0851 40.5048C12.479 40.4999 12.8685 40.5869 13.2228 40.7588L13.9213 39.3193ZM15.3955 40.5209C15.0042 40.0113 14.4994 39.5999 13.9213 39.3193L13.2228 40.7588C13.5772 40.9308 13.8866 41.1829 14.1264 41.4953L15.3955 40.5209ZM16.1756 42.2554C16.0539 41.6245 15.7868 41.0306 15.3955 40.5209L14.1264 41.4953C14.3663 41.8077 14.53 42.1717 14.6046 42.5585L16.1756 42.2554ZM16.0966 44.1556C16.2703 43.537 16.2974 42.8863 16.1756 42.2554L14.6046 42.5585C14.6792 42.9452 14.6626 43.344 14.5562 43.7232L16.0966 44.1556ZM23.9984 44.9499C21.124 44.956 18.28 44.3624 15.648 43.2069L15.0048 44.6719C17.8406 45.9169 20.9049 46.5565 24.0019 46.5499L23.9984 44.9499ZM34.4528 42.1579C31.2732 43.9879 27.6688 44.9507 24.0003 44.9499L24 46.5499C27.9488 46.5507 31.8285 45.5144 35.2509 43.5447L34.4528 42.1579ZM42.1176 34.5226C40.2754 37.6951 37.6323 40.328 34.4528 42.1579L35.2509 43.5447C38.6733 41.5749 41.5183 38.7409 43.5013 35.3261L42.1176 34.5226ZM44.95 24.0811C44.9366 27.7496 43.9599 31.3502 42.1176 34.5226L43.5013 35.3261C45.4842 31.9114 46.5355 28.0357 46.55 24.0869L44.95 24.0811ZM42.1942 13.6191C44.0131 16.8049 44.9634 20.4126 44.95 24.0811L46.55 24.0869C46.5645 20.1382 45.5415 16.2549 43.5836 12.8257L42.1942 13.6191ZM41.9943 13.0653C42.0264 13.271 42.0996 13.4682 42.2097 13.645L43.5681 12.7998C43.5717 12.8055 43.5741 12.8118 43.5751 12.8185L41.9943 13.0653ZM42.0227 12.4474C41.9718 12.6494 41.9621 12.8595 41.9943 13.0653L43.5751 12.8185C43.5761 12.8251 43.5758 12.8319 43.5742 12.8384L42.0227 12.4474ZM42.2904 11.8899C42.1646 12.0559 42.0736 12.2455 42.0227 12.4474L43.5742 12.8384C43.5725 12.8449 43.5696 12.851 43.5655 12.8564L42.2904 11.8899ZM42.7549 11.4814C42.5742 11.585 42.4162 11.7239 42.2904 11.8899L43.5656 12.8564C43.5615 12.8617 43.5564 12.8662 43.5506 12.8696L42.7549 11.4814ZM43.342 11.2871C43.1352 11.3118 42.9355 11.3779 42.7549 11.4814L43.5506 12.8696C43.5447 12.8729 43.5383 12.875 43.5316 12.8758L43.342 11.2871ZM43.9584 11.3378C43.7584 11.2797 43.5488 11.2624 43.342 11.2871L43.5316 12.8758C43.525 12.8766 43.5182 12.8761 43.5117 12.8742L43.9584 11.3378ZM44.5059 11.6255C44.3446 11.4938 44.1584 11.3959 43.9584 11.3378L43.5117 12.8742C43.5053 12.8723 43.4993 12.8692 43.4941 12.8649L44.5059 11.6255ZM34.6533 26.1323C34.6447 26.0062 34.6745 25.8806 34.7388 25.7718L33.3614 24.9578C33.1326 25.3449 33.0265 25.7922 33.057 26.2408L34.6533 26.1323ZM34.7868 26.4778C34.7084 26.3787 34.6619 26.2583 34.6533 26.1323L33.057 26.2408C33.0875 26.6895 33.2532 27.1183 33.5323 27.4709L34.7868 26.4778ZM35.814 27.0597C35.4018 26.9082 35.0229 26.6783 34.6981 26.3827L33.6211 27.5659C34.0987 28.0006 34.656 28.3387 35.2622 28.5615L35.814 27.0597ZM39.9692 17.8263C37.5966 19.9525 35.0463 23.6635 34.7403 27.7508L36.3358 27.8703C36.6013 24.3241 38.8601 20.9687 41.037 19.0178L39.9692 17.8263ZM32.9946 10.0231C36.1598 12.0607 38.5398 15.1121 39.7452 18.6782L41.261 18.1659C39.9395 14.2566 37.3304 10.9115 33.8606 8.67779L32.9946 10.0231ZM22.3212 7.46174C26.0664 7.08253 29.8294 7.98558 32.9946 10.0231L33.8606 8.67779C30.3908 6.44413 26.2656 5.45418 22.16 5.86988L22.3212 7.46174ZM23.0319 10.9026C22.9979 10.4859 23.016 7.91931 23.0404 6.68161L21.4407 6.65001C21.4172 7.84231 21.3948 10.5138 21.4372 11.033L23.0319 10.9026ZM22.9923 10.8803C22.9557 10.883 22.923 10.8853 22.8934 10.887C22.8637 10.8887 22.8384 10.8899 22.8164 10.8905C22.7945 10.8911 22.7774 10.8912 22.7643 10.8909C22.7511 10.8907 22.7436 10.8902 22.7406 10.8899C22.7376 10.8896 22.7409 10.8898 22.7492 10.8914C22.7575 10.893 22.7722 10.8963 22.7914 10.9027C22.8108 10.9093 22.8347 10.919 22.8611 10.9332C22.8877 10.9475 22.9148 10.9652 22.941 10.9866C22.9672 11.008 22.9899 11.0308 23.0089 11.0536C23.0277 11.0762 23.0416 11.097 23.0514 11.1139C23.0612 11.1307 23.0669 11.1435 23.0698 11.1504C23.0726 11.1572 23.0731 11.1593 23.0719 11.1553C23.0707 11.1513 23.0683 11.1428 23.0652 11.1285C23.062 11.1144 23.0585 11.096 23.0546 11.0725C23.0466 11.0248 23.0386 10.9635 23.0301 10.8836L21.439 11.052C21.4586 11.2366 21.4854 11.4348 21.5389 11.6136C21.5942 11.7986 21.6997 12.0388 21.9294 12.2262C22.1598 12.4143 22.4146 12.4671 22.5976 12.4835C22.7714 12.4991 22.9571 12.4874 23.1119 12.4758L22.9923 10.8803ZM26.1361 9.98952C25.0663 10.348 23.9786 10.6511 22.8775 10.8974L23.2267 12.4588C24.3816 12.2005 25.5224 11.8826 26.6445 11.5066L26.1361 9.98952ZM28.1523 10.0679C27.5123 9.79622 26.7949 9.76839 26.1358 9.98965L26.6449 11.5065C26.9333 11.4097 27.2472 11.4218 27.5272 11.5407L28.1523 10.0679ZM29.6095 11.4641C29.3107 10.8362 28.7924 10.3395 28.1523 10.0679L27.5272 11.5407C27.8072 11.6596 28.034 11.8769 28.1647 12.1516L29.6095 11.4641ZM31.035 17.4233C31.0273 17.3738 30.792 16.1407 30.5082 14.8243C30.3653 14.1614 30.2074 13.4652 30.0568 12.8751C29.9142 12.3165 29.7572 11.7661 29.6057 11.4564L28.1684 12.1593C28.2345 12.2943 28.355 12.6776 28.5065 13.271C28.65 13.8329 28.803 14.5068 28.9441 15.1615C29.2284 16.4802 29.4544 17.6718 29.4542 17.6703L31.035 17.4233ZM30.8691 17.0611C30.8957 17.0857 30.9184 17.1141 30.9366 17.1454L29.5526 17.9482C29.6144 18.0547 29.6917 18.1514 29.782 18.235L30.8691 17.0611ZM35.0494 19.6665C33.6547 18.8095 32.2069 17.9023 30.7568 16.9743L29.8943 18.3219C31.3528 19.2553 32.8089 20.1677 34.2118 21.0297L35.0494 19.6665ZM36.0903 20.8844C35.9015 20.3363 35.5034 19.8853 34.983 19.6299L34.2782 21.0662C34.4188 21.1353 34.5265 21.2572 34.5775 21.4054L36.0903 20.8844ZM35.9902 22.5547C36.2431 22.0331 36.279 21.4325 36.0903 20.8844L34.5775 21.4054C34.6285 21.5535 34.6188 21.7159 34.5504 21.8569L35.9902 22.5547ZM35.5446 23.7555C35.6973 23.3276 35.8436 22.9179 36.0109 22.5083L34.5297 21.9033C34.3466 22.3516 34.1886 22.7949 34.0377 23.2178L35.5446 23.7555ZM35.5604 23.7064L35.5604 23.7064L34.0219 23.2668L34.0219 23.2669L35.5604 23.7064ZM35.5604 23.7065L35.5604 23.7064L34.0219 23.2669L34.0219 23.2669L35.5604 23.7065ZM35.5466 23.7498L35.5467 23.7495L34.0355 23.2239L34.0354 23.2241L35.5466 23.7498ZM34.7741 25.7051C35.0876 25.0383 35.3226 24.3778 35.5445 23.7558L34.0376 23.2181C33.8121 23.85 33.6015 24.4386 33.3261 25.0245L34.7741 25.7051ZM14.9815 13.7581L14.9885 13.7522L13.95 12.535L13.943 12.5409L14.9815 13.7581ZM13.61 15.8626C13.5464 15.5388 13.648 15.2029 13.9267 14.8171C14.2113 14.4233 14.6089 14.0767 14.9821 13.7576L13.9424 12.5414C13.5866 12.8456 13.043 13.3083 12.6298 13.8801C12.2109 14.4599 11.8583 15.2459 12.04 16.1709L13.61 15.8626ZM11.6397 21.1989C12.7458 20.7096 13.6434 20.1044 13.991 19.0885C14.3246 18.1133 14.0631 16.9937 13.5707 15.7269L12.0794 16.3066C12.5619 17.5479 12.6098 18.1828 12.4771 18.5706C12.3584 18.9176 12.014 19.2837 10.9924 19.7357L11.6397 21.1989ZM9.67806 23.0225C10.0806 22.2001 10.7712 21.5543 11.6187 21.2078L11.0133 19.7268C9.80258 20.2217 8.81596 21.1443 8.24096 22.3191L9.67806 23.0225ZM6.41572 24.7832C7.04717 24.9136 7.68609 24.9152 8.29162 24.5887C8.87172 24.2759 9.29498 23.7279 9.66219 23.0532L8.25684 22.2883C7.94605 22.8594 7.70856 23.0853 7.53229 23.1804C7.38144 23.2617 7.16835 23.3049 6.73931 23.2163L6.41572 24.7832ZM7.77806 15.7071C6.464 18.2739 5.77834 21.116 5.77751 23.9995L7.37751 24C7.37827 21.3698 8.00368 18.7774 9.20226 16.4363L7.77806 15.7071ZM13.3358 9.23588C10.997 10.9225 9.09211 13.1404 7.77806 15.7071L9.20226 16.4363C10.4008 14.0951 12.1383 12.072 14.2717 10.5337L13.3358 9.23588ZM16.2317 12.1072C16.2806 11.8725 16.2429 11.6602 16.1987 11.5095C16.1529 11.3536 16.084 11.2094 16.0137 11.0853C15.8735 10.8377 15.6822 10.5902 15.4897 10.3695C15.1047 9.92813 14.6245 9.49215 14.2739 9.23749L13.3336 10.532C13.5778 10.7094 13.9702 11.0617 14.284 11.4213C14.4409 11.6011 14.5555 11.7573 14.6214 11.8736C14.6368 11.9008 14.6475 11.9223 14.6546 11.9383C14.6619 11.9545 14.6639 11.9615 14.6635 11.9601C14.6632 11.9591 14.6586 11.9435 14.6562 11.9157C14.6537 11.8877 14.6529 11.8407 14.6653 11.7813L16.2317 12.1072ZM14.9885 13.7521C15.2261 13.5494 15.5118 13.3074 15.7346 13.0614C15.9356 12.8394 16.2334 12.46 16.2482 11.9683L14.6489 11.9203C14.651 11.8496 14.6732 11.8196 14.6605 11.8426C14.6476 11.8661 14.6155 11.9135 14.5486 11.9874C14.4091 12.1414 14.2108 12.3125 13.95 12.535L14.9885 13.7521ZM27.2266 29.3023C27.2507 29.459 27.2755 29.6205 27.3019 29.767L28.8765 29.4832C28.8545 29.3609 28.8329 29.2211 28.8079 29.059L27.2266 29.3023ZM27.2173 29.1806V29.1806H28.8173V29.1806H27.2173ZM27.0629 28.3913C27.1298 28.6759 27.1781 28.9872 27.2266 29.3023L28.8079 29.059C28.7612 28.7551 28.7041 28.3813 28.6205 28.0254L27.0629 28.3913ZM21.6987 26.9201C22.3613 28.4785 23.6119 29.1621 24.8637 29.3528C26.0735 29.5372 27.3023 29.2725 28.1285 28.9551L27.5549 27.4615C26.9028 27.712 25.9619 27.9017 25.1047 27.7711C24.2895 27.6469 23.5758 27.2459 23.1712 26.2941L21.6987 26.9201ZM22.0868 27.0809C22.1121 27.0795 22.0706 27.0834 22.0183 27.0765C21.9565 27.0684 21.8852 27.0479 21.8164 27.008C21.6816 26.9298 21.665 26.8425 21.701 26.9255L23.1688 26.2887C23.0582 26.0336 22.8906 25.7814 22.6193 25.624C22.3328 25.4578 22.0625 25.4799 22.0015 25.4832L22.0868 27.0809ZM22.08 27.0812L22.086 27.0809L22.0023 25.4831L21.9964 25.4834L22.08 27.0812ZM21.9653 27.184C22.0346 27.1247 22.1177 27.0836 22.2069 27.0644L21.8695 25.5003C21.5208 25.5755 21.1963 25.7363 20.9253 25.9682L21.9653 27.184ZM21.8096 27.4041C21.8425 27.319 21.896 27.2434 21.9653 27.184L20.9253 25.9682C20.6542 26.2 20.4451 26.4957 20.3167 26.8285L21.8096 27.4041ZM16.2546 32.971C17.3259 32.6661 18.734 32.2748 19.8556 31.4342C21.0399 30.5465 21.866 29.1942 21.8632 27.1152L20.2632 27.1174C20.2653 28.6912 19.677 29.5685 18.896 30.1539C18.0522 30.7863 16.9441 31.1112 15.8166 31.4322L16.2546 32.971ZM15.8753 33.0798C15.9979 33.0441 16.1239 33.0083 16.2546 32.971L15.8166 31.4322C15.6866 31.4692 15.5563 31.5063 15.4286 31.5434L15.8753 33.0798ZM15.9339 32.3547C16.1087 32.528 16.1373 32.7213 16.1433 32.7673C16.1522 32.8346 16.1466 32.8795 16.1456 32.888C16.1431 32.9084 16.142 32.9018 16.1505 32.8807C16.1602 32.8567 16.1597 32.8694 16.1306 32.9042C16.1154 32.9223 16.0737 32.9689 16 33.0141C15.923 33.0611 15.7877 33.1198 15.6102 33.1105L15.6936 31.5127C15.2549 31.4898 14.9871 31.7774 14.9034 31.8775C14.7904 32.0125 14.715 32.1624 14.6669 32.2817C14.6175 32.4039 14.5757 32.5466 14.5577 32.6912C14.549 32.7618 14.5421 32.8625 14.5569 32.9755C14.569 33.0672 14.6109 33.2961 14.8075 33.491L15.9339 32.3547ZM20.448 35.9889C20.3203 34.7791 19.794 33.7911 18.868 33.1159C17.9679 32.4597 16.7707 32.1573 15.3905 32.1231L15.3509 33.7226C16.5447 33.7522 17.3815 34.0123 17.9253 34.4088C18.4433 34.7864 18.7708 35.3415 18.8569 36.1568L20.448 35.9889ZM25.3583 39.2057C25.0846 38.2576 24.7668 37.0915 23.8952 36.2786C22.9739 35.4196 21.6073 35.0835 19.5768 35.2764L19.7281 36.8692C21.5503 36.6961 22.364 37.0385 22.804 37.4488C23.2935 37.9053 23.518 38.5996 23.8211 39.6495L25.3583 39.2057ZM25.4547 39.529C25.4192 39.4101 25.3862 39.2997 25.3568 39.2005L23.8226 39.6547C23.8527 39.7565 23.8864 39.8691 23.9218 39.9874L25.4547 39.529ZM25.9274 41.1942C25.8071 40.7065 25.6066 40.037 25.4547 39.529L23.9218 39.9874C24.0778 40.509 24.2651 41.1361 24.374 41.5775L25.9274 41.1942ZM31.2129 38.9788C29.2977 39.9041 27.2217 40.4504 25.0991 40.5875L25.2022 42.1842C27.5307 42.0338 29.8081 41.4345 31.909 40.4194L31.2129 38.9788ZM31.3616 34.9196C30.7859 36.2314 29.921 38.0974 30.8374 40.0404L32.2845 39.3578C31.7265 38.1747 32.193 37.0068 32.8268 35.5625L31.3616 34.9196ZM31.495 34.6143C31.4517 34.7143 31.4073 34.8154 31.3616 34.9196L32.8268 35.5625C32.8722 35.4591 32.9182 35.3542 32.9633 35.2499L31.495 34.6143ZM31.694 35.5475L31.8317 35.6263L32.6267 34.2378L32.489 34.159L31.694 35.5475ZM27.2938 29.711C27.4686 31.3292 27.7841 32.4252 28.5439 33.3219C29.2595 34.1665 30.3244 34.7635 31.694 35.5475L32.4889 34.1589C31.0243 33.3205 30.257 32.8687 29.7646 32.2876C29.3163 31.7585 29.0479 31.0516 28.8846 29.5392L27.2938 29.711ZM32.5133 36.0878C32.0438 37.063 31.6589 38.0839 32.1785 39.2815L33.6463 38.6447C33.4279 38.1413 33.5109 37.7042 33.9549 36.7819L32.5133 36.0878ZM32.9513 34.9691C32.8313 35.353 32.6844 35.728 32.5116 36.0913L33.9566 36.7783C34.1616 36.3472 34.336 35.9022 34.4784 35.4466L32.9513 34.9691ZM32.9985 34.6384C33.0262 34.7146 33.0227 34.7986 32.9887 34.8722L34.4411 35.5434C34.6524 35.0863 34.6742 34.5641 34.5018 34.0908L32.9985 34.6384ZM32.8406 34.4656C32.914 34.5001 32.9707 34.5622 32.9985 34.6384L34.5019 34.0909C34.3295 33.6176 33.977 33.2318 33.5212 33.0176L32.8406 34.4656ZM32.1789 34.0907C32.371 34.1997 32.5707 34.3131 32.7808 34.4344L33.5809 33.0488C33.3649 32.924 33.1601 32.8078 32.9686 32.6992L32.1789 34.0907ZM28.7723 29.439C28.8625 30.7332 29.1512 31.6495 29.7895 32.3923C30.3834 33.0835 31.235 33.5551 32.1789 34.0907L32.9686 32.6992C31.9428 32.1171 31.3764 31.784 31.003 31.3495C30.6739 30.9665 30.4457 30.4358 30.3684 29.3277L28.7723 29.439ZM28.5639 28.2078C28.6523 28.7167 28.7207 29.1366 28.7804 29.5097L30.3603 29.2569C30.3 28.88 30.2304 28.4525 30.1403 27.9339L28.5639 28.2078ZM28.424 27.7712C28.4964 27.889 28.5418 28.0213 28.557 28.1587L30.1473 27.983C30.1062 27.6109 29.9832 27.2524 29.7871 26.9334L28.424 27.7712ZM28.1384 27.4776C28.2541 27.5532 28.3516 27.6535 28.424 27.7712L29.7871 26.9334C29.5911 26.6144 29.3268 26.3428 29.0134 26.1381L28.1384 27.4776ZM27.8716 27.4757C28.0066 27.4692 28.1414 27.493 28.266 27.5454L28.8857 26.0703C28.541 25.9255 28.1683 25.8596 27.7949 25.8775L27.8716 27.4757ZM27.4857 27.5828C27.6047 27.5188 27.7366 27.4822 27.8716 27.4757L27.7949 25.8775C27.4215 25.8955 27.0568 25.9967 26.7276 26.1738L27.4857 27.5828ZM23.0788 26.3291C23.6156 27.6344 24.8337 27.9095 25.6867 27.9122C26.5432 27.915 27.2898 27.6618 27.3709 27.6334L26.8423 26.1233C26.8429 26.1231 26.8338 26.1262 26.816 26.1319C26.7985 26.1376 26.7732 26.1454 26.7411 26.1547C26.6767 26.1735 26.5861 26.1977 26.4771 26.2216C26.2554 26.2702 25.9753 26.3132 25.6919 26.3122C25.1046 26.3103 24.7311 26.1403 24.5585 25.7205L23.0788 26.3291ZM22.6379 25.7509C22.8358 25.879 22.9858 26.0691 23.0643 26.2914L24.5729 25.7583C24.3766 25.2028 24.002 24.7279 23.5074 24.4078L22.6379 25.7509ZM21.9703 25.5831C22.2052 25.5638 22.44 25.6228 22.6379 25.7509L23.5074 24.4078C23.0128 24.0876 22.4262 23.9402 21.839 23.9885L21.9703 25.5831ZM20.9192 26.108C21.2175 25.8196 21.6002 25.6341 22.0115 25.5787L21.7978 23.993C21.0482 24.094 20.3506 24.4321 19.8069 24.9578L20.9192 26.108ZM20.3534 27.182C20.4226 26.7728 20.6208 26.3965 20.9192 26.108L19.8069 24.9578C19.2632 25.4836 18.9019 26.1695 18.7758 26.9152L20.3534 27.182ZM15.6273 31.5984C16.7838 31.2714 18.0037 30.9136 18.8991 30.2635C19.366 29.9244 19.7653 29.4936 20.0307 28.9321C20.2956 28.3718 20.4038 27.7304 20.3634 27.0041L18.7659 27.0931C18.7944 27.6058 18.7145 27.9725 18.5842 28.2484C18.4543 28.5231 18.2513 28.7565 17.959 28.9688C17.3358 29.4213 16.4092 29.7145 15.1919 30.0588L15.6273 31.5984ZM14.9253 32.012C15.0927 31.8082 15.3238 31.6666 15.5814 31.6099L15.2379 30.0472C14.6297 30.1809 14.0841 30.5153 13.6888 30.9965L14.9253 32.012ZM14.6585 32.7337C14.6639 32.47 14.7579 32.2158 14.9253 32.012L13.6888 30.9965C13.2936 31.4777 13.0717 32.0779 13.0588 32.7005L14.6585 32.7337ZM14.7979 33.323C14.6865 33.172 14.6354 32.985 14.6545 32.7984L13.0628 32.6358C13.0033 33.218 13.1628 33.8015 13.5101 34.2726L14.7979 33.323ZM15.2567 33.615C15.0728 33.5781 14.9092 33.474 14.7979 33.323L13.5101 34.2726C13.8575 34.7436 14.3678 35.0684 14.9416 35.1837L15.2567 33.615ZM18.964 36.1919C18.9135 35.2305 18.4046 34.5399 17.6447 34.1285C16.9386 33.7462 16.0367 33.6109 15.109 33.5994L15.0892 35.1993C15.915 35.2095 16.5117 35.3345 16.8829 35.5355C17.2004 35.7074 17.3477 35.9231 17.3662 36.2758L18.964 36.1919ZM19.1998 36.596C19.0647 36.4855 18.9788 36.3259 18.9609 36.1522L17.3693 36.3155C17.4303 36.9101 17.7243 37.4563 18.1871 37.8347L19.1998 36.596ZM19.6822 36.7419C19.5085 36.759 19.335 36.7065 19.1998 36.596L18.1871 37.8347C18.6499 38.213 19.2436 38.3926 19.8385 38.3343L19.6822 36.7419ZM23.9188 39.6072C23.7867 39.1498 23.6595 38.7049 23.5018 38.3306C23.3394 37.9453 23.1179 37.5655 22.7553 37.2685C22.0332 36.6771 21.0107 36.6252 19.6904 36.7412L19.8304 38.335C21.1708 38.2173 21.5704 38.3662 21.7416 38.5064C21.8257 38.5752 21.9186 38.6939 22.0273 38.9518C22.1405 39.2206 22.2408 39.5637 22.3816 40.051L23.9188 39.6072ZM23.9212 39.6156L23.9187 39.6071L22.3816 40.0511L22.3841 40.0596L23.9212 39.6156ZM24.1037 40.229C24.0375 40.0132 23.976 39.8121 23.9233 39.623L22.3819 40.0522C22.4411 40.2648 22.509 40.4862 22.5739 40.6978L24.1037 40.229ZM24.3879 41.2223C24.3069 40.8913 24.2001 40.5436 24.1037 40.229L22.5739 40.6978C22.6733 41.0221 22.7657 41.3245 22.8338 41.6028L24.3879 41.2223ZM11.5546 37.2918C14.8262 40.3552 19.1113 42.1068 23.592 42.2124L23.6297 40.6128C19.542 40.5165 15.6328 38.9186 12.6482 36.1239L11.5546 37.2918ZM5.85431 25.6034C6.25379 30.0676 8.28296 34.2283 11.5546 37.2918L12.6482 36.1239C9.66355 33.3292 7.81238 29.5333 7.44794 25.4608L5.85431 25.6034ZM8.38263 24.3941C7.88622 24.6813 7.31075 24.8015 6.7409 24.7371L6.56134 26.327C7.47159 26.4298 8.39081 26.2378 9.18375 25.7791L8.38263 24.3941ZM9.49852 23.1421C9.27018 23.6681 8.87904 24.107 8.38263 24.3941L9.18375 25.7791C9.97669 25.3205 10.6015 24.6194 10.9662 23.7791L9.49852 23.1421ZM11.5319 21.127C10.6327 21.5224 9.9108 22.2353 9.50415 23.1294L10.9606 23.7918C11.2043 23.2559 11.637 22.8286 12.1759 22.5917L11.5319 21.127ZM13.5453 15.9362C13.9672 17.0616 14.1642 18.0228 13.9538 18.8382C13.7587 19.5944 13.1596 20.4097 11.5313 21.1273L12.1765 22.5914C14.0934 21.7467 15.1477 20.6154 15.5031 19.2379C15.8432 17.9195 15.4878 16.5598 15.0435 15.3745L13.5453 15.9362ZM14.9944 13.6182C14.3592 14.0405 13.8606 14.6386 13.5594 15.3394L15.0294 15.9712C15.208 15.5556 15.5037 15.201 15.8803 14.9505L14.9944 13.6182ZM16.1498 11.9605C16.1289 12.588 15.6683 13.0361 14.9183 13.6756L15.9564 14.8931C16.591 14.352 17.7008 13.4606 17.7489 12.0137L16.1498 11.9605ZM14.6219 9.65272C15.0808 10.0057 15.5015 10.4646 15.7897 10.9161C16.0967 11.3972 16.1726 11.7406 16.1547 11.8949L17.744 12.0792C17.8259 11.3733 17.5114 10.6398 17.1384 10.0553C16.7465 9.4412 16.1975 8.84601 15.5973 8.38445L14.6219 9.65272ZM20.589 6.0959C18.5103 6.49086 16.517 7.24755 14.6998 8.33154L15.5195 9.70563C17.1759 8.71754 18.9929 8.02779 20.8877 7.66778L20.589 6.0959ZM21.5357 11.0342C21.4971 10.5598 21.5116 8.24614 21.5382 6.89764L19.9385 6.86603C19.9127 8.17404 19.8941 10.5884 19.941 11.164L21.5357 11.0342ZM23.1003 12.3691C22.4873 12.4157 22.1606 12.2885 21.9756 12.1308C21.7873 11.9703 21.6008 11.6546 21.534 11.0159L19.9427 11.1823C20.0334 12.0496 20.322 12.8236 20.9376 13.3484C21.5564 13.876 22.3622 14.0298 23.2214 13.9645L23.1003 12.3691ZM26.5082 11.4358C25.3642 11.8318 24.194 12.1479 23.0062 12.3819L23.3155 13.9517C24.5759 13.7034 25.8175 13.368 27.0315 12.9478L26.5082 11.4358ZM28.2557 12.1078C28.1871 11.9708 28.0282 11.6753 27.6796 11.4942C27.3245 11.3097 26.9345 11.3233 26.5703 11.4171L26.9695 12.9665C27.0427 12.9477 27.0681 12.9502 27.0588 12.9498C27.0447 12.9492 26.9993 12.9438 26.942 12.9141C26.8248 12.8531 26.7933 12.7609 26.8246 12.8234L28.2557 12.1078ZM29.5583 17.6902C29.2389 15.8544 28.8219 14.0369 28.3092 12.2455L26.771 12.6857C27.2681 14.4225 27.6723 16.1846 27.982 17.9645L29.5583 17.6902ZM29.9537 18.2357C29.7496 18.0971 29.6052 17.8867 29.5494 17.6463L27.9909 18.0083C28.1378 18.6409 28.5178 19.1947 29.055 19.5595L29.9537 18.2357ZM34.2783 20.9442C32.8587 20.0768 31.4047 19.1648 29.9359 18.2239L29.0729 19.5712C30.55 20.5174 32.0136 21.4354 33.444 22.3095L34.2783 20.9442ZM34.2878 20.9499L34.2728 20.9409L33.4494 22.3128L33.4644 22.3218L34.2878 20.9499ZM34.1557 23.1761C34.3097 22.743 34.4566 22.3305 34.6168 21.9383L33.1355 21.3334C32.959 21.7656 32.7999 22.2133 32.6482 22.6399L34.1557 23.1761ZM33.4194 25.0517C33.7049 24.4455 33.938 23.788 34.1557 23.1761L32.6482 22.6399C32.4251 23.2672 32.2178 23.8479 31.9719 24.37L33.4194 25.0517ZM33.1506 26.232C33.1236 25.8362 33.2097 25.4409 33.3989 25.0923L31.9924 24.3294C31.6586 24.9448 31.5067 25.6424 31.5543 26.3409L33.1506 26.232ZM33.5513 27.3275C33.3166 27.0077 33.1776 26.6278 33.1506 26.232L31.5543 26.3409C31.602 27.0393 31.8472 27.7098 32.2614 28.2742L33.5513 27.3275ZM35.5637 28.5612C34.7714 28.3137 34.0574 27.8638 33.4922 27.256L32.3206 28.3456C33.0753 29.1572 34.0287 29.7579 35.0865 30.0884L35.5637 28.5612ZM35.8412 28.6128C35.768 28.6212 35.6939 28.6111 35.6256 28.5834L35.0246 30.0662C35.3408 30.1944 35.684 30.2412 36.023 30.2025L35.8412 28.6128ZM36.0445 28.5355C35.9842 28.5779 35.9143 28.6045 35.8412 28.6128L36.023 30.2025C36.3619 30.1637 36.6857 30.0406 36.9648 29.8443L36.0445 28.5355ZM36.186 28.3703C36.1534 28.4364 36.1047 28.4932 36.0445 28.5355L36.9648 29.8443C37.2439 29.6481 37.4693 29.385 37.6204 29.0792L36.186 28.3703ZM36.2313 28.1576C36.2342 28.2312 36.2187 28.3043 36.186 28.3703L37.6204 29.0792C37.7716 28.7734 37.8436 28.4345 37.83 28.0936L36.2313 28.1576ZM40.4227 19.4682C39.3653 20.4487 38.3315 21.8755 37.559 23.3977C36.7902 24.9128 36.2382 26.6053 36.2306 28.1216L37.8306 28.1296C37.8365 26.9564 38.2775 25.5177 38.9858 24.1218C39.6905 22.7331 40.618 21.4692 41.5106 20.6414L40.4227 19.4682ZM40.7676 31.1396C42.2824 27.5833 42.625 23.6369 41.7456 19.8728L40.1876 20.2368C40.9896 23.6698 40.6772 27.2691 39.2956 30.5126L40.7676 31.1396ZM33.3209 39.6509C36.6444 37.6771 39.2527 34.6959 40.7676 31.1396L39.2956 30.5126C37.914 33.756 35.5351 36.475 32.5039 38.2752L33.3209 39.6509Z" fill="url(#paint1_radial_5910_178644)" fill-opacity="0.6" mask="url(#path-1-inside-1_5910_178644)"/>
<path d="M2.25011 24L3.05011 24.0027L3.05011 24.0009L2.25011 24ZM8.62778 8.62769L8.06209 8.06201L8.06209 8.06201L8.62778 8.62769ZM6.65786 37.125L7.31206 36.6646L7.30331 36.6521L7.2941 36.64L6.65786 37.125ZM5.9544 38.3013L6.05057 37.5071L6.05056 37.5071L5.9544 38.3013ZM5.46236 38.0295L4.82609 38.5145L4.83358 38.5243L4.84136 38.5339L5.46236 38.0295ZM0.750114 24L1.55011 24.0025L1.55011 24.0009L0.750114 24ZM7.56756 7.56747L8.13324 8.13316L8.13324 8.13316L7.56756 7.56747ZM24.0001 0.750029L24.001 1.55003L24.0014 1.55003L24.0001 0.750029ZM36.9616 4.72953L36.5116 5.39099L37.0127 5.73187L37.4766 5.34177L36.9616 4.72953ZM39.0976 3.94503L39.0967 3.14502L39.0939 3.14504L39.0976 3.94503ZM40.9762 4.51289L41.4201 3.84734L41.4201 3.84734L40.9762 4.51289ZM42.2222 6.02905L41.4833 6.33561L41.4833 6.33561L42.2222 6.02905ZM42.4154 7.98202L41.6307 7.82616L41.6307 7.82617L42.4154 7.98202ZM39.7596 10.6378L39.9155 11.4225L39.9155 11.4225L39.7596 10.6378ZM37.8066 10.4446L38.1132 9.70568L38.1132 9.70568L37.8066 10.4446ZM35.7226 7.32003L34.9226 7.31694L34.9226 7.31914L35.7226 7.32003ZM36.0384 5.91603L36.7627 6.25574L37.0536 5.63535L36.4853 5.25252L36.0384 5.91603ZM24.0001 2.25003L24.001 3.05003L24.0014 3.05003L24.0001 2.25003ZM44.1894 12.4769L43.4815 12.8495L43.4879 12.8617L43.4947 12.8737L44.1894 12.4769ZM47.25 24.0878L46.45 24.085L46.45 24.085L47.25 24.0878ZM44.1076 35.6769L44.7995 36.0786L44.7995 36.0786L44.1076 35.6769ZM35.601 44.1514L35.2019 43.4581L35.2019 43.4581L35.601 44.1514ZM24.0002 47.2499L24.0004 46.4499L23.9985 46.4499L24.0002 47.2499ZM14.6252 45.2699L14.9502 44.5389L14.4007 44.2946L14.0133 44.7545L14.6252 45.2699ZM13.4814 46.1468L13.8203 46.8715L13.8203 46.8715L13.4814 46.1468ZM12.0752 46.4624L12.0752 47.2624L12.0784 47.2624L12.0752 46.4624ZM10.7822 46.2052L11.0883 45.4661L11.0883 45.4661L10.7822 46.2052ZM9.68602 45.4728L10.2517 44.9071L10.2517 44.9071L9.68602 45.4728ZM8.9536 41.7907L8.2145 41.4845L8.2145 41.4845L8.9536 41.7907ZM9.68602 40.6945L9.12034 40.1288L9.12034 40.1288L9.68602 40.6945ZM10.7822 39.9621L10.476 39.223L10.476 39.223L10.7822 39.9621ZM12.0752 39.7049L12.0752 40.505L12.0851 40.5048L12.0752 39.7049ZM15.3901 42.4069L14.6046 42.5585L14.6046 42.5585L15.3901 42.4069ZM15.3264 43.9394L14.5562 43.7232L14.3683 44.3925L15.0048 44.6719L15.3264 43.9394ZM24.0002 45.7499L24.0003 44.9499L23.9984 44.9499L24.0002 45.7499ZM34.8518 42.8513L34.4528 42.1579L34.4528 42.1579L34.8518 42.8513ZM42.8095 34.9244L42.1176 34.5226L42.1176 34.5226L42.8095 34.9244ZM42.8889 13.2224L43.5836 12.8257L43.5761 12.8126L43.5681 12.7998L42.8889 13.2224ZM42.7847 12.9419L41.9943 13.0653L41.9943 13.0653L42.7847 12.9419ZM42.928 12.3731L43.5655 12.8564L43.5656 12.8564L42.928 12.3731ZM43.7351 12.106L43.9584 11.3378L43.9584 11.3378L43.7351 12.106ZM34.0501 25.3648L34.7388 25.7718L34.758 25.7393L34.7741 25.7051L34.0501 25.3648ZM34.1596 26.9743L33.5323 27.4709L33.5728 27.522L33.6211 27.5659L34.1596 26.9743ZM35.5381 27.8106L35.2622 28.5615L36.2567 28.9269L36.3358 27.8703L35.5381 27.8106ZM40.5031 18.4221L41.037 19.0178L41.4299 18.6657L41.261 18.1659L40.5031 18.4221ZM33.4276 9.35047L33.8606 8.67779L33.8606 8.67779L33.4276 9.35047ZM22.2406 6.66581L22.16 5.86988L21.4547 5.94129L21.4407 6.65001L22.2406 6.66581ZM22.2346 10.9678L21.4372 11.033L21.438 11.0425L21.439 11.052L22.2346 10.9678ZM23.0521 11.6781L23.1119 12.4758L23.1699 12.4715L23.2267 12.4588L23.0521 11.6781ZM26.3903 10.7481L26.6445 11.5066L26.6449 11.5065L26.3903 10.7481ZM27.8397 10.8043L28.1523 10.0679L28.1523 10.0679L27.8397 10.8043ZM28.8871 11.8078L28.1647 12.1516L28.1684 12.1593L28.8871 11.8078ZM30.2446 17.5468L29.4542 17.6703L29.4773 17.8185L29.5526 17.9482L30.2446 17.5468ZM30.3256 17.6481L29.782 18.235L29.8343 18.2835L29.8943 18.3219L30.3256 17.6481ZM34.6306 20.3481L34.2118 21.0297L34.2441 21.0495L34.2782 21.0662L34.6306 20.3481ZM35.3339 21.1449L34.5775 21.4054L34.5775 21.4054L35.3339 21.1449ZM35.2703 22.2058L34.5504 21.8569L34.5393 21.8798L34.5297 21.9033L35.2703 22.2058ZM34.7912 23.4866L34.0377 23.2178L34.029 23.242L34.0219 23.2668L34.7912 23.4866ZM34.7911 23.4867L35.5467 23.7495L35.5541 23.7282L35.5604 23.7065L34.7911 23.4867ZM34.791 23.487L35.5445 23.7558L35.5466 23.7498L34.791 23.487ZM14.4623 13.1495L13.943 12.5409L13.9424 12.5414L14.4623 13.1495ZM14.4692 13.1436L14.9885 13.7522L14.9885 13.7521L14.4692 13.1436ZM12.825 16.0168L12.04 16.1709L12.0537 16.2405L12.0794 16.3066L12.825 16.0168ZM11.316 20.4673L11.6187 21.2078L11.6293 21.2035L11.6397 21.1989L11.316 20.4673ZM8.95951 22.6708L9.66219 23.0532L9.67046 23.038L9.67806 23.0225L8.95951 22.6708ZM6.57751 23.9998L5.77751 23.9995L5.77733 24.6514L6.41572 24.7832L6.57751 23.9998ZM8.49016 16.0717L7.77806 15.7071L7.77806 15.7071L8.49016 16.0717ZM13.8038 9.88477L14.2739 9.23749L13.8055 8.89723L13.3358 9.23588L13.8038 9.88477ZM15.4485 11.9443L14.6653 11.7813L14.651 11.8501L14.6489 11.9203L15.4485 11.9443ZM28.0173 29.1806H27.2173V29.2418L27.2266 29.3023L28.0173 29.1806ZM28.0892 29.6251L28.8846 29.5392L28.8815 29.511L28.8765 29.4832L28.0892 29.6251ZM28.0173 29.1806H28.8173V29.1194L28.8079 29.059L28.0173 29.1806ZM27.8417 28.2083L28.6205 28.0254L28.4108 27.1328L27.5549 27.4615L27.8417 28.2083ZM22.4349 26.6071L23.1712 26.2941L23.1688 26.2887L22.4349 26.6071ZM22.0441 26.282L22.086 27.0809L22.0868 27.0809L22.0441 26.282ZM22.0382 26.2823L21.9964 25.4834L21.9323 25.4868L21.8695 25.5003L22.0382 26.2823ZM21.0632 27.1163L20.3167 26.8285L20.263 26.968L20.2632 27.1174L21.0632 27.1163ZM16.0356 32.2016L15.8166 31.4322L15.8166 31.4322L16.0356 32.2016ZM15.6519 32.3116L15.6102 33.1105L15.7454 33.1176L15.8753 33.0798L15.6519 32.3116ZM15.3707 32.9228L14.8075 33.491L15.0332 33.7147L15.3509 33.7226L15.3707 32.9228ZM19.6524 36.0728L18.8569 36.1568L18.94 36.9441L19.7281 36.8692L19.6524 36.0728ZM24.5897 39.4276L23.8211 39.6495L23.8226 39.6547L24.5897 39.4276ZM24.6883 39.7582L25.4547 39.529L25.4547 39.529L24.6883 39.7582ZM25.1507 41.3858L24.374 41.5775L24.5343 42.2273L25.2022 42.1842L25.1507 41.3858ZM31.5609 39.6991L31.909 40.4194L32.6226 40.0746L32.2845 39.3578L31.5609 39.6991ZM32.0942 35.241L31.3616 34.9196L31.3616 34.9196L32.0942 35.241ZM32.2292 34.9321L32.9633 35.2499L33.2476 34.5933L32.6267 34.2378L32.2292 34.9321ZM32.0915 34.8532L32.489 34.159L32.4889 34.1589L32.0915 34.8532ZM33.2341 36.4348L33.9549 36.7819L33.9566 36.7783L33.2341 36.4348ZM32.9124 38.9631L32.1785 39.2815L32.54 40.1147L33.3209 39.6509L32.9124 38.9631ZM33.7149 35.2078L32.9887 34.8722L32.9669 34.9195L32.9513 34.9691L33.7149 35.2078ZM33.7502 34.3646L32.9985 34.6384L32.9985 34.6384L33.7502 34.3646ZM33.1809 33.7416L32.7808 34.4344L32.81 34.4512L32.8406 34.4656L33.1809 33.7416ZM32.5738 33.3949L32.1789 34.0907L32.1789 34.0907L32.5738 33.3949ZM29.5704 29.3833L30.3684 29.3277L30.366 29.2921L30.3603 29.2569L29.5704 29.3833ZM29.3521 28.0708L28.557 28.1587L28.5597 28.1833L28.5639 28.2078L29.3521 28.0708ZM29.1056 27.3523L28.424 27.7712L28.424 27.7712L29.1056 27.3523ZM28.5759 26.8078L29.0134 26.1381L28.9526 26.0984L28.8857 26.0703L28.5759 26.8078ZM27.1066 26.8783L27.3709 27.6334L27.4303 27.6126L27.4857 27.5828L27.1066 26.8783ZM23.8186 26.0248L23.0643 26.2914L23.0711 26.3104L23.0788 26.3291L23.8186 26.0248ZM21.9046 24.7858L21.839 23.9885L21.8183 23.9902L21.7978 23.993L21.9046 24.7858ZM19.5646 27.0486L18.7758 26.9152L18.7609 27.0036L18.7659 27.0931L19.5646 27.0486ZM15.4096 30.8286L15.5814 31.6099L15.6045 31.6048L15.6273 31.5984L15.4096 30.8286ZM13.8586 32.7171L14.6545 32.7984L14.6578 32.7661L14.6585 32.7337L13.8586 32.7171ZM14.154 33.7978L13.5101 34.2726L13.5101 34.2726L14.154 33.7978ZM15.0991 34.3993L14.9416 35.1837L15.0147 35.1984L15.0892 35.1993L15.0991 34.3993ZM18.1651 36.2338L17.3662 36.2758L17.3673 36.2957L17.3693 36.3155L18.1651 36.2338ZM18.6935 37.2153L18.1871 37.8347L18.1871 37.8347L18.6935 37.2153ZM19.7604 37.5381L19.6904 36.7411L19.6822 36.7419L19.7604 37.5381ZM23.1502 39.8291L22.3816 40.051L22.3816 40.0511L23.1502 39.8291ZM23.1526 39.8376L23.9233 39.623L23.9212 39.6156L23.1526 39.8376ZM23.3388 40.4634L24.1037 40.229L24.1037 40.229L23.3388 40.4634ZM23.6109 41.4126L23.592 42.2124L24.6363 42.237L24.3879 41.2223L23.6109 41.4126ZM6.65112 25.5321L6.7409 24.7371L5.76695 24.6271L5.85431 25.6034L6.65112 25.5321ZM8.78319 25.0866L9.18375 25.7791L9.18375 25.7791L8.78319 25.0866ZM10.2324 23.4606L9.50404 23.1293L9.49852 23.1421L10.2324 23.4606ZM11.8539 21.8593L12.1759 22.5917L12.1765 22.5914L11.8539 21.8593ZM14.2944 15.6553L13.5594 15.3394L13.4324 15.635L13.5453 15.9362L14.2944 15.6553ZM15.4374 14.2843L15.8803 14.9505L15.9201 14.9241L15.9564 14.8931L15.4374 14.2843ZM16.9494 11.9871L16.1547 11.8949L16.1509 11.9276L16.1498 11.9605L16.9494 11.9871ZM15.1096 9.01859L14.6998 8.33154L13.6885 8.93481L14.6219 9.65272L15.1096 9.01859ZM20.7384 6.88184L21.5382 6.89764L21.5577 5.91185L20.589 6.0959L20.7384 6.88184ZM20.7384 11.0991L19.941 11.164L19.9418 11.1732L19.9427 11.1823L20.7384 11.0991ZM23.1609 13.1668L23.2214 13.9645L23.2689 13.9609L23.3155 13.9517L23.1609 13.1668ZM26.7699 12.1918L26.5703 11.4171L26.5389 11.4252L26.5082 11.4358L26.7699 12.1918ZM27.5401 12.4656L28.3092 12.2455L28.2888 12.1742L28.2557 12.1078L27.5401 12.4656ZM28.7701 17.8273L27.982 17.9645L27.9858 17.9865L27.9909 18.0083L28.7701 17.8273ZM29.5044 18.8976L29.055 19.5595L29.0639 19.5655L29.0729 19.5712L29.5044 18.8976ZM33.8611 21.6268L33.444 22.3095L33.4494 22.3128L33.8611 21.6268ZM33.8761 21.6358L34.6168 21.9383L34.8762 21.303L34.2878 20.9499L33.8761 21.6358ZM33.4019 22.908L34.1557 23.1761L34.1557 23.1761L33.4019 22.908ZM32.6956 24.7108L33.3989 25.0923L33.4097 25.0723L33.4194 25.0517L32.6956 24.7108ZM32.3525 26.2864L33.1506 26.232L33.1506 26.232L32.3525 26.2864ZM32.9064 27.8008L32.2614 28.2742L32.2889 28.3116L32.3206 28.3456L32.9064 27.8008ZM35.3251 29.3248L35.6256 28.5834L35.5951 28.5711L35.5637 28.5612L35.3251 29.3248ZM35.9321 29.4077L36.023 30.2025L36.023 30.2025L35.9321 29.4077ZM36.5047 29.1899L36.9648 29.8443L36.9648 29.8443L36.5047 29.1899ZM36.9032 28.7248L36.186 28.3703L36.186 28.3703L36.9032 28.7248ZM37.0306 28.1256L36.2306 28.1216L36.2305 28.1396L36.2313 28.1576L37.0306 28.1256ZM40.9666 20.0548L41.7456 19.8728L41.4324 18.5319L40.4227 19.4682L40.9666 20.0548ZM40.0316 30.8261L39.2956 30.5126L39.2956 30.5126L40.0316 30.8261ZM3.05011 24.0009C3.05642 18.4463 5.26577 13.1211 9.19346 9.19338L8.06209 8.06201C3.83479 12.2893 1.45691 18.0208 1.45011 23.9991L3.05011 24.0009ZM7.2941 36.64C4.52678 33.0097 3.03497 28.5675 3.05011 24.0027L1.45012 23.9974C1.43381 28.9145 3.04075 33.6995 6.02163 37.61L7.2941 36.64ZM7.576 37.7958C7.638 37.3988 7.54336 36.9932 7.31206 36.6646L6.00367 37.5855C5.99621 37.5749 5.99315 37.5618 5.99516 37.549L7.576 37.7958ZM6.97976 38.7928C7.30023 38.5503 7.51401 38.1929 7.576 37.7958L5.99516 37.549C5.99715 37.5362 6.00405 37.5247 6.01439 37.5168L6.97976 38.7928ZM5.85822 39.0955C6.25718 39.1438 6.65929 39.0353 6.97976 38.7928L6.01439 37.5168C6.02472 37.509 6.03769 37.5055 6.05057 37.5071L5.85822 39.0955ZM4.84136 38.5339C5.09469 38.8458 5.45928 39.0472 5.85824 39.0955L6.05056 37.5071C6.06344 37.5086 6.0752 37.5151 6.08337 37.5252L4.84136 38.5339ZM-0.0498819 23.9975C-0.066392 29.2412 1.64751 34.3439 4.82609 38.5145L6.09863 37.5446C3.13351 33.6541 1.53471 28.8941 1.55011 24.0025L-0.0498819 23.9975ZM7.00187 7.00178C2.49335 11.5103 -0.0426988 17.6231 -0.0498854 23.9991L1.55011 24.0009C1.55682 18.0486 3.92433 12.3421 8.13324 8.13316L7.00187 7.00178ZM23.9992 -0.0499706C17.6232 -0.0427841 11.5104 2.49326 7.00187 7.00178L8.13324 8.13316C12.3421 3.92425 18.0487 1.55674 24.001 1.55003L23.9992 -0.0499706ZM37.4116 4.06807C33.4566 1.37761 28.7822 -0.0575607 23.9988 -0.0499701L24.0014 1.55003C28.4629 1.54295 32.8228 2.88155 36.5116 5.39099L37.4116 4.06807ZM39.0939 3.14504C38.1249 3.14957 37.1882 3.4936 36.4467 4.11729L37.4766 5.34177C37.9317 4.95896 38.5066 4.7478 39.1014 4.74502L39.0939 3.14504ZM41.4201 3.84734C40.7322 3.38853 39.9236 3.14411 39.0967 3.14503L39.0985 4.74503C39.6088 4.74446 40.1077 4.89529 40.5323 5.17843L41.4201 3.84734ZM42.9611 5.7225C42.6443 4.95874 42.108 4.30616 41.4201 3.84734L40.5323 5.17843C40.9568 5.46157 41.2877 5.86429 41.4833 6.33561L42.9611 5.7225ZM43.2 8.13788C43.3611 7.32684 43.278 6.48625 42.9611 5.7225L41.4833 6.33561C41.6788 6.80693 41.7301 7.32567 41.6307 7.82616L43.2 8.13788ZM42.0562 10.2786C42.6409 9.69391 43.039 8.9489 43.2 8.13787L41.6307 7.82617C41.5313 8.32666 41.2856 8.78641 40.9248 9.14723L42.0562 10.2786ZM39.9155 11.4225C40.7265 11.2614 41.4715 10.8633 42.0562 10.2786L40.9248 9.14723C40.564 9.50804 40.1042 9.75371 39.6037 9.85312L39.9155 11.4225ZM37.5001 11.1836C38.2638 11.5004 39.1044 11.5835 39.9155 11.4225L39.6038 9.85312C39.1033 9.95253 38.5845 9.90122 38.1132 9.70568L37.5001 11.1836ZM35.6249 9.64247C36.0837 10.3304 36.7363 10.8667 37.5001 11.1836L38.1132 9.70568C37.6419 9.51015 37.2392 9.17918 36.956 8.75467L35.6249 9.64247ZM34.9226 7.31914C34.9217 8.14601 35.1661 8.95457 35.6249 9.64247L36.956 8.75467C36.6729 8.33016 36.522 7.83119 36.5226 7.32091L34.9226 7.31914ZM35.3141 5.57632C35.0585 6.12115 34.9249 6.71517 34.9226 7.31694L36.5226 7.32312C36.524 6.9541 36.606 6.58984 36.7627 6.25574L35.3141 5.57632ZM24.0014 3.05003C28.1304 3.0435 32.1669 4.27273 35.5914 6.57953L36.4853 5.25252C32.7959 2.7673 28.4472 1.44299 23.9988 1.45003L24.0014 3.05003ZM9.19346 9.19338C13.1212 5.26569 18.4464 3.05634 24.001 3.05003L23.9992 1.45003C18.0209 1.45682 12.2894 3.8347 8.06209 8.06201L9.19346 9.19338ZM44.8974 12.1043C44.8004 11.9201 44.6673 11.7572 44.5059 11.6255L43.4941 12.8649C43.4889 12.8607 43.4846 12.8554 43.4815 12.8495L44.8974 12.1043ZM48.05 24.0906C48.0648 19.8789 46.9731 15.7372 44.8841 12.0801L43.4947 12.8737C45.4447 16.2875 46.4638 20.1536 46.45 24.085L48.05 24.0906ZM44.7995 36.0786C46.9142 32.4362 48.0351 28.3023 48.05 24.0906L46.45 24.085C46.4361 28.0164 45.3898 31.8753 43.4158 35.2752L44.7995 36.0786ZM36.0001 44.8448C39.6504 42.7438 42.6847 39.7209 44.7995 36.0786L43.4158 35.2752C41.4418 38.6751 38.6093 41.4969 35.2019 43.4581L36.0001 44.8448ZM24 48.0499C28.2117 48.051 32.3498 46.9457 36.0001 44.8448L35.2019 43.4581C31.7946 45.4192 27.9318 46.4509 24.0004 46.4499L24 48.0499ZM14.3001 46.0009C17.3539 47.3587 20.6598 48.0569 24.0018 48.0499L23.9985 46.4499C20.8815 46.4564 17.7983 45.8052 14.9502 44.5389L14.3001 46.0009ZM13.8203 46.8715C14.3657 46.6164 14.8492 46.2458 15.237 45.7853L14.0133 44.7545C13.7749 45.0376 13.4778 45.2654 13.1425 45.4222L13.8203 46.8715ZM12.0784 47.2624C12.6805 47.26 13.2749 47.1266 13.8203 46.8715L13.1425 45.4222C12.8073 45.5789 12.442 45.6609 12.0719 45.6624L12.0784 47.2624ZM10.476 46.9443C10.983 47.1543 11.5264 47.2624 12.0752 47.2624V45.6624C11.7365 45.6624 11.4012 45.5957 11.0883 45.4661L10.476 46.9443ZM9.12034 46.0385C9.50837 46.4265 9.96903 46.7343 10.476 46.9443L11.0883 45.4661C10.7754 45.3365 10.4912 45.1466 10.2517 44.9071L9.12034 46.0385ZM8.2145 44.6828C8.4245 45.1898 8.7323 45.6504 9.12034 46.0385L10.2517 44.9071C10.0123 44.6676 9.8223 44.3834 9.69271 44.0705L8.2145 44.6828ZM7.89641 43.0836C7.89641 43.6324 8.0045 44.1758 8.2145 44.6828L9.69271 44.0705C9.56311 43.7576 9.49641 43.4223 9.49641 43.0836H7.89641ZM8.2145 41.4845C8.0045 41.9915 7.89641 42.5349 7.89641 43.0836H9.49641C9.49641 42.745 9.56311 42.4097 9.69271 42.0968L8.2145 41.4845ZM9.12034 40.1288C8.73231 40.5169 8.4245 40.9775 8.2145 41.4845L9.69271 42.0968C9.8223 41.7839 10.0123 41.4997 10.2517 41.2602L9.12034 40.1288ZM10.476 39.223C9.96903 39.433 9.50837 39.7408 9.12034 40.1288L10.2517 41.2602C10.4912 41.0207 10.7754 40.8308 11.0883 40.7012L10.476 39.223ZM12.0752 38.9049C11.5264 38.9049 10.983 39.013 10.476 39.223L11.0883 40.7012C11.4012 40.5716 11.7365 40.5049 12.0752 40.5049V38.9049ZM13.9213 39.3193C13.3432 39.0388 12.7077 38.8969 12.0652 38.905L12.0851 40.5048C12.479 40.4999 12.8685 40.5869 13.2228 40.7588L13.9213 39.3193ZM15.3955 40.5209C15.0042 40.0113 14.4994 39.5999 13.9213 39.3193L13.2228 40.7588C13.5772 40.9308 13.8866 41.1829 14.1264 41.4953L15.3955 40.5209ZM16.1756 42.2554C16.0539 41.6245 15.7868 41.0306 15.3955 40.5209L14.1264 41.4953C14.3663 41.8077 14.53 42.1717 14.6046 42.5585L16.1756 42.2554ZM16.0966 44.1556C16.2703 43.537 16.2974 42.8863 16.1756 42.2554L14.6046 42.5585C14.6792 42.9452 14.6626 43.344 14.5562 43.7232L16.0966 44.1556ZM23.9984 44.9499C21.124 44.956 18.28 44.3624 15.648 43.2069L15.0048 44.6719C17.8406 45.9169 20.9049 46.5565 24.0019 46.5499L23.9984 44.9499ZM34.4528 42.1579C31.2732 43.9879 27.6688 44.9507 24.0003 44.9499L24 46.5499C27.9488 46.5507 31.8285 45.5144 35.2509 43.5447L34.4528 42.1579ZM42.1176 34.5226C40.2754 37.6951 37.6323 40.328 34.4528 42.1579L35.2509 43.5447C38.6733 41.5749 41.5183 38.7409 43.5013 35.3261L42.1176 34.5226ZM44.95 24.0811C44.9366 27.7496 43.9599 31.3502 42.1176 34.5226L43.5013 35.3261C45.4842 31.9114 46.5355 28.0357 46.55 24.0869L44.95 24.0811ZM42.1942 13.6191C44.0131 16.8049 44.9634 20.4126 44.95 24.0811L46.55 24.0869C46.5645 20.1382 45.5415 16.2549 43.5836 12.8257L42.1942 13.6191ZM41.9943 13.0653C42.0264 13.271 42.0996 13.4682 42.2097 13.645L43.5681 12.7998C43.5717 12.8055 43.5741 12.8118 43.5751 12.8185L41.9943 13.0653ZM42.0227 12.4474C41.9718 12.6494 41.9621 12.8595 41.9943 13.0653L43.5751 12.8185C43.5761 12.8251 43.5758 12.8319 43.5742 12.8384L42.0227 12.4474ZM42.2904 11.8899C42.1646 12.0559 42.0736 12.2455 42.0227 12.4474L43.5742 12.8384C43.5725 12.8449 43.5696 12.851 43.5655 12.8564L42.2904 11.8899ZM42.7549 11.4814C42.5742 11.585 42.4162 11.7239 42.2904 11.8899L43.5656 12.8564C43.5615 12.8617 43.5564 12.8662 43.5506 12.8696L42.7549 11.4814ZM43.342 11.2871C43.1352 11.3118 42.9355 11.3779 42.7549 11.4814L43.5506 12.8696C43.5447 12.8729 43.5383 12.875 43.5316 12.8758L43.342 11.2871ZM43.9584 11.3378C43.7584 11.2797 43.5488 11.2624 43.342 11.2871L43.5316 12.8758C43.525 12.8766 43.5182 12.8761 43.5117 12.8742L43.9584 11.3378ZM44.5059 11.6255C44.3446 11.4938 44.1584 11.3959 43.9584 11.3378L43.5117 12.8742C43.5053 12.8723 43.4993 12.8692 43.4941 12.8649L44.5059 11.6255ZM34.6533 26.1323C34.6447 26.0062 34.6745 25.8806 34.7388 25.7718L33.3614 24.9578C33.1326 25.3449 33.0265 25.7922 33.057 26.2408L34.6533 26.1323ZM34.7868 26.4778C34.7084 26.3787 34.6619 26.2583 34.6533 26.1323L33.057 26.2408C33.0875 26.6895 33.2532 27.1183 33.5323 27.4709L34.7868 26.4778ZM35.814 27.0597C35.4018 26.9082 35.0229 26.6783 34.6981 26.3827L33.6211 27.5659C34.0987 28.0006 34.656 28.3387 35.2622 28.5615L35.814 27.0597ZM39.9692 17.8263C37.5966 19.9525 35.0463 23.6635 34.7403 27.7508L36.3358 27.8703C36.6013 24.3241 38.8601 20.9687 41.037 19.0178L39.9692 17.8263ZM32.9946 10.0231C36.1598 12.0607 38.5398 15.1121 39.7452 18.6782L41.261 18.1659C39.9395 14.2566 37.3304 10.9115 33.8606 8.67779L32.9946 10.0231ZM22.3212 7.46174C26.0664 7.08253 29.8294 7.98558 32.9946 10.0231L33.8606 8.67779C30.3908 6.44413 26.2656 5.45418 22.16 5.86988L22.3212 7.46174ZM23.0319 10.9026C22.9979 10.4859 23.016 7.91931 23.0404 6.68161L21.4407 6.65001C21.4172 7.84231 21.3948 10.5138 21.4372 11.033L23.0319 10.9026ZM22.9923 10.8803C22.9557 10.883 22.923 10.8853 22.8934 10.887C22.8637 10.8887 22.8384 10.8899 22.8164 10.8905C22.7945 10.8911 22.7774 10.8912 22.7643 10.8909C22.7511 10.8907 22.7436 10.8902 22.7406 10.8899C22.7376 10.8896 22.7409 10.8898 22.7492 10.8914C22.7575 10.893 22.7722 10.8963 22.7914 10.9027C22.8108 10.9093 22.8347 10.919 22.8611 10.9332C22.8877 10.9475 22.9148 10.9652 22.941 10.9866C22.9672 11.008 22.9899 11.0308 23.0089 11.0536C23.0277 11.0762 23.0416 11.097 23.0514 11.1139C23.0612 11.1307 23.0669 11.1435 23.0698 11.1504C23.0726 11.1572 23.0731 11.1593 23.0719 11.1553C23.0707 11.1513 23.0683 11.1428 23.0652 11.1285C23.062 11.1144 23.0585 11.096 23.0546 11.0725C23.0466 11.0248 23.0386 10.9635 23.0301 10.8836L21.439 11.052C21.4586 11.2366 21.4854 11.4348 21.5389 11.6136C21.5942 11.7986 21.6997 12.0388 21.9294 12.2262C22.1598 12.4143 22.4146 12.4671 22.5976 12.4835C22.7714 12.4991 22.9571 12.4874 23.1119 12.4758L22.9923 10.8803ZM26.1361 9.98952C25.0663 10.348 23.9786 10.6511 22.8775 10.8974L23.2267 12.4588C24.3816 12.2005 25.5224 11.8826 26.6445 11.5066L26.1361 9.98952ZM28.1523 10.0679C27.5123 9.79622 26.7949 9.76839 26.1358 9.98965L26.6449 11.5065C26.9333 11.4097 27.2472 11.4218 27.5272 11.5407L28.1523 10.0679ZM29.6095 11.4641C29.3107 10.8362 28.7924 10.3395 28.1523 10.0679L27.5272 11.5407C27.8072 11.6596 28.034 11.8769 28.1647 12.1516L29.6095 11.4641ZM31.035 17.4233C31.0273 17.3738 30.792 16.1407 30.5082 14.8243C30.3653 14.1614 30.2074 13.4652 30.0568 12.8751C29.9142 12.3165 29.7572 11.7661 29.6057 11.4564L28.1684 12.1593C28.2345 12.2943 28.355 12.6776 28.5065 13.271C28.65 13.8329 28.803 14.5068 28.9441 15.1615C29.2284 16.4802 29.4544 17.6718 29.4542 17.6703L31.035 17.4233ZM30.8691 17.0611C30.8957 17.0857 30.9184 17.1141 30.9366 17.1454L29.5526 17.9482C29.6144 18.0547 29.6917 18.1514 29.782 18.235L30.8691 17.0611ZM35.0494 19.6665C33.6547 18.8095 32.2069 17.9023 30.7568 16.9743L29.8943 18.3219C31.3528 19.2553 32.8089 20.1677 34.2118 21.0297L35.0494 19.6665ZM36.0903 20.8844C35.9015 20.3363 35.5034 19.8853 34.983 19.6299L34.2782 21.0662C34.4188 21.1353 34.5265 21.2572 34.5775 21.4054L36.0903 20.8844ZM35.9902 22.5547C36.2431 22.0331 36.279 21.4325 36.0903 20.8844L34.5775 21.4054C34.6285 21.5535 34.6188 21.7159 34.5504 21.8569L35.9902 22.5547ZM35.5446 23.7555C35.6973 23.3276 35.8436 22.9179 36.0109 22.5083L34.5297 21.9033C34.3466 22.3516 34.1886 22.7949 34.0377 23.2178L35.5446 23.7555ZM35.5604 23.7064L35.5604 23.7064L34.0219 23.2668L34.0219 23.2669L35.5604 23.7064ZM35.5604 23.7065L35.5604 23.7064L34.0219 23.2669L34.0219 23.2669L35.5604 23.7065ZM35.5466 23.7498L35.5467 23.7495L34.0355 23.2239L34.0354 23.2241L35.5466 23.7498ZM34.7741 25.7051C35.0876 25.0383 35.3226 24.3778 35.5445 23.7558L34.0376 23.2181C33.8121 23.85 33.6015 24.4386 33.3261 25.0245L34.7741 25.7051ZM14.9815 13.7581L14.9885 13.7522L13.95 12.535L13.943 12.5409L14.9815 13.7581ZM13.61 15.8626C13.5464 15.5388 13.648 15.2029 13.9267 14.8171C14.2113 14.4233 14.6089 14.0767 14.9821 13.7576L13.9424 12.5414C13.5866 12.8456 13.043 13.3083 12.6298 13.8801C12.2109 14.4599 11.8583 15.2459 12.04 16.1709L13.61 15.8626ZM11.6397 21.1989C12.7458 20.7096 13.6434 20.1044 13.991 19.0885C14.3246 18.1133 14.0631 16.9937 13.5707 15.7269L12.0794 16.3066C12.5619 17.5479 12.6098 18.1828 12.4771 18.5706C12.3584 18.9176 12.014 19.2837 10.9924 19.7357L11.6397 21.1989ZM9.67806 23.0225C10.0806 22.2001 10.7712 21.5543 11.6187 21.2078L11.0133 19.7268C9.80258 20.2217 8.81596 21.1443 8.24096 22.3191L9.67806 23.0225ZM6.41572 24.7832C7.04717 24.9136 7.68609 24.9152 8.29162 24.5887C8.87172 24.2759 9.29498 23.7279 9.66219 23.0532L8.25684 22.2883C7.94605 22.8594 7.70856 23.0853 7.53229 23.1804C7.38144 23.2617 7.16835 23.3049 6.73931 23.2163L6.41572 24.7832ZM7.77806 15.7071C6.464 18.2739 5.77834 21.116 5.77751 23.9995L7.37751 24C7.37827 21.3698 8.00368 18.7774 9.20226 16.4363L7.77806 15.7071ZM13.3358 9.23588C10.997 10.9225 9.09211 13.1404 7.77806 15.7071L9.20226 16.4363C10.4008 14.0951 12.1383 12.072 14.2717 10.5337L13.3358 9.23588ZM16.2317 12.1072C16.2806 11.8725 16.2429 11.6602 16.1987 11.5095C16.1529 11.3536 16.084 11.2094 16.0137 11.0853C15.8735 10.8377 15.6822 10.5902 15.4897 10.3695C15.1047 9.92813 14.6245 9.49215 14.2739 9.23749L13.3336 10.532C13.5778 10.7094 13.9702 11.0617 14.284 11.4213C14.4409 11.6011 14.5555 11.7573 14.6214 11.8736C14.6368 11.9008 14.6475 11.9223 14.6546 11.9383C14.6619 11.9545 14.6639 11.9615 14.6635 11.9601C14.6632 11.9591 14.6586 11.9435 14.6562 11.9157C14.6537 11.8877 14.6529 11.8407 14.6653 11.7813L16.2317 12.1072ZM14.9885 13.7521C15.2261 13.5494 15.5118 13.3074 15.7346 13.0614C15.9356 12.8394 16.2334 12.46 16.2482 11.9683L14.6489 11.9203C14.651 11.8496 14.6732 11.8196 14.6605 11.8426C14.6476 11.8661 14.6155 11.9135 14.5486 11.9874C14.4091 12.1414 14.2108 12.3125 13.95 12.535L14.9885 13.7521ZM27.2266 29.3023C27.2507 29.459 27.2755 29.6205 27.3019 29.767L28.8765 29.4832C28.8545 29.3609 28.8329 29.2211 28.8079 29.059L27.2266 29.3023ZM27.2173 29.1806V29.1806H28.8173V29.1806H27.2173ZM27.0629 28.3913C27.1298 28.6759 27.1781 28.9872 27.2266 29.3023L28.8079 29.059C28.7612 28.7551 28.7041 28.3813 28.6205 28.0254L27.0629 28.3913ZM21.6987 26.9201C22.3613 28.4785 23.6119 29.1621 24.8637 29.3528C26.0735 29.5372 27.3023 29.2725 28.1285 28.9551L27.5549 27.4615C26.9028 27.712 25.9619 27.9017 25.1047 27.7711C24.2895 27.6469 23.5758 27.2459 23.1712 26.2941L21.6987 26.9201ZM22.0868 27.0809C22.1121 27.0795 22.0706 27.0834 22.0183 27.0765C21.9565 27.0684 21.8852 27.0479 21.8164 27.008C21.6816 26.9298 21.665 26.8425 21.701 26.9255L23.1688 26.2887C23.0582 26.0336 22.8906 25.7814 22.6193 25.624C22.3328 25.4578 22.0625 25.4799 22.0015 25.4832L22.0868 27.0809ZM22.08 27.0812L22.086 27.0809L22.0023 25.4831L21.9964 25.4834L22.08 27.0812ZM21.9653 27.184C22.0346 27.1247 22.1177 27.0836 22.2069 27.0644L21.8695 25.5003C21.5208 25.5755 21.1963 25.7363 20.9253 25.9682L21.9653 27.184ZM21.8096 27.4041C21.8425 27.319 21.896 27.2434 21.9653 27.184L20.9253 25.9682C20.6542 26.2 20.4451 26.4957 20.3167 26.8285L21.8096 27.4041ZM16.2546 32.971C17.3259 32.6661 18.734 32.2748 19.8556 31.4342C21.0399 30.5465 21.866 29.1942 21.8632 27.1152L20.2632 27.1174C20.2653 28.6912 19.677 29.5685 18.896 30.1539C18.0522 30.7863 16.9441 31.1112 15.8166 31.4322L16.2546 32.971ZM15.8753 33.0798C15.9979 33.0441 16.1239 33.0083 16.2546 32.971L15.8166 31.4322C15.6866 31.4692 15.5563 31.5063 15.4286 31.5434L15.8753 33.0798ZM15.9339 32.3547C16.1087 32.528 16.1373 32.7213 16.1433 32.7673C16.1522 32.8346 16.1466 32.8795 16.1456 32.888C16.1431 32.9084 16.142 32.9018 16.1505 32.8807C16.1602 32.8567 16.1597 32.8694 16.1306 32.9042C16.1154 32.9223 16.0737 32.9689 16 33.0141C15.923 33.0611 15.7877 33.1198 15.6102 33.1105L15.6936 31.5127C15.2549 31.4898 14.9871 31.7774 14.9034 31.8775C14.7904 32.0125 14.715 32.1624 14.6669 32.2817C14.6175 32.4039 14.5757 32.5466 14.5577 32.6912C14.549 32.7618 14.5421 32.8625 14.5569 32.9755C14.569 33.0672 14.6109 33.2961 14.8075 33.491L15.9339 32.3547ZM20.448 35.9889C20.3203 34.7791 19.794 33.7911 18.868 33.1159C17.9679 32.4597 16.7707 32.1573 15.3905 32.1231L15.3509 33.7226C16.5447 33.7522 17.3815 34.0123 17.9253 34.4088C18.4433 34.7864 18.7708 35.3415 18.8569 36.1568L20.448 35.9889ZM25.3583 39.2057C25.0846 38.2576 24.7668 37.0915 23.8952 36.2786C22.9739 35.4196 21.6073 35.0835 19.5768 35.2764L19.7281 36.8692C21.5503 36.6961 22.364 37.0385 22.804 37.4488C23.2935 37.9053 23.518 38.5996 23.8211 39.6495L25.3583 39.2057ZM25.4547 39.529C25.4192 39.4101 25.3862 39.2997 25.3568 39.2005L23.8226 39.6547C23.8527 39.7565 23.8864 39.8691 23.9218 39.9874L25.4547 39.529ZM25.9274 41.1942C25.8071 40.7065 25.6066 40.037 25.4547 39.529L23.9218 39.9874C24.0778 40.509 24.2651 41.1361 24.374 41.5775L25.9274 41.1942ZM31.2129 38.9788C29.2977 39.9041 27.2217 40.4504 25.0991 40.5875L25.2022 42.1842C27.5307 42.0338 29.8081 41.4345 31.909 40.4194L31.2129 38.9788ZM31.3616 34.9196C30.7859 36.2314 29.921 38.0974 30.8374 40.0404L32.2845 39.3578C31.7265 38.1747 32.193 37.0068 32.8268 35.5625L31.3616 34.9196ZM31.495 34.6143C31.4517 34.7143 31.4073 34.8154 31.3616 34.9196L32.8268 35.5625C32.8722 35.4591 32.9182 35.3542 32.9633 35.2499L31.495 34.6143ZM31.694 35.5475L31.8317 35.6263L32.6267 34.2378L32.489 34.159L31.694 35.5475ZM27.2938 29.711C27.4686 31.3292 27.7841 32.4252 28.5439 33.3219C29.2595 34.1665 30.3244 34.7635 31.694 35.5475L32.4889 34.1589C31.0243 33.3205 30.257 32.8687 29.7646 32.2876C29.3163 31.7585 29.0479 31.0516 28.8846 29.5392L27.2938 29.711ZM32.5133 36.0878C32.0438 37.063 31.6589 38.0839 32.1785 39.2815L33.6463 38.6447C33.4279 38.1413 33.5109 37.7042 33.9549 36.7819L32.5133 36.0878ZM32.9513 34.9691C32.8313 35.353 32.6844 35.728 32.5116 36.0913L33.9566 36.7783C34.1616 36.3472 34.336 35.9022 34.4784 35.4466L32.9513 34.9691ZM32.9985 34.6384C33.0262 34.7146 33.0227 34.7986 32.9887 34.8722L34.4411 35.5434C34.6524 35.0863 34.6742 34.5641 34.5018 34.0908L32.9985 34.6384ZM32.8406 34.4656C32.914 34.5001 32.9707 34.5622 32.9985 34.6384L34.5019 34.0909C34.3295 33.6176 33.977 33.2318 33.5212 33.0176L32.8406 34.4656ZM32.1789 34.0907C32.371 34.1997 32.5707 34.3131 32.7808 34.4344L33.5809 33.0488C33.3649 32.924 33.1601 32.8078 32.9686 32.6992L32.1789 34.0907ZM28.7723 29.439C28.8625 30.7332 29.1512 31.6495 29.7895 32.3923C30.3834 33.0835 31.235 33.5551 32.1789 34.0907L32.9686 32.6992C31.9428 32.1171 31.3764 31.784 31.003 31.3495C30.6739 30.9665 30.4457 30.4358 30.3684 29.3277L28.7723 29.439ZM28.5639 28.2078C28.6523 28.7167 28.7207 29.1366 28.7804 29.5097L30.3603 29.2569C30.3 28.88 30.2304 28.4525 30.1403 27.9339L28.5639 28.2078ZM28.424 27.7712C28.4964 27.889 28.5418 28.0213 28.557 28.1587L30.1473 27.983C30.1062 27.6109 29.9832 27.2524 29.7871 26.9334L28.424 27.7712ZM28.1384 27.4776C28.2541 27.5532 28.3516 27.6535 28.424 27.7712L29.7871 26.9334C29.5911 26.6144 29.3268 26.3428 29.0134 26.1381L28.1384 27.4776ZM27.8716 27.4757C28.0066 27.4692 28.1414 27.493 28.266 27.5454L28.8857 26.0703C28.541 25.9255 28.1683 25.8596 27.7949 25.8775L27.8716 27.4757ZM27.4857 27.5828C27.6047 27.5188 27.7366 27.4822 27.8716 27.4757L27.7949 25.8775C27.4215 25.8955 27.0568 25.9967 26.7276 26.1738L27.4857 27.5828ZM23.0788 26.3291C23.6156 27.6344 24.8337 27.9095 25.6867 27.9122C26.5432 27.915 27.2898 27.6618 27.3709 27.6334L26.8423 26.1233C26.8429 26.1231 26.8338 26.1262 26.816 26.1319C26.7985 26.1376 26.7732 26.1454 26.7411 26.1547C26.6767 26.1735 26.5861 26.1977 26.4771 26.2216C26.2554 26.2702 25.9753 26.3132 25.6919 26.3122C25.1046 26.3103 24.7311 26.1403 24.5585 25.7205L23.0788 26.3291ZM22.6379 25.7509C22.8358 25.879 22.9858 26.0691 23.0643 26.2914L24.5729 25.7583C24.3766 25.2028 24.002 24.7279 23.5074 24.4078L22.6379 25.7509ZM21.9703 25.5831C22.2052 25.5638 22.44 25.6228 22.6379 25.7509L23.5074 24.4078C23.0128 24.0876 22.4262 23.9402 21.839 23.9885L21.9703 25.5831ZM20.9192 26.108C21.2175 25.8196 21.6002 25.6341 22.0115 25.5787L21.7978 23.993C21.0482 24.094 20.3506 24.4321 19.8069 24.9578L20.9192 26.108ZM20.3534 27.182C20.4226 26.7728 20.6208 26.3965 20.9192 26.108L19.8069 24.9578C19.2632 25.4836 18.9019 26.1695 18.7758 26.9152L20.3534 27.182ZM15.6273 31.5984C16.7838 31.2714 18.0037 30.9136 18.8991 30.2635C19.366 29.9244 19.7653 29.4936 20.0307 28.9321C20.2956 28.3718 20.4038 27.7304 20.3634 27.0041L18.7659 27.0931C18.7944 27.6058 18.7145 27.9725 18.5842 28.2484C18.4543 28.5231 18.2513 28.7565 17.959 28.9688C17.3358 29.4213 16.4092 29.7145 15.1919 30.0588L15.6273 31.5984ZM14.9253 32.012C15.0927 31.8082 15.3238 31.6666 15.5814 31.6099L15.2379 30.0472C14.6297 30.1809 14.0841 30.5153 13.6888 30.9965L14.9253 32.012ZM14.6585 32.7337C14.6639 32.47 14.7579 32.2158 14.9253 32.012L13.6888 30.9965C13.2936 31.4777 13.0717 32.0779 13.0588 32.7005L14.6585 32.7337ZM14.7979 33.323C14.6865 33.172 14.6354 32.985 14.6545 32.7984L13.0628 32.6358C13.0033 33.218 13.1628 33.8015 13.5101 34.2726L14.7979 33.323ZM15.2567 33.615C15.0728 33.5781 14.9092 33.474 14.7979 33.323L13.5101 34.2726C13.8575 34.7436 14.3678 35.0684 14.9416 35.1837L15.2567 33.615ZM18.964 36.1919C18.9135 35.2305 18.4046 34.5399 17.6447 34.1285C16.9386 33.7462 16.0367 33.6109 15.109 33.5994L15.0892 35.1993C15.915 35.2095 16.5117 35.3345 16.8829 35.5355C17.2004 35.7074 17.3477 35.9231 17.3662 36.2758L18.964 36.1919ZM19.1998 36.596C19.0647 36.4855 18.9788 36.3259 18.9609 36.1522L17.3693 36.3155C17.4303 36.9101 17.7243 37.4563 18.1871 37.8347L19.1998 36.596ZM19.6822 36.7419C19.5085 36.759 19.335 36.7065 19.1998 36.596L18.1871 37.8347C18.6499 38.213 19.2436 38.3926 19.8385 38.3343L19.6822 36.7419ZM23.9188 39.6072C23.7867 39.1498 23.6595 38.7049 23.5018 38.3306C23.3394 37.9453 23.1179 37.5655 22.7553 37.2685C22.0332 36.6771 21.0107 36.6252 19.6904 36.7412L19.8304 38.335C21.1708 38.2173 21.5704 38.3662 21.7416 38.5064C21.8257 38.5752 21.9186 38.6939 22.0273 38.9518C22.1405 39.2206 22.2408 39.5637 22.3816 40.051L23.9188 39.6072ZM23.9212 39.6156L23.9187 39.6071L22.3816 40.0511L22.3841 40.0596L23.9212 39.6156ZM24.1037 40.229C24.0375 40.0132 23.976 39.8121 23.9233 39.623L22.3819 40.0522C22.4411 40.2648 22.509 40.4862 22.5739 40.6978L24.1037 40.229ZM24.3879 41.2223C24.3069 40.8913 24.2001 40.5436 24.1037 40.229L22.5739 40.6978C22.6733 41.0221 22.7657 41.3245 22.8338 41.6028L24.3879 41.2223ZM11.5546 37.2918C14.8262 40.3552 19.1113 42.1068 23.592 42.2124L23.6297 40.6128C19.542 40.5165 15.6328 38.9186 12.6482 36.1239L11.5546 37.2918ZM5.85431 25.6034C6.25379 30.0676 8.28296 34.2283 11.5546 37.2918L12.6482 36.1239C9.66355 33.3292 7.81238 29.5333 7.44794 25.4608L5.85431 25.6034ZM8.38263 24.3941C7.88622 24.6813 7.31075 24.8015 6.7409 24.7371L6.56134 26.327C7.47159 26.4298 8.39081 26.2378 9.18375 25.7791L8.38263 24.3941ZM9.49852 23.1421C9.27018 23.6681 8.87904 24.107 8.38263 24.3941L9.18375 25.7791C9.97669 25.3205 10.6015 24.6194 10.9662 23.7791L9.49852 23.1421ZM11.5319 21.127C10.6327 21.5224 9.9108 22.2353 9.50415 23.1294L10.9606 23.7918C11.2043 23.2559 11.637 22.8286 12.1759 22.5917L11.5319 21.127ZM13.5453 15.9362C13.9672 17.0616 14.1642 18.0228 13.9538 18.8382C13.7587 19.5944 13.1596 20.4097 11.5313 21.1273L12.1765 22.5914C14.0934 21.7467 15.1477 20.6154 15.5031 19.2379C15.8432 17.9195 15.4878 16.5598 15.0435 15.3745L13.5453 15.9362ZM14.9944 13.6182C14.3592 14.0405 13.8606 14.6386 13.5594 15.3394L15.0294 15.9712C15.208 15.5556 15.5037 15.201 15.8803 14.9505L14.9944 13.6182ZM16.1498 11.9605C16.1289 12.588 15.6683 13.0361 14.9183 13.6756L15.9564 14.8931C16.591 14.352 17.7008 13.4606 17.7489 12.0137L16.1498 11.9605ZM14.6219 9.65272C15.0808 10.0057 15.5015 10.4646 15.7897 10.9161C16.0967 11.3972 16.1726 11.7406 16.1547 11.8949L17.744 12.0792C17.8259 11.3733 17.5114 10.6398 17.1384 10.0553C16.7465 9.4412 16.1975 8.84601 15.5973 8.38445L14.6219 9.65272ZM20.589 6.0959C18.5103 6.49086 16.517 7.24755 14.6998 8.33154L15.5195 9.70563C17.1759 8.71754 18.9929 8.02779 20.8877 7.66778L20.589 6.0959ZM21.5357 11.0342C21.4971 10.5598 21.5116 8.24614 21.5382 6.89764L19.9385 6.86603C19.9127 8.17404 19.8941 10.5884 19.941 11.164L21.5357 11.0342ZM23.1003 12.3691C22.4873 12.4157 22.1606 12.2885 21.9756 12.1308C21.7873 11.9703 21.6008 11.6546 21.534 11.0159L19.9427 11.1823C20.0334 12.0496 20.322 12.8236 20.9376 13.3484C21.5564 13.876 22.3622 14.0298 23.2214 13.9645L23.1003 12.3691ZM26.5082 11.4358C25.3642 11.8318 24.194 12.1479 23.0062 12.3819L23.3155 13.9517C24.5759 13.7034 25.8175 13.368 27.0315 12.9478L26.5082 11.4358ZM28.2557 12.1078C28.1871 11.9708 28.0282 11.6753 27.6796 11.4942C27.3245 11.3097 26.9345 11.3233 26.5703 11.4171L26.9695 12.9665C27.0427 12.9477 27.0681 12.9502 27.0588 12.9498C27.0447 12.9492 26.9993 12.9438 26.942 12.9141C26.8248 12.8531 26.7933 12.7609 26.8246 12.8234L28.2557 12.1078ZM29.5583 17.6902C29.2389 15.8544 28.8219 14.0369 28.3092 12.2455L26.771 12.6857C27.2681 14.4225 27.6723 16.1846 27.982 17.9645L29.5583 17.6902ZM29.9537 18.2357C29.7496 18.0971 29.6052 17.8867 29.5494 17.6463L27.9909 18.0083C28.1378 18.6409 28.5178 19.1947 29.055 19.5595L29.9537 18.2357ZM34.2783 20.9442C32.8587 20.0768 31.4047 19.1648 29.9359 18.2239L29.0729 19.5712C30.55 20.5174 32.0136 21.4354 33.444 22.3095L34.2783 20.9442ZM34.2878 20.9499L34.2728 20.9409L33.4494 22.3128L33.4644 22.3218L34.2878 20.9499ZM34.1557 23.1761C34.3097 22.743 34.4566 22.3305 34.6168 21.9383L33.1355 21.3334C32.959 21.7656 32.7999 22.2133 32.6482 22.6399L34.1557 23.1761ZM33.4194 25.0517C33.7049 24.4455 33.938 23.788 34.1557 23.1761L32.6482 22.6399C32.4251 23.2672 32.2178 23.8479 31.9719 24.37L33.4194 25.0517ZM33.1506 26.232C33.1236 25.8362 33.2097 25.4409 33.3989 25.0923L31.9924 24.3294C31.6586 24.9448 31.5067 25.6424 31.5543 26.3409L33.1506 26.232ZM33.5513 27.3275C33.3166 27.0077 33.1776 26.6278 33.1506 26.232L31.5543 26.3409C31.602 27.0393 31.8472 27.7098 32.2614 28.2742L33.5513 27.3275ZM35.5637 28.5612C34.7714 28.3137 34.0574 27.8638 33.4922 27.256L32.3206 28.3456C33.0753 29.1572 34.0287 29.7579 35.0865 30.0884L35.5637 28.5612ZM35.8412 28.6128C35.768 28.6212 35.6939 28.6111 35.6256 28.5834L35.0246 30.0662C35.3408 30.1944 35.684 30.2412 36.023 30.2025L35.8412 28.6128ZM36.0445 28.5355C35.9842 28.5779 35.9143 28.6045 35.8412 28.6128L36.023 30.2025C36.3619 30.1637 36.6857 30.0406 36.9648 29.8443L36.0445 28.5355ZM36.186 28.3703C36.1534 28.4364 36.1047 28.4932 36.0445 28.5355L36.9648 29.8443C37.2439 29.6481 37.4693 29.385 37.6204 29.0792L36.186 28.3703ZM36.2313 28.1576C36.2342 28.2312 36.2187 28.3043 36.186 28.3703L37.6204 29.0792C37.7716 28.7734 37.8436 28.4345 37.83 28.0936L36.2313 28.1576ZM40.4227 19.4682C39.3653 20.4487 38.3315 21.8755 37.559 23.3977C36.7902 24.9128 36.2382 26.6053 36.2306 28.1216L37.8306 28.1296C37.8365 26.9564 38.2775 25.5177 38.9858 24.1218C39.6905 22.7331 40.618 21.4692 41.5106 20.6414L40.4227 19.4682ZM40.7676 31.1396C42.2824 27.5833 42.625 23.6369 41.7456 19.8728L40.1876 20.2368C40.9896 23.6698 40.6772 27.2691 39.2956 30.5126L40.7676 31.1396ZM33.3209 39.6509C36.6444 37.6771 39.2527 34.6959 40.7676 31.1396L39.2956 30.5126C37.914 33.756 35.5351 36.475 32.5039 38.2752L33.3209 39.6509Z" fill="url(#paint2_radial_5910_178644)" fill-opacity="0.3" mask="url(#path-1-inside-1_5910_178644)"/>
</g>
</g>
<defs>
<filter id="filter0_bd_5910_178644" x="-399.25" y="-399.25" width="846.5" height="846.5" filterUnits="userSpaceOnUse" color-interpolation-filters="sRGB">
<feFlood flood-opacity="0" result="BackgroundImageFix"/>
<feGaussianBlur in="BackgroundImageFix" stdDeviation="200"/>
<feComposite in2="SourceAlpha" operator="in" result="effect1_backgroundBlur_5910_178644"/>
<feColorMatrix in="SourceAlpha" type="matrix" values="0 0 0 0 0 0 0 0 0 0 0 0 0 0 0 0 0 0 127 0" result="hardAlpha"/>
<feOffset dy="1.6"/>
<feGaussianBlur stdDeviation="0.8"/>
<feComposite in2="hardAlpha" operator="out"/>
<feColorMatrix type="matrix" values="0 0 0 0 0 0 0 0 0 0 0 0 0 0 0 0 0 0 0.25 0"/>
<feBlend mode="normal" in2="effect1_backgroundBlur_5910_178644" result="effect2_dropShadow_5910_178644"/>
<feBlend mode="normal" in="SourceGraphic" in2="effect2_dropShadow_5910_178644" result="shape"/>
</filter>
<linearGradient id="paint0_linear_5910_178644" x1="2.66869" y1="1.94773" x2="24.5792" y2="58.2088" gradientUnits="userSpaceOnUse">
<stop stop-color="white" stop-opacity="0.6"/>
<stop offset="1" stop-color="white" stop-opacity="0"/>
</linearGradient>
<radialGradient id="paint1_radial_5910_178644" cx="0" cy="0" r="1" gradientUnits="userSpaceOnUse" gradientTransform="translate(24.0001 1.17273) rotate(90) scale(40.3704 40.3705)">
<stop stop-color="white"/>
<stop offset="1" stop-color="white" stop-opacity="0"/>
</radialGradient>
<radialGradient id="paint2_radial_5910_178644" cx="0" cy="0" r="1" gradientUnits="userSpaceOnUse" gradientTransform="translate(24.0001 47.2499) rotate(-90) scale(23.25 23.2501)">
<stop stop-color="white"/>
<stop offset="1" stop-color="white" stop-opacity="0"/>
</radialGradient>
<clipPath id="clip0_5910_178644">
<rect width="48" height="48" fill="white"/>
</clipPath>
</defs>
</svg>
