<svg width="82" height="86" viewBox="0 0 82 86" fill="none" xmlns="http://www.w3.org/2000/svg">
<g id="Group 3">
<g id="Group 2">
<path id="Ellipse 3" d="M42.7537 72.3535C38.1348 72.1104 34.2392 74.7843 34.2392 74.7843C34.2392 74.7843 37.8326 77.8524 42.4515 78.0955C47.0705 78.3386 50.966 75.6646 50.966 75.6646C50.966 75.6646 47.3727 72.5965 42.7537 72.3535Z" fill="url(#paint0_linear_5966_183131)"/>
<path id="Ellipse 6" d="M35.2088 63.1159C30.6647 62.2525 26.4444 64.3771 26.4444 64.3771C26.4444 64.3771 29.5914 67.9015 34.1355 68.7648C38.6796 69.6282 42.8999 67.5037 42.8999 67.5037C42.8999 67.5037 39.7529 63.9793 35.2088 63.1159Z" fill="url(#paint1_linear_5966_183131)"/>
<path id="Ellipse 7" d="M30.3847 52.714C26.4041 51.4761 22.4078 52.9468 22.4078 52.9468C22.4078 52.9468 24.8652 56.4245 28.8458 57.6624C32.8263 58.9003 36.8227 57.4296 36.8227 57.4296C36.8227 57.4296 34.3652 53.9519 30.3847 52.714Z" fill="url(#paint2_linear_5966_183131)"/>
<path id="Ellipse 9" d="M27.611 40.1574C24.0312 38.0215 19.8016 38.515 19.8016 38.515C19.8016 38.515 21.3759 42.4716 24.9557 44.6076C28.5355 46.7436 32.7651 46.25 32.7651 46.25C32.7651 46.25 31.1908 42.2934 27.611 40.1574Z" fill="url(#paint3_linear_5966_183131)"/>
<path id="Ellipse 11" d="M27.5493 27.0941C24.4186 24.3417 20.1698 24.0564 20.1698 24.0564C20.1698 24.0564 20.997 28.2336 24.1277 30.986C27.2584 33.7385 31.5072 34.0238 31.5072 34.0238C31.5072 34.0238 30.6801 29.8465 27.5493 27.0941Z" fill="url(#paint4_linear_5966_183131)"/>
<path id="Ellipse 13" d="M32.709 15.4183C31.4497 12.7291 28.7573 11.3318 28.7573 11.3318C28.7573 11.3318 28.1066 14.2945 29.3659 16.9838C30.6252 19.673 33.3175 21.0703 33.3175 21.0703C33.3175 21.0703 33.9682 18.1075 32.709 15.4183Z" fill="url(#paint5_linear_5966_183131)"/>
<path id="Ellipse 4" d="M48.3808 67.2922C48.1377 71.9111 50.8117 75.8067 50.8117 75.8067C50.8117 75.8067 53.8797 72.2133 54.1228 67.5944C54.3659 62.9754 51.692 59.0799 51.692 59.0799C51.692 59.0799 48.6239 62.6732 48.3808 67.2922Z" fill="url(#paint6_linear_5966_183131)"/>
<path id="Ellipse 5" d="M41.548 58.8659C40.6847 63.41 42.8092 67.6303 42.8092 67.6303C42.8092 67.6303 46.3336 64.4833 47.197 59.9392C48.0603 55.3951 45.9358 51.1748 45.9358 51.1748C45.9358 51.1748 42.4114 54.3218 41.548 58.8659Z" fill="url(#paint7_linear_5966_183131)"/>
<path id="Ellipse 8" d="M36.4962 49.5572C35.2583 53.5378 36.729 57.5341 36.729 57.5341C36.729 57.5341 40.2067 55.0767 41.4446 51.0961C42.6825 47.1155 41.2118 43.1192 41.2118 43.1192C41.2118 43.1192 37.7341 45.5767 36.4962 49.5572Z" fill="url(#paint8_linear_5966_183131)"/>
<path id="Ellipse 10" d="M34.2917 38.5203C32.1557 42.1001 32.6493 46.3298 32.6493 46.3298C32.6493 46.3298 36.6059 44.7554 38.7419 41.1756C40.8778 37.5958 40.3843 33.3662 40.3843 33.3662C40.3843 33.3662 36.4277 34.9405 34.2917 38.5203Z" fill="url(#paint9_linear_5966_183131)"/>
<path id="Ellipse 12" d="M34.4169 26.7007C31.6645 29.8314 31.3792 34.0802 31.3792 34.0802C31.3792 34.0802 35.5564 33.253 38.3088 30.1223C41.0612 26.9916 41.3465 22.7428 41.3465 22.7428C41.3465 22.7428 37.1693 23.5699 34.4169 26.7007Z" fill="url(#paint10_linear_5966_183131)"/>
<path id="Ellipse 14" d="M37.3036 17.1187C34.6143 18.378 33.217 21.0703 33.217 21.0703C33.217 21.0703 36.1798 21.721 38.869 20.4618C41.5582 19.2025 42.9556 16.5101 42.9556 16.5101C42.9556 16.5101 39.9928 15.8594 37.3036 17.1187Z" fill="url(#paint11_linear_5966_183131)"/>
<path id="Ellipse 15" d="M37.0972 8.30183C35.6125 10.8735 36.0073 13.881 36.0073 13.881C36.0073 13.881 38.8094 12.7192 40.2941 10.1476C41.7788 7.57593 41.384 4.56835 41.384 4.56835C41.384 4.56835 38.5819 5.7302 37.0972 8.30183Z" fill="url(#paint12_linear_5966_183131)"/>
</g>
<path id="Subtract" fill-rule="evenodd" clip-rule="evenodd" d="M29.74 17.9258C29.9464 17.5413 30.1595 17.1586 30.3793 16.7779C30.8675 15.9324 31.3807 15.1105 31.9176 14.3125C30.5601 12.3464 28.603 11.3306 28.603 11.3306C28.603 11.3306 27.9523 14.2934 29.2116 16.9826C29.3682 17.3171 29.547 17.6316 29.74 17.9258ZM25.4278 44.9512C25.0796 42.996 24.8699 41.014 24.8026 39.0206C22.0719 38.2316 19.6483 38.5144 19.6483 38.5144C19.6483 38.5144 21.2226 42.471 24.8024 44.607C25.009 44.7303 25.2178 44.8448 25.4278 44.9512ZM30.0662 57.9889C29.035 56.1354 28.1489 54.2103 27.413 52.2323C24.56 52.0978 22.2545 52.9463 22.2545 52.9463C22.2545 52.9463 24.7119 56.424 28.6924 57.6619C29.1522 57.8049 29.6122 57.9117 30.0662 57.9889ZM38.6749 68.758C36.6729 66.9684 34.873 65.0102 33.2847 62.918C29.4723 62.775 26.2909 64.3765 26.2909 64.3765C26.2909 64.3765 29.438 67.9009 33.982 68.7643C35.655 69.0821 37.2841 68.995 38.6749 68.758ZM40.7675 4.78988C39.4973 5.78523 38.2785 6.85991 37.1193 8.01178C38.2428 6.25905 39.9531 5.21485 40.7675 4.78988ZM50.1599 76.0616C48.6352 75.4093 47.1329 74.6592 45.6608 73.8093C44.8973 73.3685 44.153 72.9072 43.4282 72.4266C43.1563 72.3924 42.88 72.3673 42.5999 72.3525C37.981 72.1094 34.0854 74.7834 34.0854 74.7834C34.0854 74.7834 37.6788 77.8515 42.2977 78.0946C45.7873 78.2782 48.8639 76.797 50.1599 76.0616ZM25.1737 31.8951C25.4348 30.0149 25.8265 28.1413 26.3524 26.2872C23.3994 24.2827 20.0164 24.0555 20.0164 24.0555C20.0164 24.0555 20.8435 28.2327 23.9742 30.9851C24.3604 31.3246 24.7636 31.6266 25.1737 31.8951Z" fill="url(#paint13_linear_5966_183131)"/>
</g>
<defs>
<linearGradient id="paint0_linear_5966_183131" x1="50.966" y1="75.6646" x2="34.2392" y2="74.7843" gradientUnits="userSpaceOnUse">
<stop stop-color="white"/>
<stop offset="1" stop-color="#999999"/>
</linearGradient>
<linearGradient id="paint1_linear_5966_183131" x1="42.8999" y1="67.5037" x2="26.4444" y2="64.3771" gradientUnits="userSpaceOnUse">
<stop stop-color="white"/>
<stop offset="1" stop-color="#999999"/>
</linearGradient>
<linearGradient id="paint2_linear_5966_183131" x1="36.8227" y1="57.4296" x2="22.4078" y2="52.9468" gradientUnits="userSpaceOnUse">
<stop stop-color="white"/>
<stop offset="1" stop-color="#999999"/>
</linearGradient>
<linearGradient id="paint3_linear_5966_183131" x1="32.7651" y1="46.25" x2="19.8016" y2="38.515" gradientUnits="userSpaceOnUse">
<stop stop-color="white"/>
<stop offset="1" stop-color="#999999"/>
</linearGradient>
<linearGradient id="paint4_linear_5966_183131" x1="31.5072" y1="34.0238" x2="20.1698" y2="24.0564" gradientUnits="userSpaceOnUse">
<stop stop-color="white"/>
<stop offset="1" stop-color="#999999"/>
</linearGradient>
<linearGradient id="paint5_linear_5966_183131" x1="33.3175" y1="21.0703" x2="28.7573" y2="11.3318" gradientUnits="userSpaceOnUse">
<stop stop-color="white"/>
<stop offset="1" stop-color="#999999"/>
</linearGradient>
<linearGradient id="paint6_linear_5966_183131" x1="51.692" y1="59.0799" x2="50.8117" y2="75.8067" gradientUnits="userSpaceOnUse">
<stop stop-color="white"/>
<stop offset="1" stop-color="#999999"/>
</linearGradient>
<linearGradient id="paint7_linear_5966_183131" x1="45.9358" y1="51.1748" x2="42.8092" y2="67.6303" gradientUnits="userSpaceOnUse">
<stop stop-color="white"/>
<stop offset="1" stop-color="#999999"/>
</linearGradient>
<linearGradient id="paint8_linear_5966_183131" x1="41.2118" y1="43.1192" x2="36.729" y2="57.5341" gradientUnits="userSpaceOnUse">
<stop stop-color="white"/>
<stop offset="1" stop-color="#999999"/>
</linearGradient>
<linearGradient id="paint9_linear_5966_183131" x1="40.3843" y1="33.3662" x2="32.6493" y2="46.3298" gradientUnits="userSpaceOnUse">
<stop stop-color="white"/>
<stop offset="1" stop-color="#999999"/>
</linearGradient>
<linearGradient id="paint10_linear_5966_183131" x1="41.3465" y1="22.7428" x2="31.3792" y2="34.0802" gradientUnits="userSpaceOnUse">
<stop stop-color="white"/>
<stop offset="1" stop-color="#999999"/>
</linearGradient>
<linearGradient id="paint11_linear_5966_183131" x1="42.9556" y1="16.5101" x2="33.217" y2="21.0703" gradientUnits="userSpaceOnUse">
<stop stop-color="white"/>
<stop offset="1" stop-color="#999999"/>
</linearGradient>
<linearGradient id="paint12_linear_5966_183131" x1="41.384" y1="4.56835" x2="36.0073" y2="13.881" gradientUnits="userSpaceOnUse">
<stop stop-color="white"/>
<stop offset="1" stop-color="#999999"/>
</linearGradient>
<linearGradient id="paint13_linear_5966_183131" x1="56.1099" y1="13.6478" x2="24.044" y2="69.1876" gradientUnits="userSpaceOnUse">
<stop stop-color="white"/>
<stop offset="1" stop-color="#999999"/>
</linearGradient>
</defs>
</svg>
