<svg width="156" height="61" viewBox="0 0 156 61" fill="none" xmlns="http://www.w3.org/2000/svg">
<path d="M132.643 28.5198H128.163V9.42383H132.643V16.7318H150.675V9.42383H155.155V28.5198H150.675V20.5958H132.643V28.5198Z" fill="white"/>
<path d="M118.186 18.4958V9.42383H122.666V19.3918C122.666 25.9438 117.458 28.8278 109.142 28.8278C100.854 28.8278 95.6465 25.9438 95.6465 19.3918V9.42383H100.126V18.4958C100.126 23.0878 102.926 24.9918 109.142 24.9918C115.386 24.9918 118.186 23.0878 118.186 18.4958Z" fill="white"/>
<path d="M68.5806 28.5198H64.1006V9.42383H82.8046C87.5086 9.42383 90.4486 11.1318 90.4486 15.8638C90.4486 19.9798 88.0966 21.9678 83.7566 22.2198L82.0486 22.2478L83.6726 23.3118L90.1686 28.5198H84.4846L77.1206 22.4718H68.5806V28.5198ZM68.5806 13.2598V19.0838H82.4126C84.8486 19.0838 85.8286 18.2718 85.8286 16.1998C85.8286 14.0438 84.8486 13.2598 82.4126 13.2598H68.5806Z" fill="white"/>
<path d="M43.43 13.2598H31.978V9.42383H59.306V13.2598H47.91V28.5198H43.43V13.2598Z" fill="white"/>
<path d="M5.24367 18.9996C5.24367 23.0876 7.31567 24.9916 14.8757 24.9916C19.3277 24.9916 24.0037 24.1796 27.2237 23.5076L28.0637 27.2316C24.2557 28.1556 19.2717 28.8556 14.7357 28.8556C4.73967 28.8556 0.763672 25.5516 0.763672 18.9996C0.763672 12.4756 4.73967 9.14355 14.7357 9.14355C19.2717 9.14355 24.2557 9.84355 28.0637 10.7676L27.2237 14.4916C24.0037 13.8476 19.3277 13.0076 14.8757 13.0076C7.31567 13.0076 5.24367 14.9116 5.24367 18.9996Z" fill="white"/>
<path d="M136.258 54.9102H134.698V43.0889H136.605L145.306 53.5929L153.99 43.0889H155.88V54.9102H154.32V44.9435L146.069 54.9102H144.509L136.258 44.9435V54.9102Z" fill="white"/>
<path d="M116.793 54.9102H115.233V43.0889H126.396C129.291 43.0889 130.781 44.2155 130.781 46.8502C130.781 49.3115 129.447 50.5249 126.673 50.5942H125.131L126.24 51.4089L130.469 54.9102H128.459L123.363 50.6635H116.793V54.9102ZM116.793 44.4409V49.4329H126.327C128.355 49.4329 129.187 48.7049 129.187 46.9369C129.187 45.1515 128.355 44.4409 126.327 44.4409H116.793Z" fill="white"/>
<path d="M102.323 55.1011C96.0831 55.1011 93.1538 53.2638 93.1538 48.9998C93.1538 44.7358 96.0831 42.8984 102.323 42.8984C108.563 42.8984 111.492 44.7358 111.492 48.9998C111.492 53.2638 108.563 55.1011 102.323 55.1011ZM102.323 53.7318C107.956 53.7318 109.915 52.2238 109.915 48.9998C109.915 45.7758 107.956 44.2678 102.323 44.2678C96.6898 44.2678 94.7138 45.7758 94.7138 48.9998C94.7138 52.2238 96.6898 53.7318 102.323 53.7318Z" fill="white"/>
<path d="M76.5776 54.9102H75.0176V43.0889H90.1322V44.4409H76.5776V48.7222H89.8029V50.0049H76.5776V54.9102Z" fill="white"/>
<path d="M62.8484 44.4409H55.6724V43.0889H71.5844V44.4409H64.4084V54.9102H62.8484V44.4409Z" fill="white"/>
<path d="M54.1791 54.9102L52.1511 52.0502H41.0577L39.0297 54.9102H37.1577L45.5817 43.0889H47.6271L56.0684 54.9102H54.1791ZM41.8724 50.8889H51.3364L46.6044 44.1809L41.8724 50.8889Z" fill="white"/>
<path d="M21.3823 53.5409H34.7636V54.9102H19.8223V43.0889H21.3823V53.5409Z" fill="white"/>
<path d="M0.763672 54.9102V43.0889H12.065C14.9423 43.0889 16.4503 44.1982 16.4503 46.7635C16.4503 49.4155 14.9423 50.5769 12.065 50.5769H2.32367V54.9102H0.763672ZM11.9783 44.4409H2.32367V49.2075H11.9783C13.989 49.2075 14.8383 48.5315 14.8383 46.8329C14.8383 45.1169 13.989 44.4409 11.9783 44.4409Z" fill="white"/>
</svg>
