<svg width="155" height="60" viewBox="0 0 155 60" fill="none" xmlns="http://www.w3.org/2000/svg">
<path d="M131.401 27.7758H126.944V8.77832H131.401V16.0486H149.34V8.77832H153.797V27.7758H149.34V19.8927H131.401V27.7758Z" fill="white"/>
<path d="M117.02 17.8035V8.77832H121.477V18.6949C121.477 25.2131 116.296 28.0822 108.023 28.0822C99.7773 28.0822 94.5962 25.2131 94.5962 18.6949V8.77832H99.0531V17.8035C99.0531 22.3718 101.839 24.266 108.023 24.266C114.234 24.266 117.02 22.3718 117.02 17.8035Z" fill="white"/>
<path d="M67.6698 27.7758H63.2129V8.77832H81.8204C86.5001 8.77832 89.425 10.4775 89.425 15.1851C89.425 19.2799 87.0851 21.2576 82.7675 21.5083L81.0683 21.5362L82.6839 22.5947L89.1464 27.7758H83.4917L76.1657 21.759H67.6698V27.7758ZM67.6698 12.5945V18.3885H81.4304C83.8539 18.3885 84.8288 17.5807 84.8288 15.5194C84.8288 13.3745 83.8539 12.5945 81.4304 12.5945H67.6698Z" fill="white"/>
<path d="M42.6493 12.5945H31.2563V8.77832H58.4434V12.5945H47.1062V27.7758H42.6493V12.5945Z" fill="white"/>
<path d="M4.65953 18.3052C4.65953 22.3721 6.72084 24.2663 14.2418 24.2663C18.6709 24.2663 23.3228 23.4584 26.5261 22.7899L27.3618 26.4947C23.5735 27.4139 18.6152 28.1103 14.1026 28.1103C4.15813 28.1103 0.202637 24.8234 0.202637 18.3052C0.202637 11.8148 4.15813 8.5 14.1026 8.5C18.6152 8.5 23.5735 9.19639 27.3618 10.1156L26.5261 13.8204C23.3228 13.1797 18.6709 12.3441 14.2418 12.3441C6.72084 12.3441 4.65953 14.2382 4.65953 18.3052Z" fill="white"/>
<path d="M140.044 54.4207H138.433V42.208H149.965C152.955 42.208 154.495 43.372 154.495 46.0939C154.495 48.6367 153.116 49.8902 150.251 49.9618H148.658L149.804 50.8034L154.173 54.4207H152.096L146.831 50.0334H140.044V54.4207ZM140.044 43.6048V48.762H149.893C151.988 48.762 152.848 48.0099 152.848 46.1834C152.848 44.339 151.988 43.6048 149.893 43.6048H140.044Z" fill="white"/>
<path d="M125.095 54.6174C118.648 54.6174 115.622 52.7192 115.622 48.3141C115.622 43.9089 118.648 42.0107 125.095 42.0107C131.542 42.0107 134.568 43.9089 134.568 48.3141C134.568 52.7192 131.542 54.6174 125.095 54.6174ZM125.095 53.2027C130.915 53.2027 132.938 51.6448 132.938 48.3141C132.938 44.9833 130.915 43.4254 125.095 43.4254C119.275 43.4254 117.234 44.9833 117.234 48.3141C117.234 51.6448 119.275 53.2027 125.095 53.2027Z" fill="white"/>
<path d="M103.951 43.6048H96.5371V42.208H112.976V43.6048H105.562V54.4207H103.951V43.6048Z" fill="white"/>
<path d="M93.0076 54.4207H91.396V42.208H93.0076V54.4207Z" fill="white"/>
<path d="M80.3465 54.4207H69.835V42.208H80.3465C85.1993 42.208 87.5451 43.9092 87.5451 48.2964C87.5451 52.7195 85.1814 54.4207 80.3465 54.4207ZM71.4466 43.6048V53.006H80.2211C84.3577 53.006 85.8798 51.663 85.8798 48.2964C85.8798 44.912 84.3577 43.6048 80.2211 43.6048H71.4466Z" fill="white"/>
<path d="M65.7957 54.4207H50.1807V42.208H65.7957V43.5152H51.7923V47.5981H65.4555V48.7441H51.7923V53.0956H65.7957V54.4207Z" fill="white"/>
<path d="M30.8963 54.4207H20.3848V42.208H30.8963C35.7491 42.208 38.0949 43.9092 38.0949 48.2964C38.0949 52.7195 35.7312 54.4207 30.8963 54.4207ZM21.9964 43.6048V53.006H30.7709C34.9075 53.006 36.4296 51.663 36.4296 48.2964C36.4296 44.912 34.9075 43.6048 30.7709 43.6048H21.9964Z" fill="white"/>
<path d="M16.1221 51.3407C16.1221 53.6865 14.2598 54.6177 8.02806 54.6177C5.91502 54.6177 2.45894 54.4207 0.202637 53.9551L0.381708 52.5763C2.35149 52.8807 5.18082 53.2209 8.08178 53.2209C12.7735 53.2209 14.5104 52.827 14.5104 51.0721C14.5104 49.2635 13.2749 48.8158 10.1411 48.8158H2.78127V47.6697H10.0516C13.1853 47.6697 14.4209 47.3116 14.4209 45.7537C14.4209 43.8376 12.7018 43.4078 8.08178 43.4078C5.27036 43.4078 2.58429 43.6764 0.704037 43.945L0.524965 42.5662C2.74545 42.1901 6.112 41.9932 7.90271 41.9932C13.9911 41.9932 16.0326 42.9601 16.0326 45.5567C16.0326 47.1862 15.0835 47.9025 13.3644 48.2786C15.0656 48.6546 16.1221 49.6037 16.1221 51.3407Z" fill="white"/>
</svg>
