<svg width="166" height="61" viewBox="0 0 166 61" fill="none" xmlns="http://www.w3.org/2000/svg">
<path d="M141.051 30.4616H136.283V10.1387H141.051V17.9162H160.242V10.1387H165.009V30.4616H160.242V22.0285H141.051V30.4616Z" fill="white"/>
<path d="M125.666 19.7935V10.1387H130.434V20.7471C130.434 27.7201 124.892 30.7894 116.041 30.7894C107.221 30.7894 101.678 27.7201 101.678 20.7471V10.1387H106.446V19.7935C106.446 24.6806 109.426 26.7069 116.041 26.7069C122.686 26.7069 125.666 24.6806 125.666 19.7935Z" fill="white"/>
<path d="M72.8733 30.4616H68.1055V10.1387H88.0112C93.0174 10.1387 96.1463 11.9564 96.1463 16.9924C96.1463 21.3729 93.6432 23.4886 89.0244 23.7568L87.2066 23.7866L88.9349 24.919L95.8483 30.4616H89.7991L81.962 24.025H72.8733V30.4616ZM72.8733 14.2211V20.4193H87.594C90.1865 20.4193 91.2295 19.5551 91.2295 17.35C91.2295 15.0555 90.1865 14.2211 87.594 14.2211H72.8733Z" fill="white"/>
<path d="M46.1072 14.2211H33.9194V10.1387H63.0032V14.2211H50.8751V30.4616H46.1072V14.2211Z" fill="white"/>
<path d="M5.46705 20.3301C5.46705 24.6807 7.67218 26.707 15.7179 26.707C20.4559 26.707 25.4324 25.8429 28.8592 25.1277L29.7532 29.091C25.7006 30.0743 20.3963 30.8193 15.5689 30.8193C4.93067 30.8193 0.699219 27.303 0.699219 20.3301C0.699219 13.3869 4.93067 9.84082 15.5689 9.84082C20.3963 9.84082 25.7006 10.5858 29.7532 11.5692L28.8592 15.5324C25.4324 14.847 20.4559 13.9531 15.7179 13.9531C7.67218 13.9531 5.46705 15.9794 5.46705 20.3301Z" fill="white"/>
<path d="M152.432 55.6531H151.027V45.0078H152.651L164.264 54.1391V45.0078H165.669V55.6531H164.03L152.432 46.4751V55.6531Z" fill="white"/>
<path d="M139.401 55.8247C133.782 55.8247 131.144 54.1701 131.144 50.3303C131.144 46.4905 133.782 44.8359 139.401 44.8359C145.02 44.8359 147.658 46.4905 147.658 50.3303C147.658 54.1701 145.02 55.8247 139.401 55.8247ZM139.401 54.5916C144.474 54.5916 146.238 53.2336 146.238 50.3303C146.238 47.427 144.474 46.069 139.401 46.069C134.328 46.069 132.549 47.427 132.549 50.3303C132.549 53.2336 134.328 54.5916 139.401 54.5916Z" fill="white"/>
<path d="M127.786 55.6531H126.381V45.0078H127.786V55.6531Z" fill="white"/>
<path d="M115.423 46.2253H108.961V45.0078H123.29V46.2253H116.828V55.6531H115.423V46.2253Z" fill="white"/>
<path d="M107.616 55.6531L105.79 53.0777H95.8001L93.9739 55.6531H92.2881L99.8741 45.0078H101.716L109.317 55.6531H107.616ZM96.5337 52.0319H105.056L100.795 45.9912L96.5337 52.0319Z" fill="white"/>
<path d="M76.9468 50.3303C76.9468 53.1868 78.4297 54.5916 82.9719 54.5916C85.5161 54.5916 88.2009 54.0921 89.9803 53.6863L90.2457 54.8881C88.2321 55.3876 85.4225 55.8247 82.9406 55.8247C77.8209 55.8247 75.542 54.0921 75.542 50.3303C75.542 46.5842 77.8209 44.8516 82.9406 44.8516C85.4225 44.8516 88.2321 45.2886 90.2457 45.7881L89.9803 46.99C88.2009 46.5842 85.5161 46.0847 82.9719 46.0847C78.4297 46.0847 76.9468 47.4739 76.9468 50.3303Z" fill="white"/>
<path d="M72.1841 55.6531H70.7793V45.0078H72.1841V55.6531Z" fill="white"/>
<path d="M55.9512 54.42H68.0013V55.6531H54.5464V45.0078H55.9512V54.42Z" fill="white"/>
<path d="M37.3838 55.6531V45.0078H47.5608C50.1519 45.0078 51.5099 46.0068 51.5099 48.3169C51.5099 50.7051 50.1519 51.7509 47.5608 51.7509H38.7886V55.6531H37.3838ZM47.4828 46.2253H38.7886V50.5178H47.4828C49.2934 50.5178 50.0583 49.909 50.0583 48.3794C50.0583 46.8341 49.2934 46.2253 47.4828 46.2253Z" fill="white"/>
<path d="M20.2212 55.6531V45.0078H30.3983C32.9893 45.0078 34.3473 46.0068 34.3473 48.3169C34.3473 50.7051 32.9893 51.7509 30.3983 51.7509H21.626V55.6531H20.2212ZM30.3202 46.2253H21.626V50.5178H30.3202C32.1308 50.5178 32.8957 49.909 32.8957 48.3794C32.8957 46.8341 32.1308 46.2253 30.3202 46.2253Z" fill="white"/>
<path d="M16.0272 55.6531L14.201 53.0777H4.21124L2.38499 55.6531H0.699219L8.28519 45.0078H10.127L17.7286 55.6531H16.0272ZM4.94486 52.0319H13.4674L9.20612 45.9912L4.94486 52.0319Z" fill="white"/>
</svg>
