<svg width="1080" height="449" viewBox="0 0 1080 449" fill="none" xmlns="http://www.w3.org/2000/svg">
<g clip-path="url(#clip0_5989_201240)">
<g opacity="0.7">
<g filter="url(#filter0_f_5989_201240)">
<path d="M-83.8691 -66.4531L-81.8691 -68.9531L384.211 85.8734C394.751 89.3747 398.605 102.286 391.709 110.992L214.322 334.929C207.617 343.394 194.624 342.922 188.551 333.994L-83.8691 -66.4531Z" fill="url(#paint0_linear_5989_201240)"/>
</g>
<g opacity="0.2" filter="url(#filter1_f_5989_201240)">
<path d="M-267.848 -161L-288 -140.847L65.5532 212.706L312.206 447.5L85.7057 192.553L-267.848 -161Z" fill="url(#paint1_linear_5989_201240)"/>
</g>
<g opacity="0.32" filter="url(#filter2_f_5989_201240)">
<path d="M-99.8477 -152.5L-120 -132.347L233.553 221.206L480.206 456L253.706 201.053L-99.8477 -152.5Z" fill="url(#paint2_linear_5989_201240)"/>
</g>
<g opacity="0.32" filter="url(#filter3_f_5989_201240)">
<path d="M-35.3477 -239L-55.5002 -218.847L298.053 134.706L544.706 369.5L318.206 114.553L-35.3477 -239Z" fill="url(#paint3_linear_5989_201240)"/>
</g>
</g>
<g opacity="0.7">
<path d="M52.8434 143.366C53.4527 143.008 53.7347 142.326 53.286 142.296C53.1875 142.29 53.0659 142.328 52.9333 142.405C52.3241 142.763 52.042 143.445 52.4908 143.475C52.5893 143.481 52.7109 143.443 52.8434 143.366Z" fill="white" fill-opacity="0.1"/>
<path d="M58.3728 99.9311C58.9818 99.573 59.2644 98.8913 58.8162 98.8616C58.7178 98.8563 58.5963 98.894 58.4638 98.971C57.8512 99.3251 57.5723 100.011 58.0204 100.041C58.1188 100.046 58.2403 100.008 58.3728 99.9311Z" fill="white" fill-opacity="0.1"/>
<path d="M413.412 131.116C414.021 130.758 414.303 130.076 413.854 130.045C413.756 130.04 413.634 130.077 413.502 130.154C412.892 130.512 412.61 131.194 413.059 131.225C413.158 131.23 413.279 131.193 413.412 131.116Z" fill="white" fill-opacity="0.8"/>
<path d="M117.466 235.175C118.076 234.817 118.358 234.135 117.909 234.104C117.811 234.099 117.689 234.136 117.556 234.213C116.947 234.571 116.665 235.253 117.114 235.284C117.212 235.289 117.334 235.252 117.466 235.175Z" fill="white" fill-opacity="0.8"/>
<path d="M124.664 272.662C125.277 272.308 125.556 271.622 125.108 271.592C125.01 271.587 124.888 271.625 124.756 271.702C124.147 272.06 123.864 272.741 124.312 272.771C124.41 272.776 124.532 272.739 124.664 272.662Z" fill="white" fill-opacity="0.1"/>
<path d="M228.747 268.695C229.36 268.341 229.639 267.655 229.191 267.625C229.093 267.62 228.971 267.658 228.839 267.735C228.23 268.093 227.947 268.775 228.395 268.804C228.493 268.81 228.615 268.772 228.747 268.695Z" fill="white" fill-opacity="0.1"/>
<path d="M332.676 194.914C333.289 194.559 333.568 193.874 333.12 193.844C333.021 193.839 332.9 193.876 332.767 193.953C332.158 194.312 331.876 194.993 332.324 195.023C332.422 195.028 332.544 194.991 332.676 194.914Z" fill="white" fill-opacity="0.1"/>
<path d="M392.518 118.873C393.127 118.514 393.41 117.833 392.962 117.803C392.863 117.798 392.742 117.835 392.609 117.912C391.997 118.267 391.718 118.952 392.166 118.982C392.264 118.987 392.386 118.95 392.518 118.873Z" fill="white" fill-opacity="0.1"/>
<path d="M393.94 154.816C394.549 154.458 394.831 153.776 394.383 153.745C394.284 153.74 394.163 153.778 394.03 153.854C393.421 154.212 393.139 154.895 393.587 154.925C393.686 154.93 393.808 154.893 393.94 154.816Z" fill="white" fill-opacity="0.1"/>
<path d="M359.922 145.24C360.535 144.886 360.814 144.2 360.366 144.17C360.267 144.165 360.146 144.203 360.013 144.28C359.404 144.638 359.122 145.319 359.57 145.349C359.668 145.354 359.79 145.317 359.922 145.24Z" fill="white" fill-opacity="0.1"/>
<path d="M298.879 201.906C299.492 201.552 299.771 200.866 299.323 200.837C299.224 200.831 299.103 200.869 298.97 200.946C298.361 201.304 298.079 201.986 298.527 202.016C298.625 202.021 298.747 201.983 298.879 201.906Z" fill="white" fill-opacity="0.1"/>
<path d="M328.056 253.529C328.665 253.171 328.948 252.489 328.5 252.459C328.401 252.454 328.28 252.492 328.147 252.569C327.535 252.923 327.256 253.608 327.704 253.638C327.802 253.644 327.924 253.606 328.056 253.529Z" fill="white" fill-opacity="0.1"/>
<path d="M116.045 31.4844C116.654 31.1263 116.936 30.4446 116.488 30.4148C116.39 30.4095 116.268 30.4473 116.136 30.5242C115.523 30.8783 115.244 31.564 115.692 31.5938C115.791 31.5991 115.912 31.5613 116.045 31.4844Z" fill="white" fill-opacity="0.1"/>
<path d="M92.7263 178.022C93.3355 177.664 93.6175 176.982 93.1688 176.951C93.0703 176.946 92.9487 176.984 92.8161 177.06C92.2069 177.418 91.9248 178.101 92.3736 178.131C92.4721 178.136 92.5937 178.099 92.7263 178.022Z" fill="white" fill-opacity="0.1"/>
<path d="M81.6977 120.929C82.3103 120.575 82.5893 119.889 82.1411 119.859C82.0427 119.854 81.9212 119.892 81.7887 119.969C81.1798 120.327 80.8971 121.008 81.3453 121.038C81.4437 121.043 81.5652 121.006 81.6977 120.929Z" fill="white" fill-opacity="0.1"/>
<path d="M342.246 55.4028C342.858 55.0487 343.137 54.3631 342.689 54.3333C342.591 54.328 342.469 54.3657 342.337 54.4427C341.728 54.8008 341.445 55.4825 341.893 55.5123C341.992 55.5176 342.113 55.4798 342.246 55.4028Z" fill="white" fill-opacity="0.8"/>
<path d="M-0.206292 138.506C0.402671 138.148 0.685275 137.467 0.23711 137.437C0.138731 137.431 0.0172359 137.469 -0.115252 137.546C-0.727854 137.9 -1.00683 138.586 -0.558667 138.616C-0.460288 138.621 -0.33878 138.583 -0.206292 138.506Z" fill="white" fill-opacity="0.8"/>
<path d="M80.696 59.4115C81.3052 59.0537 81.5873 58.3714 81.1385 58.341C81.04 58.3356 80.9184 58.3732 80.7859 58.4501C80.1766 58.8079 79.8946 59.4903 80.3433 59.5207C80.4418 59.5261 80.5634 59.4885 80.696 59.4115Z" fill="white" fill-opacity="0.1"/>
<path d="M95.4743 29.2909C96.0835 28.9331 96.3656 28.2508 95.9168 28.2204C95.8183 28.215 95.6967 28.2526 95.5642 28.3295C94.955 28.6873 94.6729 29.3697 95.1216 29.4001C95.2201 29.4055 95.3418 29.3678 95.4743 29.2909Z" fill="white" fill-opacity="0.8"/>
<path d="M28.7371 44.9624C29.346 44.6043 29.6286 43.9226 29.1805 43.8928C29.0821 43.8875 28.9606 43.9253 28.8281 44.0023C28.2155 44.3564 27.9365 45.0421 28.3847 45.0718C28.4831 45.0771 28.6046 45.0394 28.7371 44.9624Z" fill="white" fill-opacity="0.1"/>
<path d="M81.5505 153.062C82.1595 152.703 82.4421 152.022 81.9939 151.992C81.8956 151.987 81.7741 152.024 81.6416 152.101C81.029 152.455 80.75 153.141 81.1982 153.171C81.2965 153.176 81.418 153.138 81.5505 153.062Z" fill="white" fill-opacity="0.1"/>
<path d="M71.5371 231.018C72.1447 230.661 72.426 229.981 71.9785 229.95C71.8802 229.945 71.759 229.982 71.6268 230.059C71.0155 230.412 70.7294 231.104 71.1854 231.127C71.2837 231.132 71.4049 231.095 71.5371 231.018Z" fill="white" fill-opacity="0.1"/>
<path d="M72.5983 196.38C73.2075 196.022 73.4896 195.34 73.0409 195.31C72.9423 195.304 72.8207 195.342 72.6882 195.419C72.079 195.777 71.7969 196.459 72.2457 196.489C72.3442 196.495 72.4658 196.457 72.5983 196.38Z" fill="white" fill-opacity="0.8"/>
<path d="M227.122 205.198C227.731 204.84 228.013 204.158 227.565 204.128C227.467 204.123 227.345 204.161 227.213 204.238C226.6 204.592 226.321 205.277 226.769 205.307C226.868 205.312 226.989 205.275 227.122 205.198Z" fill="white" fill-opacity="0.8"/>
<path d="M325.309 151.211C325.918 150.853 326.201 150.171 325.753 150.141C325.654 150.136 325.533 150.174 325.4 150.251C324.788 150.605 324.509 151.291 324.957 151.32C325.055 151.326 325.177 151.288 325.309 151.211Z" fill="white" fill-opacity="0.1"/>
<path d="M376.438 111.87C377.045 111.513 377.326 110.833 376.879 110.802C376.781 110.797 376.659 110.834 376.527 110.911C375.916 111.264 375.63 111.956 376.086 111.979C376.184 111.984 376.305 111.947 376.438 111.87Z" fill="white" fill-opacity="0.1"/>
<path d="M254.747 188.736C255.356 188.378 255.638 187.696 255.19 187.666C255.092 187.661 254.97 187.699 254.838 187.776C254.225 188.13 253.946 188.815 254.394 188.845C254.493 188.851 254.614 188.813 254.747 188.736Z" fill="white" fill-opacity="0.1"/>
<path d="M376.4 173.217C376.409 173.002 376.074 173.108 375.881 173.377C375.84 173.436 375.817 173.491 375.815 173.537C375.81 173.748 376.141 173.646 376.334 173.377C376.376 173.319 376.399 173.263 376.4 173.217Z" fill="white" fill-opacity="0.1"/>
<path d="M285.874 6.30471C286.487 5.9506 286.766 5.26491 286.318 5.23515C286.219 5.22986 286.098 5.2676 285.965 5.34459C285.357 5.70268 285.074 6.38439 285.522 6.41415C285.62 6.41944 285.742 6.3817 285.874 6.30471Z" fill="white" fill-opacity="0.1"/>
<path d="M97.9577 102.273C98.5669 101.915 98.849 101.233 98.4002 101.202C98.3017 101.197 98.1801 101.235 98.0476 101.311C97.4384 101.669 97.1563 102.352 97.605 102.382C97.7035 102.387 97.8251 102.35 97.9577 102.273Z" fill="white" fill-opacity="0.1"/>
<path d="M200.7 251.353C201.312 250.998 201.591 250.313 201.143 250.283C201.045 250.278 200.923 250.315 200.791 250.392C200.182 250.751 199.899 251.432 200.347 251.462C200.446 251.467 200.567 251.43 200.7 251.353Z" fill="white" fill-opacity="0.8"/>
<path d="M6.71623 171.005C7.32883 170.651 7.60781 169.966 7.15964 169.936C7.06126 169.931 6.93976 169.968 6.80728 170.045C6.19831 170.403 5.91569 171.085 6.36385 171.115C6.46223 171.12 6.58374 171.082 6.71623 171.005V171.005Z" fill="white" fill-opacity="0.1"/>
<path d="M172.446 337.036C173.055 336.678 173.337 335.996 172.889 335.966C172.79 335.96 172.668 335.998 172.536 336.075C171.927 336.432 171.645 337.115 172.093 337.145C172.192 337.151 172.313 337.113 172.446 337.036Z" fill="white" fill-opacity="0.1"/>
<path d="M293.187 70.2842C293.796 69.9261 294.079 69.2444 293.631 69.2146C293.532 69.2093 293.411 69.2471 293.278 69.324C292.666 69.6781 292.387 70.3638 292.835 70.3936C292.933 70.3989 293.055 70.3611 293.187 70.2842Z" fill="white" fill-opacity="0.1"/>
<path d="M320.293 65.5576C320.906 65.2035 321.185 64.5178 320.737 64.4881C320.638 64.4828 320.517 64.5205 320.384 64.5975C319.775 64.9556 319.493 65.6373 319.941 65.6671C320.039 65.6724 320.161 65.6346 320.293 65.5576Z" fill="white" fill-opacity="0.1"/>
<path d="M175.153 225.042C175.765 224.688 176.044 224.003 175.596 223.973C175.498 223.968 175.376 224.005 175.244 224.082C174.635 224.44 174.352 225.122 174.8 225.152C174.899 225.157 175.02 225.119 175.153 225.042Z" fill="white" fill-opacity="0.1"/>
<path d="M258.955 255.157C259.567 254.803 259.846 254.117 259.398 254.088C259.3 254.082 259.178 254.12 259.046 254.197C258.437 254.555 258.154 255.237 258.602 255.267C258.701 255.272 258.822 255.234 258.955 255.157Z" fill="white" fill-opacity="0.8"/>
<path d="M294.993 228.266C295.602 227.908 295.884 227.226 295.435 227.195C295.337 227.19 295.215 227.228 295.083 227.305C294.474 227.662 294.191 228.345 294.64 228.375C294.739 228.381 294.86 228.343 294.993 228.266Z" fill="white" fill-opacity="0.1"/>
<path d="M127.599 3.72543C128.011 3.1516 128.716 2.93333 128.706 3.38297C128.702 3.48156 128.653 3.5992 128.565 3.72413C128.152 4.29796 127.447 4.51623 127.458 4.06658C127.462 3.968 127.51 3.85036 127.599 3.72543Z" fill="white" fill-opacity="0.1"/>
<path d="M87.7728 198C88.185 197.427 88.8903 197.208 88.8794 197.658C88.8757 197.756 88.8271 197.874 88.7384 197.999C88.3262 198.573 87.6209 198.791 87.6317 198.341C87.6354 198.243 87.684 198.125 87.7728 198Z" fill="white" fill-opacity="0.1"/>
<path d="M3.22583 87.9529C3.63829 87.3793 4.34303 87.1605 4.33155 87.6095C4.32779 87.7079 4.27906 87.8254 4.19025 87.9503C3.78143 88.5278 3.07305 88.7427 3.08452 88.2937C3.08828 88.1953 3.13701 88.0778 3.22583 87.9529Z" fill="white" fill-opacity="0.1"/>
<path d="M63.4495 173.644C63.8617 173.07 64.567 172.852 64.5561 173.301C64.5525 173.4 64.5039 173.518 64.4151 173.643C64.0029 174.216 63.2976 174.435 63.3085 173.985C63.3121 173.886 63.3608 173.769 63.4495 173.644Z" fill="white" fill-opacity="0.1"/>
<path d="M87.2017 215.848C87.6128 215.276 88.3162 215.058 88.3053 215.507C88.3017 215.605 88.2532 215.722 88.1647 215.847C87.7572 216.423 87.0417 216.645 87.061 216.189C87.0647 216.09 87.1132 215.973 87.2017 215.848Z" fill="white" fill-opacity="0.1"/>
<path d="M42.2551 31.5105C42.6676 30.937 43.3723 30.7181 43.3609 31.1671C43.3571 31.2655 43.3084 31.3831 43.2195 31.5079C42.8107 32.0855 42.1024 32.3004 42.1138 31.8514C42.1176 31.7529 42.1663 31.6354 42.2551 31.5105Z" fill="white" fill-opacity="0.1"/>
<path d="M343.348 83.3723C343.757 82.7948 344.465 82.5799 344.454 83.0289C344.45 83.1273 344.401 83.2448 344.313 83.3697C343.9 83.9433 343.195 84.1621 343.207 83.7131C343.211 83.6147 343.259 83.4971 343.348 83.3723Z" fill="white" fill-opacity="0.8"/>
<path d="M216.886 255.764C217.294 255.187 218.009 254.966 217.99 255.422C217.987 255.52 217.938 255.638 217.849 255.762C217.438 256.335 216.735 256.552 216.746 256.104C216.749 256.006 216.798 255.888 216.886 255.764Z" fill="white" fill-opacity="0.1"/>
<path d="M200.355 289.054C200.764 288.476 201.472 288.261 201.461 288.711C201.457 288.809 201.408 288.926 201.319 289.051C200.907 289.625 200.202 289.844 200.214 289.395C200.218 289.296 200.266 289.179 200.355 289.054Z" fill="white" fill-opacity="0.8"/>
<path d="M348.645 198.715C349.057 198.142 349.762 197.923 349.751 198.372C349.747 198.47 349.698 198.588 349.609 198.713C349.2 199.29 348.492 199.505 348.503 199.056C348.507 198.957 348.556 198.84 348.645 198.715Z" fill="white" fill-opacity="0.1"/>
<path d="M359.128 177.488C359.536 176.91 360.245 176.695 360.233 177.144C360.229 177.243 360.181 177.36 360.092 177.485C359.679 178.058 358.975 178.277 358.986 177.828C358.99 177.73 359.039 177.612 359.128 177.488Z" fill="white" fill-opacity="0.8"/>
<path d="M264.185 229.706C264.594 229.129 265.302 228.914 265.291 229.363C265.287 229.461 265.238 229.579 265.15 229.704C264.737 230.277 264.032 230.496 264.044 230.047C264.048 229.949 264.096 229.831 264.185 229.706Z" fill="white" fill-opacity="0.1"/>
<path d="M322.496 24.5095C322.909 23.936 323.614 23.7171 323.602 24.1661C323.598 24.2646 323.55 24.3821 323.461 24.5069C323.052 25.0845 322.344 25.2994 322.355 24.8504C322.359 24.7519 322.408 24.6344 322.496 24.5095Z" fill="white" fill-opacity="0.1"/>
<path d="M310.644 23.6165C311.056 23.0427 311.761 22.8244 311.75 23.2741C311.747 23.3727 311.698 23.4903 311.609 23.6152C311.197 24.1891 310.492 24.4073 310.503 23.9577C310.506 23.8591 310.555 23.7415 310.644 23.6165Z" fill="white" fill-opacity="0.1"/>
<path d="M76.4456 7.87965C76.858 7.30611 77.5627 7.08721 77.5513 7.53622C77.5475 7.63467 77.4988 7.75221 77.41 7.87707C77.0012 8.45461 76.2928 8.6695 76.3042 8.22049C76.308 8.12204 76.3567 8.00452 76.4456 7.87965Z" fill="white" fill-opacity="0.1"/>
<path d="M328.28 227.16C328.692 226.586 329.397 226.367 329.385 226.816C329.382 226.915 329.333 227.032 329.244 227.157C328.835 227.735 328.127 227.95 328.138 227.501C328.142 227.402 328.191 227.285 328.28 227.16Z" fill="white" fill-opacity="0.1"/>
<path d="M359.362 221.604C359.151 221.59 359.284 221.269 359.57 221.101C359.632 221.065 359.689 221.047 359.736 221.05C359.947 221.064 359.814 221.385 359.528 221.553C359.465 221.589 359.408 221.607 359.362 221.604Z" fill="white" fill-opacity="0.8"/>
<path d="M371.897 198.116C371.683 198.105 371.819 197.781 372.105 197.614C372.167 197.578 372.224 197.56 372.27 197.563C372.481 197.577 372.349 197.897 372.063 198.065C372.001 198.101 371.944 198.118 371.897 198.116Z" fill="white" fill-opacity="0.1"/>
<path d="M323.936 47.3748C324.348 46.801 325.053 46.5827 325.042 47.0324C325.039 47.131 324.99 47.2486 324.901 47.3735C324.489 47.9474 323.784 48.1656 323.795 47.716C323.798 47.6174 323.847 47.4998 323.936 47.3748Z" fill="white" fill-opacity="0.1"/>
<path d="M229.817 2.92318C230.229 2.34935 230.934 2.13108 230.923 2.58072C230.92 2.67931 230.871 2.79695 230.782 2.92188C230.37 3.49571 229.665 3.71398 229.676 3.26434C229.679 3.16575 229.728 3.04811 229.817 2.92318Z" fill="white" fill-opacity="0.1"/>
<path d="M21.1263 111.993C21.5385 111.419 22.2438 111.201 22.2329 111.651C22.2293 111.749 22.1806 111.867 22.0919 111.992C21.6797 112.566 20.9744 112.784 20.9853 112.334C20.9889 112.236 21.0375 112.118 21.1263 111.993Z" fill="white" fill-opacity="0.1"/>
<path d="M186.026 298.77C186.435 298.193 187.143 297.978 187.132 298.427C187.128 298.525 187.079 298.643 186.99 298.768C186.578 299.341 185.873 299.56 185.885 299.111C185.888 299.013 185.937 298.895 186.026 298.77Z" fill="white" fill-opacity="0.8"/>
<path d="M49.2337 170.764C49.6459 170.19 50.3512 169.972 50.3403 170.422C50.3367 170.52 50.288 170.638 50.1993 170.763C49.7871 171.337 49.0818 171.555 49.0927 171.105C49.0963 171.007 49.1449 170.889 49.2337 170.764Z" fill="white" fill-opacity="0.1"/>
<path d="M49.3216 204.356C49.7338 203.782 50.4391 203.564 50.4282 204.014C50.4246 204.112 50.3759 204.23 50.2872 204.355C49.875 204.929 49.1697 205.147 49.1806 204.697C49.1842 204.599 49.2328 204.481 49.3216 204.356Z" fill="white" fill-opacity="0.8"/>
<path d="M118.536 201.423C118.949 200.849 119.654 200.631 119.643 201.081C119.639 201.179 119.591 201.297 119.502 201.422C119.09 201.996 118.385 202.214 118.395 201.764C118.399 201.666 118.448 201.548 118.536 201.423Z" fill="white" fill-opacity="0.8"/>
<path d="M33.5394 159.333C33.9516 158.759 34.6569 158.541 34.646 158.99C34.6424 159.089 34.5937 159.207 34.505 159.332C34.0928 159.905 33.3875 160.124 33.3983 159.674C33.402 159.575 33.4506 159.458 33.5394 159.333Z" fill="white" fill-opacity="0.8"/>
<path d="M23.5198 188.773C23.9322 188.199 24.637 187.98 24.6255 188.429C24.6217 188.528 24.573 188.645 24.4842 188.77C24.0754 189.348 23.367 189.563 23.3785 189.114C23.3822 189.015 23.431 188.898 23.5198 188.773V188.773Z" fill="white" fill-opacity="0.1"/>
<path d="M143.001 235.433C143.414 234.86 144.118 234.641 144.107 235.09C144.103 235.188 144.054 235.306 143.966 235.431C143.557 236.008 142.848 236.223 142.86 235.774C142.864 235.676 142.912 235.558 143.001 235.433Z" fill="white" fill-opacity="0.1"/>
<path d="M141.839 219.437C142.248 218.86 142.957 218.645 142.945 219.094C142.941 219.192 142.893 219.31 142.804 219.435C142.391 220.008 141.687 220.227 141.698 219.778C141.702 219.68 141.751 219.562 141.839 219.437Z" fill="white" fill-opacity="0.1"/>
<path d="M288.663 172.226C289.07 171.649 289.786 171.428 289.767 171.884C289.763 171.982 289.714 172.1 289.626 172.224C289.215 172.797 288.511 173.014 288.522 172.566C288.526 172.467 288.574 172.35 288.663 172.226Z" fill="white" fill-opacity="0.1"/>
<path d="M330.751 99.9847C331.163 99.4109 331.869 99.1926 331.858 99.6422C331.854 99.7408 331.806 99.8585 331.717 99.9834C331.305 100.557 330.599 100.776 330.61 100.326C330.614 100.227 330.663 100.11 330.751 99.9847Z" fill="white" fill-opacity="0.8"/>
<path d="M310.015 92.8357C310.427 92.2622 311.132 92.0433 311.121 92.4923C311.117 92.5907 311.068 92.7083 310.979 92.8331C310.57 93.4107 309.862 93.6256 309.874 93.1766C309.877 93.0781 309.926 92.9606 310.015 92.8357Z" fill="white" fill-opacity="0.1"/>
<path d="M165.745 259.998C166.158 259.425 166.863 259.206 166.852 259.656C166.848 259.755 166.8 259.872 166.711 259.997C166.299 260.571 165.594 260.789 165.604 260.34C165.608 260.241 165.657 260.123 165.745 259.998Z" fill="white" fill-opacity="0.1"/>
<path d="M311.847 120.091C312.256 119.514 312.964 119.299 312.953 119.748C312.949 119.846 312.9 119.964 312.812 120.088C312.399 120.662 311.694 120.881 311.706 120.432C311.71 120.333 311.758 120.216 311.847 120.091Z" fill="white" fill-opacity="0.1"/>
<path d="M348.143 114.997C348.554 114.425 349.258 114.207 349.247 114.656C349.243 114.754 349.195 114.871 349.106 114.996C348.699 115.572 347.983 115.794 348.002 115.338C348.006 115.239 348.055 115.122 348.143 114.997Z" fill="white" fill-opacity="0.1"/>
<path d="M250.775 226.859C251.187 226.286 251.892 226.067 251.88 226.516C251.877 226.614 251.828 226.732 251.739 226.857C251.33 227.434 250.622 227.649 250.633 227.2C250.637 227.102 250.686 226.984 250.775 226.859Z" fill="white" fill-opacity="0.1"/>
<path d="M271.871 194.845C272.284 194.271 272.989 194.052 272.978 194.502C272.974 194.601 272.926 194.718 272.837 194.843C272.425 195.417 271.719 195.635 271.73 195.186C271.734 195.087 271.783 194.969 271.871 194.845Z" fill="white" fill-opacity="0.1"/>
<path d="M233.955 285.502C234.363 284.925 235.072 284.71 235.06 285.159C235.057 285.257 235.008 285.375 234.919 285.5C234.507 286.073 233.802 286.292 233.813 285.843C233.817 285.745 233.866 285.627 233.955 285.502Z" fill="white" fill-opacity="0.1"/>
<path d="M222.856 228.286C223.268 227.712 223.973 227.493 223.961 227.942C223.958 228.041 223.909 228.158 223.82 228.283C223.411 228.861 222.703 229.076 222.714 228.627C222.718 228.528 222.767 228.411 222.856 228.286Z" fill="white" fill-opacity="0.1"/>
<path d="M259.535 277.371C259.948 276.798 260.653 276.579 260.641 277.028C260.637 277.126 260.589 277.244 260.5 277.369C260.091 277.946 259.383 278.161 259.394 277.712C259.398 277.614 259.447 277.496 259.535 277.371Z" fill="white" fill-opacity="0.1"/>
<path d="M25.0794 20.4109C25.4918 19.8374 26.1965 19.6185 26.1851 20.0675C26.1813 20.1659 26.1326 20.2835 26.0438 20.4083C25.635 20.9859 24.9266 21.2008 24.938 20.7518C24.9418 20.6533 24.9905 20.5358 25.0794 20.4109Z" fill="white" fill-opacity="0.1"/>
<path d="M175.633 275.895C176.045 275.321 176.751 275.103 176.74 275.552C176.736 275.651 176.687 275.769 176.599 275.894C176.187 276.467 175.481 276.686 175.492 276.236C175.496 276.137 175.544 276.02 175.633 275.895Z" fill="white" fill-opacity="0.1"/>
<path d="M100.018 226.442C100.43 225.868 101.135 225.65 101.125 226.099C101.121 226.198 101.072 226.316 100.983 226.44C100.571 227.014 99.866 227.233 99.8769 226.783C99.8805 226.684 99.9291 226.567 100.018 226.442Z" fill="white" fill-opacity="0.1"/>
<path d="M144.177 297.008C144.586 296.43 145.295 296.216 145.283 296.665C145.279 296.763 145.231 296.881 145.142 297.005C144.729 297.579 144.025 297.798 144.036 297.349C144.04 297.25 144.089 297.133 144.177 297.008Z" fill="white" fill-opacity="0.8"/>
<path d="M286.168 103.651C286.781 103.297 287.06 102.611 286.612 102.581C286.513 102.576 286.392 102.614 286.259 102.691C285.65 103.049 285.368 103.731 285.816 103.76C285.914 103.766 286.036 103.728 286.168 103.651Z" fill="white" fill-opacity="0.8"/>
<path d="M257.917 189.337C258.526 188.98 258.808 188.297 258.359 188.267C258.261 188.261 258.139 188.299 258.007 188.376C257.397 188.734 257.115 189.416 257.564 189.446C257.663 189.452 257.784 189.414 257.917 189.337Z" fill="white" fill-opacity="0.1"/>
<path d="M285.825 141.355C286.234 140.778 286.942 140.563 286.931 141.012C286.927 141.11 286.878 141.228 286.789 141.353C286.377 141.926 285.672 142.145 285.683 141.696C285.687 141.598 285.736 141.48 285.825 141.355Z" fill="white" fill-opacity="0.8"/>
<path d="M271.496 151.072C271.904 150.494 272.613 150.28 272.601 150.729C272.598 150.827 272.549 150.945 272.46 151.069C272.048 151.643 271.343 151.862 271.354 151.413C271.358 151.314 271.407 151.197 271.496 151.072Z" fill="white" fill-opacity="0.8"/>
<path d="M319.425 137.804C319.834 137.226 320.543 137.011 320.531 137.461C320.527 137.559 320.479 137.676 320.39 137.801C319.977 138.375 319.273 138.594 319.284 138.145C319.288 138.046 319.337 137.929 319.425 137.804Z" fill="white" fill-opacity="0.1"/>
<path d="M261.104 128.196C261.516 127.622 262.221 127.404 262.21 127.853C262.207 127.952 262.158 128.069 262.069 128.194C261.657 128.768 260.952 128.986 260.963 128.537C260.966 128.438 261.015 128.321 261.104 128.196Z" fill="white" fill-opacity="0.1"/>
<path d="M229.647 149.307C230.056 148.729 230.764 148.514 230.753 148.963C230.749 149.062 230.7 149.179 230.611 149.304C230.199 149.878 229.494 150.097 229.506 149.648C229.51 149.549 229.558 149.432 229.647 149.307Z" fill="white" fill-opacity="0.8"/>
<path d="M196.107 222.074C196.516 221.496 197.224 221.282 197.213 221.731C197.209 221.829 197.16 221.947 197.071 222.071C196.659 222.645 195.954 222.864 195.966 222.415C195.969 222.316 196.018 222.199 196.107 222.074Z" fill="white" fill-opacity="0.1"/>
<path d="M292.014 261.669C292.426 261.095 293.131 260.876 293.12 261.325C293.116 261.424 293.067 261.541 292.978 261.666C292.57 262.244 291.861 262.459 291.873 262.01C291.876 261.911 291.925 261.794 292.014 261.669Z" fill="white" fill-opacity="0.1"/>
<path d="M402.958 200.982C402.743 200.971 402.879 200.647 403.165 200.48C403.227 200.444 403.284 200.426 403.33 200.429C403.541 200.443 403.409 200.763 403.123 200.931C403.061 200.967 403.004 200.985 402.958 200.982Z" fill="white" fill-opacity="0.1"/>
<path d="M245.704 102.024C246.313 101.666 246.595 100.984 246.146 100.953C246.048 100.948 245.926 100.986 245.794 101.062C245.184 101.42 244.902 102.103 245.351 102.133C245.45 102.138 245.571 102.101 245.704 102.024Z" fill="white" fill-opacity="0.8"/>
<path d="M164.969 165.821C165.582 165.467 165.861 164.781 165.413 164.751C165.314 164.746 165.193 164.784 165.06 164.861C164.451 165.219 164.169 165.9 164.617 165.93C164.715 165.936 164.837 165.898 164.969 165.821Z" fill="white" fill-opacity="0.1"/>
<path d="M224.813 89.7802C225.422 89.4221 225.705 88.7405 225.257 88.7107C225.158 88.7054 225.037 88.7431 224.904 88.8201C224.292 89.1742 224.013 89.8599 224.461 89.8897C224.559 89.895 224.681 89.8572 224.813 89.7802Z" fill="white" fill-opacity="0.1"/>
<path d="M226.234 125.725C226.843 125.367 227.125 124.685 226.677 124.654C226.578 124.649 226.456 124.687 226.324 124.764C225.715 125.121 225.433 125.804 225.881 125.834C225.98 125.84 226.102 125.802 226.234 125.725Z" fill="white" fill-opacity="0.1"/>
<path d="M130.839 89.2871C131.452 88.933 131.731 88.2473 131.283 88.2176C131.184 88.2123 131.063 88.25 130.93 88.327C130.321 88.6851 130.039 89.3668 130.487 89.3966C130.585 89.4019 130.707 89.3641 130.839 89.2871Z" fill="white" fill-opacity="0.1"/>
<path d="M131.175 172.817C131.788 172.463 132.067 171.777 131.619 171.747C131.52 171.742 131.399 171.78 131.266 171.857C130.657 172.215 130.375 172.897 130.823 172.926C130.921 172.932 131.043 172.894 131.175 172.817Z" fill="white" fill-opacity="0.1"/>
<path d="M160.35 224.439C160.959 224.081 161.242 223.4 160.794 223.37C160.695 223.365 160.574 223.402 160.441 223.479C159.829 223.833 159.55 224.519 159.998 224.549C160.096 224.554 160.218 224.516 160.35 224.439Z" fill="white" fill-opacity="0.1"/>
<path d="M174.54 26.3125C175.153 25.9584 175.432 25.2727 174.984 25.243C174.885 25.2377 174.764 25.2754 174.631 25.3524C174.023 25.7105 173.74 26.3922 174.188 26.422C174.286 26.4272 174.408 26.3895 174.54 26.3125Z" fill="white" fill-opacity="0.8"/>
<path d="M96.2283 95.2602C96.8372 94.9021 97.1198 94.2204 96.6717 94.1907C96.5733 94.1854 96.4518 94.2231 96.3193 94.3001C95.7067 94.6542 95.4277 95.3399 95.8759 95.3697C95.9743 95.375 96.0958 95.3372 96.2283 95.2602Z" fill="white" fill-opacity="0.1"/>
<path d="M208.731 82.7816C209.339 82.4248 209.62 81.7443 209.173 81.714C209.075 81.7086 208.953 81.7461 208.821 81.8228C208.21 82.1757 207.924 82.8679 208.38 82.8905C208.478 82.8959 208.599 82.8584 208.731 82.7816Z" fill="white" fill-opacity="0.1"/>
<path d="M87.0408 159.645C87.6497 159.287 87.9323 158.606 87.4842 158.576C87.3858 158.571 87.2643 158.608 87.1318 158.685C86.5192 159.039 86.2402 159.725 86.6884 159.755C86.7868 159.76 86.9083 159.722 87.0408 159.645Z" fill="white" fill-opacity="0.1"/>
<path d="M208.693 144.124C208.702 143.91 208.367 144.015 208.174 144.284C208.132 144.343 208.11 144.398 208.108 144.444C208.103 144.655 208.434 144.553 208.627 144.284C208.669 144.226 208.692 144.171 208.693 144.124Z" fill="white" fill-opacity="0.1"/>
<path d="M125.483 41.1958C126.092 40.8377 126.375 40.156 125.927 40.1262C125.828 40.1209 125.707 40.1587 125.574 40.2357C124.962 40.5898 124.683 41.2755 125.131 41.3052C125.229 41.3105 125.351 41.2728 125.483 41.1958Z" fill="white" fill-opacity="0.1"/>
<path d="M152.587 36.4678C153.2 36.1137 153.479 35.428 153.031 35.3982C152.932 35.393 152.811 35.4307 152.678 35.5077C152.069 35.8658 151.787 36.5475 152.235 36.5772C152.333 36.5825 152.455 36.5448 152.587 36.4678Z" fill="white" fill-opacity="0.1"/>
<path d="M127.286 199.176C127.895 198.818 128.177 198.136 127.728 198.105C127.63 198.1 127.508 198.137 127.376 198.214C126.766 198.572 126.484 199.254 126.933 199.285C127.032 199.29 127.153 199.253 127.286 199.176Z" fill="white" fill-opacity="0.1"/>
<path d="M175.643 54.2824C176.052 53.7049 176.76 53.49 176.749 53.939C176.745 54.0375 176.696 54.155 176.608 54.2799C176.195 54.8534 175.49 55.0723 175.502 54.6233C175.506 54.5248 175.554 54.4073 175.643 54.2824Z" fill="white" fill-opacity="0.8"/>
<path d="M180.94 169.624C181.352 169.051 182.057 168.832 182.045 169.281C182.042 169.379 181.993 169.497 181.904 169.622C181.495 170.199 180.787 170.414 180.798 169.965C180.802 169.867 180.851 169.749 180.94 169.624Z" fill="white" fill-opacity="0.1"/>
<path d="M191.422 148.399C191.831 147.821 192.54 147.606 192.528 148.055C192.524 148.154 192.476 148.271 192.387 148.396C191.974 148.97 191.27 149.189 191.281 148.74C191.285 148.641 191.334 148.524 191.422 148.399Z" fill="white" fill-opacity="0.8"/>
<path d="M160.574 198.069C160.987 197.496 161.692 197.277 161.68 197.726C161.676 197.824 161.628 197.942 161.539 198.067C161.13 198.644 160.422 198.859 160.433 198.41C160.437 198.312 160.486 198.194 160.574 198.069Z" fill="white" fill-opacity="0.1"/>
<path d="M191.656 192.514C191.445 192.5 191.578 192.179 191.864 192.011C191.926 191.975 191.983 191.957 192.03 191.96C192.241 191.974 192.108 192.295 191.822 192.463C191.759 192.499 191.702 192.517 191.656 192.514Z" fill="white" fill-opacity="0.8"/>
<path d="M204.194 169.026C203.98 169.016 204.116 168.692 204.401 168.524C204.464 168.488 204.521 168.471 204.567 168.473C204.777 168.488 204.645 168.808 204.36 168.975C204.298 169.011 204.241 169.029 204.194 169.026Z" fill="white" fill-opacity="0.1"/>
<path d="M156.229 18.284C156.641 17.7102 157.346 17.4919 157.335 17.9416C157.332 18.0402 157.283 18.1578 157.194 18.2827C156.782 18.8565 156.077 19.0748 156.088 18.6252C156.091 18.5266 156.14 18.4089 156.229 18.284Z" fill="white" fill-opacity="0.1"/>
<path d="M120.956 143.136C121.363 142.559 122.079 142.338 122.059 142.794C122.056 142.893 122.007 143.01 121.919 143.134C121.508 143.707 120.804 143.924 120.815 143.476C120.819 143.378 120.867 143.26 120.956 143.136Z" fill="white" fill-opacity="0.1"/>
<path d="M163.046 70.8963C163.458 70.3225 164.164 70.1042 164.153 70.5539C164.149 70.6525 164.101 70.7701 164.012 70.895C163.6 71.4689 162.894 71.6871 162.905 71.2375C162.909 71.1389 162.957 71.0212 163.046 70.8963Z" fill="white" fill-opacity="0.8"/>
<path d="M142.31 63.7449C142.722 63.1713 143.427 62.9525 143.416 63.4015C143.412 63.4999 143.363 63.6174 143.274 63.7423C142.865 64.3198 142.157 64.5347 142.169 64.0857C142.172 63.9873 142.221 63.8698 142.31 63.7449Z" fill="white" fill-opacity="0.1"/>
<path d="M144.14 91.0012C144.549 90.4237 145.257 90.2088 145.246 90.6578C145.242 90.7562 145.193 90.8738 145.105 90.9986C144.692 91.5722 143.987 91.791 143.999 91.342C144.003 91.2436 144.051 91.1261 144.14 91.0012Z" fill="white" fill-opacity="0.1"/>
<path d="M119.063 59.0441C119.474 58.4718 120.178 58.2541 120.167 58.7026C120.163 58.8009 120.115 58.9182 120.026 59.0428C119.619 59.6191 118.903 59.8406 118.922 59.3844C118.926 59.2861 118.974 59.1687 119.063 59.0441Z" fill="white" fill-opacity="0.1"/>
<path d="M104.167 165.755C104.579 165.181 105.285 164.963 105.274 165.413C105.27 165.511 105.222 165.629 105.133 165.754C104.721 166.328 104.015 166.546 104.026 166.096C104.03 165.998 104.079 165.88 104.167 165.755Z" fill="white" fill-opacity="0.1"/>
<path d="M235.253 171.891C235.038 171.88 235.174 171.557 235.46 171.389C235.522 171.353 235.579 171.335 235.625 171.338C235.836 171.353 235.704 171.673 235.418 171.84C235.356 171.876 235.299 171.894 235.253 171.891Z" fill="white" fill-opacity="0.1"/>
<path d="M50.5308 8.17013C50.9397 7.59261 51.648 7.37771 51.6366 7.82671C51.6328 7.92516 51.5841 8.0427 51.4953 8.16756C51.0828 8.7411 50.3781 8.95998 50.3895 8.51098C50.3933 8.41254 50.442 8.295 50.5308 8.17013Z" fill="white" fill-opacity="0.1"/>
<path d="M17.106 140.16C17.5149 139.582 18.2232 139.367 18.2118 139.816C18.208 139.915 18.1593 140.032 18.0705 140.157C17.658 140.731 16.9533 140.95 16.9647 140.501C16.9685 140.402 17.0172 140.285 17.106 140.16Z" fill="white" fill-opacity="0.1"/>
<path d="M37.399 119.671C37.8078 119.093 38.5162 118.878 38.5047 119.327C38.501 119.426 38.4522 119.543 38.3634 119.668C37.951 120.242 37.2462 120.46 37.2577 120.011C37.2615 119.913 37.3102 119.795 37.399 119.671Z" fill="white" fill-opacity="0.1"/>
<path d="M54.5142 46.2072C54.9231 45.6297 55.6314 45.4148 55.62 45.8638C55.6162 45.9623 55.5675 46.0798 55.4787 46.2047C55.0662 46.7782 54.3615 46.9971 54.3729 46.5481C54.3767 46.4496 54.4254 46.3321 54.5142 46.2072Z" fill="white" fill-opacity="0.1"/>
<path d="M84.2379 76.3899C84.6467 75.8123 85.3551 75.5974 85.3436 76.0464C85.3398 76.1449 85.2911 76.2624 85.2023 76.3873C84.7898 76.9608 84.0851 77.1797 84.0966 76.7307C84.1003 76.6323 84.1491 76.5147 84.2379 76.3899Z" fill="white" fill-opacity="0.1"/>
<path d="M32.9417 89.8309C33.3539 89.2571 34.0592 89.0388 34.0483 89.4884C34.0447 89.587 33.9961 89.7047 33.9073 89.8296C33.4951 90.4034 32.7898 90.6217 32.8007 90.1721C32.8043 90.0735 32.853 89.9558 32.9417 89.8309Z" fill="white" fill-opacity="0.1"/>
<path d="M288.92 36.2094C289.529 35.8514 289.811 35.1697 289.363 35.1399C289.265 35.1346 289.143 35.1724 289.011 35.2493C288.398 35.6034 288.119 36.2891 288.567 36.3189C288.666 36.3242 288.787 36.2864 288.92 36.2094Z" fill="white" fill-opacity="0.1"/>
<path d="M230.34 74.7851C230.949 74.427 231.231 73.7453 230.783 73.7156C230.685 73.7103 230.563 73.748 230.431 73.825C229.818 74.1791 229.539 74.8648 229.987 74.8946C230.086 74.8999 230.207 74.8621 230.34 74.7851Z" fill="white" fill-opacity="0.8"/>
<path d="M233.773 24.2337C234.185 23.6601 234.89 23.4412 234.878 23.8902C234.875 23.9887 234.826 24.1062 234.737 24.2311C234.328 24.8086 233.62 25.0235 233.631 24.5745C233.635 24.4761 233.684 24.3585 233.773 24.2337Z" fill="white" fill-opacity="0.1"/>
<path d="M251.673 48.2723C252.085 47.6985 252.791 47.4802 252.78 47.9298C252.776 48.0284 252.728 48.1461 252.639 48.271C252.227 48.8448 251.521 49.0631 251.532 48.6135C251.536 48.5149 251.584 48.3972 251.673 48.2723Z" fill="white" fill-opacity="0.1"/>
<path d="M247.653 76.4382C248.062 75.8607 248.77 75.6458 248.759 76.0948C248.755 76.1932 248.706 76.3108 248.617 76.4356C248.205 77.0092 247.5 77.2281 247.512 76.7791C247.515 76.6806 247.564 76.5631 247.653 76.4382Z" fill="white" fill-opacity="0.1"/>
<path d="M226.615 47.5988C227.024 47.0213 227.732 46.8064 227.721 47.2554C227.717 47.3539 227.668 47.4714 227.579 47.5963C227.167 48.1698 226.462 48.3887 226.474 47.9397C226.477 47.8412 226.526 47.7237 226.615 47.5988Z" fill="white" fill-opacity="0.8"/>
<path d="M267.945 55.9485C268.354 55.3709 269.062 55.156 269.051 55.605C269.047 55.7035 268.998 55.821 268.909 55.9459C268.497 56.5194 267.792 56.7383 267.804 56.2893C267.807 56.1909 267.856 56.0733 267.945 55.9485Z" fill="white" fill-opacity="0.1"/>
<path d="M263.489 26.1087C263.901 25.5349 264.606 25.3166 264.595 25.7663C264.592 25.8649 264.543 25.9825 264.454 26.1074C264.042 26.6813 263.337 26.8995 263.348 26.4499C263.351 26.3513 263.4 26.2337 263.489 26.1087Z" fill="white" fill-opacity="0.1"/>
<path d="M3.45832 36.8739C3.8705 36.3 4.57581 36.0818 4.56493 36.5314C4.56129 36.63 4.51266 36.7476 4.4239 36.8726C4.01171 37.4464 3.3064 37.6647 3.31729 37.215C3.32092 37.1164 3.36956 36.9988 3.45832 36.8739Z" fill="white" fill-opacity="0.8"/>
</g>
</g>
<defs>
<filter id="filter0_f_5989_201240" x="-108.869" y="-93.9531" width="529.044" height="459.948" filterUnits="userSpaceOnUse" color-interpolation-filters="sRGB">
<feFlood flood-opacity="0" result="BackgroundImageFix"/>
<feBlend mode="normal" in="SourceGraphic" in2="BackgroundImageFix" result="shape"/>
<feGaussianBlur stdDeviation="12.5" result="effect1_foregroundBlur_5989_201240"/>
</filter>
<filter id="filter1_f_5989_201240" x="-348" y="-221" width="720.206" height="728.5" filterUnits="userSpaceOnUse" color-interpolation-filters="sRGB">
<feFlood flood-opacity="0" result="BackgroundImageFix"/>
<feBlend mode="normal" in="SourceGraphic" in2="BackgroundImageFix" result="shape"/>
<feGaussianBlur stdDeviation="30" result="effect1_foregroundBlur_5989_201240"/>
</filter>
<filter id="filter2_f_5989_201240" x="-180" y="-212.5" width="720.206" height="728.5" filterUnits="userSpaceOnUse" color-interpolation-filters="sRGB">
<feFlood flood-opacity="0" result="BackgroundImageFix"/>
<feBlend mode="normal" in="SourceGraphic" in2="BackgroundImageFix" result="shape"/>
<feGaussianBlur stdDeviation="30" result="effect1_foregroundBlur_5989_201240"/>
</filter>
<filter id="filter3_f_5989_201240" x="-115.5" y="-299" width="720.206" height="728.5" filterUnits="userSpaceOnUse" color-interpolation-filters="sRGB">
<feFlood flood-opacity="0" result="BackgroundImageFix"/>
<feBlend mode="normal" in="SourceGraphic" in2="BackgroundImageFix" result="shape"/>
<feGaussianBlur stdDeviation="30" result="effect1_foregroundBlur_5989_201240"/>
</filter>
<linearGradient id="paint0_linear_5989_201240" x1="-204.467" y1="-141.198" x2="312.116" y2="220.984" gradientUnits="userSpaceOnUse">
<stop stop-color="#424243" stop-opacity="0.5"/>
<stop offset="1" stop-color="white" stop-opacity="0"/>
</linearGradient>
<linearGradient id="paint1_linear_5989_201240" x1="-277.924" y1="-150.924" x2="75.6294" y2="202.63" gradientUnits="userSpaceOnUse">
<stop stop-color="white"/>
<stop offset="1" stop-color="#D3D8DF"/>
</linearGradient>
<linearGradient id="paint2_linear_5989_201240" x1="-109.924" y1="-142.424" x2="243.629" y2="211.13" gradientUnits="userSpaceOnUse">
<stop stop-color="white"/>
<stop offset="1" stop-color="#D3D8DF"/>
</linearGradient>
<linearGradient id="paint3_linear_5989_201240" x1="-45.4239" y1="-228.924" x2="308.129" y2="124.63" gradientUnits="userSpaceOnUse">
<stop stop-color="white"/>
<stop offset="1" stop-color="#D3D8DF"/>
</linearGradient>
<clipPath id="clip0_5989_201240">
<rect width="1080" height="449" rx="30" fill="white"/>
</clipPath>
</defs>
</svg>
