<svg width="48" height="48" viewBox="0 0 48 48" fill="none" xmlns="http://www.w3.org/2000/svg">
<g id="socialmedia-icon" clip-path="url(#clip0_5937_170363)">
<g id="Vector" filter="url(#filter0_bd_5937_170363)">
<mask id="path-1-inside-1_5937_170363" fill="white">
<path fill-rule="evenodd" clip-rule="evenodd" d="M20.2799 30.9874C19.0875 30.6543 18.4143 30.4792 18.0198 30.3854L17.8867 29.8885C19.2758 28.613 20.2975 26.106 19.601 23.6779C19.1596 22.1348 17.6079 21.0563 15.8287 21.0563C14.0494 21.0563 12.4977 22.1345 12.0554 23.6779C11.4827 25.6765 12.1169 28.2038 13.5637 29.6882C13.6574 29.7838 13.7528 29.8731 13.8498 29.9562L13.7344 30.3844C13.3394 30.4781 12.6684 30.6533 11.4729 30.9872C9.83072 31.4453 9.12478 31.9646 9.00844 33.9908C9.00759 34.0116 9.00759 34.0319 9.00759 34.0527L9.01022 34.1558C9.03103 35.0108 9.04031 35.4009 9.03947 36.285C9.03911 36.3835 9.05818 36.4811 9.09559 36.5722C9.13299 36.6634 9.188 36.7462 9.25746 36.8161C9.32692 36.8859 9.40947 36.9414 9.50039 36.9793C9.59131 37.0172 9.68881 37.0368 9.78731 37.037H9.78956C9.98827 37.0367 10.1788 36.9577 10.3194 36.8173C10.4599 36.6769 10.5391 36.4864 10.5396 36.2877C10.5404 35.3841 10.5311 34.9873 10.5095 34.1192L10.5077 34.047C10.5452 33.4323 10.6324 33.0788 10.7899 32.9033C10.958 32.7166 11.3299 32.5845 11.8774 32.4318C13.9493 31.8533 14.3494 31.7812 14.4228 31.7728C14.5725 31.7559 14.7137 31.6942 14.8279 31.5959C14.9421 31.4976 15.0241 31.3672 15.0632 31.2217L15.2074 30.6834C15.415 30.7351 15.6281 30.7615 15.8421 30.7621C16.0784 30.7616 16.3137 30.7292 16.5413 30.6657L16.6904 31.2217C16.73 31.3671 16.8122 31.4974 16.9265 31.5956C17.0409 31.6939 17.182 31.7556 17.3317 31.7728C17.4047 31.7812 17.805 31.8533 19.8772 32.4318C20.4233 32.5848 20.7967 32.7166 20.9647 32.9033C21.1208 33.0788 21.2084 33.4323 21.2459 34.047L21.2441 34.1192C21.2238 34.9873 21.2131 35.3841 21.2153 36.2877C21.2155 36.4865 21.2946 36.6771 21.4353 36.8176C21.5759 36.9581 21.7666 37.037 21.9653 37.037H21.9662C22.1653 37.0366 22.356 36.9571 22.4965 36.8161C22.637 36.6751 22.7158 36.4841 22.7154 36.285C22.7137 35.4009 22.7239 35.0108 22.7446 34.1558L22.7464 34.0527C22.7475 34.0321 22.7472 34.0114 22.7455 33.9908C22.6301 31.9646 21.9242 31.4453 20.2807 30.9872L20.2799 30.9874ZM14.6379 28.6406C13.7092 27.6884 13.0294 25.7264 13.4973 24.0912C13.799 23.0363 14.9175 22.5564 15.8287 22.5564C16.7398 22.5564 17.8574 23.0363 18.1596 24.0912C18.6974 25.9678 17.8893 27.9003 16.8123 28.8375C16.1016 29.4571 15.3696 29.3906 14.6379 28.6406ZM7.78125 15.5625C9.32024 15.5625 10.8247 15.1061 12.1043 14.2511C13.3839 13.3961 14.3812 12.1808 14.9702 10.759C15.5591 9.33717 15.7132 7.77262 15.413 6.26321C15.1127 4.75379 14.3717 3.36731 13.2834 2.27908C12.1952 1.19085 10.8087 0.449759 9.2993 0.149518C7.78988 -0.150723 6.22533 0.00337149 4.80349 0.592316C3.38166 1.18126 2.16639 2.1786 1.31138 3.45822C0.456362 4.73784 0 6.24227 0 7.78125C0.00215908 9.84431 0.82266 11.8222 2.28146 13.281C3.74026 14.7398 5.7182 15.5603 7.78125 15.5625ZM7.40072 11.7047C6.23044 11.0147 3.23616 8.69625 3.43209 6.28969C3.52406 5.16469 4.21022 4.2481 5.22375 3.89822C6.075 3.60497 7.00575 3.76688 7.78125 4.31447C8.55656 3.76688 9.4875 3.60497 10.3389 3.89822C11.3523 4.2481 12.0382 5.16497 12.1303 6.28969C12.3262 8.69625 9.33187 11.0147 8.16206 11.7047C8.04677 11.7728 7.91533 11.8087 7.78144 11.8087C7.64755 11.8087 7.51601 11.7728 7.40072 11.7047ZM4.92741 6.41175C4.97081 5.88103 5.26406 5.47153 5.71294 5.31666C5.83424 5.27508 5.96158 5.25386 6.08981 5.25385C6.48478 5.25385 6.89081 5.45072 7.23 5.81822C7.30033 5.89413 7.38559 5.95469 7.48042 5.99611C7.57526 6.03752 7.67763 6.0589 7.78111 6.0589C7.88459 6.0589 7.98696 6.03752 8.08179 5.99611C8.17663 5.95469 8.26189 5.89413 8.33222 5.81822C8.78156 5.33072 9.34856 5.14416 9.84928 5.31666C10.2982 5.47153 10.5919 5.88103 10.6348 6.41175C10.7317 7.60153 9.1425 9.25397 7.78125 10.1719C6.42028 9.25416 4.83113 7.60172 4.9275 6.41194L4.92741 6.41175ZM30.2474 38.2031C30.247 38.5364 30.1145 38.8559 29.8788 39.0915C29.6432 39.3272 29.3237 39.4598 28.9904 39.4601H15.9656C15.834 39.4599 15.7046 39.4946 15.5906 39.5605L7.2 44.4046V40.2105C7.2 40.0116 7.12098 39.8208 6.98033 39.6802C6.83968 39.5395 6.64891 39.4605 6.45 39.4605H2.76375C2.42873 39.46 2.10758 39.3267 1.87069 39.0898C1.6338 38.8529 1.5005 38.5318 1.5 38.1968V19.8955C1.50052 19.5605 1.63384 19.2394 1.87072 19.0025C2.10761 18.7657 2.42875 18.6324 2.76375 18.6319H20.8067C21.5577 20.7533 22.8072 22.6634 24.45 24.2015C26.0929 25.7396 28.081 26.8608 30.2473 27.4706V38.2031H30.2474ZM34.0077 26.4844C27.1191 26.4844 21.5156 20.8809 21.5156 13.9923C21.5156 7.10363 27.1191 1.5 34.0077 1.5C40.8964 1.5 46.5 7.10447 46.5 13.9923C46.5 20.8801 40.8956 26.4844 34.0077 26.4844ZM40.7691 11.9408H38.5076C38.5311 10.5937 38.3979 7.97925 37.1007 7.00229C36.7004 6.70107 36.0226 6.42282 35.0653 6.80813C34.9221 6.86763 34.7824 6.93524 34.6469 7.01063C34.5265 7.07756 34.4268 7.17628 34.3587 7.29601C34.2906 7.41574 34.2567 7.55188 34.2607 7.68957L34.3209 9.64322C33.6372 10.9579 32.8401 12.2105 31.9387 13.3868L31.5504 13.3978C31.3942 13.4025 31.2434 13.456 31.1192 13.5508V13.3098C31.1189 13.0098 30.9996 12.7221 30.7875 12.51C30.5754 12.2978 30.2878 12.1785 29.9878 12.1781H26.7307C26.4308 12.1784 26.1432 12.2978 25.9311 12.5099C25.719 12.722 25.5997 13.0095 25.5994 13.3095V20.2318C25.5998 20.5318 25.7192 20.8193 25.9312 21.0315C26.1433 21.2436 26.4308 21.3631 26.7307 21.3637H29.9878C30.2204 21.3632 30.4472 21.2911 30.6374 21.1572C30.8277 21.0233 30.9721 20.8341 31.051 20.6153C31.2319 20.6728 31.4221 20.7278 31.619 20.7841C31.8273 20.8438 32.1121 20.9265 32.1881 20.9632C32.2947 21.0185 32.413 21.0474 32.5331 21.0475H39.3807C39.7508 21.0484 40.1103 20.9241 40.4008 20.6948C40.6913 20.4656 40.8957 20.1448 40.9809 19.7847L42.3693 13.9677C42.427 13.726 42.4293 13.4743 42.3758 13.2316C42.3223 12.9889 42.2145 12.7614 42.0605 12.5663C41.9065 12.3712 41.7103 12.2136 41.4866 12.1052C41.2629 11.9969 41.0176 11.9406 40.7691 11.9407V11.9408ZM29.6194 19.8637V13.6781H27.0996V19.8636L29.6194 19.8637ZM40.9106 13.6199C40.9156 13.5986 40.9157 13.5764 40.911 13.555C40.9062 13.5336 40.8966 13.5136 40.883 13.4964C40.8694 13.4792 40.8521 13.4653 40.8323 13.4558C40.8126 13.4462 40.791 13.4412 40.7691 13.4412H37.7222C37.6172 13.4413 37.5134 13.4192 37.4175 13.3766C37.3216 13.3339 37.2357 13.2716 37.1655 13.1936C37.0952 13.1156 37.0421 13.0237 37.0096 12.9239C36.9772 12.8241 36.966 12.7186 36.977 12.6142C37.126 11.1656 36.8974 8.72644 36.1988 8.2005C36.1436 8.15935 36.0366 8.07863 35.776 8.14875L35.8265 9.78882C35.8298 9.91383 35.8025 10.0378 35.7469 10.1498C34.9479 11.7283 33.9895 13.221 32.8866 14.6045C32.8185 14.6864 32.7339 14.753 32.6382 14.7997C32.5425 14.8465 32.4379 14.8723 32.3315 14.8756L31.5946 14.8973C31.4235 14.9041 31.2554 14.8511 31.1192 14.7473V19.0472C31.3723 19.1525 31.8008 19.2758 32.0343 19.3435C32.3138 19.4241 32.5225 19.4851 32.6866 19.5479H39.3803C39.4133 19.5495 39.4457 19.5391 39.4716 19.5186C39.4974 19.4981 39.515 19.4689 39.521 19.4364L40.9103 13.6198L40.9106 13.6199ZM40.2188 32.4375C38.6798 32.4375 37.1753 32.8939 35.8957 33.7489C34.6161 34.6039 33.6188 35.8192 33.0298 37.241C32.4409 38.6628 32.2868 40.2274 32.587 41.7368C32.8873 43.2462 33.6283 44.6327 34.7166 45.7209C35.8048 46.8092 37.1913 47.5502 38.7007 47.8505C40.2101 48.1507 41.7747 47.9966 43.1965 47.4077C44.6183 46.8187 45.8336 45.8214 46.6886 44.5418C47.5436 43.2622 48 41.7577 48 40.2188C47.9978 38.1557 47.1773 36.1778 45.7185 34.719C44.2597 33.2602 42.2818 32.4397 40.2188 32.4375ZM43.0312 36.0938C43.3793 36.094 43.713 36.2324 43.9591 36.4784C44.2051 36.7245 44.3435 37.0582 44.3438 37.4063V43.0313C44.3434 43.3792 44.205 43.7129 43.9589 43.9589C43.7129 44.205 43.3792 44.3434 43.0312 44.3438H37.4062C37.0583 44.3434 36.7246 44.205 36.4786 43.9589C36.2325 43.7129 36.0941 43.3792 36.0938 43.0313V37.4063C36.094 37.0582 36.2324 36.7246 36.4785 36.4785C36.7246 36.2324 37.0582 36.0941 37.4062 36.0938H43.0312ZM42.8438 42.8438H37.5938V37.5938H42.8438V42.8438ZM40.6632 38.9063C40.6632 38.7579 40.7072 38.6129 40.7896 38.4896C40.872 38.3662 40.9892 38.2701 41.1262 38.2133C41.2633 38.1566 41.4141 38.1417 41.5595 38.1707C41.705 38.1996 41.8387 38.271 41.9435 38.3759C42.0484 38.4808 42.1199 38.6144 42.1488 38.7599C42.1777 38.9054 42.1629 39.0562 42.1061 39.1933C42.0494 39.3303 41.9532 39.4474 41.8299 39.5299C41.7066 39.6123 41.5616 39.6563 41.4132 39.6563C41.3147 39.6563 41.2171 39.6369 41.1261 39.5992C41.0351 39.5616 40.9524 39.5063 40.8827 39.4367C40.813 39.367 40.7578 39.2843 40.7201 39.1933C40.6823 39.1023 40.6629 39.0048 40.6629 38.9063H40.6632Z"/>
</mask>
<path fill-rule="evenodd" clip-rule="evenodd" d="M20.2799 30.9874C19.0875 30.6543 18.4143 30.4792 18.0198 30.3854L17.8867 29.8885C19.2758 28.613 20.2975 26.106 19.601 23.6779C19.1596 22.1348 17.6079 21.0563 15.8287 21.0563C14.0494 21.0563 12.4977 22.1345 12.0554 23.6779C11.4827 25.6765 12.1169 28.2038 13.5637 29.6882C13.6574 29.7838 13.7528 29.8731 13.8498 29.9562L13.7344 30.3844C13.3394 30.4781 12.6684 30.6533 11.4729 30.9872C9.83072 31.4453 9.12478 31.9646 9.00844 33.9908C9.00759 34.0116 9.00759 34.0319 9.00759 34.0527L9.01022 34.1558C9.03103 35.0108 9.04031 35.4009 9.03947 36.285C9.03911 36.3835 9.05818 36.4811 9.09559 36.5722C9.13299 36.6634 9.188 36.7462 9.25746 36.8161C9.32692 36.8859 9.40947 36.9414 9.50039 36.9793C9.59131 37.0172 9.68881 37.0368 9.78731 37.037H9.78956C9.98827 37.0367 10.1788 36.9577 10.3194 36.8173C10.4599 36.6769 10.5391 36.4864 10.5396 36.2877C10.5404 35.3841 10.5311 34.9873 10.5095 34.1192L10.5077 34.047C10.5452 33.4323 10.6324 33.0788 10.7899 32.9033C10.958 32.7166 11.3299 32.5845 11.8774 32.4318C13.9493 31.8533 14.3494 31.7812 14.4228 31.7728C14.5725 31.7559 14.7137 31.6942 14.8279 31.5959C14.9421 31.4976 15.0241 31.3672 15.0632 31.2217L15.2074 30.6834C15.415 30.7351 15.6281 30.7615 15.8421 30.7621C16.0784 30.7616 16.3137 30.7292 16.5413 30.6657L16.6904 31.2217C16.73 31.3671 16.8122 31.4974 16.9265 31.5956C17.0409 31.6939 17.182 31.7556 17.3317 31.7728C17.4047 31.7812 17.805 31.8533 19.8772 32.4318C20.4233 32.5848 20.7967 32.7166 20.9647 32.9033C21.1208 33.0788 21.2084 33.4323 21.2459 34.047L21.2441 34.1192C21.2238 34.9873 21.2131 35.3841 21.2153 36.2877C21.2155 36.4865 21.2946 36.6771 21.4353 36.8176C21.5759 36.9581 21.7666 37.037 21.9653 37.037H21.9662C22.1653 37.0366 22.356 36.9571 22.4965 36.8161C22.637 36.6751 22.7158 36.4841 22.7154 36.285C22.7137 35.4009 22.7239 35.0108 22.7446 34.1558L22.7464 34.0527C22.7475 34.0321 22.7472 34.0114 22.7455 33.9908C22.6301 31.9646 21.9242 31.4453 20.2807 30.9872L20.2799 30.9874ZM14.6379 28.6406C13.7092 27.6884 13.0294 25.7264 13.4973 24.0912C13.799 23.0363 14.9175 22.5564 15.8287 22.5564C16.7398 22.5564 17.8574 23.0363 18.1596 24.0912C18.6974 25.9678 17.8893 27.9003 16.8123 28.8375C16.1016 29.4571 15.3696 29.3906 14.6379 28.6406ZM7.78125 15.5625C9.32024 15.5625 10.8247 15.1061 12.1043 14.2511C13.3839 13.3961 14.3812 12.1808 14.9702 10.759C15.5591 9.33717 15.7132 7.77262 15.413 6.26321C15.1127 4.75379 14.3717 3.36731 13.2834 2.27908C12.1952 1.19085 10.8087 0.449759 9.2993 0.149518C7.78988 -0.150723 6.22533 0.00337149 4.80349 0.592316C3.38166 1.18126 2.16639 2.1786 1.31138 3.45822C0.456362 4.73784 0 6.24227 0 7.78125C0.00215908 9.84431 0.82266 11.8222 2.28146 13.281C3.74026 14.7398 5.7182 15.5603 7.78125 15.5625ZM7.40072 11.7047C6.23044 11.0147 3.23616 8.69625 3.43209 6.28969C3.52406 5.16469 4.21022 4.2481 5.22375 3.89822C6.075 3.60497 7.00575 3.76688 7.78125 4.31447C8.55656 3.76688 9.4875 3.60497 10.3389 3.89822C11.3523 4.2481 12.0382 5.16497 12.1303 6.28969C12.3262 8.69625 9.33187 11.0147 8.16206 11.7047C8.04677 11.7728 7.91533 11.8087 7.78144 11.8087C7.64755 11.8087 7.51601 11.7728 7.40072 11.7047ZM4.92741 6.41175C4.97081 5.88103 5.26406 5.47153 5.71294 5.31666C5.83424 5.27508 5.96158 5.25386 6.08981 5.25385C6.48478 5.25385 6.89081 5.45072 7.23 5.81822C7.30033 5.89413 7.38559 5.95469 7.48042 5.99611C7.57526 6.03752 7.67763 6.0589 7.78111 6.0589C7.88459 6.0589 7.98696 6.03752 8.08179 5.99611C8.17663 5.95469 8.26189 5.89413 8.33222 5.81822C8.78156 5.33072 9.34856 5.14416 9.84928 5.31666C10.2982 5.47153 10.5919 5.88103 10.6348 6.41175C10.7317 7.60153 9.1425 9.25397 7.78125 10.1719C6.42028 9.25416 4.83113 7.60172 4.9275 6.41194L4.92741 6.41175ZM30.2474 38.2031C30.247 38.5364 30.1145 38.8559 29.8788 39.0915C29.6432 39.3272 29.3237 39.4598 28.9904 39.4601H15.9656C15.834 39.4599 15.7046 39.4946 15.5906 39.5605L7.2 44.4046V40.2105C7.2 40.0116 7.12098 39.8208 6.98033 39.6802C6.83968 39.5395 6.64891 39.4605 6.45 39.4605H2.76375C2.42873 39.46 2.10758 39.3267 1.87069 39.0898C1.6338 38.8529 1.5005 38.5318 1.5 38.1968V19.8955C1.50052 19.5605 1.63384 19.2394 1.87072 19.0025C2.10761 18.7657 2.42875 18.6324 2.76375 18.6319H20.8067C21.5577 20.7533 22.8072 22.6634 24.45 24.2015C26.0929 25.7396 28.081 26.8608 30.2473 27.4706V38.2031H30.2474ZM34.0077 26.4844C27.1191 26.4844 21.5156 20.8809 21.5156 13.9923C21.5156 7.10363 27.1191 1.5 34.0077 1.5C40.8964 1.5 46.5 7.10447 46.5 13.9923C46.5 20.8801 40.8956 26.4844 34.0077 26.4844ZM40.7691 11.9408H38.5076C38.5311 10.5937 38.3979 7.97925 37.1007 7.00229C36.7004 6.70107 36.0226 6.42282 35.0653 6.80813C34.9221 6.86763 34.7824 6.93524 34.6469 7.01063C34.5265 7.07756 34.4268 7.17628 34.3587 7.29601C34.2906 7.41574 34.2567 7.55188 34.2607 7.68957L34.3209 9.64322C33.6372 10.9579 32.8401 12.2105 31.9387 13.3868L31.5504 13.3978C31.3942 13.4025 31.2434 13.456 31.1192 13.5508V13.3098C31.1189 13.0098 30.9996 12.7221 30.7875 12.51C30.5754 12.2978 30.2878 12.1785 29.9878 12.1781H26.7307C26.4308 12.1784 26.1432 12.2978 25.9311 12.5099C25.719 12.722 25.5997 13.0095 25.5994 13.3095V20.2318C25.5998 20.5318 25.7192 20.8193 25.9312 21.0315C26.1433 21.2436 26.4308 21.3631 26.7307 21.3637H29.9878C30.2204 21.3632 30.4472 21.2911 30.6374 21.1572C30.8277 21.0233 30.9721 20.8341 31.051 20.6153C31.2319 20.6728 31.4221 20.7278 31.619 20.7841C31.8273 20.8438 32.1121 20.9265 32.1881 20.9632C32.2947 21.0185 32.413 21.0474 32.5331 21.0475H39.3807C39.7508 21.0484 40.1103 20.9241 40.4008 20.6948C40.6913 20.4656 40.8957 20.1448 40.9809 19.7847L42.3693 13.9677C42.427 13.726 42.4293 13.4743 42.3758 13.2316C42.3223 12.9889 42.2145 12.7614 42.0605 12.5663C41.9065 12.3712 41.7103 12.2136 41.4866 12.1052C41.2629 11.9969 41.0176 11.9406 40.7691 11.9407V11.9408ZM29.6194 19.8637V13.6781H27.0996V19.8636L29.6194 19.8637ZM40.9106 13.6199C40.9156 13.5986 40.9157 13.5764 40.911 13.555C40.9062 13.5336 40.8966 13.5136 40.883 13.4964C40.8694 13.4792 40.8521 13.4653 40.8323 13.4558C40.8126 13.4462 40.791 13.4412 40.7691 13.4412H37.7222C37.6172 13.4413 37.5134 13.4192 37.4175 13.3766C37.3216 13.3339 37.2357 13.2716 37.1655 13.1936C37.0952 13.1156 37.0421 13.0237 37.0096 12.9239C36.9772 12.8241 36.966 12.7186 36.977 12.6142C37.126 11.1656 36.8974 8.72644 36.1988 8.2005C36.1436 8.15935 36.0366 8.07863 35.776 8.14875L35.8265 9.78882C35.8298 9.91383 35.8025 10.0378 35.7469 10.1498C34.9479 11.7283 33.9895 13.221 32.8866 14.6045C32.8185 14.6864 32.7339 14.753 32.6382 14.7997C32.5425 14.8465 32.4379 14.8723 32.3315 14.8756L31.5946 14.8973C31.4235 14.9041 31.2554 14.8511 31.1192 14.7473V19.0472C31.3723 19.1525 31.8008 19.2758 32.0343 19.3435C32.3138 19.4241 32.5225 19.4851 32.6866 19.5479H39.3803C39.4133 19.5495 39.4457 19.5391 39.4716 19.5186C39.4974 19.4981 39.515 19.4689 39.521 19.4364L40.9103 13.6198L40.9106 13.6199ZM40.2188 32.4375C38.6798 32.4375 37.1753 32.8939 35.8957 33.7489C34.6161 34.6039 33.6188 35.8192 33.0298 37.241C32.4409 38.6628 32.2868 40.2274 32.587 41.7368C32.8873 43.2462 33.6283 44.6327 34.7166 45.7209C35.8048 46.8092 37.1913 47.5502 38.7007 47.8505C40.2101 48.1507 41.7747 47.9966 43.1965 47.4077C44.6183 46.8187 45.8336 45.8214 46.6886 44.5418C47.5436 43.2622 48 41.7577 48 40.2188C47.9978 38.1557 47.1773 36.1778 45.7185 34.719C44.2597 33.2602 42.2818 32.4397 40.2188 32.4375ZM43.0312 36.0938C43.3793 36.094 43.713 36.2324 43.9591 36.4784C44.2051 36.7245 44.3435 37.0582 44.3438 37.4063V43.0313C44.3434 43.3792 44.205 43.7129 43.9589 43.9589C43.7129 44.205 43.3792 44.3434 43.0312 44.3438H37.4062C37.0583 44.3434 36.7246 44.205 36.4786 43.9589C36.2325 43.7129 36.0941 43.3792 36.0938 43.0313V37.4063C36.094 37.0582 36.2324 36.7246 36.4785 36.4785C36.7246 36.2324 37.0582 36.0941 37.4062 36.0938H43.0312ZM42.8438 42.8438H37.5938V37.5938H42.8438V42.8438ZM40.6632 38.9063C40.6632 38.7579 40.7072 38.6129 40.7896 38.4896C40.872 38.3662 40.9892 38.2701 41.1262 38.2133C41.2633 38.1566 41.4141 38.1417 41.5595 38.1707C41.705 38.1996 41.8387 38.271 41.9435 38.3759C42.0484 38.4808 42.1199 38.6144 42.1488 38.7599C42.1777 38.9054 42.1629 39.0562 42.1061 39.1933C42.0494 39.3303 41.9532 39.4474 41.8299 39.5299C41.7066 39.6123 41.5616 39.6563 41.4132 39.6563C41.3147 39.6563 41.2171 39.6369 41.1261 39.5992C41.0351 39.5616 40.9524 39.5063 40.8827 39.4367C40.813 39.367 40.7578 39.2843 40.7201 39.1933C40.6823 39.1023 40.6629 39.0048 40.6629 38.9063H40.6632Z" fill="url(#paint0_linear_5937_170363)" fill-opacity="0.8" shape-rendering="crispEdges"/>
<path fill-rule="evenodd" clip-rule="evenodd" d="M20.2799 30.9874C19.0875 30.6543 18.4143 30.4792 18.0198 30.3854L17.8867 29.8885C19.2758 28.613 20.2975 26.106 19.601 23.6779C19.1596 22.1348 17.6079 21.0563 15.8287 21.0563C14.0494 21.0563 12.4977 22.1345 12.0554 23.6779C11.4827 25.6765 12.1169 28.2038 13.5637 29.6882C13.6574 29.7838 13.7528 29.8731 13.8498 29.9562L13.7344 30.3844C13.3394 30.4781 12.6684 30.6533 11.4729 30.9872C9.83072 31.4453 9.12478 31.9646 9.00844 33.9908C9.00759 34.0116 9.00759 34.0319 9.00759 34.0527L9.01022 34.1558C9.03103 35.0108 9.04031 35.4009 9.03947 36.285C9.03911 36.3835 9.05818 36.4811 9.09559 36.5722C9.13299 36.6634 9.188 36.7462 9.25746 36.8161C9.32692 36.8859 9.40947 36.9414 9.50039 36.9793C9.59131 37.0172 9.68881 37.0368 9.78731 37.037H9.78956C9.98827 37.0367 10.1788 36.9577 10.3194 36.8173C10.4599 36.6769 10.5391 36.4864 10.5396 36.2877C10.5404 35.3841 10.5311 34.9873 10.5095 34.1192L10.5077 34.047C10.5452 33.4323 10.6324 33.0788 10.7899 32.9033C10.958 32.7166 11.3299 32.5845 11.8774 32.4318C13.9493 31.8533 14.3494 31.7812 14.4228 31.7728C14.5725 31.7559 14.7137 31.6942 14.8279 31.5959C14.9421 31.4976 15.0241 31.3672 15.0632 31.2217L15.2074 30.6834C15.415 30.7351 15.6281 30.7615 15.8421 30.7621C16.0784 30.7616 16.3137 30.7292 16.5413 30.6657L16.6904 31.2217C16.73 31.3671 16.8122 31.4974 16.9265 31.5956C17.0409 31.6939 17.182 31.7556 17.3317 31.7728C17.4047 31.7812 17.805 31.8533 19.8772 32.4318C20.4233 32.5848 20.7967 32.7166 20.9647 32.9033C21.1208 33.0788 21.2084 33.4323 21.2459 34.047L21.2441 34.1192C21.2238 34.9873 21.2131 35.3841 21.2153 36.2877C21.2155 36.4865 21.2946 36.6771 21.4353 36.8176C21.5759 36.9581 21.7666 37.037 21.9653 37.037H21.9662C22.1653 37.0366 22.356 36.9571 22.4965 36.8161C22.637 36.6751 22.7158 36.4841 22.7154 36.285C22.7137 35.4009 22.7239 35.0108 22.7446 34.1558L22.7464 34.0527C22.7475 34.0321 22.7472 34.0114 22.7455 33.9908C22.6301 31.9646 21.9242 31.4453 20.2807 30.9872L20.2799 30.9874ZM14.6379 28.6406C13.7092 27.6884 13.0294 25.7264 13.4973 24.0912C13.799 23.0363 14.9175 22.5564 15.8287 22.5564C16.7398 22.5564 17.8574 23.0363 18.1596 24.0912C18.6974 25.9678 17.8893 27.9003 16.8123 28.8375C16.1016 29.4571 15.3696 29.3906 14.6379 28.6406ZM7.78125 15.5625C9.32024 15.5625 10.8247 15.1061 12.1043 14.2511C13.3839 13.3961 14.3812 12.1808 14.9702 10.759C15.5591 9.33717 15.7132 7.77262 15.413 6.26321C15.1127 4.75379 14.3717 3.36731 13.2834 2.27908C12.1952 1.19085 10.8087 0.449759 9.2993 0.149518C7.78988 -0.150723 6.22533 0.00337149 4.80349 0.592316C3.38166 1.18126 2.16639 2.1786 1.31138 3.45822C0.456362 4.73784 0 6.24227 0 7.78125C0.00215908 9.84431 0.82266 11.8222 2.28146 13.281C3.74026 14.7398 5.7182 15.5603 7.78125 15.5625ZM7.40072 11.7047C6.23044 11.0147 3.23616 8.69625 3.43209 6.28969C3.52406 5.16469 4.21022 4.2481 5.22375 3.89822C6.075 3.60497 7.00575 3.76688 7.78125 4.31447C8.55656 3.76688 9.4875 3.60497 10.3389 3.89822C11.3523 4.2481 12.0382 5.16497 12.1303 6.28969C12.3262 8.69625 9.33187 11.0147 8.16206 11.7047C8.04677 11.7728 7.91533 11.8087 7.78144 11.8087C7.64755 11.8087 7.51601 11.7728 7.40072 11.7047ZM4.92741 6.41175C4.97081 5.88103 5.26406 5.47153 5.71294 5.31666C5.83424 5.27508 5.96158 5.25386 6.08981 5.25385C6.48478 5.25385 6.89081 5.45072 7.23 5.81822C7.30033 5.89413 7.38559 5.95469 7.48042 5.99611C7.57526 6.03752 7.67763 6.0589 7.78111 6.0589C7.88459 6.0589 7.98696 6.03752 8.08179 5.99611C8.17663 5.95469 8.26189 5.89413 8.33222 5.81822C8.78156 5.33072 9.34856 5.14416 9.84928 5.31666C10.2982 5.47153 10.5919 5.88103 10.6348 6.41175C10.7317 7.60153 9.1425 9.25397 7.78125 10.1719C6.42028 9.25416 4.83113 7.60172 4.9275 6.41194L4.92741 6.41175ZM30.2474 38.2031C30.247 38.5364 30.1145 38.8559 29.8788 39.0915C29.6432 39.3272 29.3237 39.4598 28.9904 39.4601H15.9656C15.834 39.4599 15.7046 39.4946 15.5906 39.5605L7.2 44.4046V40.2105C7.2 40.0116 7.12098 39.8208 6.98033 39.6802C6.83968 39.5395 6.64891 39.4605 6.45 39.4605H2.76375C2.42873 39.46 2.10758 39.3267 1.87069 39.0898C1.6338 38.8529 1.5005 38.5318 1.5 38.1968V19.8955C1.50052 19.5605 1.63384 19.2394 1.87072 19.0025C2.10761 18.7657 2.42875 18.6324 2.76375 18.6319H20.8067C21.5577 20.7533 22.8072 22.6634 24.45 24.2015C26.0929 25.7396 28.081 26.8608 30.2473 27.4706V38.2031H30.2474ZM34.0077 26.4844C27.1191 26.4844 21.5156 20.8809 21.5156 13.9923C21.5156 7.10363 27.1191 1.5 34.0077 1.5C40.8964 1.5 46.5 7.10447 46.5 13.9923C46.5 20.8801 40.8956 26.4844 34.0077 26.4844ZM40.7691 11.9408H38.5076C38.5311 10.5937 38.3979 7.97925 37.1007 7.00229C36.7004 6.70107 36.0226 6.42282 35.0653 6.80813C34.9221 6.86763 34.7824 6.93524 34.6469 7.01063C34.5265 7.07756 34.4268 7.17628 34.3587 7.29601C34.2906 7.41574 34.2567 7.55188 34.2607 7.68957L34.3209 9.64322C33.6372 10.9579 32.8401 12.2105 31.9387 13.3868L31.5504 13.3978C31.3942 13.4025 31.2434 13.456 31.1192 13.5508V13.3098C31.1189 13.0098 30.9996 12.7221 30.7875 12.51C30.5754 12.2978 30.2878 12.1785 29.9878 12.1781H26.7307C26.4308 12.1784 26.1432 12.2978 25.9311 12.5099C25.719 12.722 25.5997 13.0095 25.5994 13.3095V20.2318C25.5998 20.5318 25.7192 20.8193 25.9312 21.0315C26.1433 21.2436 26.4308 21.3631 26.7307 21.3637H29.9878C30.2204 21.3632 30.4472 21.2911 30.6374 21.1572C30.8277 21.0233 30.9721 20.8341 31.051 20.6153C31.2319 20.6728 31.4221 20.7278 31.619 20.7841C31.8273 20.8438 32.1121 20.9265 32.1881 20.9632C32.2947 21.0185 32.413 21.0474 32.5331 21.0475H39.3807C39.7508 21.0484 40.1103 20.9241 40.4008 20.6948C40.6913 20.4656 40.8957 20.1448 40.9809 19.7847L42.3693 13.9677C42.427 13.726 42.4293 13.4743 42.3758 13.2316C42.3223 12.9889 42.2145 12.7614 42.0605 12.5663C41.9065 12.3712 41.7103 12.2136 41.4866 12.1052C41.2629 11.9969 41.0176 11.9406 40.7691 11.9407V11.9408ZM29.6194 19.8637V13.6781H27.0996V19.8636L29.6194 19.8637ZM40.9106 13.6199C40.9156 13.5986 40.9157 13.5764 40.911 13.555C40.9062 13.5336 40.8966 13.5136 40.883 13.4964C40.8694 13.4792 40.8521 13.4653 40.8323 13.4558C40.8126 13.4462 40.791 13.4412 40.7691 13.4412H37.7222C37.6172 13.4413 37.5134 13.4192 37.4175 13.3766C37.3216 13.3339 37.2357 13.2716 37.1655 13.1936C37.0952 13.1156 37.0421 13.0237 37.0096 12.9239C36.9772 12.8241 36.966 12.7186 36.977 12.6142C37.126 11.1656 36.8974 8.72644 36.1988 8.2005C36.1436 8.15935 36.0366 8.07863 35.776 8.14875L35.8265 9.78882C35.8298 9.91383 35.8025 10.0378 35.7469 10.1498C34.9479 11.7283 33.9895 13.221 32.8866 14.6045C32.8185 14.6864 32.7339 14.753 32.6382 14.7997C32.5425 14.8465 32.4379 14.8723 32.3315 14.8756L31.5946 14.8973C31.4235 14.9041 31.2554 14.8511 31.1192 14.7473V19.0472C31.3723 19.1525 31.8008 19.2758 32.0343 19.3435C32.3138 19.4241 32.5225 19.4851 32.6866 19.5479H39.3803C39.4133 19.5495 39.4457 19.5391 39.4716 19.5186C39.4974 19.4981 39.515 19.4689 39.521 19.4364L40.9103 13.6198L40.9106 13.6199ZM40.2188 32.4375C38.6798 32.4375 37.1753 32.8939 35.8957 33.7489C34.6161 34.6039 33.6188 35.8192 33.0298 37.241C32.4409 38.6628 32.2868 40.2274 32.587 41.7368C32.8873 43.2462 33.6283 44.6327 34.7166 45.7209C35.8048 46.8092 37.1913 47.5502 38.7007 47.8505C40.2101 48.1507 41.7747 47.9966 43.1965 47.4077C44.6183 46.8187 45.8336 45.8214 46.6886 44.5418C47.5436 43.2622 48 41.7577 48 40.2188C47.9978 38.1557 47.1773 36.1778 45.7185 34.719C44.2597 33.2602 42.2818 32.4397 40.2188 32.4375ZM43.0312 36.0938C43.3793 36.094 43.713 36.2324 43.9591 36.4784C44.2051 36.7245 44.3435 37.0582 44.3438 37.4063V43.0313C44.3434 43.3792 44.205 43.7129 43.9589 43.9589C43.7129 44.205 43.3792 44.3434 43.0312 44.3438H37.4062C37.0583 44.3434 36.7246 44.205 36.4786 43.9589C36.2325 43.7129 36.0941 43.3792 36.0938 43.0313V37.4063C36.094 37.0582 36.2324 36.7246 36.4785 36.4785C36.7246 36.2324 37.0582 36.0941 37.4062 36.0938H43.0312ZM42.8438 42.8438H37.5938V37.5938H42.8438V42.8438ZM40.6632 38.9063C40.6632 38.7579 40.7072 38.6129 40.7896 38.4896C40.872 38.3662 40.9892 38.2701 41.1262 38.2133C41.2633 38.1566 41.4141 38.1417 41.5595 38.1707C41.705 38.1996 41.8387 38.271 41.9435 38.3759C42.0484 38.4808 42.1199 38.6144 42.1488 38.7599C42.1777 38.9054 42.1629 39.0562 42.1061 39.1933C42.0494 39.3303 41.9532 39.4474 41.8299 39.5299C41.7066 39.6123 41.5616 39.6563 41.4132 39.6563C41.3147 39.6563 41.2171 39.6369 41.1261 39.5992C41.0351 39.5616 40.9524 39.5063 40.8827 39.4367C40.813 39.367 40.7578 39.2843 40.7201 39.1933C40.6823 39.1023 40.6629 39.0048 40.6629 38.9063H40.6632Z" fill="#344254" fill-opacity="0.15" shape-rendering="crispEdges"/>
<path fill-rule="evenodd" clip-rule="evenodd" d="M20.2799 30.9874C19.0875 30.6543 18.4143 30.4792 18.0198 30.3854L17.8867 29.8885C19.2758 28.613 20.2975 26.106 19.601 23.6779C19.1596 22.1348 17.6079 21.0563 15.8287 21.0563C14.0494 21.0563 12.4977 22.1345 12.0554 23.6779C11.4827 25.6765 12.1169 28.2038 13.5637 29.6882C13.6574 29.7838 13.7528 29.8731 13.8498 29.9562L13.7344 30.3844C13.3394 30.4781 12.6684 30.6533 11.4729 30.9872C9.83072 31.4453 9.12478 31.9646 9.00844 33.9908C9.00759 34.0116 9.00759 34.0319 9.00759 34.0527L9.01022 34.1558C9.03103 35.0108 9.04031 35.4009 9.03947 36.285C9.03911 36.3835 9.05818 36.4811 9.09559 36.5722C9.13299 36.6634 9.188 36.7462 9.25746 36.8161C9.32692 36.8859 9.40947 36.9414 9.50039 36.9793C9.59131 37.0172 9.68881 37.0368 9.78731 37.037H9.78956C9.98827 37.0367 10.1788 36.9577 10.3194 36.8173C10.4599 36.6769 10.5391 36.4864 10.5396 36.2877C10.5404 35.3841 10.5311 34.9873 10.5095 34.1192L10.5077 34.047C10.5452 33.4323 10.6324 33.0788 10.7899 32.9033C10.958 32.7166 11.3299 32.5845 11.8774 32.4318C13.9493 31.8533 14.3494 31.7812 14.4228 31.7728C14.5725 31.7559 14.7137 31.6942 14.8279 31.5959C14.9421 31.4976 15.0241 31.3672 15.0632 31.2217L15.2074 30.6834C15.415 30.7351 15.6281 30.7615 15.8421 30.7621C16.0784 30.7616 16.3137 30.7292 16.5413 30.6657L16.6904 31.2217C16.73 31.3671 16.8122 31.4974 16.9265 31.5956C17.0409 31.6939 17.182 31.7556 17.3317 31.7728C17.4047 31.7812 17.805 31.8533 19.8772 32.4318C20.4233 32.5848 20.7967 32.7166 20.9647 32.9033C21.1208 33.0788 21.2084 33.4323 21.2459 34.047L21.2441 34.1192C21.2238 34.9873 21.2131 35.3841 21.2153 36.2877C21.2155 36.4865 21.2946 36.6771 21.4353 36.8176C21.5759 36.9581 21.7666 37.037 21.9653 37.037H21.9662C22.1653 37.0366 22.356 36.9571 22.4965 36.8161C22.637 36.6751 22.7158 36.4841 22.7154 36.285C22.7137 35.4009 22.7239 35.0108 22.7446 34.1558L22.7464 34.0527C22.7475 34.0321 22.7472 34.0114 22.7455 33.9908C22.6301 31.9646 21.9242 31.4453 20.2807 30.9872L20.2799 30.9874ZM14.6379 28.6406C13.7092 27.6884 13.0294 25.7264 13.4973 24.0912C13.799 23.0363 14.9175 22.5564 15.8287 22.5564C16.7398 22.5564 17.8574 23.0363 18.1596 24.0912C18.6974 25.9678 17.8893 27.9003 16.8123 28.8375C16.1016 29.4571 15.3696 29.3906 14.6379 28.6406ZM7.78125 15.5625C9.32024 15.5625 10.8247 15.1061 12.1043 14.2511C13.3839 13.3961 14.3812 12.1808 14.9702 10.759C15.5591 9.33717 15.7132 7.77262 15.413 6.26321C15.1127 4.75379 14.3717 3.36731 13.2834 2.27908C12.1952 1.19085 10.8087 0.449759 9.2993 0.149518C7.78988 -0.150723 6.22533 0.00337149 4.80349 0.592316C3.38166 1.18126 2.16639 2.1786 1.31138 3.45822C0.456362 4.73784 0 6.24227 0 7.78125C0.00215908 9.84431 0.82266 11.8222 2.28146 13.281C3.74026 14.7398 5.7182 15.5603 7.78125 15.5625ZM7.40072 11.7047C6.23044 11.0147 3.23616 8.69625 3.43209 6.28969C3.52406 5.16469 4.21022 4.2481 5.22375 3.89822C6.075 3.60497 7.00575 3.76688 7.78125 4.31447C8.55656 3.76688 9.4875 3.60497 10.3389 3.89822C11.3523 4.2481 12.0382 5.16497 12.1303 6.28969C12.3262 8.69625 9.33187 11.0147 8.16206 11.7047C8.04677 11.7728 7.91533 11.8087 7.78144 11.8087C7.64755 11.8087 7.51601 11.7728 7.40072 11.7047ZM4.92741 6.41175C4.97081 5.88103 5.26406 5.47153 5.71294 5.31666C5.83424 5.27508 5.96158 5.25386 6.08981 5.25385C6.48478 5.25385 6.89081 5.45072 7.23 5.81822C7.30033 5.89413 7.38559 5.95469 7.48042 5.99611C7.57526 6.03752 7.67763 6.0589 7.78111 6.0589C7.88459 6.0589 7.98696 6.03752 8.08179 5.99611C8.17663 5.95469 8.26189 5.89413 8.33222 5.81822C8.78156 5.33072 9.34856 5.14416 9.84928 5.31666C10.2982 5.47153 10.5919 5.88103 10.6348 6.41175C10.7317 7.60153 9.1425 9.25397 7.78125 10.1719C6.42028 9.25416 4.83113 7.60172 4.9275 6.41194L4.92741 6.41175ZM30.2474 38.2031C30.247 38.5364 30.1145 38.8559 29.8788 39.0915C29.6432 39.3272 29.3237 39.4598 28.9904 39.4601H15.9656C15.834 39.4599 15.7046 39.4946 15.5906 39.5605L7.2 44.4046V40.2105C7.2 40.0116 7.12098 39.8208 6.98033 39.6802C6.83968 39.5395 6.64891 39.4605 6.45 39.4605H2.76375C2.42873 39.46 2.10758 39.3267 1.87069 39.0898C1.6338 38.8529 1.5005 38.5318 1.5 38.1968V19.8955C1.50052 19.5605 1.63384 19.2394 1.87072 19.0025C2.10761 18.7657 2.42875 18.6324 2.76375 18.6319H20.8067C21.5577 20.7533 22.8072 22.6634 24.45 24.2015C26.0929 25.7396 28.081 26.8608 30.2473 27.4706V38.2031H30.2474ZM34.0077 26.4844C27.1191 26.4844 21.5156 20.8809 21.5156 13.9923C21.5156 7.10363 27.1191 1.5 34.0077 1.5C40.8964 1.5 46.5 7.10447 46.5 13.9923C46.5 20.8801 40.8956 26.4844 34.0077 26.4844ZM40.7691 11.9408H38.5076C38.5311 10.5937 38.3979 7.97925 37.1007 7.00229C36.7004 6.70107 36.0226 6.42282 35.0653 6.80813C34.9221 6.86763 34.7824 6.93524 34.6469 7.01063C34.5265 7.07756 34.4268 7.17628 34.3587 7.29601C34.2906 7.41574 34.2567 7.55188 34.2607 7.68957L34.3209 9.64322C33.6372 10.9579 32.8401 12.2105 31.9387 13.3868L31.5504 13.3978C31.3942 13.4025 31.2434 13.456 31.1192 13.5508V13.3098C31.1189 13.0098 30.9996 12.7221 30.7875 12.51C30.5754 12.2978 30.2878 12.1785 29.9878 12.1781H26.7307C26.4308 12.1784 26.1432 12.2978 25.9311 12.5099C25.719 12.722 25.5997 13.0095 25.5994 13.3095V20.2318C25.5998 20.5318 25.7192 20.8193 25.9312 21.0315C26.1433 21.2436 26.4308 21.3631 26.7307 21.3637H29.9878C30.2204 21.3632 30.4472 21.2911 30.6374 21.1572C30.8277 21.0233 30.9721 20.8341 31.051 20.6153C31.2319 20.6728 31.4221 20.7278 31.619 20.7841C31.8273 20.8438 32.1121 20.9265 32.1881 20.9632C32.2947 21.0185 32.413 21.0474 32.5331 21.0475H39.3807C39.7508 21.0484 40.1103 20.9241 40.4008 20.6948C40.6913 20.4656 40.8957 20.1448 40.9809 19.7847L42.3693 13.9677C42.427 13.726 42.4293 13.4743 42.3758 13.2316C42.3223 12.9889 42.2145 12.7614 42.0605 12.5663C41.9065 12.3712 41.7103 12.2136 41.4866 12.1052C41.2629 11.9969 41.0176 11.9406 40.7691 11.9407V11.9408ZM29.6194 19.8637V13.6781H27.0996V19.8636L29.6194 19.8637ZM40.9106 13.6199C40.9156 13.5986 40.9157 13.5764 40.911 13.555C40.9062 13.5336 40.8966 13.5136 40.883 13.4964C40.8694 13.4792 40.8521 13.4653 40.8323 13.4558C40.8126 13.4462 40.791 13.4412 40.7691 13.4412H37.7222C37.6172 13.4413 37.5134 13.4192 37.4175 13.3766C37.3216 13.3339 37.2357 13.2716 37.1655 13.1936C37.0952 13.1156 37.0421 13.0237 37.0096 12.9239C36.9772 12.8241 36.966 12.7186 36.977 12.6142C37.126 11.1656 36.8974 8.72644 36.1988 8.2005C36.1436 8.15935 36.0366 8.07863 35.776 8.14875L35.8265 9.78882C35.8298 9.91383 35.8025 10.0378 35.7469 10.1498C34.9479 11.7283 33.9895 13.221 32.8866 14.6045C32.8185 14.6864 32.7339 14.753 32.6382 14.7997C32.5425 14.8465 32.4379 14.8723 32.3315 14.8756L31.5946 14.8973C31.4235 14.9041 31.2554 14.8511 31.1192 14.7473V19.0472C31.3723 19.1525 31.8008 19.2758 32.0343 19.3435C32.3138 19.4241 32.5225 19.4851 32.6866 19.5479H39.3803C39.4133 19.5495 39.4457 19.5391 39.4716 19.5186C39.4974 19.4981 39.515 19.4689 39.521 19.4364L40.9103 13.6198L40.9106 13.6199ZM40.2188 32.4375C38.6798 32.4375 37.1753 32.8939 35.8957 33.7489C34.6161 34.6039 33.6188 35.8192 33.0298 37.241C32.4409 38.6628 32.2868 40.2274 32.587 41.7368C32.8873 43.2462 33.6283 44.6327 34.7166 45.7209C35.8048 46.8092 37.1913 47.5502 38.7007 47.8505C40.2101 48.1507 41.7747 47.9966 43.1965 47.4077C44.6183 46.8187 45.8336 45.8214 46.6886 44.5418C47.5436 43.2622 48 41.7577 48 40.2188C47.9978 38.1557 47.1773 36.1778 45.7185 34.719C44.2597 33.2602 42.2818 32.4397 40.2188 32.4375ZM43.0312 36.0938C43.3793 36.094 43.713 36.2324 43.9591 36.4784C44.2051 36.7245 44.3435 37.0582 44.3438 37.4063V43.0313C44.3434 43.3792 44.205 43.7129 43.9589 43.9589C43.7129 44.205 43.3792 44.3434 43.0312 44.3438H37.4062C37.0583 44.3434 36.7246 44.205 36.4786 43.9589C36.2325 43.7129 36.0941 43.3792 36.0938 43.0313V37.4063C36.094 37.0582 36.2324 36.7246 36.4785 36.4785C36.7246 36.2324 37.0582 36.0941 37.4062 36.0938H43.0312ZM42.8438 42.8438H37.5938V37.5938H42.8438V42.8438ZM40.6632 38.9063C40.6632 38.7579 40.7072 38.6129 40.7896 38.4896C40.872 38.3662 40.9892 38.2701 41.1262 38.2133C41.2633 38.1566 41.4141 38.1417 41.5595 38.1707C41.705 38.1996 41.8387 38.271 41.9435 38.3759C42.0484 38.4808 42.1199 38.6144 42.1488 38.7599C42.1777 38.9054 42.1629 39.0562 42.1061 39.1933C42.0494 39.3303 41.9532 39.4474 41.8299 39.5299C41.7066 39.6123 41.5616 39.6563 41.4132 39.6563C41.3147 39.6563 41.2171 39.6369 41.1261 39.5992C41.0351 39.5616 40.9524 39.5063 40.8827 39.4367C40.813 39.367 40.7578 39.2843 40.7201 39.1933C40.6823 39.1023 40.6629 39.0048 40.6629 38.9063H40.6632Z" stroke="url(#paint1_radial_5937_170363)" stroke-opacity="0.6" stroke-width="1.6" shape-rendering="crispEdges" mask="url(#path-1-inside-1_5937_170363)"/>
<path fill-rule="evenodd" clip-rule="evenodd" d="M20.2799 30.9874C19.0875 30.6543 18.4143 30.4792 18.0198 30.3854L17.8867 29.8885C19.2758 28.613 20.2975 26.106 19.601 23.6779C19.1596 22.1348 17.6079 21.0563 15.8287 21.0563C14.0494 21.0563 12.4977 22.1345 12.0554 23.6779C11.4827 25.6765 12.1169 28.2038 13.5637 29.6882C13.6574 29.7838 13.7528 29.8731 13.8498 29.9562L13.7344 30.3844C13.3394 30.4781 12.6684 30.6533 11.4729 30.9872C9.83072 31.4453 9.12478 31.9646 9.00844 33.9908C9.00759 34.0116 9.00759 34.0319 9.00759 34.0527L9.01022 34.1558C9.03103 35.0108 9.04031 35.4009 9.03947 36.285C9.03911 36.3835 9.05818 36.4811 9.09559 36.5722C9.13299 36.6634 9.188 36.7462 9.25746 36.8161C9.32692 36.8859 9.40947 36.9414 9.50039 36.9793C9.59131 37.0172 9.68881 37.0368 9.78731 37.037H9.78956C9.98827 37.0367 10.1788 36.9577 10.3194 36.8173C10.4599 36.6769 10.5391 36.4864 10.5396 36.2877C10.5404 35.3841 10.5311 34.9873 10.5095 34.1192L10.5077 34.047C10.5452 33.4323 10.6324 33.0788 10.7899 32.9033C10.958 32.7166 11.3299 32.5845 11.8774 32.4318C13.9493 31.8533 14.3494 31.7812 14.4228 31.7728C14.5725 31.7559 14.7137 31.6942 14.8279 31.5959C14.9421 31.4976 15.0241 31.3672 15.0632 31.2217L15.2074 30.6834C15.415 30.7351 15.6281 30.7615 15.8421 30.7621C16.0784 30.7616 16.3137 30.7292 16.5413 30.6657L16.6904 31.2217C16.73 31.3671 16.8122 31.4974 16.9265 31.5956C17.0409 31.6939 17.182 31.7556 17.3317 31.7728C17.4047 31.7812 17.805 31.8533 19.8772 32.4318C20.4233 32.5848 20.7967 32.7166 20.9647 32.9033C21.1208 33.0788 21.2084 33.4323 21.2459 34.047L21.2441 34.1192C21.2238 34.9873 21.2131 35.3841 21.2153 36.2877C21.2155 36.4865 21.2946 36.6771 21.4353 36.8176C21.5759 36.9581 21.7666 37.037 21.9653 37.037H21.9662C22.1653 37.0366 22.356 36.9571 22.4965 36.8161C22.637 36.6751 22.7158 36.4841 22.7154 36.285C22.7137 35.4009 22.7239 35.0108 22.7446 34.1558L22.7464 34.0527C22.7475 34.0321 22.7472 34.0114 22.7455 33.9908C22.6301 31.9646 21.9242 31.4453 20.2807 30.9872L20.2799 30.9874ZM14.6379 28.6406C13.7092 27.6884 13.0294 25.7264 13.4973 24.0912C13.799 23.0363 14.9175 22.5564 15.8287 22.5564C16.7398 22.5564 17.8574 23.0363 18.1596 24.0912C18.6974 25.9678 17.8893 27.9003 16.8123 28.8375C16.1016 29.4571 15.3696 29.3906 14.6379 28.6406ZM7.78125 15.5625C9.32024 15.5625 10.8247 15.1061 12.1043 14.2511C13.3839 13.3961 14.3812 12.1808 14.9702 10.759C15.5591 9.33717 15.7132 7.77262 15.413 6.26321C15.1127 4.75379 14.3717 3.36731 13.2834 2.27908C12.1952 1.19085 10.8087 0.449759 9.2993 0.149518C7.78988 -0.150723 6.22533 0.00337149 4.80349 0.592316C3.38166 1.18126 2.16639 2.1786 1.31138 3.45822C0.456362 4.73784 0 6.24227 0 7.78125C0.00215908 9.84431 0.82266 11.8222 2.28146 13.281C3.74026 14.7398 5.7182 15.5603 7.78125 15.5625ZM7.40072 11.7047C6.23044 11.0147 3.23616 8.69625 3.43209 6.28969C3.52406 5.16469 4.21022 4.2481 5.22375 3.89822C6.075 3.60497 7.00575 3.76688 7.78125 4.31447C8.55656 3.76688 9.4875 3.60497 10.3389 3.89822C11.3523 4.2481 12.0382 5.16497 12.1303 6.28969C12.3262 8.69625 9.33187 11.0147 8.16206 11.7047C8.04677 11.7728 7.91533 11.8087 7.78144 11.8087C7.64755 11.8087 7.51601 11.7728 7.40072 11.7047ZM4.92741 6.41175C4.97081 5.88103 5.26406 5.47153 5.71294 5.31666C5.83424 5.27508 5.96158 5.25386 6.08981 5.25385C6.48478 5.25385 6.89081 5.45072 7.23 5.81822C7.30033 5.89413 7.38559 5.95469 7.48042 5.99611C7.57526 6.03752 7.67763 6.0589 7.78111 6.0589C7.88459 6.0589 7.98696 6.03752 8.08179 5.99611C8.17663 5.95469 8.26189 5.89413 8.33222 5.81822C8.78156 5.33072 9.34856 5.14416 9.84928 5.31666C10.2982 5.47153 10.5919 5.88103 10.6348 6.41175C10.7317 7.60153 9.1425 9.25397 7.78125 10.1719C6.42028 9.25416 4.83113 7.60172 4.9275 6.41194L4.92741 6.41175ZM30.2474 38.2031C30.247 38.5364 30.1145 38.8559 29.8788 39.0915C29.6432 39.3272 29.3237 39.4598 28.9904 39.4601H15.9656C15.834 39.4599 15.7046 39.4946 15.5906 39.5605L7.2 44.4046V40.2105C7.2 40.0116 7.12098 39.8208 6.98033 39.6802C6.83968 39.5395 6.64891 39.4605 6.45 39.4605H2.76375C2.42873 39.46 2.10758 39.3267 1.87069 39.0898C1.6338 38.8529 1.5005 38.5318 1.5 38.1968V19.8955C1.50052 19.5605 1.63384 19.2394 1.87072 19.0025C2.10761 18.7657 2.42875 18.6324 2.76375 18.6319H20.8067C21.5577 20.7533 22.8072 22.6634 24.45 24.2015C26.0929 25.7396 28.081 26.8608 30.2473 27.4706V38.2031H30.2474ZM34.0077 26.4844C27.1191 26.4844 21.5156 20.8809 21.5156 13.9923C21.5156 7.10363 27.1191 1.5 34.0077 1.5C40.8964 1.5 46.5 7.10447 46.5 13.9923C46.5 20.8801 40.8956 26.4844 34.0077 26.4844ZM40.7691 11.9408H38.5076C38.5311 10.5937 38.3979 7.97925 37.1007 7.00229C36.7004 6.70107 36.0226 6.42282 35.0653 6.80813C34.9221 6.86763 34.7824 6.93524 34.6469 7.01063C34.5265 7.07756 34.4268 7.17628 34.3587 7.29601C34.2906 7.41574 34.2567 7.55188 34.2607 7.68957L34.3209 9.64322C33.6372 10.9579 32.8401 12.2105 31.9387 13.3868L31.5504 13.3978C31.3942 13.4025 31.2434 13.456 31.1192 13.5508V13.3098C31.1189 13.0098 30.9996 12.7221 30.7875 12.51C30.5754 12.2978 30.2878 12.1785 29.9878 12.1781H26.7307C26.4308 12.1784 26.1432 12.2978 25.9311 12.5099C25.719 12.722 25.5997 13.0095 25.5994 13.3095V20.2318C25.5998 20.5318 25.7192 20.8193 25.9312 21.0315C26.1433 21.2436 26.4308 21.3631 26.7307 21.3637H29.9878C30.2204 21.3632 30.4472 21.2911 30.6374 21.1572C30.8277 21.0233 30.9721 20.8341 31.051 20.6153C31.2319 20.6728 31.4221 20.7278 31.619 20.7841C31.8273 20.8438 32.1121 20.9265 32.1881 20.9632C32.2947 21.0185 32.413 21.0474 32.5331 21.0475H39.3807C39.7508 21.0484 40.1103 20.9241 40.4008 20.6948C40.6913 20.4656 40.8957 20.1448 40.9809 19.7847L42.3693 13.9677C42.427 13.726 42.4293 13.4743 42.3758 13.2316C42.3223 12.9889 42.2145 12.7614 42.0605 12.5663C41.9065 12.3712 41.7103 12.2136 41.4866 12.1052C41.2629 11.9969 41.0176 11.9406 40.7691 11.9407V11.9408ZM29.6194 19.8637V13.6781H27.0996V19.8636L29.6194 19.8637ZM40.9106 13.6199C40.9156 13.5986 40.9157 13.5764 40.911 13.555C40.9062 13.5336 40.8966 13.5136 40.883 13.4964C40.8694 13.4792 40.8521 13.4653 40.8323 13.4558C40.8126 13.4462 40.791 13.4412 40.7691 13.4412H37.7222C37.6172 13.4413 37.5134 13.4192 37.4175 13.3766C37.3216 13.3339 37.2357 13.2716 37.1655 13.1936C37.0952 13.1156 37.0421 13.0237 37.0096 12.9239C36.9772 12.8241 36.966 12.7186 36.977 12.6142C37.126 11.1656 36.8974 8.72644 36.1988 8.2005C36.1436 8.15935 36.0366 8.07863 35.776 8.14875L35.8265 9.78882C35.8298 9.91383 35.8025 10.0378 35.7469 10.1498C34.9479 11.7283 33.9895 13.221 32.8866 14.6045C32.8185 14.6864 32.7339 14.753 32.6382 14.7997C32.5425 14.8465 32.4379 14.8723 32.3315 14.8756L31.5946 14.8973C31.4235 14.9041 31.2554 14.8511 31.1192 14.7473V19.0472C31.3723 19.1525 31.8008 19.2758 32.0343 19.3435C32.3138 19.4241 32.5225 19.4851 32.6866 19.5479H39.3803C39.4133 19.5495 39.4457 19.5391 39.4716 19.5186C39.4974 19.4981 39.515 19.4689 39.521 19.4364L40.9103 13.6198L40.9106 13.6199ZM40.2188 32.4375C38.6798 32.4375 37.1753 32.8939 35.8957 33.7489C34.6161 34.6039 33.6188 35.8192 33.0298 37.241C32.4409 38.6628 32.2868 40.2274 32.587 41.7368C32.8873 43.2462 33.6283 44.6327 34.7166 45.7209C35.8048 46.8092 37.1913 47.5502 38.7007 47.8505C40.2101 48.1507 41.7747 47.9966 43.1965 47.4077C44.6183 46.8187 45.8336 45.8214 46.6886 44.5418C47.5436 43.2622 48 41.7577 48 40.2188C47.9978 38.1557 47.1773 36.1778 45.7185 34.719C44.2597 33.2602 42.2818 32.4397 40.2188 32.4375ZM43.0312 36.0938C43.3793 36.094 43.713 36.2324 43.9591 36.4784C44.2051 36.7245 44.3435 37.0582 44.3438 37.4063V43.0313C44.3434 43.3792 44.205 43.7129 43.9589 43.9589C43.7129 44.205 43.3792 44.3434 43.0312 44.3438H37.4062C37.0583 44.3434 36.7246 44.205 36.4786 43.9589C36.2325 43.7129 36.0941 43.3792 36.0938 43.0313V37.4063C36.094 37.0582 36.2324 36.7246 36.4785 36.4785C36.7246 36.2324 37.0582 36.0941 37.4062 36.0938H43.0312ZM42.8438 42.8438H37.5938V37.5938H42.8438V42.8438ZM40.6632 38.9063C40.6632 38.7579 40.7072 38.6129 40.7896 38.4896C40.872 38.3662 40.9892 38.2701 41.1262 38.2133C41.2633 38.1566 41.4141 38.1417 41.5595 38.1707C41.705 38.1996 41.8387 38.271 41.9435 38.3759C42.0484 38.4808 42.1199 38.6144 42.1488 38.7599C42.1777 38.9054 42.1629 39.0562 42.1061 39.1933C42.0494 39.3303 41.9532 39.4474 41.8299 39.5299C41.7066 39.6123 41.5616 39.6563 41.4132 39.6563C41.3147 39.6563 41.2171 39.6369 41.1261 39.5992C41.0351 39.5616 40.9524 39.5063 40.8827 39.4367C40.813 39.367 40.7578 39.2843 40.7201 39.1933C40.6823 39.1023 40.6629 39.0048 40.6629 38.9063H40.6632Z" stroke="url(#paint2_radial_5937_170363)" stroke-opacity="0.3" stroke-width="1.6" shape-rendering="crispEdges" mask="url(#path-1-inside-1_5937_170363)"/>
</g>
</g>
<defs>
<filter id="filter0_bd_5937_170363" x="-400" y="-400" width="848" height="848" filterUnits="userSpaceOnUse" color-interpolation-filters="sRGB">
<feFlood flood-opacity="0" result="BackgroundImageFix"/>
<feGaussianBlur in="BackgroundImageFix" stdDeviation="200"/>
<feComposite in2="SourceAlpha" operator="in" result="effect1_backgroundBlur_5937_170363"/>
<feColorMatrix in="SourceAlpha" type="matrix" values="0 0 0 0 0 0 0 0 0 0 0 0 0 0 0 0 0 0 127 0" result="hardAlpha"/>
<feOffset dy="1.6"/>
<feGaussianBlur stdDeviation="0.8"/>
<feComposite in2="hardAlpha" operator="out"/>
<feColorMatrix type="matrix" values="0 0 0 0 0 0 0 0 0 0 0 0 0 0 0 0 0 0 0.25 0"/>
<feBlend mode="normal" in2="effect1_backgroundBlur_5937_170363" result="effect2_dropShadow_5937_170363"/>
<feBlend mode="normal" in="SourceGraphic" in2="effect2_dropShadow_5937_170363" result="shape"/>
</filter>
<linearGradient id="paint0_linear_5937_170363" x1="1.98058" y1="1.23636" x2="24.5979" y2="59.3123" gradientUnits="userSpaceOnUse">
<stop stop-color="white" stop-opacity="0.6"/>
<stop offset="1" stop-color="white" stop-opacity="0"/>
</linearGradient>
<radialGradient id="paint1_radial_5937_170363" cx="0" cy="0" r="1" gradientUnits="userSpaceOnUse" gradientTransform="translate(24 0.436364) rotate(90) scale(41.6727 41.6727)">
<stop stop-color="white"/>
<stop offset="1" stop-color="white" stop-opacity="0"/>
</radialGradient>
<radialGradient id="paint2_radial_5937_170363" cx="0" cy="0" r="1" gradientUnits="userSpaceOnUse" gradientTransform="translate(24 48) rotate(-90) scale(24 24)">
<stop stop-color="white"/>
<stop offset="1" stop-color="white" stop-opacity="0"/>
</radialGradient>
<clipPath id="clip0_5937_170363">
<rect width="48" height="48" fill="white"/>
</clipPath>
</defs>
</svg>
