<svg width="1280" height="790" viewBox="0 0 1280 790" fill="none" xmlns="http://www.w3.org/2000/svg">
<g clip-path="url(#clip0_3178_602835)">
<rect width="1280" height="790" fill="#080808"/>
<mask id="mask0_3178_602835" style="mask-type:alpha" maskUnits="userSpaceOnUse" x="0" y="0" width="1405" height="790">
<rect width="1404.44" height="790" fill="url(#paint0_linear_3178_602835)"/>
</mask>
<g mask="url(#mask0_3178_602835)">
<rect width="1404.44" height="790" fill="url(#paint1_linear_3178_602835)"/>
<g style="mix-blend-mode:plus-lighter" filter="url(#filter0_f_3178_602835)">
<path d="M844.86 573.286L335.749 192.916L280.156 307.027L678.082 687.397L1099.42 716.657L1193.05 643.509L844.86 573.286Z" fill="url(#paint2_linear_3178_602835)"/>
<path d="M844.86 573.286L335.749 192.916L280.156 307.027L678.082 687.397L1099.42 716.657L1193.05 643.509L844.86 573.286Z" stroke="#00C5FA" strokeWidth="1.46296"/>
</g>
<g style="mix-blend-mode:plus-lighter" filter="url(#filter1_f_3178_602835)">
<path d="M1380.42 496.839L1291.67 661.951L819.956 804.899L463.566 562.185L43.4649 48.0871L124.483 -109.966L330.738 178.59L904.769 615.339L1380.42 496.839Z" fill="url(#paint3_linear_3178_602835)"/>
<path d="M1380.42 496.839L1291.67 661.951L819.956 804.899L463.566 562.185L43.4649 48.0871L124.483 -109.966L330.738 178.59L904.769 615.339L1380.42 496.839Z" stroke="black" strokeWidth="0.731481"/>
</g>
<g filter="url(#filter2_f_3178_602835)">
<path d="M-111.255 -33.0333L-301.375 -325.172V-509.111L1381.88 -473.045L1776.03 -296.319L1381.88 284.352L834.707 338.452L468.379 374.518L-111.255 -33.0333Z" fill="url(#paint4_linear_3178_602835)"/>
<path d="M-111.255 -33.0333L-301.375 -325.172V-509.111L1381.88 -473.045L1776.03 -296.319L1381.88 284.352L834.707 338.452L468.379 374.518L-111.255 -33.0333Z" stroke="#00C5FA" strokeWidth="1.46296"/>
</g>
<g style="mix-blend-mode:plus-lighter" filter="url(#filter3_f_3178_602835)">
<path d="M-723.229 1179.87C-630.895 1236.82 -611.171 1346.69 -679.151 1425.29L-680.504 1426.85C-748.484 1505.45 -878.456 1523.01 -970.772 1466.06L-1041.77 1422.28C-1134.1 1365.33 -1153.83 1255.45 -1085.85 1176.86L-1084.49 1175.29C-1016.51 1096.7 -886.541 1079.13 -794.225 1136.08L-723.229 1179.87ZM-896.839 520.626C-989.173 463.678 -1116.92 478.669 -1182.16 554.115C-1247.4 629.561 -1225.46 736.882 -1133.13 793.814L-244.388 1341.95C-152.054 1398.9 -24.3098 1383.91 40.9311 1308.46C106.172 1233.02 84.2359 1125.7 -8.09566 1068.76L-896.839 520.626ZM-991.072 -90.9312C-1083.41 -147.879 -1211.15 -132.888 -1276.41 -57.4392C-1341.65 18.0072 -1319.71 125.328 -1227.38 182.26L463.755 1225.26C556.089 1282.21 683.833 1267.22 749.074 1191.78C814.315 1116.33 792.379 1009.01 700.047 952.076L-991.072 -90.9312ZM318.828 168.752L547.354 -95.4581C612.613 -170.907 596.646 -274.532 511.69 -326.916C426.731 -379.315 304.974 -360.632 239.733 -285.185L-106.948 115.628C-172.207 191.077 -156.24 294.702 -71.2831 347.086L380.049 625.447C465.008 677.846 586.765 659.163 652.006 583.717C717.265 508.268 701.298 404.643 616.341 352.259L318.83 168.767L318.828 168.752Z" fill="#0075FF"/>
</g>
<g filter="url(#filter4_f_3178_602835)">
<path d="M61.3855 -73.9962L-128.734 -366.135V-550.074L1554.52 -514.008L1948.67 -337.282L1554.52 243.389L1007.35 297.489L641.019 333.555L61.3855 -73.9962Z" fill="url(#paint5_linear_3178_602835)"/>
<path d="M61.3855 -73.9962L-128.734 -366.135V-550.074L1554.52 -514.008L1948.67 -337.282L1554.52 243.389L1007.35 297.489L641.019 333.555L61.3855 -73.9962Z" stroke="#00C5FA" strokeWidth="1.46296"/>
</g>
<g opacity="0.5" filter="url(#filter5_f_3178_602835)">
<path d="M595.422 -170.142L820.133 -385.49L2020.93 -331.653L2070.09 287.473H1185.29L595.422 -170.142Z" fill="black"/>
<path d="M595.422 -170.142L820.133 -385.49L2020.93 -331.653L2070.09 287.473H1185.29L595.422 -170.142Z" stroke="black" strokeWidth="0.731481"/>
</g>
<rect x="-2.92188" width="1404.44" height="790" fill="black" fill-opacity="0.2"/>
</g>
<rect opacity="0.9" width="1280" height="790" fill="url(#paint6_linear_3178_602835)"/>
</g>
<defs>
<filter id="filter0_f_3178_602835" x="-159.623" y="-247.088" width="1793.26" height="1403.38" filterUnits="userSpaceOnUse" color-interpolation-filters="sRGB">
<feFlood flood-opacity="0" result="BackgroundImageFix"/>
<feBlend mode="normal" in="SourceGraphic" in2="BackgroundImageFix" result="shape"/>
<feGaussianBlur stdDeviation="219.444" result="effect1_foregroundBlur_3178_602835"/>
</filter>
<filter id="filter1_f_3178_602835" x="-322.71" y="-476.409" width="2069.59" height="1647.45" filterUnits="userSpaceOnUse" color-interpolation-filters="sRGB">
<feFlood flood-opacity="0" result="BackgroundImageFix"/>
<feBlend mode="normal" in="SourceGraphic" in2="BackgroundImageFix" result="shape"/>
<feGaussianBlur stdDeviation="182.87" result="effect1_foregroundBlur_3178_602835"/>
</filter>
<filter id="filter2_f_3178_602835" x="-594.702" y="-802.452" width="2664.42" height="1470.32" filterUnits="userSpaceOnUse" color-interpolation-filters="sRGB">
<feFlood flood-opacity="0" result="BackgroundImageFix"/>
<feBlend mode="normal" in="SourceGraphic" in2="BackgroundImageFix" result="shape"/>
<feGaussianBlur stdDeviation="146.296" result="effect1_foregroundBlur_3178_602835"/>
</filter>
<filter id="filter3_f_3178_602835" x="-1350.54" y="-393.221" width="2173.73" height="1929.3" filterUnits="userSpaceOnUse" color-interpolation-filters="sRGB">
<feFlood flood-opacity="0" result="BackgroundImageFix"/>
<feBlend mode="normal" in="SourceGraphic" in2="BackgroundImageFix" result="shape"/>
<feGaussianBlur stdDeviation="18.287" result="effect1_foregroundBlur_3178_602835"/>
</filter>
<filter id="filter4_f_3178_602835" x="-422.061" y="-843.415" width="2664.42" height="1470.32" filterUnits="userSpaceOnUse" color-interpolation-filters="sRGB">
<feFlood flood-opacity="0" result="BackgroundImageFix"/>
<feBlend mode="normal" in="SourceGraphic" in2="BackgroundImageFix" result="shape"/>
<feGaussianBlur stdDeviation="146.296" result="effect1_foregroundBlur_3178_602835"/>
</filter>
<filter id="filter5_f_3178_602835" x="448.563" y="-532.16" width="1768.22" height="966.294" filterUnits="userSpaceOnUse" color-interpolation-filters="sRGB">
<feFlood flood-opacity="0" result="BackgroundImageFix"/>
<feBlend mode="normal" in="SourceGraphic" in2="BackgroundImageFix" result="shape"/>
<feGaussianBlur stdDeviation="73.1482" result="effect1_foregroundBlur_3178_602835"/>
</filter>
<linearGradient id="paint0_linear_3178_602835" x1="-3.85574e-06" y1="26.3333" x2="1391.34" y2="804.173" gradientUnits="userSpaceOnUse">
<stop/>
<stop offset="1" stop-color="#222CB1"/>
</linearGradient>
<linearGradient id="paint1_linear_3178_602835" x1="-3.85574e-06" y1="26.3333" x2="1391.34" y2="804.173" gradientUnits="userSpaceOnUse">
<stop/>
<stop offset="1" stop-color="#222CB1"/>
</linearGradient>
<linearGradient id="paint2_linear_3178_602835" x1="736.601" y1="192.916" x2="736.601" y2="716.657" gradientUnits="userSpaceOnUse">
<stop stop-color="#2472BA"/>
<stop offset="1" stop-color="#6DE0FF"/>
</linearGradient>
<linearGradient id="paint3_linear_3178_602835" x1="444.014" y1="690.325" x2="-399.501" y2="547.043" gradientUnits="userSpaceOnUse">
<stop stop-color="#6DE0FF"/>
<stop offset="1" stop-color="#1A0B34"/>
</linearGradient>
<linearGradient id="paint4_linear_3178_602835" x1="76.0695" y1="-40.9632" x2="1430.77" y2="304.296" gradientUnits="userSpaceOnUse">
<stop/>
<stop offset="0.5" stop-color="#0B0F30"/>
<stop offset="1" stop-color="#0B0E28"/>
</linearGradient>
<linearGradient id="paint5_linear_3178_602835" x1="248.71" y1="-81.9261" x2="1603.41" y2="263.333" gradientUnits="userSpaceOnUse">
<stop/>
<stop offset="0.5" stop-color="#0B0F30"/>
<stop offset="1" stop-color="#0B0E28"/>
</linearGradient>
<linearGradient id="paint6_linear_3178_602835" x1="0" y1="395" x2="1280" y2="395" gradientUnits="userSpaceOnUse">
<stop stop-color="#080808"/>
<stop offset="1" stop-color="#080808" stop-opacity="0"/>
</linearGradient>
<clipPath id="clip0_3178_602835">
<rect width="1280" height="790" fill="white"/>
</clipPath>
</defs>
</svg>