<svg width="480" height="78" viewBox="0 0 480 78" fill="none" xmlns="http://www.w3.org/2000/svg">
<path fill-rule="evenodd" clip-rule="evenodd" d="M474.655 42.1269C477.784 39.8585 479.2 37.6671 479.2 35.6C479.2 33.5329 477.784 31.3416 474.655 29.0731C471.549 26.8216 466.917 24.6167 460.875 22.4978C448.801 18.2635 431.285 14.4367 409.588 11.2183C366.206 4.78337 306.247 0.8 240 0.8C173.753 0.8 113.794 4.78337 70.4118 11.2183C48.7147 14.4367 31.1991 18.2635 19.1251 22.4978C13.0832 24.6167 8.45141 26.8216 5.34547 29.0731C2.21606 31.3416 0.8 33.5329 0.8 35.6C0.8 37.6671 2.21606 39.8585 5.34547 42.1269C8.45141 44.3784 13.0832 46.5833 19.1251 48.7022C31.1991 52.9366 48.7147 56.7633 70.4118 59.9817C108.368 65.6118 159.013 69.3652 215.458 70.2161C215.452 70.2093 215.446 70.2027 215.439 70.1963L209.646 64.4034C209.451 64.2081 209.451 63.8915 209.646 63.6963C209.842 63.501 210.158 63.501 210.354 63.6963L216.146 69.4891C216.732 70.0749 216.732 71.0247 216.146 71.6105L210.354 77.4034C210.158 77.5986 209.842 77.5986 209.646 77.4034C209.451 77.2081 209.451 76.8915 209.646 76.6963L215.328 71.0142C94.3708 69.182 0 54.0258 0 35.6C0 15.9387 107.452 0 240 0C372.548 0 480 15.9387 480 35.6C480 54.1106 384.759 69.3215 263 71.0387V70.2386C320.064 69.4334 371.287 65.663 409.588 59.9817C431.285 56.7633 448.801 52.9366 460.875 48.7022C466.917 46.5833 471.549 44.3784 474.655 42.1269ZM252.396 66.0579C252.014 66.3132 251.564 66.4493 251.104 66.449C250.488 66.448 249.898 66.203 249.463 65.7676C249.027 65.3322 248.782 64.7419 248.781 64.1261C248.781 63.6662 248.917 63.2165 249.172 62.834C249.428 62.4514 249.791 62.1532 250.215 61.9771C250.64 61.8009 251.108 61.7547 251.559 61.8444C252.01 61.934 252.424 62.1555 252.75 62.4807C253.075 62.8059 253.296 63.2202 253.386 63.6713C253.475 64.1224 253.429 64.5899 253.253 65.0147C253.077 65.4396 252.779 65.8026 252.396 66.0579ZM251.444 63.6178C251.343 63.551 251.225 63.5155 251.104 63.5158C251.024 63.5158 250.945 63.5316 250.871 63.5623C250.797 63.593 250.73 63.638 250.673 63.6947C250.617 63.7514 250.572 63.8186 250.541 63.8927C250.511 63.9667 250.495 64.046 250.496 64.1261C250.496 64.2469 250.531 64.3649 250.599 64.4653C250.666 64.5657 250.761 64.6439 250.873 64.6901C250.984 64.7362 251.107 64.7482 251.226 64.7245C251.344 64.7008 251.453 64.6425 251.538 64.557C251.623 64.4715 251.681 64.3626 251.705 64.2441C251.728 64.1256 251.716 64.0028 251.669 63.8914C251.623 63.7799 251.544 63.6847 251.444 63.6178ZM226.857 74.4648H230.358C230.393 74.4655 230.429 74.4589 230.462 74.4456C230.495 74.4322 230.526 74.4123 230.551 74.387C230.576 74.3617 230.596 74.3316 230.609 74.2984C230.623 74.2652 230.629 74.2297 230.629 74.1939V71.5505H226.857C226.63 71.5505 226.412 71.4602 226.251 71.2994C226.09 71.1387 226 70.9207 226 70.6933C226 70.466 226.09 70.248 226.251 70.0872C226.412 69.9265 226.63 69.8362 226.857 69.8362H230.623V67.1979C230.623 67.1273 230.595 67.0595 230.546 67.0094C230.496 66.9593 230.428 66.9309 230.358 66.9305H226.857C226.63 66.9305 226.412 66.8402 226.251 66.6794C226.09 66.5187 226 66.3007 226 66.0733C226 65.846 226.09 65.628 226.251 65.4672C226.412 65.3065 226.63 65.2162 226.857 65.2162H230.363C230.888 65.2171 231.391 65.4262 231.763 65.7977C232.134 66.1692 232.342 66.6728 232.343 67.1979V74.199C232.342 74.7248 232.132 75.2287 231.76 75.5999C231.388 75.9712 230.883 76.1795 230.358 76.179H226.857C226.63 76.179 226.412 76.0887 226.251 75.928C226.09 75.7673 226 75.5492 226 75.3219C226 75.0946 226.09 74.8766 226.251 74.7158C226.412 74.5551 226.63 74.4648 226.857 74.4648ZM240.431 71.8213V74.199C240.43 74.7239 240.221 75.227 239.85 75.5981C239.479 75.9692 238.976 76.1781 238.451 76.179H236.074C235.549 76.1781 235.045 75.9693 234.674 75.5982C234.302 75.2271 234.093 74.7241 234.092 74.199V67.1979C234.093 66.6726 234.302 66.1691 234.673 65.7976C235.045 65.4262 235.548 65.2171 236.074 65.2162H239.574C239.801 65.2162 240.019 65.3065 240.18 65.4672C240.341 65.628 240.431 65.846 240.431 66.0733C240.431 66.3007 240.341 66.5187 240.18 66.6794C240.019 66.8402 239.801 66.9305 239.574 66.9305H236.074C236.003 66.9305 235.935 66.9586 235.884 67.0088C235.834 67.059 235.806 67.127 235.806 67.1979V69.8362H238.451C238.977 69.8371 239.481 70.0467 239.852 70.4189C240.223 70.7912 240.432 71.2956 240.431 71.8213ZM238.639 74.3869C238.689 74.3371 238.717 74.2695 238.717 74.199V71.8162C238.717 71.7457 238.689 71.6781 238.639 71.6283C238.589 71.5785 238.522 71.5505 238.451 71.5505H235.806V74.199C235.806 74.2341 235.813 74.2688 235.826 74.3011C235.84 74.3335 235.86 74.3628 235.885 74.3875C235.909 74.4122 235.939 74.4318 235.971 74.445C236.004 74.4583 236.038 74.465 236.074 74.4648H238.451C238.522 74.4648 238.589 74.4368 238.639 74.3869ZM244.709 76.179H246C246.669 76.179 247.311 75.9132 247.785 75.4401C248.258 74.9669 248.524 74.325 248.525 73.6556V67.7396C248.524 67.0703 248.257 66.4288 247.784 65.9557C247.311 65.4826 246.669 65.2166 246 65.2162H244.709C244.04 65.2171 243.398 65.4832 242.925 65.9562C242.451 66.4292 242.185 67.0705 242.184 67.7396V73.6556C242.185 74.3249 242.451 74.9665 242.924 75.4396C243.398 75.9126 244.039 76.1786 244.709 76.179ZM243.898 67.7396C243.898 67.5249 243.984 67.3191 244.136 67.1674C244.288 67.0157 244.494 66.9305 244.709 66.9305H246C246.214 66.9305 246.42 67.0157 246.572 67.1674C246.724 67.3191 246.81 67.5249 246.81 67.7396V73.6556C246.81 73.8704 246.724 74.0762 246.572 74.2279C246.42 74.3796 246.214 74.4648 246 74.4648H244.709C244.494 74.4648 244.288 74.3796 244.136 74.2279C243.984 74.0762 243.898 73.8704 243.898 73.6556V67.7396Z" fill="url(#paint0_linear_7211_278942)"/>
<defs>
<linearGradient id="paint0_linear_7211_278942" x1="240" y1="0" x2="240" y2="71.1996" gradientUnits="userSpaceOnUse">
<stop stop-color="white" stop-opacity="0"/>
<stop offset="1" stop-color="white"/>
</linearGradient>
</defs>
</svg>
