<svg xmlns="http://www.w3.org/2000/svg" width="30" height="30" viewBox="0 0 30 30" fill="none">
<path fill-rule="evenodd" clip-rule="evenodd" d="M2.3125 14.9995C2.3125 7.9924 7.99289 2.31201 15 2.31201C22.0071 2.31201 27.6875 7.9924 27.6875 14.9995C27.6875 22.0066 22.0071 27.687 15 27.687C7.99289 27.687 2.3125 22.0066 2.3125 14.9995ZM20.0798 13.3394C20.6499 12.9501 20.7965 12.1723 20.4072 11.6022C20.0179 11.0321 19.2401 10.8855 18.67 11.2748L18.5434 11.3613C16.4922 12.7619 14.7242 14.5299 13.3261 16.5713L11.5083 14.7555C11.0199 14.2676 10.2284 14.268 9.74052 14.7564C9.25263 15.2448 9.25305 16.0363 9.74147 16.5242L12.668 19.4476C12.9434 19.7228 13.3315 19.8538 13.7174 19.8021C14.1033 19.7504 14.4431 19.5218 14.6365 19.1838C15.9501 16.8868 17.768 14.918 19.9532 13.4259L20.0798 13.3394Z" fill="white"/>
</svg>