<svg xmlns="http://www.w3.org/2000/svg" width="80" height="80" viewBox="0 0 80 80" fill="none">
  <g clip-path="url(#clip0_6253_113556)">
    <g filter="url(#filter0_bd_6253_113556)">
      <mask id="path-1-inside-1_6253_113556" fill="white">
        <path fill-rule="evenodd" clip-rule="evenodd" d="M33.6564 20.5566C44.9297 7.89324 62.7397 -0.270088 78.3564 0.00991184C79.2464 0.0332452 79.9631 0.749912 79.9864 1.63658C80.3497 17.2332 72.1197 35.0366 59.4431 46.3332C59.2397 57.1066 54.8231 67.5966 47.2064 75.2132C46.8731 75.5432 46.3897 75.7499 45.9164 75.7499C45.7531 75.7499 45.5931 75.7266 45.4397 75.6766C44.8431 75.4766 44.3497 75.0166 44.2597 74.3899L42.4197 61.5432L40.6431 63.1299C40.3264 63.4132 39.9297 63.5532 39.5331 63.5532C39.1031 63.5532 38.6764 63.3899 38.3531 63.0666L16.9297 41.6432C16.3031 41.0166 16.2731 40.0132 16.8631 39.3532L18.4497 37.5766L5.60306 35.7366C4.9764 35.6466 4.4564 35.2099 4.2564 34.6066C4.05973 34.0066 4.21973 33.3432 4.66973 32.8999C12.3931 25.1766 22.8831 20.7599 33.6564 20.5566ZM57.1031 31.2199C59.2397 31.2199 61.3731 30.4066 62.9964 28.7832C66.2464 25.5366 66.2464 20.2466 62.9964 16.9966C59.7464 13.7466 54.4597 13.7466 51.2097 16.9966C47.9631 20.2466 47.9631 25.5332 51.2097 28.7832C52.8331 30.4066 54.9664 31.2199 57.1031 31.2199ZM0.0701913 77.8543C0.616858 76.031 5.51353 59.9177 9.08019 56.351C13.0969 52.3377 19.6302 52.3343 23.6502 56.351C27.6669 60.3677 27.6669 66.9043 23.6502 70.921C20.0835 74.4876 3.97019 79.3843 2.14686 79.931C1.98686 79.9777 1.82686 80.001 1.66686 80.001C1.23019 80.001 0.806858 79.831 0.486858 79.511C0.056858 79.0777 -0.106475 78.441 0.0701913 77.8543Z"/>
      </mask>
      <path fill-rule="evenodd" clip-rule="evenodd" d="M33.6564 20.5566C44.9297 7.89324 62.7397 -0.270088 78.3564 0.00991184C79.2464 0.0332452 79.9631 0.749912 79.9864 1.63658C80.3497 17.2332 72.1197 35.0366 59.4431 46.3332C59.2397 57.1066 54.8231 67.5966 47.2064 75.2132C46.8731 75.5432 46.3897 75.7499 45.9164 75.7499C45.7531 75.7499 45.5931 75.7266 45.4397 75.6766C44.8431 75.4766 44.3497 75.0166 44.2597 74.3899L42.4197 61.5432L40.6431 63.1299C40.3264 63.4132 39.9297 63.5532 39.5331 63.5532C39.1031 63.5532 38.6764 63.3899 38.3531 63.0666L16.9297 41.6432C16.3031 41.0166 16.2731 40.0132 16.8631 39.3532L18.4497 37.5766L5.60306 35.7366C4.9764 35.6466 4.4564 35.2099 4.2564 34.6066C4.05973 34.0066 4.21973 33.3432 4.66973 32.8999C12.3931 25.1766 22.8831 20.7599 33.6564 20.5566ZM57.1031 31.2199C59.2397 31.2199 61.3731 30.4066 62.9964 28.7832C66.2464 25.5366 66.2464 20.2466 62.9964 16.9966C59.7464 13.7466 54.4597 13.7466 51.2097 16.9966C47.9631 20.2466 47.9631 25.5332 51.2097 28.7832C52.8331 30.4066 54.9664 31.2199 57.1031 31.2199ZM0.0701913 77.8543C0.616858 76.031 5.51353 59.9177 9.08019 56.351C13.0969 52.3377 19.6302 52.3343 23.6502 56.351C27.6669 60.3677 27.6669 66.9043 23.6502 70.921C20.0835 74.4876 3.97019 79.3843 2.14686 79.931C1.98686 79.9777 1.82686 80.001 1.66686 80.001C1.23019 80.001 0.806858 79.831 0.486858 79.511C0.056858 79.0777 -0.106475 78.441 0.0701913 77.8543Z" fill="url(#paint0_linear_6253_113556)" fill-opacity="0.8" shape-rendering="crispEdges"/>
      <path fill-rule="evenodd" clip-rule="evenodd" d="M33.6564 20.5566C44.9297 7.89324 62.7397 -0.270088 78.3564 0.00991184C79.2464 0.0332452 79.9631 0.749912 79.9864 1.63658C80.3497 17.2332 72.1197 35.0366 59.4431 46.3332C59.2397 57.1066 54.8231 67.5966 47.2064 75.2132C46.8731 75.5432 46.3897 75.7499 45.9164 75.7499C45.7531 75.7499 45.5931 75.7266 45.4397 75.6766C44.8431 75.4766 44.3497 75.0166 44.2597 74.3899L42.4197 61.5432L40.6431 63.1299C40.3264 63.4132 39.9297 63.5532 39.5331 63.5532C39.1031 63.5532 38.6764 63.3899 38.3531 63.0666L16.9297 41.6432C16.3031 41.0166 16.2731 40.0132 16.8631 39.3532L18.4497 37.5766L5.60306 35.7366C4.9764 35.6466 4.4564 35.2099 4.2564 34.6066C4.05973 34.0066 4.21973 33.3432 4.66973 32.8999C12.3931 25.1766 22.8831 20.7599 33.6564 20.5566ZM57.1031 31.2199C59.2397 31.2199 61.3731 30.4066 62.9964 28.7832C66.2464 25.5366 66.2464 20.2466 62.9964 16.9966C59.7464 13.7466 54.4597 13.7466 51.2097 16.9966C47.9631 20.2466 47.9631 25.5332 51.2097 28.7832C52.8331 30.4066 54.9664 31.2199 57.1031 31.2199ZM0.0701913 77.8543C0.616858 76.031 5.51353 59.9177 9.08019 56.351C13.0969 52.3377 19.6302 52.3343 23.6502 56.351C27.6669 60.3677 27.6669 66.9043 23.6502 70.921C20.0835 74.4876 3.97019 79.3843 2.14686 79.931C1.98686 79.9777 1.82686 80.001 1.66686 80.001C1.23019 80.001 0.806858 79.831 0.486858 79.511C0.056858 79.0777 -0.106475 78.441 0.0701913 77.8543Z" fill="#344254" fill-opacity="0.15" shape-rendering="crispEdges"/>
      <path d="M78.3564 0.00991184L78.3913 -1.32301L78.3803 -1.32321L78.3564 0.00991184ZM33.6564 20.5566L33.6816 21.8897L34.2646 21.8787L34.6523 21.4431L33.6564 20.5566ZM79.9864 1.63658L81.3194 1.60553L81.3193 1.60151L79.9864 1.63658ZM59.4431 46.3332L58.556 45.3378L58.121 45.7255L58.11 46.3081L59.4431 46.3332ZM47.2064 75.2132L48.1445 76.1608L48.1492 76.1561L47.2064 75.2132ZM45.4397 75.6766L45.016 76.9408L45.0264 76.9442L45.4397 75.6766ZM44.2597 74.3899L42.9399 74.5789L42.9399 74.5795L44.2597 74.3899ZM42.4197 61.5432L43.7396 61.3542L43.3869 58.8918L41.5316 60.5488L42.4197 61.5432ZM40.6431 63.1299L39.7549 62.1354L39.754 62.1362L40.6431 63.1299ZM38.3531 63.0666L39.2959 62.1238L38.3531 63.0666ZM16.9297 41.6432L15.9869 42.5861L15.9869 42.5861L16.9297 41.6432ZM16.8631 39.3532L17.8571 40.2419L17.8575 40.2414L16.8631 39.3532ZM18.4497 37.5766L19.4442 38.4647L21.1011 36.6094L18.6388 36.2567L18.4497 37.5766ZM5.60306 35.7366L5.41352 37.0564L5.41402 37.0564L5.60306 35.7366ZM4.2564 34.6066L2.98938 35.0219L2.99079 35.0261L4.2564 34.6066ZM4.66973 32.8999L5.60551 33.8498L5.61254 33.8427L4.66973 32.8999ZM62.9964 28.7832L62.0541 27.84L62.0536 27.8404L62.9964 28.7832ZM62.9964 16.9966L62.0536 17.9394L62.9964 16.9966ZM51.2097 16.9966L50.2669 16.0538L50.2664 16.0543L51.2097 16.9966ZM51.2097 28.7832L50.2664 29.7256L50.2669 29.7261L51.2097 28.7832ZM9.08019 56.351L8.13778 55.4078L8.13738 55.4082L9.08019 56.351ZM0.0701913 77.8543L1.34689 78.2388L1.34736 78.2372L0.0701913 77.8543ZM23.6502 56.351L24.593 55.4082L24.5926 55.4078L23.6502 56.351ZM23.6502 70.921L24.593 71.8638H24.593L23.6502 70.921ZM2.14686 79.931L2.52022 81.211L2.52978 81.2082L2.14686 79.931ZM0.486858 79.511L-0.459592 80.4502L-0.45595 80.4538L0.486858 79.511ZM78.3803 -1.32321C62.3407 -1.61079 44.1688 6.74278 32.6605 19.67L34.6523 21.4431C45.6907 9.04371 63.1388 1.07061 78.3325 1.34303L78.3803 -1.32321ZM81.3193 1.60151C81.2772 0.00428305 79.9887 -1.28109 78.3913 -1.32296L78.3215 1.34279C78.5041 1.34758 78.6489 1.49554 78.6535 1.67165L81.3193 1.60151ZM60.3301 47.3287C73.2664 35.8007 81.6928 17.6346 81.3194 1.60553L78.6534 1.66763C79.0067 16.8319 70.9731 34.2725 58.556 45.3378L60.3301 47.3287ZM48.1492 76.1561C56.0124 68.2928 60.5664 57.4728 60.7762 46.3584L58.11 46.3081C57.9131 56.7403 53.6337 66.9003 46.2636 74.2704L48.1492 76.1561ZM45.9164 77.0832C46.7539 77.0832 47.5708 76.7287 48.1445 76.1608L46.2683 74.2657C46.1754 74.3577 46.0256 74.4166 45.9164 74.4166V77.0832ZM45.0264 76.9442C45.3248 77.0415 45.6254 77.0832 45.9164 77.0832V74.4166C45.8807 74.4166 45.8614 74.4116 45.8531 74.4089L45.0264 76.9442ZM42.9399 74.5795C43.1209 75.8393 44.0856 76.6289 45.016 76.9408L45.8635 74.4124C45.7466 74.3732 45.6663 74.3165 45.6225 74.2709C45.584 74.2307 45.5807 74.2084 45.5795 74.2004L42.9399 74.5795ZM41.0999 61.7323L42.9399 74.5789L45.5796 74.2009L43.7396 61.3542L41.0999 61.7323ZM41.5312 64.1244L43.3079 62.5377L41.5316 60.5488L39.7549 62.1354L41.5312 64.1244ZM39.5331 64.8866C40.2441 64.8866 40.9609 64.6346 41.5321 64.1236L39.754 62.1362C39.6919 62.1919 39.6154 62.2199 39.5331 62.2199V64.8866ZM37.4103 64.0094C37.9948 64.5939 38.7655 64.8866 39.5331 64.8866V62.2199C39.4406 62.2199 39.358 62.1859 39.2959 62.1238L37.4103 64.0094ZM15.9869 42.5861L37.4103 64.0094L39.2959 62.1238L17.8725 40.7004L15.9869 42.5861ZM15.869 38.4646C14.8053 39.6545 14.8624 41.4615 15.9869 42.5861L17.8725 40.7004C17.7437 40.5716 17.7408 40.372 17.8571 40.2419L15.869 38.4646ZM17.4552 36.6884L15.8686 38.4651L17.8575 40.2414L19.4442 38.4647L17.4552 36.6884ZM5.41402 37.0564L18.2607 38.8964L18.6388 36.2567L5.7921 34.4167L5.41402 37.0564ZM2.99079 35.0261C3.3488 36.1061 4.28328 36.894 5.41352 37.0564L5.79261 34.4168C5.66951 34.3991 5.56399 34.3137 5.52201 34.187L2.99079 35.0261ZM3.73398 31.9501C2.92233 32.7497 2.63551 33.9423 2.98939 35.0219L5.5234 34.1913C5.48395 34.0709 5.51713 33.9368 5.60548 33.8497L3.73398 31.9501ZM33.6312 19.2235C22.5143 19.4333 11.695 23.989 3.72692 31.9571L5.61254 33.8427C13.0911 26.3641 23.2518 22.0865 33.6816 21.8897L33.6312 19.2235ZM62.0536 27.8404C60.6911 29.203 58.9016 29.8866 57.1031 29.8866V32.5532C59.5779 32.5532 62.0551 31.6102 63.9392 29.7261L62.0536 27.8404ZM62.0536 17.9394C64.7832 20.669 64.7825 25.1144 62.0541 27.84L63.9387 29.7265C67.7103 25.9588 67.7096 19.8242 63.9392 16.0538L62.0536 17.9394ZM52.1525 17.9394C54.8818 15.2101 59.3243 15.2101 62.0536 17.9394L63.9392 16.0538C60.1685 12.2831 54.0376 12.2831 50.2669 16.0538L52.1525 17.9394ZM52.153 27.8409C49.4264 25.1115 49.4264 20.6683 52.153 17.9389L50.2664 16.0543C46.4997 19.8248 46.4997 25.955 50.2664 29.7256L52.153 27.8409ZM57.1031 29.8866C55.3045 29.8866 53.5151 29.203 52.1525 27.8404L50.2669 29.7261C52.1511 31.6102 54.6283 32.5532 57.1031 32.5532V29.8866ZM8.13738 55.4082C7.06736 56.4782 6.01034 58.3443 5.04016 60.3872C4.04697 62.4784 3.06787 64.9251 2.19209 67.2941C0.439388 72.035 -0.930767 76.5502 -1.20697 77.4714L1.34736 78.2372C1.61782 77.3352 2.96933 72.882 4.6933 68.2188C5.55585 65.8856 6.50383 63.5213 7.44897 61.5312C8.41712 59.4926 9.30969 58.0071 10.023 57.2938L8.13738 55.4082ZM24.5926 55.4078C20.0517 50.8707 12.6748 50.8746 8.13778 55.4078L10.0226 57.2942C13.519 53.8008 19.2087 53.798 22.7078 57.2942L24.5926 55.4078ZM24.593 71.8638C29.1304 67.3264 29.1304 59.9455 24.593 55.4082L22.7074 57.2938C26.2034 60.7898 26.2034 66.4822 22.7074 69.9782L24.593 71.8638ZM2.52978 81.2082C3.45103 80.9319 7.96618 79.5618 12.7071 77.8091C15.0761 76.9333 17.5228 75.9542 19.614 74.961C21.6568 73.9908 23.523 72.9338 24.593 71.8638L22.7074 69.9782C21.9941 70.6915 20.5086 71.5841 18.47 72.5522C16.4799 73.4973 14.1156 74.4453 11.7824 75.3079C7.1192 77.0318 2.66602 78.3834 1.76394 78.6538L2.52978 81.2082ZM1.66686 81.3343C1.95837 81.3343 2.24397 81.2915 2.52021 81.211L1.77351 78.651C1.72974 78.6638 1.69535 78.6676 1.66686 78.6676V81.3343ZM-0.45595 80.4538C0.117082 81.0268 0.880812 81.3343 1.66686 81.3343V78.6676C1.57957 78.6676 1.49663 78.6351 1.42967 78.5682L-0.45595 80.4538ZM-1.20651 77.4699C-1.52613 78.5312 -1.22947 79.6743 -0.459585 80.4501L1.4333 78.5718C1.34318 78.481 1.31318 78.3508 1.34689 78.2388L-1.20651 77.4699Z" fill="url(#paint1_radial_6253_113556)" fill-opacity="0.6" mask="url(#path-1-inside-1_6253_113556)"/>
      <path d="M78.3564 0.00991184L78.3913 -1.32301L78.3803 -1.32321L78.3564 0.00991184ZM33.6564 20.5566L33.6816 21.8897L34.2646 21.8787L34.6523 21.4431L33.6564 20.5566ZM79.9864 1.63658L81.3194 1.60553L81.3193 1.60151L79.9864 1.63658ZM59.4431 46.3332L58.556 45.3378L58.121 45.7255L58.11 46.3081L59.4431 46.3332ZM47.2064 75.2132L48.1445 76.1608L48.1492 76.1561L47.2064 75.2132ZM45.4397 75.6766L45.016 76.9408L45.0264 76.9442L45.4397 75.6766ZM44.2597 74.3899L42.9399 74.5789L42.9399 74.5795L44.2597 74.3899ZM42.4197 61.5432L43.7396 61.3542L43.3869 58.8918L41.5316 60.5488L42.4197 61.5432ZM40.6431 63.1299L39.7549 62.1354L39.754 62.1362L40.6431 63.1299ZM38.3531 63.0666L39.2959 62.1238L38.3531 63.0666ZM16.9297 41.6432L15.9869 42.5861L15.9869 42.5861L16.9297 41.6432ZM16.8631 39.3532L17.8571 40.2419L17.8575 40.2414L16.8631 39.3532ZM18.4497 37.5766L19.4442 38.4647L21.1011 36.6094L18.6388 36.2567L18.4497 37.5766ZM5.60306 35.7366L5.41352 37.0564L5.41402 37.0564L5.60306 35.7366ZM4.2564 34.6066L2.98938 35.0219L2.99079 35.0261L4.2564 34.6066ZM4.66973 32.8999L5.60551 33.8498L5.61254 33.8427L4.66973 32.8999ZM62.9964 28.7832L62.0541 27.84L62.0536 27.8404L62.9964 28.7832ZM62.9964 16.9966L62.0536 17.9394L62.9964 16.9966ZM51.2097 16.9966L50.2669 16.0538L50.2664 16.0543L51.2097 16.9966ZM51.2097 28.7832L50.2664 29.7256L50.2669 29.7261L51.2097 28.7832ZM9.08019 56.351L8.13778 55.4078L8.13738 55.4082L9.08019 56.351ZM0.0701913 77.8543L1.34689 78.2388L1.34736 78.2372L0.0701913 77.8543ZM23.6502 56.351L24.593 55.4082L24.5926 55.4078L23.6502 56.351ZM23.6502 70.921L24.593 71.8638H24.593L23.6502 70.921ZM2.14686 79.931L2.52022 81.211L2.52978 81.2082L2.14686 79.931ZM0.486858 79.511L-0.459592 80.4502L-0.45595 80.4538L0.486858 79.511ZM78.3803 -1.32321C62.3407 -1.61079 44.1688 6.74278 32.6605 19.67L34.6523 21.4431C45.6907 9.04371 63.1388 1.07061 78.3325 1.34303L78.3803 -1.32321ZM81.3193 1.60151C81.2772 0.00428305 79.9887 -1.28109 78.3913 -1.32296L78.3215 1.34279C78.5041 1.34758 78.6489 1.49554 78.6535 1.67165L81.3193 1.60151ZM60.3301 47.3287C73.2664 35.8007 81.6928 17.6346 81.3194 1.60553L78.6534 1.66763C79.0067 16.8319 70.9731 34.2725 58.556 45.3378L60.3301 47.3287ZM48.1492 76.1561C56.0124 68.2928 60.5664 57.4728 60.7762 46.3584L58.11 46.3081C57.9131 56.7403 53.6337 66.9003 46.2636 74.2704L48.1492 76.1561ZM45.9164 77.0832C46.7539 77.0832 47.5708 76.7287 48.1445 76.1608L46.2683 74.2657C46.1754 74.3577 46.0256 74.4166 45.9164 74.4166V77.0832ZM45.0264 76.9442C45.3248 77.0415 45.6254 77.0832 45.9164 77.0832V74.4166C45.8807 74.4166 45.8614 74.4116 45.8531 74.4089L45.0264 76.9442ZM42.9399 74.5795C43.1209 75.8393 44.0856 76.6289 45.016 76.9408L45.8635 74.4124C45.7466 74.3732 45.6663 74.3165 45.6225 74.2709C45.584 74.2307 45.5807 74.2084 45.5795 74.2004L42.9399 74.5795ZM41.0999 61.7323L42.9399 74.5789L45.5796 74.2009L43.7396 61.3542L41.0999 61.7323ZM41.5312 64.1244L43.3079 62.5377L41.5316 60.5488L39.7549 62.1354L41.5312 64.1244ZM39.5331 64.8866C40.2441 64.8866 40.9609 64.6346 41.5321 64.1236L39.754 62.1362C39.6919 62.1919 39.6154 62.2199 39.5331 62.2199V64.8866ZM37.4103 64.0094C37.9948 64.5939 38.7655 64.8866 39.5331 64.8866V62.2199C39.4406 62.2199 39.358 62.1859 39.2959 62.1238L37.4103 64.0094ZM15.9869 42.5861L37.4103 64.0094L39.2959 62.1238L17.8725 40.7004L15.9869 42.5861ZM15.869 38.4646C14.8053 39.6545 14.8624 41.4615 15.9869 42.5861L17.8725 40.7004C17.7437 40.5716 17.7408 40.372 17.8571 40.2419L15.869 38.4646ZM17.4552 36.6884L15.8686 38.4651L17.8575 40.2414L19.4442 38.4647L17.4552 36.6884ZM5.41402 37.0564L18.2607 38.8964L18.6388 36.2567L5.7921 34.4167L5.41402 37.0564ZM2.99079 35.0261C3.3488 36.1061 4.28328 36.894 5.41352 37.0564L5.79261 34.4168C5.66951 34.3991 5.56399 34.3137 5.52201 34.187L2.99079 35.0261ZM3.73398 31.9501C2.92233 32.7497 2.63551 33.9423 2.98939 35.0219L5.5234 34.1913C5.48395 34.0709 5.51713 33.9368 5.60548 33.8497L3.73398 31.9501ZM33.6312 19.2235C22.5143 19.4333 11.695 23.989 3.72692 31.9571L5.61254 33.8427C13.0911 26.3641 23.2518 22.0865 33.6816 21.8897L33.6312 19.2235ZM62.0536 27.8404C60.6911 29.203 58.9016 29.8866 57.1031 29.8866V32.5532C59.5779 32.5532 62.0551 31.6102 63.9392 29.7261L62.0536 27.8404ZM62.0536 17.9394C64.7832 20.669 64.7825 25.1144 62.0541 27.84L63.9387 29.7265C67.7103 25.9588 67.7096 19.8242 63.9392 16.0538L62.0536 17.9394ZM52.1525 17.9394C54.8818 15.2101 59.3243 15.2101 62.0536 17.9394L63.9392 16.0538C60.1685 12.2831 54.0376 12.2831 50.2669 16.0538L52.1525 17.9394ZM52.153 27.8409C49.4264 25.1115 49.4264 20.6683 52.153 17.9389L50.2664 16.0543C46.4997 19.8248 46.4997 25.955 50.2664 29.7256L52.153 27.8409ZM57.1031 29.8866C55.3045 29.8866 53.5151 29.203 52.1525 27.8404L50.2669 29.7261C52.1511 31.6102 54.6283 32.5532 57.1031 32.5532V29.8866ZM8.13738 55.4082C7.06736 56.4782 6.01034 58.3443 5.04016 60.3872C4.04697 62.4784 3.06787 64.9251 2.19209 67.2941C0.439388 72.035 -0.930767 76.5502 -1.20697 77.4714L1.34736 78.2372C1.61782 77.3352 2.96933 72.882 4.6933 68.2188C5.55585 65.8856 6.50383 63.5213 7.44897 61.5312C8.41712 59.4926 9.30969 58.0071 10.023 57.2938L8.13738 55.4082ZM24.5926 55.4078C20.0517 50.8707 12.6748 50.8746 8.13778 55.4078L10.0226 57.2942C13.519 53.8008 19.2087 53.798 22.7078 57.2942L24.5926 55.4078ZM24.593 71.8638C29.1304 67.3264 29.1304 59.9455 24.593 55.4082L22.7074 57.2938C26.2034 60.7898 26.2034 66.4822 22.7074 69.9782L24.593 71.8638ZM2.52978 81.2082C3.45103 80.9319 7.96618 79.5618 12.7071 77.8091C15.0761 76.9333 17.5228 75.9542 19.614 74.961C21.6568 73.9908 23.523 72.9338 24.593 71.8638L22.7074 69.9782C21.9941 70.6915 20.5086 71.5841 18.47 72.5522C16.4799 73.4973 14.1156 74.4453 11.7824 75.3079C7.1192 77.0318 2.66602 78.3834 1.76394 78.6538L2.52978 81.2082ZM1.66686 81.3343C1.95837 81.3343 2.24397 81.2915 2.52021 81.211L1.77351 78.651C1.72974 78.6638 1.69535 78.6676 1.66686 78.6676V81.3343ZM-0.45595 80.4538C0.117082 81.0268 0.880812 81.3343 1.66686 81.3343V78.6676C1.57957 78.6676 1.49663 78.6351 1.42967 78.5682L-0.45595 80.4538ZM-1.20651 77.4699C-1.52613 78.5312 -1.22947 79.6743 -0.459585 80.4501L1.4333 78.5718C1.34318 78.481 1.31318 78.3508 1.34689 78.2388L-1.20651 77.4699Z" fill="url(#paint2_radial_6253_113556)" fill-opacity="0.3" mask="url(#path-1-inside-1_6253_113556)"/>
    </g>
  </g>
  <defs>
    <filter id="filter0_bd_6253_113556" x="-666.667" y="-666.664" width="1413.33" height="1413.33" filterUnits="userSpaceOnUse" color-interpolation-filters="sRGB">
      <feFlood flood-opacity="0" result="BackgroundImageFix"/>
      <feGaussianBlur in="BackgroundImageFix" stdDeviation="333.333"/>
      <feComposite in2="SourceAlpha" operator="in" result="effect1_backgroundBlur_6253_113556"/>
      <feColorMatrix in="SourceAlpha" type="matrix" values="0 0 0 0 0 0 0 0 0 0 0 0 0 0 0 0 0 0 127 0" result="hardAlpha"/>
      <feOffset dy="2.66667"/>
      <feGaussianBlur stdDeviation="1.33333"/>
      <feComposite in2="hardAlpha" operator="out"/>
      <feColorMatrix type="matrix" values="0 0 0 0 0 0 0 0 0 0 0 0 0 0 0 0 0 0 0.25 0"/>
      <feBlend mode="normal" in2="effect1_backgroundBlur_6253_113556" result="effect2_dropShadow_6253_113556"/>
      <feBlend mode="normal" in="SourceGraphic" in2="effect2_dropShadow_6253_113556" result="shape"/>
    </filter>
    <linearGradient id="paint0_linear_6253_113556" x1="3.30089" y1="2.06349" x2="40.9956" y2="98.8544" gradientUnits="userSpaceOnUse">
      <stop stop-color="white" stop-opacity="0.6"/>
      <stop offset="1" stop-color="white" stop-opacity="0"/>
    </linearGradient>
    <radialGradient id="paint1_radial_6253_113556" cx="0" cy="0" r="1" gradientUnits="userSpaceOnUse" gradientTransform="translate(39.999 0.730186) rotate(90) scale(69.4529 69.4528)">
      <stop stop-color="white"/>
      <stop offset="1" stop-color="white" stop-opacity="0"/>
    </radialGradient>
    <radialGradient id="paint2_radial_6253_113556" cx="0" cy="0" r="1" gradientUnits="userSpaceOnUse" gradientTransform="translate(39.999 80.001) rotate(-90) scale(39.999 39.999)">
      <stop stop-color="white"/>
      <stop offset="1" stop-color="white" stop-opacity="0"/>
    </radialGradient>
    <clipPath id="clip0_6253_113556">
      <rect width="80" height="80" fill="white"/>
    </clipPath>
  </defs>
</svg>